<svg id="Layer_1" data-name="Layer 1" xmlns="http://www.w3.org/2000/svg" width="1000" height="1000" viewBox="0 0 1000 1000"><defs><style>.cls-1{fill:#fff;}.cls-2{fill:#458dc9;}.cls-3{fill:#fc7272;}.cls-4{fill:#389b48;}.cls-5{fill:#ffc41f;}.cls-6{fill:#ea2f2f;}</style></defs><path d="M379.8781,925.0972c.03-4.3959,1.4307-8.87,6.1461-9.9953,3.17-.7566,6.62-.058,9.6647.92.5408.1737,1.0774.3615,1.6068.5675.1655.0644.33.1316.4943.1987-.04-.0163-.2109-.092-.0323-.0124a.995.995,0,0,0,1.4411-1.1078,1.8485,1.8485,0,0,1-.093-.5906,8.2288,8.2288,0,0,1,.0581-1.8544,9.7421,9.7421,0,0,1,3.3869-5.7527,15.6389,15.6389,0,0,1,18.5715-1.76,15.2513,15.2513,0,0,1,3.4331,2.7618c.6257.7037,2.0039-.0375,1.64-.9544-2.2722-5.7181-.7162-12.58,4.4087-16.1945,3.2879-2.319,7.2812-3.3768,11.2057-3.992,1.0038-.1573.861-1.6434,0-1.8919-5.1337-1.4817-10.4924-3.3611-14.74-6.7118-2.2975-1.8124-4.5126-4.3564-4.4942-7.45.0167-2.8072,1.88-5.1692,3.9252-6.9056a29.2585,29.2585,0,0,1,10.6831-5.3112,60.901,60.901,0,0,1,18.118-2.2564c.7912.01,1.3723-1.1224.6937-1.6746-7.3228-5.9585-14.716-12.3482-20.3575-19.9833-2.2481-3.0426-5.6749-7.8308-4.7354-11.8094.6587-2.79,3.7359-3.56,6.57-3.5492,4.9551.0194,9.9234,1.8542,14.3464,3.9406a79.5727,79.5727,0,0,1,20.1073,13.9422.9887.9887,0,0,0,1.64-.9545c-3.8569-12.05-7.2662-24.5814-8.0356-37.2673a46.9909,46.9909,0,0,1,.4324-11.2853,14.9037,14.9037,0,0,1,2.4925-6.46,4.3726,4.3726,0,0,1,3.8152-1.8678,8.7341,8.7341,0,0,1,4.767,2.3117c5.0972,4.3573,8.1825,11.0744,10.4824,17.22,3.8926,10.4017,5.8376,21.5092,6.7153,32.549q.2009,2.5275.3251,5.06a.986.986,0,0,0,1.9269.2608c2.8179-7.5,6.09-14.8556,9.5682-22.0685a202.572,202.572,0,0,1,9.9077-18.3478,75.7578,75.7578,0,0,1,11.532-15.1046c3.0038-2.8878,7.131-6.0976,11.5841-5.5149,3.6428.4767,5.1532,3.4212,5.33,6.8632.2625,5.1155-1.3433,10.3245-2.9775,15.1068a156.426,156.426,0,0,1-7.5805,17.8785c-3.9684,8.14-8.4132,16.0025-12.9973,23.8056-.0752.1279-.1544.2537-.2323.38-.5479.8883.5078,1.75,1.3422,1.3422,2.79-1.3624,5.67-2.5619,8.5657-3.6785,5.3275-2.0542,10.9288-3.974,16.633-4.5947,3.597-.3914,9.7736-.45,10.4324,4.3361.3045,2.212-.8482,4.4442-1.9971,6.2457a36.7784,36.7784,0,0,1-5.4641,6.4355,72.9693,72.9693,0,0,1-9.54,7.8736.9859.9859,0,0,0,.7559,1.7931,85.52,85.52,0,0,1,18.1187-1.8729c3.634.0369,7.9043.2111,11.0677,2.2272,3.7831,2.4111,2.5383,8.1977.9554,11.6062a20.4758,20.4758,0,0,1-7.3539,8.4823c-.9015.5672-.3365,2.1746.7559,1.793a8.0885,8.0885,0,0,1,4.5071-.32c3.9181.9452,3.8772,5.7159,3.4421,8.9235-.0648.4779.1086,1.1148.6852,1.2067,4.8881.7793,10.7083,2.5219,12.9841,7.3972a8.9616,8.9616,0,0,1,.8275,3.6657,9.4766,9.4766,0,0,1-.0591,1.1957c.0176-.1545-.0029.0658-.05.2686-.2837,1.2288,1.6075,1.7533,1.8919.5216a10.49,10.49,0,0,0-.9163-6.6419c-2.533-5.3171-8.75-7.4369-14.1567-8.2988l.6851,1.2068c.5565-4.1028.4156-9.5749-4.2444-11.1716a9.77,9.77,0,0,0-6.1182.1549l.7559,1.793a22.781,22.781,0,0,0,7.1137-7.4166,18.0142,18.0142,0,0,0,2.6244-8.462c.0961-2.1463-.1026-4.3273-1.5182-6.0313-2.4458-2.944-6.9019-3.6094-10.48-3.91a68.1609,68.1609,0,0,0-13.8369.502c-2.7443.3316-5.4946.7268-8.2025,1.2894l.7559,1.793a77.6284,77.6284,0,0,0,8.86-7.1553,45.7454,45.7454,0,0,0,6.0607-6.6991,14.6242,14.6242,0,0,0,3.0666-7.1472,6.674,6.674,0,0,0-2.5727-5.8392,11.1034,11.1034,0,0,0-6.57-1.8684c-6.0484-.1266-12.1853,1.8367-17.8139,3.8562a115.2815,115.2815,0,0,0-11.6409,4.847l1.3422,1.3422c4.227-6.8538,8.0991-13.9551,11.7213-21.1436a187.867,187.867,0,0,0,8.133-18.1848c2.0025-5.31,3.8692-10.93,4.1881-16.6395.2089-3.74-.4766-8.2025-4.1424-10.1112-4.0286-2.0977-8.716-.47-12.1935,1.9418-4.9581,3.4391-8.8044,8.3936-12.2083,13.305a160.9,160.9,0,0,0-10.9141,18.6635,283.35,283.35,0,0,0-12.1242,27.186c-.06.1574-.1208.3148-.18.4726l1.927.2608c-.6064-12.0318-2.3336-24.1707-6.2134-35.613-2.3762-7.0079-5.579-14.52-10.9778-19.7745-2.87-2.7937-7.3516-5.2818-11.0512-2.4421a11.2965,11.2965,0,0,0-3.545,5.7523,35.3482,35.3482,0,0,0-1.296,10.4648c-.0009,12.1516,2.9886,24.35,6.4037,35.93q.88,2.9826,1.8315,5.9432l1.64-.9544a82.9387,82.9387,0,0,0-18.9293-13.479c-4.9335-2.4961-10.3882-4.6469-15.9686-4.95-3.2571-.1769-7.3759.4442-8.9611,3.7209-1.8943,3.9155.6473,8.7275,2.7294,12.007,5.7116,8.996,14.2444,16.2793,22.4239,22.9348l.6937-1.6747A63.9941,63.9941,0,0,0,437.7,856.8748a33.3159,33.3159,0,0,0-12.0776,5.6933c-2.4973,1.9865-4.6395,4.7-4.9667,7.97-.3319,3.3163,1.4817,6.3336,3.8185,8.5349,4.562,4.2976,10.9086,6.5539,16.814,8.2584V885.44c-6.186.97-13.0243,3.3272-16.242,9.1388a16.2309,16.2309,0,0,0-1.4112,11.0452,13.9139,13.9139,0,0,0,.6685,2.4159l1.64-.9544a17.8291,17.8291,0,0,0-12.22-5.6912c-6.4465-.2356-14.5854,3.8574-16.287,10.5263a8.833,8.833,0,0,0-.1285,4.2691l1.4411-1.1078c-5.4456-2.4255-14.0072-4.0906-18.3028,1.22-1.99,2.4606-2.5078,5.7167-2.5291,8.7958a.9816.9816,0,0,0,1.962,0Z"/><path d="M508.2023,886.1249a44.6256,44.6256,0,0,0-2.5458-6.33c-1.579-3.255-3.6234-6.7175-6.7189-8.7409a6.8735,6.8735,0,0,0-9.3682,1.4069c-2.1733,3.0241-1.4657,7.3512-.5889,10.7036a41.0983,41.0983,0,0,0,3.1666,8.3007l1.1079-1.441c-4.3641-1.7795-10.1224-2.5237-14.4175-.2506-1.8565.9825-3.1162,2.7073-2.3658,4.845.6855,1.9529,2.4064,3.4814,3.9838,4.7287a30.9792,30.9792,0,0,0,3.8938,2.6571V900.31c-3.9042,2.5375-6.3343,7.3106-3.4081,11.5294.7147,1.03,2.4161.0507,1.6941-.99a5.1223,5.1223,0,0,1,.1412-6.4024,10.1913,10.1913,0,0,1,2.563-2.4427.9918.9918,0,0,0,0-1.6941,28.2512,28.2512,0,0,1-3.6717-2.4894c-1.2035-.9617-3.8059-2.9262-3.4517-4.7563.2345-1.2114,1.96-1.8393,2.9576-2.1593a13.6563,13.6563,0,0,1,5.3867-.4638,21.6462,21.6462,0,0,1,6.173,1.4746c.8577.35,1.457-.761,1.1078-1.4411a39.53,39.53,0,0,1-2.351-5.7433c-.9891-3.02-2.0387-6.7589-.9587-9.8923,1.0435-3.0271,4.565-3.8184,7.1513-2.2573,2.822,1.7033,4.65,4.9278,6.0785,7.7939a41.38,41.38,0,0,1,2.5491,6.2706c.3694,1.2035,2.2639.69,1.8919-.5215Z"/><rect class="cls-1" x="309.343" y="47.108" width="665.657" height="480.6868" rx="24.4048"/><path d="M950.5952,525.8328H339.7793c-1.8644,0-3.7293.0118-5.5937,0a22.7511,22.7511,0,0,1-22.8806-22.4442c-.0931-6.0134,0-12.0358,0-18.05V95.5528c0-7.8242-.0427-15.65,0-23.4738A22.7623,22.7623,0,0,1,333.7517,49.07c1.1872-.0183,2.3761,0,3.5633,0H933.4667c5.5882,0,11.18-.059,16.768,0A22.7461,22.7461,0,0,1,973.038,71.5251c.0259,1.6974,0,3.3972,0,5.0947V495.5245c0,2.433.0133,4.8664,0,7.2993a22.77,22.77,0,0,1-22.4428,23.009c-2.522.0475-2.53,3.9716,0,3.924A26.7328,26.7328,0,0,0,976.962,503.226c.028-2.1581,0-4.3184,0-6.4765V76.3825c0-1.622.0251-3.2464,0-4.8683A26.72,26.72,0,0,0,950.49,45.146c-5.0525-.0712-10.1113,0-15.1642,0h-598.45c-1.6578,0-3.3371-.0549-4.9913.07A26.708,26.708,0,0,0,307.3811,71.76c-.0936,7.2872,0,14.5818,0,21.87V485.6252c0,6.36-.3161,12.81.0438,19.1645a26.687,26.687,0,0,0,26.4717,24.9671c1.5674.0208,3.1365,0,4.7039,0H950.5952C953.12,529.7568,953.1243,525.8328,950.5952,525.8328Z"/><path d="M309.343,114.1649V63.0687A15.9607,15.9607,0,0,1,325.3037,47.108H959.0394A15.9606,15.9606,0,0,1,975,63.0687v51.0962Z"/><path d="M311.305,114.1649V72.5886c0-5.74-.9488-12.5876,2.5176-17.5411,2.8493-4.0716,7.366-5.9446,12.2015-5.9775,10.4339-.0709,20.8709,0,31.305,0H954.8708c6.27,0,12.2947.5355,16.1106,6.69,3.0977,4.9961,2.0566,12.2687,2.0566,17.9043v40.5005l1.962-1.962H336.364c-8.6249,0-17.2651-.15-25.8891,0-.377.0065-.7547,0-1.1319,0-2.5248,0-2.529,3.9239,0,3.9239H947.9791c8.6249,0,17.2651.15,25.889,0,.3771-.0065.7548,0,1.1319,0a1.99,1.99,0,0,0,1.962-1.9619V72.0658c0-5.8559.7086-12.2078-2.1689-17.5483A18.29,18.29,0,0,0,958.74,45.146c-9.7984-.1839-19.6182,0-29.4178,0H328.4554c-.961,0-1.924-.0182-2.8848,0a18.2341,18.2341,0,0,0-16.5775,10.5257c-2.3953,5.2729-1.612,11.7983-1.612,17.45v41.0433C307.3811,116.69,311.305,116.6939,311.305,114.1649Z"/><rect class="cls-2" x="632.6045" y="290.9859" width="243.0921" height="178.774" rx="7.7932"/><path d="M867.9033,467.7978H642.2775c-.6026,0-1.206.009-1.8086,0a5.9125,5.9125,0,0,1-5.9024-5.93c-.0365-2.6413,0-5.2858,0-7.9273V308.1889c0-3.0279-.0131-6.0561,0-9.084a5.94,5.94,0,0,1,5.8327-6.157c.4394-.0079.88,0,1.319,0H862.1568c1.8972,0,3.7971-.03,5.6941,0a5.915,5.915,0,0,1,5.8837,5.96c.0117.8519,0,1.7049,0,2.5569V458.6917c0,.9788.0037,1.9576,0,2.9364a5.944,5.944,0,0,1-5.8313,6.17c-2.5213.0552-2.53,3.9794,0,3.924a9.9085,9.9085,0,0,0,9.7552-9.8925c.0109-.8847,0-1.77,0-2.6548V301.3607c0-.8295.0124-1.66,0-2.4894a9.9029,9.9029,0,0,0-9.7585-9.8474c-1.6909-.03-3.3851,0-5.0762,0H641.5531c-.6133,0-1.2342-.0207-1.8458.03a9.8955,9.8955,0,0,0-9.0648,9.8974c-.02,2.8342,0,5.6692,0,8.5034V454.056c0,2.6135-.0394,5.23,0,7.8436a9.9014,9.9014,0,0,0,9.7643,9.8222c.48.009.9619,0,1.4423,0H867.9033C870.4282,471.7218,870.4324,467.7978,867.9033,467.7978Z"/><path d="M577.1185,467.6272H326.1226c-.918,0-1.86.0476-2.7764-.0323-4.7917-.4175-7.9151-4.5889-7.93-9.1841-.011-3.495,0-6.99,0-10.4852v-257.48c0-3.3464-.0153-6.6932,0-10.04a8.904,8.904,0,0,1,8.7713-9.1015c.7248-.0114,1.4508,0,2.1758,0H575.3244a18.5867,18.5867,0,0,1,3.3351.1279c4.5068.8368,7.2171,4.7439,7.2272,9.1594.0028,1.2352,0,2.47,0,3.7057V455.3343c0,1.06.0047,2.12,0,3.1793a8.9091,8.9091,0,0,1-8.7682,9.1136c-2.5218.0486-2.53,3.9728,0,3.924a12.8831,12.8831,0,0,0,12.6922-12.8546c.0107-.9761,0-1.953,0-2.9291V183.94c0-1.1657.0048-2.3315,0-3.4972a12.95,12.95,0,0,0-8.365-12.2956c-3.3385-1.26-7.6376-.7665-11.1522-.7665H326.1226c-.9894,0-1.9967-.0412-2.9828.0522a12.8658,12.8658,0,0,0-11.6472,12.8464c-.02,3.1662,0,6.3333,0,9.5V448.4861c0,3.3541-.0164,6.7087,0,10.0628a12.905,12.905,0,0,0,9.3181,12.5489,18.35,18.35,0,0,0,4.9759.4534H577.1185C579.6434,471.5512,579.6476,467.6272,577.1185,467.6272Z"/><path class="cls-1" d="M632.6045,459.337V403.8712l54.8025-59.227a19.0784,19.0784,0,0,1,27.59-.4357l55.8656,56.6752,35.8485-35.8485a19.0785,19.0785,0,0,1,26.7633-.2142l42.2216,40.892V481.46H632.8675Z"/><path d="M634.5665,459.337V403.8712l-.5747,1.3873,6.2522-6.7569,14.7611-15.9529,16.9836-18.3547,13.19-14.2552c3.2013-3.46,6.1551-7.0687,10.8447-8.59a17.3173,17.3173,0,0,1,15.837,2.6761,31.3529,31.3529,0,0,1,3.0824,2.9236l11.1934,11.3556,17.071,17.3185L759.74,392.3947l9.2929,9.4275.4425.4489a1.9909,1.9909,0,0,0,2.7746,0l16.4273-16.4273q9.55-9.55,19.1-19.1A17.4069,17.4069,0,0,1,825.1,362.1213c3.7281,1.101,6.3838,3.502,9.0758,6.1092l21.7076,21.024,11.592,11.2269c2.1666,2.0985,4.2732,4.2931,6.516,6.3108.11.0985.2122.2056.3181.3081l-.5746-1.3873V481.46l1.9619-1.962H642.7478c-3.1454,0-6.3355-.1547-9.4782,0-.1334.0065-.2685,0-.4021,0l1.962,1.962-.23-19.34-.0331-2.7828c-.03-2.5233-3.9541-2.53-3.924,0l.23,19.34.0331,2.7829a1.9922,1.9922,0,0,0,1.962,1.9619H865.8162c3.1574,0,6.3213.06,9.4783,0,.1339-.0025.2681,0,.402,0a1.99,1.99,0,0,0,1.962-1.9619V408.2692c0-1.4024.2884-3.0318-.7554-4.1186-4.1527-4.3239-8.6419-8.37-12.9476-12.54l-20.2582-19.62-6.9516-6.7326a31.5888,31.5888,0,0,0-5.9928-4.9413,21.2927,21.2927,0,0,0-19.9815-.5994,27.6732,27.6732,0,0,0-7.1757,5.6593l-17.2529,17.2529-15.9564,15.9564-.9106.9106H772.25l-11.0652-11.2256-22.702-23.031L719.541,346.0231c-1.0517-1.0669-2.0957-2.1422-3.1555-3.2012a21.2516,21.2516,0,0,0-21.7252-5.15c-6.5931,2.2643-10.8966,8.0234-15.4658,12.9615L658.5337,372.962l-20.6075,22.2712-5.7767,6.243c-.3068.3317-.6314.6536-.9237.9983a3.3,3.3,0,0,0-.5833,2.4694V459.337C630.6425,461.8619,634.5665,461.866,634.5665,459.337Z"/><circle class="cls-1" cx="767.8244" cy="329.4755" r="17.219"/><path d="M783.0815,329.4755a15.2552,15.2552,0,1,1-12.35-14.9858,15.3958,15.3958,0,0,1,12.35,14.9858c.0252,2.5235,3.9492,2.53,3.9239,0a19.1837,19.1837,0,1,0-15.3975,18.8015,19.4394,19.4394,0,0,0,15.3975-18.8015C787.0307,326.95,783.1067,326.9477,783.0815,329.4755Z"/><path d="M911.7685,214.945h-258.71c-4.3554,0-9.6049.6892-13.404-1.7963a10.9422,10.9422,0,0,1-4.7825-9.3209c-.0088-2.6464,0-5.293,0-7.94v-10.446c0-2.3192-.1852-4.7135.53-6.9512,1.5312-4.7938,6.0416-7.3886,10.8718-7.3886h253.64c3.8918,0,7.7856-.0358,11.6773,0a10.9242,10.9242,0,0,1,10.9111,11.2518c.0137,6.1559,0,12.312,0,18.4679a22.4683,22.4683,0,0,1-.4739,6.55,10.8383,10.8383,0,0,1-10.26,7.5727c-2.5225.0392-2.53,3.9633,0,3.9239a14.8747,14.8747,0,0,0,12.72-7.3686c1.64-2.8648,1.9382-5.931,1.9382-9.1395V183.1373a16.1418,16.1418,0,0,0-2.5426-9.5445,14.92,14.92,0,0,0-12.1192-6.4142c-.8921-.0122-1.7852,0-2.6774,0H646.2093a14.9761,14.9761,0,0,0-13.5921,7.8675c-1.4618,2.8414-1.6688,5.7931-1.6688,8.9v19.1058a15.86,15.86,0,0,0,2.7621,9.7084,15.2316,15.2316,0,0,0,12.666,6.1091h265.392C914.2934,218.8689,914.2976,214.945,911.7685,214.945Z"/><path d="M903.7217,312.9765h41.8245c2.5248,0,2.529-3.924,0-3.924H903.7217c-2.5249,0-2.5291,3.924,0,3.924Z"/><path d="M903.7217,337.7177h41.8245c2.5248,0,2.529-3.924,0-3.924H903.7217c-2.5249,0-2.5291,3.924,0,3.924Z"/><path d="M903.7217,362.4589h41.8245c2.5248,0,2.529-3.9239,0-3.9239H903.7217c-2.5249,0-2.5291,3.9239,0,3.9239Z"/><path d="M903.7217,387.2h41.8245c2.5248,0,2.529-3.924,0-3.924H903.7217c-2.5249,0-2.5291,3.924,0,3.924Z"/><path d="M903.7217,411.9414h41.8245c2.5248,0,2.529-3.924,0-3.924H903.7217c-2.5249,0-2.5291,3.924,0,3.924Z"/><path d="M931.2832,480.2558H921.069c-1.3153,0-2.6453.0521-3.9594-.0275a12.192,12.192,0,0,1-7.5886-3.3476,12.34,12.34,0,0,1-3.77-7.532,39.4754,39.4754,0,0,1-.0672-4.1783c0-3.43-.0341-6.8626,0-10.2929a12.453,12.453,0,0,1,10.073-12.1094,23.155,23.155,0,0,1,4.4009-.1947h6.4445c1.5193,0,3.039-.0107,4.5582,0a12.6591,12.6591,0,0,1,7.0732,2.1451,12.2456,12.2456,0,0,1,4.8343,6.6166,17.2333,17.2333,0,0,1,.5164,5.0137c0,3.7578.01,7.5157,0,11.2734a12.4735,12.4735,0,0,1-7.9679,11.8551,12.9264,12.9264,0,0,1-4.3331.7785c-2.5232.03-2.53,3.9546,0,3.924a16.44,16.44,0,0,0,15.5189-11.4824c1.2424-4.0157.706-8.7368.706-12.8826,0-4.8059.182-9.5056-2.5909-13.7339-3.2994-5.0311-8.68-7.4315-14.5734-7.4315-4.01,0-8.0195-.0089-12.0292,0a16.4463,16.4463,0,0,0-14.858,9.0047c-2.079,4.2748-1.6969,8.9061-1.6969,13.5122,0,4.5109-.432,9.1711,1.4213,13.4069a16.4,16.4,0,0,0,15.0168,9.6066c3.9526.0143,7.9055,0,11.8581,0h1.2273C933.8081,484.18,933.8123,480.2558,931.2832,480.2558Z"/><path class="cls-3" d="M86.3888,306.2953l-4.7865-28.1872c-.5318-20.7415,24.74-34.704,43.5852-41.0562l17.0438-5.7451,4.7865,55.3106L139.04,302.0406"/><path d="M88.2807,305.7737l-2.6433-15.5661-1.656-9.7522c-.1432-.8432-.3231-1.6892-.4309-2.5377-.02-.1574.0044-.5411.0077-.1249a23.4709,23.4709,0,0,1,.202-3.4821c1.3617-9.589,8.623-17.1586,16.189-22.5705a98.6235,98.6235,0,0,1,25.8661-12.8322q8.4661-2.8621,16.9376-5.7093l-2.4836-1.8919L141.89,250.04l2.572,29.7206.5934,6.8568.2679-.99L137.3462,301.05c-1.1585,2.24,2.2264,4.2267,3.3882,1.9806l7.2884-14.0909a5.2628,5.2628,0,0,0,.8974-3.0109l-.4137-4.7807-3.3366-38.556-.9766-11.2856a1.9859,1.9859,0,0,0-2.4836-1.8919c-14.2336,4.7979-28.8369,9.0238-41.4919,17.391C91.8332,252.35,83.7635,259.8281,80.7742,269.73a21.9283,21.9283,0,0,0-.9014,9.8553l1.4111,8.31,3.213,18.9213c.4219,2.4844,4.204,1.4309,3.7838-1.0431Z"/><rect class="cls-2" x="123.1183" y="111.8536" width="372.4662" height="273.9178" rx="11.9408"/><path d="M483.6437,383.8094H137.937c-.9245,0-1.85.0136-2.7746,0A10.1216,10.1216,0,0,1,125.08,373.687c-.056-4.0426,0-8.09,0-12.1328V138.2233c0-4.6457-.017-9.2918,0-13.9375.0208-5.6889,4.14-10.3684,9.9809-10.47.6692-.0117,1.34,0,2.0089,0h337.782c2.9038,0,5.8121-.0476,8.7156,0a10.1233,10.1233,0,0,1,10.0548,10.1662c.0174,1.307,0,2.6154,0,3.9225v240.94c0,1.4919.0053,2.9839,0,4.4759-.02,5.7124-4.1248,10.3646-9.9788,10.4893-2.5215.0537-2.53,3.9779,0,3.924a14.119,14.119,0,0,0,13.9028-14.1142c.0172-1.3517,0-2.7048,0-4.0566V127.7487c0-1.27.0176-2.541,0-3.8107a14.1094,14.1094,0,0,0-13.9076-14.0464c-2.5956-.0476-5.1966,0-7.7925,0H136.8541c-.9381,0-1.89-.0337-2.8253.0438a14.1,14.1,0,0,0-12.8725,14.1227c-.03,4.3561,0,8.7136,0,13.07V361.7266c0,3.9976-.0633,8.001,0,11.9983a14.1065,14.1065,0,0,0,13.9161,14.0085c.7524.013,1.5063,0,2.2588,0H483.6437C486.1686,387.7334,486.1727,383.8094,483.6437,383.8094Z"/><path class="cls-4" d="M123.1183,369.8015V284.8167l83.9686-90.7477a29.2319,29.2319,0,0,1,42.2741-.6676l85.5974,86.8379,54.9273-54.9272a29.232,29.232,0,0,1,41.0067-.3281l64.6921,62.6547V403.6981H123.5213Z"/><path d="M125.08,369.8015V284.8167l-.5747,1.3874,9.6244-10.4014,22.5768-24.4,26.0848-28.1907L202.94,201.4376c5.0857-5.4963,9.7714-11.11,17.2539-13.4838a27.5126,27.5126,0,0,1,25.1806,4.4938,52.27,52.27,0,0,1,4.7042,4.4765l17.1344,17.3827,26.1677,26.5469,25.3186,25.6855,14.2057,14.4116.6662.6759a1.991,1.991,0,0,0,2.7747,0l25.2283-25.2284q14.6153-14.6151,29.23-29.23a27.715,27.715,0,0,1,27.5879-7.31c5.87,1.746,10.0854,5.5184,14.3308,9.63l33.2613,32.2139,17.8527,17.29c3.2809,3.1776,6.4443,6.5958,9.8985,9.5868.161.1394.3083.2985.4614.4468l-.5746-1.3873V403.6981l1.962-1.962H138.6437c-4.8006,0-9.7122-.3013-14.5061,0-.2037.0128-.412,0-.6163,0l1.962,1.962-.352-29.6038-.051-4.2928c-.03-2.5233-3.9541-2.53-3.924,0l.352,29.6038.051,4.2928a1.9922,1.9922,0,0,0,1.962,1.9619H480.4621c4.8323,0,9.6744.09,14.5061,0,.2053-.0038.4109,0,.6163,0a1.99,1.99,0,0,0,1.962-1.9619v-112.09c0-1.7438.4786-4.2341-.8177-5.5922-6.294-6.5942-13.1482-12.7342-19.6951-19.0749L445.94,236.8269l-10.6878-10.3512a49.0341,49.0341,0,0,0-8.692-7.2748,31.523,31.523,0,0,0-29.8865-1.1569c-4.2456,2.0858-7.5313,5.2365-10.8166,8.5218L359.4561,252.967,334.9432,277.48l-1.3721,1.3721h2.7747L319.4976,261.76l-34.7669-35.2708-29.02-29.44c-1.6527-1.6767-3.2937-3.366-4.9586-5.03a31.51,31.51,0,0,0-32.0829-7.6912c-9.9834,3.367-16.5453,12.2183-23.4507,19.6812l-31.7567,34.3205-31.5967,34.1477-8.7425,9.4483c-.4538.49-.9764.9633-1.383,1.4947-.7346.96-.5838,1.9806-.5838,3.1169v83.265C121.1563,372.3264,125.08,372.3306,125.08,369.8015Z"/><circle class="cls-5" cx="330.3026" cy="170.8274" r="26.383"/><path d="M354.7236,170.8274a24.42,24.42,0,1,1-19.7919-23.9886,24.6448,24.6448,0,0,1,19.7919,23.9886c.0165,2.5241,3.9405,2.53,3.924,0a28.424,28.424,0,1,0-.3682,4.497,31.3747,31.3747,0,0,0,.3682-4.497C358.6641,168.3019,354.74,168.2991,354.7236,170.8274Z"/><polyline class="cls-3" points="262.707 858.543 262.707 905.46 208.057 916.287 206.511 845.139"/><path d="M260.7455,858.5432V905.46l1.44-1.8919-18.5348,3.672-29.3773,5.82-6.738,1.3349,2.4836,1.8919-.5247-24.1359-.83-38.1865-.1918-8.8258c-.0549-2.5213-3.979-2.53-3.924,0l.5247,24.1359.83,38.1865.1919,8.8258a1.9915,1.9915,0,0,0,2.4835,1.8919l18.5348-3.672,29.3773-5.82,6.738-1.3349a1.979,1.979,0,0,0,1.44-1.8919V858.5432c0-2.5249-3.9239-2.529-3.9239,0Z"/><path class="cls-5" d="M204.9376,900.9437l.2186,51.9483H320.5s1.9669-32.7536-41.1041-36.2067a15.3846,15.3846,0,0,1-14.0936-15.5183c.0227-2.2794.0476-4.1238.0724-5.6136a5.9779,5.9779,0,0,0-5.98-6.0761h-4.9365L241.3257,897.58a20.9057,20.9057,0,0,1-22.13-.1088l-3.74-2.3586A6.8593,6.8593,0,0,0,204.9376,900.9437Z"/><path d="M202.9756,900.9437l.0741,17.617.1175,27.9184.027,6.4129a1.9911,1.9911,0,0,0,1.962,1.962H306.2873c4.6574,0,9.3528.1743,14.008,0,.0681-.0026.1367,0,.2048,0a2.0031,2.0031,0,0,0,1.962-1.962,31.9541,31.9541,0,0,0-2.5425-13.3338c-4.0167-9.965-12.1327-17.0311-22.0473-20.9015a56.5187,56.5187,0,0,0-10.5039-2.9074c-2.1837-.3948-4.3882-.69-6.5968-.9041a17.3149,17.3149,0,0,1-5.4641-1.1671,13.5057,13.5057,0,0,1-7.22-7.6876,16.2038,16.2038,0,0,1-.8134-5.774c.0234-2.1626.3414-4.5663-.1745-6.6874a8.1031,8.1031,0,0,0-8.0706-6.0138c-1.2349-.0052-2.47,0-3.7049,0a3.9,3.9,0,0,0-2.0682.3986c-4.0077,2.2477-7.8538,4.846-11.7646,7.2591a22.82,22.82,0,0,1-7.6171,3.2336,18.9111,18.9111,0,0,1-12.9837-2.2037c-2.054-1.1876-3.961-2.8043-6.2042-3.622a8.8281,8.8281,0,0,0-11.7109,8.3628c-.0463,2.526,3.8777,2.5262,3.924,0a4.9486,4.9486,0,0,1,7.6943-4.0557c3.4743,2.119,6.72,4.3368,10.7875,5.2211a23.2091,23.2091,0,0,0,16.9368-2.836c2.0218-1.2242,4.0236-2.4826,6.0351-3.7237l7.0953-4.378-.99.2678c2.7308,0,6.7008-.7928,8.3852,1.9517a5.4963,5.4963,0,0,1,.5533,3.17c-.0249,1.65-.0828,3.3062-.056,4.9559a17.8991,17.8991,0,0,0,1.8,7.5152,17.3232,17.3232,0,0,0,11.6828,9.24c2.7637.6052,5.6518.6165,8.4463,1.0783a62.104,62.104,0,0,1,7.2452,1.6282c7.2046,2.0982,13.8494,5.7608,18.7021,11.4869a32.301,32.301,0,0,1,4.3731,6.9,24.3063,24.3063,0,0,1,1.216,3.0431q.543,1.5984.93,3.2446c.2387,1.0156.42,2.0393.578,3.07.0634.4136-.06-.4934-.0111-.0855.0124.1054.0272.2105.039.3159.026.2327.0527.4651.0753.6981q.0511.5295.0843,1.06a18.2261,18.2261,0,0,1,.0363,2.18l1.962-1.962H209.8294c-1.4627,0-3.011-.1463-4.4684,0-.0669.0067-.1374,0-.2048,0l1.962,1.962-.0742-17.6171-.1175-27.9184-.0269-6.4128C206.8889,898.4193,202.9649,898.4142,202.9756,900.9437Z"/><polyline class="cls-3" points="124.144 832.719 99.007 872.333 47.062 852.195 83.875 791.292"/><path d="M122.45,831.7286l-8.49,13.38-13.5355,21.3316-3.1109,4.9027,2.2157-.9017-17.6174-6.83L53.988,852.7862l-6.4045-2.483,1.1725,2.8822,12.4884-20.66,19.7584-32.688,4.5666-7.555c1.31-2.1667-2.0821-4.1413-3.3882-1.9805L69.6928,810.9619,49.9344,843.65l-4.5666,7.555A1.9913,1.9913,0,0,0,46.54,854.087l17.6175,6.83L92.081,871.7424l6.4045,2.4829a1.9788,1.9788,0,0,0,2.2157-.9016l8.49-13.38,13.5355-21.3316,3.1109-4.9026c1.357-2.1385-2.0375-4.1093-3.3882-1.9805Z"/><path class="cls-5" d="M52.6481,837.5686,25,881.5488l97.392,61.7983s19.2092-26.6021-15.3082-52.5941a15.3844,15.3844,0,0,1-3.5857-20.6539c1.24-1.9126,2.2495-3.4565,3.0688-4.7012a5.9779,5.9779,0,0,0-1.7939-8.3343l-4.1681-2.6449-15.43-.1942A20.9059,20.9059,0,0,1,66.5473,842.276l-1.894-3.9952A6.8593,6.8593,0,0,0,52.6481,837.5686Z"/><path d="M50.9539,836.5783l-9.3761,14.9149L26.719,875.1293l-3.413,5.4293a1.995,1.995,0,0,0,.7039,2.6843l9.7141,6.164,23.2176,14.7323,28.1839,17.8835,24.2756,15.4036c3.9268,2.4918,7.7871,5.2,11.8278,7.5052.0591.0337.1154.0732.1729.11a2.0075,2.0075,0,0,0,2.6844-.7038c3.2973-4.5825,4.9664-10.6662,5.4645-16.2009,1.2379-13.7532-6.3551-26.069-16.3293-34.9006-3.09-2.7363-6.8382-4.8452-8.7934-8.6134a13.4762,13.4762,0,0,1-.93-9.8549,19.5909,19.5909,0,0,1,2.7021-5.229,21.9284,21.9284,0,0,0,2.9765-5.1336,8.0839,8.0839,0,0,0-3.4978-9.0894c-.8922-.5922-1.81-1.1488-2.7146-1.7225a5.2784,5.2784,0,0,0-2.3931-1.1368c-1.5372-.1036-3.1049-.0391-4.6449-.0585-4.1049-.0516-8.3039.1529-12.3967-.2215-7.0628-.6459-12.6423-5.31-15.6037-11.557-1.036-2.1852-1.8938-4.5883-3.815-6.1706a8.8222,8.8222,0,0,0-13.1566,2.13c-1.3939,2.1144,2.0027,4.0822,3.3883,1.9805a4.9432,4.9432,0,0,1,4.6862-2.22,5.08,5.08,0,0,1,3.9781,3.0319c1.8064,3.6508,3.3445,7.2256,6.3022,10.1611a23.1358,23.1358,0,0,0,14.7661,6.6119c2.555.1665,5.14.0936,7.6986.1258l8.8316.1111-.99-.2679,2.9928,1.899a5.8471,5.8471,0,0,1,2.6977,2.5967c.821,2.0248-.3133,3.6132-1.3846,5.25a34.81,34.81,0,0,0-3.8252,6.7148,17.4953,17.4953,0,0,0,.5737,13.2658c2.23,4.9225,6.934,7.5374,10.7668,11.0634,6.3461,5.8382,11.6687,13.0545,13.59,21.5888a31.0228,31.0228,0,0,1-.7877,16.3617q-.282.8928-.6115,1.77c-.0931.2478-.19.4939-.2876.74-.0469.1186-.0962.2363-.1448.3543-.0277.0673.1206-.2646-.0626.1427-.3612.8034-.7357,1.5987-1.1534,2.3746a19.146,19.146,0,0,1-1.28,2.1219l2.6843-.7038-9.7141-6.164L90.4506,920.7567,62.2667,902.8732,37.9911,887.47l-8.0549-5.1111c-1.2365-.7846-2.4647-1.7316-3.7729-2.3941-.06-.03-.116-.0736-.1729-.11l.7038,2.6844L36.07,867.6242,50.9291,843.988l3.4131-5.4292C55.69,836.4147,52.2962,834.4432,50.9539,836.5783Z"/><path class="cls-6" d="M226.4528,510.02l-6.7023,188.1819-76.8195,163.95L58.95,815.7053s56.0125-110.49,78.8257-141.2194l3.9471-86.8366a102.5137,102.5137,0,0,1,15.1988-49.23l25.1929-40.7727"/><path d="M224.4908,510.02l-.6439,18.08-1.5546,43.6481L220.3992,624.9l-1.6848,47.3032-.8905,25.0041a4.6831,4.6831,0,0,0-.0285.7992c.0875.5941-.3122-.3313.2506-.7729-.3079.2416-.532,1.1355-.6927,1.4785l-4.3323,9.246-17.1586,36.62-22.3706,47.744-20.4827,43.7147-11.2528,24.0161-.5194,1.1086,2.6843-.7039-28.3421-15.675L70.3674,819.7782,59.94,814.0112l.7039,2.6843q3.5493-7.0008,7.1592-13.971,8.7558-16.9751,17.6981-33.8533,11.0921-20.9256,22.5679-41.6455c7.0084-12.5872,14.132-25.1287,21.7687-37.3479,2.8362-4.5382,5.7387-9.0466,8.8821-13.38a4.7016,4.7016,0,0,0,1.0549-2.8343l.16-3.5277,1.471-32.3615,1.71-37.6318c.4468-9.8292.6546-19.6262,2.7748-29.2882a101.6948,101.6948,0,0,1,12.7365-31.4654q2.6331-4.2833,5.2857-8.5546l18.5714-30.0563,1.3233-2.1416c1.3311-2.1543-2.0619-4.1272-3.3882-1.9805l-15.0633,24.3787C159.07,531.21,152.2438,541.2332,147.6293,552.31a104.4157,104.4157,0,0,0-7.82,34.3827c-.1166,2.126-.1984,4.2543-.295,6.3813l-1.5206,33.4527-1.6882,37.14-.445,9.79a5.9853,5.9853,0,0,0-.0394.8673c.0023.0219-.0231.1352-.0068.1487-.2769-.2289.5385-.9214-.0026-.6119-.2085.1192-.41.5609-.5489.7522-1.433,1.9793-2.8105,3.9986-4.16,6.0356-7.3861,11.148-14.0847,22.7589-20.683,34.3844-7.8283,13.7929-15.4172,27.7215-22.9,41.7046q-9.883,18.47-19.5175,37.0707-5.17,9.9684-10.2719,19.9725-.2376.4669-.4748.9342a1.9979,1.9979,0,0,0,.7039,2.6844l28.3421,15.675,45.2117,25.0049,10.4275,5.767a1.9809,1.9809,0,0,0,2.6844-.7038l7.97-17.0087,18.9376-40.4172L194.1667,757.41l19.11-40.785,5.8817-12.5528c.7538-1.6088,1.6491-3.2125,2.2836-4.8738.6066-1.5883.3652-3.6533.4247-5.3243l.454-12.7478,1.5414-43.2781L225.76,584.57l1.6918-47.5.9214-25.8693.042-1.18c.09-2.5255-3.8341-2.522-3.924,0Z"/><path d="M101.4,879.9017a10.6808,10.6808,0,0,0-2.6413.2175,11.3169,11.3169,0,0,0-4.8021,2.0548A12.2058,12.2058,0,0,0,90.991,885.36a1.9781,1.9781,0,0,0,.7038,2.6843,2.0053,2.0053,0,0,0,2.6844-.7038c.0967-.15.1951-.299.2987-.4446q.0756-.1065.1541-.2109-.2652.3391-.07.0945c.2138-.2494.4264-.4968.66-.7288.2206-.2194.4548-.4206.6915-.6219q.2413-.1921-.1319.0994.0883-.0666.1781-.1308.1327-.0951.2687-.1853a10.38,10.38,0,0,1,1.4393-.7852c.3122-.1425-.4992.1973-.026.0158q.1729-.0665.3483-.1265.3137-.1074.6338-.1947c.3938-.1076.7922-.1867,1.1945-.2545.4367-.0737-.4858.055-.18.0228.0848-.009.1695-.02.2544-.0281q.213-.0208.4267-.0329a6.5408,6.5408,0,0,1,.881-.0034,1.9708,1.9708,0,0,0,1.962-1.962,2.0113,2.0113,0,0,0-1.962-1.962Z"/><path d="M105.6317,887.442a10.6808,10.6808,0,0,0-2.6413.2175,11.3169,11.3169,0,0,0-4.8021,2.0548,12.2058,12.2058,0,0,0-2.9654,3.1863,1.9781,1.9781,0,0,0,.7038,2.6843,2.0054,2.0054,0,0,0,2.6844-.7038c.0967-.15.1951-.299.2987-.4446q.0756-.1065.1541-.2109-.265.3392-.07.0945c.2138-.2494.4264-.4968.66-.7288.2206-.2194.4548-.4206.6915-.6219q.2413-.1921-.1319.0993.0884-.0665.1781-.1307.1327-.0951.2687-.1853a10.37,10.37,0,0,1,1.4393-.7852c.3122-.1425-.4992.1973-.026.0157q.173-.0663.3483-.1264.3137-.1074.6338-.1947c.3938-.1076.7922-.1867,1.1945-.2545.4367-.0737-.4858.0549-.18.0228.0848-.009.1695-.02.2544-.0281q.213-.0208.4267-.0329a6.5408,6.5408,0,0,1,.881-.0034,1.9708,1.9708,0,0,0,1.962-1.962,2.0112,2.0112,0,0,0-1.962-1.962Z"/><path d="M112.1077,893.6319a10.6812,10.6812,0,0,0-2.6414.2175,11.3169,11.3169,0,0,0-4.8021,2.0548,12.2075,12.2075,0,0,0-2.9654,3.1863,1.9781,1.9781,0,0,0,.7038,2.6843,2.0053,2.0053,0,0,0,2.6844-.7038c.0967-.15.1952-.299.2987-.4446q.0756-.1065.1541-.2109-.265.3392-.07.0945c.2138-.25.4265-.4968.66-.7288.2206-.2194.4548-.4206.6915-.622q.2414-.1922-.1318.0994.0882-.0665.1781-.1308.1326-.095.2686-.1853a10.375,10.375,0,0,1,1.4394-.7851c.3121-.1425-.4993.1973-.0261.0157q.173-.0663.3483-.1264.3136-.1074.6338-.1947c.3938-.1076.7922-.1867,1.1945-.2545.4367-.0737-.4858.0549-.18.0228.0849-.009.1695-.02.2544-.0281q.213-.0209.4267-.0329a6.5423,6.5423,0,0,1,.8811-.0034,1.9708,1.9708,0,0,0,1.9619-1.962,2.0112,2.0112,0,0,0-1.9619-1.962Z"/><path class="cls-1" d="M127.0619,931.7491a32.4,32.4,0,0,1-4.67,11.598L25,881.5487l4.32-7.0479-.0538-.0342,7.7254-12.1751s15.8444,3.9478,24.4513,24.0635c7.9617,10.5474,17.3622,2.4685,27.4167,10.68s4.1266,9.5138,10.7741,13.6426c0,0,7.655,5.3785,15.9174,3.9046S129.0441,919.667,127.0619,931.7491Z"/><path d="M125.17,931.2276a29.5583,29.5583,0,0,1-4.4719,11.1293l2.6844-.7039-9.7142-6.1639L90.4506,920.7567,62.2667,902.8732,37.991,887.47l-8.0549-5.1111c-1.2365-.7846-2.4647-1.7316-3.7729-2.394-.06-.03-.116-.0736-.1729-.11l.7038,2.6844,4.32-7.048a1.9968,1.9968,0,0,0-.7039-2.6843l-.0539-.0342.7039,2.6844,7.7254-12.1751-2.2157.9016c.3325.0837.6594.1937.9834.3049.3653.1254.7248.2653,1.0852.4039.0785.03.1559.0635.2341.0945.4294.17-.4121-.1821.031.0121.2756.1208.5507.2422.8235.3692A35.8009,35.8009,0,0,1,47.7516,870.6a42.8122,42.8122,0,0,1,9.2019,11.1505q1.0431,1.8022,1.935,3.686a13.7555,13.7555,0,0,0,1.1324,2.261,16.6279,16.6279,0,0,0,1.6832,1.9534,15.6686,15.6686,0,0,0,6.78,4.01c4.666,1.3339,9.65.5614,14.2725,2.1359a20.0373,20.0373,0,0,1,7.3357,4.9447,17.4707,17.4707,0,0,1,2.1364,2.4018c.22.3137.4287.6362.6193.969q.151.2639.2878.5356c.034.068.3369.7614.1737.3583.45,1.1113.6935,2.2921,1.2337,3.37a9.8048,9.8048,0,0,0,3.3874,3.5314,28.3783,28.3783,0,0,0,9.6562,4.294,22.999,22.999,0,0,0,4.7085.596c1.576.0264,3.0761-.3154,4.6341-.427a7.3571,7.3571,0,0,1,5.2412,1.364c3.7591,2.926,3.6889,9.131,2.9991,13.4931a2.0234,2.0234,0,0,0,1.37,2.4134,1.9772,1.9772,0,0,0,2.4135-1.37c.7919-5.0085.9241-10.823-2.1114-15.1786a11.0891,11.0891,0,0,0-10.7325-4.56,20.9808,20.9808,0,0,1-8.5332-.3815,24.7777,24.7777,0,0,1-5.7917-2.4441,15.9724,15.9724,0,0,1-2.7606-1.8855,6.546,6.546,0,0,1-.753-.7989c.2644.3419-.1454-.27-.2078-.3723-.0742-.1213-.13-.2547-.1922-.382.2288.4651.0229.0612-.0129-.0453-.0892-.2655-.18-.53-.2654-.7968-1.3541-4.2388-4.2226-7.3245-7.6885-10.0518a20.1967,20.1967,0,0,0-8.094-3.9177,53.5772,53.5772,0,0,0-7.7573-.87,16.9547,16.9547,0,0,1-6.56-1.4922,12.0219,12.0219,0,0,1-3.014-2.2177,9.602,9.602,0,0,1-1.3416-1.5116,28.3522,28.3522,0,0,1-1.2164-2.644,47.8448,47.8448,0,0,0-9.396-13.07c-4.0661-3.964-9.3909-7.8366-15.0114-9.2509a2.0191,2.0191,0,0,0-2.2157.9017l-7.7255,12.1751a1.9945,1.9945,0,0,0,.7039,2.6843l.0539.0342-.7039-2.6844-4.32,7.048a1.9969,1.9969,0,0,0,.7038,2.6844l9.7142,6.1639,23.2176,14.7323,28.184,17.8836,24.2756,15.4037c3.9268,2.4917,7.7871,5.2,11.8278,7.5051.0591.0337.1155.0733.173.11a2.0068,2.0068,0,0,0,2.6843-.7038,32.3283,32.3283,0,0,0,4.8676-12.0667C129.4656,929.8064,125.684,928.7527,125.17,931.2276Z"/><path class="cls-6" d="M185.172,586.8338c-2.7987,38.1693,13.3726,292.2732,13.3726,292.2732l100.2525.479L269.9254,516.7224l-72.6949-9.7958"/><path d="M183.21,586.8338c-.4068,5.6161-.3522,11.2743-.31,16.9009.0664,8.8732.3,17.7451.5775,26.6138q.5267,16.8578,1.2692,33.7079.8135,19.0947,1.7653,38.1831.9861,20.022,2.0654,40.0394,1.0583,19.7351,2.18,39.4668,1.0177,17.9371,2.0775,35.8719.8814,14.93,1.7892,29.8586.6456,10.6136,1.3053,21.2263c.2069,3.3235.362,6.6555.6256,9.9752.0113.1429.0181.2862.0272.4293a2.0016,2.0016,0,0,0,1.962,1.962l34.0074.1624,53.7928.257,12.4523.06a1.9763,1.9763,0,0,0,1.962-1.9619l-.77-9.6843-2.1066-26.4753-3.1053-39.0285-3.7878-47.6058-4.1635-52.3273-4.1877-52.631-3.9043-49.07-3.3-41.4678-2.373-29.824c-.3749-4.7125-.7161-9.4292-1.1249-14.1389-.0177-.2034-.0324-.4071-.0486-.6106a1.9993,1.9993,0,0,0-1.44-1.8919L245.88,511.52l-39.1506-5.2756-8.9769-1.21c-2.4692-.3327-3.538,3.4476-1.0431,3.7838l24.5675,3.3105,39.15,5.2756,8.9769,1.21-1.44-1.8919.7705,9.6843,2.1066,26.4752,3.1053,39.0285,3.7879,47.6058,4.1635,52.3274,4.1876,52.631,3.9044,49.07,3.2994,41.4677,2.373,29.824c.371,4.663.3992,9.5138,1.125,14.1389.0313.2.0325.4087.0486.6107l1.9619-1.962-34.0074-.1625-53.7927-.257-12.4524-.06,1.962,1.962q-.2169-3.4095-.4291-6.8193-.5851-9.3556-1.1569-18.7121-.8562-13.9922-1.6888-27.9859-1.0306-17.3193-2.025-34.6408-1.1091-19.3371-2.1653-38.6771-1.0979-20.1448-2.12-40.2938-.9813-19.4375-1.8569-38.88-.78-17.52-1.4088-35.0464c-.3308-9.5289-.6181-19.06-.7651-28.5941-.1-6.5036-.1841-13.0216.0745-19.5227.0412-1.0344.0939-2.0684.1687-3.1009.1825-2.5195-3.7423-2.508-3.924,0Z"/><path d="M268.8436,910.5307a10.5648,10.5648,0,0,0-2.0995,1.5593,12.1115,12.1115,0,0,0-3.1479,4.6851,11.2779,11.2779,0,0,0-.6788,3.9074,1.962,1.962,0,0,0,3.924,0c.0015-.2506.009-.5008.0276-.7507.01-.1407.0278-.28.0407-.4207.02-.2211-.0353.2458-.031.2286.0182-.0744.024-.1541.0372-.23a9.2784,9.2784,0,0,1,.3568-1.3941q.0512-.15.1073-.2976c.0183-.0484.04-.0963.0567-.1453.0665-.1976-.1117.2548-.0992.2311.1083-.2061.1933-.4253.3016-.6321a9.7014,9.7014,0,0,1,.6368-1.0471q.077-.11.1569-.2185c.0261-.0355.0537-.07.0794-.106.1184-.1651-.2041.2591-.1735.225.1216-.1352.2305-.2828.351-.4193q.3321-.3765.6985-.7206c.21-.1973.4286-.3834.6516-.5655.3373-.2752-.4423.3238-.0622.05.085-.0613.17-.1229.2562-.1822a5.9838,5.9838,0,0,1,.59-.3685,1.9781,1.9781,0,0,0,.7039-2.6844,2.0058,2.0058,0,0,0-2.6844-.7039Z"/><path d="M276.4567,914.63a10.5677,10.5677,0,0,0-2.1,1.5593,12.1115,12.1115,0,0,0-3.1479,4.6851,11.28,11.28,0,0,0-.6788,3.9074,1.962,1.962,0,0,0,3.924,0c.0016-.2506.0091-.5008.0277-.7508.0105-.1406.0278-.28.0406-.4206.02-.2211-.0352.2458-.031.2286.0182-.0744.024-.1541.0373-.23a9.26,9.26,0,0,1,.3568-1.3941q.051-.15.1072-.2976c.0184-.0484.04-.0963.0568-.1454.0665-.1975-.1117.2549-.0993.2311.1084-.206.1933-.4252.3017-.632a9.67,9.67,0,0,1,.6368-1.0471q.077-.11.1568-.2185c.0262-.0355.0537-.07.0794-.106.1185-.1651-.2041.2591-.1734.225.1215-.1352.23-.2828.351-.4194q.332-.3764.6985-.7205c.21-.1973.4285-.3834.6516-.5655.3372-.2752-.4424.3237-.0623.05.0851-.0613.17-.1229.2562-.1822a5.997,5.997,0,0,1,.59-.3685,1.9781,1.9781,0,0,0,.7038-2.6844,2.0058,2.0058,0,0,0-2.6844-.7039Z"/><path d="M285.2411,916.387a10.5638,10.5638,0,0,0-2.1,1.5593,12.1107,12.1107,0,0,0-3.1479,4.6851,11.28,11.28,0,0,0-.6788,3.9074,1.962,1.962,0,0,0,3.924,0c.0016-.2506.0091-.5008.0277-.7508.0105-.1406.0278-.28.0406-.4206.02-.2211-.0352.2458-.031.2286.0182-.0745.024-.1541.0373-.23a9.26,9.26,0,0,1,.3568-1.3941q.051-.15.1072-.2977c.0184-.0483.04-.0963.0568-.1453.0665-.1975-.1118.2549-.0993.2311.1084-.206.1933-.4252.3017-.632a9.67,9.67,0,0,1,.6368-1.0471q.077-.11.1568-.2186c.0262-.0354.0537-.07.0794-.1059.1185-.1651-.2041.2591-.1734.225.1215-.1353.23-.2828.351-.4194q.332-.3764.6985-.7205c.21-.1973.4285-.3835.6516-.5655.3372-.2752-.4424.3237-.0623.05.0851-.0613.17-.1229.2562-.1823a6.035,6.035,0,0,1,.59-.3685,1.9779,1.9779,0,0,0,.7038-2.6843,2.0058,2.0058,0,0,0-2.6844-.7039Z"/><path class="cls-1" d="M318.2292,940.5972A32.4012,32.4012,0,0,1,320.5,952.892H205.156l-.1282-8.2657h-.0638V930.207s15.4934-5.1556,33.5382,7.218c12.3737,4.64,15.9826-7.218,28.8718-5.6713s8.5816,5.8222,16.4066,5.7468c0,0,9.3453.44,15.5321-5.2312S313.43,929.3335,318.2292,940.5972Z"/><path d="M316.3373,941.1187a29.58,29.58,0,0,1,2.2009,11.7733l1.962-1.962H209.8293c-1.4627,0-3.011-.1463-4.4684,0-.0669.0067-.1374,0-.2049,0l1.962,1.962-.1282-8.2657a1.9928,1.9928,0,0,0-1.962-1.962h-.0638l1.962,1.962V930.207l-1.44,1.8919a20.3875,20.3875,0,0,1,4.787-.8667,37.9159,37.9159,0,0,1,12.7158,1.1227,42.838,42.838,0,0,1,8.2937,3.0943c2.9206,1.4495,5.539,3.7067,8.7189,4.5025,4.4433,1.1119,8.5887.1442,12.5849-1.9015,3.604-1.845,7.0581-4.1256,11.2141-4.4279a24.07,24.07,0,0,1,8.0029.9365,13.1784,13.1784,0,0,1,2.4056.864q.4364.2176.8529.4717c.1687.1035,1.02.7113.6841.45a20.5731,20.5731,0,0,0,2.6768,2.0426,10.3908,10.3908,0,0,0,4.8071,1.0729,29.536,29.536,0,0,0,9.204-1.2216,22.0375,22.0375,0,0,0,8.1251-4.4553,8.36,8.36,0,0,1,5.4237-2.4169c5.2884.0111,8.6977,5.94,10.553,10.2209a1.9747,1.9747,0,0,0,2.6844.7039,2.0127,2.0127,0,0,0,.7038-2.6844c-2.1033-4.8532-5.4606-9.8876-10.7188-11.643a10.378,10.378,0,0,0-6.192-.0888c-2.4074.7232-4.0133,2.2531-5.9492,3.743a21.1725,21.1725,0,0,1-12.1405,3.9173c-.3622.0113-.7233.0083-1.0854.0052-.2894-.0024-.579-.0009-.8683-.0109-.1637-.0057-.3277-.0131-.4912-.0243-.0786-.0054-.8653-.1024-.55-.0505-.3541-.0584-.6922-.1546-1.0379-.2465-.5393-.1434.0891.1066-.3634-.1442-.2386-.1322-.4638-.2766-.695-.4206-.03-.0189-.38-.2807-.1187-.082.2579.1961-.1715-.1435-.214-.1793a17.0715,17.0715,0,0,0-3.31-2.3477,23.0955,23.0955,0,0,0-6.9463-1.9924,22.824,22.824,0,0,0-8.3862.0763,25.9091,25.9091,0,0,0-6.308,2.4323c-3.3977,1.7555-6.718,4.041-10.6947,3.995a12.4253,12.4253,0,0,1-3.1355-.4631,19.0261,19.0261,0,0,1-4.4756-2.4135,50.2118,50.2118,0,0,0-8.9748-4.1227,42.2013,42.2013,0,0,0-16.1118-2.302,26.8012,26.8012,0,0,0-6.7136,1.0706,2.0182,2.0182,0,0,0-1.44,1.8919v14.4193a1.9905,1.9905,0,0,0,1.962,1.962h.0638l-1.962-1.962.1283,8.2657a1.9926,1.9926,0,0,0,1.9619,1.962H306.2873c4.6575,0,9.3529.1743,14.008,0,.0681-.0026.1367,0,.2049,0a2.0022,2.0022,0,0,0,1.9619-1.962,32.4023,32.4023,0,0,0-2.341-12.8164C319.2394,937.7344,315.4448,938.7488,316.3373,941.1187Z"/><path d="M196.7419,851.0089h92.4449c1.2447,0,2.5305.0931,3.7728,0,.0548-.0041.1113,0,.1663,0a.9816.9816,0,0,0,0-1.962H200.681c-1.2447,0-2.5305-.0931-3.7728,0-.0547.0041-.1112,0-.1663,0a.9816.9816,0,0,0,0,1.962Z"/><line class="cls-3" x1="72.8139" y1="789.4573" x2="156.8513" y2="832.7649"/><path d="M72.3188,790.3043l8.3737,4.3154,19.9983,10.3058,24.3056,12.5256,21.0171,10.8309c3.3773,1.74,6.7194,3.7063,10.192,5.2523.0514.0229.1007.0519.1507.0777,1.12.5774,2.1142-1.115.99-1.6942l-8.3738-4.3153-19.9982-10.3058-24.3056-12.5256L83.6517,793.94c-3.3773-1.74-6.7194-3.7063-10.192-5.2523-.0514-.0229-.1007-.0519-.1507-.0777-1.1206-.5775-2.1142,1.1149-.99,1.6941Z"/><path d="M142.7012,579.4118h21.368l-1.962-1.962-1.5437,21.2179-.8559,11.7638c-.2912,4.0026-1.29,7.6849-4.2536,10.616a14.131,14.131,0,0,1-9.8481,4.0442c-1.87.0171-3.74,0-5.61,0-2.5249,0-2.5291,3.924,0,3.924,5.3427,0,10.5589.222,15.2648-2.8207a18.4,18.4,0,0,0,8.2714-14.4q.9358-12.6063,1.8345-25.2154l.6643-9.13a1.982,1.982,0,0,0-1.962-1.962h-21.368c-2.5249,0-2.529,3.924,0,3.924Z"/><path d="M214.9184,629.0157c5.3427,0,10.5588.222,15.2647-2.8207a18.4,18.4,0,0,0,8.2714-14.4q.936-12.6063,1.8346-25.2154l.6643-9.13a1.9821,1.9821,0,0,0-1.962-1.962H202.1283a1.99,1.99,0,0,0-1.9619,1.962v31.4818a59.4409,59.4409,0,0,0,.0921,6.6211,15.1713,15.1713,0,0,0,14.66,13.463c2.526.0509,2.5258-3.8731,0-3.924a11.1731,11.1731,0,0,1-10.81-10.3937c-.0986-1.9148-.0182-3.8505-.0182-5.7664V577.45l-1.962,1.962h36.8631l-1.962-1.962-1.5437,21.2179-.8559,11.7638c-.2912,4.0026-1.29,7.6849-4.2537,10.616a14.1308,14.1308,0,0,1-9.848,4.0442c-1.87.0171-3.74,0-5.61,0C212.3935,625.0917,212.3893,629.0157,214.9184,629.0157Z"/><path class="cls-3" d="M516.9387,266.5215s-2.9563-5.2361-20.5068-4.1724c-10.1048,3.191,3.7228,28.1871,3.7228,28.1871l12.2322-4.7865"/><path d="M518.6328,265.5312c-.967-1.6813-3.06-2.6655-4.7656-3.3546a26.7071,26.7071,0,0,0-6.678-1.5675,47.3865,47.3865,0,0,0-4.9343-.35,33.9175,33.9175,0,0,0-6.0838.163c-4.3893.72-5.6275,5.772-5.3471,9.5069a43.3094,43.3094,0,0,0,3.6849,13.2628,85.2371,85.2371,0,0,0,3.9517,8.3347,1.9749,1.9749,0,0,0,2.2157.9016l12.2322-4.7865a2.0208,2.0208,0,0,0,1.37-2.4135,1.9762,1.9762,0,0,0-2.4135-1.37l-12.2321,4.7865,2.2157.9017a60.8478,60.8478,0,0,1-6.7423-17.171,16.6245,16.6245,0,0,1-.3463-4.9608c.0023-.0176.1323-.6913.211-.9672.0469-.1641.1008-.3255.1574-.4863.0108-.0307.1185-.2866.0258-.074-.1041.239.11-.2078.1114-.2095.0836-.137.1626-.2769.2466-.4138.19-.31-.1681.1585.0777-.1081.108-.1172.218-.23.3317-.3419a2.905,2.905,0,0,1,.2424-.2094c-.1424.1116-.1671.12-.0006.0213.1449-.0858.2882-.1707.437-.25.2835-.1505-.1508-.021.179-.0768a19.642,19.642,0,0,1,2.8285-.1172c1.6733-.0327,3.3491-.0073,5.0193.1047a29.1861,29.1861,0,0,1,6.7912,1.172q.6719.2106,1.3265.47c.32.1266-.19-.0981.2074.0928.1777.0854.3562.1681.5314.2589.2661.1378.5278.2845.7815.4442.1987.125.8219.6193.321.1952.2525.2138.4815.4952.7414.6926.2728.2072-.3057-.487-.0833-.1,1.2587,2.1885,4.6507.2145,3.3882-1.9805Z"/><path class="cls-3" d="M434.8145,342.4583l4.6537-8.4105a87.2075,87.2075,0,0,0,7.4611-18.0034c1.3978-4.8344,2.4719-7.1127,3.765-14.8715,3.7228-22.337,27.1235-29.2508,31.3781-28.1872s8.8958,9.5907,7.9775,12.764c-3.979,13.7509-7.1931,28.7067-7.1931,28.7067l-.9155,34.2588-10.5576,24.1557"/><path d="M436.5086,343.4485c2.281-4.1222,4.6862-8.204,6.7476-12.4421a91.194,91.194,0,0,0,5.5013-14.2222c.8962-3.057,1.9314-6.0733,2.664-9.1762.9469-4.01,1.3383-8.1263,2.7774-12.01a29.4488,29.4488,0,0,1,4.858-8.4241,36.6547,36.6547,0,0,1,13.4166-10.0343c.8559-.3818,1.923-.7942,3.0056-1.1518a29.3084,29.3084,0,0,1,2.89-.8027c.3931-.0865.7885-.1532,1.1837-.2278.5539-.1046-.1733.0083.1507-.0255.2052-.0214.41-.0458.6156-.06.2861-.02.5706-.0246.8572-.0257.1215,0,.2445.0223.3654.0192.1257-.0033-.4746-.1514-.0581-.0025,2.6307.9406,4.4925,3.8159,5.6982,6.3481a8.9152,8.9152,0,0,1,1.0205,3.7249c-.01.4329.0678-.016-.1086.5152-.1937.5834-.3411,1.1893-.5079,1.7808q-.5334,1.8921-1.0452,3.79-2.9771,11.0309-5.4207,22.2014a37.9568,37.9568,0,0,0-.3811,7.062l-.7421,27.7693-.0177.6614.2679-.99-9.2481,21.1595-1.31,2.9961a2.0257,2.0257,0,0,0,.7039,2.6844,1.9764,1.9764,0,0,0,2.6843-.7039l5.8753-13.4425,3.6349-8.3165a11.4538,11.4538,0,0,0,1.3216-3.6213c.2671-4.9562.2656-9.942.3982-14.9033l.4709-17.6216a5.2842,5.2842,0,0,0,.0385-1.44c-.0457-.145-.1688.7915-.022.2471.1193-.4425.1975-.9015.2969-1.3487q1.4237-6.4049,3.0123-12.772,1.1531-4.6347,2.4011-9.2453c.64-2.3525,1.849-4.9486,1.56-7.4278a18.1406,18.1406,0,0,0-6.2238-11.0807,8.2159,8.2159,0,0,0-7.1925-1.7375,31.9425,31.9425,0,0,0-7.6545,2.3806,38.9105,38.9105,0,0,0-17.2379,14.29,34.0974,34.0974,0,0,0-4.8952,12.4873,114.7986,114.7986,0,0,1-3.3138,13.5051,101.4815,101.4815,0,0,1-6.5953,17.0391c-1.4123,2.7368-2.9524,5.4113-4.4433,8.1056L433.12,341.468c-1.2236,2.2114,2.1641,4.193,3.3882,1.9805Z"/><path class="cls-3" d="M469.84,288.19l44.3906-23.14s6.6114,1.889,5.1946,8.9726c4.7224,3.7779,4.25,7.5559,1.889,10.8615,4.25,3.3057,5.1946,8.5,1.4167,11.3338,3.7779,3.3057,4.25,8.5-.4722,12.75-3.8843,3.4959-8.4135,7.1241-13.6673,9.0749a36.2438,36.2438,0,0,0-21.5861,21.7878l-3.47,9.75-9.4593,21.1625"/><path d="M512.3972,265.8365c.3167.1213-.5688-.2792-.0888-.0362.2781.1407.5616.268.836.4169a11.4221,11.4221,0,0,1,2.0021,1.3467,6.2745,6.2745,0,0,1,2.3871,5.937,1.9781,1.9781,0,0,0,.5046,1.909c1.3575,1.119,2.8406,2.5128,3.0386,4.3687a6.2385,6.2385,0,0,1-1.4564,4.1152,1.9617,1.9617,0,0,0,.3068,2.3776c2.719,2.1853,4.722,5.9511,1.4167,8.5591a1.971,1.971,0,0,0,0,2.7747,6.3344,6.3344,0,0,1,2.3751,4.4774,7.1684,7.1684,0,0,1-2.5263,5.2,41.8777,41.8777,0,0,1-12.1587,8.485c-2.1331.9157-4.2865,1.6983-6.3287,2.82a39.1237,39.1237,0,0,0-5.4461,3.6517,37.9218,37.9218,0,0,0-8.7624,9.9247c-2.9692,4.8559-4.5733,10.4889-6.4711,15.821a9.258,9.258,0,0,0-.3422.9612c-.0917.3945.2935-.6293.107-.2425-.2437.5055-.459,1.027-.688,1.5393l-2.9348,6.5659-5.7858,12.9441a2.023,2.023,0,0,0,.7039,2.6843,1.9771,1.9771,0,0,0,2.6844-.7038l5.084-11.3742c1.5552-3.4794,3.3287-6.9324,4.6614-10.5055,1.8382-4.9282,3.1909-10.1663,5.8086-14.7588a34.428,34.428,0,0,1,8.71-10.081,35.0733,35.0733,0,0,1,5.4671-3.4731c2.1572-1.1149,4.4705-1.8439,6.6475-2.9114a42.2488,42.2488,0,0,0,7.3956-4.8012,30.2686,30.2686,0,0,0,6.199-5.8526,9.7876,9.7876,0,0,0-1.6245-13.1455v2.7747c4.9414-3.8989,2.875-10.6591-1.4168-14.1085l.3068,2.3776a9.653,9.653,0,0,0,1.9635-6.3924,10.4627,10.4627,0,0,0-4.1592-6.8467l.5045,1.9089a10.1321,10.1321,0,0,0-3.0581-9.4485,14.7708,14.7708,0,0,0-4.819-3.0429,1.9775,1.9775,0,0,0-2.4135,1.37,2.0063,2.0063,0,0,0,1.37,2.4135Z"/><path d="M470.8305,289.8839l32.6454-17.0173,4.6761-2.4375c2.24-1.1678.2584-4.5554-1.9805-3.3883l-32.6454,17.0173-4.6761,2.4375c-2.24,1.1677-.2584,4.5553,1.98,3.3883Z"/><polyline class="cls-3" points="198.422 376.534 199.352 330.468 238.427 345.513 239.647 375.755"/><path d="M200.3839,376.5335l.3139-15.5474.5007-24.8.1155-5.718L198.83,332.36l34.3035,13.2074,4.7715,1.8371-1.44-1.8919,1.0689,26.5024.1509,3.74c.1015,2.5164,4.026,2.5294,3.9239,0L240.54,349.253l-.1509-3.74a2.0484,2.0484,0,0,0-1.44-1.8919l-34.3034-13.2074-4.7715-1.8371a1.9774,1.9774,0,0,0-2.4836,1.8919l-.3139,15.5474-.5007,24.8-.1155,5.7179c-.051,2.5261,3.873,2.5258,3.924,0Z"/><path class="cls-3" d="M231.9327,351.6446a75.5369,75.5369,0,0,0,10.46,1.483,9.9238,9.9238,0,0,0,3.2167-.2894c14.939-3.8722,20.92-17.8774,22.8539-32.7469h1.427c4.7019.6625,6.4869-.4878,5.9441-3.4413-4.259-4.653-6.0524-7.2476-6.519-10.6079l-.1155-2.177a151.0041,151.0041,0,0,0-2.9917-25.9277l-75.0072-2.6847s-9.743,16.0522-9.0267,23.445c1.2333,12.7312,13.6382,21.8483,17.0644,38.2623"/><path d="M231.4112,353.5365c2.38.5083,4.7813.8953,7.1976,1.1865a20.6548,20.6548,0,0,0,7.5219.0071,27.5347,27.5347,0,0,0,9.8786-4.71c5.7788-4.3642,9.47-10.7128,11.7221-17.5047a67.4347,67.4347,0,0,0,2.6937-12.4243l-1.962,1.962c2.9693,0,7.2212,1.0063,8.9251-2.2752a4.8733,4.8733,0,0,0,.4969-2.3884c-.0456-1.52-.8125-2.2741-1.7773-3.3616a27.0552,27.0552,0,0,1-3.8557-5.1812,9.3132,9.3132,0,0,1-.7548-1.9071,9.4329,9.4329,0,0,1-.2506-1.1555c.0773.54.0048-.2258-.0032-.3769-.1078-2.0323-.1579-4.0666-.2788-6.0984-.2935-4.9351-.8383-9.855-1.582-14.7421-.364-2.3916-.757-4.7886-1.2828-7.151a1.9937,1.9937,0,0,0-1.8919-1.44l-25.3532-.9075-40.3979-1.446-9.2561-.3313a1.9654,1.9654,0,0,0-1.6941.9718c-1.2911,2.1306-2.4753,4.3322-3.6029,6.5528a59.9211,59.9211,0,0,0-5.131,12.7587c-2.3412,9.6493,4.08,18.3865,8.8513,26.1825,3.4049,5.5634,6.3485,11.301,7.7225,17.7251.5279,2.4681,4.3114,1.4237,3.7838-1.0431a54.9044,54.9044,0,0,0-6.5123-15.9773c-2.5287-4.3566-5.4431-8.501-7.7012-13.0115-1.7482-3.4921-3.3241-7.7931-2.6305-11.5744a46.7016,46.7016,0,0,1,4.45-11.9688c1.2839-2.6037,2.6536-5.18,4.1587-7.6635l-1.6941.9717,25.3532.9075,40.3979,1.4459,9.2561.3313-1.8919-1.44c.8484,3.8122,1.4205,7.7038,1.8866,11.5784.4842,4.0265.82,8.0719.9789,12.1246a21.6044,21.6044,0,0,0,.8116,6.6979c1.3021,3.5491,3.9467,6.4283,6.4537,9.1774l-.5046-.8657c.0862.5272.0189.7987-.1233.9411.325-.3255-.0265-.0378-.1212,0a5.8032,5.8032,0,0,1-.6761.1617,32.5789,32.5789,0,0,1-4.5586-.1452,2.0218,2.0218,0,0,0-1.962,1.962c-1.6368,12.3769-6.7442,26.118-19.69,30.3511a13.3905,13.3905,0,0,1-3.0289.7283,20.8825,20.8825,0,0,1-3.7725-.2152,70.8853,70.8853,0,0,1-7.555-1.2028c-2.4628-.526-3.5153,3.2558-1.0431,3.7838Z"/><path d="M234.9864,310.98a39.969,39.969,0,0,0-1.756-4.6846c-1.0284-2.36-2.3369-4.9283-4.3846-6.5661a5.4076,5.4076,0,0,0-4.7343-1.2565,1.98,1.98,0,0,0-1.37,2.4135,2.0036,2.0036,0,0,0,2.4135,1.37,1.21,1.21,0,0,0,.1619-.0361c.2331-.0957-.2424.0433-.28.0346a1.8094,1.8094,0,0,0,.318-.0137c.05.0007.1067.01.1575.007.2617-.0129-.2745-.037-.2872-.0427a3.2394,3.2394,0,0,0,.3852.0885c.0493.0147.1017.0381.1522.05.2564.0594-.2308-.1-.2425-.1084a2.5371,2.5371,0,0,0,.2974.1457c.1.054.1973.1126.2927.1742.19.1224.437.4381.0325.0042.36.3867.7765.7079,1.12,1.1187.0545.0653.1069.1324.1613.1977.1235.1483.0013.1476-.1164-.1515a2.0029,2.0029,0,0,0,.2486.34q.2647.3741.5072.7635a25.7965,25.7965,0,0,1,1.6954,3.255c.0564.1276.1111.256.1671.3837.1086.2474-.18-.4392,0,.0009.1094.2681.2181.5364.3229.8064q.2554.6586.489,1.3256c.1648.471.3257.9445.4662,1.4234a1.9625,1.9625,0,1,0,3.7838-1.0432Z"/><path d="M263.8342,294.3854a14.4506,14.4506,0,0,0-5.0066-2.0161,16.4476,16.4476,0,0,0-11.5783,1.7881,1.9623,1.9623,0,0,0,1.9805,3.3882,13.1447,13.1447,0,0,1,2.5854-1.1229,12.6214,12.6214,0,0,1,2.23-.4693,11.58,11.58,0,0,1,4.08.2778,15.0594,15.0594,0,0,1,1.6744.5092c.1314.0484.2609.1039.3927.151.3454.1233-.2572-.1247-.0483-.0217.19.0936.3863.1736.5763.267a9.1249,9.1249,0,0,1,1.133.637,1.9623,1.9623,0,1,0,1.9805-3.3883Z"/><path class="cls-1" d="M198.0444,377.225l-27.9805.8364c-11.5394.3489-28.4023,2.9474-37.0307,14.8123l-9.685,10.8244.8008-94.2118L83.73,309.4446,70.5923,335.7438a68.3454,68.3454,0,0,0-6.6971,38.85l16.322,104.2166A52.8894,52.8894,0,0,0,131.9754,520.82h49.8191"/><path d="M198.0444,375.263l-27.0367.8082a79.9645,79.9645,0,0,0-18.7791,2.5026,45.1105,45.1105,0,0,0-11.9481,5.06,33.7624,33.7624,0,0,0-5.1659,3.9409,27.7837,27.7837,0,0,0-2.16,2.2534c-.4128.4827-.81.9808-1.1917,1.4882-.0214.0285-.3835.4838-.1209.174-.0176.0208-.0369.04-.0544.0609-3.1013,3.6719-6.4217,7.1772-9.6268,10.7593l3.3493,1.3874.08-9.3706.1912-22.503.2314-27.2231.2-23.5309c.0322-3.7908.2349-7.6246.097-11.4142-.0021-.0564.001-.1135.0014-.17a1.9894,1.9894,0,0,0-1.9619-1.962l-35.49-.0366-4.93-.0051a1.9431,1.9431,0,0,0-1.6941.9717l-11.543,23.1074a88.5165,88.5165,0,0,0-6.5972,16.2537,67.8668,67.8668,0,0,0-1.8843,27.3495c.688,4.6812,1.4645,9.3511,2.1966,14.0255l4.7232,30.1576,5.1971,33.1842L77.74,475.5939c.1946,1.2419.3555,2.4949.5844,3.7312a52.1812,52.1812,0,0,0,9.3573,20.9481A55.39,55.39,0,0,0,128.0926,522.64c2.9165.2131,5.8567.1414,8.7794.1414h44.9225c2.5249,0,2.5291-3.924,0-3.924H132.962a51.8459,51.8459,0,0,1-35.221-13.22,50.0022,50.0022,0,0,1-15.8379-28.6643l-2.9714-18.9722-4.9642-31.6971-4.9558-31.6427-2.9989-19.1485a66.1172,66.1172,0,0,1,6.3336-38.899q5.9243-11.8959,11.8777-23.7775l1.2-2.4016-1.6941.9717,35.49.0367,4.93.005-1.962-1.9619-.08,9.3706-.1912,22.5029-.2314,27.2231-.2,23.5309c-.0322,3.7908-.235,7.6246-.097,11.4142.0021.0565-.001.1135-.0014.17a1.9825,1.9825,0,0,0,3.3493,1.3873l9.0275-10.09a46.8465,46.8465,0,0,1,6.0247-6.27,36.3727,36.3727,0,0,1,10.865-5.578c10.8162-3.5764,22.4-3.2134,33.6512-3.55l13.74-.4107c2.5194-.0754,2.53-4,0-3.924Z"/><circle cx="257.7393" cy="304.8593" r="2.6264"/><path d="M254.1322,304.8183a3.6629,3.6629,0,0,0,2.3665,3.4242,3.6022,3.6022,0,0,0,3.9482-1.004,3.605,3.605,0,1,0-6.3147-2.42.9893.9893,0,0,0,.981.9809,1,1,0,0,0,.981-.9809.646.646,0,0,1,.0125-.2189c-.0543.0837-.0313.1621-.0052.0472s.05-.23.0866-.3425l.0226-.0662q.058-.1515-.021.0407a.5542.5542,0,0,1,.06-.1247,1.1082,1.1082,0,0,1,.2169-.3505c-.1532.1-.0688.0795-.003.0121.04-.0407.0766-.0843.1171-.1245q.0483-.0481.0993-.0939l.0515-.045q.1236-.101-.0372.0266c.034-.07.2286-.1494.29-.1828.0406-.022.0823-.0409.123-.0625.1677-.0892-.1847.0472.0551-.0179.1135-.0309.2237-.0671.34-.0894l.0348-.0066q.1646-.0265-.0481.0061c.03-.0228.1413-.01.1811-.0106.0612-.0016.1224-.0013.1836.0014.0149.0006.2552.0084.0865.0017-.1618-.0064.0594.0124.0816.0171q.1036.0219.2055.052a.6165.6165,0,0,1,.1986.0678c-.0072-.0079-.21-.1045-.0432-.0161.1018.054.2031.1062.3.1695.0132.0087.1937.1426.0676.0434s.0472.0441.0586.0544a1.1493,1.1493,0,0,1,.2813.298c-.0606-.1528-.0723-.1024-.0307-.0339.0357.0587.0754.1145.11.1742q.0343.06.0656.121l.0305.0619q.0668.1472-.0172-.0433c.061.0482.0855.262.1025.3344.0108.046.0192.0923.0286.1387.04.1982-.0124-.2028.0016.06.0058.11-.0023.2193-.0027.3293-.0008.2427.0482-.21-.0009.0252-.01.0465-.0182.093-.0293.1392-.0191.08-.0415.2771-.1042.3349l.0453-.1061q-.0284.0632-.06.1247-.0472.092-.1017.18c-.0292.0471-.071.0933-.0953.1428-.0584.1194.1553-.1666.0058-.01-.0792.0829-.1535.1672-.2391.244-.0137.0123-.19.1433-.0592.0535.1329-.0916-.0558.0345-.0681.0425a1.1216,1.1216,0,0,1-.3629.1966c.0178-.0024.2158-.0738.0408-.0221-.0672.02-.1328.0437-.2007.0616-.0455.0119-.0914.0226-.1374.0322-.0278.0057-.2379.0142-.0808.016.1668.002-.0678,0-.0854.0009-.0611.0024-.1221.0024-.1833.0006a.5066.5066,0,0,1-.1821-.0113q.212.0319.0472.0052l-.07-.0138c-.09-.0189-.337-.0453-.4042-.12l.1061.0454q-.0474-.0212-.0937-.0447c-.07-.0393-.1422-.0747-.2109-.1172-.0389-.0241-.0759-.0512-.1148-.0753q-.1293-.0937.0344.03-.053-.0434-.1037-.0892c-.0849-.0769-.16-.162-.2377-.2453-.1565-.1669.1056.1772-.013-.0188-.0356-.0588-.0753-.1144-.11-.1742s-.0639-.1219-.0961-.1829c-.0914-.1731.0512.1828-.0068-.0221-.0387-.1365-.0768-.2686-.1071-.4077-.0273-.1251-.0409-.0144.0061.0481-.0366-.0486-.0115-.231-.0114-.2911a.981.981,0,0,0-1.962,0Z"/><path d="M219.1911,318.3763a15.0684,15.0684,0,0,0,8.8939,6.4277,15.27,15.27,0,0,0,5.813.2156,1.9665,1.9665,0,0,0,1.37-2.4135,2.0261,2.0261,0,0,0-2.4135-1.37c.3975-.054-.3414.0257-.4123.0308q-.36.0263-.7215.0324a12.34,12.34,0,0,1-1.3744-.0529q-.165-.0156-.3293-.0358.3768.0519.0384.0007c-.2081-.04-.4169-.0743-.6241-.12q-.5244-.1155-1.0368-.2779-.2827-.09-.5607-.1932c-.1018-.0379-.6937-.305-.2-.0739-.3355-.1569-.6692-.3134-.9939-.4925q-.4613-.2542-.9009-.5452-.21-.1391-.4154-.2859c-.0483-.0346-.4722-.3432-.1927-.1378.2764.2032-.1234-.1013-.1708-.14q-.1749-.1441-.3451-.2939-.3181-.28-.62-.5776-.4891-.4831-.9313-1.0112c-.1391-.1666-.4759-.7116-.0529-.0529-.0725-.1128-.1627-.2166-.24-.3266-.0661-.094-.132-.1886-.1923-.2864a1.9623,1.9623,0,1,0-3.3883,1.9805Z"/><path class="cls-1" d="M198.0444,377.225l41.5233-5.43,57.4269,58.0817s-21.8788,61.15-24.9961,94.6662l-105.3029-1.5954c-9.9324-43.7621-21.3706-77.8781-16.0016-108.9945"/><path d="M198.0444,379.187l36.4528-4.7672,5.0705-.6631-1.3873-.5747,19.476,19.6982L288.4943,424.07l7.113,7.1941-.5046-1.9089c-2.707,7.5687-5.2124,15.2141-7.648,22.8735-4.9125,15.4486-9.4747,31.044-13.057,46.86a200.8881,200.8881,0,0,0-4.3612,25.4546l1.962-1.9619-10.4918-.159L236.318,522.04l-30.3357-.46-26.3317-.3989-8.6466-.1311a38.6365,38.6365,0,0,0-4.1333-.0626,1.6517,1.6517,0,0,1-.1751-.0026l1.8919,1.44c-3.5657-15.6892-7.6536-31.2553-11.1683-46.956-2.9621-13.232-5.5549-26.6518-6.0527-40.2352a101.4364,101.4364,0,0,1,1.2194-20.76c.4211-2.47-3.36-3.5313-3.7838-1.0432-2.1955,12.8767-1.5837,25.9211.2425,38.802,2.0757,14.6407,5.613,29.0408,9.1095,43.3927,2.2586,9.271,4.5348,18.5378,6.65,27.8429a1.99,1.99,0,0,0,1.8919,1.44l10.4918.159,25.1887.3817,30.3357.46,26.3316.3989c4.2438.0643,8.5363.3234,12.78.1937.0582-.0018.117.0018.1752.0026a2.0092,2.0092,0,0,0,1.962-1.962c1.4783-15.686,5.5867-31.1881,9.8074-46.3226,3.7447-13.4275,7.9184-26.7383,12.3921-39.94.8922-2.6327,1.79-5.2642,2.7265-7.8817a1.9427,1.9427,0,0,0-.5045-1.9089l-12.2132-12.3524-24.3914-24.67L242.8861,372.36c-1.086-1.0983-2.111-2.626-3.7993-2.4648-3.7691.36-7.5322.985-11.286,1.4759L198.65,375.1838l-.6053.0792a2.0265,2.0265,0,0,0-1.962,1.962,1.9732,1.9732,0,0,0,1.962,1.962Z"/><polyline class="cls-1" points="432.225 344.285 442.25 328.818 483.343 352.5 476.041 367.105"/><path d="M433.9192,345.2748l10.0245-15.4662-2.6843.7039,13.8449,7.9786,22.1867,12.7857,5.0622,2.9173-.7038-2.6843-7.3027,14.6052c-1.1261,2.2523,2.2576,4.2419,3.3883,1.9805l7.3026-14.6052a2.0025,2.0025,0,0,0-.7039-2.6844l-13.8449-7.9786-22.1867-12.7858-5.0622-2.9173a2.0034,2.0034,0,0,0-2.6844.7039l-10.0246,15.4662c-1.3775,2.1253,2.0181,4.0944,3.3883,1.9805Z"/><path class="cls-1" d="M232.0305,376.3649l38.1008-.1019a45.4664,45.4664,0,0,1,20.8315,4.99l64.4123,32.9574,30.7521,16.7924L402.196,387.23A115.3739,115.3739,0,0,1,435.55,339.2774l2.1521-1.8391,41.5337,25.1028L485,388.0259a33.0351,33.0351,0,0,1-3.8313,24.18l-41.8952,70.4119a56.3827,56.3827,0,0,1-71.7552,19.895l-33.7209-16.3219-80.0306-40.582"/><path d="M232.0305,378.3269l33.6748-.09c1.4635-.004,2.9271-.0129,4.3906-.0118a43.5813,43.5813,0,0,1,17.84,3.7434c2.8469,1.2838,5.6018,2.8032,8.38,4.2248l36.0409,18.4408c7.3951,3.7838,14.8715,7.4425,22.1957,11.3625,9.9188,5.3087,19.7511,10.7852,29.625,16.177l.9593.5238a1.994,1.994,0,0,0,2.8822-1.1725l10.6868-29.1123,5.068-13.806a116.8813,116.8813,0,0,1,11.853-23.7577,122.77,122.77,0,0,1,23.4625-26.0232l-2.3776.3068,14.0615,8.4987,22.305,13.481,5.1672,3.1231-.9017-1.1726,3.133,13.851,1.9958,8.8236a50.87,50.87,0,0,1,1.2438,6.5841,32.7771,32.7771,0,0,1-4.8972,19.9957l-5.5544,9.3351-19.6112,32.96-15.23,25.5963a54.3338,54.3338,0,0,1-63.31,23.2675,104.7075,104.7075,0,0,1-12.8844-5.6972c-9.1468-4.4273-18.34-8.77-27.4445-13.284-6.1769-3.0625-12.3007-6.2374-18.45-9.3555l-35.4872-17.9949-24.8058-12.5786-1.2845-.6514c-2.2473-1.1395-4.2358,2.2447-1.98,3.3883l24.0891,12.2152,41.3952,20.9907c6.2261,3.1572,12.4316,6.3526,18.715,9.394l20.2673,9.81c5.2917,2.5613,10.5707,5.4164,16.1446,7.3193a58.8,58.8,0,0,0,62.4441-16.6661,73.05,73.05,0,0,0,7.7539-11.1581l9.2918-15.6166,23.3905-39.3117,6.2735-10.5437a36.0047,36.0047,0,0,0,4.2673-26.5981q-2.1935-9.7576-4.4128-19.5093l-.9255-4.0917a4.7811,4.7811,0,0,0-.8477-2.3827,17.48,17.48,0,0,0-3.3545-2.0942L441.65,337.5317l-2.9574-1.7875a2.0174,2.0174,0,0,0-2.3776.3068A128.0582,128.0582,0,0,0,414.81,359.1a118.2947,118.2947,0,0,0-14.5671,27.7752q-5.7867,15.7354-11.5552,31.4778l-4.4523,12.1287,2.8822-1.1725L357.992,413.405c-6.4022-3.496-12.9757-6.6951-19.4688-10.0174L301.27,384.3264q-4.5719-2.3392-9.1438-4.6785a50.447,50.447,0,0,0-23.3916-5.3431l-35.6912.0954-1.0128.0027c-2.5246.0068-2.5294,3.9308,0,3.924Z"/><path class="cls-1" d="M252.7553,376.0849H186.714a18.0711,18.0711,0,0,1,17.8728-15.4014H217.924a18.0714,18.0714,0,0,1,8.139,1.9366Z"/><path d="M252.7553,374.1229H186.714l1.8919,2.4836a16.2985,16.2985,0,0,1,14.7537-13.919c4.3458-.293,8.7751-.0421,13.1287-.0421a18.827,18.827,0,0,1,8.5869,1.67c.8815.4345,1.7552.8854,2.6326,1.3281l13.5827,6.8516,10.4746,5.2839c2.2491,1.1346,4.238-2.2494,1.9805-3.3882L230.12,362.4729c-1.0167-.5129-2.0293-1.0354-3.0507-1.5389a22.0188,22.0188,0,0,0-9.9365-2.2125c-4.408,0-8.8444-.1562-13.2494.0135a20.1858,20.1858,0,0,0-19.0611,16.8283,1.9953,1.9953,0,0,0,1.8919,2.4836h66.0413C255.28,378.0469,255.2844,374.1229,252.7553,374.1229Z"/><path d="M256.765,327.5014a10.46,10.46,0,0,0,6.1243,4.6819,9.0362,9.0362,0,0,0,3.9488.06,1.9728,1.9728,0,0,0,1.37-2.4134,2.0131,2.0131,0,0,0-2.4135-1.37c-.1842.0352-.645.0171-.0315.0176-.1414,0-.2876.0293-.4295.0369a6.5212,6.5212,0,0,1-.8235-.0076c-.18-.0131-.6154-.1307.0311.0153-.1247-.0282-.2534-.0421-.3787-.0688a6.5953,6.5953,0,0,1-.7205-.1967c-.1151-.0385-.2279-.0822-.3416-.1245-.3134-.1165.5036.2294.06.0212q-.3138-.1472-.613-.3231-.2877-.1687-.5608-.3608c-.088-.0618-.173-.1277-.26-.19.5591.3991.2152.1669.09.0633a11.2213,11.2213,0,0,1-1.4508-1.4887c-.1753-.2106.3663.4877.1627.21-.0328-.0446-.0663-.0887-.0987-.1336-.0521-.0719-.1033-.1445-.1528-.2181-.0424-.063-.0846-.1262-.1235-.1913a1.9623,1.9623,0,0,0-3.3882,1.9805Z"/><path d="M361.6467,419.87l13.6926,7.7883L397.1945,440.09l5.058,2.8769c2.1983,1.25,4.1777-2.1384,1.9805-3.3882L390.54,431.79l-21.8552-12.4312-5.058-2.8769c-2.1983-1.25-4.1777,2.1384-1.9805,3.3882Z"/><path class="cls-5" d="M138.074,405.9769h70.73c20.5592-32.2279,15.074-85.257,15.074-85.257-3.6406-2.6762-9.063-13.1509-9.2428-19.2469-.2715-9.2095,4.6085-11.5222,11.0411-11.7119s13.9017,11.7527,14.1663,20.7285l.4633-19.4628a10.1882,10.1882,0,0,1,11.4023-9.8759l13.9553.24a7.95,7.95,0,0,0,7.2549-11.4878l-1.15-2.3121c-4.416-8.8813-13.3409-19.3931-23.2534-19.743l-37.6536-1.3292c-10.9226-.3855-31.3035,12.7729-35.7487,31.665l-5.6186,29.2345h0a35.04,35.04,0,0,0-19.37,31.3412v1.1319l-7.2,2.88a35.0405,35.0405,0,0,0-21.3662,39.3061h0A17.6564,17.6564,0,0,0,138.074,405.9769Z"/><path d="M138.074,407.9389h68.9681c.4887,0,.98.0142,1.4684,0,1.3939-.0407,2.01-.9842,2.6981-2.111a84.1592,84.1592,0,0,0,7.0516-14.89,136.18,136.18,0,0,0,7.0494-31.8639,202.4936,202.4936,0,0,0,1.1487-26.5983c-.0809-3.9023-.1778-7.8508-.6164-11.734-.131-1.1595-.7432-1.4865-1.37-2.0862a15.0654,15.0654,0,0,1-1.898-2.2664,38.6035,38.6035,0,0,1-3.8792-7.0748c-1.7618-4.16-3.3661-9.7426-1.0123-14.0136a6.2445,6.2445,0,0,1,3.8-2.9622,10.5259,10.5259,0,0,1,5.509-.4291c2.0042.6016,3.6634,2.2889,4.9865,3.8686a26.415,26.415,0,0,1,4.079,6.9277,23.1293,23.1293,0,0,1,1.8234,7.784,1.9632,1.9632,0,0,0,3.924,0l.4273-17.9511a17.3907,17.3907,0,0,1,.1522-2.7137,8.3539,8.3539,0,0,1,4.3-5.853c2.7294-1.4695,6.53-.8331,9.5572-.781,3.1091.0534,6.2211.1537,9.3307.16a10.0422,10.0422,0,0,0,10.12-9.2332c.1858-2.4165-.7157-4.4747-1.7609-6.5769a56.7063,56.7063,0,0,0-3.5465-6.2455c-3.3566-5.0364-7.63-9.8106-12.9743-12.78a21.63,21.63,0,0,0-9.9756-2.668l-7.6652-.2706-22.5984-.7978c-2.0173-.0712-4.0345-.1506-6.052-.2136a23.7874,23.7874,0,0,0-8.9062,1.6216,49.18,49.18,0,0,0-23.7682,19.3783,37.1692,37.1692,0,0,0-5.2736,12.36c-.4889,2.3838-.9189,4.7814-1.3782,7.171l-3.9138,20.3642-.2759,1.4357.9017-1.1725A37.0493,37.0493,0,0,0,153.1129,320.27a38.7484,38.7484,0,0,0-4.9506,19.6211l1.44-1.8919c-5.461,2.1844-11.073,4.1-15.8184,7.6791a37.2688,37.2688,0,0,0-13.9808,21.6543,37.925,37.925,0,0,0-.1371,15.266v-1.0431a19.5666,19.5666,0,0,0,2.1886,17.7925,19.8418,19.8418,0,0,0,16.219,8.5907c2.5257.024,2.5279-3.9,0-3.924a15.8237,15.8237,0,0,1-13.8207-8.2549,15.521,15.521,0,0,1-1.1459-12.1695,4.3046,4.3046,0,0,0,.2734-2.3969c-.1365-.7891-.265-1.5747-.3456-2.3719a33.4112,33.4112,0,0,1,15.8331-31.8527c3.6756-2.2075,7.8108-3.5991,11.7776-5.1858a2.0443,2.0443,0,0,0,1.44-1.8919,34.7448,34.7448,0,0,1,3.977-16.8592,33.2951,33.2951,0,0,1,13.1083-13.2284c.913-.5057,1.9108-.8222,2.2274-1.9311.07-.2449.0981-.51.1461-.76l.71-3.695,2.3157-12.0494c1.3055-6.7923,2.0476-14.0272,5.2184-20.2668,4.8656-9.5744,13.9757-17.9045,24.2066-21.3928a20.2572,20.2572,0,0,1,7.7317-1.1971l8.42.2972,24.1107.8511a45.2177,45.2177,0,0,1,5.77.2937c6.29,1.0486,11.4722,5.9685,15.2049,10.8475a49.0241,49.0241,0,0,1,4.8714,7.8431c.8944,1.7862,1.955,3.5388,1.6482,5.6276a6.0972,6.0972,0,0,1-4.4808,4.9806,14.1223,14.1223,0,0,1-3.6983.1408l-11.2659-.1937a15.33,15.33,0,0,0-6.1.7028,12.25,12.25,0,0,0-6.629,6.029c-1.4991,3.1436-1.2725,6.64-1.3533,10.0315l-.2873,12.0708L237.88,310.49h3.924a29.46,29.46,0,0,0-5.5231-15.5c-2.6958-3.8058-6.46-7.4609-11.4472-7.1526-4.1982.26-8.5016,1.6517-10.6,5.5971-2.4134,4.5367-1.77,10.1334-.1369,14.8037a44.3188,44.3188,0,0,0,3.8851,8.2763,20.52,20.52,0,0,0,4.9056,5.9l-.9717-1.6942a165.9463,165.9463,0,0,1,.6343,19.7173c-.2317,13.8812-1.7083,27.86-5.4445,41.2614a86.6624,86.6624,0,0,1-9.9959,23.288l1.6941-.9717h-70.73C135.5492,404.0149,135.545,407.9389,138.074,407.9389Z"/><path class="cls-5" d="M210.9883,246.46l63.2114.9653c10.3824.179,17.5675,15.5117,13.6221,25.117,0,0-1.5786,8.42-12.136,15.0875.5557.5557,3.89-8.3347,2.7783-12.2243a34.5612,34.5612,0,0,1-18.3365,11.113s2.6545-4.623,2.7164-8.7015"/><path d="M210.9883,248.4219l12.8238.1959,26.2052.4,21.1872.3235a30.1516,30.1516,0,0,1,4.1134.1317c5.0132.7812,8.6187,5.5428,10.285,10.0156a20.0739,20.0739,0,0,1,1.33,8.0652,20.9991,20.9991,0,0,1-1.0865,4.8239,15.29,15.29,0,0,1-1.5857,3.7935,25.6512,25.6512,0,0,1-5.1634,6.4258,32.0754,32.0754,0,0,1-4.4013,3.3385,1.9872,1.9872,0,0,0,0,3.3883c2.7341,1.7728,4.1739-3.29,4.6911-4.9373.9261-2.9487,1.7669-6.4363.9693-9.5028a1.9769,1.9769,0,0,0-3.2792-.8657c-4.4426,4.9734-10.7336,9.4637-17.4708,10.6084l2.2157,2.8822a21.6112,21.6112,0,0,0,2.9842-9.6918c.0871-2.5256-3.8369-2.5223-3.9239,0a17.3569,17.3569,0,0,1-2.4485,7.7113,1.9875,1.9875,0,0,0,2.2157,2.8821,27.3768,27.3768,0,0,0,6.5118-2.2125,38.2068,38.2068,0,0,0,12.69-9.4051l-3.2792-.8657c.4659,1.7915-.0879,4.2468-.6068,6.1723a28.25,28.25,0,0,1-.9993,3.0576c-.1237.3121-.1473.3356-.3578.7825a2.113,2.113,0,0,0-.2062.3647,1.782,1.782,0,0,1,1.3155-.6158l.99.2679-.0318-.0206v3.3883c5.2334-3.35,9.7788-7.9211,12.1908-13.72a22.94,22.94,0,0,0,1.9129-11.0133c-.9271-9.2191-7.2386-18.9848-17.3047-19.1385l-18.23-.2784-27.5721-.421c-5.4652-.0835-10.9679-.3632-16.4335-.251-.0835.0017-.1675-.0026-.2511-.0038-2.5259-.0386-2.5268,3.8854,0,3.9239Z"/><path class="cls-3" d="M104.7371,299.3814H124.149V283.9471l12.5288-8.7614a6.9359,6.9359,0,0,0,2.9076-6.5444h0a6.9362,6.9362,0,0,0-9.2418-5.6623l-11.4419,4.1386a5.3341,5.3341,0,0,1-6.9474-3.5659l0-.0006"/><path d="M104.7371,301.3434H124.149a1.99,1.99,0,0,0,1.9619-1.962V283.9471l-.9717,1.6941L132.32,280.62c2.5568-1.788,5.9734-3.56,7.7761-6.1786,3.7714-5.478-.0236-13.0437-6.46-13.7787-3.324-.38-6.9523,1.56-9.9979,2.6614-1.6688.6036-3.3334,1.2206-5.0069,1.811-1.9446.6862-4.1676.0791-4.7847-2.1055-.6854-2.4263-4.4726-1.3952-3.7838,1.0431a7.38,7.38,0,0,0,9.361,4.9369c1.651-.546,3.2767-1.1852,4.9118-1.7766,2.0806-.7526,4.1575-1.517,6.2423-2.2579,2.5927-.9213,5.5276-.1659,6.7026,2.5371a3.8486,3.8486,0,0,1,.3914,2.2719,4.9828,4.9828,0,0,1-.925,2.6261,6.4519,6.4519,0,0,1-1.6427,1.49l-5.6806,3.9724-5.6326,3.9389c-.79.5524-1.53,1.0517-1.6035,2.1386-.03.4476,0,.9077,0,1.356v14.0756l1.962-1.9619H104.7371c-2.5249,0-2.5291,3.9239,0,3.9239Z"/><line class="cls-3" x1="124.4067" y1="403.7008" x2="107.3971" y2="454.8742"/><path d="M122.5148,403.1792l-5.754,17.311-9.1632,27.5673-2.0925,6.2951c-.7983,2.4019,2.99,3.4318,3.7839,1.0432l5.754-17.311,9.1632-27.5673,2.0924-6.2951c.7984-2.4019-2.99-3.4318-3.7838-1.0432Z"/><rect class="cls-1" x="83.7297" y="299.3814" width="40.4193" height="10.1048"/><path d="M124.149,307.5243H83.73l1.962,1.962V299.3814l-1.962,1.962H124.149l-1.962-1.962v10.1049c0,2.5249,3.9239,2.529,3.9239,0V299.3814a1.99,1.99,0,0,0-1.9619-1.9619H83.73a1.99,1.99,0,0,0-1.962,1.9619v10.1049a1.99,1.99,0,0,0,1.962,1.9619H124.149C126.6739,311.4482,126.678,307.5243,124.149,307.5243Z"/><circle class="cls-6" cx="364.5361" cy="80.3394" r="9.9664"/><circle class="cls-5" cx="403.1937" cy="80.3394" r="9.9664"/><circle class="cls-4" cx="441.8512" cy="80.3394" r="9.9664"/></svg>