<svg id="Layer_1" data-name="Layer 1" xmlns="http://www.w3.org/2000/svg" width="1000" height="1000" viewBox="0 0 1000 1000"><defs><style>.cls-1{fill:#458dc9;}.cls-2{fill:#fc7272;}.cls-3{fill:#ffc41f;}.cls-4{fill:#fff;}.cls-5{fill:#ea2f2f;}.cls-6{fill:#fc7f3a;}.cls-7{fill:#fcb332;}.cls-8{stroke:#000;stroke-miterlimit:10;stroke-width:1.0434px;}</style></defs><path class="cls-1" d="M697.63,371.7476l-82.7914,117.9c-4.9-6.84-19.1736-34.8844-27.3612-42.4349a167.76,167.76,0,0,0-13.25-11.05l40.5592-56.4831a29.9878,29.9878,0,0,1,20.71-12.4464l45.2524-5.4666"/><path d="M696.2787,370.9576,688.0327,382.7l-19.7984,28.194-23.9414,34.094-20.6261,29.3727-6.8159,9.7063a55.1127,55.1127,0,0,0-3.22,4.5848,2.44,2.44,0,0,1-.144.2051H616.19c-1.798-2.5256-3.3269-5.2532-4.8854-7.9292-2.2271-3.824-4.4194-7.6682-6.6581-11.4856-4.345-7.409-8.6868-15.2209-14.4332-21.6615a65.4264,65.4264,0,0,0-6.34-5.869q-4.3072-3.6993-8.8561-7.1013l.5615,2.1413,11.52-16.0433,20.4486-28.477,6.9571-9.6885a37.1351,37.1351,0,0,1,7.84-8.5869,31.1043,31.1043,0,0,1,15.2345-5.61l13.7039-1.6554,28.9059-3.4919.56-.0677c1.9749-.2386,1.9989-3.3717,0-3.13l-25.5913,3.0915L639.6165,365.17c-4.3177.5216-8.53,1.0149-12.5955,2.737a33.5647,33.5647,0,0,0-14.1257,11.7344l-5.6344,7.8464L587.1251,415.529l-9.1693,12.7692c-1.6159,2.25-3.33,4.4585-4.86,6.7688-.069.1041-.1463.2036-.2192.3052a1.5984,1.5984,0,0,0,.5615,2.1413q4.0335,3.0213,7.8616,6.3027a77.2735,77.2735,0,0,1,6.1427,5.5686,63.817,63.817,0,0,1,6.5846,8.76c5.0154,7.5969,9.4629,15.5535,14.0289,23.4232,1.7347,2.99,3.4246,6.05,5.4318,8.8692a1.5909,1.5909,0,0,0,2.7028,0l8.246-11.7427,19.7984-28.194,23.9414-34.094,20.6261-29.3728,6.816-9.7062c1.0673-1.52,2.2367-3.0081,3.2195-4.5849.044-.07.0963-.137.1441-.2051,1.16-1.652-1.5526-3.2179-2.7029-1.58Z"/><path d="M614.5584,489.7685c2.6589-3.1885-.3185-10.9536-7.1087-20.4328l-14.8692,14.6C603.2487,490.5969,611.74,493.1476,614.5584,489.7685Z"/><path d="M615.6651,490.8752c2.067-2.5916,1.5173-6.0535.5279-8.9873-1.6268-4.8235-4.4564-9.2245-7.3918-13.3421a1.59,1.59,0,0,0-2.4582-.3168l-13.0223,12.7861-1.8469,1.8135a1.5834,1.5834,0,0,0,.3167,2.4581c4.5573,2.832,9.4626,5.6039,14.7013,6.9442,2.9483.7544,6.9309,1.2182,9.1733-1.3557,1.318-1.5128-.8871-3.7357-2.2134-2.2134a3.0471,3.0471,0,0,1-2.3048,1.0151,13.5714,13.5714,0,0,1-4.62-.6837,54.3637,54.3637,0,0,1-13.1564-6.4094l.3168,2.4582L606.71,472.2559l1.8469-1.8135-2.4581-.3167a53.0758,53.0758,0,0,1,6.7926,11.8013,14.4918,14.4918,0,0,1,1.0552,4.2322,5.2624,5.2624,0,0,1-.0747,1.4592c-.0308.1368-.2123.6819-.16.5667-.06.1324-.36.6036-.2592.4767a1.6162,1.6162,0,0,0,0,2.2134A1.5747,1.5747,0,0,0,615.6651,490.8752Z"/><path class="cls-2" d="M587.4775,447.2124a167.76,167.76,0,0,0-13.25-11.05l-15.0381,19.05-4.2787,5.42-95.8476-60.6854-18.0074,32.6407,82.392,68.5681c29.9961,18.8172,43.0886,19.0632,59.6091,4.1455l12.1195-11.25L612.5457,477.09C605.4174,463.4288,595.6651,454.7629,587.4775,447.2124Z"/><path d="M588.5842,446.1056a175.3257,175.3257,0,0,0-13.5666-11.2949,1.5587,1.5587,0,0,0-1.8967.2447L558.0792,454.11q-2.1377,2.7078-4.2751,5.4157l1.8966-.2448-9.54-6.04L523.2542,438.738,495.548,421.196,471.61,406.04c-3.8453-2.4346-7.6245-5.1034-11.5911-7.3388-.0568-.0321-.111-.07-.1662-.1052a1.5821,1.5821,0,0,0-2.1414.5614l-15.7993,28.6384-2.208,4.0024a1.5878,1.5878,0,0,0,.2447,1.8966l6.2281,5.1832,15.4462,12.8546,20.0974,16.7254,19.8822,16.5463,15.1408,12.6005a69.2975,69.2975,0,0,0,7.7925,6.07,131.6382,131.6382,0,0,0,19.4923,10.2362,44.0375,44.0375,0,0,0,15.42,3.58c9.6118.2071,17.8635-4.8222,24.7469-11.113,4.1586-3.8007,8.355-7.5925,12.3943-11.52q7.7932-7.577,15.553-15.1888l1.5094-1.474a1.6034,1.6034,0,0,0,.2447-1.8966,85.65,85.65,0,0,0-12.2523-17.4034c-4.0832-4.5354-8.5782-8.6587-13.0606-12.7907-1.4793-1.3636-3.6985.8445-2.2134,2.2135,4.3876,4.0446,8.79,8.0786,12.802,12.5044A82.73,82.73,0,0,1,611.1942,477.88l.2448-1.8967-14.3133,13.978c-4.01,3.9163-8.1383,7.702-12.2467,11.5155-5.7582,5.3449-11.8518,10.7245-19.7713,12.3885-10.6934,2.2468-21.6854-3.0926-30.7889-8.0948-3.2742-1.7992-6.6917-3.62-9.7667-5.7226-.1706-.1167-.3252-.2706-.4838-.4026l-3.2239-2.683-13.4935-11.23L488.2419,469.83l-20.19-16.8023L451.3164,439.1l-8.7619-7.2918-.392-.3263.2447,1.8967L458.2066,404.74l2.208-4.0024-2.1414.5615,9.54,6.04L490.72,421.8421l27.7062,17.5421L542.3635,454.54c3.8453,2.4347,7.6246,5.1034,11.5911,7.3388.0569.0321.111.07.1662.1053a1.5722,1.5722,0,0,0,1.8967-.2447L572.38,441.0117l2.9545-3.7429-1.8966.2447a167.4529,167.4529,0,0,1,12.9331,10.8056C587.8514,449.6808,590.0708,447.4729,588.5842,446.1056Z"/><path d="M721.7587,851.3626c-.0434-3.9575-1.7944-7.4682-6.0971-7.7161a13.7942,13.7942,0,0,0-6.4257,1.389l1.15.8837c.9542-3.9239-2.5431-7.2192-5.8092-8.5787a10.0389,10.0389,0,0,0-11.3225,2.7939l1.308.7614a11.1777,11.1777,0,0,0,.3333-6.3565c-1.18-4.8424-5.9059-7.0316-10.4338-7.7927v1.5092c4.4882-1.3716,12.0011-4.0788,12.2655-9.8137.2181-4.73-5.0913-7.6018-8.8837-8.9018a34.7277,34.7277,0,0,0-11.651-1.66l.5534,1.3359c4.5491-3.8984,9.1124-8.0865,12.4811-13.0866,1.4635-2.1722,3.2866-5.2508,2.5414-8.0028-.5661-2.0907-2.6109-2.9423-4.6076-3.0511-3.1127-.17-6.2892,1.0268-9.0525,2.335a47.2666,47.2666,0,0,0-12.62,9.0821l1.308.7614c2.3578-7.7606,4.4285-15.8281,4.7908-23.9693.1595-3.5851.26-8.507-2.2557-11.4275-1.83-2.1251-4.486-1.5165-6.4429.0737-3.268,2.6556-5.1789,6.97-6.6148,10.8111-2.8914,7.7349-4.0508,16.0935-4.45,24.304l1.5372-.2081c-1.9755-6.5633-5.1467-13.074-10.4243-17.6167a19.4983,19.4983,0,0,0-8.3395-4.4993,2.8586,2.8586,0,0,0-2.567.8547c-1.8736,1.617-2.2444,4.3179-2.0589,6.6513a27.6075,27.6075,0,0,0,2.1485,8.1082,83.6016,83.6016,0,0,0,6.74,12.7363l1.0707-1.0707c-2.3982-1.6108-7.9176-4.8393-10.2481-1.32-1.7948,2.71.5532,6.2208,2.6861,7.8993v-1.1067a21.2967,21.2967,0,0,1-2.8941,2.5526c-.8147.5782-.0338,1.9361.79,1.3515a23.4916,23.4916,0,0,0,3.2108-2.7974.7875.7875,0,0,0,0-1.1067c-1.4662-1.1538-3.7953-3.8337-2.5246-5.8741,1.6378-2.63,6.6536.7213,8.19,1.7532.6548.44,1.4748-.4236,1.0707-1.0707-3.5161-5.6288-7.219-11.8067-8.4533-18.4295-.4083-2.1908-.5292-5.1394.9719-6.7761a2.8828,2.8828,0,0,1,1.1933-.8654c-.3333.1478.1561-.0874.1908-.0561.1266.1141-.6391-.1436-.1663.0281.8042.2921,1.6569.4276,2.4605.7565a19.6659,19.6659,0,0,1,4.3212,2.4984c5.742,4.3138,9.0976,11.0884,11.1225,17.8157a.7863.7863,0,0,0,1.5371-.208,84.5325,84.5325,0,0,1,3.4068-20.9929c1.2832-4.1293,2.9868-8.5666,5.9432-11.8171A6.96,6.96,0,0,1,665.65,762.12a2.1587,2.1587,0,0,1,2.1736.4283,6.2923,6.2923,0,0,1,1.67,3.2811,23.81,23.81,0,0,1,.5649,6.24c-.1423,8.4021-2.3455,16.78-4.7727,24.7692a.7885.7885,0,0,0,1.3079.7614,48.064,48.064,0,0,1,10.32-7.82,23.3316,23.3316,0,0,1,8.7122-3.0969c1.5115-.1491,3.8173-.128,4.5286,1.5386.8849,2.0731-.8146,4.8265-1.8668,6.487-3.2789,5.1743-8.0384,9.45-12.65,13.4016a.79.79,0,0,0,.5533,1.3359c5.4053-.0639,11.608.7015,16.0626,4.06a6.7483,6.7483,0,0,1,2.8743,4.126,5.3008,5.3008,0,0,1-1.883,4.4347c-2.47,2.4142-5.9659,3.6913-9.2008,4.68-.6815.2083-.8059,1.3738,0,1.5092,4.1253.6934,8.5032,2.5276,9.4168,7.0416a9.7268,9.7268,0,0,1-.4094,5.1823.7879.7879,0,0,0,1.3079.7614,8.5406,8.5406,0,0,1,9.2432-2.6112c2.7172.9746,6.0224,3.79,5.2726,6.8733a.7929.7929,0,0,0,1.15.8837,13.7812,13.7812,0,0,1,4.92-1.1857,5.1294,5.1294,0,0,1,3.5338,1.0364c1.4456,1.2436,1.6947,3.338,1.7143,5.125a.783.783,0,0,0,1.5651,0Z"/><path d="M646.4936,827.7092c.8191-2.7976,2.0986-6.0059,4.2706-8.0188,1.2729-1.18,3.3757-1.547,4.3586.23.9423,1.7033.3435,4.1044-.1478,5.8557a24.8325,24.8325,0,0,1-1.552,4.156.79.79,0,0,0,1.0707,1.0707c-.2948.1256.0816-.0294.185-.0664.255-.0915.5111-.1789.77-.2573a12.5691,12.5691,0,0,1,2.3633-.4933c1.1573-.1168,4.649-.12,4.7507,1.5888.0637,1.0707-1.4116,2.1921-2.1357,2.7852a16.2849,16.2849,0,0,1-1.9468,1.3709.7926.7926,0,0,0,0,1.3514c1.7443,1.2012,2.75,3.2679,1.5106,5.2086-.5437.8515.81,1.6373,1.3514.79,1.7183-2.6909.3733-5.6661-2.0721-7.35v1.3514c1.8736-1.1214,5.58-3.5715,4.7507-6.2026-.6417-2.0359-3.5991-2.5477-5.4078-2.5093a13.407,13.407,0,0,0-4.91,1.0812l1.0707,1.0707c1.5261-3.1331,3.4375-7.9223,1.8335-11.321a4.0617,4.0617,0,0,0-5.2808-1.9524c-2.052.8937-3.3976,3.0585-4.3781,4.9708a28.0305,28.0305,0,0,0-1.9646,4.8739.7832.7832,0,0,0,1.5092.416Z"/><path d="M757.7361,515.0051l1.1973,6.5113a21.171,21.171,0,0,1-9.9985,22.24l-14.1811,8.0793L729.6559,514.15"/><path d="M756.2269,515.4212c.3991,2.17.8136,4.3383,1.1973,6.5113a20.2288,20.2288,0,0,1-2.6451,14.0273c-3.3065,5.3882-9.2989,7.963-14.591,10.978l-6.2242,3.5461,2.2991.9353-4.4749-33.08-.623-4.6052a1.5758,1.5758,0,0,0-1.9252-1.0931,1.6058,1.6058,0,0,0-1.0932,1.9253l4.4749,33.08.623,4.6052a1.5774,1.5774,0,0,0,2.2992.9353l13.3955-7.6317a23.5509,23.5509,0,0,0,7.9537-7.1088,23.0314,23.0314,0,0,0,3.9006-14.671,90.88,90.88,0,0,0-1.5483-9.1861c-.3638-1.9785-3.3812-1.14-3.0184.8321Z"/><path class="cls-2" d="M817.8922,620.4594l56.9469-31.7083,41.637,82.0531s-21.4,13.8022-39.2715-15.3995a11.5148,11.5148,0,0,0-15.641-4.2336c-6.8733,3.95-13.5068,7.8044-13.5068,7.8044"/><path d="M818.6822,621.8108,837.9359,611.09l30.6731-17.0789,7.02-3.9089-2.1414-.5614,4.144,8.1664,9.9507,19.61,12.0357,23.7184,10.36,20.4162,3.4369,6.7731a27.1346,27.1346,0,0,0,1.6364,3.2248,1.2158,1.2158,0,0,1,.0733.1445l.5615-2.1414a12.9406,12.9406,0,0,1-1.2265.674q-.3168.1576-.6388.3046c-.13.0593-.26.1168-.39.1743a1.1277,1.1277,0,0,1-.2169.09c-.63.25-1.2665.4826-1.9136.686a22.7572,22.7572,0,0,1-11.3812.7117c-5.89-1.1728-10.9206-4.6231-14.9785-8.9514a46.6266,46.6266,0,0,1-3.9051-4.775c-1.2942-1.81-2.3428-3.8157-3.765-5.5283a13.3371,13.3371,0,0,0-9.2053-4.72c-4.7423-.3643-8.5871,2.4421-12.4988,4.7q-4.1526,2.3972-8.2994,4.8047a1.5663,1.5663,0,0,0,1.58,2.7028q3.2866-1.9095,6.5782-3.8105,3.2477-1.877,6.4994-3.7472a10.5035,10.5035,0,0,1,4.8221-1.5434,10.2086,10.2086,0,0,1,8.8118,4.5115,70.6232,70.6232,0,0,0,7.6742,10.1485c4.199,4.3266,9.448,7.8257,15.3984,9.131a26.3482,26.3482,0,0,0,12.62-.3564,22.1073,22.1073,0,0,0,6.015-2.5047,1.6059,1.6059,0,0,0,.5615-2.1414l-4.144-8.1665-9.9507-19.61L891.6972,618.52l-10.36-20.4162c-1.6785-3.3079-3.1853-6.8023-5.0733-9.9979-.0273-.0462-.049-.0966-.0733-.1445a1.5871,1.5871,0,0,0-2.1414-.5615l-19.2537,10.72-30.6731,17.079-7.02,3.9088c-1.76.98-.1836,3.6847,1.58,2.7028Z"/><path class="cls-3" d="M860.25,651.9424c6.9778-4.2093,13.5878-2.0394,16.955,3.4623,17.8718,29.2017,39.2715,15.3995,39.2715,15.3995l-41.637-82.0531L851.496,601.8446h0a7.1871,7.1871,0,0,0-8.7776,4.4025l-.2653.67c2.1534,6.1813,7.1877,8.2415,10.84,8.9035a8.77,8.77,0,0,1,6.3764,5.1466h0a9.442,9.442,0,0,1-3.6286,11.9215l-3.0671,1.8155Z"/><path d="M861.04,653.2938c2.8682-1.6836,6.1763-2.5787,9.4313-1.525s4.8368,3.6751,6.6172,6.368c3.5147,5.3158,7.8692,10.26,13.3752,13.5732a26.5662,26.5662,0,0,0,22.2207,2.51,20.9706,20.9706,0,0,0,4.5821-2.0646,1.6059,1.6059,0,0,0,.5615-2.1414l-4.144-8.1665-9.9507-19.61L891.6972,618.52l-10.36-20.4162c-1.6785-3.3079-3.1853-6.8023-5.0733-9.9979-.0273-.0462-.049-.0966-.0733-.1445a1.5867,1.5867,0,0,0-2.1414-.5615l-20.4385,11.4642-2.9047,1.6293,1.2061-.1578a8.7852,8.7852,0,0,0-9.9936,4.0024,9.317,9.317,0,0,0-.9141,2.01c-.3028,1.0072.3378,2.0934.7761,2.99a13.9115,13.9115,0,0,0,3.69,4.66,15.8809,15.8809,0,0,0,4.4753,2.53c1.48.5564,3.1245.649,4.5649,1.2814a7.86,7.86,0,0,1,4.0615,9.4511c-.9787,3.1984-3.73,4.5185-6.3879,6.0916a1.6159,1.6159,0,0,0-.5615,2.1414l7.2759,17.2384a1.576,1.576,0,0,0,2.1414.5615,1.6051,1.6051,0,0,0,.5614-2.1414l-7.2758-17.2384-.5615,2.1414c2.1047-1.2458,4.3605-2.35,5.9079-4.3064a11.1475,11.1475,0,0,0,1.7094-10.7038,10.7412,10.7412,0,0,0-8.1353-6.8243,12.3358,12.3358,0,0,1-7.7588-4.7426,12.6176,12.6176,0,0,1-.7482-1.2212c-.1595-.2951-.34-1.0072-.5679-1.197-.29-.2407-.1715.21-.148.12a1.7889,1.7889,0,0,1,.1443-.3644c.1831-.3491.3316-.7127.544-1.0491a5.6983,5.6983,0,0,1,4.2754-2.6526c1.1562-.0976,2.3222.5676,3.3943.0286.3721-.1871.73-.41,1.0936-.6134l12.0016-6.7318,10.1531-5.6951-2.1414-.5614,4.144,8.1664,9.9507,19.61,12.0357,23.7184,10.36,20.4162,3.4369,6.7731a27.1346,27.1346,0,0,0,1.6364,3.2248,1.2158,1.2158,0,0,1,.0733.1445l.5615-2.1414c-.2908.1867-.598.35-.9042.51-.3623.189-.7313.3641-1.1032.5332-.0992.0451-.1992.0883-.2991.132-.2721.1189.2325-.0937-.0539.0225-.2739.1111-.5488.2194-.826.3219a23.5064,23.5064,0,0,1-8.7493,1.5223c-11.337-.2006-19.5363-8.9291-25.1945-17.88a13.3736,13.3736,0,0,0-8.0588-6.0921,14.9805,14.9805,0,0,0-11.0375,2.0682A1.5663,1.5663,0,0,0,861.04,653.2938Z"/><path class="cls-4" d="M885.9581,606.9839a3.2718,3.2718,0,0,0,4.5911,1.29l2.7542-1.6748,31.9331,63.14s-6.5932,4.2648-12.251,4.999l-42.7973-83.4491,11.7806-7.2118,8.1888,16.2707-2.9728,1.8077A3.6352,3.6352,0,0,0,885.9581,606.9839Z"/><path d="M884.6067,607.7739a4.9332,4.9332,0,0,0,6.4263,2.0165c1.0609-.5208,2.0513-1.2264,3.06-1.84l-2.1414-.5615,10.8095,21.3732,17.2056,34.02,3.918,7.747.5615-2.1413a30.5785,30.5785,0,0,1-11.8771,4.8412l1.7675.7193-4.2628-8.312L899.8392,645.68l-12.321-24.0245-10.7039-20.8711-3.5281-6.8794a27.8307,27.8307,0,0,0-1.6738-3.2637,1.2139,1.2139,0,0,1-.0728-.1418l-.5614,2.1414,11.78-7.2119-2.1414-.5615,8.1889,16.2708.5614-2.1414c-1.0792.6563-2.2154,1.26-3.2451,1.9921a5.2983,5.2983,0,0,0-1.5158,6.785c.8881,1.808,3.5886.2234,2.7029-1.58-1.1585-2.3585,2.1-3.5591,3.6379-4.4944a1.6029,1.6029,0,0,0,.5615-2.1413L883.32,583.2875a1.5808,1.5808,0,0,0-2.1414-.5615l-11.7805,7.2119a1.6019,1.6019,0,0,0-.5615,2.1414l4.2628,8.3119,10.2349,19.9567,12.3211,24.0245,10.7038,20.8711c1.7217,3.3571,3.2729,6.8981,5.2019,10.143.027.0454.0487.0948.0728.1419a1.6117,1.6117,0,0,0,1.7675.7192,32.7473,32.7473,0,0,0,12.6248-5.1568,1.6062,1.6062,0,0,0,.5615-2.1413l-10.8094-21.3732-17.2057-34.02-3.918-7.747a1.5813,1.5813,0,0,0-2.1414-.5615c-1.4577.8865-3.871,3.11-5.2038.9465C886.2549,604.4818,883.5462,606.0522,884.6067,607.7739Z"/><line class="cls-4" x1="853.8975" y1="606.4957" x2="851.6305" y2="601.8397"/><path d="M855.249,605.7057l-1.9825-4.0716-.2846-.5843a1.581,1.581,0,0,0-.9354-.7193,1.5655,1.5655,0,0,0-1.7675,2.2991l1.9826,4.0717.2845.5843a1.581,1.581,0,0,0,.9354.7193,1.5655,1.5655,0,0,0,1.7675-2.2992Z"/><path class="cls-4" d="M870.4045,650.1183s-1.2432-4.24,3.2127-7.2724"/><path d="M871.9137,649.7023c-.0182-.0629-.032-.1271-.0453-.1911s-.0244-.1291-.0358-.1938c-.07-.3967.0453.4592.0113.0805a7.2794,7.2794,0,0,1-.0332-.7456q.0027-.2078.0183-.415c.0064-.0845.0171-.1687.024-.2532.0212-.2592-.0816.4677-.01.0851a7.4812,7.4812,0,0,1,.2718-1.071c.0347-.1.0824-.199.1124-.3-.1392.4716-.05.1169.01-.0076q.1325-.2773.29-.5416.0945-.1584.1973-.3115c.0458-.0682.2152-.2346.2218-.3117q-.2187.28-.0616.0834.0642-.0784.13-.1551.102-.1178.2085-.2316a8.2846,8.2846,0,0,1,.6358-.6086c.0564-.0487.4485-.3907.1429-.1262a4.5863,4.5863,0,0,1,.4042-.29,1.5654,1.5654,0,0,0-1.58-2.7029,9.47,9.47,0,0,0-3.7173,4.6343,7.69,7.69,0,0,0-.38,3.41,6.2569,6.2569,0,0,0,.1653.9953,1.5655,1.5655,0,0,0,3.0184-.8321Z"/><path class="cls-4" d="M875.81,653.627s-1.2432-4.24,3.2127-7.2724"/><path d="M877.319,653.2109c-.0182-.0628-.032-.127-.0453-.191s-.0244-.1291-.0358-.1938c-.07-.3968.0453.4591.0113.08a7.2781,7.2781,0,0,1-.0332-.7456q.0027-.2076.0183-.4149c.0064-.0846.0171-.1687.024-.2532.0212-.2593-.0816.4676-.01.085a7.48,7.48,0,0,1,.2718-1.0709c.0347-.1.0824-.199.1124-.3-.1392.4716-.05.1169.01-.0077q.1324-.2772.29-.5415.0945-.1584.1973-.3115c.0458-.0682.2152-.2346.2218-.3118q-.2187.28-.0616.0835.0642-.0784.1305-.1551.102-.1179.2085-.2316a8.2654,8.2654,0,0,1,.6358-.6086c.0564-.0487.4485-.3907.1429-.1263a4.607,4.607,0,0,1,.4042-.29,1.5654,1.5654,0,0,0-1.58-2.7029,9.4709,9.4709,0,0,0-3.7173,4.6343,7.6911,7.6911,0,0,0-.38,3.41,6.2576,6.2576,0,0,0,.1653.9952,1.5655,1.5655,0,1,0,3.0184-.8321Z"/><path class="cls-4" d="M879.3378,657.6944s-1.2431-4.24,3.2127-7.2724"/><path d="M880.847,657.2783c-.0182-.0628-.032-.127-.0453-.191s-.0244-.1291-.0358-.1938c-.07-.3967.0453.4592.0113.0805a7.2794,7.2794,0,0,1-.0332-.7456q.0027-.2078.0183-.415c.0064-.0845.0171-.1687.024-.2532.0212-.2592-.0816.4676-.01.0851a7.4812,7.4812,0,0,1,.2718-1.071c.0347-.1.0825-.199.1124-.3-.1391.4716-.05.1169.01-.0076q.1326-.2773.29-.5416.0945-.1584.1973-.3115c.0458-.0682.2152-.2346.2218-.3117q-.2187.28-.0616.0834.0642-.0784.13-.1551.102-.1178.2086-.2316a8.2649,8.2649,0,0,1,.6357-.6086c.0564-.0487.4485-.3907.1429-.1262a4.574,4.574,0,0,1,.4043-.29,1.5653,1.5653,0,1,0-1.58-2.7028,9.47,9.47,0,0,0-3.7173,4.6343,7.6919,7.6919,0,0,0-.38,3.41,6.2588,6.2588,0,0,0,.1653.9953,1.5655,1.5655,0,0,0,3.0184-.8322Z"/><path class="cls-2" d="M591.6334,785.1607l-23.5782,63.0625-82.4119-33.752s7.6919-25.13,39.3387-15.2091a11.7094,11.7094,0,0,0,14.4912-7.499c2.77-7.7047,5.4166-15.1726,5.4166-15.1726"/><path d="M590.1242,784.7446l-7.9981,21.3919-12.6515,33.8376-2.9286,7.833,1.9253-1.0931-8.2046-3.36-19.7-8.0681-23.7135-9.7119-20.6144-8.4427-6.8257-2.7955a28.5546,28.5546,0,0,0-3.21-1.3148,1.27,1.27,0,0,1-.1436-.0588l1.0931,1.9253a3.0012,3.0012,0,0,1,.1186-.3484c.0556-.1235.0946-.2576.1434-.384.0568-.1472.331-.7946.1076-.2779a27.7629,27.7629,0,0,1,1.6708-3.2586,24.734,24.734,0,0,1,7.6612-8.0873,26.6279,26.6279,0,0,1,15.7413-3.9949,46.1334,46.1334,0,0,1,11.581,2.1145,13.3191,13.3191,0,0,0,11.2573-1.3746,13.8376,13.8376,0,0,0,4.4915-4.7582,48.9162,48.9162,0,0,0,2.9953-7.7452q1.7452-4.881,3.4785-9.7662c.6743-1.9023-2.3489-2.7208-3.0184-.8321q-1.4337,4.0448-2.8781,8.0858c-.8824,2.4713-1.6755,5.001-2.6674,7.43a10.8112,10.8112,0,0,1-3.3257,4.4205,10.0679,10.0679,0,0,1-4.9745,2.0543,14.8751,14.8751,0,0,1-5.87-.9273,47.3624,47.3624,0,0,0-11.53-1.8471c-10.19-.2639-19.6136,4.2568-25.1665,12.8783a24.0119,24.0119,0,0,0-2.8341,5.786,1.6073,1.6073,0,0,0,1.0932,1.9253l8.2045,3.36,19.7,8.0681,23.7135,9.7119,20.6144,8.4427,6.8257,2.7955c1.0558.4324,2.12.9741,3.21,1.3148.0488.0152.0962.0394.1436.0588a1.5921,1.5921,0,0,0,1.9253-1.0931l7.9981-21.3919L590.214,793.41l2.9286-7.833c.7064-1.8893-2.3181-2.7051-3.0184-.8322Z"/><path class="cls-3" d="M539.9927,790.278c-2.6884,7.973-9.0483,10.8532-15.0107,8.9841-31.6468-9.9205-39.3387,15.2091-39.3387,15.2091l82.4119,33.752L577.6608,822.3h0a7.797,7.797,0,0,0,3.9345-9.3522l-.2134-.69c-5.4622-3.2161-10.5584-1.3316-13.74.6672a8.3207,8.3207,0,0,1-8.0261.4613h0a9.375,9.375,0,0,1-4.6293-11.5318l1.2032-3.4782Z"/><path d="M538.4835,789.8619c-1.0868,3.1214-3.0176,6.0588-6.08,7.5192-2.8186,1.344-5.5.7888-8.3574-.0348a41.4153,41.4153,0,0,0-19.0412-1.39,27.6788,27.6788,0,0,0-18.6845,13.37,23.0226,23.0226,0,0,0-2.1859,4.73,1.6073,1.6073,0,0,0,1.0932,1.9253l8.2045,3.36,19.7,8.0681,23.7135,9.7119,20.6144,8.4427,6.8257,2.7955c1.0558.4324,2.12.9741,3.21,1.3148.0488.0152.0962.0394.1436.0588a1.5916,1.5916,0,0,0,1.9253-1.0931l8.4164-22.7137,1.1892-3.2091-.7193.9353a9.3045,9.3045,0,0,0,5.0447-8.9489,10.5922,10.5922,0,0,0-.466-2.4137,2.7954,2.7954,0,0,0-1.6948-1.8377,13.5,13.5,0,0,0-6.5712-1.4776,15.4033,15.4033,0,0,0-5.5736,1.3617c-1.7214.7582-3.2087,2.0124-5.124,2.2536a7.3255,7.3255,0,0,1-7.8569-5.87c-.6293-2.7628.6054-5.3693,1.49-7.9267a1.572,1.572,0,0,0-.7192-1.7675l-16.1971-8.0987c-1.7966-.8983-3.3838,1.8009-1.58,2.7029l16.197,8.0987-.7193-1.7675c-.4764,1.3772-1.0376,2.7508-1.4113,4.16a11.286,11.286,0,0,0,1.1108,8.4458,10.3407,10.3407,0,0,0,6.9211,5.0056,9.9962,9.9962,0,0,0,4.9334-.2781,33.8555,33.8555,0,0,0,3.9413-1.9838,10.9588,10.9588,0,0,1,10.4161.2991l-.7193-.9354a7.0491,7.0491,0,0,1-.1843,5.5662,6.0266,6.0266,0,0,1-1.91,2.1955c-.74.5079-1.247.5986-1.64,1.4832-.6136,1.3823-1.0617,2.865-1.5868,4.2823l-6.305,17.0155-1.7009,4.59,1.9253-1.0931-8.2046-3.36-19.7-8.0681-23.7135-9.7119-20.6144-8.4427-6.8257-2.7955a28.5546,28.5546,0,0,0-3.21-1.3148,1.27,1.27,0,0,1-.1436-.0588l1.0931,1.9253c.1084-.352.2494-.6928.3824-1.0358.1615-.4167-.1237.2621.0864-.2038.0956-.212.19-.4245.2894-.6348q.3591-.76.7656-1.4962a25.1535,25.1535,0,0,1,5.8031-7.2012,24.2172,24.2172,0,0,1,11.4851-5.3645c6.4181-1.1794,12.72.1692,18.89,1.9071a12.7478,12.7478,0,0,0,9.65-1.0458c3.5021-1.9437,5.71-5.421,6.9969-9.1183C542.1656,788.7877,539.1427,787.9683,538.4835,789.8619Z"/><path class="cls-5" d="M651.5317,483.0183,539.4473,773.0738l65.7841,26.7131s71.7648-180.2719,80.3862-209.7695,15.4283-81.1183,15.4283-81.1183"/><path d="M650.0225,482.6022l-3.0041,7.7742-8.1747,21.1545-12.0411,31.1605-14.6843,38-16.141,41.77-16.2936,42.1652-15.19,39.3085-12.79,33.0987-9.2025,23.8144c-1.4554,3.7665-3.0548,7.5092-4.3764,11.3255-.0564.1629-.1246.3226-.1868.4835a1.5985,1.5985,0,0,0,1.0931,1.9253l22.2324,9.028,35.429,14.3867,8.1228,3.2985c.8428.3422,1.6435-.3853,1.9253-1.0932q1.53-3.844,3.0554-7.69,4.0752-10.2684,8.1361-20.5426,5.8492-14.7966,11.6718-29.6037,6.8526-17.4282,13.6623-34.8733,7.087-18.1629,14.1077-36.3515,6.5553-16.9993,13.0081-34.038c3.5093-9.29,6.9911-18.5921,10.3633-27.9333,2.1561-5.9724,4.3422-11.9546,6.1735-18.0369,4.453-14.79,7.2822-30.1181,9.9528-45.3125q3.0456-17.3283,5.4478-34.7656.1479-1.0779.2915-2.1564c.2628-1.991-2.87-1.9717-3.13,0-.0549.4161-.0284.2134-.0227.1714q-.1.74-.202,1.48-.3764,2.7311-.7725,5.4594-1.3347,9.2226-2.84,18.4195c-2.6243,16.0368-5.5143,32.0865-9.5375,47.839-1.8086,7.0813-4.0764,13.9707-6.5136,20.8554-3.0772,8.6925-6.2893,17.3373-9.5272,25.971q-6.1614,16.4295-12.4718,32.8028-6.9493,18.09-13.9869,36.1462-6.927,17.7935-13.9075,35.566-6.1017,15.5425-12.2347,31.0726-4.557,11.541-9.13,23.0754c-1.46,3.6823-3.18,7.3546-4.4156,11.12-.0548.1669-.131.3293-.1961.4927l1.9253-1.0932L583.4151,789.25,547.9862,774.863l-8.1228-3.2984,1.0931,1.9252,3.0041-7.7741,8.1746-21.1545,12.0412-31.1606L578.8607,675.4l16.1409-41.77,16.2937-42.1652,15.19-39.3084,12.79-33.0988,9.2024-23.8144c1.4555-3.7665,3.0548-7.5091,4.3764-11.3254.0565-.163.1247-.3226.1869-.4835.7266-1.88-2.2988-2.6945-3.0184-.8322Z"/><path class="cls-5" d="M683.5826,507.6281l53.927-6.42,13.9624,30.4261c5.3234,14.5249,1.0326,33.6631-2.8126,48.6952L732.2675,644.41c25.6466-14.9975,90.45-42.6092,90.45-42.6092l29.8568,67.1824-73.3352,37.293a98.2248,98.2248,0,0,1-86.7821,1.3267h0c-24.2489-16.7528-35.92-47.6845-29.1918-77.3636L680.689,553.386a83.327,83.327,0,0,0,1.8119-24.7955l-.9533-12.4025"/><path d="M683.5826,509.1932l18.176-2.1639,29.1064-3.465,6.6446-.7911-1.3515-.7751,10.8851,23.72a58.6648,58.6648,0,0,1,4.0076,9.8644c2.372,9.3283,1.3571,19.3228-.3557,28.6727-1.6041,8.7571-3.9824,17.3685-6.1879,25.99l-8.0858,31.61c-1.8572,7.26-3.8659,14.5-5.5756,21.7964-.0268.1146-.0584.2284-.0875.3424a1.5831,1.5831,0,0,0,2.2991,1.7675c13.4209-7.8355,27.6294-14.3906,41.7157-20.9207q20.1015-9.3187,40.4421-18.1119,4.1415-1.7992,8.2926-3.5765l-2.1414-.5615L831.5077,625.41l16.0328,36.0762,3.6827,8.2866.5615-2.1413-16.1783,8.2271L803.7089,692.08l-23.5447,11.9731c-14.0475,7.1436-29.2038,11.3318-45.027,11.436a96.9816,96.9816,0,0,1-31.345-5.0138c-2.6222-.8761-5.2128-1.8561-7.7489-2.9575a21.09,21.09,0,0,1-3.1037-1.48c-.9792-.6345-1.913-1.37-2.83-2.09a70.0314,70.0314,0,0,1-9.9711-9.5822,73.528,73.528,0,0,1-17.0971-51.0782c.4083-8.2344,2.548-16.2258,4.3631-24.2317l7.6763-33.86,6.3958-28.2109c.8381-3.6968,1.6366-7.3853,2.1261-11.1522,1.0315-7.9365.5772-15.7622-.0323-23.6919l-.4576-5.9533c-.1533-1.9957-3.2849-2.0123-3.13,0,.33,4.2938.684,8.5865.9888,12.8822a83.8682,83.8682,0,0,1-1.9324,24.5211l-5.3268,23.4959-8.0241,35.3934c-1.48,6.5262-3.1287,13.039-4.4095,19.6086a77.584,77.584,0,0,0,9.35,54.3531,73.0561,73.0561,0,0,0,18.3193,20.5345,27.5954,27.5954,0,0,0,2.7191,1.9776,31.96,31.96,0,0,0,3.6,1.6111c2.526,1.0746,5.0891,2.0581,7.693,2.928a98.5463,98.5463,0,0,0,15.8458,3.8728,100.9174,100.9174,0,0,0,61.2378-9.7458q8.564-4.3378,17.1143-8.7031l32.4271-16.49L852.192,670.931l1.1726-.5963a1.6033,1.6033,0,0,0,.5614-2.1413l-10.1413-22.82-16.0328-36.0762-3.6827-8.2866a1.6013,1.6013,0,0,0-2.1413-.5615c-7.8325,3.3377-15.6289,6.762-23.4105,10.2163-15.2928,6.7886-30.5335,13.7176-45.5506,21.0992-7.2587,3.568-14.5015,7.214-21.4893,11.2937l2.2992,1.7675,4.7343-18.508,8.3026-32.4569c1.9537-7.6376,4.0343-15.2661,5.7253-22.9667,2.1073-9.596,3.7205-19.62,2.6856-29.4593a35.7809,35.7809,0,0,0-2.4657-10.7318c-.5139-1.1524-1.0528-2.2942-1.579-3.4409L739.16,501.07l-.2993-.6522a1.5062,1.5062,0,0,0-1.3514-.7752l-18.1761,2.1638-29.1063,3.4651-6.6446.7911c-1.9758.2352-2,3.3682,0,3.13Z"/><path class="cls-4" d="M548.3259,842.0018a3.321,3.321,0,0,0-4.2828,2.1653l-1.0528,3.1573-63.3354-26.0456s2.3621-7.7518,6.2009-12.1837l84.1569,34.0168-4.4736,13.5407-16.29-6.7391,1.1364-3.4078A3.5829,3.5829,0,0,0,548.3259,842.0018Z"/><path d="M548.742,840.4926a4.9406,4.9406,0,0,0-6.078,2.9236c-.4612,1.1351-.7955,2.33-1.1829,3.4921l1.9252-1.0931-21.4322-8.8137-34.1222-14.0321-7.7809-3.2,1.0931,1.9253a32.7927,32.7927,0,0,1,5.7984-11.4931l-1.5227.4025,8.385,3.3893,20.0206,8.0924,24.3388,9.838,21.0485,8.5079,6.9106,2.7933a27.8674,27.8674,0,0,0,3.312,1.3387,1.1833,1.1833,0,0,1,.1413.0572l-1.0931-1.9253L564.03,856.2366l1.9253-1.0932-16.2906-6.7392,1.0932,1.9253c.3778-1.1331.8063-2.26,1.1364-3.4077a5.1963,5.1963,0,0,0-2.7783-6.2714,1.6206,1.6206,0,0,0-2.1414.5615,1.5748,1.5748,0,0,0,.5615,2.1414c2.6317,1.1207.8429,4.2264.2033,6.1441a1.605,1.605,0,0,0,1.0932,1.9253l16.2906,6.7391a1.5856,1.5856,0,0,0,1.9252-1.0931l4.4736-13.5408a1.6037,1.6037,0,0,0-1.0931-1.9253l-8.3851-3.3892-20.02-8.0925-24.3389-9.8379-21.0484-8.5079-6.9107-2.7933c-1.0889-.44-2.1878-.9941-3.3119-1.3388-.048-.0147-.0948-.0382-.1414-.0571a1.5126,1.5126,0,0,0-1.5228.4025,36.5746,36.5746,0,0,0-6.6034,12.8743,1.6076,1.6076,0,0,0,1.0931,1.9253l21.4322,8.8136,34.1222,14.0322,7.781,3.2a1.5864,1.5864,0,0,0,1.9253-1.0931c.544-1.6315.9769-4.9842,3.41-4.23C549.8383,844.1091,550.6631,841.0884,548.742,840.4926Z"/><path d="M509.7814,820.4464c.3633.1334-.3542-.1794-.0682-.0309.2483.129.506.2388.7529.3717.3713.2.7329.4179,1.0845.6506.1978.1309.3906.2686.5835.4066.07.05.3973.3068.108.0777q.1713.1356.3394.2753a13.9623,13.9623,0,0,1,4.6822,7.4327,20.9949,20.9949,0,0,1,.3813,7.6421,1.5747,1.5747,0,0,0,1.5651,1.5651,1.6017,1.6017,0,0,0,1.5651-1.5651,20.8111,20.8111,0,0,0-2.5036-13.2357,16.8564,16.8564,0,0,0-5.9445-5.7963,11.47,11.47,0,0,0-1.7135-.8122,1.5792,1.5792,0,0,0-1.9253,1.0931,1.5981,1.5981,0,0,0,1.0931,1.9253Z"/><path d="M612.082,780.6794l-22.3089-9.13-35.2958-14.4452-8.1578-3.3386c-1.8631-.7625-2.6744,2.2645-.8321,3.0184l22.3088,9.13,35.2959,14.4451,8.1577,3.3387c1.8631.7625,2.6744-2.2645.8322-3.0184Z"/><path class="cls-1" d="M657.5856,365.1919l52.8366-.8065c8.0236-.9154,12.5754,2.0955,17.2969,14.0855,0,0,23.22,101.2154,31.0874,141.9078-13.502-12.323-122.46,1.5865-122.46,1.5865l7.58-126.7237"/><path d="M657.5856,366.757l36.41-.5558c5.3117-.0811,10.627-.1111,15.9377-.2433,2.6625-.0662,5.24-.4152,7.7324.8062a11.9993,11.9993,0,0,1,4.417,4.018,29.6154,29.6154,0,0,1,4.127,8.1049c.6875,2.3234,1.0918,4.772,1.63,7.1326q2.1362,9.3657,4.2558,18.7351,6.3663,28.1335,12.578,56.3018c4.0091,18.2328,8,36.4747,11.65,54.7836q.4935,2.4759.9737,4.9546l2.6159-1.5227a16.3815,16.3815,0,0,0-6.9886-3.2493,67.7818,67.7818,0,0,0-10.9626-1.6864,245.2929,245.2929,0,0,0-30.0222-.3647c-11.226.3928-22.4385,1.1524-33.6314,2.0877q-14.15,1.1826-28.266,2.7428-4.5776.5023-9.1507,1.0437a30.4546,30.4546,0,0,0-4.3563.53,1.4118,1.4118,0,0,1-.1892.024l1.5651,1.5651.7561-12.641,1.8079-30.2248,2.1865-36.5534,1.8969-31.7124.6214-10.39c.099-1.6545.2944-3.3351.2987-4.9933,0-.0694.0084-.14.0125-.2088.12-2.0122-3.01-2.0051-3.13,0l-.7562,12.641-1.8079,30.2248-2.1864,36.5534-1.8969,31.7123-.6215,10.39c-.0989,1.6545-.2943,3.3351-.2986,4.9933,0,.0693-.0084.1395-.0125.2088a1.5674,1.5674,0,0,0,1.5651,1.5651c3.6231-.4623,7.2527-.8779,10.8823-1.2856q13.2283-1.4856,26.4894-2.6607c11.0769-.9774,22.1717-1.7893,33.2812-2.285a303.23,303.23,0,0,1,30.8381-.1288,88.7941,88.7941,0,0,1,11.4922,1.2624,36.9849,36.9849,0,0,1,4.4377,1.0888q.4725.1515.9386.3222c.13.048.2585.0986.3878.1476.4273.1619.027.0026.2074.0822a13.0818,13.0818,0,0,1,1.4858.756c.214.1291.4195.2687.6247.4111.2631.1825-.0185-.0174-.0012-.0035.0992.08.195.1632.29.2484a1.5788,1.5788,0,0,0,2.6159-1.5228c-1.54-7.96-3.1894-15.8979-4.8632-23.83q-3.0865-14.6274-6.2952-29.2288-3.3388-15.2636-6.7457-30.5123-3.0747-13.7829-6.187-27.5573-2.3467-10.3915-4.7124-20.7787c-.7376-3.2383-1.367-6.5278-2.2236-9.7375a21.3778,21.3778,0,0,0-1.1937-2.9909,32.9363,32.9363,0,0,0-4.2422-7.37,13.57,13.57,0,0,0-10.9218-5.2888c-1.6322-.0006-3.2794.1642-4.9172.1892l-8.1976.1251-24.0378.367-17.3.264-.8929.0137c-2.0124.0307-2.0183,3.161,0,3.13Z"/><path class="cls-4" d="M666.54,492.6482c18.1227,0,32.814-15.4493,32.814-34.5072s-14.6913-34.5072-32.814-34.5072a32.1134,32.1134,0,0,0-25.0427,12.22l-2.4586,41.103A32.4157,32.4157,0,0,0,666.54,492.6482Z"/><path d="M657.5856,366.757l36.41-.5558c5.3117-.0811,10.627-.1111,15.9377-.2433,2.6625-.0662,5.24-.4152,7.7324.8062a11.9993,11.9993,0,0,1,4.417,4.018,29.6154,29.6154,0,0,1,4.127,8.1049c.6875,2.3234,1.0918,4.772,1.63,7.1326q2.1362,9.3657,4.2558,18.7351,6.3663,28.1335,12.578,56.3018c4.0091,18.2328,8,36.4747,11.65,54.7836q.4935,2.4759.9737,4.9546l2.6159-1.5227a16.3815,16.3815,0,0,0-6.9886-3.2493,67.7818,67.7818,0,0,0-10.9626-1.6864,245.2929,245.2929,0,0,0-30.0222-.3647c-11.226.3928-22.4385,1.1524-33.6314,2.0877q-14.15,1.1826-28.266,2.7428-4.5776.5023-9.1507,1.0437a30.4546,30.4546,0,0,0-4.3563.53,1.4118,1.4118,0,0,1-.1892.024l1.5651,1.5651.7561-12.641,1.8079-30.2248,2.1865-36.5534,1.8969-31.7124.6214-10.39c.099-1.6545.2944-3.3351.2987-4.9933,0-.0694.0084-.14.0125-.2088.12-2.0122-3.01-2.0051-3.13,0l-.7562,12.641-1.8079,30.2248-2.1864,36.5534-1.8969,31.7123-.6215,10.39c-.0989,1.6545-.2943,3.3351-.2986,4.9933,0,.0693-.0084.1395-.0125.2088a1.5674,1.5674,0,0,0,1.5651,1.5651c3.6231-.4623,7.2527-.8779,10.8823-1.2856q13.2283-1.4856,26.4894-2.6607c11.0769-.9774,22.1717-1.7893,33.2812-2.285a303.23,303.23,0,0,1,30.8381-.1288,88.7941,88.7941,0,0,1,11.4922,1.2624,36.9849,36.9849,0,0,1,4.4377,1.0888q.4725.1515.9386.3222c.13.048.2585.0986.3878.1476.4273.1619.027.0026.2074.0822a13.0818,13.0818,0,0,1,1.4858.756c.214.1291.4195.2687.6247.4111.2631.1825-.0185-.0174-.0012-.0035.0992.08.195.1632.29.2484a1.5788,1.5788,0,0,0,2.6159-1.5228c-1.54-7.96-3.1894-15.8979-4.8632-23.83q-3.0865-14.6274-6.2952-29.2288-3.3388-15.2636-6.7457-30.5123-3.0747-13.7829-6.187-27.5573-2.3467-10.3915-4.7124-20.7787c-.7376-3.2383-1.367-6.5278-2.2236-9.7375a21.3778,21.3778,0,0,0-1.1937-2.9909,32.9363,32.9363,0,0,0-4.2422-7.37,13.57,13.57,0,0,0-10.9218-5.2888c-1.6322-.0006-3.2794.1642-4.9172.1892l-8.1976.1251-24.0378.367-17.3.264-.8929.0137c-2.0124.0307-2.0183,3.161,0,3.13Z"/><path d="M672.3229,594.61c-1.6956-4.034-3.6953-8.0762-4.878-12.298a33.2037,33.2037,0,0,1-.8393-14.1664c.177-1.097.3818-2.19.5741-3.2843l2.4969-14.21A97.5146,97.5146,0,0,0,671.54,537.11c.2174-6.439-1.1341-12.675-2.3012-18.9613-.3673-1.978-3.3847-1.14-3.0185.8321.9367,5.045,2.0795,10.0855,2.2035,15.2337a74.3359,74.3359,0,0,1-1.6148,14.7465L664.2842,563.33c-.2052,1.1679-.4159,2.3351-.6157,3.504a37.7657,37.7657,0,0,0-.0327,12.7928c.9461,5.537,3.5071,10.6731,5.6687,15.8155a1.62,1.62,0,0,0,1.9253,1.0932,1.5736,1.5736,0,0,0,1.0931-1.9253Z"/><path class="cls-1" d="M713.5986,435.9387l58.2135-15.523c-1.8938-5.1723-15.8392-24.978-17.3989-31.02-2.8529-11.0519-4.6041-31.2768-5.0907-39.8253l-44.8813,9.8643"/><path d="M714.0146,437.4479l19.6152-5.2305,31.4084-8.3752,7.19-1.9173A1.5762,1.5762,0,0,0,773.3213,420c-1.3354-3.5628-3.607-6.8412-5.588-10.0634-2.7082-4.4048-5.4826-8.7723-8.0607-13.2555-1.0412-1.8107-2.0668-3.6407-2.94-5.54a26.1846,26.1846,0,0,1-1.5495-5.3318c-1.2709-5.9947-2.0641-12.0921-2.7408-18.1787-.6675-6.0043-1.2084-12.0285-1.5551-18.06a1.59,1.59,0,0,0-1.9812-1.5092l-15.1223,3.3236-24.1511,5.3081-5.6079,1.2325c-1.9666.4323-1.1344,3.4507.8321,3.0185L719.98,357.62l24.1511-5.3081,5.6079-1.2325-1.9812-1.5092a271.4306,271.4306,0,0,0,3.9348,34.7027,29.1844,29.1844,0,0,0,4.0433,11.7913c2.458,4.498,5.206,8.8363,7.9015,13.1938,1.4251,2.304,2.854,4.6068,4.2214,6.9457.5423.9277,1.0766,1.8609,1.5777,2.8117.1869.3548.37.7117.5427,1.0737a5.0469,5.0469,0,0,1,.3242.7428l1.0931-1.9253-19.6152,5.2305-31.4084,8.3753-7.19,1.9172a1.5664,1.5664,0,0,0,.8321,3.0184Z"/><path d="M773.1978,420.2822c3.8919-1.111,5.0753-11.4112,4.4009-23.2576l-17.9043,8.782C762.8791,415.4635,769.0731,421.46,773.1978,420.2822Z"/><path d="M773.6139,421.7914c3.3262-1.0551,4.378-5.2114,4.926-8.2356a71.0768,71.0768,0,0,0,.6239-16.5312,1.5867,1.5867,0,0,0-2.3551-1.3515l-15.6682,7.6853-2.236,1.0968a1.5724,1.5724,0,0,0-.7193,1.7675,31.2314,31.2314,0,0,0,7.0016,12.1957c2.1577,2.1712,5.2283,4.2054,8.4271,3.373,1.948-.5069,1.1221-3.5269-.8322-3.0184a3.6425,3.6425,0,0,1-2.4915-.39,11.4728,11.4728,0,0,1-3.2893-2.5926,28.3658,28.3658,0,0,1-5.7972-10.4l-.7193,1.7675,15.6682-7.6852,2.236-1.0968-2.355-1.3514a72.037,72.037,0,0,1-.357,14.767,20.1888,20.1888,0,0,1-1.2306,4.89,7.2411,7.2411,0,0,1-.8007,1.42c-.0985.1208-.5.4984-.4168.4342a1.1145,1.1145,0,0,1-.4468.2373C770.8686,419.38,771.686,422.403,773.6139,421.7914Z"/><line class="cls-4" x1="572.9579" y1="820.4156" x2="577.5617" y2="822.3963"/><path d="M572.168,821.767l4.0357,1.7363.5681.2444a1.7151,1.7151,0,0,0,1.206.1578,1.5963,1.5963,0,0,0,.9354-.7193,1.58,1.58,0,0,0,.1577-1.206,1.5081,1.5081,0,0,0-.7192-.9354l-4.0357-1.7362-.5681-.2444a1.7152,1.7152,0,0,0-1.206-.1578,1.5658,1.5658,0,0,0-1.0932,1.9253,1.5086,1.5086,0,0,0,.7193.9353Z"/><path class="cls-4" d="M533.4162,798.6167s3.5693,2.3664,2.0657,7.719"/><path d="M532.6262,799.9682c.2494.1665-.1443-.1138-.1618-.129.1228.1069.2477.2094.3645.3232.1741.1695.33.3527.4872.5374.1554.1824-.2728-.3778-.07-.0889.0468.0667.0948.1324.14.2q.1372.204.2584.4183c.0878.1552.1652.3147.2432.4749.1755.36-.1032-.2814-.01-.0253.0317.0866.0652.1723.0951.26q.1011.295.1741.5987.0411.1708.0733.3436c.01.0533.0719.4491.029.1531-.0431-.2979.0084.1149.0128.1691q.0158.1972.021.395c.0072.2626.0007.5254-.0178.7874a1.3428,1.3428,0,0,1-.036.3884q.0486-.34.0094-.0723-.0182.1176-.0392.2347c-.0595.3316-.138.6588-.2272.9836a1.5655,1.5655,0,1,0,3.0184.8321c.8483-3.0889.3986-6.6155-2.0343-8.8844a6.0067,6.0067,0,0,0-.7507-.6021,1.5759,1.5759,0,0,0-2.1414.5615,1.6023,1.6023,0,0,0,.5615,2.1414Z"/><path class="cls-4" d="M527.1414,799.656s3.5693,2.3664,2.0657,7.719"/><path d="M526.3514,801.0074c.2494.1665-.1443-.1138-.1618-.129.1228.107.2477.2094.3645.3232.1741.17.33.3527.4872.5374.1554.1824-.2727-.3777-.07-.0889.0468.0667.0947.1324.14.2q.1374.2042.2584.4183c.0878.1552.1652.3147.2432.4749.1755.36-.1032-.2814-.01-.0252.0316.0865.0651.1723.095.26q.1011.295.1741.5988.0411.1707.0733.3436c.01.0533.0719.449.0291.1531-.0432-.2979.0083.1148.0127.1691q.0157.1971.0211.3949c.0071.2626.0006.5254-.0179.7874a1.339,1.339,0,0,1-.036.3884q.0486-.34.01-.0723-.0181.1176-.0392.2347c-.06.3317-.1381.6588-.2273.9836a1.5655,1.5655,0,1,0,3.0184.8322c.8483-3.0889.3986-6.6156-2.0343-8.8845a6.0085,6.0085,0,0,0-.7507-.6021,1.5759,1.5759,0,0,0-2.1414.5615,1.6024,1.6024,0,0,0,.5615,2.1414Z"/><path class="cls-4" d="M521.9452,798.9855s3.5693,2.3664,2.0657,7.719"/><path d="M521.1552,800.3369c.2494.1665-.1444-.1138-.1618-.1289.1228.1069.2477.2093.3645.3232.1741.1695.33.3527.4872.5374.1554.1824-.2728-.3778-.07-.089.0468.0667.0948.1325.14.2q.1372.204.2584.4183c.0878.1552.1652.3147.2432.4748.1755.36-.1032-.2814-.01-.0252.0317.0866.0652.1723.0951.26q.1011.2952.1741.5988.0411.1709.0733.3436c.01.0533.0719.449.029.1531-.0431-.2979.0084.1149.0128.1691q.0158.1971.021.3949c.0072.2626.0007.5255-.0178.7875a1.3421,1.3421,0,0,1-.036.3883q.0486-.34.0094-.0723-.0182.1176-.0392.2348c-.0595.3316-.138.6587-.2272.9835a1.5655,1.5655,0,0,0,3.0184.8322c.8483-3.0889.3986-6.6155-2.0343-8.8844a5.9977,5.9977,0,0,0-.7507-.6021,1.5759,1.5759,0,0,0-2.1414.5615,1.6021,1.6021,0,0,0,.5615,2.1413Z"/><path d="M736.204,622.705l-9.2955,35.0537-1.3257,4.9992a1.5665,1.5665,0,0,0,3.0185.8321l9.2954-35.0536,1.3257-4.9992a1.5665,1.5665,0,0,0-3.0184-.8322Z"/><path class="cls-2" d="M704.4212,359.5457c1.636,15.8578-9.2624,30.1077-24.3421,31.828s-28.63-9.74-30.2663-25.5981Z"/><path d="M702.8561,359.5457c1.0836,11.1408-4.2378,22.3832-14.322,27.6443a25.1682,25.1682,0,0,1-29.4382-4.91,27.9706,27.9706,0,0,1-7.718-16.5048l-1.5651,1.5651,18.51-2.1117,29.349-3.3482,6.7493-.77c1.9786-.2257,2.0014-3.3585,0-3.13l-18.51,2.1117-29.349,3.3482-6.7494.77c-.7677.0876-1.665.6492-1.5651,1.5651,1.3309,12.2024,9.5686,23.1294,21.65,26.3833,11.9991,3.2317,24.6424-2.1821,31.3018-12.4983a31.6306,31.6306,0,0,0,4.7866-20.1149C705.7931,357.5588,702.6609,357.5387,702.8561,359.5457Z"/><polyline class="cls-2" points="692.579 366.234 688.636 330.043 660.448 344.782 661.667 368.678"/><path d="M694.1445,366.2342l-3.4582-31.7372-.4852-4.4536a1.5884,1.5884,0,0,0-2.3551-1.3515L663.1478,341.606l-3.4895,1.8246a1.5388,1.5388,0,0,0-.7752,1.3515l1.0651,20.88.1539,3.0156c.1022,2.0046,3.2331,2.0167,3.13,0l-1.0651-20.88-.1538-3.0156-.7752,1.3514,24.6982-12.9141,3.4895-1.8246-2.3551-1.3514,3.4582,31.7372.4853,4.4536c.2158,1.9811,3.3485,2.0032,3.13,0Z"/><path class="cls-2" d="M690.0088,342.5375c15.619-15.3574,9.22-28.6626,9.2455-38.7754.015-5.8721-8.4093-17.7852-8.4093-17.7852l-46.4358-8.9318L634.89,293.65s-16.8982,68.2226,36.4067,53.2223"/><path d="M691.1155,343.6443c4.65-4.6165,8.4946-10.14,10.0746-16.5753a40.8694,40.8694,0,0,0,.4338-14.6106c-.2486-2.1127-.5561-4.221-.7121-6.3434a26.3105,26.3105,0,0,0-.714-5.958A51.5107,51.5107,0,0,0,693.85,287.66a28.5342,28.5342,0,0,0-1.6531-2.4728,2.32,2.32,0,0,0-1.7281-.8717l-6.6476-1.2787-23.0258-4.4289-15.97-3.0717a1.6185,1.6185,0,0,0-1.7675.7192l-5.44,9.49-3.2787,5.72a9.8972,9.8972,0,0,0-.9759,1.844,30.3491,30.3491,0,0,0-.7313,3.4936c-.4927,2.624-.8836,5.2679-1.1908,7.92a79.2932,79.2932,0,0,0,.1264,21.405c1.1135,7.0851,3.8158,14.4695,9.5176,19.1475,7.3148,6.0014,17.193,6.0593,26.0465,4.23,1.5407-.3182,3.0666-.7,4.5817-1.1233a1.5664,1.5664,0,0,0-.8322-3.0184c-8.4787,2.3665-18.6235,3.712-26.2749-1.3481-5.6-3.7036-8.4-10.26-9.6979-16.8892a72.2194,72.2194,0,0,1-.5287-20.6173c.28-2.84.5539-4.8336,1.0552-7.6876.2571-1.4637.5959-2.9089.8733-4.3675a2.1869,2.1869,0,0,0,.08-.3394c.0009-.0561-.3068.5407-.0144.0961.8822-1.3408,1.6122-2.8123,2.41-4.2041l6.5337-11.3976.4436-.7738-1.7675.7193,15.7356,3.0267,24.943,4.7977,5.7571,1.1074-.9353-.7193c1.4074,1.9941,2.7046,4.0756,3.9235,6.1891,1.7716,3.072,4.0313,6.7635,4.26,10.3967.2208,3.5048.6,6.9559.967,10.4507a36.4534,36.4534,0,0,1-.3981,12.1223c-1.4142,6.06-4.9794,11.1719-9.3441,15.5052a1.566,1.566,0,0,0,2.2134,2.2135Z"/><path d="M654.4442,307.0806c-.2787.2206-.3614.2665-.07.0666.1949-.1339.3967-.2581.6017-.3758.3-.1724.61-.3259.9237-.4716.1854-.086.2331-.0919.0164-.01.1052-.04.209-.0831.3146-.1222q.3373-.1253.6825-.228.371-.11.7494-.1936.1649-.0361.331-.0668c.0456-.0085.4639-.0753.2729-.0488-.1888.0262.2417-.024.291-.0283.1225-.0105.2452-.0191.368-.025.3061-.0149.6131-.0155.9193-.0016a6.6431,6.6431,0,0,1,1.7282.2815,9.135,9.135,0,0,1,1.9362.77,1.6,1.6,0,0,0,2.1414-.5615,1.582,1.582,0,0,0-.5615-2.1414,11.9584,11.9584,0,0,0-8.8877-1.0379,11.4564,11.4564,0,0,0-3.97,1.9807,1.5744,1.5744,0,0,0,0,2.2134,1.6037,1.6037,0,0,0,2.2134,0Z"/><path d="M634.6092,308.1018a4.7251,4.7251,0,0,1,1.199-.4979,12.7714,12.7714,0,0,1,3.9633-.6564,5.0327,5.0327,0,0,1,4.8074,3.4714c.7,2.1312.0295,4.5853-.8128,6.5857a20.4892,20.4892,0,0,1-2.2451,3.9167,4,4,0,0,0-1.0479,2.0808,4.3784,4.3784,0,0,0,.1245,1.5269c.82,2.8849,4.1022,2.7134,6.4611,2.2735,1.9777-.3688,1.14-3.3862-.8322-3.0184a5.4278,5.4278,0,0,1-2.5517.0357c.0211.0078-.167-.1741.01.0223a.1583.1583,0,0,1-.0455-.0681,2.8887,2.8887,0,0,1-.0125-.988l-.4584,1.1067c3.3377-4.2607,6.956-11.25,3.4023-16.4425a8.2407,8.2407,0,0,0-7.3408-3.62,14.2024,14.2024,0,0,0-6.2011,1.5682c-1.7574.985-.1811,3.69,1.58,2.7029Z"/><ellipse cx="637.0526" cy="315.8184" rx="1.9746" ry="2.0765"/><path d="M635.8642,315.9439c-.0044-.098-.0015-.1942.0025-.292.0076-.188-.0289.1252-.0036.01.01-.046.017-.0925.0278-.1384.012-.05.04-.2328.0817-.266-.0488.0387-.06.1221-.0143.035.0294-.0566.057-.1137.0894-.1688.0229-.039.0489-.0761.0723-.1147.074-.1223-.0211.0154-.0263.0279a.7679.7679,0,0,1,.1808-.1983c.022-.0211.09-.1027.12-.1065-.0041,0-.1574.1059-.03.0259.0411-.0258.2347-.1776.2782-.16,0,0-.1852.0651-.0379.0164.0517-.017.1024-.0354.155-.05.0351-.01.0707-.0183.1063-.0259.0289-.0062.1814-.0057.06-.0127-.1314-.0075.0452.0007.0636,0,.0371-.0013.0743-.0015.1114-.0006.0268.0007.1453-.0076.1645.0113l-.1-.0127q.0533.0091.1059.0214c.0405.0094.2335.0417.2558.0788-.0158-.0263-.1378-.0686-.0406-.0149.0467.0257.0945.0484.14.0757.0305.018.0605.037.09.0567.0236.0158.1248.121.0494.0335-.081-.0939.029.03.0426.0426q.0588.0548.1132.1142l.0358.04q.0809.0977-.0211-.0322a.4313.4313,0,0,1,.0623.089c.0508.0767.092.1568.1358.2376.07.13-.0039-.0258-.0119-.0347a.5269.5269,0,0,1,.0555.1589q.0165.0541.03.1093c.0054.0217.0507.2488.0288.1222-.0227-.1308.0031.0581.0039.0711.0022.0392.0035.0785.0036.1178,0,.0583-.0051.116-.0061.1742-.0012.0685.0291.0961.0083-.0375a.7965.7965,0,0,1-.0613.2745c-.0129.0443-.031.0875-.0435.1318q-.0309.0822.0276-.059-.022.05-.0468.0992c-.0369.0732-.0819.1409-.1228.2117-.0293.0508-.0595.1526.0114-.0053a.4845.4845,0,0,1-.0874.1021c-.0545.06-.1146.1123-.1725.1683-.129.1249.1424-.0853-.0107.0085-.0456.028-.0891.059-.1356.0858-.0308.0177-.0638.0326-.0943.0509-.1548.0923.162-.0482-.01.007a2.7021,2.7021,0,0,1-.2613.0757.4152.4152,0,0,1-.1086.02c.1331.0347.106-.0132.0132-.0086-.0506.0025-.2615.0309-.304-.0094l.1.0127q-.0533-.0091-.1059-.0214-.0785-.0181-.1551-.043a.5.5,0,0,1-.1007-.0358q.1569.0684.0406.0149-.036-.0173-.0709-.0365a.8157.8157,0,0,1-.2463-.1574l.0749.0561q-.041-.0343-.08-.0707-.0588-.0548-.1132-.1141c-.0047-.0052-.0686-.066-.0706-.0813q.0993.1322.0242.0293-.0235-.0333-.0453-.0678c-.0363-.0564-.1465-.1922-.1447-.2647l.0355.0846q-.0205-.0521-.0383-.1052-.0269-.08-.0474-.163c-.0091-.037-.0152-.0749-.0246-.1118q-.0222-.1314.0019.0359-.0066-.0585-.01-.1174a.7826.7826,0,0,0-1.5652,0,2.8959,2.8959,0,0,0,1.964,2.6141,2.7379,2.7379,0,0,0,3.0426-1.0954,2.9457,2.9457,0,0,0,.0445-3.2241,2.7528,2.7528,0,0,0-3.0066-1.1836,2.8764,2.8764,0,0,0-2.0445,2.889.7826.7826,0,0,0,1.5652,0Z"/><ellipse cx="655.5866" cy="313.8481" rx="1.9746" ry="2.0765"/><path d="M654.3982,313.9736c-.0043-.098-.0015-.1942.0025-.292.0076-.188-.0288.1252-.0036.01.01-.046.017-.0925.0279-.1384.0119-.05.04-.2328.0817-.266-.0489.0388-.06.1221-.0144.035.0295-.0566.057-.1137.0894-.1688.023-.039.0489-.0761.0723-.1147.074-.1222-.0211.0154-.0263.028a.7671.7671,0,0,1,.1809-.1984c.0219-.0211.09-.1027.12-.1065-.004.0005-.1574.1059-.03.0259.0411-.0258.2348-.1776.2782-.16,0,0-.1851.0651-.0379.0164.0517-.017.1025-.0354.155-.05q.0528-.0144.1064-.0259c.0288-.0061.1813-.0057.06-.0127-.1315-.0075.0452.0007.0635,0,.0371-.0012.0743-.0015.1114-.0006.0268.0007.1454-.0076.1646.0113l-.1-.0127q.0534.0092.106.0214c.04.0094.2335.0417.2557.0789-.0158-.0264-.1378-.0687-.04-.015.0466.0257.0945.0484.14.0757.03.018.06.037.09.0567.0236.0158.1249.121.0494.0335-.0809-.0939.029.03.0426.0426.0392.0365.077.0747.1132.1142l.0358.04q.081.0977-.021-.0321a.4314.4314,0,0,1,.0622.0889c.0509.0768.092.1568.1358.2376.07.13-.0039-.0258-.0118-.0347a.53.53,0,0,1,.0554.1589q.0165.0541.03.1093c.0054.0217.0507.2488.0288.1222-.0226-.1308.0032.0581.0039.0711q.0033.0588.0037.1178c0,.0583-.0052.116-.0062.1742-.0012.0685.0292.0961.0083-.0375a.7941.7941,0,0,1-.0612.2745c-.013.0444-.031.0875-.0436.1318q-.0309.0822.0276-.059-.0221.05-.0467.0992c-.0369.0732-.0819.1409-.1228.2117-.0293.0508-.06.1526.0114-.0053a.4875.4875,0,0,1-.0874.1021c-.0545.06-.1147.1123-.1726.1683-.129.1249.1424-.0853-.0106.0085-.0457.028-.0892.059-.1357.0858-.0308.0177-.0637.0327-.0943.0509-.1548.0923.1621-.0482-.01.007a2.7123,2.7123,0,0,1-.2614.0757.4145.4145,0,0,1-.1085.02c.1331.0347.106-.0132.0132-.0086-.0507.0025-.2616.0309-.3041-.0093l.1.0126q-.0532-.0092-.106-.0214-.0783-.0182-.1551-.043a.4915.4915,0,0,1-.1006-.0358q.1568.0684.0405.0149c-.0239-.0115-.0476-.0237-.0709-.0365a.814.814,0,0,1-.2462-.1574l.0748.0561q-.0409-.0342-.08-.0707-.0588-.0548-.1132-.1141c-.0047-.0052-.0686-.066-.0706-.0813q.0992.1321.0241.0293-.0236-.0333-.0453-.0678c-.0363-.0564-.1465-.1922-.1446-.2647l.0354.0846q-.0205-.052-.0383-.1052c-.0179-.0536-.0338-.108-.0473-.1629-.0092-.0371-.0153-.075-.0247-.1119q-.0221-.1314.0019.0359-.0064-.0585-.01-.1174a.7826.7826,0,0,0-1.5651,0,2.8956,2.8956,0,0,0,1.964,2.6141,2.7379,2.7379,0,0,0,3.0426-1.0954,2.9459,2.9459,0,0,0,.0445-3.2241,2.753,2.753,0,0,0-3.0067-1.1836,2.8763,2.8763,0,0,0-2.0444,2.889.7826.7826,0,1,0,1.5651,0Z"/><ellipse cx="654.9144" cy="331.6456" rx="2.5711" ry="2.7038"/><path d="M653.1305,331.8091a1.915,1.915,0,0,1,.2712-1.1879c.0221-.0376.1888-.2792.0969-.1608a2.42,2.42,0,0,1,.2355-.2583c.05-.0483.1025-.0944.1563-.1387-.0266.0219-.1148.0744.0084-.0032a3.9289,3.9289,0,0,1,.3623-.2085c-.0293.0143-.1361.0458.0071-.0024.0672-.0226.1334-.0461.2018-.0649.0458-.0126.0921-.0239.1385-.0338-.0054.0012.2239-.0336.1094-.0207-.1164.0131.1217-.0044.1142-.0042.0483-.0015.0967-.0019.1451-.0007.0715.0018.1432.0063.2142.0147-.1408-.0167.019.0079.07.02a2.5533,2.5533,0,0,1,.3331.1027c-.1333-.0508-.023-.01.0037.0043.0609.0331.123.0631.1827.0986q.06.0353.1172.0738c-.0051-.0033.1738.1315.0882.0621s.0849.0791.0794.074q.0767.0714.1474.1486c.0117.0128.156.191.0562.0583.0283.0376.0552.0767.0811.1158.0662.1.12.2043.1768.3094.07.1293.0218.0447.0084.0113.0271.0678.051.1371.0722.2069.0143.047.0275.0946.0393.1423.0073.0293.0517.2607.0418.1906-.0159-.1117.01.1364.0092.124.0029.051.0046.1023.0048.1534,0,.0759-.0062.151-.008.2268-.0007.0268-.0182.1546.0024.014a2.662,2.662,0,0,1-.08.3574c-.0169.058-.037.1147-.0567.1717q-.03.0781.0121-.02-.0288.0654-.0609.1291a1.7713,1.7713,0,0,1-.7588.8284c-.04.0232-.0828.0428-.1228.0663-.1846.1082.1337-.0356-.07.033a3.0577,3.0577,0,0,1-.34.0986c-.0466.01-.0941.0193-.1414.0258.1542-.0213-.0066-.0046-.0456-.0027a2.38,2.38,0,0,1-.3959-.0121c.1808.0214-.0469-.0145-.07-.02q-.1021-.0237-.202-.056c-.0441-.0143-.0877-.03-.1311-.0466.1559.0593-.0649-.0352-.096-.052a2.3177,2.3177,0,0,1-.3206-.205c.1341.1041-.0414-.0435-.0546-.0559-.0511-.0475-.1-.0972-.1474-.1486-.0316-.0345-.062-.07-.092-.1058.1009.12-.0465-.07-.0645-.0981a2.7512,2.7512,0,0,1-.1883-.3446c.0687.15-.0225-.0681-.0275-.0833-.0234-.07-.0441-.1407-.0617-.2122-.012-.0483-.0205-.0972-.0321-.1456q-.0231-.14-.006-.0161-.0086-.0762-.0129-.1528a.8015.8015,0,0,0-.7826-.7826.7891.7891,0,0,0-.7825.7826,3.5253,3.5253,0,0,0,2.3837,3.1758,3.3252,3.3252,0,0,0,3.6949-1.3177,3.6034,3.6034,0,0,0,.0579-3.9595,3.3422,3.3422,0,0,0-3.648-1.4325,3.5079,3.5079,0,0,0-2.4885,3.5339.7987.7987,0,0,0,.7825.7825A.79.79,0,0,0,653.1305,331.8091Z"/><path d="M709.5286,279.72h0l1.4932,14.1321A51.9248,51.9248,0,0,1,696.929,335.41l-6.9112,7.1186-.009.0093-3.3225-19.3363c2.4375-2.4565,5.4386-11.1707,4.98-15.9386-.6925-7.203-4.5324-8.5069-9.3166-7.9983-1.7422.1852-3.4285,1.6412-4.838,3.7526-3.2484,5.27-1.6733,16.6291-1.6733,16.6291l-5.6115-16.9594c-1.8756-5.6685-8.1-8.5026-13.17-5.7459a6.4831,6.4831,0,0,0-3.4908,4.7142,10.0952,10.0952,0,0,1-.2292-10.5343,14.403,14.403,0,0,0-10.9632,7.3243,10.3149,10.3149,0,0,1,4.07-12.3049c-6.1049,3.745-13.2273,5.8849-18.8235,14.4449-4.5787-7.49,4.5787-18.19,7.1224-18.7249-11.1924,1.605-20.35-10.1649-20.35-10.1649s13.4122,2.3936,19.3323-4.8149c9.6662-11.77,17.7322-13.5965,27.3074-14.1234l2.404.0264a33.872,33.872,0,0,1,27.268,14.6319h0l7.5137,1.1972A13.9918,13.9918,0,0,1,709.5286,279.72Z"/><path d="M708.0194,280.1361c-.1934-.9151-.0017.0969.0232.3326l.2261,2.14.6221,5.8879a102.3759,102.3759,0,0,1,.8589,11.1168,50.4879,50.4879,0,0,1-14.0634,34.83c-2.2583,2.3321-4.5354,4.6465-6.7842,6.9878l2.6159.6907-3.3225-19.3363-.4025,1.5227a15.9839,15.9839,0,0,0,2.921-4.9535,34.8089,34.8089,0,0,0,2.0683-6.6943c.82-4.1372.84-9.3269-2.2428-12.6138-2.4367-2.5983-7.36-3.2993-10.4965-1.6559-4.2832,2.2443-5.6252,7.265-6.0128,11.6964a44.9755,44.9755,0,0,0,.2993,9.9753l3.0184-.8321L673.1224,306.46c-.5153-1.5576-.9744-3.1489-1.5639-4.6809a11.407,11.407,0,0,0-8.8342-7.3423c-4.6617-.6754-9.7009,1.96-10.6668,6.8025l2.8606-.3739a8.5057,8.5057,0,0,1-.2291-8.9544c.5328-.9414-.1216-2.49-1.3515-2.355-5.0009.5477-9.9908,3.4926-12.3147,8.0994l2.8607.3739a8.832,8.832,0,0,1,3.3507-10.5374c1.628-1.1357.1674-3.7654-1.58-2.7028-3.24,1.97-6.7124,3.5322-9.8928,5.6045a32.7335,32.7335,0,0,0-9.4923,9.4018h2.7029c-1.9685-3.3538-.8217-7.3444.9625-10.52a20.796,20.796,0,0,1,2.9638-4.0817,14.6106,14.6106,0,0,1,1.3589-1.2922c.1872-.1437.388-.2642.5847-.3934a2.8959,2.8959,0,0,1,.29-.1544c-.195.0983-.1609.063.0271.0161,1.6634-.4151,1.366-3.3087-.4161-3.0743-7.49.9852-14.7911-4.0109-19.2431-9.7065l-1.5228,2.6159a28.149,28.149,0,0,0,15.3749-1.3158,14.765,14.765,0,0,0,4.6672-3.0149c1.805-1.7681,3.3-3.8357,5.1256-5.6a30.4624,30.4624,0,0,1,10.7038-6.9788,37.001,37.001,0,0,1,20.9834-.97,32.06,32.06,0,0,1,12.2319,6.1651,35.187,35.187,0,0,1,4.8777,4.8592c.9431,1.1434,1.4883,2.4377,3.0238,2.6823,2.6537.4229,5.41.6695,8.0169,1.3345a12.6821,12.6821,0,0,1,9.037,9.7695c.44,1.965,3.4584,1.1334,3.0184-.8321a15.7961,15.7961,0,0,0-11.2232-11.9559c-2.8265-.7209-5.8154-.9836-8.6935-1.4422l.9354.7193a36.6571,36.6571,0,0,0-16.1444-12.913,37.2589,37.2589,0,0,0-17.1923-2.3608,33.8338,33.8338,0,0,0-16.5849,5.4356,44.5872,44.5872,0,0,0-8.42,7.6867,17.379,17.379,0,0,1-3.31,3.3309,13.8773,13.8773,0,0,1-3.5764,1.6916,25.2238,25.2238,0,0,1-8.2229,1.0041q-1.4883-.0375-2.97-.2008c-.1471-.0165-.2939-.0346-.4408-.0527-.0268-.0033.27.0394-.0571-.0089-.1095-.0162-.219-.0328-.328-.052a1.58,1.58,0,0,0-1.5228,2.6159c4.9022,6.2716,13.2426,11.7037,21.4565,10.6233l-.4161-3.0743a8.08,8.08,0,0,0-3.48,2.4587,23.9062,23.9062,0,0,0-3.7588,5.1451c-2.2437,4.1223-3.32,9.1595-.8189,13.42a1.5838,1.5838,0,0,0,2.7029,0,29.3157,29.3157,0,0,1,8.95-8.65c3.0184-1.8954,6.268-3.3821,9.312-5.2332l-1.58-2.7028a12.0117,12.0117,0,0,0-5.4567,8.952,11.5952,11.5952,0,0,0,.6675,5.12c.4537,1.1314,2.1931,1.6972,2.8606.3739a12.6107,12.6107,0,0,1,9.6118-6.5491l-1.3514-2.3551a11.6424,11.6424,0,0,0,.2291,12.1142c.6976,1.0145,2.577,1.0479,2.8607-.3739.7088-3.5532,4.5216-5.2658,7.8809-4.413a8.4089,8.4089,0,0,1,5.8112,5.596c1.3684,4.059,2.6913,8.1339,4.0369,12.2005l1.5246,4.6077a1.5666,1.5666,0,0,0,3.0184-.8321c.1007.7352.0251.2011.0051.0083-.039-.3744-.0818-.7482-.1159-1.1232q-.1535-1.6836-.1979-3.3751a27.6635,27.6635,0,0,1,.8786-8.7667,8.942,8.942,0,0,1,2.4273-3.9474,5.0433,5.0433,0,0,1,4.0091-1.29,5.0967,5.0967,0,0,1,5.07,3.4131c1.1145,2.9831.7537,6.1729.0014,9.1886-.6965,2.7923-1.6487,5.9771-3.4388,8.292a2.5232,2.5232,0,0,0-.7711,2.2135c.0829.5143.1764,1.0271.2647,1.5405l1.0428,6.0689L688.5,342.9536a1.576,1.576,0,0,0,2.6159.6907c2.1394-2.2275,4.3029-4.4322,6.4543-6.6481A53.4907,53.4907,0,0,0,707.6217,322.71a54.5575,54.5575,0,0,0,5.1578-20.0312,76.3817,76.3817,0,0,0-.6109-12.7858l-.7144-6.7613a37.9663,37.9663,0,0,0-.4164-3.8275C710.6216,277.3342,707.6034,278.1678,708.0194,280.1361Z"/><path d="M687.2435,303.7a4.6284,4.6284,0,0,0-2.6257.0788,7.3,7.3,0,0,0-4.2132,4.1244,20.5,20.5,0,0,0-1.5649,5.7113,1.61,1.61,0,0,0,1.0931,1.9253,1.5823,1.5823,0,0,0,1.9253-1.0932,20.7915,20.7915,0,0,1,1.1539-4.74c.017-.043.109-.2.096-.237.0068.0191-.1582.3529-.04.1014.0537-.1144.1049-.23.16-.3436.1275-.2612.2656-.5173.4167-.7657.1217-.2.2582-.3884.39-.5819.1169-.1719-.2574.3053-.0241.0344.0809-.0939.16-.1883.2449-.2788a5.3792,5.3792,0,0,1,.4026-.3893c.1556-.1352.3206-.1553-.0713.0449a2.4117,2.4117,0,0,0,.2215-.1583,4.2112,4.2112,0,0,1,.3923-.2332c.063-.033.1291-.06.1917-.0937.23-.1221-.4615.1621-.1037.0465.23-.0744.4561-.1273.6917-.18.1872-.0422-.5334.0476-.2089.0295.0435-.0024.0868-.0076.13-.01q.1476-.0087.2956-.0046c.0826.0024.1644.0124.2468.0165.2674.0134-.5394-.104-.1938-.0231.0538.0126.1084.0216.1613.0382a1.579,1.579,0,0,0,1.9252-1.0931,1.5991,1.5991,0,0,0-1.0931-1.9253Z"/><path class="cls-2" d="M446.2445,436.9063l-20.38-11.85a32.3059,32.3059,0,0,1-7.6684-6.2163h0c-3.6971-4.07-6.193-12.0592-10.8622-13.9306-4.9794-1.9958-17.1507-9.4135-21.3673-12.84h0c-7.6288-4.8708-9.47-15.6673-3.9263-23.0225,4.03-5.3471,8.6737-11.3934,12.8337-16.5239a14.3456,14.3456,0,0,1,21.7942-.88l16.8068,17.75a7.1953,7.1953,0,0,1,1.0944-7.4039h0a6.3763,6.3763,0,0,1,10.16.4213l4.83,6.7118a37.104,37.104,0,0,1,6.1908,14.16l1.2668,6.1279a25.2154,25.2154,0,0,0,11.1319,16.2972l1.5844.9966"/><path d="M447.0345,435.5549l-19.6177-11.4073a34.1488,34.1488,0,0,1-5.9737-4.2664c-2.7268-2.4946-4.4787-5.43-6.3407-8.5834-1.6331-2.7654-3.51-6.01-6.4863-7.5168-2.46-1.2459-4.9813-2.3632-7.4019-3.7311-5.392-3.047-11-6.283-15.7588-10.2795a14.6738,14.6738,0,0,1-3.2684-18.0776A43.5606,43.5606,0,0,1,385.82,366.63q2.2606-2.9723,4.551-5.9219,2.1693-2.7888,4.3763-5.5479a20.41,20.41,0,0,1,3.9667-4.1432,12.94,12.94,0,0,1,16.93,1.8183c5.439,5.6673,10.8026,11.4088,16.2034,17.1127l.5217.5509c1.02,1.0777,3.1991-.0326,2.6159-1.5228a5.6511,5.6511,0,0,1,2.1387-7.116,4.851,4.851,0,0,1,6.0738,1.121c1.806,2.1053,3.3081,4.5531,4.9236,6.8082a37.7224,37.7224,0,0,1,6.25,14.5323c.7951,3.8464,1.4312,7.7077,3.056,11.3162,2.4467,5.4339,6.5546,9.2955,11.5174,12.4171,1.71,1.0756,3.2828-1.6318,1.58-2.7029a30.6178,30.6178,0,0,1-5.3435-3.98,23.7326,23.7326,0,0,1-5.27-7.8223c-1.3983-3.3841-1.8958-7.1129-2.6491-10.6776a41.2987,41.2987,0,0,0-7.16-15.6657l-3.3192-4.6123a10.3041,10.3041,0,0,0-4.0114-3.7644,8.003,8.003,0,0,0-8.72,1.44,8.7769,8.7769,0,0,0-2.0845,9.5382l2.616-1.5227-16.2528-17.1649c-4.1056-4.3359-9.7633-6.5777-15.7216-5.2313a16.6837,16.6837,0,0,0-9.2487,6.0318c-3.1035,3.8428-6.1318,7.7464-9.1307,11.6712-2.5607,3.3513-5.3669,6.5513-6.4183,10.7358a17.951,17.951,0,0,0,.5354,10.5211,17.1456,17.1456,0,0,0,6.5483,8.386c.5687.3758.24.15.1169.0618.109.0782.2134.1686.3194.2516q.4166.3267.8406.6442c.5734.43,1.1574.8467,1.7456,1.2564,1.3822.9629,2.7911,1.8873,4.212,2.7916,3.04,1.9345,6.1361,3.7877,9.302,5.5081,1.3044.7089,2.6214,1.4007,3.9721,2.0179a10.7454,10.7454,0,0,1,3.3508,1.9838c2.5536,2.5093,4.0342,5.9782,5.9372,8.9622a29.7579,29.7579,0,0,0,8.5691,8.5551c3.12,2.1077,6.5106,3.87,9.7617,5.76l11.7158,6.8125.7179.4174a1.5663,1.5663,0,0,0,1.58-2.7028Z"/><path class="cls-4" d="M359.2812,448.3609h0a4.7,4.7,0,0,1-1.0108-6.3426l93.3238-137.6572a4.19,4.19,0,0,1,6.0314-1.063h0a4.7,4.7,0,0,1,1.0108,6.3427L365.3126,447.2979A4.19,4.19,0,0,1,359.2812,448.3609Z"/><path d="M360.0711,447.01c-2.5959-1.9462.1449-5.0777,1.4445-6.9948l6.5378-9.6435,10.1108-14.914,12.54-18.4976,13.8261-20.3943,13.9685-20.6041,12.9069-19.0383L442.2416,320.94l7.5527-11.1406c1.0353-1.5271,2.0018-3.1467,3.1261-4.6111a2.711,2.711,0,0,1,3.8661-.566,3.2107,3.2107,0,0,1,.4706,4.27c-.3014.4717-.6294.9284-.9435,1.3917l-5.4934,8.103-9.3451,13.7845-12.0536,17.78-13.6181,20.0873-14.0391,20.7085-13.3166,19.6426-11.45,16.89-8.4406,12.45L364.27,446.053a2.8287,2.8287,0,0,1-4.1985.9565c-1.6618-1.1472-3.2287,1.5647-1.58,2.7028,2.9284,2.0214,6.431.8954,8.3389-1.8694.4638-.6722.9168-1.3523,1.3751-2.0284l6.3472-9.3625L384.75,421.41l12.7308-18.7786,14.1622-20.89L425.9487,360.64l13.1583-19.4092L450.02,325.1332l7.37-10.87a31.1879,31.1879,0,0,0,3.0806-4.7509,6.2815,6.2815,0,0,0-2.3377-7.76,5.8307,5.8307,0,0,0-7.7866,1.679c-.2806.3864-.5417.7872-.81,1.1824l-5.238,7.7262-9.3809,13.8373-12.28,18.1128-13.877,20.4693-14.3839,21.217-13.533,19.9617L369.2564,423.03l-8.3427,12.306c-1.2867,1.8979-2.593,3.784-3.8607,5.6947a6.3488,6.3488,0,0,0,1.4382,8.6817C360.1036,450.9211,361.6655,448.2048,360.0711,447.01Z"/><path class="cls-2" d="M394.6155,382.9741a115.1216,115.1216,0,0,1,15.3145,13.67c6.8435,8.9607.8416,14.44-7.6465,7.5745-5.03-4.0687-10.0176-7.749-16.4265-12.2977"/><path d="M393.8255,384.3256a130.76,130.76,0,0,1,10.26,8.6359c2.8091,2.6544,6.1666,5.5054,7.1016,9.4289.5,2.0968-.3139,3.6056-2.5577,3.3252a10.4662,10.4662,0,0,1-4.5753-2.1021c-1.7186-1.2308-3.3281-2.6341-5.002-3.9265-4.0626-3.1367-8.22-6.1463-12.4046-9.1179-1.6455-1.1686-3.2107,1.5447-1.58,2.7029,4.29,3.0464,8.5592,6.1257,12.712,9.3572,3.2828,2.5547,6.6449,5.9709,11.0492,6.23a5.13,5.13,0,0,0,5.6358-5.12c.1155-4.3913-3.166-8.0412-6.05-10.9328a129.77,129.77,0,0,0-13.0083-11.1841,1.5757,1.5757,0,0,0-2.1414.5615,1.603,1.603,0,0,0,.5615,2.1414Z"/><path class="cls-2" d="M401.2292,376.0192c6.13,4.6934,8.7011,8.19,13.2795,13.1346,6.8435,8.9607.8416,14.44-7.6465,7.5744-5.03-4.0686-10.0176-7.7489-16.4265-12.2976"/><path d="M400.4392,377.3706a67.1415,67.1415,0,0,1,8.77,8.2445c2.4922,2.7558,5.6615,5.5327,6.5558,9.2853.5,2.0969-.3139,3.6057-2.5577,3.3253a10.4673,10.4673,0,0,1-4.5753-2.1021c-1.7186-1.2308-3.3281-2.6342-5.002-3.9266-4.0626-3.1367-8.22-6.1462-12.4046-9.1178-1.6455-1.1687-3.2107,1.5447-1.58,2.7028,4.2895,3.0464,8.5592,6.1258,12.712,9.3573,3.2829,2.5546,6.6449,5.9709,11.0492,6.23a5.13,5.13,0,0,0,5.6358-5.12c.1151-4.3776-3.1509-7.8571-5.8575-10.8821a83.23,83.23,0,0,0-11.1662-10.7,1.5754,1.5754,0,0,0-2.1414.5615,1.6032,1.6032,0,0,0,.5615,2.1413Z"/><path class="cls-2" d="M405.2991,367.4593a115.1216,115.1216,0,0,1,15.3146,13.67c6.8434,8.9608.8415,14.44-7.6466,7.5745-5.03-4.0687-10.0175-7.749-16.4264-12.2976"/><path d="M404.5092,368.8107a130.7376,130.7376,0,0,1,10.2594,8.636c2.8091,2.6543,6.1667,5.5053,7.1016,9.4288.5,2.0968-.3139,3.6056-2.5576,3.3253a10.4679,10.4679,0,0,1-4.5753-2.1021c-1.7186-1.2308-3.3282-2.6342-5.0021-3.9266-4.0626-3.1367-8.22-6.1462-12.4046-9.1179-1.6455-1.1686-3.2106,1.5447-1.58,2.7029,4.29,3.0464,8.5592,6.1257,12.712,9.3573,3.2829,2.5546,6.645,5.9708,11.0493,6.23a5.13,5.13,0,0,0,5.6358-5.12c.1154-4.3912-3.166-8.0411-6.05-10.9328a129.7683,129.7683,0,0,0-13.0082-11.184,1.5756,1.5756,0,0,0-2.1414.5614,1.6028,1.6028,0,0,0,.5615,2.1414Z"/><path class="cls-2" d="M408.1248,357.6156a141.7191,141.7191,0,0,1,17.0676,14.9533c6.8434,8.9607.8415,14.44-7.6465,7.5745-5.03-4.0687-10.0176-7.749-16.4265-12.2977"/><path d="M407.3348,358.967c3.8721,2.97,7.6668,6.0515,11.2784,9.335,2.9976,2.7253,6.6551,5.6633,7.7651,9.7384.5779,2.1218-.0392,3.8577-2.4074,3.6062a9.8677,9.8677,0,0,1-4.3339-1.8834c-1.7943-1.2275-3.4443-2.6989-5.1647-4.0287-4.1138-3.18-8.3243-6.23-12.563-9.24-1.6455-1.1686-3.2106,1.5447-1.58,2.7029,4.29,3.0464,8.5592,6.1257,12.712,9.3573,3.3047,2.5715,6.7174,6.0463,11.1691,6.2382a5.137,5.137,0,0,0,5.5172-5.3621c-.0574-4.56-3.49-8.19-6.5542-11.1468a164.8758,164.8758,0,0,0-14.2588-12.02,1.5758,1.5758,0,0,0-2.1414.5615,1.6029,1.6029,0,0,0,.5615,2.1414Z"/><path class="cls-2" d="M469.7336,406.7033l-1.5844-.9966A25.2154,25.2154,0,0,1,457.0173,389.41l-1.2668-6.1279a37.104,37.104,0,0,0-6.1908-14.16l-4.83-6.7118a6.3763,6.3763,0,0,0-10.16-.4213h0a7.1953,7.1953,0,0,0-1.0944,7.4039l4.3836,10.3721s-7.5517,13.5838-7.75,28.2126"/><path d="M470.5236,405.3519a28.2086,28.2086,0,0,1-7.0986-5.8992,24.5055,24.5055,0,0,1-4.9011-10.4718c-1.2392-5.825-2.3105-11.5186-5.2083-16.8264A62.6105,62.6105,0,0,0,449,365.6753a51.34,51.34,0,0,0-3.7033-5.0308,8.013,8.013,0,0,0-9.4744-1.6385,8.6876,8.6876,0,0,0-4.2155,9.7176,43.6625,43.6625,0,0,0,2.5158,6.1874l2.385,5.6431v-1.58a63.8431,63.8431,0,0,0-3.9585,8.995,61.8517,61.8517,0,0,0-4.0056,20.0076c-.0376,2.0151,3.0926,2.0152,3.13,0a62.1907,62.1907,0,0,1,6.9442-26.2845c.3572-.7118.9551-1.5144.75-2.3442a16.29,16.29,0,0,0-.9549-2.26l-3.33-7.879c-1.3407-3.1723-.0293-7.538,3.8977-7.9573,3.3-.3524,4.8848,2.6248,6.5233,4.9017a66.5029,66.5029,0,0,1,5.6115,8.5334A45.7283,45.7283,0,0,1,454.8,386.4c.8613,4.1664,1.7938,8.1993,4.0188,11.9025a29.6129,29.6129,0,0,0,10.125,9.7525c1.71,1.0756,3.2828-1.6318,1.58-2.7029Z"/><path class="cls-2" d="M908.9909,521.8367,927.16,533.2129l15.0616-20.7515s7.0192,5.9953,23.5787,11.2781c10.7129,2.2734,12.5824-5.85,2.8829-10.6226-9.3179-4.5845-14.0248-7.618-22.3588-17.7091q-1.1427-1.3836-2.3618-2.7007l-31.478-34.0025-17.6429,9.7971-16.1552,5.7776,10.151,13.5543a26.5776,26.5776,0,0,1,4.1877,15.03"/><path d="M908.2009,523.1881l15.9,9.9555,2.2692,1.4208a1.603,1.603,0,0,0,2.1413-.5615l13.1833-18.1637,1.8783-2.5878-2.4582.3167a38.3534,38.3534,0,0,0,6.2267,4.0878,83.4213,83.4213,0,0,0,8.0351,3.89q2.5541,1.0836,5.1577,2.0431a32.2351,32.2351,0,0,0,6.0037,1.8706c2.6026.4035,5.6436.4449,7.8791-1.17a5.0878,5.0878,0,0,0,1.9555-5.5062c-.6767-2.6136-2.8881-4.6093-5.0841-6.0031-2.673-1.6966-5.67-2.8894-8.4063-4.4933a55.8426,55.8426,0,0,1-14.1266-12.4057c-1.8669-2.1916-3.7452-4.3442-5.699-6.4546L926.8856,471.958c-4.3479-4.6966-8.5782-9.5461-13.0641-14.1118-.0789-.08-.1533-.1656-.23-.2483a1.5915,1.5915,0,0,0-1.8966-.2447l-14.2079,7.89L894.61,466.84c-.1776.0986-.3766.186-.5442.3022.418-.29.3234-.133-.0674.0028-2.7544.957-5.4924,1.9643-8.2381,2.9462l-7.49,2.6786a1.5806,1.5806,0,0,0-.9354,2.2991l6.6921,8.9358a46.5868,46.5868,0,0,1,4.8524,7.0528,25.1818,25.1818,0,0,1,2.5805,11.8057c-.0532,2.015,3.077,2.0137,3.13,0a27.0346,27.0346,0,0,0-4.42-15.8448c-2.315-3.2814-4.8242-6.4416-7.2314-9.6559l-2.9008-3.8734-.9354,2.2991,15.2271-5.4457a24.5655,24.5655,0,0,0,3.6633-1.8009l8.82-4.898,6.4611-3.5879-1.8966-.2447,10.2584,11.0812,16.707,18.0468q2.157,2.33,4.3139,4.66c3.6919,3.9942,6.9459,8.3313,11.0545,11.9331,4.3888,3.8475,9.3905,6.45,14.5355,9.1143,1.9862,1.0286,4.632,2.6779,5.1325,5.0676a1.8182,1.8182,0,0,1-.3165,1.6192,3.7171,3.7171,0,0,1-2.0023,1.0523c-3.294.773-6.6653-.7043-9.6945-1.8156a93.3213,93.3213,0,0,1-9.1643-3.8987,66.8135,66.8135,0,0,1-5.8943-3.2587c-.6208-.3886-1.2339-.79-1.8345-1.209q-.31-.2166-.6157-.44c-.1267-.0931-.6747-.5165-.208-.1509-.1081-.0847-.2167-.1692-.3213-.2582a1.5979,1.5979,0,0,0-2.4582.3168l-13.1832,18.1636-1.8783,2.5879,2.1414-.5615-15.9-9.9555-2.2692-1.4207c-1.7123-1.0721-3.2853,1.6351-1.58,2.7028Z"/><path class="cls-2" d="M932.5875,520.2071s13.7281,12.3717,29.1651,20.5951c10.1755,4.1931,13.3567-3.4666,4.5914-9.9358s-12.4833-8.87-24.722-22.6382"/><path d="M931.4808,521.3138c3.0429,2.7387,6.2688,5.2876,9.52,7.7721,3.2624,2.4933,6.6046,4.8842,10.0365,7.1392q2.8067,1.8441,5.6982,3.5548a31.3149,31.3149,0,0,0,5.9443,3.03c2.7166.8947,6.33,1.3642,8.6705-.6872,2.0311-1.78,1.9433-4.5838.8982-6.8721-1.46-3.1958-4.4153-5.2222-7.1539-7.2368-2.014-1.4815-4.03-2.9624-5.9743-4.535-6.0146-4.8642-11.26-10.5918-16.3912-16.3569-1.342-1.5079-3.5494.7123-2.2134,2.2134a157.63,157.63,0,0,0,14.0461,14.3909c1.8038,1.5685,3.68,3.0492,5.5865,4.4906,2.104,1.5909,4.369,3.0422,6.3594,4.7727,1.493,1.2981,4.1163,3.9612,3.2373,6.1644-.7262,1.8207-3.915,1.3052-5.5053.86a24.1484,24.1484,0,0,1-5.5451-2.7139q-2.7213-1.5907-5.3639-3.3113c-3.1867-2.0681-6.2949-4.2562-9.3349-6.5341-3.5324-2.6469-7.0183-5.399-10.3012-8.3537-1.4938-1.3445-3.7146.8623-2.2134,2.2134Z"/><path class="cls-2" d="M923.146,521.5868s13.9438,20.1788,27.2123,31.8605c9.01,6.5045,13.7562-.2,6.6093-8.5863s-13.2359-16.7284-24.5211-31.95"/><path d="M921.7946,522.3768A196.707,196.707,0,0,0,945.75,551.2985c2.9045,2.8347,6.0777,5.8387,10.3171,6.2817a5.11,5.11,0,0,0,5.8839-4.5465c.4084-3.7462-2.0639-7.1378-4.3449-9.8312q-3.2145-3.7956-6.2761-7.7172c-6.0079-7.6614-11.7342-15.5441-17.5316-23.3644-1.1865-1.6-3.9046-.0412-2.7029,1.58,4.9792,6.7165,9.9213,13.4629,15.0045,20.1015,1.9891,2.5977,4.0016,5.178,6.0638,7.7183,2.09,2.5744,4.7494,5.0662,6.075,8.1429.7222,1.6763,1.2686,4.5845-1.175,4.82-3.54.3418-6.6859-3.051-8.9658-5.268a178.2855,178.2855,0,0,1-15.6278-17.71c-2.75-3.4949-5.4421-7.05-7.9723-10.7087-1.1382-1.6459-3.8526-.0825-2.7028,1.58Z"/><path class="cls-2" d="M878.2056,478.1411l7.3122,6.0437a25.911,25.911,0,0,1,7.2762,18.55l-.1049,6.27-2.1151,24.0449a6.7414,6.7414,0,0,0,5.608,7.3813h0a6.43,6.43,0,0,0,6.7809-4.0347l7.6333-18.4366"/><path d="M877.0989,479.2478l6.7159,5.5509c3.8317,3.167,6.1469,8.2961,7.0335,13.0951a50.36,50.36,0,0,1,.2789,10.9168c-.0689,1.7613-.2966,3.528-.451,5.2834-.5461,6.209-1.1268,12.416-1.6386,18.6279-.3521,4.2743,2.3152,8.5116,6.7284,9.218a7.9136,7.9136,0,0,0,7.387-2.8538,12.4642,12.4642,0,0,0,1.69-3.17l7.2623-17.5407a1.5762,1.5762,0,0,0-1.0931-1.9253,1.6029,1.6029,0,0,0-1.9253,1.0932l-6.4406,15.5558c-1.0337,2.4969-1.8815,5.3964-5.0481,5.7979a4.9934,4.9934,0,0,1-5.1316-3.2449,7.0733,7.0733,0,0,1-.2723-3.232l1.6481-18.7355c.4354-4.95.92-10.0676.2728-15.0111-.745-5.6919-3.3207-11.9172-7.7169-15.7822-2.298-2.02-4.7273-3.9073-7.0861-5.8569-1.5415-1.2741-3.7681.9284-2.2134,2.2134Z"/><path class="cls-2" d="M922.1163,519.3991c10.5907,15.764,17.4095,26.631,24.1727,35.362s1.722,15.193-6.9867,8.2493c-12.73-12.3262-28.2535-37.5922-28.2535-37.5922L903.658,512.556"/><path d="M920.7649,520.1891c6.4361,9.5838,12.6426,19.3347,19.3085,28.7622q1.9017,2.6895,3.8844,5.3207c1.5021,1.982,3.102,3.9631,3.7128,6.4282.3014,1.2163.38,3.0071-.917,3.536-1.6261.6629-3.8035-.6058-5.1157-1.4584a27.9125,27.9125,0,0,1-5.1576-4.971c-1.6794-1.8642-3.295-3.7857-4.8688-5.74-3.1149-3.8672-6.063-7.8674-8.9215-11.9271-3.5362-5.0223-7.0287-10.12-10.2081-15.38-2.5831-4.273-4.9847-8.6651-7.4725-12.9945a1.5663,1.5663,0,0,0-2.7029,1.58c2.4645,4.2888,4.86,8.6258,7.3967,12.8717,3.1193,5.22,6.6012,10.2605,10.0943,15.2326,3.0371,4.323,6.18,8.5755,9.4906,12.6935,1.6087,2.001,3.26,3.9688,4.9788,5.8765a31.2068,31.2068,0,0,0,5.6243,5.3519c3.2695,2.1757,9.1364,3.6927,10.79-1.2355,1.5894-4.7365-2.4175-9.2726-5.0036-12.755-7.8643-10.59-14.8593-21.8268-22.21-32.7724-1.1173-1.6639-3.83-.0988-2.7028,1.58Z"/><path class="cls-2" d="M888.8379,487.8336,788.6056,397.1469l-6.4149,2.0289-22.5465,7.1309c-1.8938-5.1723-3.6713-10.869-5.231-16.9113-2.8529-11.0519-6.4231-23.9428-5.1807-39.47l23.3911-4.0358,16.0132-2.3277c21.6089-2.8253,28.482,1.0158,51.4634,29.1039l77.1307,91.4256"/><path d="M889.9446,486.7269,875.38,473.5489l-32.59-29.4864L808.8326,413.34l-18.6656-16.888c-.1426-.129-.28-.2736-.4325-.3913-1.0307-.7971-1.9818-.2844-3.0708.06l-6.2226,1.968-19.4985,6.1669-1.7145.5423,1.9253,1.0931a225.3222,225.3222,0,0,1-6.5078-21.8663,127.7919,127.7919,0,0,1-3.79-20.5088,84.0049,84.0049,0,0,1-.0578-13.59l-1.1491,1.5092,20.9736-3.6187c5.9-1.018,11.8444-1.7874,17.7693-2.6486,1.5331-.2229,3.3353-.4269,5.18-.5826a54.0116,54.0116,0,0,1,7.1807-.1849,27.4541,27.4541,0,0,1,11.6094,3.0884,50.9009,50.9009,0,0,1,12.05,9.6076c5.1881,5.2689,9.8634,11.0008,14.5856,16.6815,1.8229,2.1929,3.6781,4.36,5.5169,6.5393L857.9482,396.24l17.5973,20.8586,18.007,21.3444,14.6632,17.3807,7.5658,8.968.3427.4062c1.3007,1.5418,3.5053-.6821,2.2135-2.2134l-5.3457-6.3364-13.398-15.881-17.7279-21.0134-18.0875-21.44-14.7654-17.5019q-3.7551-4.4511-7.51-8.9021c-7.0252-8.3558-13.8324-17.2677-22.5979-23.914a32.337,32.337,0,0,0-11.8387-5.8537,42.4836,42.4836,0,0,0-13.6285-.6766c-7.093.61-14.2008,1.7974-21.2279,2.9142-7.0316,1.1175-14.0382,2.422-21.0544,3.6326l-2.3392.4035a1.5878,1.5878,0,0,0-1.1491,1.5093c-1.1445,14.8776,2.27,29.4256,6.25,43.6549q1.86,6.6489,4.218,13.1427a1.5929,1.5929,0,0,0,1.9253,1.0932l22.5521-7.1327,6.4093-2.0271-1.5228-.4025,10.0244,9.07L821.4,428.9261l29.0478,26.2814,24.9456,22.57c4.0525,3.6665,8.0389,7.4268,12.1672,11.0084.0579.05.1138.103.1707.1545,1.4907,1.3487,3.7111-.8584,2.2134-2.2134Z"/><path class="cls-6" d="M542.7431,297.8432a5.91,5.91,0,0,0-.9748-.58l.068-.1L511.57,274.4725a23.6864,23.6864,0,0,1-33.27,4.7809c-10.6114-7.9555-13.3767-23.1709-6.5491-34.6337l-30.2662-22.6909-43.96,64.8434,31.5926,23.6853a23.5169,23.5169,0,0,1,27.6337.5818,26.4654,26.4654,0,0,1,9.5324,27.2821l31.5927,23.6853.0679-.1a6.0913,6.0913,0,0,0,.8388.78c6.6775,5.0062,21.9314-5.4513,34.0707-23.3572S549.4205,302.8493,542.7431,297.8432Z"/><path d="M543.5331,296.4918a8.6773,8.6773,0,0,0-.9748-.58l.5615,2.1414.0679-.1a1.6015,1.6015,0,0,0-.5614-2.1414l-26.5079-19.8732-3.7583-2.8176a1.558,1.558,0,0,0-1.8967.2447c-5.8669,7.5315-15.6591,11.024-24.8569,7.99-8.9338-2.9468-15.14-11.5321-15.92-20.7974a25.59,25.59,0,0,1,3.4163-15.1488,1.61,1.61,0,0,0-.5615-2.1414l-26.5078-19.8732-3.7583-2.8177a1.5888,1.5888,0,0,0-2.1414.5615l-14.885,21.9561-23.6878,34.9406-5.3874,7.9466a1.6016,1.6016,0,0,0,.5615,2.1414l27.6974,20.765,3.8953,2.92a1.5176,1.5176,0,0,0,1.58,0,22.2767,22.2767,0,0,1,21.2226-2.2415,24.03,24.03,0,0,1,13.6035,16.41,25.6935,25.6935,0,0,1,.0409,11.9277,1.6389,1.6389,0,0,0,.7193,1.7675l27.6974,20.765,3.8952,2.92a1.5886,1.5886,0,0,0,2.1414-.5615l.068-.1-2.4582.3167c3.3012,3.4616,8.2346,2.72,12.2314,1.0127,5.6832-2.4273,10.5854-6.7124,14.8378-11.11a97.4012,97.4012,0,0,0,14.7647-20.014c3.66-6.5218,6.8384-13.6346,8.1759-21.0351.8715-4.8222,1.397-11.727-2.9974-15.13-1.5734-1.2186-3.8046.9811-2.2134,2.2134,3.1116,2.41,2.8946,7.28,2.3984,10.8233-.9194,6.5657-3.5373,12.9179-6.5656,18.7668a96.2508,96.2508,0,0,1-13.177,19.3445c-4.0239,4.5672-8.5568,8.9372-13.8725,11.9767a17.8432,17.8432,0,0,1-6.4693,2.4494,5.2962,5.2962,0,0,1-4.9-1.5109,1.5855,1.5855,0,0,0-2.4581.3168l-.068.1,2.1414-.5614L470.9687,339.89l-3.8952-2.92.7192,1.7675a28.6349,28.6349,0,0,0-4.2961-22.9549A25.9089,25.9089,0,0,0,441.71,304.7064a25.6164,25.6164,0,0,0-13.3826,4.4h1.58L402.21,288.3411l-3.8953-2.92.5615,2.1413,14.885-21.956,23.6878-34.9407,5.3874-7.9466-2.1414.5615,26.5078,19.8732,3.7584,2.8177L470.4,243.83a28.6789,28.6789,0,0,0,.4493,29.6371,25.36,25.36,0,0,0,41.8278,2.1123l-1.8966.2447,26.5078,19.8732,3.7584,2.8177-.5615-2.1414-.068.1a1.5756,1.5756,0,0,0,.5615,2.1413,8.6683,8.6683,0,0,1,.9748.58C543.6166,300.34,545.1837,297.6278,543.5331,296.4918Z"/><ellipse cx="418.5981" cy="253.6707" rx="39.1777" ry="15.091" transform="translate(-24.5557 461.4876) rotate(-56.3401)"/><path d="M429.3372,261.9451a85.0242,85.0242,0,0,1-13.906,16.0839c-3.6136,3.18-7.8941,6.4318-12.6875,7.5106-3.0915.6957-5.8395-.131-6.9866-3.2625-1.6548-4.5179-.3174-10.0107,1-14.43a80.1278,80.1278,0,0,1,9.3909-19.8426,89.2672,89.2672,0,0,1,13.8471-17.0762c3.7247-3.5253,8.0623-7.1025,13.0124-8.7243A9.4572,9.4572,0,0,1,437.86,221.7a4.6659,4.6659,0,0,1,3.0994,2.3357c2.1818,3.8125,1.0933,9.2214.0965,13.2093a73.6787,73.6787,0,0,1-8.4069,19.4824c-1.0508,1.7728-2.16,3.5091-3.3122,5.2173-1.13,1.6746,1.5811,3.2429,2.7028,1.58A88.2323,88.2323,0,0,0,443.0133,241.75c1.7007-5.2148,3.2122-11.4573,1.6433-16.8965a8.3841,8.3841,0,0,0-8.6372-6.4078c-5.1818.2605-9.9567,3.4323-13.91,6.5271a79.9519,79.9519,0,0,0-15.1371,16.2512,92.6749,92.6749,0,0,0-11.895,21.8118c-2.0766,5.5654-3.8357,11.8943-2.8805,17.8779.6583,4.1243,3.2858,7.5387,7.627,7.9521,4.7879.4558,9.6268-2.3818,13.356-5.0592a74.137,74.137,0,0,0,15.19-15.21q1.9112-2.4807,3.67-5.0713C433.177,261.8558,430.4659,260.2881,429.3372,261.9451Z"/><path class="cls-4" d="M469.1662,278.4415l10.7795-15.9a4.19,4.19,0,0,1,6.0315-1.063v0a4.7,4.7,0,0,1,1.0108,6.3426l-10.7795,15.9a4.19,4.19,0,0,1-6.0314,1.0629h0A4.7,4.7,0,0,1,469.1662,278.4415Z"/><path d="M470.5177,279.2315l5.39-7.95c1.7828-2.63,3.4367-5.44,5.3887-7.9486,2.0164-2.591,5.58-.26,4.83,2.6481a10.9876,10.9876,0,0,1-1.8,2.9834l-7.324,10.8032c-.7088,1.0456-1.3669,2.1629-2.1428,3.1607a2.6979,2.6979,0,0,1-3.8921.5046c.2215.1744-.1572-.1663-.1565-.1655a3.179,3.179,0,0,1-.4141-.5274,3.1,3.1,0,0,1-.4385-1.1736,3.351,3.351,0,0,1,.56-2.3347c1.0754-1.71-1.632-3.2831-2.7029-1.58-2.1242,3.3784-.6339,8.2453,3.3649,9.34,2.8078.7689,5.1865-.72,6.7108-2.9685l7.8075-11.5165c.8654-1.2765,1.767-2.5357,2.5994-3.8342a6.3165,6.3165,0,0,0-1.8-8.7328c-2.8764-1.8-6.2319-.6018-8.0485,2.0259-1.0009,1.4476-1.9756,2.914-2.9631,4.3706l-7.671,11.3151C466.6814,279.3234,469.3923,280.8914,470.5177,279.2315Z"/><path d="M463.2767,273.4274a11.8847,11.8847,0,0,0,1.3187,8.3948,14.3766,14.3766,0,0,0,6.3213,5.4735,20.93,20.93,0,0,0,7.3506,2.3265,6.9323,6.9323,0,0,0,3.0329-.2294,1.612,1.612,0,0,0,1.0932-1.9253,1.5765,1.5765,0,0,0-1.9253-1.0931,3.37,3.37,0,0,1-.436.114c-.5043.1233.2994.0063-.2166.0275-.2866.0117-.57.0272-.8579.0194-.3236-.0089-.6468-.0345-.9681-.0735.2923.0354-.2379-.0408-.341-.06-.2543-.0463-.5072-.1-.7586-.16a18.3261,18.3261,0,0,1-3.2731-1.1155c-2.2118-.9951-4.5457-2.22-5.9259-4.2559a7.9741,7.9741,0,0,1-1.1143-2.2811,10.4826,10.4826,0,0,1-.2908-1.1861c-.0188-.102-.0879-.6175-.0494-.2819-.0225-.1965-.0409-.3933-.0535-.5907a12.2228,12.2228,0,0,1,.0395-1.88c.037-.4122-.0366.1574-.0067.0375.0181-.073.025-.1516.0378-.2259.0118-.0678.0255-.1356.0416-.2025.4719-1.9575-2.5458-2.7927-3.0184-.8321Z"/><path d="M630.1644,279.72s-10.1749,5.885-16.7886,3.21c1.0175,3.21,14.7536,8.56,22.3848,3.21"/><path d="M629.3744,278.3686a30.89,30.89,0,0,1-5.4127,2.407c-3.2222,1.1012-6.88,1.914-10.17.6452a1.574,1.574,0,0,0-1.9253,1.9253A7.11,7.11,0,0,0,615.3,286.81a23.7673,23.7673,0,0,0,6.2353,2.4111c4.9347,1.1973,10.67,1.2315,15.0151-1.73,1.655-1.1278.0908-3.8414-1.58-2.7028-3.5885,2.4456-8.2363,2.4259-12.3294,1.4793a21.5061,21.5061,0,0,1-5.3831-1.95,11.5046,11.5046,0,0,1-1.6341-1.0407,4.6985,4.6985,0,0,1-.6556-.6406c.2292.2833-.26-.6216-.0834-.1227l-1.9253,1.9253c3.6882,1.4222,7.9412.65,11.5782-.5588a35.1359,35.1359,0,0,0,6.4164-2.8089,1.5663,1.5663,0,0,0-1.58-2.7029Z"/><ellipse class="cls-6" cx="254.01" cy="176.5238" rx="31.5422" ry="33.1697"/><path d="M283.3788,182.8784c-2.5431,12.4854-12.1362,22.8211-24.919,24.9174-12.7254,2.0869-25.143-5.1167-30.8968-16.3864a33.081,33.081,0,0,1,4.4357-36.352c8.3633-9.4462,22.0707-12.91,33.713-7.6465,11.7372,5.3069,18.7665,17.7587,18.2529,30.4922a33.2921,33.2921,0,0,1-.5858,4.9753c-.38,1.9682,2.6367,2.8112,3.0184.8321,2.6861-13.9254-2.84-28.7242-14.8184-36.6361a32.25,32.25,0,0,0-38.2,2.29c-11.0644,9.16-15.1717,25.0244-10.6481,38.5512,4.4554,13.3226,16.7345,23.1909,30.9836,23.3475,14.0581.1544,26.4508-9.3407,31.2223-22.3412a35.8808,35.8808,0,0,0,1.4607-5.2118C286.7978,181.744,283.7812,180.9028,283.3788,182.8784Z"/><path class="cls-7" d="M330.9255,507.0812h0c-7.9078-1.7339-12.9817-9.881-11.3329-18.1969l29.7521-150.0491c14.0084-70.6489-29.0977-139.8632-96.28-154.5945h0C185.8819,169.51,120.0637,214.84,106.0553,285.4887L76.3033,435.5378c-1.6489,8.3159-9.3962,13.6516-17.304,11.9176h0c-13.34-2.9251-24.9444,1.7312-27.726,15.76l-5.8939,26.29c-2.7816,14.0286,10.2066,5.8271,23.5468,8.7523l282.6445,71.0233c13.34,2.9251,15.6914-17.4735,18.473-31.5021h0C352.8252,523.75,344.2658,510.0064,330.9255,507.0812Z"/><path d="M331.3416,505.572c-7.3373-1.6088-11.5259-9.1344-10.2335-16.3031.1714-.9508.3761-1.8968.564-2.8444l3.4763-17.5323,12.101-61.0293,11.2029-56.5q1.173-5.9158,2.346-11.8317a140.098,140.098,0,0,0,2.0957-40.8776c-3.036-30.8013-16.5354-60.3517-38.4457-82.3041A123.8181,123.8181,0,0,0,231.6912,179.97c-30.3681-1.0638-60.2456,9.9128-83.32,29.5469-22.7622,19.3684-38.0131,46.4582-43.85,75.6806q-3.5026,17.5363-6.9563,35.0827L84.7377,384.9727,75.4825,431.65c-.2227,1.1232-.4314,2.25-.6683,3.37-1.3312,6.2963-6.5086,11.3744-13.1931,11.192a45.1309,45.1309,0,0,1-5.0718-.78,33.5469,33.5469,0,0,0-5.6785-.3644,24.7323,24.7323,0,0,0-9.6969,2.1733c-6.37,2.94-9.9433,8.9409-11.4163,15.5865-1.8336,8.2728-3.7074,16.537-5.561,24.8054-.8272,3.69-1.8138,8.8738,2.2181,11.0388,2.2006,1.1816,5.0043.9973,7.4092.8614a90.4312,90.4312,0,0,1,10.4033-.337,44.6752,44.6752,0,0,1,8.3889,1.6023l12.799,3.2162,46.1,11.584L173.4439,531.16l65.1182,16.363,55.74,14.0064,32.845,8.2533c2.4469.6149,5.0193,1.4855,7.567,1.3235,5.965-.3793,9.4224-5.5421,11.4794-10.5988,2.6555-6.528,3.6966-13.6258,5.01-20.5091,1.434-7.5173,1.0777-14.8408-2.7918-21.6337a26.6183,26.6183,0,0,0-17.0695-12.7927c-1.96-.4528-2.7973,2.5645-.8321,3.0184a23.7573,23.7573,0,0,1,16.8093,14.7418c2.8636,7.5244,1.1,14.8949-.3969,22.4886-1.4594,7.4043-4.0328,24.4275-15.1018,21.9088-7.0709-1.609-14.0844-3.5391-21.1168-5.3063l-47.8287-12.0184L200.7335,534.79l-64.0541-16.0956L83.1116,505.2338l-30.6821-7.71a43.7344,43.7344,0,0,0-12.23-1.4978c-3.1443.0957-6.301.56-9.4488.4454-2.1071-.0767-3.8843-.5108-4.1566-2.8624-.3827-3.3038,1.11-7.3282,1.8225-10.5038l3.4606-15.4364c.97-4.3283,1.7158-8.7712,4.3771-12.4559,4.1576-5.7564,11.3281-7.49,18.09-6.91,3.5878.308,6.8694,1.4384,10.5039.77a15.993,15.993,0,0,0,9.1-5.2579c3.4319-3.9879,4.0559-8.8278,5.03-13.7425l3.9981-20.1637,12.3574-62.3228,10.4949-52.9288q.8678-4.3764,1.7355-8.753a133.8628,133.8628,0,0,1,17.4232-44.4285c15.9259-25.6272,40.9581-45.304,70.0031-53.7771a118.2549,118.2549,0,0,1,88.7922,9.595c26.9191,14.5471,47.5837,39.2473,58.2075,67.8484,8.9508,24.0972,10.4723,49.94,5.4885,75.0744l-8.3618,42.1715-12.726,64.181-8.0519,40.6087a21.9268,21.9268,0,0,0-.55,6.3579c.663,7.08,5.6224,13.498,12.7207,15.0544C332.4728,509.0209,333.3115,506.004,331.3416,505.572Z"/><path class="cls-7" d="M270.5184,473.5433c50.7531,16.94,84.1492,35.335,81.69,47.0727,0,0,3.01,21.5941-9.8913,46.1685-47.97-7.5488-316.7268-74.8971-316.7268-74.8971s.837-16.5377,9.5235-44.726c3.2421-10.5211,35.011-13.1069,80.9479-8.0346"/><path d="M270.1023,475.0525c13.3416,4.4608,26.5764,9.3145,39.461,14.9727,9.5167,4.1793,18.99,8.7323,27.69,14.4537,4.66,3.0642,10.7346,7.1556,12.9344,12.3346a6.2777,6.2777,0,0,1,.5827,2.4987,6.7109,6.7109,0,0,1-.0989,1.0957c-.1014,1.2494-.0437-.1042.01.5219a66.7868,66.7868,0,0,1,.2558,6.8842,86.4707,86.4707,0,0,1-9.9716,38.1806l1.7675-.7193c-6.6871-1.055-13.3264-2.43-19.9521-3.8118-9.9334-2.0711-19.8407-4.2671-29.739-6.4994q-18.5329-4.1794-37.0273-8.5279-20.66-4.836-41.2944-9.7808-21.5871-5.1633-43.1561-10.401-20.98-5.09-41.9473-10.23-19.1733-4.6986-38.3382-9.431-15.8514-3.9135-31.6975-7.8483-11.2882-2.8031-22.5737-5.6177c-3.4592-.863-7.0159-2.097-10.545-2.6346-.1527-.0232-.3059-.0766-.4562-.1142l1.1491,1.5092a100.7974,100.7974,0,0,1,1.5063-11.7165c.8006-4.6824,1.7721-9.3352,2.8665-13.9574a193.6671,193.6671,0,0,1,5.1181-18.7085,6.4225,6.4225,0,0,1,1.1293-1.8811,10.1053,10.1053,0,0,1,2.2034-1.8021,27.07,27.07,0,0,1,7.675-3.0132c8.4233-2.1654,17.317-2.5329,25.9727-2.6162a357.7558,357.7558,0,0,1,42.435,2.4995c2,.22,1.984-2.9124,0-3.13a372.28,372.28,0,0,0-39.55-2.5088c-9.3024-.0261-18.8122.2962-27.9273,2.3168-4.95,1.0974-11.2368,2.8624-14.1108,7.4629a21.0557,21.0557,0,0,0-1.8844,5.2747q-1.4605,4.9341-2.752,9.9162c-1.3721,5.31-2.5929,10.66-3.607,16.05a119.6421,119.6421,0,0,0-2.2049,15.8137,1.58,1.58,0,0,0,1.1491,1.5092q3.6265.9087,7.2541,1.8136,9.9127,2.4753,19.8283,4.94,14.91,3.7068,29.8242,7.3944,18.4247,4.556,36.8566,9.0824,20.7188,5.0875,41.448,10.1323,21.4839,5.2264,42.9823,10.3932,21.0523,5.0557,42.125,10.0269,19.0887,4.4959,38.2054,8.8724c10.605,2.4191,21.2188,4.8021,31.8555,7.0784,7.4875,1.6023,14.9857,3.1821,22.5258,4.52q1.908.3385,3.8216.6438a1.6207,1.6207,0,0,0,1.7675-.7192A91.05,91.05,0,0,0,353.94,531.1a64.5115,64.5115,0,0,0-.0456-9.32c-.0251-.2947-.0523-.5893-.0861-.8831-.0084-.0728-.0159-.1458-.0261-.2184-.1759-1.2465.0015.2173-.0362.211.3064.051-.0134-3.1642-.0521-3.3477-1.2051-5.7022-6.8942-10.0647-11.3-13.2989-8.196-6.0161-17.4409-10.631-26.6534-14.858a447.4087,447.4087,0,0,0-44.8058-17.351c-1.9148-.64-2.7361,2.3818-.8321,3.0184Z"/><path d="M234.98,510.3626c-14.092-4.101-29.0933-8.027-44.7171-11.6463-87.5633-20.2839-161.3648-23.277-164.84-6.6854S90.1138,538.5162,177.6771,558.8c16.7219,3.8735,32.9388,7.1143,48.263,9.7107a169.075,169.075,0,0,0,8.158-43.1782Z"/><path d="M235.3962,508.8534q-29.5335-8.5853-59.6506-14.9683c-18.93-4.0361-37.9989-7.4456-57.1847-10.0126a435.6552,435.6552,0,0,0-47.1241-4.0512c-10.9038-.2652-22.1559-.1942-32.8579,2.1726-5.2241,1.1553-12.8791,3.3068-14.5637,9.21-1.6083,5.6363,3.5492,10.89,7.4024,14.19,7.7327,6.6232,17.0259,11.4538,26.1505,15.8383A398.17,398.17,0,0,0,98.78,537.91c17.3248,6.053,34.9267,11.31,52.6663,16.0019q29.7454,7.8672,60.0089,13.59,7.0226,1.3239,14.0684,2.5191a1.6139,1.6139,0,0,0,1.9253-1.0932,169.9594,169.9594,0,0,0,7.29-33.1654c.7515-6.3228,1.0571-12.68,1.4314-19.0328l.3751-6.3662c.1185-2.0123-3.0121-2.0054-3.13,0-.7807,13.2513-1.4069,26.45-4.1051,39.495a165.05,165.05,0,0,1-4.879,18.2373l1.9253-1.0931q-29.6082-5.0258-58.7947-12.2189c-18.2631-4.47-36.393-9.5154-54.2845-15.3-14.8415-4.7988-29.5659-10.07-43.88-16.281-10.4168-4.52-20.8447-9.4557-30.2556-15.8608a49.8261,49.8261,0,0,1-8.587-7.0815,15.8915,15.8915,0,0,1-2.4368-3.159c-.151-.2527-.2951-.51-.4293-.7717-.0821-.16-.4071-.9032-.2611-.536a11.3759,11.3759,0,0,1-.4816-1.5727c-.0264-.11-.0408-.2243-.06-.336-.0062-.037.02.323.003-.0118-.014-.2658-.0331-.528-.0246-.7946.0034-.1076.0141-.2147.0183-.3221.0162-.4205-.05.219,0-.0386.0468-.2445.0944-.4863.1646-.7256.0736-.2506.2522-.6645.1195-.3779a7.3074,7.3074,0,0,1,.3793-.7228c.12-.1978.2519-.3871.3885-.5735-.2607.3557.2741-.3076.3911-.43.1878-.1966.385-.3842.5887-.5642.113-.1.2291-.1956.3452-.2918.1554-.1287-.163.11.1447-.1109a16.3892,16.3892,0,0,1,1.6988-1.0714,20.4906,20.4906,0,0,1,4.0086-1.6807c9.0641-2.9565,19.064-3.2252,28.509-3.29a364.33,364.33,0,0,1,43.7677,2.7365c18.2184,2.0811,36.3345,5.05,54.3248,8.5845q29.8808,5.8707,59.2979,13.86,6.7935,1.8466,13.5538,3.8125C236.5022,512.4352,237.33,509.4155,235.3962,508.8534Z"/><path d="M261.3524,518.59l-.5,8.4881a167.4762,167.4762,0,0,0,3.8791,46.8484c44.7482,4.7544,75.57,2.14,77.786-8.4408C344.9676,553.7887,311.809,535.481,261.3524,518.59Z"/><path d="M259.7873,518.59c-.229,3.8859-.5021,7.7725-.6563,11.6622a167.2112,167.2112,0,0,0,1.3049,28.4054q1.0389,7.9035,2.7863,15.685a1.6065,1.6065,0,0,0,1.5092,1.149c16.2069,1.7142,32.638,2.9219,48.9374,1.9924a94.5755,94.5755,0,0,0,16.6287-2.1775c3.681-.8816,7.503-2.122,10.4933-4.5241a8.3906,8.3906,0,0,0,3.4-7.0254c-.2144-3.1067-2.0362-5.8219-4.0336-8.0965a51.6541,51.6541,0,0,0-10.1107-8.4116,143.46,143.46,0,0,0-15.6526-8.9846c-14.7138-7.4208-30.1623-13.4051-45.71-18.8218q-3.4506-1.2022-6.9158-2.3617c-1.9143-.6417-2.7355,2.38-.8322,3.0184a421.9438,421.9438,0,0,1,46.4468,18.2171,184.9016,184.9016,0,0,1,16.5533,8.7518,72.0935,72.0935,0,0,1,11.4,8.1748,31.3108,31.3108,0,0,1,3.434,3.6232,16.2393,16.2393,0,0,1,1.2243,1.8458c.1606.2841.3081.5738.4493.8679a2.9919,2.9919,0,0,1,.2617.6587,8.556,8.556,0,0,1,.24.8322c.027.1168.049.2343.0734.3516.09.4309.0067-.0759.0268.1628a7.4645,7.4645,0,0,1,.0321.7955c-.0029.1307-.0133.2606-.0211.391-.0234.3862.059-.2354-.0171.1346-.0549.267-.1216.5249-.1983.7864-.0386.1313-.09.26-.1409.3868.1286-.3194-.0232.0462-.0908.1651-.1409.2481-.2826.49-.44.7284-.0675.102-.2218.2978-.0544.0857-.1064.1348-.2186.2652-.3336.3926-1.9727,2.1843-5.1449,3.3923-8.1521,4.266a73.8761,73.8761,0,0,1-14.7793,2.42c-15.0931,1.1985-30.3728.282-45.4188-1.11q-3.3524-.31-6.7-.6665l1.5092,1.1491a175.1248,175.1248,0,0,1-3.6717-49.0039l.3486-5.9166C263.0361,516.5774,259.9055,516.5843,259.7873,518.59Z"/><path class="cls-4" d="M273.813,602.2379a169.8559,169.8559,0,0,1-9.0816-28.3117,167.4762,167.4762,0,0,1-3.8791-46.8484l.5-8.4881c-8.3443-2.7935-17.1644-5.5474-26.3722-8.2271l-.8821,14.97a169.075,169.075,0,0,1-8.158,43.1782,149.6664,149.6664,0,0,1-13.2266,29.21,37.5658,37.5658,0,0,0-5.1469,17.0527c-1.1424,20.1551,13.8256,37.6239,33.006,38.5385,18.8355.8978,34.9438-14.2568,36.1143-34.1222A37.8985,37.8985,0,0,0,273.813,602.2379Z"/><path d="M275.3222,601.8218a168.8435,168.8435,0,0,1-12.8891-75.0106q.2407-4.1109.4844-8.2215a1.5913,1.5913,0,0,0-1.149-1.5092q-13.1015-4.3808-26.3723-8.2271a1.5846,1.5846,0,0,0-1.9812,1.5092c-.6915,11.7372-1.1722,23.4769-3.2521,35.0763a162.3787,162.3787,0,0,1-8.3718,30.0074,145.6721,145.6721,0,0,1-6.22,13.8536c-2.2088,4.3053-4.95,8.3652-6.7758,12.8551-6.1284,15.0705-2.0571,33.2406,10.2631,43.9569a35.13,35.13,0,0,0,41.1827,3.7086c13.872-8.4455,20.5115-25.41,17.215-41.1483a38.6234,38.6234,0,0,0-2.1342-6.85,1.6188,1.6188,0,0,0-1.9253-1.0931,1.5738,1.5738,0,0,0-1.0931,1.9252c6.0885,14.714,2.1457,32.4908-10.5955,42.3759a31.9858,31.9858,0,0,1-38.8362.1777c-12.3583-9.39-16.833-26.3836-11.5887-40.8416,1.5751-4.3422,4.22-8.1925,6.3572-12.2649,2.2662-4.3174,4.3071-8.75,6.15-13.2634a160.7461,160.7461,0,0,0,8.6328-28.6116c2.6045-12.7591,3.2845-25.6563,4.0478-38.6122l.0738-1.2512-1.9812,1.5092q13.2626,3.8643,26.3722,8.2271l-1.149-1.5092c-.4636,7.8692-.9536,15.7174-.7,23.6073a170.3963,170.3963,0,0,0,13.2162,60.4569,1.62,1.62,0,0,0,1.9252,1.0932A1.5737,1.5737,0,0,0,275.3222,601.8218Z"/><line x1="394.6155" y1="187.7008" x2="399.1942" y2="209.6356"/><path d="M393.1063,188.1169l4.0077,19.1994.571,2.7354c.4113,1.9707,3.4294,1.1367,3.0184-.8321L396.6957,190.02l-.571-2.7354c-.4114-1.9708-3.4294-1.1367-3.0184.8321Z"/><line x1="363.582" y1="206.4257" x2="380.5515" y2="222.9526"/><path d="M362.4753,207.5324l14.8835,14.4954,2.086,2.0315c1.444,1.4064,3.66-.8048,2.2134-2.2134l-14.8835-14.4954-2.086-2.0315c-1.444-1.4064-3.66.8048-2.2134,2.2134Z"/><line x1="354.4246" y1="244.9453" x2="376.0316" y2="244.8115"/><path d="M354.4246,246.5105l18.888-.117,2.719-.0169a1.566,1.566,0,0,0,0-3.13l-18.888.117-2.719.0168a1.5661,1.5661,0,0,0,0,3.13Z"/><path class="cls-8" d="M220.6247,521.538s32.3675-1.6643,41.1123,35.0125c6.297-14.3856,15.0173-31.6411,15.0173-31.6411s-45.446-18.8-56.13-18.5758"/></svg>