<svg id="Layer_1" data-name="Layer 1" xmlns="http://www.w3.org/2000/svg" width="1000" height="1000" viewBox="0 0 1000 1000"><defs><style>.cls-1{fill:#fff;}.cls-2{fill:#e2e2e2;}.cls-3{fill:#389b48;}.cls-4{fill:#fc7272;}.cls-5{fill:#ffc41f;}.cls-6{fill:#458dc9;}.cls-7{fill:#a8542a;}.cls-8{fill:#fc7f3a;}.cls-9{stroke:#000;stroke-miterlimit:10;stroke-width:1.4166px;}.cls-10{fill:#ea2f2f;}</style></defs><polyline class="cls-1" points="25 728.68 182.584 295.806 333.824 696.731 367.823 630.858 412.447 702.398"/><path d="M27.049,729.2445,31.2663,717.66l11.4766-31.5256L59.7163,639.51,80.424,582.6268l22.6792-62.2985L125.92,457.6529l21.3425-58.6266,17.9814-49.3938,12.9779-35.65c2.0345-5.5885,4.4682-11.1791,6.148-16.8879.072-.2447.1761-.4837.2634-.7236h-4.0981l4.0443,10.721,11.0064,29.177,16.279,43.1542,19.8621,52.6525,21.7555,57.6719L275.4415,547.96l20.4738,54.2742,17.2986,45.857,12.4338,32.9609c1.96,5.1951,3.894,10.4006,5.8794,15.586.0838.2188.1654.4384.2481.6576.5947,1.5765,2.9756,2.2674,3.8839.5076l11.4367-22.1587,18.3549-35.5626,4.2074-8.1518h-3.67l15.1179,24.2366,23.97,38.4286,5.5355,8.8744c1.4444,2.3156,5.1227.1845,3.67-2.145l-15.1179-24.2365-23.97-38.4286-5.5355-8.8744a2.1448,2.1448,0,0,0-3.67,0l-11.4367,22.1587-18.3549,35.5625-4.2074,8.1518,3.8839.5076-4.0443-10.721-11.0064-29.177-16.279-43.1542-19.862-52.6525L262.926,502.79l-21.9594-58.2124L220.4928,390.303l-17.2985-45.857-12.4338-32.9609c-1.96-5.1951-3.8941-10.4006-5.88-15.586-.0838-.2188-.1654-.4384-.2481-.6576a2.146,2.146,0,0,0-4.0981,0l-4.2172,11.5845L164.841,338.3516l-16.9735,46.6249L127.16,441.8592l-22.6793,62.2985L81.6642,566.8331,60.3217,625.46,42.34,674.8534l-12.978,35.65c-2.0465,5.6216-4.2564,11.2118-6.1479,16.888-.0811.2432-.1757.4827-.2634.7236-.9371,2.5741,3.1683,3.6836,4.098,1.13Z"/><path class="cls-2" d="M228.607,460.5347h0a9.3728,9.3728,0,0,0,11.5578-12.26L182.5839,295.8064,132.1877,434.2419A8.8048,8.8048,0,0,0,145.68,444.3454l15.6784-11.5375,12.4358,22.7485a15.08,15.08,0,0,0,26.762-.5755l7.1125-14.4546,16.9889,17.5746A9.3735,9.3735,0,0,0,228.607,460.5347Z"/><path d="M228.0421,462.5838a11.4783,11.4783,0,0,0,14.0072-15.3092q-1.3624-3.6312-2.74-7.2565l-5.5033-14.5722-7.4706-19.7813L217.6925,382.78l-9.0187-23.8809-8.6-22.7712-7.3852-19.5553-5.3752-14.233c-.8565-2.2679-1.6958-4.5433-2.57-6.8046-.0377-.0977-.0739-.1959-.1109-.2938a2.146,2.146,0,0,0-4.0981,0l-2,5.494L173.23,315.3083l-7.5674,20.7873-8.7871,24.1378-8.9642,24.6241-8.0986,22.2464-6.19,17.0045-3.2395,8.8986a12.0887,12.0887,0,0,0-.67,6.4334,11.1325,11.1325,0,0,0,12.4984,8.6316c3.2775-.5064,5.8464-2.852,8.4288-4.7524l9.8126-7.2209,1.9786-1.456-2.9073-.7623q6.1512,11.2524,12.3027,22.505a17.3125,17.3125,0,0,0,16.2184,9.1076c6.6634-.4439,11.88-4.4266,14.776-10.3129l6.6829-13.5813-3.3374.43,16.0045,16.5564a14.4893,14.4893,0,0,0,5.8715,3.9986c2.5994.87,3.7144-3.2327,1.13-4.0981a9.76,9.76,0,0,1-3.9113-2.8178l-3.8163-3.9479-9.8425-10.1818-2.4306-2.5145a2.1413,2.1413,0,0,0-3.3374.43l-5.7661,11.7182a33.3846,33.3846,0,0,1-2.6246,4.8869,12.8187,12.8187,0,0,1-7.6233,4.9231,13.0754,13.0754,0,0,1-14.2637-6.6314c-2.0306-3.6617-4.0171-7.3484-6.0255-11.0223l-6.3375-11.5929a2.1354,2.1354,0,0,0-2.9073-.7624l-15.1791,11.17a8.16,8.16,0,0,1-3.8991,1.8029,6.8768,6.8768,0,0,1-5.8734-2.3895,6.7892,6.7892,0,0,1-.9834-7.0629c.9234-2.5594,1.8615-5.1136,2.7923-7.67l5.7514-15.7987,7.73-21.2348,8.7673-24.0833,8.772-24.0964,7.7446-21.2739,5.7751-15.8639c.9363-2.572,2.0373-5.14,2.8257-7.762.0344-.1146.0824-.2265.1234-.339h-4.0981l1.7155,4.5424,4.6391,12.2838,6.8016,18.01,8.16,21.6079,8.8423,23.4136,8.7255,23.1044,7.8477,20.78,6.2089,16.44,3.8089,10.0856c.2555.6767.515,1.352.7667,2.03a7.4045,7.4045,0,0,1-2.1876,8.643,7.2448,7.2448,0,0,1-6.6919,1.173C226.5549,457.67,225.4354,461.7712,228.0421,462.5838Z"/><path class="cls-3" d="M812.0851,543.8781H618.5287l10.8662-261.3334c1.1165-26.8517,38.0035-48.0455,64.8784-48.0455h97.5491a64.4451,64.4451,0,0,1,64.0427,57.2552l20.2628,180.4888A64.4451,64.4451,0,0,1,812.0851,543.8781Z"/><path d="M812.0851,541.7532H626.3946c-2.4695,0-5.0765-.24-7.5377,0-.1072.01-.22,0-.3282,0l2.1249,2.1249.486-11.6894,1.2773-30.7188,1.7973-43.2237,2.0459-49.2044,2.0174-48.518,1.7261-41.5136,1.1686-28.1041c.244-5.87.1517-11.7,2.1841-17.3147,3.529-9.7492,11.478-17.5831,19.8909-23.304a80.8362,80.8362,0,0,1,30.6484-12.6889,75.7052,75.7052,0,0,1,13.7775-.9744h63.1027q15.36,0,30.7192,0a62.318,62.318,0,0,1,62.25,55.1747c.1957,1.7025.3824,3.4062.5736,5.1093l3.4184,30.4493,5.17,46.0485,5.4294,48.3617,4.2007,37.4175c.756,6.7336,1.88,13.61,1.8761,20.3982a62.2775,62.2775,0,0,1-62.3279,62.17c-2.7341.009-2.7394,4.2589,0,4.25a66.5746,66.5746,0,0,0,66.5257-63.8664,80.06,80.06,0,0,0-.6142-12.1753l-2.9553-26.3239-5.0493-44.9761-5.5381-49.33-4.5344-40.39c-.6425-5.7229-1.2689-11.448-1.9275-17.1692a66.54,66.54,0,0,0-66.2986-59.3975c-3.1367-.0069-6.2735,0-9.41,0h-84.486a77.65,77.65,0,0,0-45.3075,13.321c-13.2089,8.5821-24.5779,21.414-25.26,37.812l-.7436,17.8837-1.47,35.3592-1.9243,46.2786-2.0806,50.0384-1.9824,47.6776L617.4465,518.8l-.9217,22.1656-.1211,2.9123a2.15,2.15,0,0,0,2.125,2.1249h169.697c7.8286,0,15.7056.2553,23.5312,0,.1092-.0035.219,0,.3282,0C814.82,546.003,814.8243,541.7532,812.0851,541.7532Z"/><path class="cls-4" d="M651.3318,361.21,480.8972,401.2833a98.7521,98.7521,0,0,1-95.7118-29.7447L292.8025,269.8l40.4984-44.818L445.0763,329.1978l140.6571-37.92a135.7561,135.7561,0,0,1,35.3367-4.68h26.4025"/><path d="M650.7669,359.16l-17.5914,4.1363-42,9.8753-50.2469,11.8144L498.71,394.9132c-6.1219,1.4394-12.2407,2.8923-18.3656,4.3183A97.3953,97.3953,0,0,1,405.3189,385.97a100.3137,100.3137,0,0,1-19.3123-16.6839l-7.0085-7.7183L349.956,329.5844l-33.9519-37.39-20.6859-22.7808-1.0131-1.1157v3.0051L329.7294,232.1l5.0741-5.6153h-3.0052l13.4384,12.5295L376.36,268.0329l35.482,33.0822,26.0964,24.3314c1.79,1.6686,3.5447,3.3868,5.3747,5.0112,1.4963,1.3283,3.0146.604,4.7041.1485l28.7348-7.7466,45.7805-12.342L565.4764,298.94q10.3548-2.7915,20.71-5.5831a136.1381,136.1381,0,0,1,35.2756-4.634q10.0485-.0061,20.0969,0h5.914c2.7346,0,2.7391-4.25,0-4.25-17.8992,0-35.9474-.8178-53.6,2.7139-9.1069,1.822-18.0827,4.57-27.0433,6.9857l-46.46,12.5253-49.1731,13.2566-17.6935,4.77c-2.8145.7588-5.8589,1.2861-8.59,2.3158-.1274.048-.269.0725-.4009.1081l2.0675.5464-11.1261-10.3735-26.716-24.9091-32.3123-30.1269-27.8254-25.9435c-4.5268-4.2206-8.9518-8.5964-13.6019-12.682-.0663-.0582-.1292-.12-.1937-.1806a2.1529,2.1529,0,0,0-3.0052,0L296.374,262.6824l-5.074,5.6153a2.1785,2.1785,0,0,0,0,3.0051l15.0266,16.5484,32.6106,35.913,31.86,35.086c5.7869,6.3729,11.3885,13.0737,17.6038,19.0427A101.5531,101.5531,0,0,0,461.5042,405.98c10.4511-.34,20.4053-2.7529,30.4993-5.1263l37.78-8.8832,49.9289-11.74,45.88-10.7876,25.1113-5.9043,1.1929-.28c2.6613-.6258,1.5347-4.7246-1.13-4.0981Z"/><path class="cls-1" d="M651.3318,361.21l-3.8592-74.6112H621.07a135.7644,135.7644,0,0,0-35.3367,4.68l-140.6568,37.92-70.3229-65.5668c-3.8247,9.48-14.9026,23.2306-29.9964,36.2745-4.8523,4.1934-45.703,20.0856-50.4011,23.3553L358.78,384.4813A134.2973,134.2973,0,0,0,480.755,418.1548l173.15-38.9358"/><path d="M653.4568,361.21l-1.3088-25.3027-2.074-40.098-.4764-9.2105a2.1645,2.1645,0,0,0-2.125-2.1249c-17.9,0-35.9471-.8178-53.6,2.7139-9.103,1.8211-18.0751,4.5679-27.0319,6.9825l-46.4535,12.5235-49.3146,13.2948L453.5583,324.71c-2.8355.7644-5.9148,1.29-8.6637,2.3356-.1215.0462-.2571.0693-.383.1033l2.0674.5465-23.8-22.1907L384.89,270.1786l-8.6342-8.05a2.158,2.158,0,0,0-3.5516.9377c-3.177,7.7455-8.8786,14.5983-14.4358,20.7391a167.2521,167.2521,0,0,1-11.9147,11.8589c-1.0222.9235-2.0451,1.8519-3.0994,2.7388-.2247.189-.1429.1074.061-.0408-.1529.1111-.3072.2235-.4677.3235-.6728.4195-1.3512.8223-2.0483,1.2007-10.968,5.9535-22.8476,10.374-34.2838,15.3286-2.8252,1.224-5.65,2.4526-8.4434,3.7474a33.11,33.11,0,0,0-4.7888,2.4636,2.1527,2.1527,0,0,0-.43,3.3373l18.5438,17.6218,32.68,31.0555c7.6606,7.28,15.1528,14.91,23.5118,21.3954a137.3061,137.3061,0,0,0,68.2009,27.8193,142.6274,142.6274,0,0,0,47.9224-2.9895l24.0725-5.4131,40.63-9.1365,45.5757-10.2485L632.9,386.1184l20.6289-4.6388.9408-.2115c2.6673-.6,1.5384-4.6981-1.13-4.0981l-14.3214,3.22-35.1506,7.9043-44.63,10.0359-42.906,9.6481-29.4683,6.6265c-10.403,2.3393-20.781,4.311-31.4967,4.6365a132.1693,132.1693,0,0,1-95.2985-36.467q-3.5676-3.3859-7.1308-6.7763l-30.8266-29.2938-24.8967-23.6587-1.3552-1.2878-.43,3.3374c3.42-2.3324,7.6572-3.7825,11.4265-5.4263,6.3563-2.772,12.7457-5.4676,19.1045-8.2339,5.4666-2.3781,10.9844-4.7236,16.2662-7.4964a24.2008,24.2008,0,0,0,4.82-3.2141,173.47,173.47,0,0,0,12.5683-12.11c6.7363-7.2032,13.41-15.2062,17.1889-24.4187l-3.5516.9377,13.9722,13.0272,28.6175,26.682L439.6691,327.06c1.2839,1.1971,2.52,2.5581,3.9048,3.6408,1.457,1.1394,3.489.1632,5.0876-.2677l23.2627-6.2715,36.77-9.9128,38.6984-10.4328,29.5849-7.9758c7.3164-1.9725,14.5937-4.0392,22.08-5.3017,14.5839-2.46,29.4894-1.8147,44.2231-1.8147h4.1925l-2.1249-2.125,1.3087,25.3026,2.0741,40.0981.4764,9.21c.1407,2.7212,4.3915,2.7379,4.25,0Z"/><path d="M294.5487,323.1024c4.3117,4.99,18.9844-.2644,35.793-11.9614l-17.3328-19.3971C299.3168,306.4775,290.2868,318.171,294.5487,323.1024Z"/><path d="M293.0461,324.605c3.6154,4.0352,10.3993,2.43,14.8189.9769,8.46-2.7815,16.2728-7.56,23.5492-12.6061a2.1629,2.1629,0,0,0,.43-3.3373l-15.1327-16.935-2.2-2.4621a2.1424,2.1424,0,0,0-3.0051,0c-5.9121,6.3688-12.0313,12.897-16.6281,20.3145-2.4936,4.0237-5.3805,9.7872-1.8322,14.0491a2.1412,2.1412,0,0,0,3.0051,0,2.1716,2.1716,0,0,0,0-3.0052c.3365.4042-.39-.834-.2151-.3474-.0634-.1761-.1063-.356-.1625-.5339-.1772-.5609-.033.096-.048-.2536a7.9123,7.9123,0,0,1,.0325-1.2523c-.0545.4716.0237-.105.047-.2051.063-.27.1216-.5406.1965-.8084a24.2772,24.2772,0,0,1,3.3278-6.5656c4.3645-6.6561,9.8835-12.5713,15.2821-18.387h-3.0051l15.1326,16.9349,2.2,2.4622.43-3.3374c-6.7105,4.6537-13.87,9.1318-21.6109,11.8627a25.2006,25.2006,0,0,1-7.5607,1.6859,10.85,10.85,0,0,1-1.7048-.0726c.3762.05-.0854-.02-.2057-.05-.2393-.0592-.4757-.1234-.7137-.1869a2.7839,2.7839,0,0,1-1.4222-.9454C294.2223,319.5585,291.2249,322.5723,293.0461,324.605Z"/><path class="cls-4" d="M363.202,252.8611l-29.9012-27.879L292.8025,269.8l18.2888,20.14,19.25,21.2a175.675,175.675,0,0,0,14.4155-11.2356c15.0938-13.0439,26.1717-26.7942,29.9964-36.2745Z"/><path d="M364.7046,251.3586,338.4932,226.92l-3.69-3.44a2.1528,2.1528,0,0,0-3.0052,0L318.055,238.6888l-21.7211,24.0381-5.034,5.5709a2.1785,2.1785,0,0,0,0,3.0051l16.3653,18.0223q6.7752,7.4612,13.55,14.9225l7.6237,8.3959a2.1367,2.1367,0,0,0,2.5751.3322,182.3026,182.3026,0,0,0,23.3612-19.4071A127.98,127.98,0,0,0,371.5417,273.86a53.9863,53.9863,0,0,0,5.2609-9.6638,2.0687,2.0687,0,0,0-.5465-2.0674l-11.5515-10.77c-1.9988-1.8636-5.0107,1.1352-3.0051,3.0051l11.5515,10.77-.5465-2.0674c-2.4281,5.949-6.6834,11.6247-10.8588,16.6279a163.8354,163.8354,0,0,1-19.711,19.6691q-6.197,5.2724-12.8655,9.9431l2.5751.3323-16.49-18.1606q-6.619-7.29-13.2383-14.5788l-7.81-8.6013v3.0051l13.7433-15.2092,21.7211-24.038,5.034-5.571h-3.0052L358.01,250.9234l3.69,3.44C363.6982,256.2273,366.71,253.2285,364.7046,251.3586Z"/><path class="cls-4" d="M316.7459,296.1051l-23.8081-26.65-15.6593-43.7382S237.32,230.5767,243.8,199.258s53.4578-31.8587,66.4173-9.18c5.2865,9.2514,10.1238,16.7956,13.9986,22.4859a118.0268,118.0268,0,0,0,17.25,20.0676l9.5268,8.8452"/><path d="M318.2485,294.6025l-20.8923-23.3861-2.9158-3.2638.5465.9377-5.3028-14.8113-8.4093-23.488-1.9473-5.4389a2.1644,2.1644,0,0,0-2.049-1.56,48.7794,48.7794,0,0,1-6.8365.26q-1.6295-.0337-3.2553-.1575-.8115-.0625-1.621-.1492c-.2916-.0314-.5828-.0665-.8741-.1017-.0057-.0007-.5841-.0779-.2478-.0316.2915.04-.37-.055-.43-.0642a37.8652,37.8652,0,0,1-7.221-1.7795c-.2957-.107-.5885-.2209-.8815-.3349a3.2743,3.2743,0,0,1-.5338-.2256c-.5983-.2742-1.19-.5588-1.7678-.8745q-.78-.4263-1.5248-.913c-.26-.1709-.5139-.3507-.7685-.53.0145.01-.4748-.3552-.2329-.1694.1781.1368-.3162-.2566-.3678-.3a17.6618,17.6618,0,0,1-1.3046-1.2039q-.2958-.3021-.5764-.6185c-.1251-.1415-.246-.2863-.368-.43-.0579-.0685-.3938-.5076-.1373-.1666a15.83,15.83,0,0,1-1.0616-1.6087q-.2216-.3842-.4214-.78c-.07-.1394-.4555-.9874-.3289-.6832-2.4558-5.9019-1.3266-13.5123,1.3982-19.3,5.8008-12.3218,19.57-17.588,32.58-17.0038a39.4788,39.4788,0,0,1,18.377,5.298,27.551,27.551,0,0,1,7.0592,5.912c2.7593,3.2311,4.9251,7.8358,7.2589,11.6841,5.8256,9.6056,11.9647,19.0986,19.5132,27.4568,4.7407,5.2491,10.05,9.95,15.2276,14.7569L349.49,242.98c2.0023,1.8591,5.0146-1.1393,3.0051-3.0051-3.8331-3.5589-7.732-7.0588-11.4835-10.7042-8.464-8.2245-15.1831-17.7269-21.4307-27.686q-2.4761-3.9473-4.8452-7.96c-1.2928-2.1877-2.46-4.4794-3.9172-6.5644a31.32,31.32,0,0,0-7.2439-7.3115,41.5749,41.5749,0,0,0-19.57-7.28c-14.0348-1.72-29.7172,3.034-37.7709,15.2694a32.1534,32.1534,0,0,0-4.9092,22.1855,19.4141,19.4141,0,0,0,9.8132,13.6967c7.5148,4.2673,17.12,5.0779,25.6009,4.2774.18-.017.36-.034.54-.0557l-2.0491-1.56,12.1846,34.0329,2.7216,7.6017a9.8532,9.8532,0,0,0,1.4494,3.2089c3.7442,4.3671,7.6729,8.5888,11.5052,12.8785l12.1531,13.6039c1.826,2.0438,4.8231-.97,3.0052-3.0052Z"/><path class="cls-4" d="M244.88,197.0981s-1.1929-15.3944,12.903-16.3368,29.7552,2.8374,44.8746,21.1966"/><path d="M247.0047,197.0981a14.5766,14.5766,0,0,1-.01-1.6446c.0233-.6075.0761-1.2123.1461-1.8161.0125-.1084-.058.3492.0134-.0836.0279-.1694.054-.3389.0841-.5079q.1032-.5787.2393-1.1509a12.3683,12.3683,0,0,1,1.8338-4.4326,9.9084,9.9084,0,0,1,3.9211-3.4445,16.3513,16.3513,0,0,1,6.75-1.2385,52.3518,52.3518,0,0,1,7.6426.3133,43.6,43.6,0,0,1,15.5347,4.9514c7.0393,3.7941,12.9209,9.29,17.9952,15.4164a2.1407,2.1407,0,0,0,3.0051,0,2.1721,2.1721,0,0,0,0-3.0051c-8.8383-10.6709-20.4778-19.2439-34.4457-21.3337a54.38,54.38,0,0,0-8.5491-.6154,24.674,24.674,0,0,0-8.3593,1.1066,14.92,14.92,0,0,0-8.9753,9.5767,20.6752,20.6752,0,0,0-1.0757,7.9085c.2034,2.7105,4.4549,2.7326,4.25,0Z"/><path class="cls-4" d="M295.6377,212.2175s-6.48-5.4-19.9792-15.1194c-26.4589-19.4392-57.2376,8.64-57.2376,8.64-11.8795,5.4-1.08,18.3592,12.42,11.34s25.9189-12.96,38.8784,0S262.6228,238.89,249.2,243.5362c-14.0394,4.86-9.72,16.7393,7.02,14.5794a53.5539,53.5539,0,0,1,6.0358-.4345,43.4881,43.4881,0,0,1,30.0961,11.7l24.3947,26.7242"/><path d="M297.14,210.7149c-2.16-1.798-4.3937-3.51-6.6211-5.2227q-3.9749-3.0557-8.0154-6.025a91.0416,91.0416,0,0,0-9.93-6.8616c-11.1762-6.1332-24.234-5.3784-35.7559-.6361a72.3188,72.3188,0,0,0-13,6.9888c-2.3062,1.56-4.3979,3.359-6.6154,5.026-.0737.0554-.1343.1366-.2118.1865-.2534.1633.3466-.2134-.1013-.0485a9.9026,9.9026,0,0,0-3.4641,2.5071,7.7184,7.7184,0,0,0-2.07,6.8335c1.072,5.3186,7.1526,7.8889,12.0554,7.7707,3.6894-.0889,6.8855-1.4942,10.11-3.1538a87.0741,87.0741,0,0,1,9.8209-4.5111c6.2215-2.2781,12.8067-2.9944,18.8059.3246a23.352,23.352,0,0,1,8.229,7.2826,8.4126,8.4126,0,0,1,1.3624,3.3222,5.7908,5.7908,0,0,1-.2354,2.5227,12.0652,12.0652,0,0,1-3.9749,5.1751,37.0177,37.0177,0,0,1-7.2378,4.5159,83.7,83.7,0,0,1-8.3331,3.5816c-2.8367,1.06-5.8232,1.8866-8.3607,3.5946-3.688,2.4823-6.6044,7.1418-3.8466,11.4245,3.0534,4.7415,9.7725,5.5,14.8882,5.094,4.1473-.33,8.167-.8132,12.3358-.4058a40.9753,40.9753,0,0,1,11.0636,2.751,36.6562,36.6562,0,0,1,13.3344,8.7053l6.3038,6.9058,16.4634,18.0355,1.1039,1.2094c1.848,2.0243,4.8467-.9878,3.0052-3.0052l-12.7008-13.9136-8.373-9.1725a52.7914,52.7914,0,0,0-5.0242-5.1342,45.2757,45.2757,0,0,0-32.1577-10.7435c-3.54.2031-7.0662.9613-10.6158.4195a10.0331,10.0331,0,0,1-5.5934-2.44,3.1074,3.1074,0,0,1-.8346-1.5411c-.0571-.2021-.05-.4835-.0284-.1069-.0114-.2009-.0088-.3976-.01-.5982-.0019-.5229-.0657.1508.0225-.2134.057-.2354.1181-.4663.1956-.6962.1246-.37-.1035.1676.0837-.1883.1086-.2063.221-.4085.3465-.6051a4.465,4.465,0,0,1,.8413-1.0078,11.3667,11.3667,0,0,1,2.83-1.9889,79.4217,79.4217,0,0,1,7.9518-3.0865c5.5668-2.2026,11.2432-4.7561,15.7775-8.7518,3.7967-3.3456,6.32-8.2506,4.3539-13.2835a20.7621,20.7621,0,0,0-6.3238-8.0273,26.4944,26.4944,0,0,0-9.623-5.363c-6.59-1.8991-13.4131-.3125-19.5778,2.2639-3.4274,1.4324-6.7144,3.133-10.0213,4.818a13.9227,13.9227,0,0,1-8.4507,1.6207,9.0936,9.0936,0,0,1-3.2-1.1227,5.8147,5.8147,0,0,1-1.0112-.7084c-.1976-.1749-.3823-.3615-.5658-.5508a1.847,1.847,0,0,1-.3466-.4169c-.1186-.1743-.2232-.3556-.3309-.5366a1.3156,1.3156,0,0,1-.168-.3293,6.8621,6.8621,0,0,1-.2007-.6711c-.0061-.0235-.07-.3471-.0323-.1075.04.2528-.02-.3057-.02-.3072.0006-.1986-.0028-.396.0152-.5942-.0363.4007.05-.2045.0834-.3272a2.4744,2.4744,0,0,1,.4908-1.0516c.8636-1.3365,2.7177-1.9166,4.025-3.0172.6069-.511,1.2066-1.0281,1.8277-1.5226.1443-.1149.8354-.6526.3975-.3157q.4772-.3671.96-.7265,1.0494-.78,2.1258-1.5226,2.6384-1.8216,5.4249-3.4156c9.2788-5.2995,20.3722-8.8787,31.0908-6.5358a31.9868,31.9868,0,0,1,8.8679,3.37,97.1236,97.1236,0,0,1,9.7789,6.8084c4.1106,3.0318,8.1531,6.0725,12.1244,9.2549.4965.3978.9929.7959,1.4819,1.203a2.1842,2.1842,0,0,0,3.0051,0,2.1421,2.1421,0,0,0,0-3.0052Z"/><path class="cls-4" d="M708.489,291.6749l-.2219-32.0611c4.8649-1.8881,8.5818-4.5387,10.3855-7.9693,8.8867-16.9026,4.2931-80.5916,4.2931-80.5916l-74.4842-3.9678s-14.5648,61.7555-4.2932,80.5916c3.48,6.3823,12.1354,10.8329,22.4017,13.2741l-2.1473,35.4245L675.5862,321.64"/><path d="M710.6139,291.6749l-.1944-28.0814-.0275-3.98-1.56,2.0491c4.7242-1.8664,9.5222-4.6212,11.86-9.3484a34.34,34.34,0,0,0,2.5261-7.4442A122.2809,122.2809,0,0,0,725.8,223.979a416.1322,416.1322,0,0,0-.1727-43.1906c-.1546-3.2464-.3229-6.4937-.5562-9.7355a2.1823,2.1823,0,0,0-2.125-2.125l-25.2169-1.3433-40.1341-2.1379-9.1332-.4865a2.1409,2.1409,0,0,0-2.0491,1.56c-2.3548,9.9933-4.1551,20.1527-5.5977,30.3137a227.3656,227.3656,0,0,0-2.3844,25.4879c-.2051,7.238-.1071,14.8926,2.0337,21.8755A21.1641,21.1641,0,0,0,647.65,254.845c5.3006,4.1952,11.8444,6.5857,18.3554,8.1548l-1.56-2.049-1.6821,27.7519-.37,6.1093a5.3477,5.3477,0,0,0,.2706,2.8062c1.7812,4.0868,3.6038,8.1559,5.4056,12.2337l5.6826,12.8606a2.14,2.14,0,0,0,2.9073.7623,2.178,2.178,0,0,0,.7623-2.9073l-9.7815-22.137-1.3819-3.1277.29,1.0725,1.88-31.0113.2675-4.4132a2.14,2.14,0,0,0-1.56-2.049c-5.556-1.339-11.1016-3.25-15.8066-6.5729a17.9465,17.9465,0,0,1-4.707-4.6929,16.1616,16.1616,0,0,1-1.0851-1.9532c-.0756-.16-.1481-.3219-.22-.4839-.2425-.5477.1553.4052-.0652-.1609-.1357-.3485-.2678-.6979-.39-1.0514-2.2173-6.4157-2.3308-13.1557-2.218-20.0164.2532-15.404,2.68-30.7558,5.6471-45.8441.6885-3.5014,1.4017-7.0023,2.22-10.4761l-2.049,1.56,25.2169,1.3433,40.1341,2.138,9.1332.4865-2.1249-2.1249c.6167,8.5671.931,17.1659,1.0964,25.7522.1457,7.5622.1389,15.1314-.1551,22.69a152.2547,152.2547,0,0,1-1.9437,20.8374,47.1857,47.1857,0,0,1-2.3,8.7284c-.05.1293-.1029.2577-.1558.3859-.0279.0676.1327-.2726-.0743.16-.1114.2328-.2167.4682-.3332.6986a10.9267,10.9267,0,0,1-1.9723,2.7632,20.7541,20.7541,0,0,1-7.28,4.4961,2.2094,2.2094,0,0,0-1.56,2.049l.1944,28.0814.0275,3.98c.0189,2.7337,4.2689,2.74,4.25,0Z"/><path d="M681.7829,259.25c1.1287-.1526.34-.0467.0744-.0171-.4293.0479-.86.0879-1.29.1233q-2.1521.1769-4.3134.1948a42.7313,42.7313,0,0,1-11.9923-1.398c-2.6376-.74-3.7634,3.3592-1.13,4.0981a49.6591,49.6591,0,0,0,19.7811,1.097,2.1378,2.1378,0,0,0,1.4842-2.614,2.1827,2.1827,0,0,0-2.614-1.4841Z"/><path d="M746.5253,175.3248l.269,34.26c-9.3652,17.0182-20.4867,34.2226-27.1265,39.9293l-12.0327-17.1157c4.0146-2.8068,10.161-14.02,10.5127-20.6218.5313-9.9742-4.698-12.6063-11.6648-12.9774s-15.369,12.38-15.8868,22.1006l1.0072-29.9538s-30.2519.2282-46.2663-6.0208a19.0185,19.0185,0,0,1-11.08-23.99"/><path d="M744.4,175.3248l.236,30.07.0329,4.19.29-1.0725c-4.5125,8.1884-9.2733,16.2561-14.4685,24.032-3.6072,5.399-7.3824,11.1727-12.3257,15.4672l3.3374.43L709.47,231.3257l-.7624,2.9073c4.1563-2.9978,6.92-8.2216,8.9045-12.8182,2.2135-5.1258,3.7327-10.94,1.9436-16.4536-1.5276-4.7077-5.5295-7.31-10.2852-8.0011a12.0011,12.0011,0,0,0-7.1073.6893,17.77,17.77,0,0,0-5.8934,4.765A32.3621,32.3621,0,0,0,688.4712,220.9h4.25l.88-26.1736.1271-3.78a2.15,2.15,0,0,0-2.125-2.125c-6.8126.0489-13.6549-.3221-20.4361-.9434a131.2481,131.2481,0,0,1-16.5919-2.4551c-5.1656-1.1513-10.6351-2.5309-14.451-6.433A17.081,17.081,0,0,1,636.3063,161.5c.8793-2.5962-3.224-3.7105-4.0981-1.13a21.2472,21.2472,0,0,0,2.2765,18.3324,21.5,21.5,0,0,0,6.79,6.5805,32.8374,32.8374,0,0,0,8.2117,3.2468c10.9121,3.0637,22.5186,3.9389,33.8032,4.3728,2.7686.1065,5.543.1875,8.3141.1676l-2.1249-2.1249-.88,26.1736-.1272,3.78c-.0924,2.7486,4.0822,2.7121,4.25,0a27.7719,27.7719,0,0,1,5.235-13.7624,19.1659,19.1659,0,0,1,4.4827-4.7394,6.4594,6.4594,0,0,1,4.6129-1.4382c3.4374.2508,6.7639,1.2564,8.1738,4.4892,1.7765,4.0737.64,8.9081-.9045,12.8858a42.8045,42.8045,0,0,1-3.853,7.499,26.9339,26.9339,0,0,1-1.9819,2.7756c-.332.398-.6765.7865-1.0421,1.154-.1645.1653-.3354.3225-.5046.4829q-.1611.1455-.3284.284.2423-.1775-.0484.0333a2.1565,2.1565,0,0,0-.7623,2.9073l12.0327,17.1157a2.1657,2.1657,0,0,0,3.3374.43,47.44,47.44,0,0,0,6.087-6.7166c2.604-3.3311,5.0356-6.7905,7.3711-10.3141,2.6546-4.0048,5.19-8.0888,7.6454-12.2181q1.9963-3.357,3.9222-6.7554.8795-1.5509,1.7447-3.11a5.6464,5.6464,0,0,0,.9782-2.3478c.1652-2.8765-.0458-5.8253-.0684-8.7048l-.1229-15.6675-.0774-9.8576c-.0215-2.7335-4.2714-2.74-4.25,0Z"/><path d="M668.3,206.5014c.0948-.0518.1925-.0984.29-.1446.0578-.0274.1169-.0524.1746-.08.3417-.1634-.2015.1261-.2154.0887-.0021-.0056.4221-.166.4557-.1784q.6522-.2416,1.3258-.4192.442-.1173.8908-.2075.2008-.04.4028-.0751c.061-.0105.6143-.09.3107-.0516-.3134.04.1888-.0177.249-.0234q.2767-.0263.5544-.0421.5335-.03,1.0683-.02c.3772.0069.7514.0355,1.1272.066.4518.0367-.2112-.0535.2874.0364.1819.0328.3639.0639.545.1012a12.6427,12.6427,0,0,1,4.9079,2.1782,2.1445,2.1445,0,0,0,2.9074-.7623,2.1684,2.1684,0,0,0-.7624-2.9074c-4.7435-3.2962-11.4862-4.0575-16.6643-1.2285a2.1253,2.1253,0,0,0,2.145,3.67Z"/><path d="M643.3074,204.5132c4.5729-1.8065,11.58-1.3926,13.0379,4.2.6923,2.6556-.62,5.6332-1.93,7.8956a24.3017,24.3017,0,0,1-3.5734,4.6735,5.082,5.082,0,0,0-1.66,2.3348,5.6571,5.6571,0,0,0-.061,2.3413c.69,3.634,4.8757,3.995,7.8721,3.8079,2.7167-.17,2.7359-4.4207,0-4.25a9.1256,9.1256,0,0,1-3.5559-.2534c-.3656-.1847-.03-.165-.2566-.2013.146.0234.0951.1582.1158.1436.0669-.0471-.028-.0172-.0256-.2223q.0318-.3775-.0139-.1144.0423-.25.1056-.4952l-.5465.9377c5.0523-4.8778,10.4807-13.0887,6.6447-20.2128a11.0419,11.0419,0,0,0-8.902-5.6019,18.7927,18.7927,0,0,0-8.3814.9189,2.19,2.19,0,0,0-1.4842,2.6139,2.14,2.14,0,0,0,2.614,1.4842Z"/><path d="M699.9323,222.7353c.1313-.4111.2779-.8177.4271-1.2226q.2445-.6634.51-1.319c.0482-.1192.0973-.238.1461-.357.2105-.5131-.1812.4163.0022-.0059.1211-.2789.2425-.5576.3683-.8344a30.5308,30.5308,0,0,1,1.85-3.5087q.2631-.4227.5464-.8324.1313-.1892.2675-.3746c.0449-.0611.0922-.1207.1361-.1824.1277-.1794-.351.4281-.0554.0764a11.007,11.007,0,0,1,1.2412-1.3c.4329-.3711-.25.154-.0079-.0028.1318-.0853.2569-.18.3916-.2611.13-.0785.2677-.1409.3988-.2163.2437-.14-.5726.1755-.0611.0326.1236-.0345.2468-.0689.3708-.1021.472-.1264-.55.005-.063.01a2.0993,2.0993,0,0,0,.4242.0109c-.0159.0038-.5842-.1237-.308-.0391.0838.0256.1738.0379.2587.06a2.1255,2.1255,0,0,0,1.13-4.0981c-3.3131-.873-5.9329,1.6166-7.6934,4.0991a33.6776,33.6776,0,0,0-3.763,7.5152c-.2174.5689-.4293,1.1417-.6147,1.7221a2.1431,2.1431,0,0,0,1.4842,2.6139,2.1718,2.1718,0,0,0,2.6139-1.4841Z"/><circle cx="648.4213" cy="212.2047" r="2.6201"/><path d="M649.9752,212.3441l-.0049.0732q-.0183.1785.0116-.0667a.9588.9588,0,0,0-.0271.1406,3.2006,3.2006,0,0,1-.0992.3381c-.0772.228.1166-.2059-.0028.0015-.0229.04-.042.082-.0646.1221q-.0505.09-.1082.1755l-.0389.0563q-.101.1372.0408-.0525a2.6172,2.6172,0,0,1-.2352.2469c.0082-.0076-.101.0914-.1025.09s.2044-.142-.0036-.0028c-.0955.0638-.1963.1152-.2962.1713-.1772.1.0612-.0367.0652-.0229a2.22,2.22,0,0,1-.2292.0791c-.0559.0165-.1121.0313-.169.044l-.0687.0144q-.14.0235.0016.0034l.0709-.0092q-.0711.0079-.1426.012c-.06.0034-.12.0045-.1809.0037s-.1219-.0064-.1829-.0082c-.242-.0071.181.041.0313.0052-.127-.03-.2532-.0548-.3774-.0966l-.066-.0233q-.1611-.0628.061.0271c-.0016.0025-.1336-.0665-.124-.0614-.102-.054-.1961-.1174-.2924-.18-.1861-.1215.1113.1281.0266.0186a1.3132,1.3132,0,0,0-.1259-.115c-.0407-.04-.0775-.0834-.1178-.1232-.1861-.1836.085.1464-.0256-.0246-.0621-.0961-.1252-.19-.1788-.2913.0053.01-.0621-.1226-.0609-.1231.01-.0044.0864.2382.0047-.0026-.0376-.1109-.061-.224-.09-.3372-.0417-.165.0383.0691.0058.0726-.0049,0-.0153-.2289-.0156-.2509-.0006-.0367-.0176-.3143.015-.3281l-.0184.1392q.0116-.0707.027-.1406c.01-.0461.0217-.0921.0344-.1376.019-.0679.0431-.1335.0648-.2005.0634-.1954-.0192.0659-.0271.061a2.4955,2.4955,0,0,1,.2027-.36l.039-.0563q.0808-.11,0-.0014l-.0406.0539q.0438-.0523.09-.1024a2.7883,2.7883,0,0,1,.2475-.2343c.01.0109-.21.1377-.0246.0222.0483-.03.0947-.0632.1437-.0924q.0588-.0351.12-.0671t.1231-.0609q-.2233.0906-.0627.0278c.1111-.035.22-.0729.3337-.0983a1.0089,1.0089,0,0,0,.1382-.027c-.202.082-.151.0171-.0352.0089a2.6347,2.6347,0,0,1,.3631,0c.2272.0152-.0271-.016-.03-.0091a1.2439,1.2439,0,0,1,.21.0433c.0683.0171.1361.0369.2029.06q.05.0165.0986.0358.1124.0436-.0935-.04a2.51,2.51,0,0,1,.36.2027,1.2281,1.2281,0,0,1,.1116.0794q-.1863-.1458-.056-.0368.0513.0452.1.0928t.0951.0979c.178.1929.01-.0063.0081-.0053a2.0446,2.0446,0,0,1,.219.3465c.1182.224.0011-.002.0083-.0041s.0668.1877.0693.1958c.0172.0556.0323.1117.0457.1683q.0127.0511.0225.1029.03.1747-.0058-.0726a4.0016,4.0016,0,0,1,.0124.4333,1.0705,1.0705,0,0,0,1.0625,1.0624,1.0848,1.0848,0,0,0,1.0625-1.0624,3.6852,3.6852,0,0,0-6.3746-2.6466,3.7421,3.7421,0,0,0-.5406,4.2639,3.685,3.685,0,0,0,6.9152-1.6173,1.0683,1.0683,0,0,0-1.0625-1.0625A1.0877,1.0877,0,0,0,649.9752,212.3441Z"/><circle cx="672.8854" cy="213.4323" r="2.6201"/><path d="M674.4337,213.6532c-.0251.2545.0547-.241-.0024.0054-.0108.0465-.02.0933-.0314.14-.029.1141-.08.2219-.11.3349.0673-.2583.0307-.08-.0107-.0021q-.0326.0609-.0683.12a1.7192,1.7192,0,0,1-.1137.1721c.0055.0026.1693-.1971-.0049-.0015-.0763.0858-.16.16-.2427.2395-.1457.1394.0492-.0494.0554-.0383a1.9683,1.9683,0,0,1-.1693.1152c-.0335.0209-.3.1666-.3014.162-.01-.0268.22-.0777.0627-.0289-.0774.024-.153.0514-.2316.072-.0564.0148-.1137.0248-.17.0387-.2292.0562.1915-.01.0379-.0035-.12.0049-.2386.0142-.3593.009-.0287-.0013-.1688.006-.1826-.014.032.0463.2322.04.0325-.0025a3.0955,3.0955,0,0,1-.3742-.1084c-.2278-.0788.2047.1172-.0017-.0042-.04-.0233-.0821-.0425-.122-.0653-.06-.0341-.1161-.0739-.1753-.1092-.1423-.0851.0684.032.05.044s-.2346-.2121-.252-.23a1.6609,1.6609,0,0,0-.1139-.1268q-.0761-.0914.06.0814-.0406-.0549-.0783-.1118c-.0632-.0957-.1145-.1964-.17-.2967-.0975-.1774.0364.06.024.0651-.0038.0014-.0643-.1826-.0683-.1958-.0118-.0386-.071-.3389-.0791-.34.0156.0018.0192.278.0124.0717-.0027-.0839-.0091-.1671-.0078-.2512.001-.061.0063-.1214.0089-.1823.0094-.2157-.0024.0694-.0106.0655a1.6009,1.6009,0,0,1,.0831-.347c.0073-.0233.0487-.1919.071-.1984.0058-.0017-.1041.2065-.0211.0636a2.2751,2.2751,0,0,1,.2138-.3536c.0071.0032-.1674.1851-.0175.0273.0392-.0413.0757-.0849.1158-.1254s.0836-.0772.1238-.1172c.1552-.1543-.0211.0323-.03.0156a2.3058,2.3058,0,0,1,.2871-.1846c.04-.0221.0817-.041.1215-.0633q.156-.072-.0651.024.0642-.0253.13-.0472c.1108-.037.2235-.06.3366-.0879.1637-.04-.0655.04-.0732.0068,0,0,.16-.0121.1778-.0128.122-.0047.2414.0048.3629.0109.1553.0078-.2631-.0611-.0311-.0013.0692.0178.1395.03.2083.05s.1339.0435.201.0659c.2222.0742-.2-.1118.0017.0042a2.17,2.17,0,0,1,.3535.2138c-.0059.0131-.1737-.15-.053-.04.0672.0617.1357.1208.1991.1867.0315.0328.06.0682.0919.1007.1527.1576-.1074-.1716.0016,0,.0738.1163.1411.233.208.3532.1153.2069-.069-.228,0-.0007.02.0663.0447.131.0631.1979.0155.0561.0288.1127.0405.17.0554.2707.0016-.1872.0069.0318.0035.1455.0092.2877-.0011.4335a1.0678,1.0678,0,0,0,1.0625,1.0624,1.0881,1.0881,0,0,0,1.0624-1.0624,3.6821,3.6821,0,0,0-2.0576-3.5263,3.679,3.679,0,0,0-4.8889,4.9891,3.6738,3.6738,0,0,0,3.5918,1.98,3.7593,3.7593,0,0,0,2.2979-1.0719,3.8182,3.8182,0,0,0,1.0568-2.3706,1.0659,1.0659,0,0,0-1.0624-1.0625A1.0914,1.0914,0,0,0,674.4337,213.6532Z"/><path d="M662.7187,233.5673a4.268,4.268,0,1,0,8.4269-1.3609Z"/><path d="M661.6942,233.85a5.3425,5.3425,0,0,0,4.1913,4.2615,5.4044,5.4044,0,0,0,5.6377-2.5151,5.4967,5.4967,0,0,0,.6469-3.6722c-.09-.6094-.8-.824-1.3069-.7421l-7.3792,1.1917-1.0477.1692a1.07,1.07,0,0,0-.7421,1.307,1.0882,1.0882,0,0,0,1.3069.7421L670.38,233.4l1.0477-.1692-1.307-.7421a2.87,2.87,0,0,0,.0162.3053c.0026.1157.0007.2317-.0062.3472,0,0-.04.3382-.0134.1715a3.9242,3.9242,0,0,1-.0841.3865c-.0336.1265-.0725.2516-.118.3744-.07.1893.03-.039-.0685.1564a4.0961,4.0961,0,0,1-.4046.6635c.0986-.1278-.1151.126-.1167.1277q-.1128.123-.235.2372a2.0376,2.0376,0,0,1-.5.3727,3.1475,3.1475,0,0,1-1.2606.4446c.14-.02-.1943.0122-.1885.0119-.1354.007-.2709.0068-.4064.0007-.0412-.0019-.3851-.0419-.2291-.016-.1115-.0185-.2224-.0422-.332-.07a2.91,2.91,0,0,1-1.1587-.5406,4.1012,4.1012,0,0,1-.7683-.8207,3.1912,3.1912,0,0,1-.504-1.3566,1.0714,1.0714,0,0,0-1.3069-.7421A1.0865,1.0865,0,0,0,661.6942,233.85Z"/><path class="cls-5" d="M515.7214,710.8258l-.3132,95.7706L383.96,806.5906s-2.2348-37.2445,46.6829-41.2466a17.6062,17.6062,0,0,0,16.2241-17.6917c-.1154-11.641-.28-22.904-.28-22.904"/><path d="M513.5965,710.8258l-.031,9.4852-.075,22.9124-.09,27.6111-.0784,23.9812-.0258,7.8682a36.722,36.722,0,0,0-.0122,3.7449,1.6442,1.6442,0,0,1-.0006.1676l2.125-2.1249-13.0684-.0006-31.3857-.0014-37.9737-.0017-32.8328-.0014-10.8231,0c-1.6868,0-3.4578-.1557-5.1395,0-.0736.0068-.1508,0-.225,0l2.125,2.125a18.7352,18.7352,0,0,1,.0113-1.9122c.0321-.7389.0908-1.4766.1707-2.2117.0225-.207.05-.4134.0728-.62.0485-.4341-.07.44.0367-.2585.0757-.4949.1558-.9889.2479-1.4812a39.7266,39.7266,0,0,1,2.0081-7.06c.0771-.1985.3505-.8736.2963-.7441-.1013.2421.0937-.2169.1255-.2888.0806-.1824.1614-.3646.2442-.546q.4755-1.0407,1.0129-2.0516a37.4219,37.4219,0,0,1,2.4552-3.9931,22.5231,22.5231,0,0,1,1.3644-1.7938q.83-1.0069,1.7285-1.9542a38.5052,38.5052,0,0,1,4.1117-3.7517A44.712,44.712,0,0,1,410.9,771.7847a66.5706,66.5706,0,0,1,16.2538-3.9647c3.0584-.367,6.133-.4416,9.04-1.57a19.7121,19.7121,0,0,0,11.7789-12.1758c1.1077-3.2219,1.0193-6.5328.9833-9.8921q-.0988-9.2087-.2291-18.417-.0072-.5085-.0145-1.0169c-.04-2.7323-4.29-2.74-4.25,0q.0981,6.75.1763,13.4993c.0761,6.3944,1.1139,13.2277-2.8863,18.7132a15.7,15.7,0,0,1-6.1212,4.9458c-2.6447,1.2154-5.4487,1.3062-8.2879,1.6412a72.1188,72.1188,0,0,0-16.7484,3.8244c-7.8414,2.9184-15.0527,7.5484-20.2263,14.2019a40.6086,40.6086,0,0,0-7.568,16.0633,32.5054,32.5054,0,0,0-.9713,8.8275c.0025.0419.0031.0838.0056.1257a2.1657,2.1657,0,0,0,2.1249,2.1249l13.0684.0006,31.3856.0014,37.9738.0017,32.8328.0014c5.3085,0,10.6563.19,15.9625.0007.0748-.0026.15,0,.2251,0a2.1565,2.1565,0,0,0,2.1249-2.1249l.031-9.4852.075-22.9124.09-27.6111.0784-23.9812c.0127-3.8585.1879-7.7564.038-11.6131-.0021-.0557,0-.1119.0006-.1676.0089-2.7349-4.2409-2.7387-4.25,0Z"/><path class="cls-1" d="M416.8221,806.5921l98.5861.0043.09-27.46.0084-2.5722-13.002-.0006a13.7288,13.7288,0,0,0-12.4808,8.0082h0a13.73,13.73,0,0,1-12.4808,8.0083l-54.739-1.0964-.0343-.2166a39.1972,39.1972,0,0,0-9.43-19.9294l-1.5148-1.7028-1.2793.0267c-14.3,5.518-20.9338,14.9591-23.9961,22.9168q-.1364.3542-.2632.7042l-.0087.024a38.7673,38.7673,0,0,0-2.3236,11.8946l0,.0028q-.0038.1456-.0058.2773l0,.0091c-.005.3309-.0027.59.0013.7751l.0012.0552.0021.0763.0022.0641.0015.0412.0025.0581,0,.0048.0013.0259Z"/><path d="M416.8221,808.717l9.7937,0,23.5236.0011,28.468.0012,24.6267.0011c3.9881,0,8.0135.16,11.9993.0006.0581-.0024.1166,0,.1748,0a2.1566,2.1566,0,0,0,2.1249-2.125l.0847-25.8864.0135-4.1462a2.1552,2.1552,0,0,0-2.1249-2.1249l-11.6959-.0006a18.5722,18.5722,0,0,0-7.1044,1.1119,16.0133,16.0133,0,0,0-8.5173,7.9487l2.4-.9765h0a2.1936,2.1936,0,0,0-2.4.9765,11.8591,11.8591,0,0,1-9.1958,6.8793,20.4992,20.4992,0,0,1-2.903.0474l-11.4985-.23-33.4675-.67-8.32-.1667,2.049,1.56a41.0651,41.0651,0,0,0-7.0876-17.41,36.3035,36.3035,0,0,0-4.4161-5.3512c-1.9816-1.8573-5.5378.2942-7.452,1.2023a41.8494,41.8494,0,0,0-21.12,21.955,36.7652,36.7652,0,0,0-2.9417,15.2766,2.1644,2.1644,0,0,0,2.1249,2.1249l28.7149.0012,4.1472,0c2.7346,0,2.7391-4.25,0-4.25l-28.7149-.0012-4.1472,0,2.125,2.125a33.9643,33.9643,0,0,1,3.6374-16.0133,36.1888,36.1888,0,0,1,11.8507-13.82,45.05,45.05,0,0,1,5.7205-3.3657c.9818-.4863,2.0106-.8747,2.9922-1.3555a3.1109,3.1109,0,0,1,1.5387-.2766l-1.5026-.6224a46.5137,46.5137,0,0,1,6.1991,8.3581,38.1658,38.1658,0,0,1,4.2338,12.5529,2.1377,2.1377,0,0,0,2.049,1.56l23.0185.461,29.9938.6008a24.5021,24.5021,0,0,0,4.0994-.16,15.899,15.899,0,0,0,11.9429-8.8656l-2.4.9766h0a2.1937,2.1937,0,0,0,2.4-.9766,11.864,11.864,0,0,1,7.3106-6.4667,18.2561,18.2561,0,0,1,5.3216-.489l11.0157,0-2.1249-2.1249q-.0424,12.9869-.085,25.9736l-.0133,4.059,2.125-2.1249-9.7938,0-23.5235-.0011-28.4681-.0012-24.6266-.0011c-3.9881,0-8.0136-.16-11.9994-.0006-.058.0024-.1166,0-.1747,0C414.0875,804.467,414.0829,808.7169,416.8221,808.717Z"/><path d="M443.3451,760.2137a6.2824,6.2824,0,0,1,.613.1692c.23.0729.4573.154.682.2417.0584.0228.1162.0471.1746.07.33.1286-.5239-.23-.2719-.115.159.0724.3188.1423.4761.2186a12.9662,12.9662,0,0,1,1.9871,1.2092c.2406.1755-.2438-.1935-.2327-.1806a1.1032,1.1032,0,0,0,.1316.1049q.1327.1075.2624.2192.2671.23.5194.4769.2621.2565.5062.53.11.1232.2155.25c.0408.0488.0806.0984.1211.1474.2238.2709-.063-.1168-.1239-.1633a2.939,2.939,0,0,1,.5093.7383q.25.3975.4636.8163.0984.1925.1889.3889c.03.065.0562.137.09.2-.2817-.53-.1235-.2963-.0643-.1464.1355.3427.2518.6919.3553,1.0455a2.1255,2.1255,0,1,0,4.0981-1.13,12.857,12.857,0,0,0-4.0708-6.3251,14.8533,14.8533,0,0,0-4.6562-2.6188,7.0867,7.0867,0,0,0-.8446-.2457,2.1255,2.1255,0,0,0-1.13,4.0981Z"/><path d="M435.7014,765.5345c.1838.0971.36.2107.5329.3255.103.0683.56.3045.5793.4125-.0062-.0351-.4983-.3956-.2228-.171.0541.0441.1089.0873.1627.1317q.2031.1674.3991.3433.3937.3537.7564.74.2064.22.4015.45c.0624.0736.1224.1492.1845.223.2026.2413-.3137-.4268-.0588-.0771a12.215,12.215,0,0,1,.7487,1.1433q.18.315.338.6415c.05.1033.0963.2081.1449.3121.1428.3053-.1723-.4564-.012-.02a11.591,11.591,0,0,1,.5019,1.7262c.03.15.0515.3026.08.4532.0452.2347-.03-.2458-.0291-.2328.004.09.0214.1813.03.2711.0374.3762.0532.7534.0555,1.1314a2.125,2.125,0,0,0,4.25,0,13.5134,13.5134,0,0,0-5.9618-11.01,7.0857,7.0857,0,0,0-.7365-.464,2.1253,2.1253,0,0,0-2.145,3.67Z"/><path d="M423.86,767.8556c.1838.0971.36.2107.5329.3255.103.0683.5605.3045.5793.4125-.0061-.0351-.4983-.3956-.2227-.171.054.0441.1088.0873.1626.1317q.2031.1674.3991.3433.3939.3537.7565.74.2063.22.4014.45c.0624.0736.1224.1492.1845.223.2026.2412-.3137-.4268-.0588-.0771a12.215,12.215,0,0,1,.7487,1.1433q.18.315.338.6415c.05.1033.0964.2081.1449.3121.1429.3053-.1723-.4564-.012-.02a11.591,11.591,0,0,1,.5019,1.7262c.03.15.0515.3026.08.4532.0452.2347-.03-.2458-.0291-.2328.004.09.0214.1813.03.2711.0374.3762.0532.7534.0555,1.1314a2.125,2.125,0,0,0,4.25,0,13.5134,13.5134,0,0,0-5.9618-11.01,7.0857,7.0857,0,0,0-.7365-.464,2.1253,2.1253,0,0,0-2.145,3.67Z"/><path class="cls-3" d="M639.111,267.9455l-4.297.6258A72.3838,72.3838,0,0,0,572.8615,340.2v51.161a44.5019,44.5019,0,0,0,43.1539,44.4814l20.5228.6219V412.0222h0c-22.3469-3.6634-45.0239-3.8592-40.4629-49.3571l.5613-11.2094c1.1174-22.3158,8.0536-45.8368,31.54-57.139l23.1552-7.0752"/><path d="M638.5461,265.8965a115.6094,115.6094,0,0,0-11.5316,2.0553,74.6433,74.6433,0,0,0-54.2966,55.1408,87.96,87.96,0,0,0-1.9813,20.2086v41.2927c0,5.2248-.13,10.4076.839,15.5769a46.5489,46.5489,0,0,0,16.0756,27.1128A47.2049,47.2049,0,0,0,616.1128,437.97c6.1892.203,12.38.3751,18.5691.5627l1.8563.0562a2.1516,2.1516,0,0,0,2.125-2.1249V412.0222a2.1443,2.1443,0,0,0-1.56-2.049c-4.9187-.8064-9.8725-1.434-14.7478-2.4861a56.545,56.545,0,0,1-6.879-1.8945,27.9185,27.9185,0,0,1-5.9391-2.8222q-.665-.4148-1.3046-.8687a11.0625,11.0625,0,0,1-1.1258-.8693,23.5287,23.5287,0,0,1-2.5063-2.4415,17.6039,17.6039,0,0,1-1.9883-2.6711,27.4187,27.4187,0,0,1-1.8034-3.3761c-2.6749-5.9351-3.2709-13.3232-3.1924-19.9857.0712-6.0341.6939-12.0908.9959-18.1226a122.7929,122.7929,0,0,1,1.998-18.3389,66.0354,66.0354,0,0,1,8.1195-21.5688,47.9882,47.9882,0,0,1,16.7925-16.4027,20.1787,20.1787,0,0,1,5.0235-2.3106l6.5985-2.0162,13.8837-4.2422.8687-.2654c2.6082-.797,1.4961-4.9-1.13-4.0981l-11.2208,3.4286c-3.9537,1.208-8.0111,2.2479-11.9054,3.6377a29.6225,29.6225,0,0,0-5.2291,2.7716,54.919,54.919,0,0,0-5.3657,3.76,50.4449,50.4449,0,0,0-8.7274,8.8849,62.73,62.73,0,0,0-10.4742,21.7c-3.3468,12.129-3.3619,24.7308-4.2264,37.1887-.8869,12.7823-.1547,28.5484,10.4838,37.4742,7.87,6.6034,18.458,7.9554,28.2581,9.4637,1.2052.1855,2.41.3728,3.6135.57l-1.56-2.049v24.4416l2.1249-2.125-17.5-.53a63.6061,63.6061,0,0,1-8.329-.58,42.4565,42.4565,0,0,1-33.2972-27.6914,43.1622,43.1622,0,0,1-2.4253-14.2025c-.0039-1.2239,0-2.448,0-3.672V346.9661a133.8175,133.8175,0,0,1,.4456-14.8235,70.0166,70.0166,0,0,1,10.36-29.389,71.026,71.026,0,0,1,49.8417-32.17q2.0208-.2958,4.042-.5886a2.139,2.139,0,0,0,1.4842-2.614,2.18,2.18,0,0,0-2.614-1.4841Z"/><path class="cls-6" d="M664.4227,467.94l-157.2337.4435a73.4844,73.4844,0,0,0-70.8447,72.1984L430.578,729.8781l99.2959-.4787s1.7626-116.3348,1.7626-160.401l169.2143-2.35"/><path d="M664.4227,465.8149l-6.8006.0192-17.8179.05-25.29.0714-28.8439.0813-28.9535.0817-25.1122.0708-17.7923.05c-2.332.0066-4.6742-.05-7.0052.0333a75.3027,75.3027,0,0,0-38.1354,12.1077,76.1762,76.1762,0,0,0-26.05,28.7568,77.4773,77.4773,0,0,0-8.4067,33.5743c-.0655,2.4177-.1473,4.8351-.2209,7.2526l-.5069,16.6416-.7111,23.3421-.8439,27.7049-.8919,29.2785L430.17,673.5l-.7634,25.0615-.5858,19.2324-.3257,10.6912-.0425,1.393a2.1505,2.1505,0,0,0,2.125,2.1249l9.9157-.0478,23.6693-.1141,28.6222-.1379,24.8669-.12c4.0028-.0193,8.0467.1275,12.0463-.0581.0582-.0027.1171-.0006.1755-.0008a2.16,2.16,0,0,0,2.1249-2.125q.09-5.9388.175-11.8777.2176-15.0176.42-30.0354.269-19.8978.5089-39.7961.2469-20.6573.4417-41.315c.1028-11.3605.1939-22.7215.2137-34.0826q.0028-1.6472.003-3.2942l-2.125,2.1249,16.9126-.2349,40.3275-.56,49.0224-.6809,42.1336-.5852c6.8338-.0949,13.7027.0045,20.5319-.2851.0952-.0041.191-.0027.2863-.004,2.7324-.038,2.74-4.2879,0-4.25l-16.9125.2349-40.3275.56-49.0224.6809-42.1336.5852c-6.8339.0949-13.7027-.0045-20.5319.2851-.0953.0041-.191.0027-.2864.004a2.158,2.158,0,0,0-2.1249,2.125c-.0007,10.8779-.0825,21.7559-.175,32.6333q-.1732,20.3667-.42,40.7325-.2364,20.2176-.5089,40.4348-.2126,15.9189-.4417,31.8376-.0715,4.9738-.1449,9.9475a41.5869,41.5869,0,0,0-.0688,4.6168,1.779,1.779,0,0,1-.003.1985l2.125-2.1249-9.9157.0478-23.6693.1141-28.6222.138-24.8669.12-8.13.0392a34.2573,34.2573,0,0,0-3.9159.0189,1.5328,1.5328,0,0,1-.1755.0009l2.1249,2.1249.1714-5.6255.4661-15.3033.68-22.339.8205-26.9328.8885-29.1692.8723-28.6365.7842-25.7423.6225-20.4336.3788-12.436a92.1523,92.1523,0,0,1,1.4219-15.3384,71.4533,71.4533,0,0,1,49.5895-54.492,70.3779,70.3779,0,0,1,19.8816-2.9271l13.22-.0373,22.1325-.0625,27.4573-.0774,29.2926-.0826,27.2231-.0768,21.6645-.0611,12.5145-.0353,1.6376-.0046c2.7343-.0078,2.74-4.2576,0-4.25Z"/><path class="cls-5" d="M774.8894,843.8343,788.7972,938.59,658.8047,958.0984s-7.7392-36.5,40.0424-47.72a17.6063,17.6063,0,0,0,13.4179-19.9042c-1.8422-11.4949-5.5387-34.1643-5.5387-34.1643"/><path d="M772.84,844.3992l1.3774,9.3846,3.3274,22.67,4.01,27.3186,3.4826,23.727,1.1426,7.7849c.1785,1.2161.254,2.5092.5438,3.7053.013.0534.0163.1112.0243.1657l1.4842-2.6139-12.9237,1.9395-31.038,4.658-37.5533,5.6357-32.4691,4.8727-10.7033,1.6063c-1.6738.2512-3.4331.3759-5.0825.7627-.0723.017-.149.0224-.2226.0334l2.614,1.4842c-.044-.2087-.075-.42-.11-.63-.019-.1134-.0263-.2308-.05-.343.0217.1008.0714.6055.014.0887-.0384-.3457-.0772-.691-.1073-1.0376a38.084,38.084,0,0,1,.0008-6.4174q.0383-.4635.0871-.926.027-.256.0575-.5118c.014-.1181.09-.696.0478-.3884-.0431.3122.033-.2218.0491-.3247.0242-.1542.0477-.3084.073-.4624q.0969-.5915.2119-1.18a38.6045,38.6045,0,0,1,1.2124-4.6549c.27-.8228.5721-1.6338.8948-2.4374a2.2564,2.2564,0,0,1,.1194-.2862q.1358-.3111.276-.62.3071-.6739.6407-1.3353a37.4894,37.4894,0,0,1,3.045-5.01,40.7194,40.7194,0,0,1,9.4454-9.1307,59.6928,59.6928,0,0,1,15.91-7.6391c3.45-1.1055,7.1157-1.6621,10.43-3.144a19.7145,19.7145,0,0,0,7.6268-6.1947,19.3336,19.3336,0,0,0,3.6751-8.9537,30.5069,30.5069,0,0,0-.5845-9.1722q-2.4487-15.2091-4.9343-30.4124l-.1084-.6646a2.1411,2.1411,0,0,0-2.6139-1.4841,2.1758,2.1758,0,0,0-1.4841,2.6139q2.19,13.4291,4.3625,26.8608c.4268,2.6413,1.0175,5.3145,1.2538,7.98a15.5388,15.5388,0,0,1-1.776,8.8352,15.739,15.739,0,0,1-6.4708,6.3915c-3.0039,1.5931-6.5682,2.0206-9.7961,3.0224-10.3761,3.22-20.5146,8.6022-27.3366,17.2714a40.6315,40.6315,0,0,0-8.3823,20.2238,31.4873,31.4873,0,0,0,.1927,11.0421c.0131.0528.02.1077.0312.161a2.1785,2.1785,0,0,0,2.6139,1.4842l12.9237-1.94,31.038-4.658,37.5533-5.6357,32.4692-4.8727,10.7032-1.6063c1.68-.2521,3.4219-.3981,5.0826-.7627.0727-.016.1487-.0223.2225-.0334,1.2289-.1844,1.6335-1.596,1.4841-2.6139l-1.3774-9.3847-3.3273-22.67-4.01-27.3185-3.4825-23.7271-1.1427-7.7849c-.1792-1.2211-.2689-2.5008-.5438-3.7052-.0123-.0539-.0163-.111-.0243-.1658a2.1391,2.1391,0,0,0-2.6139-1.4842,2.18,2.18,0,0,0-1.4842,2.614Z"/><path d="M736.9551,451.2512s28.3848,5.4586,31.66,21.8344-38.21,20.1969-38.21,20.1969"/><path d="M736.39,453.3a66.2062,66.2062,0,0,1,12.4475,3.8457c6.29,2.5807,13.4031,6.6307,16.5681,13.0132a12.682,12.682,0,0,1,.8632,2.2655c.1157.4055.2053.8149.297,1.2259.0168.0749.1078.686.0412.16.026.206.0432.4132.0542.62a8.653,8.653,0,0,1-.0008.95c-.008.1409-.021.2811-.0351.4214-.0342.3411.1046-.516-.0071.015-.0569.2708-.1115.5405-.1874.8069-.0453.1592-.1023.3142-.15.4724-.1685.5609.0523-.0521-.0954.26a10.7361,10.7361,0,0,1-.8317,1.4638q-.146.2139-.3017.4208c.3012-.4008-.0573.0638-.1052.1181-.2382.27-.4752.5385-.7283.7947a14.0716,14.0716,0,0,1-3.065,2.42c-5.4372,3.4464-11.8308,5.1722-18.2541,6.5639q-4.54.9837-9.1473,1.62c-.1386.0194-.2772.0382-.4158.0574-.4214.0585.4815-.0616.0411-.0056-.239.03-.4778.0622-.7168.0922q-.6211.078-1.2433.1486c-.3373.038-.6749.0755-1.013.1068a2.1826,2.1826,0,0,0-2.1249,2.1249,2.14,2.14,0,0,0,2.1249,2.125,114.0127,114.0127,0,0,0,11.7424-1.78c6.8724-1.37,13.9642-3.2249,20.0839-6.74a19.6682,19.6682,0,0,0,6.9808-6.2068,11.29,11.29,0,0,0,1.2222-9.1439c-2.1626-8.0659-9.61-13.4376-16.774-16.8636a67.6494,67.6494,0,0,0-16.14-5.471c-2.6722-.5164-3.8166,3.5789-1.13,4.0981Z"/><path class="cls-6" d="M665.8214,431.6308l-5.189,145.6855a356.2815,356.2815,0,0,0,3.96,67.1336L699.0988,867.575l96.9351-14.79s-25.6432-174.85-35.253-217.3933l-1.7627-186.2533"/><path d="M663.6964,431.6308l-.9,25.26-1.9193,53.888-1.7941,50.37c-.4855,13.6326-1.0583,27.2419-.5981,40.8893a418.0291,418.0291,0,0,0,5.1173,49.8265l5.3514,34.6029,8.0886,52.3021,8.7051,56.2886,7.2948,47.17,3.8312,24.7733.1761,1.1387c.1894,1.2241,1.5921,1.64,2.614,1.4841l32.805-5.0053,52.2255-7.9685,11.9046-1.8163c1.2287-.1875,1.6338-1.5936,1.4841-2.6139q-1.3629-9.2928-2.7522-18.5816-3.418-22.94-6.9165-45.8673-4.4535-29.1809-9.07-58.3366c-2.9687-18.68-5.9945-37.3515-9.214-55.99-1.296-7.5033-2.6227-15.0018-4.0325-22.4847q-.8412-4.4651-1.7355-8.92-.4-1.9787-.8187-3.9537-.1854-.871-.3755-1.7409c-.07-.319-.3294-1.7012-.2618-.9575-.1481-1.63-.0315-3.329-.047-4.9637l-.1241-13.1106-.4065-42.957-.4962-52.43-.44-46.4936-.2376-25.1092-.0112-1.1858c-.0259-2.7332-4.2758-2.74-4.25,0l.1672,17.6726.4065,42.95.4961,52.415.441,46.6049.24,25.3851c.0287,3.0337,1.02,6.0411,1.6194,9.0038,1.3243,6.548,2.5332,13.1194,3.7108,19.6951,3.1666,17.682,6.0813,35.4093,8.9413,53.1431q4.7652,29.5477,9.2921,59.1332,3.8681,25.1457,7.6325,50.3073,1.996,13.33,3.9626,26.6649.091.618.1817,1.2361l1.4842-2.6139-32.805,5.0053L710.4384,863.71l-11.9045,1.8164,2.6139,1.4841L698.48,849.7576l-6.6353-42.9051-8.5493-55.2809-8.41-54.3791-6.2169-40.1995c-1.4722-9.52-3.0236-19.0267-4.0628-28.6065-2.1417-19.7436-2.2606-39.4958-1.5549-59.3088l1.5958-44.8038,1.9865-55.7725,1.2527-35.17.06-1.7c.0974-2.7353-4.1526-2.7314-4.25,0Z"/><path class="cls-7" d="M824.6716,436.9965c-5.1021-16.6551-11.3348-30.974-16.899-39.7485l-14.0547,4.0244-51.1411,14.6432,62.1794,45.204,2.9715-.5741,22.0063-4.25C828.4259,450.2353,826.732,443.7223,824.6716,436.9965Z"/><path d="M826.7206,436.4316a234.7033,234.7033,0,0,0-8.4094-23.1473,120.4132,120.4132,0,0,0-8.7037-17.1088,2.1777,2.1777,0,0,0-2.4-.9766q-10.2452,2.9337-20.49,5.8672l-34.9415,10.0047-9.764,2.7957a2.1544,2.1544,0,0,0-.5076,3.8839l10.5613,7.678,22.6467,16.464,21.5613,15.6749,6.1556,4.4751c.3893.283.7713.6137,1.1846.8612,1.235.74,3.3224-.047,4.6549-.3044q10.6377-2.055,21.2755-4.1094l.7547-.1458a2.16,2.16,0,0,0,1.4841-2.6139c-1.4108-6.5026-3.12-12.9351-5.0624-19.2985-.7963-2.6084-4.9-1.4963-4.098,1.13,1.9427,6.3633,3.6515,12.7959,5.0624,19.2985l1.4841-2.614-21.2517,4.1048-3.7261.72,1.6374.2142-21.0572-15.3084-33.5064-24.359-7.6158-5.5367-.5076,3.8839,25.3309-7.2529q12.9031-3.6946,25.8065-7.3892l14.0584-4.0255-2.4-.9765c7.5726,11.9988,12.537,25.7468,16.6848,39.2409C823.4238,440.1679,827.5274,439.0562,826.7206,436.4316Z"/><path class="cls-1" d="M768.6151,471.6785c-80.69-5.5013-168.2353-4.3262-168.2353-4.3262l27.7814-161.3715c1.0863-10.7189,15.74-16.1665,25.7434-16.1665l25.2069,25.3626,35.2911-28.0333c10.8694,0,16.548,4.4947,21.2135,20.4465C735.6161,307.59,763.7023,418.7255,768.6151,471.6785Z"/><path d="M697.9131,288.5119l15.8341.7266c2.9455.1352,5.4156.1674,8.2029,1.2057a13.384,13.384,0,0,1,3.7086,2.2838,17.5251,17.5251,0,0,1,3.3612,4.1853c4.2167,7.0365,5.6825,15.73,7.6042,23.62q5.0145,20.59,9.686,41.2611c4.0776,18.0481,7.9649,36.1425,11.4783,54.31,3.2347,16.726,6.2914,33.604,8.1748,50.4443q.2867,2.5624.5269,5.13l2.125-2.125q-25.6275-1.2129-51.27-2.0685-22.7064-.7644-45.42-1.2791-18.1752-.4138-36.3534-.6707-12.3645-.1732-24.73-.2621-3.5682-.0241-7.1364-.0379a28.5833,28.5833,0,0,0-3.1863-.0078,1.2872,1.2872,0,0,1-.1389,0l2.0491,2.69,2.4819-13.9121,5.9121-33.1381,7.1442-40.0448,6.1785-34.6314c1.0061-5.6393,2.0742-11.2714,3.0188-16.9214.0128-.0763.0272-.1524.0408-.2286a2.1852,2.1852,0,0,0-1.4841-2.614,2.1432,2.1432,0,0,0-2.6139,1.4842l-2.482,13.912-5.9121,33.1381-7.1442,40.0448-6.1784,34.6315c-1.0061,5.6392-2.0742,11.2714-3.0189,16.9213-.0128.0764-.0272.1525-.0408.2287a2.1572,2.1572,0,0,0,2.049,2.69c2.7691,0,5.5382.0156,8.3073.032q11.6022.069,23.2039.226,17.5461.2292,35.09.6108,22.1367.4785,44.2674,1.1883,25.3365.8145,50.6611,1.9578,3.3531.1524,6.7059.3113a2.1337,2.1337,0,0,0,2.1249-2.1249c-1.5683-16.8157-4.4851-33.5154-7.5961-50.1038-3.4824-18.5691-7.3993-37.0564-11.5189-55.4938q-4.9132-21.99-10.2255-43.8882c-1.8869-7.7882-3.4158-15.8647-6.6068-23.2534-1.6151-3.74-3.7793-7.4089-7.023-9.9614a19.2918,19.2918,0,0,0-10.4114-3.832c-2.4377-.2253-4.9313-.2179-7.3781-.33l-10.024-.46-2.0431-.0938c-2.7343-.1254-2.728,4.1247,0,4.25Z"/><rect class="cls-1" x="587.3335" y="445.7902" width="196.1758" height="22.512" rx="9.9315"/><path d="M773.5778,466.1772H598.0765a9.0549,9.0549,0,0,1-4.8452-1.1213,7.8967,7.8967,0,0,1-3.7729-6.7571c-.027-2.2415-.1243-4.457,1.04-6.47a8.0162,8.0162,0,0,1,7.1572-3.9142c.9593-.0026,1.9188,0,2.8782,0H771.3952c.7009,0,1.4024-.008,2.1034,0a7.91,7.91,0,0,1,7.8858,7.9857c.0128,2.2145.1142,4.3716-1.04,6.3622a7.8934,7.8934,0,0,1-6.767,3.9142c-2.7318.0471-2.74,4.2971,0,4.25a12.2692,12.2692,0,0,0,12.0564-12.5706c0-2.8781-.1328-5.6011-1.62-8.1721a12.0987,12.0987,0,0,0-7.8289-5.733,38.7573,38.7573,0,0,0-7.79-.2862H606.0572c-2.8094,0-5.6189-.0073-8.4283,0a12.2733,12.2733,0,0,0-9.6451,4.3785,12.9,12.9,0,0,0-2.7753,8.4043c0,2.914.1963,5.6855,1.7878,8.24a12.3077,12.3077,0,0,0,10.5151,5.7394c.8868.0041,1.7737,0,2.6605,0H773.5778C776.3124,470.4271,776.3169,466.1772,773.5778,466.1772Z"/><path class="cls-1" d="M692.6251,286.9745c.7285.1147,12.7063.0262,20.4805-.0091,4.2361-.0192,22.38-.8709,26.5235.0091L911.3273,327.68a47.1175,47.1175,0,0,1,40.9375,33.5435h0l-44.009,34.4479L734.3412,375.107"/><path d="M692.6251,289.1a55.2183,55.2183,0,0,0,6.9116.0535c4.066-.01,8.1319-.036,12.1979-.0561,5.8414-.0289,11.6786-.3208,17.52-.3818,2.9063-.03,5.8394-.0777,8.7384.17.21.018.4193.04.6288.0609.34.0342-.3311-.0872.1905.0293.0912.02.1843.0352.276.0542.0783.0162.1557.0378.2338.0554,1.1478.2593,2.2906.5431,3.4355.8145l16.8234,3.9884,26.714,6.3332,31.8071,7.5407,32.8278,7.7826,29.3193,6.9509,21.3352,5.058c3.0285.718,6.0569,1.5657,9.1128,2.16,2.6283.5116,5.2632.6993,7.8729,1.3888a44.9741,44.9741,0,0,1,31.6455,30.686l.5465-2.0674-14.866,11.6363-23.6984,18.55-5.4445,4.2617,1.5025-.6224-17.3671-2.0536-41.4357-4.8995-50.36-5.9547-43.3159-5.1218L741.424,373.82c-2.2509-.2661-4.53-.6658-6.794-.8033-.0963-.0059-.193-.0228-.2888-.0342a2.1372,2.1372,0,0,0-2.125,2.125,2.1762,2.1762,0,0,0,2.125,2.1249l7.9881.9446,20.8476,2.465,29.232,3.4565,33.1414,3.9188,32.5756,3.8518,27.6247,3.2665,17.9733,2.1252,4.0053.4736c1.2636.1494,2.1514-.6558,3.0976-1.3964L931.5585,380.11l20.9986-16.4366,1.21-.9473a2.0752,2.0752,0,0,0,.5465-2.0674A49.699,49.699,0,0,0,921.8,327.6117a46.9469,46.9469,0,0,0-5.8621-1.4387c-1.0377-.1847-2.0821-.3328-3.1282-.4606-.2623-.0321-1.3154-.1546-.9328-.0852-.2411-.0437-.48-.1139-.7188-.17l-4.35-1.0312-18.4174-4.3663-27.7695-6.5835-32.5586-7.7188L795.35,298.0017l-28.612-6.7832-19.869-4.71a62.0327,62.0327,0,0,0-8.8763-1.873c-6.26-.5352-12.6526-.1247-18.9219.057-6.6222.1919-13.2458.1971-19.8707.2119a52.6581,52.6581,0,0,1-6.5754-.0544,2.1362,2.1362,0,0,0-2.1249,2.1249,2.1781,2.1781,0,0,0,2.1249,2.125Z"/><path class="cls-4" d="M891.0962,373.39,742.5768,415.9155,804.7562,461.12l109.3182-21.1151c32.2887-12.0693,48.4166-45.7781,38.19-78.7812h0"/><path d="M890.5313,371.3411l-14.7753,4.2306-35.4815,10.1594-42.9212,12.29-37.094,10.6211c-5.99,1.7152-12.0627,3.2614-18,5.154-.0815.0259-.1647.0471-.247.0707a2.1543,2.1543,0,0,0-.5076,3.8838l13.4987,9.8135,26.9485,19.5914,20.0415,14.57c1.2248.89,2.0011,1.68,3.6445,1.3822,1.7179-.3114,3.43-.6624,5.144-.9935l24.1972-4.6738,33.1851-6.41,30.3494-5.8621c5.2367-1.0115,10.5224-1.8871,15.7307-3.0384a24.0463,24.0463,0,0,0,4.2883-1.66,64.4395,64.4395,0,0,0,38.3409-67.9767,76.6052,76.6052,0,0,0-2.5593-11.8345c-.775-2.6163-4.8778-1.5024-4.0981,1.13a64.8738,64.8738,0,0,1,1.7969,31.3912,59.7562,59.7562,0,0,1-24.4976,37.4213,64.6489,64.6489,0,0,1-6.915,4.1827,37.1392,37.1392,0,0,1-7.0913,3.1722c-1.8658.5081-3.8526.7441-5.75,1.1105l-35.1919,6.7975-43.4547,8.3934-16.3411,3.1563c-2.7261.5265-5.4977.95-8.2015,1.5841-.1248.0293-.2527.0488-.3787.0732l1.6374.2142-21.0572-15.3084-33.5064-24.3591-7.6158-5.5366-.5076,3.8839,14.7753-4.2306,35.4816-10.1594,42.9211-12.29,37.0941-10.6211c5.9916-1.7155,12.0582-3.2717,18-5.154.0816-.0258.1648-.0471.247-.0707,2.6247-.7515,1.5088-4.8536-1.13-4.0981Z"/><path class="cls-1" d="M691.3029,953.2214,788.7972,938.59l-3.9878-27.1694-.3735-2.545-12.858,1.93a13.7289,13.7289,0,0,0-11.1537,9.7723h0a13.73,13.73,0,0,1-11.1536,9.7723l-54.2953,7.042-.066-.2091a39.1967,39.1967,0,0,0-12.2843-18.3085l-1.7509-1.4591-1.2611.2163c-13.322,7.58-18.4811,17.9011-20.3281,26.2252q-.0824.37-.1557.7354l-.0051.0251a38.7647,38.7647,0,0,0-.532,12.1077l0,.0028q.0178.1446.0354.2751l.0013.009c.0441.328.0849.5839.1163.7663l.0094.0544.0134.0751.0116.0632.0077.04.0111.0571.001.0047.0051.0254Z"/><path d="M691.8677,955.27l9.6853-1.4535,23.2631-3.4911,28.1527-4.225,24.354-3.6548,8.0637-1.21c1.2544-.1882,2.5652-.2878,3.8028-.5706.0562-.0129.1156-.0174.1728-.026,1.2289-.1844,1.6335-1.596,1.4841-2.6139l-3.7592-25.6122-.6021-4.1022c-.18-1.227-1.6-1.6364-2.6139-1.4842l-11.6434,1.7474a17.7891,17.7891,0,0,0-6.9378,2.3164,16.1979,16.1979,0,0,0-6.9146,9.1223l2.049-1.56h0a2.1735,2.1735,0,0,0-2.049,1.56,11.7028,11.7028,0,0,1-7.9378,7.9129q-.3392.0965-.6833.1761c.0877-.02-1.0485.2121-.5905.1325.1928-.0335.1133-.0117.07-.0044-.0825.0138-.1665.02-.2493.0323-.384.0552-.77.1-1.1545.15l-11.4052,1.4792-33.1962,4.3055-8.2528,1.07,2.0491,1.56a42.11,42.11,0,0,0-9.404-16.162,51.9912,51.9912,0,0,0-5.037-4.58c-2.2824-1.87-5.0309.2223-7.0292,1.5436-8.94,5.9111-15.7284,14.6542-18.2059,25.1713a37.7836,37.7836,0,0,0-.5926,15.8635,2.1776,2.1776,0,0,0,2.6139,1.4842l28.3969-4.2617,4.1012-.6155a2.1394,2.1394,0,0,0,1.4842-2.6139,2.1789,2.1789,0,0,0-2.6139-1.4841l-28.3969,4.2616-4.1013.6155,2.614,1.4841a2.8542,2.8542,0,0,1-.0594-.32c-.0138-.1636-.1517-1.1506-.0774-.4883-.032-.2853-.0659-.57-.0929-.8561a37.452,37.452,0,0,1,1.5473-14.5889,36.1347,36.1347,0,0,1,9.7181-15.382,41.6957,41.6957,0,0,1,5.1086-4.1277c.95-.6517,1.9614-1.21,2.9132-1.8549a3.6151,3.6151,0,0,1,1.5277-.4511l-2.0674-.5464a48.1,48.1,0,0,1,7.4851,7.3613,37.5668,37.5668,0,0,1,6.07,11.6777,2.15,2.15,0,0,0,2.049,1.56l23.0768-2.993,29.6893-3.8506a22.691,22.691,0,0,0,4.4952-.8591,16.145,16.145,0,0,0,10.2366-10.6716l-2.049,1.56h0a2.1738,2.1738,0,0,0,2.0491-1.56,11.7781,11.7781,0,0,1,6.1695-7.2525,18.339,18.339,0,0,1,5.3735-1.3169l10.9844-1.6484-2.6139-1.4842q1.8861,12.8493,3.7719,25.6985l.59,4.016,1.4841-2.6139-9.6853,1.4535-23.2631,3.4911-28.1527,4.2249-24.354,3.6549-8.0637,1.21c-1.2543.1882-2.5652.2878-3.8027.5706-.0563.0129-.1157.0174-.1728.026a2.1394,2.1394,0,0,0-1.4842,2.6139A2.1789,2.1789,0,0,0,691.8677,955.27Z"/><path d="M710.9014,903.4342c.0565.0032.1128.009.1691.0146.0616.0062.1231.0168.1848.0216.1407.0109-.7-.1037-.4213-.0562.0548.0093.11.0165.165.0255a11.7459,11.7459,0,0,1,1.613.3844c.3448.1076.68.2368,1.0163.3666.1143.0441-.5346-.2389-.1481-.06.0813.0377.1631.0744.244.113q.315.15.6208.3191a11.1875,11.1875,0,0,1,1.1346.718c.0421.03.0831.0626.1258.0922.2093.1451-.3771-.3041-.18-.14.0824.0683.1669.1339.2489.2027q.3162.2654.6111.5548.3072.3018.5887.6281c.0618.0715.3931.49.1727.199-.2156-.285.0726.1022.1248.1759a11.4915,11.4915,0,0,1,1.0362,1.8077,2.1341,2.1341,0,0,0,2.9073.7623,2.1843,2.1843,0,0,0,.7623-2.9073,13.245,13.245,0,0,0-9.5883-7.2873,11.76,11.76,0,0,0-1.3882-.1847,2.1382,2.1382,0,0,0-2.1249,2.125,2.1732,2.1732,0,0,0,2.1249,2.1249Z"/><path d="M704.1012,909.8914c.0537.0188.106.0411.1592.061.3533.1321-.56-.2471-.305-.129.0843.0391.17.0758.2538.1155a11.7733,11.7733,0,0,1,1.4509.82q.2114.1394.417.2873c.072.0519.1418.1075.2146.1581.1556.1081-.3228-.2213-.2749-.2136.0375.0061.1226.0967.1565.124a11.829,11.829,0,0,1,.9183.8208,4.855,4.855,0,0,1,.9274,1.0424c.0225.0441-.31-.4208-.1841-.2362.0371.0542.0783.1059.1167.1592q.1023.1422.2.2877.2149.3209.4062.6568.2256.3964.4165.8115c.0229.05.0432.1018.0677.151.1145.23-.189-.4844-.0631-.1467.0533.1427.1093.2842.1593.4282a11.4951,11.4951,0,0,1,.493,2.0122,2.1254,2.1254,0,0,0,.9765,1.27,2.1253,2.1253,0,0,0,3.1216-2.4,13.2422,13.2422,0,0,0-7.2379-9.636,11.5688,11.5688,0,0,0-1.26-.5419,2.1384,2.1384,0,0,0-2.614,1.4841,2.1778,2.1778,0,0,0,1.4842,2.6139Z"/><path d="M692.7357,913.9447c.0537.0188.106.0411.1592.061.3533.1321-.56-.2471-.3051-.129.0844.0391.17.0758.2539.1155a11.7726,11.7726,0,0,1,1.4509.8194q.2114.1395.417.2874c.072.0518.1417.1074.2146.1581.1556.1081-.3228-.2214-.2749-.2136.0375.0061.1226.0967.1565.124a11.8277,11.8277,0,0,1,.9183.8207,4.8555,4.8555,0,0,1,.9274,1.0425c.0225.0441-.31-.4208-.1841-.2362.0371.0542.0783.1058.1167.1592q.1023.1422.2.2877.2151.3207.4063.6567.2256.3966.4165.8116c.0229.05.0432.1018.0677.1509.1145.23-.189-.4843-.0631-.1467.0533.1428.1093.2843.1593.4283a11.4951,11.4951,0,0,1,.493,2.0122,2.1257,2.1257,0,0,0,.9765,1.27,2.1253,2.1253,0,0,0,3.1215-2.4,13.2422,13.2422,0,0,0-7.2378-9.6361,11.5773,11.5773,0,0,0-1.26-.5419,2.1385,2.1385,0,0,0-2.614,1.4842,2.1778,2.1778,0,0,0,1.4842,2.6139Z"/><path class="cls-1" d="M678.93,320.6792l-7.5238-34.7183c-1.0791-4.9795-5.2933-9.839-10.3723-10.2435l-15.87-1.2637c-6.72-.5351-15.4059,4.0171-15.4059,10.7582v1.7626l14.9734,3.475A21.126,21.126,0,0,1,659.1771,304.14l14.0589,31.6008"/><path d="M680.9787,320.1143l-6.7681-31.2313c-.2767-1.277-.5224-2.5655-.836-3.8342-1.2634-5.1114-5.3959-10.1405-10.7265-11.2322a61.0622,61.0622,0,0,0-7.3441-.68l-9.2266-.7347a19.8042,19.8042,0,0,0-11.9335,2.6963,12.0317,12.0317,0,0,0-6.5115,11.8766,2.1569,2.1569,0,0,0,1.56,2.0491l12.5877,2.9213a24.9766,24.9766,0,0,1,5.9045,1.9029,19.3036,19.3036,0,0,1,8.3962,8.37c.7211,1.4,1.2242,2.9113,1.8656,4.3528l2.2723,5.1076,6.7341,15.1367,4.4484,9.9986a2.14,2.14,0,0,0,2.9073.7624,2.1775,2.1775,0,0,0,.7623-2.9073L664.4483,310.792l-2.5666-5.769c-.2289-.5147-.468-1.0261-.6873-1.5449-.05-.1194-.112-.2353-.1585-.3564-.0068-.0175-.0165-.034-.023-.0517.1713.4611-.01-.1229-.0287-.1808-.1124-.3413-.2661-.6766-.4046-1.0077a23.3406,23.3406,0,0,0-16.14-13.68l-14.1175-3.2763,1.56,2.049a9.6988,9.6988,0,0,1,.5073-4.1326,9.5952,9.5952,0,0,1,3.8994-4.0743,15.5676,15.5676,0,0,1,9.4517-2.143c5.0749.4041,10.188.6515,15.2475,1.2141,4.2756.4755,7.3975,4.5673,8.3286,8.5135.263,1.1148.4879,2.24.7305,3.359l3.8574,17.8,2.976,13.7328c.579,2.6716,4.6769,1.541,4.0981-1.13Z"/><path class="cls-1" d="M904.7306,369.2315l-96.958,28.0165c5.5642,8.7745,17.237,42.2857,22.3391,58.9408,2.06,6.7259,2.9378,27.6149-1.1751,36.4281l95.1831-29.965c56.9923-21.7394,56.9923-63.4554,43.4787-96.3582h0a77.123,77.123,0,0,0-49.18-37.284l-2.4029-.5805-16.472-3.543"/><path d="M904.1657,367.1824l-9.6726,2.795-23.103,6.6757L843.33,384.7614l-24.161,6.9814c-3.9232,1.1336-7.9156,2.1361-11.7967,3.4087-.054.0177-.11.0316-.1641.0474a2.1461,2.1461,0,0,0-1.27,3.1216c2.6947,4.2834,4.57,9.1454,6.4551,13.8207,2.7613,6.8486,5.3019,13.7867,7.7539,20.7513q3.5211,10.0017,6.7447,20.1063a52.0153,52.0153,0,0,1,1.96,7.36,75.0939,75.0939,0,0,1,.8057,9.2806,89.7612,89.7612,0,0,1-.3679,12.301,32.7276,32.7276,0,0,1-2.1872,9.6043c-.7161,1.5657.4806,3.7257,2.4,3.1215l11.3422-3.5707,26.4209-8.3176,29.982-9.4388,22.4047-7.0533a113.1231,113.1231,0,0,0,21.6521-9.2705c11.641-6.5526,22.1864-15.6056,28.6487-27.4524a61.57,61.57,0,0,0,7.0976-32.3564,85.4427,85.4427,0,0,0-2.4466-16.4449q-.9867-4.0089-2.3056-7.9262a64.4242,64.4242,0,0,0-2.8643-7.6139,58.9075,58.9075,0,0,0-6.8184-10.1909,77.5556,77.5556,0,0,0-8.08-8.8427,79.1039,79.1039,0,0,0-20.1159-13.7346c-9.7393-4.6175-20.124-6.5643-30.5678-8.8108l-3.743-.8051c-2.667-.5736-3.8066,3.5223-1.13,4.0981,7.5111,1.6156,15.1686,2.935,22.5464,5.1067a75.3406,75.3406,0,0,1,38.2126,26.1591c1.2274,1.595,2.3836,3.2473,3.4771,4.9367q.7731,1.1943,1.5015,2.4165.3408.5718.6719,1.1492c.1262.22.2527.4406.3755.6628-.3145-.569-.0365-.0759.0234.0754.9946,2.5112,1.9389,5.0373,2.7693,7.6083a92.1693,92.1693,0,0,1,3.6608,15.68,61.7385,61.7385,0,0,1-3.2552,31.0052c-4.4077,11.1972-12.9374,20.5022-22.8534,27.2962a96.24,96.24,0,0,1-25.2706,12.4265l-19.4233,6.1147-28.9047,9.1-27.7643,8.7406L829.11,490.3354l-.7384.2325,2.4,3.1215c2.8761-6.2883,3.1925-13.7635,3.1938-20.5725.0012-6.13-.2755-12.5556-2.0988-18.4488-4.3107-13.9329-9.0992-27.7626-14.4486-41.3311-2.2771-5.7757-4.4884-11.8808-7.81-17.1615l-1.27,3.1215,9.6725-2.7949,23.1031-6.6758,28.0606-8.1082,24.1609-6.9815c3.9232-1.1336,7.9156-2.136,11.7968-3.4087.054-.0177.1094-.0316.164-.0474,2.6226-.7578,1.5072-4.86-1.13-4.0981Z"/><path d="M829.3555,492.78c4.8052-1.472,4.4794-17.209.1687-37.1791L806.61,461.4768C814.4542,481.67,824.3648,494.3093,829.3555,492.78Z"/><path d="M829.92,494.83c3.6514-1.2163,4.4562-5.5995,4.8335-8.9364.6614-5.85-.0293-11.868-.8248-17.6684-.6069-4.4261-1.4185-8.8209-2.3559-13.1883a2.1542,2.1542,0,0,0-2.6139-1.4842l-20.0314,5.1363-2.883.7392a2.1368,2.1368,0,0,0-1.4842,2.614,117.1851,117.1851,0,0,0,10.1722,20.69c2.5887,4.0424,5.6681,8.5352,9.8722,11.0653A6.8357,6.8357,0,0,0,829.92,494.83c2.6271-.7442,1.5106-4.8461-1.13-4.0981a2.8367,2.8367,0,0,1-.34.081c.3041-.0466.3912.0108.09-.0324-.6709-.0963.2143.1564-.39-.0387-.1317-.0425-.27-.0793-.4039-.1157-.0755-.0207-.5053-.196-.2329-.0794s-.1772-.091-.2474-.1291c-.1735-.0944-.3469-.1877-.5162-.29a8.3539,8.3539,0,0,1-1.6865-1.2646,26.25,26.25,0,0,1-2.1088-2.1278,66.0117,66.0117,0,0,1-9.1446-14.2445c-1.9137-3.77-3.6145-7.6409-5.1514-11.5786l-1.4841,2.6139,20.0314-5.1363,2.883-.7392-2.6139-1.4841a124.6389,124.6389,0,0,1,3.2527,24.3141,30.18,30.18,0,0,1-.6024,7.5138,12.8542,12.8542,0,0,1-.4626,1.5065c-.1615.4266.1587-.2874-.0628.1328-.0991.188-.2132.3727-.3077.5624-.2061.4138-.0418.0957-.0513.1063-.1049.1188-.22.2285-.3251.3466-.22.2478.4079-.1992-.0767.05-.5225.2686.3032-.0844-.0487.0328C826.2085,491.5915,827.3152,495.6972,829.92,494.83Z"/><path class="cls-1" d="M699.0882,316.94l5.5255-7.2938a35.5874,35.5874,0,0,1,24.235-13.857l30.1695-3.5263-1.0319-3.8184a21.7691,21.7691,0,0,0-23.3046-15.9684l-28.244,2.9874a21.7689,21.7689,0,0,0-18.5611,15.3928L673.236,335.7411l-7.1106,109.0843"/><path d="M700.923,318.0121c2.23-2.9435,4.3463-6.0295,6.78-8.81a33.9123,33.9123,0,0,1,19.2287-10.9842c2.7839-.5264,5.6437-.7394,8.4547-1.068l14.2309-1.6633,9.4012-1.0989a2.16,2.16,0,0,0,2.0491-2.69,54.13,54.13,0,0,0-1.9517-6.5133,23.8519,23.8519,0,0,0-6.5846-9.1853,24.1769,24.1769,0,0,0-18.1278-5.6187c-8.3809.87-16.7586,1.7725-25.1378,2.6588-4.636.49-9.07,1.2339-13.126,3.7632a24.9363,24.9363,0,0,0-10.446,13.9q-3.6487,11.26-7.3408,22.5054l-4.551,13.9524c-.8415,2.58-1.7953,5.15-2.5319,7.7625a12.9656,12.9656,0,0,0-.2786,2.6584l-.45,6.898-1.62,24.8447-2.0374,31.2556-1.8334,28.1273-1.0046,15.4109-.0461.7078c-.178,2.7306,4.0726,2.72,4.25,0l.6812-10.45,1.6452-25.2389,2.02-30.9845,1.7729-27.1985.9539-14.6332c.01-.1521.0323-.3092.03-.4618-.0055-.3782-.0735.43-.06.421.3-.1969.5146-1.5779.6205-1.9025l3.3976-10.4164,8.93-27.3762c.6538-2.0045,1.2724-4.0252,1.9606-6.0182a19.8223,19.8223,0,0,1,15.5562-12.8856c2.8622-.4554,5.79-.6332,8.6711-.9379l14.8255-1.5681c3.4122-.3609,7.0058-1.0123,10.4267-.5262a19.8374,19.8374,0,0,1,15.5327,12.1573,57.2592,57.2592,0,0,1,1.755,6.0216l2.049-2.69-22.7837,2.6631c-2.8116.3286-5.6318.6152-8.4366,1a37.8322,37.8322,0,0,0-21.1187,10.3081c-3.5787,3.477-6.4206,7.7919-9.4258,11.7589a2.138,2.138,0,0,0,.7623,2.9073,2.1775,2.1775,0,0,0,2.9073-.7623Z"/><path d="M700.923,318.0121c2.23-2.9435,4.3463-6.0295,6.78-8.81a33.9123,33.9123,0,0,1,19.2287-10.9842c2.7839-.5264,5.6437-.7394,8.4547-1.068l14.2309-1.6633,9.4012-1.0989a2.16,2.16,0,0,0,2.0491-2.69,47.9888,47.9888,0,0,0-2.52-7.8243,23.9205,23.9205,0,0,0-8.0593-9.4456c-5.126-3.5759-11.16-4.5684-17.2605-3.9231-8.8956.9409-17.7972,1.8366-26.6879,2.8228a24.2313,24.2313,0,0,0-18.714,12.2052c-1.6128,2.9278-2.4964,6.2865-3.53,9.4569l-9.8937,30.3318c-1.03,3.158-2.1708,6.3019-3.0962,9.4925a12.6668,12.6668,0,0,0-.3127,2.7061l-1.2182,18.2727-2.0716,31.0738-2.3186,34.7788-1.9874,29.8117-1.0505,15.7575-.0484.7254c-.182,2.73,4.0686,2.7192,4.25,0l.714-10.7107,1.7729-26.5931,2.252-33.78,2.1707-32.56,1.5277-22.9154.3392-5.089a4.3615,4.3615,0,0,0,.03-.4534c-.0142-.3619-.198.5823-.05.4085a8.7349,8.7349,0,0,0,.808-2.4771l9.3613-28.7,3.8563-11.8224c.1986-.6089.4-1.2167.5958-1.8266a20.2243,20.2243,0,0,1,6.5414-9.6732,19.6472,19.6472,0,0,1,9.9821-4.1608c1.0986-.1275,2.2-.2327,3.3-.349l15.7921-1.67c3.5589-.3764,7.1652-.9619,10.7469-1.0767a19.87,19.87,0,0,1,18.5156,11.3687,41.3659,41.3659,0,0,1,2.1653,6.968l2.049-2.69-22.7837,2.6631c-2.8116.3286-5.6318.6152-8.4366,1a37.8322,37.8322,0,0,0-21.1187,10.3081c-3.5787,3.477-6.4206,7.7919-9.4258,11.7589a2.138,2.138,0,0,0,.7623,2.9073,2.1775,2.1775,0,0,0,2.9073-.7623Z"/><path d="M632.778,399.3207c-.0069.1834-.0278.3656-.0427.5484-.0257.3161-.1194.7637-.0022.0823-.0493.2863-.0861.5747-.1377.8608a27.1439,27.1439,0,0,1-1.4147,4.9144,1.8618,1.8618,0,0,1-.1546.3744c-.11.2479-.2218.495-.3385.74q-.41.8607-.8821,1.69-.4262.7486-.9017,1.4676c-.3332.5038-.8086,1.1619-.9922,1.3933a24.68,24.68,0,0,1-6.65,5.8393,35.2951,35.2951,0,0,1-12.8451,4.37,2.14,2.14,0,0,0-1.4842,2.6139,2.1771,2.1771,0,0,0,2.614,1.4841c7.7442-1.2226,15.4136-4.42,20.6518-10.4391a28.2573,28.2573,0,0,0,6.3934-12.7874,19.598,19.598,0,0,0,.4364-3.1518c.1029-2.7351-4.1471-2.7308-4.25,0Z"/><path d="M648.1966,467.94l-1.7645,33.5252q-.3837,7.2924-.7676,14.5847a83.018,83.018,0,0,0,5.5614,34.7513c2.2522,5.7054,4.7493,11.3218,7.1317,16.9738a2.197,2.197,0,0,0,2.6139,1.4841,2.1379,2.1379,0,0,0,1.4842-2.6139q-3.1587-7.4937-6.3174-14.9874a80.1059,80.1059,0,0,1-6.2429-35.2473q.8894-17.3087,1.8219-34.615l.7292-13.8555c.1438-2.7332-4.1064-2.7253-4.25,0Z"/><line class="cls-8" x1="531.6114" y1="573.84" x2="531.6365" y2="532.5703"/><path d="M533.7363,573.84l.022-36.0806.0032-5.1891c.0016-2.7347-4.2482-2.7391-4.25,0l-.022,36.0806-.0032,5.1891c-.0016,2.7347,4.2482,2.7391,4.25,0Z"/><circle class="cls-9" cx="683.9911" cy="352.2422" r="3.216"/><circle class="cls-9" cx="682.2054" cy="394.6558" r="3.216"/><circle class="cls-9" cx="680.4197" cy="437.0694" r="3.216"/><circle cx="745.2389" cy="888.633" r="9.0048"/><circle cx="482.8136" cy="754.2043" r="9.0048"/><ellipse class="cls-5" cx="687.351" cy="176.2896" rx="17.688" ry="86.8319" transform="translate(479.2549 854.6888) rotate(-87.3318)"/><path d="M771.9638,180.3318c-.0265.4408.0457-.1793.0276-.1194-.0336.1112-.0388.2312-.0742.3429-.03.0948-.0677.1946-.09.2913-.1073.4725.15-.2479.0128-.0274-.133.2138-.2647.4424-.39.6609-.15.2611-.1224.1442.0536-.0585-.1062.1223-.206.25-.3186.367-.2105.2185-.4243.4307-.6524.6311-.1212.1064-.2467.2074-.3711.31-.0013.001.2573-.1735-.09.0611a22.2378,22.2378,0,0,1-1.9976,1.2249q-.5189.2764-1.0506.5275c-.2006.0951-.4029.1865-.6051.2782-.0886.04-.178.0789-.2671.1181-.3537.1552.0864-.0335-.1356.0582-.9309.3842-1.8778.7291-2.8328,1.048-2.2485.751-4.5441,1.3575-6.8542,1.8858-13.224,3.0242-26.9774,3.88-40.5,4.2351a407.26,407.26,0,0,1-52.554-2.0621c-14.1613-1.4658-28.434-3.5633-42.1311-7.5437a65.4935,65.4935,0,0,1-12.8743-4.9059c-.7685-.4126-1.523-.8531-2.25-1.336q-.4887-.3249-.9582-.6763c.2881.2149.0861.0727-.0663-.0564s-.3086-.2564-.4586-.39c-.2457-.2189-.4842-.4463-.71-.6856-.1606-.17-.6916-.8736-.3332-.3577-.158-.2275-.3082-.4548-.4514-.6922-.0674-.1115-.117-.2326-.1789-.3469.01.019.1236.464.0129.0113-.052-.2126-.1034-.437-.1648-.6463.1807.6153.08.0243.03-.2812-.057-.3489-.0515.2356-.03.1691.0348-.11.0388-.2315.0742-.3429s.0755-.2261.1072-.34c.1092-.3916-.2558.366-.0063.0281a6.5472,6.5472,0,0,0,.3661-.6133c.2114-.3681-.0424.0422-.0157.0125.1091-.1211.2118-.2476.3236-.3665.1931-.2053.3978-.4.61-.5855.1212-.1065.2467-.2074.3711-.31.18-.1482-.1481.1133-.1475.1129.0987-.0729.1963-.1485.298-.2173a21.3755,21.3755,0,0,1,1.9366-1.1817q.56-.2985,1.1356-.5674c.1726-.0812.3462-.16.52-.2383.1188-.0535.2382-.1055.3577-.1572.3117-.1348-.2758.1134.0451-.019a52.3537,52.3537,0,0,1,6.1908-2.0608c12.3009-3.3608,25.3-4.3413,37.9894-4.8982a400.3009,400.3009,0,0,1,52.1965,1.2464c14.8666,1.2935,29.7974,3.2744,44.27,6.9952A92.5859,92.5859,0,0,1,763.857,173.66a33.58,33.58,0,0,1,4.8972,2.648q.4514.3025.8863.6282c-.3354-.25-.0127-.0109.1254.105.1528.1283.3055.2566.4538.39.2265.2039.4466.4151.6559.6368.1062.1123.2053.2308.31.3441.2771.2991.1063.1333.059.0629.1426.2126.2783.4269.4154.6428.07.11.1156.2335.1789.3469.024.0431-.128-.47-.03-.0609.0548.2282.1155.4709.1817.696-.1745-.5936-.0156-.1189-.0272.2314-.09,2.7355,4.16,2.7322,4.25,0,.1031-3.1191-2.2916-5.5081-4.6243-7.21-3.4862-2.5437-7.6846-4.1583-11.7309-5.5627-13.2957-4.6147-27.4783-6.8247-41.3983-8.5383a405.451,405.451,0,0,0-54.4972-2.9559c-14.7492.1825-29.7144.9924-44.2,3.9415a63.5978,63.5978,0,0,0-13.8874,4.2006c-2.8093,1.2883-5.8941,3.1617-7.0261,6.2031-2.6178,7.0333,7.8162,11.4272,12.6258,13.3562,12.1907,4.8894,25.5465,7.146,38.4878,8.9643A403.0052,403.0052,0,0,0,704.14,196.54c15.494.0715,31.1348-.58,46.4365-3.1584a83.4352,83.4352,0,0,0,15.3054-3.79c3.1923-1.19,6.7175-2.7012,8.8662-5.4717a6.7164,6.7164,0,0,0,1.4652-3.7874C776.3781,177.6,772.1276,177.61,771.9638,180.3318Z"/><path class="cls-5" d="M645.543,166.6416a46.31,46.31,0,0,1,46.31-46.31c25.5765,0,46.31,24.9146,46.31,50.4911,0,0-16.08,9.648-48.24,9.0048C662.9094,177.2544,645.543,166.6416,645.543,166.6416Z"/><path d="M647.668,166.6416A44.59,44.59,0,0,1,676.71,125.1123a41.6287,41.6287,0,0,1,27.105-.6975,45.834,45.834,0,0,1,22.0165,16.4271,51.16,51.16,0,0,1,10.2071,29.98l1.0525-1.8348c-.5085.304-1.0436.5678-1.5754.8275-.6594.3221-1.3291.6206-2.0009.9158-.486.2135.1388-.0542-.1722.0736-.2207.0907-.4412.1818-.6626.2709q-.7737.3109-1.5553.6021a94.2978,94.2978,0,0,1-19.073,4.74,124.31,124.31,0,0,1-13.9139,1.226c-2.7183.0958-5.4974.2258-8.2142.0591a78.159,78.159,0,0,1-7.883-1.0226,120.9214,120.9214,0,0,1-25.0368-6.9152,69.5772,69.5772,0,0,1-10.3885-4.9577c-2.3415-1.4274-4.4794,2.2466-2.145,3.67a74.1954,74.1954,0,0,0,10.7809,5.1357,120.9064,120.9064,0,0,0,28.25,7.5653,65.6818,65.6818,0,0,0,9.2456.8053q4.5042.0078,9.0033-.2639a127.6968,127.6968,0,0,0,15.1117-1.8125,86.6047,86.6047,0,0,0,18.6668-5.4494,29.5666,29.5666,0,0,0,3.4414-1.6482,2.5535,2.5535,0,0,0,1.3172-2.3382,43.5667,43.5667,0,0,0-.6376-7.5642,55.9427,55.9427,0,0,0-11.5381-26.0247,50.0589,50.0589,0,0,0-22.5225-16.3461,45.15,45.15,0,0,0-27.9521-.208A48.8132,48.8132,0,0,0,643.956,159.51a51.457,51.457,0,0,0-.5379,7.1314C643.4079,169.3766,647.6578,169.38,647.668,166.6416Z"/><path class="cls-1" d="M689.9238,179.8272c32.16.6432,48.24-9.0048,48.24-9.0048a49.2075,49.2075,0,0,0-.944-9.5277c-24.6423,12.2491-61.0518,8.52-74.31,3.0957-1.9692-17.3277-8.0365-19.464-12.4463-18.5165a46.102,46.102,0,0,0-4.92,20.7677S662.9094,177.2544,689.9238,179.8272Z"/><path d="M689.9238,181.9521a128.0914,128.0914,0,0,0,33.5747-3.48,68.0386,68.0386,0,0,0,14.9988-5.4095c.2461-.1291.5059-.2517.7384-.4052,1.6717-1.1037,1.0372-3.9414.8989-5.67a57.318,57.318,0,0,0-.8659-6.258,2.15,2.15,0,0,0-3.1215-1.27c-9.7134,4.7912-20.65,6.9126-31.3939,7.62a120.3089,120.3089,0,0,1-29.77-1.6,59.496,59.496,0,0,1-11.5092-3.139l1.56,2.049c-.7521-6.4453-1.93-14.8885-7.572-19.0787a8.9189,8.9189,0,0,0-5.327-1.75c-1.131.0039-2.5946.0811-3.341,1.0242a14.97,14.97,0,0,0-1.6418,3.4483c-.5008,1.1956-.9608,2.4064-1.3652,3.638a45.9177,45.9177,0,0,0-1.7388,7.2343,35.2072,35.2072,0,0,0-.63,7.7346c.11,1.5388,1.4247,2.0733,2.5945,2.7034a99.634,99.634,0,0,0,14.095,6.1062,126.2041,126.2041,0,0,0,29.8162,6.5009,2.14,2.14,0,0,0,2.1249-2.1249,2.1712,2.1712,0,0,0-2.1249-2.1249c-14.1029-1.37-28.4357-5.0924-40.9308-11.5853-.8018-.4166-1.6054-.84-2.3775-1.31l1.0525,1.8348a44.6539,44.6539,0,0,1,4.63-19.6952l-1.27.9766c.0341-.0071.4218-.0726.422-.08-.0005.0214-.4753.0258-.01.0035.2534-.0121.5047-.0362.7589-.0348.2006.0011,1.1578.1324.4716.0055.2653.049.5286.0982.7886.1716.1334.0377.2631.0871.396.1255.4762.1376.01-.0093.0866.028.2947.1447.573.3029.8544.4712.1357.0811.2634.1772.3912.27-.4274-.31.0676.0607.1509.1393.2847.2684.5639.5352.8229.8289a11.01,11.01,0,0,1,1.3438,2.0178,18.7939,18.7939,0,0,1,1.2736,2.9634,46.3024,46.3024,0,0,1,2.0057,9.5574,2.2747,2.2747,0,0,0,1.56,2.0491c7.7317,3.1349,16.4522,4.2078,24.7085,4.8114a119.19,119.19,0,0,0,33.2477-2.0156,76.26,76.26,0,0,0,17.9915-6.1058l-3.1216-1.27a48.5551,48.5551,0,0,1,.8682,8.9628l1.0525-1.8348c-.5791.3462-1.1908.6435-1.7982.9354q-.4887.2349-.9831.4573-.2691.1213-.54.24c-.1069.0467-.2141.0926-.321.1391-.506.22.3111-.1263-.1066.0454q-1.5479.6363-3.1223,1.2032a97.0886,97.0886,0,0,1-21.57,4.8561,141.2121,141.2121,0,0,1-18.7266.8385C687.188,177.6518,687.1878,181.9016,689.9238,181.9521Z"/><path class="cls-3" d="M779.3285,277.5935l-4.297.6258a72.3838,72.3838,0,0,0-61.9525,71.6282v51.161A44.5019,44.5019,0,0,0,756.2329,445.49l20.5228.6219V421.67h0c-22.347-3.6634-45.0239-3.8592-40.4629-49.3571l.5613-11.2094c1.508-30.1175,8.3848-59.0686,61.1272-62.9278"/><path d="M778.7636,275.5445A115.6094,115.6094,0,0,0,767.232,277.6a74.6437,74.6437,0,0,0-54.2967,55.1408,87.965,87.965,0,0,0-1.9813,20.2086v41.2927c0,5.2248-.13,10.4076.839,15.5768a46.55,46.55,0,0,0,16.0757,27.1129A47.2046,47.2046,0,0,0,756.33,447.6178c6.1891.203,12.38.3751,18.5691.5627l1.8563.0562a2.1516,2.1516,0,0,0,2.125-2.1249V421.67a2.1443,2.1443,0,0,0-1.56-2.049c-5.0228-.8234-10.0833-1.4595-15.058-2.5536-4.8734-1.0718-9.0552-2.3593-13.0849-5.02a23.167,23.167,0,0,1-8.5372-10.7838c-2.68-6.886-3.0264-14.4756-2.7354-21.7791.1212-3.0445.4575-6.0708.61-9.1124l.4025-8.0391c.2469-4.931.6025-10.2219,1.2738-14.838,1.5944-10.9638,4.9931-21.6728,12.4665-29.7654,9.6938-10.4969,24.1769-14.9128,38.0494-16.7036,2.4173-.3121,4.8439-.5442,7.2742-.7257,2.7107-.2023,2.7327-4.4538,0-4.25-15.86,1.1839-32.68,4.6974-44.9967,15.4372-8.9666,7.8183-13.8835,18.8739-16.1282,30.37a132.34,132.34,0,0,0-2.0689,18.1318c-.2327,4.2489-.27,8.5313-.6635,12.7674-1.25,13.45-1.3927,30.46,9.5236,40.3424,7.8268,7.0854,18.8037,8.4914,28.82,10.0323,1.2416.191,2.4831.3836,3.7228.5868l-1.56-2.049v24.4416l2.1249-2.125-17.5-.53a63.6049,63.6049,0,0,1-8.329-.58,42.4568,42.4568,0,0,1-33.2973-27.6914,43.1626,43.1626,0,0,1-2.4252-14.2025c-.004-1.2239,0-2.448,0-3.672V356.6141a133.8175,133.8175,0,0,1,.4456-14.8235,70.0175,70.0175,0,0,1,10.36-29.3891,71.0262,71.0262,0,0,1,49.8416-32.17q2.021-.2958,4.0421-.5886a2.1389,2.1389,0,0,0,1.4841-2.614,2.18,2.18,0,0,0-2.6139-1.4841Z"/><path class="cls-4" d="M776.0392,406.5181l-72.8911,19.4778c-9.45,2.465-9.9839,15.7512-.7317,18.8784,3.8235,1.2923,13.2321,1.1243,20.1738.7386,0,0,5.575,39.4749,7.2988,73.4766,33.7133,10.3929,36.3113-5.7755,41.4492-48.0734l42.0056-11.492"/><path d="M775.4744,404.469l-12.8235,3.4267-27.2372,7.2783-25.2651,6.7513L703.5,423.7019a12.9636,12.9636,0,0,0-7.9489,5.2843,12.23,12.23,0,0,0,1.7044,15.2269,14.0052,14.0052,0,0,0,8.2433,3.42,76.3062,76.3062,0,0,0,11.2454.3417c1.95-.0469,3.8986-.13,5.8461-.2366l-2.0491-1.56q.08.57.1578,1.1393.0851.62.1687,1.24c.0786.5795-.0414-.3132.0387.2879q.0763.5727.1525,1.1454.7338,5.54,1.4057,11.0887c1.4226,11.7011,2.6783,23.4242,3.6956,35.1677.6588,7.6049,1.2141,15.2192,1.6039,22.8428a2.1966,2.1966,0,0,0,1.56,2.049c8.8286,2.708,20.5536,5.6823,28.8467-.1254,7.8915-5.5265,10.1718-16.2968,11.81-25.1722,1.5163-8.2165,2.4752-16.5344,3.4826-24.8248l-1.56,2.0491,32.4388-8.8748c3.04-.8317,6.0926-1.6281,9.1226-2.4958.1476-.0422.2962-.081.4442-.1215,2.6348-.7209,1.5163-4.822-1.13-4.0981l-2.4786.6781L792.8037,462.94l-22.03,6.0272a2.2071,2.2071,0,0,0-1.56,2.049c-.8554,7.04-1.6919,14.0894-2.8708,21.0843a86.0929,86.0929,0,0,1-3.7693,15.5356c-.1845.5-.3772.9979-.5822,1.49-.0063.015-.0211.0575-.152.3464-.1248.2754-.2493.5507-.38.8234a26.9529,26.9529,0,0,1-1.4177,2.6053q-.3588.5769-.752,1.1314-.18.2523-.3665.4994c.2751-.3622-.1695.2039-.2648.3172a16.6918,16.6918,0,0,1-1.8283,1.8629c-.1665.1444-.3365.2846-.5087.4223.3249-.26-.0175.0128-.1613.1139-.3592.2527-.7239.4953-1.1023.7187q-.535.3159-1.0951.5867-.3015.1458-.61.2783c.4177-.1795-.1222.0418-.28.1a17.5844,17.5844,0,0,1-2.6288.7351q-.3162.0633-.6343.1163c-.1108.0184-.8253.1126-.3685.058q-.7785.093-1.5616.1361c-5.9541.3266-11.6691-1.1712-17.4262-2.937l1.56,2.049c-1.1691-22.8641-3.6232-45.6809-6.61-68.3744-.2487-1.89-.4989-3.78-.7652-5.6671a2.1205,2.1205,0,0,0-2.049-1.56c-3.8116.2083-7.633.3379-11.4505.2559-2.8113-.06-6.0879.0212-8.7238-1.13a7.442,7.442,0,0,1-4.1934-4.7054,8.0511,8.0511,0,0,1,.5549-6.0266c1.2439-2.3359,3.3679-3.4184,5.9129-4.0984l6.3579-1.6989,24.0563-6.4283,26.7382-7.145c4.8346-1.2919,9.759-2.4108,14.5419-3.8858.0722-.0223.1465-.0392.22-.0587,2.64-.7053,1.52-4.8061-1.13-4.0981Z"/><path class="cls-4" d="M762.8882,468.5949c.1973,8.57-8.3164,25.8323-13.8553,39.1759s7.9623,19.9516,17.0329,7.92c10.2048-13.978,11.0685-33.47,12.6445-42.821.6351-3.7687,6.9871-5.6111,11.0509-6.6957l39.763-10.5725"/><path d="M760.7633,468.5949a28.6385,28.6385,0,0,1-1.6516,8.7315c-1.1974,3.8913-2.6914,7.6892-4.2432,11.4507-1.6381,3.9707-3.3733,7.9-5.08,11.8419-1.5953,3.6835-3.5816,7.4063-4.0672,11.4363-.7384,6.1292,3.1876,12.0026,9.6889,12.0636,7.8331.0735,13.036-7.2331,16.2336-13.4669,3.6656-7.1462,5.717-14.9854,7.05-22.8695.5725-3.3858,1.0127-6.7912,1.4625-10.1948.1478-1.1184.3183-2.3852.5149-3.6149a3.5025,3.5025,0,0,1,1.7225-2.6942c3.0131-2.0767,6.8434-2.7662,10.342-3.6964l12.3327-3.2792c8.1781-2.1744,16.3935-4.2416,24.5419-6.5253.159-.0446.3193-.085.4789-.1274,2.6406-.7021,1.52-4.8027-1.13-4.0981l-20.6058,5.4789c-6.959,1.85-13.9672,3.5721-20.8858,5.5707-3.18.9185-6.8843,2.0823-9.1672,4.6255-2.002,2.23-2.002,5.3971-2.3763,8.2252a137.4007,137.4007,0,0,1-3.8771,20.5819,58.6213,58.6213,0,0,1-4.34,10.986c-1.726,3.27-3.7738,6.757-6.86,8.9233-2.1639,1.519-4.73,2.3235-6.9492,1.72a5.0565,5.0565,0,0,1-2.4653-1.4746,5.8259,5.8259,0,0,1-1.3942-2.7938c-.701-3.0676.7134-6.3105,1.9376-9.1861,1.66-3.9,3.3775-7.776,5.0428-11.674,2.9844-6.9859,6.3217-14.2369,7.6062-21.7783a22.913,22.913,0,0,0,.3878-4.162c-.0387-2.7324-4.2887-2.74-4.25,0Z"/><path class="cls-4" d="M765.5656,462.7141s.9595,31.3369-10.1879,51.3388c-7.1017,12.2848-20.6874,7.3758-17.0881-5.7988s8.4475-33.079,7.207-41.1674"/><path d="M763.4406,462.7141a122.3989,122.3989,0,0,1-.4381,13.1411,113.5,113.5,0,0,1-5.086,26.9978,62.7659,62.7659,0,0,1-2.642,6.7313,24.048,24.048,0,0,1-3.615,6.05,10.3394,10.3394,0,0,1-4.3032,3.01,5.58,5.58,0,0,1-3.8691.0413,6.9364,6.9364,0,0,1-1.4262-.7786,5.2185,5.2185,0,0,1-1.1991-1.38,8.1648,8.1648,0,0,1-1.03-4.698,32.2292,32.2292,0,0,1,1.4976-6.6928q.9833-3.717,1.8974-7.4518c1.3968-5.7263,2.683-11.4932,3.5952-17.3187.7115-4.5444,1.392-9.2545.724-13.8438a2.1389,2.1389,0,0,0-2.6139-1.4842,2.18,2.18,0,0,0-1.4842,2.614c-.0681-.4679.0232.2267.0261.261.0189.2222.0382.4439.052.6664.0247.3979.0371.7966.0421,1.1952.0123.99-.0261,1.98-.0909,2.9681-.15,2.2931-.4465,4.5736-.8084,6.8421-.88,5.5158-2.0885,10.9789-3.4028,16.4057q-.9522,3.9316-1.9887,7.8422a44.1606,44.1606,0,0,0-1.655,7.3831c-.3527,4.0522,1.087,8.29,4.5992,10.5717,3.2946,2.1407,7.59,1.7217,10.8711-.2037,4.2895-2.5176,6.6631-7.0413,8.57-11.4542,4.0847-9.4533,6.0873-19.6647,7.1823-29.8635a128.9141,128.9141,0,0,0,.8461-17.5516c-.0818-2.7286-4.3321-2.74-4.25,0Z"/><path class="cls-4" d="M752.857,462.4847s2.1587,31.2886-8.2163,51.6238c-6.6272,12.4973-20.3927,8.0118-17.3-5.2665s7.7809-36.3141,6.2314-44.3594"/><path d="M750.732,462.4847a124.924,124.924,0,0,1,.004,14.5389c-.4741,9.7575-1.7961,19.6091-4.9555,28.887-1.4208,4.1723-3.1362,9.1907-6.8532,11.889a7.63,7.63,0,0,1-4.13,1.5531,5.3518,5.3518,0,0,1-3.4446-1.0923,6.2932,6.2932,0,0,1-2.1733-3.8964,13.828,13.828,0,0,1,.4082-5.8115q1.6622-7.2029,3.0784-14.46c1.109-5.7224,2.0981-11.4764,2.7665-17.2685.4886-4.2341.97-8.6769.1884-12.9062a2.1442,2.1442,0,0,0-2.6139-1.4841,2.1708,2.1708,0,0,0-1.4841,2.6139c.0325.1763.063.3525.09.53-.0772-.509.0134.1394.0188.2014.03.35.06.6991.0793,1.05.0519.965.0509,1.9327.025,2.8986-.0608,2.264-.2626,4.5237-.5164,6.7735-.5886,5.2195-1.4928,10.4045-2.4783,15.562q-1.4735,7.7109-3.2516,15.36c-1.0227,4.4317-1.1615,9.2356,1.9389,12.909a9.6847,9.6847,0,0,0,10.3048,2.7845c4.8039-1.5315,7.8075-5.7277,9.7961-10.1312,4.44-9.8327,6.3105-20.6723,7.1623-31.3651a130.1851,130.1851,0,0,0,.29-19.1352c-.1855-2.7139-4.4368-2.7345-4.25,0Z"/><path class="cls-4" d="M722.59,440.325s1.3023,47.7586-4.1971,69.6932c-5.5478,18.9569,21.7461,20.9119,21.5607-49.2112"/><path d="M720.4652,440.325c.2474,9.1225.1827,18.2642-.0556,27.3855-.2035,7.7879-.5644,15.5781-1.2694,23.3379a123.2136,123.2136,0,0,1-3,19.1507c-1.1258,4.4466-1.0139,11.7371,4.621,13.0743,6.3859,1.5155,11.1394-6.3557,13.3359-11.0682a72.5164,72.5164,0,0,0,5.1962-16.94,165.1626,165.1626,0,0,0,2.6805-26.4205c.0795-2.6787.11-5.3584.1048-8.0381-.0049-2.7344-4.2548-2.7393-4.25,0a190.72,190.72,0,0,1-1.6835,27.6811,89.38,89.38,0,0,1-4.443,18.5091q-.3066.82-.6392,1.63c-.16.39-.05.1226-.0153.04q-.0758.1791-.1539.3575c-.1276.29-.2557.5791-.3881.8666-.4393.9531-.9125,1.8912-1.4295,2.8047-.4514.7976-.9355,1.5774-1.4624,2.3275-.1371.1952-.7832,1.0323-.4041.5613-.2527.314-.5074.6254-.7768.9254a16.6329,16.6329,0,0,1-1.4589,1.4241c-.0606.0528-.4752.38-.1449.1239.3265-.2526-.0992.0718-.1818.1273-.2316.1558-.4621.3105-.7046.4491-.2244.1283-.4649.2257-.69.351-.2649.1477.5694-.165.1319-.0607-.1245.03-.2464.0877-.37.1245-.1927.0576-.43.0707-.6132.1462-.2932.1206.5837.0015.1791-.0241-.1121-.0071-.2292.0216-.3424.0182a2.744,2.744,0,0,0-.53-.0265c.6022-.1213.4918.1189.2138.0186a2.3356,2.3356,0,0,0-.3092-.079c-.0909-.0183-.179-.08-.2695-.0925-.2386-.0337.5181.3224.2181.0876a2.59,2.59,0,0,0-.4927-.2889c-.325-.1384.299.3342.148.1178a2.1674,2.1674,0,0,0-.22-.196c-.138-.145-.266-.3069-.4075-.4472.5528.5479.1.1265-.0492-.1188-.1227-.2019-.211-.421-.3283-.6246-.1472-.2555.1859.5765.064.1494-.0327-.1145-.0838-.2264-.1213-.3394-.0791-.2383-.1454-.4807-.2021-.7253s-.0912-.4931-.1389-.74c.1645.8514-.0085-.1761-.022-.42a13.2818,13.2818,0,0,1,.0284-1.8042c.0133-.165.038-.33.0483-.495.0294-.4684-.1005.5311.0066-.0562.0642-.3516.1186-.704.1931-1.0538.52-2.4378,1.1576-4.835,1.5845-7.2965.602-3.471,1.05-6.97,1.42-10.4731.79-7.4861,1.2062-15.0108,1.4646-22.5324q.5308-15.447.19-30.9195-.0059-.2547-.0125-.5094c-.074-2.7294-4.3242-2.74-4.25,0Z"/><polyline class="cls-1" points="608.881 945.235 515.617 806.303 330.283 806.303 293.07 702.105 234.539 851.327 213.313 823.67 187.585 879.628"/><path d="M610.7155,944.162l-10.2771-15.3093-24.2731-36.1585-28.4319-42.3537L524.98,816.4456l-6.1731-9.1958c-.9149-1.3628-1.64-2.9886-3.4729-3.0713-6.8486-.3089-13.7832,0-20.6367,0H330.2827l2.049,1.56-12.6112-35.3122-20.0083-56.0242L295.1188,701.54a2.1463,2.1463,0,0,0-4.0981,0l-5.824,14.8479-13.9851,35.6544-16.9167,43.1283-14.5657,37.1345L234.88,844.6683a41.0226,41.0226,0,0,0-2.2866,5.8295,1.8734,1.8734,0,0,1-.1038.2647l3.8838-.5076-21.2256-27.6575c-.858-1.1181-2.9248-1.62-3.67,0L188.95,871.5955l-3.2,6.96c-1.1346,2.4679,2.5273,4.63,3.67,2.145l22.5279-48.9982,3.2-6.96h-3.67L232.7038,852.4a2.1614,2.1614,0,0,0,3.8838-.5076l5.824-14.848L256.3967,801.39l16.9167-43.1283,14.5657-37.1345,4.8493-12.3629a41.1033,41.1033,0,0,0,2.2865-5.83,1.88,1.88,0,0,1,.1039-.2648h-4.0981l12.6113,35.3123L323.64,794.0065l4.5935,12.8619a2.1961,2.1961,0,0,0,2.049,1.56h177.735c2.3122,0,4.987.376,7.2776,0a2.0649,2.0649,0,0,1,.3214,0l-1.8348-1.0524,9.2974,13.85,22.2077,33.0818L572.268,894.5l23.2414,34.6217c3.7759,5.6248,7.3361,11.4993,11.3733,16.9424.0579.078.1089.1622.1631.2429,1.5167,2.2593,5.2.1344,3.67-2.145Z"/><path class="cls-1" d="M234.4552,291.8486h0a5.153,5.153,0,0,1-3.416-6.4371l74.6645-243.51,9.853,3.0211-74.6644,243.51A5.153,5.153,0,0,1,234.4552,291.8486Z"/><path d="M235.02,289.8a3.0724,3.0724,0,0,1-1.8975-3.935c.0871-.2935.1795-.5855.2692-.8782l1.27-4.1413,5.1755-16.8791,7.9128-25.8067,9.8334-32.0707,10.8237-35.3005,10.981-35.8132,10.2751-33.5112,8.7063-28.3947,6.2745-20.4636c.99-3.2288,2.127-6.45,2.98-9.7182.0369-.1415.0861-.2809.129-.4208l-2.6139,1.4841,9.853,3.0211-1.4841-2.6139-2.0408,6.6558-5.547,18.091-8.19,26.7116-9.9705,32.5178-10.8878,35.51L265.9292,199.53l-10.1334,33.049-8.4618,27.597-5.927,19.33c-.8412,2.7434-1.5905,5.5374-2.53,8.25A3.0873,3.0873,0,0,1,235.02,289.8c-2.6436-.7142-3.7715,3.3844-1.13,4.098a7.4067,7.4067,0,0,0,9.0571-4.92c.07-.2073.1285-.4189.1926-.628l1.1623-3.7908,4.9944-16.2887,7.8615-25.64,9.7944-31.9434,10.8687-35.447,11.0626-36.08,10.4085-33.946,8.8287-28.794L314.4653,55.73c1.0031-3.2715,2.0731-6.5306,3.0114-9.8214.04-.1411.086-.2807.129-.4209a2.16,2.16,0,0,0-1.4841-2.614l-9.853-3.0211a2.16,2.16,0,0,0-2.6139,1.4842l-2.08,6.784L295.927,66.5394,287.6316,93.594l-10.0761,32.8623-11.0133,35.9186-11.0308,35.9757L245.383,231.3833l-8.4061,27.4155-5.76,18.7845c-.74,2.4142-1.5478,4.8187-2.2236,7.2521a7.38,7.38,0,0,0,4.8966,9.0622C236.511,294.7012,237.6315,290.6,235.02,289.8Z"/><polygon class="cls-10" points="412.291 133.641 301.806 54.024 272.142 151.951 412.291 133.641"/><path d="M413.3636,131.8065,402.3361,123.86,375.9644,104.856,344.0775,81.8778l-27.6427-19.92-9.05-6.5214c-1.4285-1.0294-2.8254-2.1614-4.3117-3.1071-.0672-.0427-.13-.0938-.1949-.14a2.1424,2.1424,0,0,0-3.1215,1.27l-2.9563,9.7594-7.0974,23.43L281.1575,114.86,273.74,139.3477c-1.193,3.9384-2.594,7.8729-3.5944,11.8661-.0146.0581-.0349.1152-.0523.1725-.36,1.1889.6708,2.87,2.0491,2.69L286.12,152.25l33.5545-4.3837,40.3191-5.2675,35.0645-4.581q8.5014-1.1107,17.003-2.2214l.23-.03a2.1947,2.1947,0,0,0,2.125-2.1249,2.137,2.137,0,0,0-2.125-2.125l-13.9783,1.8262-33.5545,4.3838-40.3191,5.2675-35.0645,4.581L277.83,149.0832c-1.7917.234-3.693.3158-5.4581.713-.0742.0167-.154.02-.23.03l2.049,2.69,2.9563-9.7594,7.0973-23.43,8.5459-28.2118,7.4177-24.4876,2.4271-8.0122c.3818-1.2606.9151-2.5591,1.1674-3.8539.0113-.058.0351-.1158.0522-.1725l-3.1215,1.27,11.0275,7.9467,26.3717,19.0038,31.887,22.9783,27.6426,19.92,9.05,6.5214c1.4284,1.0294,2.8254,2.1614,4.3116,3.107.0672.0428.13.0939.1949.1405a2.1417,2.1417,0,0,0,2.9074-.7623A2.1722,2.1722,0,0,0,413.3636,131.8065Z"/><path class="cls-4" d="M316.7459,296.1051l-24.3947-26.7242a43.4881,43.4881,0,0,0-30.0961-11.7,53.5539,53.5539,0,0,0-6.0358.4345c-16.7393,2.16-21.0591-9.72-7.02-14.5794l9.7153-3.8191"/><path d="M318.2485,294.6025,294.812,268.928c-6.7675-7.4137-16.9765-11.8756-26.8217-13.0659a46.5472,46.5472,0,0,0-10.0981-.06,34.148,34.148,0,0,1-8.5152.2562,14.0525,14.0525,0,0,1-3.2065-.8533c-.1392-.0573-.7143-.3425-1.0016-.51a7.56,7.56,0,0,1-.805-.53,3.549,3.549,0,0,1-1.2125-1.4619c-.2719-.4927.1087.3962-.06-.1323-.0523-.1639-.0957-.3278-.1423-.4932a2.8032,2.8032,0,0,1-.0644-.3341c.0858.5673.0258-.17.0225-.285-.003-.1047.0865-.6487-.0066-.1258.0422-.2369.1066-.4641.17-.6956.0171-.0621.25-.6079.0581-.1888a6.352,6.352,0,0,1,.3755-.6928,7.5638,7.5638,0,0,1,1.8125-1.9056,20.6713,20.6713,0,0,1,4.9859-2.4761l9.1771-3.6075a2.189,2.189,0,0,0,1.4841-2.614,2.14,2.14,0,0,0-2.6139-1.4841l-8.645,3.3983c-3.6834,1.448-7.4885,2.9178-9.76,6.3719a7.3612,7.3612,0,0,0,1.5734,9.8626c4.0164,3.309,9.7726,3.5231,14.7011,2.94a44.225,44.225,0,0,1,20.68,2.0773,38.31,38.31,0,0,1,14.0458,8.6708c4.055,4.1561,7.8513,8.6011,11.7655,12.8891l12.533,13.73c1.848,2.0243,4.8467-.9878,3.0052-3.0052Z"/></svg>