<svg id="Layer_1" data-name="Layer 1" xmlns="http://www.w3.org/2000/svg" width="1000" height="1000" viewBox="0 0 1000 1000"><defs><style>.cls-1{fill:#fc7f3a;}.cls-2{fill:#fff;}.cls-3{fill:#ffc41f;}.cls-4{fill:#ea2f2f;}.cls-5{fill:#389b48;}.cls-6{fill:#1d2b47;}.cls-7{fill:#3620a5;}.cls-8{fill:#458dc9;}</style></defs><path d="M277.4705,923.4154c.018-2.9647.4452-6.1577,2.2839-8.593a9.0731,9.0731,0,0,1,5.2905-3.2559c3.895-.9108,8.1232-.0989,11.8785,1.0639q.9869.3056,1.9559.6666c.1828.0686,1.0126.4082.6039.2326a.9541.9541,0,0,0,1.3812-1.0619,7.5123,7.5123,0,0,1-.0419-2.9643,11.4946,11.4946,0,0,1,4.1715-6.807,19.7338,19.7338,0,0,1,22.7148-2.11,18.5592,18.5592,0,0,1,4.2593,3.2868c.6027.6542,1.937-.0289,1.5714-.9148a17.76,17.76,0,0,1-1.2016-6.7933A14.8291,14.8291,0,0,1,339,883.8253c4.0218-2.7244,8.8656-3.9573,13.6116-4.6713.9584-.1441.8295-1.5828,0-1.8132-6.2038-1.7234-12.6127-3.9079-17.831-7.7971-2.7987-2.0858-5.6041-5.1078-5.63-8.8136-.0239-3.3564,2.2369-6.1618,4.6948-8.2058,3.7058-3.0818,8.385-4.97,12.9683-6.2981a76.1968,76.1968,0,0,1,22.1943-2.6975c.7483.01,1.3285-1.0846.6648-1.6051-8.8741-6.9583-17.8386-14.43-24.7355-23.4318a34.112,34.112,0,0,1-4.9117-8.1749,9.9308,9.9308,0,0,1-.7788-5.7243c.8522-3.4387,4.8851-4.269,8.1938-4.2541,6.0492.0272,12.1173,2.1817,17.5551,4.6613a96.71,96.71,0,0,1,24.3089,16.2638c.6549.5889,1.8851.03,1.5714-.9147-4.6732-14.0692-8.8179-28.748-9.74-43.6173a52.8088,52.8088,0,0,1,.55-13.2069c.5081-2.6379,1.36-5.5607,3.0886-7.5866a5.66,5.66,0,0,1,4.7229-2.2173,10.8543,10.8543,0,0,1,5.9125,2.6929c6.1813,5.0266,9.9992,12.9584,12.8209,20.22,4.7206,12.1484,7.0906,25.1805,8.1537,38.131q.2393,2.9139.3877,5.834a.9451.9451,0,0,0,1.8469.25c3.4353-8.8147,7.4249-17.4484,11.6586-25.9033a232.3912,232.3912,0,0,1,12.0958-21.5472c4.0529-6.3138,8.5206-12.563,14.0848-17.6458,3.7294-3.4068,8.7581-6.9983,14.11-6.2493,4.4607.6243,6.3711,4.1974,6.5492,8.4058.2535,5.99-1.7008,12.0748-3.6864,17.6457a180.7867,180.7867,0,0,1-9.21,20.8762c-4.7815,9.4415-10.0113,18.6914-15.6642,27.64q-.1369.2169-.2748.4333c-.5477.8561.498,1.6575,1.2865,1.2864,3.39-1.5959,6.8838-2.9946,10.394-4.3005,6.52-2.4255,13.3508-4.6715,20.3022-5.3882,4.3219-.4456,11.88-.5446,12.785,5.1682.4156,2.6231-.9811,5.2766-2.368,7.3941a43.0449,43.0449,0,0,1-6.6448,7.5813,87.9643,87.9643,0,0,1-11.67,9.2874.9448.9448,0,0,0,.7245,1.7185,107.1222,107.1222,0,0,1,22.1186-2.1914c4.381.0509,9.4955.2546,13.3514,2.5965,4.6624,2.8316,3.3212,9.5885,1.3382,13.7523a24.3714,24.3714,0,0,1-9.0361,10.0685c-.8829.535-.3163,2.0695.7245,1.7185a10.5042,10.5042,0,0,1,5.634-.3631c4.7658,1.14,4.8531,6.69,4.2914,10.6526-.0645.4552.1058,1.0724.6567,1.1566,7.2516,1.1082,17.0683,4.5911,16.8977,13.4685-.0045.23-.0193.458-.0352.687-.0107.1548-.061.522-.0289.2953-.02.14-.0427.28-.0757.4171-.2826,1.1761,1.53,1.6779,1.8133.5,1.3621-5.6686-2.5631-11.1418-7.2844-13.7964a31.6326,31.6326,0,0,0-10.7869-3.3847l.6567,1.1566c.562-3.9652.6961-9.06-2.8952-11.7249-2.1281-1.5789-4.9235-1.7208-7.4526-1.316a11.7349,11.7349,0,0,0-1.8908.4382l.7245,1.7185a26.7269,26.7269,0,0,0,8.6822-8.8411,20.1181,20.1181,0,0,0,2.9974-9.95c.0534-2.4518-.2678-4.81-1.973-6.6707-3.0672-3.3473-8.4659-4.0062-12.7256-4.3157a87.2913,87.2913,0,0,0-16.4346.628c-3.2669.3829-6.5407.84-9.7675,1.4861l.7245,1.7185a92.83,92.83,0,0,0,10.7615-8.3955,53.1252,53.1252,0,0,0,7.294-7.81c1.7642-2.3862,3.3619-5.1585,3.5978-8.1778a7.5116,7.5116,0,0,0-3.1574-6.7c-2.2457-1.6015-5.1766-2.0037-7.8678-2.0359-7.2942-.0873-14.6659,2.1917-21.4864,4.562a141.763,141.763,0,0,0-13.8379,5.568l1.2864,1.2864c5.0746-7.9313,9.7339-16.1633,14.0992-24.502a215.8065,215.8065,0,0,0,9.8738-21.2526c2.4039-6.1333,4.6522-12.6334,5.0818-19.2582.2812-4.338-.4863-9.4953-4.7273-11.73-4.7646-2.51-10.3818-.6512-14.5685,2.1252-5.9638,3.9548-10.6382,9.7516-14.7745,15.504a186.1424,186.1424,0,0,0-13.172,21.7011A324.2409,324.2409,0,0,0,417.0178,819.81c-.0713.1794-.1427.3587-.2128.5386l1.8469.25c-.7309-14.0224-2.8293-28.1675-7.4966-41.4556-2.8782-8.1945-6.7721-16.939-13.2107-22.9991-3.4-3.2-8.6865-6.109-13.0446-2.8876a13.0334,13.0334,0,0,0-4.2607,6.7076,39.89,39.89,0,0,0-1.5359,12.0694c-.0034,14.2209,3.6412,28.49,7.7763,41.9933q1.0487,3.4245,2.1823,6.822l1.5714-.9148a100.1574,100.1574,0,0,0-22.84-15.6845c-5.9663-2.9124-12.5265-5.4063-19.2234-5.7582-3.7982-.2-8.7818.4282-10.6536,4.2807-2.2038,4.5357.9049,10.1089,3.3718,13.8361a76.522,76.522,0,0,0,9.8889,11.6963,189.78,189.78,0,0,0,17.1648,14.9489l.6649-1.6051a79.8227,79.8227,0,0,0-21.1833,2.3489,40.5193,40.5193,0,0,0-14.52,6.57c-2.95,2.2664-5.5851,5.3589-5.9845,9.1922-.4034,3.8718,1.8193,7.343,4.5852,9.844,5.5381,5.0078,13.1488,7.5905,20.2067,9.5511v-1.8132c-7.3273,1.1022-15.6082,3.7435-19.5225,10.5879a18.2006,18.2006,0,0,0-1.6533,12.8,15.6336,15.6336,0,0,0,.7907,2.73l1.5714-.9148a21.5954,21.5954,0,0,0-14.762-6.5851,22.78,22.78,0,0,0-13.665,4.4659,14.2154,14.2154,0,0,0-5.679,7.7293,9.7334,9.7334,0,0,0-.1406,4.8137l1.3812-1.0618c-6.4079-2.7532-16.64-4.7958-21.7825,1.3047-2.3856,2.83-3.0379,6.6035-3.06,10.2049a.9408.9408,0,0,0,1.8805,0Z"/><path d="M452.66,879.212a49.28,49.28,0,0,0-2.8681-6.9285c-1.8629-3.7494-4.2774-7.7259-7.879-10.0369-3.3676-2.1608-8.1439-1.9469-10.7192,1.38-2.6134,3.3765-1.7881,8.3459-.7531,12.15a45.47,45.47,0,0,0,3.7027,9.3646l1.0618-1.3812c-5.121-2.0157-11.89-2.8971-16.9132-.2513-2.0833,1.0973-3.4642,2.9915-2.5439,5.3673.853,2.202,2.8744,3.874,4.6989,5.2636a35.3867,35.3867,0,0,0,4.4347,2.9056v-1.6237a13.975,13.975,0,0,0-4.0756,3.9339,7.4845,7.4845,0,0,0,.1387,8.9192c.7033.9708,2.3354.0333,1.6237-.9491a5.7945,5.7945,0,0,1,.1423-7.4141,12.0855,12.0855,0,0,1,3.12-2.8662.95.95,0,0,0,0-1.6237c-2.742-1.5-5.7523-3.4241-7.6184-5.9723-1.1491-1.5692-1.2122-2.9959.57-4.06,2.9542-1.7633,6.6852-1.8216,9.9982-1.3341a27.0251,27.0251,0,0,1,5.9243,1.5181c.8147.3207,1.4124-.7232,1.0618-1.3812A44.2559,44.2559,0,0,1,433,877.7c-1.1873-3.4746-2.4653-7.857-1.1276-11.4665,1.3274-3.5817,5.6629-4.379,8.73-2.5853,3.3033,1.9319,5.4943,5.57,7.2069,8.877a46.234,46.234,0,0,1,3.0372,7.1864c.3657,1.1488,2.1818.6579,1.8133-.5Z"/><path class="cls-1" d="M873.772,725.4176l86.6983,46.508-63.449,119.2009s-34.8538-15.9495-14.8729-62.2422a18.0867,18.0867,0,0,0-8.2131-23.2517c-10.6123-5.5139-20.9054-10.8012-20.9054-10.8012"/><path d="M872.8229,727.0413l8.64,4.6347,20.6371,11.07,25.0765,13.4519,21.6811,11.63,7.1171,3.8179a33.5211,33.5211,0,0,0,3.3926,1.82,1.4959,1.4959,0,0,1,.1542.0827l-.6746-2.5728-6.3232,11.8794-15.18,28.5192L919.0459,845.75l-15.82,29.7218-5.2222,9.8108c-.8182,1.5372-1.8308,3.08-2.4972,4.6916-.029.07-.0727.1366-.1084.2036l2.5728-.6746a19.7138,19.7138,0,0,1-1.8226-.9889c-.6961-.4135-1.3767-.8532-2.043-1.3131q-.5391-.3721-1.0655-.7624c-.108-.08-.7582-.5775-.339-.2517q-.3766-.2927-.7466-.5937a37.45,37.45,0,0,1-10.546-13.36c-3.5588-7.5264-4.2591-16.4352-2.9285-24.7312a76.6765,76.6765,0,0,1,5.293-17.6681,20.4231,20.4231,0,0,0-.02-16.3877,19.5594,19.5594,0,0,0-5.8308-7.4558c-3.1-2.422-6.892-3.9833-10.3691-5.7822q-6.7819-3.5088-13.573-7c-2.1491-1.1041-4.054,2.14-1.8982,3.2474q5.583,2.868,11.1581,5.7514c3.4532,1.7844,6.9934,3.4644,10.37,5.389a16.0164,16.0164,0,0,1,5.6552,5.3969,16.615,16.615,0,0,1,1.0894,15.3411,81.5328,81.5328,0,0,0-5.3923,17.5125c-1.5222,8.8642-1.1225,18.0735,2.3823,26.4383A41.1812,41.1812,0,0,0,888.19,887.32a33.917,33.917,0,0,0,7.8826,5.4306,1.9188,1.9188,0,0,0,2.5728-.6746l6.3233-11.8794,15.18-28.5193,18.297-34.3744,15.8205-29.7219c2.5706-4.8293,5.2621-9.614,7.7195-14.5024.0345-.0686.0722-.1357.1083-.2035a1.9094,1.9094,0,0,0-.6746-2.5729l-8.64-4.6346-20.6371-11.07-25.0764-13.4519-21.6811-11.63c-3.4978-1.8764-6.9583-3.8638-10.51-5.6378-.0521-.026-.1029-.0552-.1542-.0827-2.1325-1.144-4.0342,2.1016-1.8982,3.2474Z"/><path class="cls-2" d="M881.3525,815.84a18.6362,18.6362,0,0,1,.3035,15.4879c-20.5077,47.513,15.265,63.883,15.265,63.883l39.5394-93.62-5.9861-.79A61.8483,61.8483,0,0,0,881.3526,815.84Z"/><path d="M879.7288,816.7889a16.9874,16.9874,0,0,1,1.5659,7.92c-.124,2.9082-1.2026,5.4417-2.2808,8.0973a79.4693,79.4693,0,0,0-4.3272,14.03,52.5834,52.5834,0,0,0-.0009,22.6713,42.5969,42.5969,0,0,0,16.2449,24.1973,29.05,29.05,0,0,0,5.0412,3.13,1.9045,1.9045,0,0,0,2.5728-.6746l3.9272-9.2986,9.433-22.3353,11.4164-27.0313,9.8771-23.3867q2.4076-5.7006,4.8152-11.4012l.0706-.1671A1.918,1.918,0,0,0,936.46,799.71c-6.0866-.8031-12.098-1.5963-18.261-1.18a63.6782,63.6782,0,0,0-38.1766,15.98c-1.8146,1.609.8532,4.2608,2.6594,2.6594a60.5808,60.5808,0,0,1,47.7985-14.4875c1.9939.2578,3.9865.526,5.98.789l-1.6237-2.83L930.91,809.94l-9.4331,22.3353L910.06,859.3066l-9.8771,23.3867-3.2813,7.7693a33.1326,33.1326,0,0,0-1.5339,3.6319,1.5215,1.5215,0,0,1-.0705.1671l2.5728-.6746a27.0337,27.0337,0,0,1-4.0689-2.4329q-.44-.3058-.872-.6236c-.1529-.1123-.3042-.2267-.4562-.34a2.6852,2.6852,0,0,1-.2987-.2311c-.7152-.5707-1.4166-1.1571-2.0963-1.77a41.6383,41.6383,0,0,1-4.4082-4.6325,39.8673,39.8673,0,0,1-3.9458-5.9825,36.4322,36.4322,0,0,1-3.08-7.7738,47.0561,47.0561,0,0,1-.4957-21.126,78.642,78.642,0,0,1,4.8159-15.6556,23.4009,23.4009,0,0,0,2.1091-8.955,21.1918,21.1918,0,0,0-2.097-9.1731C881.9532,812.7,878.71,814.607,879.7288,816.7889Z"/><path class="cls-2" d="M906.6935,902.9463c6.9224,3.6069,10.3184-3.3226,14.0085-10.201s-2.9382-10.4343.7519-17.3127,10.3178-3.3216,14.0074-10.1991-2.9388-10.433.7506-17.31,10.3177-3.3213,14.0071-10.1986-2.9388-10.433.7506-17.31,10.3172-3.32,14.0061-10.1968-2.9394-10.432.75-17.3081a9.3453,9.3453,0,0,1,5.7353-4.6771,5.3281,5.3281,0,0,0,.7979-9.6775l-18.8069-10.47L889.3078,889.8872S897.3586,898.0822,906.6935,902.9463Z"/><path d="M905.7444,904.57c3.5533,1.7755,7.1556,1.5614,10.16-1.1462,2.9179-2.63,4.8972-6.6025,6.6029-10.0823s1.2175-6.7084.2327-10.2925c-.891-3.2426-.6534-6.5443,2.0676-8.9166,2.3381-2.0385,5.7739-2.1343,8.376-3.7485a11.4791,11.4791,0,0,0,5.3118-9.789c-.0946-3.072-1.8732-5.9923-1.53-9.0718.3967-3.5567,3.0526-5.6726,6.2161-6.7132,3.4747-1.1428,6.5418-2.4714,8.4674-5.79,1.9667-3.3889,1.7775-6.81.7583-10.4506-.9252-3.3043-1.0658-6.4914,1.5705-9.13,2.22-2.2225,5.687-2.3662,8.3462-3.851a11.5013,11.5013,0,0,0,5.6845-9.42c.1131-3.181-1.6633-6.0608-1.5558-9.21a7.79,7.79,0,0,1,2.2153-4.9579c1.2269-1.26,2.7695-1.6313,4.2948-2.3728a7.2564,7.2564,0,0,0,3.6416-8.4113c-1.1408-3.9814-5.9-5.6789-9.1957-7.5134l-12.2238-6.8049-.7846-.4368a1.9052,1.9052,0,0,0-2.5728.6747L945.43,779.2846l-15.3567,29.1608L911.5671,843.587l-15.9928,30.3686c-2.5907,4.9194-5.3,9.7949-7.7792,14.7718-.0354.071-.074.14-.111.2107a1.9356,1.9356,0,0,0,.2941,2.2788A73.4166,73.4166,0,0,0,905.7444,904.57c2.14,1.1271,4.0428-2.1178,1.8982-3.2474a70.0407,70.0407,0,0,1-17.0051-12.765l.2941,2.2787,6.3974-12.1481,15.3568-29.1608,18.5065-35.1416,15.9928-30.3686,5.2725-10.0118c.82-1.5571,1.8481-3.1253,2.5067-4.76a2.367,2.367,0,0,1,.111-.2107l-2.5729.6746c6.2543,3.4817,12.6043,6.83,18.7773,10.4531a3.51,3.51,0,0,1,1.0673,5.2635c-.9651,1.1748-2.7,1.4034-3.9766,2.1184a10.9622,10.9622,0,0,0-4.1622,4.226c-1.8233,3.2484-1.7179,6.54-.7469,10.0235.8925,3.2017,1.2528,6.1444-1.048,8.9166-1.9729,2.377-5.23,2.6869-7.8985,3.89a11.3865,11.3865,0,0,0-6.4078,8.3c-.57,3.3633.8952,6.1609,1.3283,9.4008a7.69,7.69,0,0,1-4.1464,7.7471c-2.8217,1.4364-5.9252,1.7188-8.3826,3.915a11.4641,11.4641,0,0,0-3.5783,10.1011c.4178,2.8752,1.9942,5.6907,1.1566,8.6336-.9706,3.41-3.525,4.8473-6.66,5.8641-3.3724,1.0938-6.2591,2.6769-7.9941,5.9208-1.7763,3.3211-1.5478,6.5956-.5655,10.1053a12.8078,12.8078,0,0,1,.7049,4.2549c-.1135,1.7972-1.0849,3.3247-1.9188,4.8687-1.4718,2.725-3.257,6.7816-6.3335,8.0584a4.8762,4.8762,0,0,1-4.0747-.4482C905.4838,900.2438,903.5768,903.4868,905.7444,904.57Z"/><path class="cls-2" d="M931.21,803.5926l6.25-56.8921a7.7823,7.7823,0,0,0-9.3345-8.1127h0a6.5739,6.5739,0,0,0-7.2524,5.8167l-6.25,56.8921Z"/><path d="M933.09,803.5926,935.7,779.8408l3.4287-31.211c.0744-.6769.1705-1.3552.2214-2.0345a9.6948,9.6948,0,0,0-4.9547-8.8359,11.2016,11.2016,0,0,0-6.3975-1.0374c.15-.0087.4213-.04-.22-.0437-.2874-.0017-.5692-.0122-.8564.0088a9.3943,9.3943,0,0,0-1.6562.2549,8.5043,8.5043,0,0,0-3.1717,1.6221,8.9762,8.9762,0,0,0-3.1556,6.3419l-3.07,27.9445-3.07,27.9446-.0551.5015a1.8711,1.8711,0,0,0,1.3806,1.8133l16.5869,2.296a1.9479,1.9479,0,0,0,2.3132-1.3134,1.8922,1.8922,0,0,0-1.3134-2.3132l-16.5869-2.296,1.3805,1.8133,2.4885-22.6526L922.4352,747.3c.1007-.9173.1822-1.8393.3026-2.7544.0061-.0465.0085-.0936.0153-.14-.0535.3613.1573-.6546.2235-.8441a4.7186,4.7186,0,0,1,.7667-1.3857,4.7792,4.7792,0,0,1,1.891-1.41,10.42,10.42,0,0,1,2.9909-.3646,6.0571,6.0571,0,0,1,6.9041,4.796,9.4346,9.4346,0,0,1-.0757,2.6482l-3.149,28.6652c-.9738,8.8639-2.2094,17.742-2.9256,26.6311-.0121.15-.033.3008-.0495.451a1.8922,1.8922,0,0,0,1.88,1.8805A1.9241,1.9241,0,0,0,933.09,803.5926Z"/><circle cx="923.455" cy="800.7077" r="12.7621"/><path d="M919.9234,814.9177a14.8727,14.8727,0,0,0,15.6433-5.9856,14.64,14.64,0,1,0-15.6433,5.9856c2.3445.6076,3.3447-3.0189,1-3.6266A10.8788,10.8788,0,1,1,933.42,805.11a11.0228,11.0228,0,0,1-12.4967,6.1814C918.5675,810.7492,917.5619,814.3744,919.9234,814.9177Z"/><path d="M763.6318,392.3136s27.4549,5.28,30.6227,21.1192S757.296,432.968,757.296,432.968"/><path d="M763.1319,394.1269a63.5231,63.5231,0,0,1,11.975,3.6932c6.2474,2.568,13.0724,6.404,16.1921,12.69a13.0335,13.0335,0,0,1,.8445,2.2c.1162.4037.2086.8118.2977,1.2223-.0068-.0315.0951.5659.0573.295-.0237-.17.0351.3917.0392.4629a8.4024,8.4024,0,0,1,.0062.8664q-.0116.2542-.0389.5072c.0081-.0752.0641-.3662-.0026-.002-.05.2723-.1082.5423-.183.809-.04.1417-.3434.9765-.2007.6408a11.8973,11.8973,0,0,1-4.9268,5.2074c-5.3329,3.4066-11.6994,5.1022-17.8932,6.4363-2.9.6246-5.8225,1.1282-8.7588,1.5449-.0927.0132-.1854.0256-.2781.0385-.4095.0571.4055-.0524-.0927.0125q-.3576.0465-.7155.092-.575.072-1.1507.1375c-.3353.0379-.6708.0753-1.0069.1064-2.39.2214-2.4129,3.9844,0,3.7609a109.821,109.821,0,0,0,11.3295-1.7192c6.6378-1.3247,13.4915-3.1135,19.3985-6.5166a18.6441,18.6441,0,0,0,6.7162-6.0165,10.7606,10.7606,0,0,0,1.0971-8.6445c-2.0892-7.7308-9.2361-12.8722-16.1048-16.1621A65.2373,65.2373,0,0,0,764.1317,390.5c-2.3648-.457-3.3775,3.1671-1,3.6266Z"/><path class="cls-1" d="M692.5362,790.3865l-2.0224,98.3641-135.0154-2.34s-1.6341-38.295,48.6823-41.5371A18.0867,18.0867,0,0,0,621.1592,826.99c.0882-11.959.12-23.53.12-23.53"/><path d="M690.6558,790.3865l-.2016,9.8023-.4814,23.4139-.5849,28.4507-.5058,24.5983-.166,8.0749a35.0874,35.0874,0,0,0-.0791,3.8491,1.598,1.598,0,0,1-.0036.1749l1.88-1.88-13.4554-.2332-32.3029-.56-38.935-.6749-33.665-.5834-11.1125-.1926c-1.744-.03-3.5725-.2229-5.314-.0922-.0755.0057-.1546-.0026-.2306-.0039l1.8805,1.88a19.2837,19.2837,0,0,1,.0455-1.9634c.0457-.75.1287-1.4957.2114-2.2427.0323-.292.0173-.1263-.0139.0934.0174-.1227.0335-.2456.0521-.3681.0359-.2376.0717-.4752.1108-.7124q.1267-.7682.2831-1.531a36.8719,36.8719,0,0,1,6.6008-15.0335,38.6587,38.6587,0,0,1,7.3807-7.4738,45.4629,45.4629,0,0,1,11.645-6.3236,68.3628,68.3628,0,0,1,16.6209-3.7741c3.1665-.3349,6.3559-.3438,9.3871-1.4363a19.955,19.955,0,0,0,12.1915-12.1379c1.1772-3.2433,1.1475-6.5815,1.17-9.9842q.0624-9.4988.0923-18.9978.0016-.5329.0032-1.0659c.0066-2.42-3.7543-2.4237-3.7609,0q-.019,6.9471-.0587,13.8941c-.0357,6.6164.9086,13.7539-3.3895,19.3351a16.4739,16.4739,0,0,1-6.4547,5.0193c-2.8329,1.2274-5.7853,1.2672-8.8032,1.5737a73.6405,73.6405,0,0,0-17.171,3.6474c-8.0254,2.8425-15.5033,7.4769-20.8488,14.19a41.7111,41.7111,0,0,0-7.92,16.1722,32.3879,32.3879,0,0,0-1.1382,8.9876c.0022.0438.0018.0877.0036.1315a1.9174,1.9174,0,0,0,1.88,1.8805l13.4555.2332,32.3029.56,38.9349.6749,33.6651.5834c5.46.0947,10.9653.4026,16.4265.2847.0766-.0016.1538.0027.23.004a1.91,1.91,0,0,0,1.8805-1.88l.2015-9.8023.4814-23.414.585-28.4506.5057-24.5984c.0814-3.9581.353-7.9651.2452-11.9239-.0016-.0581.0024-.1168.0036-.1749.05-2.4211-3.7112-2.4208-3.7609,0Z"/><path class="cls-2" d="M615.4383,838.2357a18.636,18.636,0,0,1-13.6578,7.31c-51.6429,3.3276-49.9657,42.6321-49.9657,42.6321l101.3626-7.3308-2.0172-5.6911a61.8485,61.8485,0,0,0-35.7218-36.92Z"/><path d="M614.1086,836.9061a17.7761,17.7761,0,0,1-6.0405,5.0477,20.4431,20.4431,0,0,1-7.86,1.8247,83.7946,83.7946,0,0,0-14.7588,2.4267,53.1215,53.1215,0,0,0-20.5606,10.2515,42.199,42.199,0,0,0-14.4,25.3686,31.4579,31.4579,0,0,0-.5542,6.3521,1.9009,1.9009,0,0,0,1.88,1.88l10.0676-.7281,24.1824-1.7489,29.2668-2.1166,25.3208-1.8313c4.1121-.2974,8.238-.5189,12.3441-.8927.06-.0055.1206-.0088.1809-.0131a1.9011,1.9011,0,0,0,1.8133-2.38c-2.146-6.0544-4.276-12.0436-7.6293-17.5683a63.7067,63.7067,0,0,0-31.4232-26.3559,1.896,1.896,0,0,0-2.3132,1.3133,1.9223,1.9223,0,0,0,1.3134,2.3132,60.2369,60.2369,0,0,1,34.153,34.8992c.7824,2.1234,1.5167,4.2654,2.2727,6.3983l1.8133-2.38-10.0676.7281-24.1824,1.7489L589.6606,883.56,564.34,885.3911,555.928,886a34.3755,34.3755,0,0,0-3.9323.2844,1.5748,1.5748,0,0,1-.1809.013l1.88,1.88c-.0176-.4238-.0049-.85.01-1.2735.0179-.496.0491-.9915.09-1.4861q.0366-.44.0839-.8779c.0171-.1591.0365-.3178.0543-.4768.0111-.0993.0254-.1983.037-.2976.04-.3462-.0678.466-.0125.09a44.3984,44.3984,0,0,1,1.0352-5.0825q.4029-1.4974.9154-2.9625c.4108-1.1733.7565-2.0272,1.1285-2.8534a37.58,37.58,0,0,1,9.1658-12.6686,47.3,47.3,0,0,1,18.7276-10.0348A77.3836,77.3836,0,0,1,600.99,847.48c6.2168-.45,11.8824-2.9037,15.7778-7.9144a1.9455,1.9455,0,0,0,0-2.6593A1.8911,1.8911,0,0,0,614.1086,836.9061Z"/><path class="cls-3" d="M623.2788,393.1765,611.7141,801.551l120.4248,1.4483s10.6774-291.4671,8.1758-336.2027-30.1514-110.56-30.1514-110.56"/><path class="cls-4" d="M623.2788,393.1765,611.7141,801.551l120.4248,1.4483s10.6774-291.4671,8.1758-336.2027-30.1514-110.56-30.1514-110.56"/><path d="M621.3983,393.1765l-.3094,10.9255-.842,29.7328-1.2453,43.9745L617.4823,531.46l-1.664,58.7614-1.68,59.3065-1.56,55.093-1.3236,46.7407-.9517,33.6063c-.15,5.2954-.4392,10.6082-.4505,15.9063,0,.2254-.0128.4513-.0191.6767a1.9062,1.9062,0,0,0,1.88,1.88l40.6841.4893,64.85.78,14.8905.1791a1.9135,1.9135,0,0,0,1.88-1.8805q.2184-5.9644.43-11.9293.5724-16.0506,1.1237-32.1019.7947-23.1012,1.5513-46.2036.8976-27.4286,1.7332-54.8591.8689-28.6254,1.6435-57.2537.7242-27.0394,1.3045-54.0825c.3134-15.0959.5848-30.1933.7107-45.2921.0843-10.1033.1709-20.22-.1463-30.3207-.6453-20.5488-5.5029-40.8473-11.2306-60.5068a549.1489,549.1489,0,0,0-18.0445-51.9834c-.3682-.9117-.7374-1.8232-1.118-2.73-.9226-2.1983-4.5635-1.2327-3.6265,1,5.2131,12.4209,9.7508,25.1632,13.957,37.9543,7.5847,23.0651,14.6262,47.1893,16.0946,71.5459.5316,8.816.4345,17.6845.4047,26.5118-.0475,14.0619-.2693,28.1234-.532,42.1827q-.49,26.25-1.1876,52.4961-.7317,28.5156-1.5868,57.0277-.8269,27.89-1.73,55.7777-.7857,24.3736-1.6164,48.7458-.6117,17.9665-1.2469,35.9323c-.2024,5.7208-.8419,11.6127-.6209,17.3372.01.2482-.0183.5031-.0275.7517l1.88-1.88-40.6841-.4893-64.85-.78-14.89-.1791,1.88,1.8805.3094-10.9255.842-29.7328,1.2453-43.9745,1.5193-53.6507,1.664-58.7614L620.8541,545.2l1.56-55.0929,1.3236-46.7407L624.69,409.76c.15-5.2955.4392-10.6082.45-15.9063,0-.2254.0128-.4514.0192-.6768.0685-2.4209-3.6925-2.419-3.761,0Z"/><path d="M766.8671,375.5767a1.8816,1.8816,0,0,0,0-3.7609,1.8816,1.8816,0,0,0,0,3.7609Z"/><path class="cls-4" d="M660.9349,433.2439l8.7792,198.8183A156.93,156.93,0,0,0,748.5463,738.58l109.282,59.3872,52.6583-93.9148s-90.2666-57.0019-130.791-76.115l5.3219-156.08a161.6148,161.6148,0,0,0-3.2026-37.9835L770.628,379.3376,653.4131,347.37"/><path d="M659.0544,433.2439l.8246,18.6749,1.9975,45.2359,2.4656,55.8364,2.19,49.5927,1.2309,27.8747c.0231.5243.0172,1.06.07,1.5821a55.0288,55.0288,0,0,0,1.7362,7.8086q1.2889,5.0766,2.9168,10.0591a158.8229,158.8229,0,0,0,75.2319,90.3608q13.2546,7.2281,26.53,14.4175l47.9149,26.0383,33.032,17.9506,1.6844.9154a1.9114,1.9114,0,0,0,2.5729-.6746l17.7786-31.7077,28.3521-50.5653,6.5276-11.6418a1.9194,1.9194,0,0,0-.6747-2.5728q-16.3884-10.3479-32.95-20.4217c-21.6335-13.2265-43.3921-26.2741-65.5134-38.6717-10.6192-5.9514-21.318-11.8179-32.3279-17.0216l.9314,1.6237,1.0354-30.3673,2.1294-62.4507,1.818-53.3163q.1682-4.9308.3362-9.8618a173.1931,173.1931,0,0,0-3.681-40.586l-10.4788-51.0842-.294-1.4334a1.8625,1.8625,0,0,0-1.3134-1.3134l-39.6-10.8-63.1216-17.215-14.4936-3.9528c-2.3382-.6377-3.3358,2.99-1,3.6266l39.6,10.8,63.1217,17.215,14.4936,3.9528-1.3134-1.3134,9.8875,48.2014c2.4125,11.7611,4.3,23.5169,4.5049,35.566.0831,4.893-.122,9.7782-.2887,14.6667l-1.6841,49.3916-2.165,63.4921c-.4108,12.0485-1.2684,24.1764-1.2354,36.234,0,.1824-.0125.3657-.0187.5481a1.84,1.84,0,0,0,.9313,1.6237c21.27,10.0529,41.64,22.1242,61.884,34.0683q28.9071,17.0553,57.38,34.8356,5.7727,3.5907,11.5272,7.2111l-.6746-2.5728L891.0843,734.811l-28.3521,50.5653-6.5276,11.6418,2.5728-.6746-23.771-12.9179-47.2331-25.6679L752.415,738.5429c-17.6786-9.6071-33.5519-21.654-46.6963-36.9767a155.5145,155.5145,0,0,1-22.6261-35.0309,153.2856,153.2856,0,0,1-7.5958-19.5536c-1.51-4.8357-3.237-10.0013-3.9071-15.0284-.2717-2.0381-.1851-4.1915-.2757-6.243l-.644-14.5852-2.0386-46.1664L666.19,509.6739l-2.16-48.9112-1.1611-26.2949-.0541-1.2239c-.1064-2.4106-3.8679-2.4239-3.7609,0Z"/><path class="cls-2" d="M549.366,900.3981c-.0666,7.8055,7.6493,7.6809,15.4534,7.8416s7.9589-7.36,15.763-7.1988,7.6481,7.6808,15.4511,7.8415,7.9575-7.36,15.76-7.1989,7.6479,7.6809,15.4507,7.8415,7.9574-7.36,15.76-7.1989,7.6469,7.6809,15.4485,7.8415,7.9564-7.36,15.7578-7.1989a9.3452,9.3452,0,0,1,6.7728,2.9829,5.3281,5.3281,0,0,0,8.9828-3.6877l.7781-21.51-137.6478-1.7769S549.4559,889.8723,549.366,900.3981Z"/><path d="M547.4856,900.3981a8.4964,8.4964,0,0,0,5.5241,8.3685c3.5627,1.4088,7.6929,1.2808,11.46,1.3465,3.8249.0667,6.6312-1.4532,9.38-3.9759,2.3752-2.18,4.7718-3.7676,8.1756-3.0678,3.0217.6211,4.6821,3.24,6.9388,5.074a11.5577,11.5577,0,0,0,10.5081,2.1891c3.1643-.9233,5.0142-3.3949,7.5517-5.2676a7.6905,7.6905,0,0,1,8.8563-.2115c2.456,1.6955,4.0479,4.3074,6.8525,5.5663a11.4661,11.4661,0,0,0,10.8728-.8134c2.3982-1.6148,4.2087-4.3494,7.0947-5.1431,3.3323-.9164,6.0492.4824,8.3508,2.7646,2.5312,2.51,5.0169,4.4888,8.7142,4.7858,3.7915.3046,6.8179-1.3012,9.5342-3.7817,2.4658-2.2516,4.8786-3.9908,8.4324-3.2176,2.04.4438,3.1693,1.8067,4.7791,2.9669a7.1223,7.1223,0,0,0,5.4666,1.1785,7.3156,7.3156,0,0,0,5.8721-6.9722c.0929-1.626.1178-3.2588.1767-4.8863l.5579-15.4249.0406-1.1229a1.9057,1.9057,0,0,0-1.88-1.8805l-13.7286-.1772-32.9545-.4254-39.7135-.5127-34.3194-.443c-5.55-.0716-11.1441-.3567-16.6936-.2155-.0792.002-.1589-.002-.2382-.0031a1.9266,1.9266,0,0,0-1.8133,1.3806,73.5625,73.5625,0,0,0-3.7976,21.9215c-.0324,2.4209,3.7285,2.4221,3.7609,0a70.0906,70.0906,0,0,1,3.6633-20.9217l-1.8133,1.3806,13.7285.1772,32.9546.4254,39.7135.5126,34.3194.4431,11.3144.146c1.7627.0228,3.62.2174,5.3792.07.0779-.0066.16.002.2382.003l-1.88-1.88-.4338,11.9938-.2661,7.3579c-.0485,1.3392.1105,2.9292-.7487,4.0551a3.5632,3.5632,0,0,1-3.4938,1.309c-1.6473-.3417-2.791-2.04-4.1986-2.8806a11.4716,11.4716,0,0,0-11.3387-.0371c-2.4668,1.4427-4.1511,4.0756-6.802,5.2044a7.8035,7.8035,0,0,1-8.2883-1.6343c-2.3412-2.1381-4.332-4.5274-7.5567-5.3268a11.6266,11.6266,0,0,0-10.1784,2.2583c-2.178,1.7283-3.942,4.0885-6.8645,4.5236-3.326.4951-5.6224-1.0816-7.8456-3.3021-2.48-2.4768-5.0893-4.274-8.7057-4.4592-3.6147-.1852-6.5083,1.3548-9.1059,3.7206-2.3009,2.0956-4.3781,3.7533-7.6914,3.4315-3.0926-.3-4.81-2.5915-6.9437-4.54a11.7114,11.7114,0,0,0-9.7181-3.1445c-3.4126.4615-5.6675,2.5885-8.1316,4.7752a8.726,8.726,0,0,1-3.4281,2.0444,18.5751,18.5751,0,0,1-5.4263.1874c-2.856-.088-6.9689.0263-9.186-2.133a5.0415,5.0415,0,0,1-1.2653-3.7589C551.2311,897.9789,547.47,897.9736,547.4856,900.3981Z"/><path class="cls-2" d="M649.0077,877.08l53.517-20.29a7.7823,7.7823,0,0,0,2.9838-12.0019h0a6.5739,6.5739,0,0,0-8.4774-3.8164l-53.5171,20.29Z"/><path d="M649.5076,878.893l21.8823-8.2965,29.3857-11.1413c.7382-.28,1.4808-.5506,2.2154-.84a9.4935,9.4935,0,0,0,5.2671-12.7833,10.5355,10.5355,0,0,0-.8923-1.5692c-.2831-.4243-.5255-1.1449-.8509-1.6517a8.5557,8.5557,0,0,0-5.1894-3.714,9.3307,9.3307,0,0,0-5.54.5431l-26.7134,10.1281c-8.5365,3.2365-17.0875,6.4377-25.61,9.71-.1491.0572-.2986.1132-.448.17a1.9105,1.9105,0,0,0-1.3133,2.3132l5.4936,15.8183c.7891,2.2722,4.4236,1.2952,3.6265-1l-5.4936-15.8183-1.3134,2.3132,20.7374-7.8624L694.232,844.035c2.8848-1.0938,6.4307-2.934,8.8464.1958a18.5,18.5,0,0,1,1.5591,2.7044,5.9221,5.9221,0,0,1,.6834,3.2915,6.0488,6.0488,0,0,1-2.8576,4.5079,12.1214,12.1214,0,0,1-1.9036.7968l-27.1589,10.2971c-8.1559,3.0922-16.3287,6.1434-24.4688,9.2771-.1411.0543-.2828.1072-.4242.1608C646.2664,876.1162,647.2383,879.7534,649.5076,878.893Z"/><circle cx="648.0528" cy="868.8608" r="12.7621"/><path d="M633.8193,872.2946a14.6469,14.6469,0,1,0,8.1835-16.757,14.7976,14.7976,0,0,0-8.1835,16.757c.5238,2.3619,4.15,1.3623,3.6265-1a10.8829,10.8829,0,1,1,11.1075,8.44,10.9715,10.9715,0,0,1-11.1075-8.44C636.8575,868.9485,633.23,869.9426,633.8193,872.2946Z"/><path d="M732.797,773.9125l-12.0867-.19-28.7612-.4523-34.8946-.5488-30.1726-.4745c-4.8751-.0766-9.7983-.3614-14.6736-.2307-.0691.0018-.1388-.0022-.2079-.0033-2.421-.038-2.4217,3.7228,0,3.7609l12.0867.19,28.7612.4523,34.8946.5487,30.1726.4745c4.8751.0767,9.7983.3614,14.6736.2308.0691-.0019.1388.0022.2079.0032,2.421.0381,2.4217-3.7228,0-3.7609Z"/><path class="cls-5" d="M683.5692,293.1,569.7358,340.9448c-.495-9.0405,2.18-41.3912-.8462-53.3393-3.8736-15.2921-8.9967-28.5556-13.9358-37.09l71.2485-33.8306a38.2218,38.2218,0,0,1,17.1173-3.6877l53.9707.86"/><path d="M683.0693,291.2863l-11.3706,4.7792L644.52,307.4889l-32.8568,13.81-28.4052,11.9389-9.3924,3.9478a41.9477,41.9477,0,0,0-4.4316,1.8626,1.8734,1.8734,0,0,1-.1983.0834l2.38,1.8132c-.2252-4.3062.0249-8.6519.1616-12.9572.1929-6.0751.4013-12.1506.4493-18.229a143.9935,143.9935,0,0,0-.61-17.1455c-.7843-7.0049-3.0776-13.8615-5.3161-20.514a124.7422,124.7422,0,0,0-9.7238-22.5326l-.6747,2.5728,19.4817-9.25,35.2661-16.7452,12.7413-6.05a57.0855,57.0855,0,0,1,10.1155-4.0677c4.8429-1.2581,9.6732-1.1505,14.6042-1.0719l16.9755.2706,31.6115.5039.5916.01c2.421.0386,2.4217-3.7223,0-3.7609l-27.4851-.4382-18.6079-.2966c-3.2243-.0514-6.47-.2092-9.6953-.1168A44.6825,44.6825,0,0,0,623.487,215.9l-10.7491,5.104-34.86,16.5522-15.3957,7.31c-2.6965,1.28-5.4582,2.4745-8.108,3.85-.1209.0627-.2468.1172-.37.1756a1.9019,1.9019,0,0,0-.6746,2.5728,114.6736,114.6736,0,0,1,8.4892,19.1509q2.1573,6.1157,3.8931,12.37a64.0355,64.0355,0,0,1,2.0313,8.6814,122.0432,122.0432,0,0,1,.7322,16.13c-.01,6.0884-.2019,12.1748-.3971,18.26-.1587,4.9448-.482,9.9424-.2234,14.8888.0562,1.0755,1.1809,2.3174,2.38,1.8133l11.3706-4.7791,27.1785-11.4234,32.8567-13.81,28.4052-11.939q6.912-2.9052,13.8241-5.81l.1983-.0833a1.9426,1.9426,0,0,0,1.3133-2.3132,1.8927,1.8927,0,0,0-2.3131-1.3134Z"/><path d="M561.0449,323.83q-3.0495.93-6.126,1.7357c4.9844,10.3377,10.065,16.4265,13.7828,15.4847,3.8051-.9637,5.36-9.082,4.7086-20.9906Z"/><path d="M560.545,322.0164q-3.047.9245-6.126,1.7356a1.908,1.908,0,0,0-1.1238,2.7624,61.286,61.286,0,0,0,6.5415,10.9832c1.6541,2.1294,3.6671,4.3486,6.3,5.23,5.5831,1.8687,7.9758-4.7435,8.6663-8.9635a63.9734,63.9734,0,0,0,.4882-13.7044,1.9024,1.9024,0,0,0-2.38-1.8133l-12.3654,3.77c-2.3086.7039-1.3243,4.3352,1,3.6265l12.3653-3.77-2.38-1.8133a70.8051,70.8051,0,0,1-.1437,11.1138,26.5637,26.5637,0,0,1-.694,3.9235,10.6546,10.6546,0,0,1-1.0061,2.6939c-.1114.1982-.2327.3877-.3577.5773-.2316.3513.0673-.0415-.14.179-.1345.1432-.27.2805-.4141.4143-.0773.0719-.278.1846.0525-.0353a2.3787,2.3787,0,0,0-.2851.18c-.2878.2632.1562-.0151-.09.0557a4.8289,4.8289,0,0,1-.5214.1307c.4268-.0736-.0191-.0349-.1978-.0331-.1048.0011-.3461-.0621.0681.0163a2.4518,2.4518,0,0,1-.293-.063c-.2-.0646-.402-.116-.5979-.1953.36.1457-.2465-.14-.3193-.1815a8.1725,8.1725,0,0,1-1.056-.7186,19.0908,19.0908,0,0,1-2.6922-2.8361,57.47,57.47,0,0,1-6.3-10.6651l-1.1238,2.7624q3.0783-.8145,6.126-1.7357C563.8546,324.9421,562.87,321.3109,560.545,322.0164Z"/><path class="cls-1" d="M339.6043,290.6923l131.682,35.1384a166.1006,166.1006,0,0,0,83.6326-.2654q3.0753-.81,6.126-1.7357l12.3654-3.77a174.6164,174.6164,0,0,0-5.2869-32.2113c-3.8736-15.2921-8.9967-28.5556-13.9358-37.09l-15.7206,7.4646-21.6008,10.2565L363.3938,228.664a38.9969,38.9969,0,0,0-16.5617-.6576l-17.457,3.0768"/><path d="M339.1044,292.5055l6.1153,1.6319,16.02,4.2749,22.3237,5.9569,25.3637,6.7681,24.8234,6.624,20.7957,5.5492,13.2808,3.5438A180.5419,180.5419,0,0,0,486.1,330.8161a169.3763,169.3763,0,0,0,50.09.4315,166.7385,166.7385,0,0,0,24.8855-5.4624c3.2128-.9677,6.4194-1.9565,9.6288-2.935l3.2058-.9775a1.9131,1.9131,0,0,0,1.3806-1.8133,169.3021,169.3021,0,0,0-4.4729-29.1023,188.2911,188.2911,0,0,0-9.1642-29.0183,104.1086,104.1086,0,0,0-5.8422-12.13,1.9279,1.9279,0,0,0-2.5729-.6746q-15.1374,7.1877-30.2751,14.3753l-7.0463,3.3458,1.449-.19-5.38-1.3958-14.3981-3.7353-20.8009-5.3964-24.5889-6.3791-25.7619-6.6834-24.32-6.3093L381.8525,231.51l-13.5917-3.5261a77.701,77.701,0,0,0-9.5533-2.114,49.99,49.99,0,0,0-15.2424.8287l-11.9986,2.1148-2.5913.4567c-2.3794.4194-1.371,4.0444,1,3.6266l11.7319-2.0678c5.7719-1.0173,11.4054-2.0366,17.3089-1.1643a105.9384,105.9384,0,0,1,10.9476,2.621l19.9759,5.1823,28.0536,7.278,31.3871,8.1427,29.9218,7.7626,23.73,6.1563,12.5441,3.2543c.28.0727.561.1614.8447.2191a4.1657,4.1657,0,0,0,2.629-.7163l12.7765-6.0665,19.92-9.4586,3.49-1.6574-2.5728-.6746a122.4927,122.4927,0,0,1,9.836,23.1142,204.3332,204.3332,0,0,1,7.4307,30.2815,140.6818,140.6818,0,0,1,1.6992,14.9564l1.3806-1.8133c-8.4156,2.566-16.7951,5.2912-25.3992,7.1689a164.71,164.71,0,0,1-49.6646,3.0978A162.6048,162.6048,0,0,1,470.37,323.64l-11.1252-2.9687-19.3322-5.1587-24.1006-6.431-25.43-6.786L367.06,296.0719l-17.7751-4.7432c-2.928-.7813-5.8473-1.62-8.79-2.3455-.1308-.0322-.26-.07-.3907-.1042-2.341-.6247-3.34,3.0021-1,3.6265Z"/><path class="cls-5" d="M625.2063,255.2277,598.88,409.4248s180.3546-15.9637,196.194,3.1341c-3.1691-38.21-17.7237-115.2266-27.0679-162.2929A46.9611,46.9611,0,0,0,719.86,212.5024l-62.6863.7285"/><path d="M623.393,254.7278l-2.6365,15.442-6.2845,36.81-7.5944,44.4814-6.5657,38.4564c-1.0668,6.2479-2.1873,12.4893-3.2006,18.7462-.0142.0872-.03.1743-.0447.2614-.1862,1.0911.4854,2.4979,1.8133,2.38q2.4033-.2127,4.8083-.4067,6.5742-.5418,13.1526-1.0318,9.791-.7337,19.5886-1.3747,12.0539-.7894,24.1165-1.4351,13.3629-.7118,26.736-1.2133,13.719-.5046,27.4472-.709c8.7494-.1169,17.5018-.12,26.25.0774,7.7222.1744,15.447.4944,23.1449,1.1464a129.4945,129.4945,0,0,1,17.7725,2.4613,49.8067,49.8067,0,0,1,6.5543,1.8518c.2252.0832.449.17.6727.257.1005.0392.2.0812.3.1209.3966.1568-.3558-.16.0371.0151.3963.1771.7915.3549,1.1788.5512a18.7629,18.7629,0,0,1,2.0086,1.21c.302.2037-.3091-.287.0884.07.122.11.25.2118.37.3235a7.4406,7.4406,0,0,1,.637.669,1.8972,1.8972,0,0,0,3.21-1.33c-.8346-10.0088-2.1323-19.9783-3.5361-29.9211-1.7207-12.1876-3.6651-24.3432-5.708-36.4806q-3.2746-19.4555-6.8658-38.8558-3.4386-18.7065-7.0688-37.3772-1.631-8.4093-3.2933-16.8124a59.375,59.375,0,0,0-5.37-16.5573,49.2589,49.2589,0,0,0-25.6162-22.7116,48.4383,48.4383,0,0,0-17.3285-3.2669c-1.5887-.0068-3.1842.0561-4.7738.0746l-18.6935.2172-24.8666.289-15.87.1845-.79.0091c-2.4185.0281-2.4249,3.7891,0,3.7609l11.0868-.1288,23.7417-.2759,21.6386-.2515c5.2653-.0612,10.63-.4,15.8339.5005a45.56,45.56,0,0,1,28.19,16.9268,45.0831,45.0831,0,0,1,7.6614,15.2685c1.5041,5.3411,2.3171,10.9344,3.382,16.377q3.51,17.9367,6.867,35.9028,3.6007,19.3066,6.9618,38.657c2.1228,12.2949,4.1553,24.6064,6.0021,36.9459,1.5484,10.3462,2.9862,20.7153,4.0559,31.1232q.3288,3.1983.5984,6.4021l3.21-1.33c-2.3215-2.768-6.2856-4.087-9.63-5.0579a100.13,100.13,0,0,0-16.7434-2.9956c-7.34-.8254-14.7236-1.2512-22.1029-1.5207-8.5594-.3126-17.1267-.3934-25.6912-.3507-9.147.0455-18.293.237-27.4356.5225q-13.6271.4255-27.2446,1.11-12.5637.62-25.1183,1.41-10.5748.6618-21.1427,1.4306-7.5155.5466-15.0265,1.15c-2.3341.1883-4.7723.2066-7.0851.5905-.0992.0165-.2032.0177-.3037.0266l1.8133,2.38,2.6364-15.442,6.2846-36.81,7.5944-44.4814,6.5657-38.4563c1.0667-6.2479,2.1873-12.4894,3.2006-18.7462.0141-.0873.03-.1744.0446-.2615.4042-2.3673-3.2194-3.3845-3.6265-1Z"/><circle cx="249.8336" cy="303.8831" r="224.8336"/><path d="M472.7868,303.8831a222.9035,222.9035,0,0,1-345.3735,186.37,224.6952,224.6952,0,0,1-49.5077-44.4A221.82,221.82,0,0,1,27.5377,321.2013a224.8741,224.8741,0,0,1,5.6793-70.3166A222.8345,222.8345,0,0,1,224.1419,82.3817,225.5068,225.5068,0,0,1,294.4957,85.4,222.9476,222.9476,0,0,1,470.1635,269.4956a225.3264,225.3264,0,0,1,2.6233,34.3875c.0034,2.42,3.7643,2.4241,3.7609,0a226.7116,226.7116,0,0,0-452.7471-17.63,228.2579,228.2579,0,0,0,5.7181,71.3323A226.5849,226.5849,0,0,0,223.5252,529.0743a228.501,228.501,0,0,0,71.67-3.0208A226.6155,226.6155,0,0,0,473.8841,338.661a232.0873,232.0873,0,0,0,2.6636-34.7779A1.8816,1.8816,0,0,0,472.7868,303.8831Z"/><circle class="cls-2" cx="280.0236" cy="301.4183" r="224.8336"/><path d="M502.9768,301.4183A222.9422,222.9422,0,0,1,108.0955,443.3877,221.8208,221.8208,0,0,1,57.7277,318.7365,224.8741,224.8741,0,0,1,63.407,248.42,222.8345,222.8345,0,0,1,254.3319,79.9169a225.5068,225.5068,0,0,1,70.3538,3.0182A222.9481,222.9481,0,0,1,500.3535,267.0308a225.3254,225.3254,0,0,1,2.6233,34.3875c.0034,2.42,3.7643,2.4241,3.7609,0a226.7226,226.7226,0,1,0-447.029,53.7023A226.5847,226.5847,0,0,0,253.7152,526.61a228.5011,228.5011,0,0,0,71.67-3.0208A226.6155,226.6155,0,0,0,504.0741,336.1962a232.0873,232.0873,0,0,0,2.6636-34.7779A1.8816,1.8816,0,0,0,502.9768,301.4183Z"/><path class="cls-3" d="M448.1034,301.0776c0-104.0147-80.7037-188.8869-182.7956-196.4148-102.0919,7.5279-186.2091,92.4-186.2091,196.4148s84.1172,189.5682,186.2091,197.0961C367.4,490.6458,448.1034,405.0923,448.1034,301.0776Z"/><path d="M449.9838,301.0776A199.1039,199.1039,0,0,0,272.4331,103.4365a55.8564,55.8564,0,0,0-7.4006-.6334c-2.4606.0639-4.957.4189-7.4014.6941q-7.4461.8382-14.8211,2.2062a201.4386,201.4386,0,0,0-28.6827,7.5759A206.3425,206.3425,0,0,0,120.45,179.1971,200.0842,200.0842,0,0,0,91.316,228.7842a192.66,192.66,0,0,0-8.7538,117.4185,196.0145,196.0145,0,0,0,22.0113,54.0685,204.31,204.31,0,0,0,36.0809,44.8441,207.18,207.18,0,0,0,47.4831,33.3291,203.4063,203.4063,0,0,0,55.4752,18.8273q7.3746,1.3518,14.8375,2.1569a42.4505,42.4505,0,0,0,7.6834.5627q3.7008-.2885,7.3892-.7156A199.5848,199.5848,0,0,0,447.8475,330.2283a204.2512,204.2512,0,0,0,2.1363-29.1507,1.8816,1.8816,0,0,0-3.7609,0A196.3087,196.3087,0,0,1,328.0893,480.8485a193.2105,193.2105,0,0,1-55.6562,14.7895,55.8035,55.8035,0,0,1-7.4006.6346c-2.46-.064-4.9572-.4192-7.4014-.6955q-7.2168-.8156-14.3559-2.1818a200.2561,200.2561,0,0,1-28.1481-7.5181,202.9166,202.9166,0,0,1-91.6889-64.8895,195.375,195.375,0,0,1-28.695-49.0087A189.1828,189.1828,0,0,1,107.821,203.9681a199.4679,199.4679,0,0,1,35.3-43.7093,203.2568,203.2568,0,0,1,46.4408-32.4971A200.8957,200.8957,0,0,1,244.0772,109.28q7.28-1.3475,14.6461-2.1419a46.0593,46.0593,0,0,1,7.1352-.5535c2.4668.1281,4.9387.4244,7.392.7045a195.3934,195.3934,0,0,1,80.6379,28.0992A196.0353,196.0353,0,0,1,427.5059,217.66a193.9591,193.9591,0,0,1,16.6356,54.7448,196.8425,196.8425,0,0,1,2.0814,28.6731C446.2263,303.4974,449.9872,303.5017,449.9838,301.0776Z"/><path d="M471.4971,301.4183A195.41,195.41,0,0,1,125.37,425.8379,194.41,194.41,0,0,1,81.2381,316.6155a197.1267,197.1267,0,0,1,4.9755-61.6437,195.3141,195.3141,0,0,1,167.32-147.6974,197.6954,197.6954,0,0,1,61.6764,2.64,195.4187,195.4187,0,0,1,153.993,161.3887,197.34,197.34,0,0,1,2.2938,30.1149c.0033,2.42,3.7642,2.4241,3.7609,0A199.186,199.186,0,1,0,82.5241,348.6049,199.0648,199.0648,0,0,0,252.9927,499.2607a200.7079,200.7079,0,0,0,62.9542-2.6591A199.0869,199.0869,0,0,0,472.9124,331.9982a204.0757,204.0757,0,0,0,2.3456-30.58A1.8816,1.8816,0,0,0,471.4971,301.4183Z"/><path d="M280.0237,104.12q-7.4253,0-14.7159.5429C367.4,112.1907,447.89,197.4036,447.89,301.4183S367.4,490.6458,265.3078,498.1737q7.288.5373,14.7159.5429c108.9648,0,197.2983-88.3334,197.2983-197.2983S388.9885,104.12,280.0237,104.12Z"/><path d="M280.0237,102.24q-7.3675.0144-14.7159.5429a1.8817,1.8817,0,0,0,0,3.7609,195.4372,195.4372,0,0,1,14.24,388.1737c-4.7248.7072-9.4763,1.2183-14.24,1.5762a1.8817,1.8817,0,0,0,0,3.7609,201.2108,201.2108,0,0,0,67.58-6.5486A199.0519,199.0519,0,0,0,478.7626,314.698a200.4183,200.4183,0,0,0-5.9641-63.5714A199.17,199.17,0,0,0,408.492,149.211a200.4023,200.4023,0,0,0-51.8968-31.7049,198.3646,198.3646,0,0,0-60.8273-14.6474q-7.8573-.62-15.7442-.6192a1.8816,1.8816,0,0,0,0,3.7609,195.4166,195.4166,0,0,1,5.0057,390.7735c-6.5784.1631-13.1585-.0093-19.7216-.4807v3.7609a199.1742,199.1742,0,0,0,14.7-395.6412q-7.32-1.0749-14.7-1.63v3.7609q7.3485-.5277,14.7159-.5429C282.4434,105.9956,282.4478,102.2347,280.0237,102.24Z"/><circle class="cls-6" cx="272.8933" cy="301.4183" r="14.7917"/><path d="M285.8045,301.4183a12.91,12.91,0,1,1-10.3476-12.6608,13.0225,13.0225,0,0,1,10.3476,12.6608c.028,2.4184,3.789,2.4248,3.7609,0a16.6748,16.6748,0,1,0-13.44,16.353,16.9055,16.9055,0,0,0,13.44-16.353C289.5934,298.9974,285.8325,298.9958,285.8045,301.4183Z"/><rect class="cls-7" x="273.1208" y="286.6266" width="7.7372" height="29.5834"/><path d="M280.858,314.33h-7.7372l1.8805,1.88V286.6266l-1.8805,1.88h7.7372l-1.88-1.88V316.21a1.8816,1.8816,0,0,0,3.7609,0V286.6266a1.9078,1.9078,0,0,0-1.88-1.88h-7.7372a1.9078,1.9078,0,0,0-1.88,1.88V316.21a1.9077,1.9077,0,0,0,1.88,1.88h7.7372A1.8816,1.8816,0,0,0,280.858,314.33Z"/><path d="M278.2949,103.4372v38.2309a1.8816,1.8816,0,0,0,3.7609,0V103.4372a1.8816,1.8816,0,0,0-3.7609,0Z"/><path d="M278.2949,460.7134v38.2308a1.8816,1.8816,0,0,0,3.7609,0V460.7134a1.8816,1.8816,0,0,0-3.7609,0Z"/><path d="M79.0084,303.2987h38.2528a1.8816,1.8816,0,0,0,0-3.7609H79.0084a1.8816,1.8816,0,0,0,0,3.7609Z"/><path d="M436.49,303.2987h38.2528a1.8816,1.8816,0,0,0,0-3.7609H436.49a1.8816,1.8816,0,0,0,0,3.7609Z"/><path d="M138.2921,442.6612l23.6488-23.6488,3.4-3.4a1.8816,1.8816,0,0,0-2.6594-2.6594l-23.6488,23.6488-3.4,3.4a1.8815,1.8815,0,0,0,2.6594,2.6593Z"/><path d="M391.07,189.8835l23.6488-23.6488,3.4-3.4a1.8816,1.8816,0,0,0-2.6594-2.6594l-23.6487,23.6488-3.4,3.4a1.8816,1.8816,0,0,0,2.6594,2.6594Z"/><path d="M418.1186,440.0019,394.47,416.3531l-3.4-3.4a1.8816,1.8816,0,0,0-2.6594,2.6594l23.6488,23.6488,3.4,3.4a1.8815,1.8815,0,0,0,2.6594-2.6593Z"/><path d="M165.3409,187.2241l-23.6488-23.6488-3.4-3.4a1.8816,1.8816,0,0,0-2.6594,2.6594l23.6488,23.6488,3.4,3.4a1.8816,1.8816,0,0,0,2.6594-2.6594Z"/><path d="M128.5786,237.0483l15.3785,6.5627,36.93,15.76,44.6753,19.0649,38.6126,16.4776q9.3714,3.9992,18.7427,7.9984.1291.0549.2583.11a1.9546,1.9546,0,0,0,2.2787-.2941l8.7354-9.4841,20.9811-22.7795,25.39-27.5658,21.9608-23.8432c3.5612-3.8664,7.2272-7.66,10.6947-11.6113.05-.0571.1029-.1118.1543-.1676,1.6376-1.7779-1.0153-4.4443-2.6593-2.6594l-8.7354,9.4841-20.9811,22.78-25.39,27.5659L293.6449,288.29,286.4,296.156a47.3731,47.3731,0,0,0-3.4493,3.7449,2.1193,2.1193,0,0,1-.1543.1676l2.2788-.2941-15.3785-6.5626-36.9306-15.76L188.09,258.3871l-38.6127-16.4777q-9.3713-3.9991-18.7427-7.9983l-.2582-.11a1.9469,1.9469,0,0,0-2.5728.6746,1.8921,1.8921,0,0,0,.6746,2.5728Z"/><circle class="cls-2" cx="280.0236" cy="301.4183" r="14.7917"/><path d="M292.9349,301.4183a12.91,12.91,0,1,1-10.3477-12.6608,13.0228,13.0228,0,0,1,10.3477,12.6608c.0279,2.4184,3.7889,2.4248,3.7609,0a16.6748,16.6748,0,1,0-13.44,16.353,16.9058,16.9058,0,0,0,13.44-16.353C296.7238,298.9974,292.9629,298.9958,292.9349,301.4183Z"/><polygon class="cls-2" points="356.203 207.513 383.847 194.974 372.395 223.086 356.203 207.513"/><path d="M357.1519,209.1368l24.1811-10.9683,3.4629-1.5707-2.7623-2.1236-10.0169,24.59-1.4345,3.5216,3.1429-.83L359.576,208.1487l-2.0436-1.9653c-1.7449-1.6781-4.4079.9777-2.6593,2.6594l14.1492,13.6077,2.0435,1.9653a1.9083,1.9083,0,0,0,3.1429-.83l10.0169-24.59,1.4345-3.5216c.6918-1.6983-1.4635-2.7128-2.7624-2.1237l-24.1811,10.9683-3.4629,1.5708a1.8969,1.8969,0,0,0-.6747,2.5728A1.9231,1.9231,0,0,0,357.1519,209.1368Z"/><polygon class="cls-2" points="158.943 260.441 121.58 232.279 167.763 239.778 158.943 260.441"/><path d="M159.8919,258.8168,147.293,249.32l-20.11-15.1576-4.654-3.508-1.449,3.437,15.573,2.529,24.8566,4.0365,5.7527.9342-1.1238-2.7624-7.7069,18.0547-1.113,2.6076a1.947,1.947,0,0,0,.6746,2.5729,1.8921,1.8921,0,0,0,2.5728-.6747l7.7068-18.0547,1.1131-2.6076c.4212-.9867.2078-2.5461-1.1238-2.7624L152.69,235.436l-24.8566-4.0366-5.7527-.9341a1.89,1.89,0,0,0-1.449,3.437l12.5989,9.4964L153.34,258.5563l4.654,3.508a1.8941,1.8941,0,0,0,2.5728-.6747A1.924,1.924,0,0,0,159.8919,258.8168Z"/><path class="cls-5" d="M676.62,250.1483l-53.087,70.0164c8.3153,5.3,18.9726,14.7116,29.4554,26.5,8.19,9.2106,20.7191,39.1565,25.3232,46.9525l78.9937-94.9061"/><path d="M674.9963,249.1992l-5.2724,6.9538-12.6646,16.7032-15.3275,20.2155-13.2614,17.49-4.3779,5.7741c-.6876.9069-1.4762,1.7933-2.0882,2.7542-.0279.0437-.0636.0838-.095.1252a1.9035,1.9035,0,0,0,.6746,2.5728A115.2419,115.2419,0,0,1,639.1248,335.07q4.6987,4.4162,9.0913,9.1438a61.042,61.042,0,0,1,5.6549,6.643,125.4273,125.4273,0,0,1,8.1717,14.1464c2.791,5.4066,5.4216,10.894,8.05,16.381,2.1155,4.4169,4.1126,8.9538,6.5955,13.1818a1.8948,1.8948,0,0,0,2.9534.3806l7.89-9.48,18.86-22.6595,22.8007-27.3936,19.7115-23.6822c3.1971-3.8411,6.4369-7.6508,9.5931-11.5256.0453-.0555.0918-.11.1376-.1653,1.5379-1.8476-1.1088-4.5222-2.6593-2.6593l-7.8906,9.48-18.86,22.6595-22.8007,27.3936-19.7115,23.6822-6.5178,7.8308a42.6166,42.6166,0,0,0-3.0753,3.6948,1.9056,1.9056,0,0,1-.1376.1652l2.9534.3806c-2.1591-3.6766-3.9212-7.6027-5.7625-11.4431-2.6488-5.5247-5.2823-11.0577-8.062-16.5183a145.6139,145.6139,0,0,0-8.37-14.8324c-3.8717-5.8068-9.0393-10.7956-14.0316-15.6272a125.193,125.193,0,0,0-19.2271-15.706l.6746,2.5728,5.2725-6.9538,12.6645-16.7032,15.3275-20.2154,13.2614-17.49,4.3779-5.7741c.6877-.9069,1.4762-1.7933,2.0883-2.7541.0278-.0438.0635-.0839.0949-.1253a1.8937,1.8937,0,0,0-.6746-2.5728,1.9245,1.9245,0,0,0-2.5728.6746Z"/><path d="M662.7133,382.43q-2.2785,2.23-4.6377,4.3626c9.1863,6.8793,16.5007,9.9429,19.3666,7.3944,2.9334-2.6084.5739-10.53-5.4907-20.8Z"/><path d="M661.3836,381.1q-2.2785,2.2242-4.6377,4.3626a1.9077,1.9077,0,0,0,.3806,2.9534,60.602,60.602,0,0,0,10.4294,6.5325c2.4087,1.1243,5.1934,2.2591,7.9118,1.9611a5.4137,5.4137,0,0,0,4.8412-4.0308c.686-2.558.02-5.41-.765-7.8635a63.1627,63.1627,0,0,0-5.9687-12.5774,1.9021,1.9021,0,0,0-2.9534-.3806L661.3836,381.1c-1.7325,1.6959.9277,4.3544,2.6594,2.6594l9.2382-9.0427-2.9534-.3806a66.53,66.53,0,0,1,4.92,9.7822,17.2931,17.2931,0,0,1,1.5552,7.0293c-.0077.1276-.0891.64-.0186.2641-.0392.2087-.0947.4093-.1435.6155a2.6521,2.6521,0,0,1-.0957.2848c.0057-.0156.1446-.3009.0468-.1156a4.4545,4.4545,0,0,1-.3195.5394c.2177-.3018.0219-.0378-.11.0752-.34.2915.2239-.1011-.1743.1167-.1482.081-.4787.194-.1313.0791a5.9313,5.9313,0,0,1-.6549.1719c-.2775.0581.3167-.0235.0239-.0044-.0826.0054-.1662.0166-.2491.0165-.235,0-.4676.0032-.7026-.0074a6.1318,6.1318,0,0,1-1.27-.2095,18.3289,18.3289,0,0,1-3.4208-1.2134,60.1247,60.1247,0,0,1-10.558-6.5919l.3806,2.9534q2.3569-2.1409,4.6377-4.3626C665.7779,382.066,663.1175,379.4077,661.3836,381.1Z"/><path class="cls-1" d="M450.904,455.0306l133.0642-29.475a166.1,166.1,0,0,0,74.1074-38.7631q2.3563-2.1357,4.6377-4.3626l9.2382-9.0427A174.601,174.601,0,0,0,652.42,347.2329c-10.4828-11.7883-21.14-21.2-29.4554-26.5L612.45,334.6005l-14.4472,19.0543L429.9643,391.3439"/><path d="M451.4039,456.8438l6.4023-1.4181L474.6236,451.7l23.338-5.17L524.15,440.73l25.3128-5.607,20.79-4.6052,12.3354-2.7324a167.8122,167.8122,0,0,0,62.4538-28.0118c9.314-6.7612,17.5641-14.6072,25.7647-22.6342l2.4748-2.4224a1.9141,1.9141,0,0,0,.294-2.2788,168.77,168.77,0,0,0-17.2209-23.5515,188.6582,188.6582,0,0,0-21.5457-21.6224,104.6434,104.6434,0,0,0-10.8948-8.1549,1.9293,1.9293,0,0,0-2.5728.6746L601.0922,346.49l-4.7128,6.2157,1.1238-.8642-4.4967,1.0085-12.2371,2.7447-18.0982,4.0592-21.964,4.9263L516.53,370.0028l-24.4094,5.4747-22.7627,5.1054-19.2368,4.3146L436.29,388c-2.1763.4881-4.3909.8956-6.5469,1.4683-.0918.0244-.186.0418-.2787.0625-2.3607.5295-1.3616,4.1562,1,3.6266l6.8255-1.5309,18.0727-4.0535L481.19,381.78l29.6381-6.6475,30.2982-6.7955,26.8911-6.0314,20.29-4.5507c3.26-.7313,6.5535-1.3787,9.7933-2.1966,1.4544-.3671,2.2792-1.9471,3.1464-3.0909l8.6744-11.4406L622.442,324.513l2.1464-2.8309-2.5728.6746A122.6807,122.6807,0,0,1,641.45,338.419,201.1961,201.1961,0,0,1,661.9069,361.79a144.5076,144.5076,0,0,1,8.4209,12.5467l.294-2.2788c-6.3448,6.21-12.5837,12.5448-19.4258,18.2169A164.6925,164.6925,0,0,1,612.9892,413.91a159.6617,159.6617,0,0,1-30.1915,9.9807l-9.9669,2.2078-19.1559,4.2432-24.4791,5.4224-26.3171,5.8294-24.2233,5.3657-18.6418,4.1294c-3.0632.6785-6.1533,1.2854-9.1995,2.0377-.1357.0336-.2734.0606-.41.0909-2.362.5232-1.3624,4.15,1,3.6265Z"/><path class="cls-1" d="M433.4,395.008l-58.9765,70.5153,32.91,14.5779c-17.8651,16.6748-27.53,25.8332-38.5947,34.8256s-6.1566,18.3681,6.9841,12.1181c13.6744-8.1853,36.4589-25.6041,49.2082-35.5666a35.82,35.82,0,0,0,12.4861-18.75h0a35.8409,35.8409,0,0,1,10.3692-16.9578l18.392-4.1239"/><path d="M432.07,393.6784l-5.8895,7.0416-14.0583,16.8088-17,20.3262-14.77,17.6593c-2.3842,2.8507-4.8072,5.6737-7.1549,8.5547-.0342.042-.07.0831-.1042.1246-.69.8256-.8215,2.421.3806,2.9534l28.835,12.7729,4.0749,1.805-.3806-2.9534c-11.2509,10.5019-22.3694,21.1929-34.132,31.1275-2.6647,2.2506-5.6284,4.3133-7.85,7.0228-1.9219,2.3435-3.6077,5.3122-3.212,8.4525a6.2792,6.2792,0,0,0,4.9273,5.3c3.5258.85,7.3514-.3145,10.5316-1.8173a68.7082,68.7082,0,0,0,8.5221-5.3819c3.2089-2.1538,6.376-4.37,9.52-6.6162,6.527-4.6635,12.9578-9.4615,19.34-14.3207q4.4307-3.3735,8.83-6.7879a61.291,61.291,0,0,0,8.4038-7.266,37.9311,37.9311,0,0,0,6.6909-10.5373c1.588-3.7553,2.3634-7.7486,4.2638-11.3847a33.99,33.99,0,0,1,3.4246-5.3347c.6661-.8425,1.3764-1.6519,2.1178-2.4288q.4884-.5118.9971-1.0035c.7239-.7009.2009-.113-.0552-.2193.2492.1035,1.07-.24,1.3248-.2971l2.774-.622,13.2706-2.9755.9851-.2209c2.3607-.5293,1.3617-4.156-1-3.6265L455.3957,452.14l-6.3929,1.4334c-.5115.1147-1.0383.2035-1.5429.3459-1.2166.3434-2.1749,1.6143-3.0145,2.5141a37.4361,37.4361,0,0,0-6.898,10.4048c-1.5877,3.6068-2.331,7.5008-4.0473,11.0531a34.3744,34.3744,0,0,1-6.9129,9.6456,89.7637,89.7637,0,0,1-8.0381,6.54c-11.9194,9.2181-23.9555,18.36-36.501,26.7156-2.62,1.7452-5.3286,3.8465-8.2425,5.0652-2.374.9929-5.9818,2.113-8.2348.7309a2.1866,2.1866,0,0,1-1.0727-1.7618c.0286.2189.0026-.3548.0041-.4387.002-.1115.044-.5607.0363-.5107a6.7952,6.7952,0,0,1,.5441-1.753c1.455-3.1994,4.3729-5.3457,7.0045-7.5225,10.8488-8.9737,21.069-18.687,31.353-28.2929q2.6112-2.439,5.2229-4.8775a1.8918,1.8918,0,0,0-.38-2.9534l-28.8351-12.7729-4.0748-1.805.3806,2.9534,5.8894-7.0417,14.0583-16.8088,17-20.3261,14.77-17.6594c2.3843-2.8507,4.8072-5.6736,7.1549-8.5547.0342-.0419.07-.0831.1042-.1246,1.5428-1.8446-1.1042-4.5188-2.6593-2.6593Z"/><path class="cls-1" d="M420.2767,477.3s-34.5585,29.9123-54.7893,40.9382c-13.3823,5.7145-17.9079-3.8517-6.4893-12.39s21.4455-17.2992,39.9691-33.2392"/><path d="M418.947,475.97c-11.4793,9.9334-23.3611,19.4882-35.6508,28.3985-4.22,3.06-8.5043,6.0389-12.9219,8.807-3.8631,2.4206-8.4108,5.5645-13.2161,4.8457-1.67-.25-2.5807-.9318-2.7826-2.3022a5.3875,5.3875,0,0,1,.3275-2.0132,10.0866,10.0866,0,0,1,1.7169-2.89,35.6115,35.6115,0,0,1,6.3012-5.4432q2.8519-2.1841,5.6595-4.4253c10.8888-8.697,21.3556-17.9206,31.9162-27.0086,1.8376-1.5814-.8327-4.2314-2.6594-2.6594-9.9595,8.5709-19.8415,17.25-30.0584,25.5151q-2.8953,2.3423-5.8383,4.6251a68.2927,68.2927,0,0,0-6.7966,5.4409c-3.1041,3.11-6.3664,8.7228-2.7589,12.7034,3.6148,3.9888,10.8988,2.1678,14.9183-.0693,4.4162-2.458,8.6471-5.2478,12.8-8.124,9.1837-6.3611,18.0163-13.2339,26.7016-20.2554q4.9641-4.0134,9.855-8.1163c1.6405-1.3763,3.3569-2.7083,4.92-4.1737.0725-.068.1513-.13.2265-.1953,1.8334-1.5866-.8364-4.2369-2.6594-2.6594Z"/><path class="cls-1" d="M410.3575,469.5711s-35.8117,28.4-56.4977,38.5464c-13.6154,5.1342-17.7258-4.6175-5.9509-12.6575s22.169-16.3618,41.36-31.4912"/><path d="M409.0278,468.2414q-1.6137,1.2795-3.2454,2.5362c-.5361.4154-.6977.54-1.4,1.08q-1.0506.8081-2.1044,1.6119-2.4111,1.84-4.8379,3.6588c-8.3507,6.26-16.8255,12.3682-25.5369,18.1179-4.3388,2.8637-8.739,5.6443-13.2647,8.2046-3.89,2.2-8.601,5.1241-13.275,4.0445a4.2759,4.2759,0,0,1-1.77-.8317,2.5,2.5,0,0,1-.698-1.2851c-.1994-1.7057.9032-3.5554,2.1269-4.9481a34.2362,34.2362,0,0,1,6.46-5.1594q2.9878-2.0867,5.9276-4.2411c11.2954-8.2667,22.1991-17.0676,33.1888-25.7318a1.8932,1.8932,0,0,0,0-2.6594,1.9249,1.9249,0,0,0-2.6594,0c-10.31,8.1286-20.545,16.3727-31.1081,24.1735q-3.0666,2.2647-6.181,4.4634a64.5122,64.5122,0,0,0-6.9763,5.1547c-3.2032,2.9768-6.5613,8.4278-3.118,12.482,3.4173,4.0236,10.6284,2.6348,14.7066.6043,4.5055-2.2435,8.8384-4.8325,13.0962-7.5112,9.4509-5.9459,18.5664-12.427,27.5391-19.0673q5.1508-3.8118,10.2318-7.7171c1.77-1.3605,3.6413-2.6632,5.3227-4.1351.0747-.0654.1568-.1238.2347-.1855a1.8936,1.8936,0,0,0,0-2.6594,1.9244,1.9244,0,0,0-2.6594,0Z"/><path class="cls-1" d="M451.3927,386.5378l-51.214,8.47-37.6064,5.45a10.3327,10.3327,0,0,0-7.96,6.03h0a10.3329,10.3329,0,0,0,7.3448,14.3144l4.3274.8971a17.8478,17.8478,0,0,1,13.31,11.8365h0a17.8526,17.8526,0,0,1-6.8584,20.371C357.56,464.3005,342.06,475.4545,332.6853,480.73c-12.4254,6.9928-9.1727,17.0632,4.8354,13.1242,21.485-8.3219,59.6159-33.5224,59.6159-33.5224"/><path d="M450.8928,384.7245l-18.0746,2.9894-27.876,4.61c-4.06.6715-8.1191,1.2844-12.192,1.8747L365.211,398.19c-.9891.1433-1.9791.281-2.9674.43a12.2,12.2,0,0,0-7.1987,3.8213,12.3537,12.3537,0,0,0,2.4379,18.5416c2.2007,1.4284,4.77,1.7973,7.2833,2.3184a17.6953,17.6953,0,0,1,8.0306,3.5254,16.125,16.125,0,0,1,4.3569,19.0644,16.38,16.38,0,0,1-3.2016,4.5732,35.2857,35.2857,0,0,1-5.1365,3.86q-6.0786,4.1874-12.1373,8.4039c-7.0021,4.8488-13.9952,9.7465-21.2575,14.2021-2.9826,1.83-6.1765,3.3832-8.7046,5.854-1.9328,1.889-3.6727,4.4635-3.6346,7.2738.0922,6.7988,8.5406,7.0566,13.3708,6.0029a42.84,42.84,0,0,0,8.5115-3.36c2.8761-1.3266,5.7123-2.739,8.5234-4.1979,6.1189-3.1757,12.1235-6.5706,18.0658-10.0641q12.7763-7.5111,25.2-15.61.6673-.4349,1.3327-.8728c2.0106-1.3284.129-4.5868-1.8982-3.2474-5.8737,3.8807-11.8489,7.6146-17.8573,11.2822a361.0393,361.0393,0,0,1-34.204,18.9687,49.5445,49.5445,0,0,1-7.5065,3.1916c-2.57.7149-6.1173,1.289-8.4507-.052a2.2485,2.2485,0,0,1-.83-.6652c-.1614-.1813-.026.0192-.233-.3471-.1921-.34-.0947-.1445-.1567-.3634a1.7611,1.7611,0,0,1-.0968-1.0445,1.6508,1.6508,0,0,1,.0653-.3842,7.5167,7.5167,0,0,1,.24-.8c1.0937-2.7283,3.9853-4.7131,6.4764-6.14,6.5884-3.7751,12.868-8.0736,19.1258-12.3664q5.9316-4.0691,11.8322-8.1829,2.9592-2.0516,5.9232-4.0964a51.5312,51.5312,0,0,0,5.4344-3.9575,19.7228,19.7228,0,0,0-9.2739-33.8874,32.012,32.012,0,0,1-6.0107-1.42,8.4567,8.4567,0,0,1-.7093-15.15,11.2961,11.2961,0,0,1,4.0145-1.1521l24.925-3.6123c4.61-.6681,9.2292-1.2853,13.825-2.0454l24.55-4.06,23.2928-3.8524,1.3295-.22c2.3822-.394,1.3716-4.0188-1-3.6266Z"/><path d="M645.2644,409.4248l1.0167,28.4681.5019,14.0524a36.1415,36.1415,0,0,0,5.91,19.0656l8.8324,13.3275c1.3311,2.0085,4.59.1271,3.2474-1.8982l-8.0537-12.1524a37.6514,37.6514,0,0,1-4.42-8.2807,32.0524,32.0524,0,0,1-1.7365-9.5353l-1.128-31.5855-.4094-11.4615c-.0861-2.4131-3.8475-2.4246-3.7609,0Z"/><path d="M778.5521,606.3245l-.769,16.4445L776.5508,649.12l-.2815,6.0176c-.1131,2.42,3.6481,2.4138,3.7609,0l.7691-16.4444,1.2323-26.3508.2814-6.0177c.1132-2.4195-3.648-2.4138-3.7609,0Z"/><path d="M836.0481,786.1978l5.2743-9.4886,12.6682-22.7905,15.33-27.5792,13.26-23.8546c2.1483-3.865,4.4348-7.6839,6.4573-11.617.0292-.0567.0622-.1118.0932-.1676,1.177-2.1175-2.07-4.0164-3.2475-1.8982l-5.2743,9.4886-12.6682,22.79-15.33,27.5792-13.26,23.8546c-2.1483,3.865-4.4348,7.6839-6.4573,11.617-.0292.0567-.0622.1118-.0932.1676-1.1769,2.1175,2.07,4.0164,3.2475,1.8982Z"/><path class="cls-1" d="M647.1449,213.2309c-8.7755,13.79-2.9346,28.9739,11.9095,30.0872,25.0727,1.8805,50.7723-15.8282,50.7723-30.714Z"/><path d="M645.5212,212.2818c-3.7782,6.02-5.7159,13.6612-3.3381,20.5758a18.2771,18.2771,0,0,0,14.3439,12.0261c8.1751,1.4031,17.1216-.0647,24.9038-2.6938A58.5159,58.5159,0,0,0,701.95,230.4677c5.0393-4.5514,9.6928-10.7873,9.7576-17.8636a1.9048,1.9048,0,0,0-1.88-1.88l-21.1582.2116-33.7468.3375-7.7768.0777c-2.4187.0242-2.4248,3.7852,0,3.7609L668.303,214.9l33.7469-.3375,7.7768-.0778-1.88-1.88c-.0476,5.1938-3.3417,9.91-6.89,13.5149a51.1326,51.1326,0,0,1-17.3585,11.2376,55.91,55.91,0,0,1-22.4416,4.196c-5.9852-.18-11.6863-2.2408-14.6227-7.8006-3.3252-6.296-1.4592-13.8446,2.1354-19.572C650.0589,212.124,646.8062,210.2343,645.5212,212.2818Z"/><path class="cls-8" d="M723.6166,116.0741l14.7455-19.2033a42.25,42.25,0,0,1,32.2433-16.4995h0a42.25,42.25,0,0,1,43.5078,41.3772l.9856,48.784a54.766,54.766,0,0,0,29.723,47.6045h0a4.03,4.03,0,0,1-1.9859,7.6123l-32.099-1.1464-8.7681-6.9843-2.9758,6.5649-8.307-.2967L778.15,211.35l-3.71,11.5253-21.3624-.8694-25.0727-87.1276"/><path d="M725.24,117.0232l12.4412-16.2025a57.37,57.37,0,0,1,7.0849-8.1372,40.3636,40.3636,0,0,1,67.4667,29.08c.1263,5.3455.216,10.6921.324,16.0379l.5157,25.5255c.1453,7.1966.2547,14.28,2.2086,21.2943a57.0979,57.0979,0,0,0,22.87,31.7462q2.1381,1.45,4.4069,2.6951c.8816.4833,2.0411.8517,2.4487,1.8425a2.1942,2.1942,0,0,1-2.1815,2.9633c-2.209-.0153-4.4247-.1581-6.632-.2369l-23.7478-.8481-1.7089-.0611,1.33.5508-8.7682-6.9843c-.8442-.6725-2.4026-.8345-2.9534.3806l-2.9757,6.5649,1.6237-.9314-8.307-.2967,1.33.5508L779.48,210.0208a1.9011,1.9011,0,0,0-3.143.83l-3.71,11.5253,1.8132-1.3805-18.6945-.7608-2.6679-.1086,1.8133,1.3805-2.4849-8.6349-6.0036-20.8626L739.1706,166.88l-6.2548-21.7355c-1.0157-3.5294-1.8994-7.1323-3.0559-10.619-.016-.0483-.0282-.0981-.0422-.1469-.6681-2.3217-4.2983-1.3344-3.6266,1l2.4849,8.6349,6.0036,20.8626,7.2313,25.1287,6.2548,21.7355c1.0156,3.5294,1.8993,7.1324,3.0558,10.619.016.0483.0282.0981.0423.1469a1.9319,1.9319,0,0,0,1.8133,1.3806l18.6945.7608,2.6679.1086a1.9147,1.9147,0,0,0,1.8133-1.3806l3.71-11.5253-3.143.83,7.8348,7.8348,4.1526,4.1526a3.3415,3.3415,0,0,0,1.3787,1.0326,9.824,9.824,0,0,0,2.1916.1276l6.6153.2362a1.8342,1.8342,0,0,0,1.6237-.9313l2.9758-6.5649-2.9534.3806q4.2162,3.3585,8.4326,6.717a3.8465,3.8465,0,0,0,2.5373.8492l4.1906.15,25.56.9128a11.7635,11.7635,0,0,0,3.0789-.1127,5.96,5.96,0,0,0,4.42-6.3665c-.3735-3.641-3.59-4.7411-6.3275-6.39a52.3329,52.3329,0,0,1-8.6521-6.5129,53.3185,53.3185,0,0,1-16.8995-37.6662c-.1382-6.0274-.2435-12.0558-.3653-18.0836l-.5365-26.5585c-.0455-2.25-.0341-4.5153-.217-6.7589a44.1221,44.1221,0,0,0-78.35-24.1972c-4.774,5.9869-9.34,12.15-14.0034,18.223l-1.5142,1.9719a1.8932,1.8932,0,0,0,.6746,2.5729,1.926,1.926,0,0,0,2.5729-.6747Z"/><path d="M657.2067,123.4578a1.8816,1.8816,0,0,0,0-3.7609,1.8816,1.8816,0,0,0,0,3.7609Z"/><path class="cls-2" d="M704.3682,110.349s18.5852-8.0069,28.0279,16.2505c4.274,19.3592-16.7332,23.1963-16.7332,23.1963"/><path d="M705.3173,111.9728c-.7565.3238-.2673.1125.0584-.0027.4172-.1475.8424-.2735,1.27-.3868.6319-.1675,1.2713-.2979,1.9153-.4088.1625-.028.6187-.0909.19-.0347q.3293-.0431.66-.0756.6665-.0658,1.336-.0889a15.8976,15.8976,0,0,1,5.8283.7544,17.3165,17.3165,0,0,1,6.3285,3.6022,27.3562,27.3562,0,0,1,6.0833,8.2035,16.79,16.79,0,0,1,1.9659,5.6658,18.07,18.07,0,0,1-.0047,4.6539c-.7,4.896-3.8447,8.6106-7.84,11.0116a27.2755,27.2755,0,0,1-3.08,1.5822,3.5693,3.5693,0,0,1-.3836.1586c-.2392.0944-.4787.1878-.72.2771q-.5877.2175-1.1844.41a20.6841,20.6841,0,0,1-2.5769.6878c-2.3769.4386-1.37,4.0639,1,3.6266,7.961-1.469,16.0567-7.1335,18.1049-15.2411.8616-3.41.9759-7.756-.37-11.0481a36.5125,36.5125,0,0,0-6.5571-10.8845,21.5827,21.5827,0,0,0-14.8895-7.2075,20.6287,20.6287,0,0,0-9.0325,1.4974,1.8942,1.8942,0,0,0-.6746,2.5728,1.9275,1.9275,0,0,0,2.5728.6747Z"/><path class="cls-8" d="M616.0335,113.2755l-2.2719,5.5988a53.7859,53.7859,0,0,0-3.8386,20.5977h0A27.52,27.52,0,0,0,599.54,163.471l2.4737,28.4481,56.2039,3.7911c9.4254-3.1089,49.7668-50.7864,35.9136-79.4886"/><path d="M614.22,112.7756c-1.0439,2.5723-2.16,5.129-3.0868,7.7467a56.4691,56.4691,0,0,0-3.0909,18.95l.5508-1.33a29.3317,29.3317,0,0,0-9.9715,15.1012,32.2186,32.2186,0,0,0-.851,11.5047l1.7843,20.5195.5784,6.6514a1.9378,1.9378,0,0,0,1.88,1.88l21.1819,1.4288,30.8354,2.08c2.1574.1456,4.1527.6164,6.1327-.4076,3.4042-1.7606,6.3236-4.7538,8.9608-7.4731a123.374,123.374,0,0,0,22.1729-31.6962c5.5765-11.4822,10.0509-25.4057,6.168-38.116a31.5187,31.5187,0,0,0-1.71-4.3428c-1.0412-2.1836-4.2849-.2777-3.2475,1.8982,5.3365,11.1925,1.7854,24.6786-2.9542,35.42A119.9673,119.9673,0,0,1,668.62,184.47c-1.654,1.8213-3.37,3.5912-5.182,5.2557-.72.6617-1.4566,1.3069-2.2164,1.9232q-.2411.1956-.4853.387c.3335-.2613-.1114.0846-.2049.1533-.3261.2393-.6536.4762-.9906.7a17.283,17.283,0,0,1-1.6275.938c-.4.2074.3169-.03-.0026.0013-.3729.0369.3206.0067.2975.0005-.0573-.0154-.1233,0-.1815-.0123a20.3683,20.3683,0,0,0-2.6486-.1786l-28.87-1.9474-15.43-1.0408c-2.8691-.1935-5.7755-.5429-8.6519-.5836-.137-.0019-.2753-.0185-.4122-.0278l1.88,1.88L601.84,168.2938c-.3487-4.0094-.8582-8.0093-.0747-12.01a26.0562,26.0562,0,0,1,4.8007-10.762,26.3321,26.3321,0,0,1,4.23-4.3519,2.8549,2.8549,0,0,0,1.0088-2.6182q.0189-1.9515.1694-3.8985a51.828,51.828,0,0,1,3.6055-15.2914c.7494-1.8648,1.5113-3.7246,2.267-5.5868a1.8945,1.8945,0,0,0-1.3134-2.3132,1.9245,1.9245,0,0,0-2.3131,1.3134Z"/><polyline class="cls-1" points="656.547 218.872 655.355 187.741 693.169 173.567 694.156 213.858 709.827 212.604"/><path d="M658.4276,218.8723l-1.045-27.2983-.1468-3.8334-1.3806,1.8133,33.2019-12.4447,4.6118-1.7286-2.38-1.8133.8659,35.3393.1214,4.9511a1.8977,1.8977,0,0,0,1.88,1.8805l15.67-1.2537c2.3962-.1917,2.4168-3.9542,0-3.7609l-15.67,1.2537,1.88,1.88-.866-35.3393-.1213-4.9511a1.8959,1.8959,0,0,0-2.38-1.8132l-33.2019,12.4446-4.6117,1.7286a1.9386,1.9386,0,0,0-1.3806,1.8133l1.045,27.2983.1468,3.8334c.0924,2.4124,3.8537,2.4244,3.7609,0Z"/><path class="cls-1" d="M673.5116,189.8683a63.6517,63.6517,0,0,1-23.5122,5.2643C611.451,190,629.1437,122.3315,629.1437,122.3315l72.361-1.9446s9.2581,15.5647,8.5039,22.6881c-1.2989,12.2677-13.3405,20.9537-16.786,36.7542"/><path d="M672.5625,188.2446a60.24,60.24,0,0,1-20.0062,4.847,13.9117,13.9117,0,0,1-3.9849-.09,28.2813,28.2813,0,0,1-2.82-.7063,21.4176,21.4176,0,0,1-4.79-2.0934c-5.8-3.3935-9.3944-9.324-11.38-15.6947-2.2148-7.1047-2.725-14.3933-2.5926-21.8446.0642-3.6089.3041-7.214.6781-10.8037.3335-3.2.6785-5.7069,1.2232-8.9449q.5678-3.3747,1.2858-6.7219a33.0123,33.0123,0,0,0,.7449-3.2185,1.0435,1.0435,0,0,1,.0366-.1426l-1.8133,1.3806,24.5167-.6589,38.9125-1.0457,8.9318-.24-1.6238-.9313c3.2373,5.4514,6.3463,11.4243,7.8374,17.6135,2.0407,8.471-4.7336,16.606-8.9155,23.4055a55.94,55.94,0,0,0-7.3935,16.9743c-.5267,2.3577,3.0983,3.3646,3.6266,1a51.2293,51.2293,0,0,1,6.5629-15.3363c2.5728-4.2483,5.4961-8.3237,7.6153-12.83,1.87-3.9768,3.1886-8.2875,2.4437-12.699-.7206-4.2682-2.57-8.3819-4.4229-12.2623-1.26-2.6387-2.6129-5.2481-4.1065-7.7633a1.884,1.884,0,0,0-1.6237-.9314l-24.5167.6589-38.9126,1.0457-8.9317.24a1.9232,1.9232,0,0,0-1.8133,1.38c-.7455,2.8558-1.3074,5.768-1.8233,8.6722a144.2418,144.2418,0,0,0-2.2377,20.4968c-.2534,7.7751.2,15.7493,2.3181,23.2688,2.0188,7.1674,5.7671,13.935,11.9982,18.24a27.03,27.03,0,0,0,10.9376,4.2918c3.5069.5779,7.4568-.2107,10.9389-.7909a61.0427,61.0427,0,0,0,10.2965-2.6172c1.5948-.5631,3.16-1.2064,4.702-1.9006a1.8964,1.8964,0,0,0,.6746-2.5728,1.9235,1.9235,0,0,0-2.5728-.6746Z"/><path d="M684.763,155.6833c.1126-.3712.239-.7386.3678-1.1044q.2109-.599.4406-1.1909.1278-.33.2614-.6572c.047-.1154.0985-.23.143-.3458-.23.6008-.0236.0588.04-.0865a26.8973,26.8973,0,0,1,1.6153-3.1624q.2172-.3582.4506-.7063.115-.1707.2345-.3383c.0507-.071.3578-.4807.1545-.2149-.211.2758.1066-.1272.1629-.1936q.1243-.1467.2543-.2887a7.7851,7.7851,0,0,1,.5576-.552c.0443-.0394.09-.0769.1345-.1164.2312-.2076-.0657.0749-.1423.1035a2.4234,2.4234,0,0,0,.3466-.24c.1151-.0724.235-.134.3536-.2.3726-.2077-.377.1061-.0525.02.11-.0292.221-.0651.33-.0972.4141-.1218-.478.004-.052.001.1264-.0009.2534.0046.38.0036.1829-.0014.1076.1467-.27-.0379a1.2562,1.2562,0,0,0,.2322.05,1.8809,1.8809,0,1,0,1-3.6265c-2.9491-.73-5.2457,1.466-6.784,3.7012a29.9185,29.9185,0,0,0-3.2555,6.7245c-.188.514-.3709,1.0315-.53,1.5555a1.8991,1.8991,0,0,0,1.3134,2.3132,1.9194,1.9194,0,0,0,2.3131-1.3134Z"/><path d="M653.0679,141.6578a8.6255,8.6255,0,0,1,1.029-.5711c.1994-.0972.4019-.1873.6049-.2765-.4539.2.1107-.0375.2775-.0985a14.4614,14.4614,0,0,1,1.7-.5059c.3119-.0723.6257-.128.94-.1856.3445-.063-.0789.003.1376-.0207.1892-.0208.3784-.04.5683-.0533a13.3242,13.3242,0,0,1,2.24.0247,12.8235,12.8235,0,0,1,4.69,1.5925c2.1081,1.1963,4.0054-2.0516,1.8982-3.2474a15.8467,15.8467,0,0,0-11.1414-1.81A13.9286,13.9286,0,0,0,651.17,138.41a1.9257,1.9257,0,0,0-.6746,2.5728,1.8987,1.8987,0,0,0,2.5728.6746Z"/><path d="M628.015,141.2577c.0691-.0322.23-.0991-.0591.0227-.3464.1458.0692-.0259.15-.0534.5039-.1706,1.0036-.3388,1.52-.4711a17.26,17.26,0,0,1,4.712-.5127,6.6251,6.6251,0,0,1,6.3724,4.5415c.81,2.6332-.23,5.6146-1.4364,7.97a23.8272,23.8272,0,0,1-3.0711,4.5758,4.7971,4.7971,0,0,0-1.52,2.4092,5.4237,5.4237,0,0,0,.0384,2.0737c.8306,3.3895,4.735,3.5187,7.555,3.1729a1.94,1.94,0,0,0,1.88-1.88,1.8917,1.8917,0,0,0-1.88-1.88,8.1937,8.1937,0,0,1-3.7248-.0875c-.234-.1042-.1947-.09-.2036-.3243.0112.2928.0406-.4173.0219-.4622-.1327-.3191.0353.2974-.136.354.2073-.0685.615-.6994.7777-.8932a24.9906,24.9906,0,0,0,5.1983-9.4511,11.1253,11.1253,0,0,0-1.0142-9.0749,10.4676,10.4676,0,0,0-8.4077-4.7878,18.7151,18.7151,0,0,0-8.6709,1.5123c-2.1918,1.0215-.2842,4.2646,1.8982,3.2474Z"/><circle cx="633.1101" cy="148.7051" r="2.533"/><path d="M634.7028,148.6882c0,.0706-.0052.1407-.0073.2112-.0055.1862.0123-.03.0094-.0433a.9.9,0,0,1-.0761.332.62.62,0,0,1-.0661.1908c.0092-.01.0992-.1982.0143-.0411-.0637.118-.13.23-.2016.3427-.111.1754.1041-.0869.0061-.0073a1.4007,1.4007,0,0,0-.11.1225,1.0655,1.0655,0,0,1-.2433.2223c.1726-.0842.0824-.06.031-.0292-.057.034-.1109.0723-.1686.1053q-.0577.033-.1172.0629t-.1208.0569q.1676-.07.0688-.0328c-.1058.0119-.2195.0706-.3257.0934-.0675.0146-.2.0754.0121.0061a.7185.7185,0,0,1-.1745.0141c-.1183.0057-.2341-.0045-.352-.0072-.1432-.0033.23.0485.01.0007-.0669-.0145-.1331-.0277-.1993-.0457s-.1283-.0414-.193-.0611c-.0889-.0271-.0887.0128.0386.0191a.8775.8775,0,0,1-.2926-.157c-.0456-.0285-.09-.0677-.1372-.0923-.1142-.059.1591.1495.009.0041-.0956-.0926-.1884-.1822-.2778-.2813-.1207-.1338.0163.03.0252.0342-.0368-.0173-.0885-.131-.1095-.1656a1.1725,1.1725,0,0,1-.1535-.2951c.0055.0227.0682.2009.0214.0372-.0187-.0652-.0417-.1287-.0587-.1944-.0114-.0442-.02-.0889-.03-.1332-.0452-.188.01.1927-.0087-.0588a2.5677,2.5677,0,0,1-.0045-.3175l.0043-.07q.0162-.1607-.0093.0434a.6815.6815,0,0,0,.0252-.1348c.0239-.1111.0606-.2168.0933-.3252.0643-.2138-.0988.1723.0093-.0217.0324-.0581.0605-.1183.0943-.1757.028-.0476.06-.0927.0887-.14.0535-.087.0333-.1466-.0087.0052.02-.0717.1722-.1906.2253-.24.0394-.037.087-.0695.1239-.1087.0887-.094-.186.1155-.0054.0083.1148-.0682.2267-.136.3457-.1975.1018-.0526.0123-.0464-.04.0166.0259-.0315.1532-.0525.1921-.0637q.0654-.0187.1318-.034c.0153-.0035.2328-.0595.0779-.02-.15.038.06-.0041.0827-.0055.0589-.0037.1178-.005.1768-.0046s.1172.0059.1758.007c.212.0038-.1642-.0425.0243.0023.1331.0316.2616.0673.3923.1068.202.0612-.1132-.0785-.0084-.0048.0613.0431.1406.07.2058.1084q.057.0336.1123.07t.1084.0757q-.1539-.1207-.0358-.0233c.0788.0769.161.1489.2345.2314l.0432.05q.0968.1188-.0252-.0341c.03.0138.0927.1377.11.1656q.0516.0852.0966.1743l.0292.06q.0638.1415-.0166-.04c.0688.0567.0909.3117.1121.3908.0149.0559.0646.1558-.0012-.0454a1.0546,1.0546,0,0,1,.0173.28.94.94,0,1,0,1.88,0,3.5324,3.5324,0,0,0-2.3309-3.2608,3.4682,3.4682,0,0,0-3.7852,1.031,3.4707,3.4707,0,1,0,6.1161,2.23.94.94,0,1,0-1.88,0Z"/><circle cx="656.9664" cy="148.5452" r="2.533"/><path d="M658.5591,148.5282c0,.0707-.0052.1408-.0073.2113-.0054.1862.0124-.03.0094-.0433a.8975.8975,0,0,1-.0761.332.6176.6176,0,0,1-.0661.1908c.0092-.01.0992-.1983.0143-.0411-.0637.118-.13.2294-.2015.3427-.111.1754.104-.0869.006-.0074a1.4333,1.4333,0,0,0-.11.1226,1.0671,1.0671,0,0,1-.2432.2223c.1725-.0842.0823-.06.0309-.0292-.0569.034-.1109.0723-.1686.1053-.0384.022-.0776.043-.1172.0629s-.08.039-.1207.0569q.1674-.07.0688-.0328c-.1059.0119-.22.0706-.3258.0934-.0674.0145-.2.0754.0121.0061a.7177.7177,0,0,1-.1744.0141c-.1184.0057-.2342-.0045-.3521-.0072-.1431-.0033.23.0485.01.0007-.0668-.0145-.1331-.0278-.1992-.0457s-.1284-.0414-.193-.0611c-.0889-.0271-.0888.0128.0386.0191a.8788.8788,0,0,1-.2927-.157c-.0456-.0285-.09-.0677-.1372-.0923-.1142-.0591.1591.1495.009.004-.0956-.0926-.1884-.1821-.2777-.2812-.1208-.1338.0163.03.0252.0342-.0369-.0173-.0886-.131-.11-.1656a1.1722,1.1722,0,0,1-.1534-.2951c.0054.0227.0682.2008.0213.0371-.0187-.0651-.0417-.1286-.0587-.1944-.0114-.0441-.02-.0888-.03-.1331-.0452-.188.01.1927-.0086-.0588a2.5677,2.5677,0,0,1-.0046-.3175l.0044-.07q.0161-.1607-.0094.0434a.6815.6815,0,0,0,.0252-.1348c.0239-.1111.0607-.2168.0933-.3252.0643-.2138-.0988.1723.0094-.0218.0323-.058.06-.1182.0942-.1756.028-.0476.06-.0927.0887-.14.0535-.087.0333-.1466-.0087.0052.02-.0718.1722-.1906.2253-.24.0394-.037.087-.07.124-.1087.0886-.094-.186.1155-.0055.0083.1148-.0682.2267-.136.3457-.1975.1019-.0526.0123-.0464-.04.0166.0259-.0315.1532-.0525.1922-.0637.0435-.0125.0876-.0238.1317-.034.0154-.0035.2328-.06.0779-.02-.15.038.06-.0042.0827-.0056q.0883-.0054.1768-.0045c.0587,0,.1172.0059.1758.007.212.0038-.1642-.0425.0244.0023.133.0316.2616.0672.3922.1068.202.0612-.1131-.0785-.0084-.0048.0613.0431.1407.07.2058.1084.038.0224.0756.0458.1124.07s.0728.0495.1083.0757q-.1539-.1209-.0358-.0233c.0789.0769.1611.1489.2345.2314l.0432.05q.0969.1186-.0252-.0341c.03.0138.0927.1377.11.1655q.0517.0854.0966.1744l.0292.06q.0638.1415-.0166-.04c.0688.0567.0909.3116.1121.3908.015.0559.0647.1557-.0011-.0455a1.051,1.051,0,0,1,.0172.28.94.94,0,1,0,1.8805,0,3.5326,3.5326,0,0,0-2.331-3.2607,3.4682,3.4682,0,0,0-3.7852,1.031,3.4708,3.4708,0,1,0,6.1162,2.23.94.94,0,0,0-1.8805,0Z"/><path d="M652.7335,166.2811a3.9975,3.9975,0,0,1-.2289.415c-.0948.1551-.1978.3045-.3033.4525-.2419.34.32-.3906.0671-.0856-.0821.099-.1644.1975-.2507.2931a7.16,7.16,0,0,1-.5691.564c-.0582.0514-.1181.1006-.1769.1514-.2522.218.1637-.09.1658-.1235-.0046.0712-.3436.2457-.4089.2881a8.9511,8.9511,0,0,1-.91.494c-.103.0513.4673-.181.1478-.0649-.0786.0286-.1566.0584-.2358.0854q-.2876.0979-.5832.1689-.1759.0425-.3542.0751c-.0455.0084-.0913.0152-.1367.024-.2581.05.1911-.0179.22-.0271a2.793,2.793,0,0,1-.74.0524q-.3982.0085-.796-.0225c-.15-.0114-.2986-.0343-.4482-.0459-.0127-.001.4208.0681.2112.0254-.0975-.02-.1971-.0335-.2949-.0516a1.8809,1.8809,0,0,0-1,3.6266,9.4622,9.4622,0,0,0,6.4339-.8607,9.02,9.02,0,0,0,3.0912-2.9346,4.5493,4.5493,0,0,0,.3474-.6013,2.0345,2.0345,0,0,0,.19-1.449,1.8809,1.8809,0,0,0-3.437-.4492Z"/><path class="cls-8" d="M615.1268,115.6314l1.6557-4.3017c7.891-19.4806,25.0532-34.539,67.0856-22.5546,0,0,17.1458,5.3982,31.1952,25.5855l4.1824,6.4a37.6557,37.6557,0,0,1,3.2651,10.31,51.91,51.91,0,0,1-2.211,27.21q-.2484.6909-.48,1.3863L705.5385,203.26a12.1923,12.1923,0,0,1-11.569,8.3965h0l-2.21-47.5041c3.534-2.55,8.8535-12.6051,9.0792-18.4826.341-8.8794-4.3454-11.1517-10.5475-11.39s-13.5079,11.2149-13.84,19.869l-.28-18.7741a9.8258,9.8258,0,0,0-10.9116-9.6224c-7.43.827-21.8252,1.8085-34.5036,2.3376a13.36,13.36,0,0,1-8.306-2.4345"/><path d="M616.94,116.1313c2.1642-5.6226,4.5191-11.2255,8.2865-15.9471a35.0494,35.0494,0,0,1,16.8547-11.6613c9.1765-2.9241,19.1459-2.5322,28.5287-.898A83.0348,83.0348,0,0,1,683.7811,90.73c.2622.0921.5215.1931.78.2949.2049.0807.4087.1643.6123.2483.297.1226-.0607-.0253-.1-.0424q.2543.1094.5076.2209c1.2146.5375,2.4056,1.1283,3.5752,1.7575a70.19,70.19,0,0,1,22.4118,19.5192c2.057,2.7176,3.8556,5.6167,5.7188,8.468,1.6177,2.4756,2.356,5.556,3.0333,8.55a49.4907,49.4907,0,0,1,.2536,20.5381,86.2562,86.2562,0,0,1-2.8967,9.89l-4.9665,15.16-6.5763,20.0735c-1.3342,4.0727-2.266,9.3975-5.808,12.1771a10.3809,10.3809,0,0,1-6.3564,2.1911l1.88,1.8805-.7458-16.031-1.19-25.5735-.2745-5.9-.9313,1.6237c3.6978-2.761,6.0445-7.4258,7.7918-11.5831,1.9184-4.5645,3.1844-9.8727,1.45-14.716-1.5159-4.2339-5.1461-6.33-9.4449-6.8887a10.2789,10.2789,0,0,0-5.9322.669,15.7187,15.7187,0,0,0-5.32,4.3937,28.8084,28.8084,0,0,0-6.6827,16.4979h3.7609c-.0925-6.2138-.1237-12.4315-.2777-18.644a11.8434,11.8434,0,0,0-10.1759-11.579c-2.7888-.3681-5.7773.28-8.5667.5186-3.4622.2963-6.9281.549-10.3953.7791q-6.7511.448-13.5094.7756a43.0419,43.0419,0,0,1-6.5282.1589,11.9258,11.9258,0,0,1-5.479-2.1263c-2.0025-1.37-3.8857,1.8874-1.8982,3.2474a16.2114,16.2114,0,0,0,10.1321,2.654q5.9173-.255,11.83-.6071c6.6782-.3945,13.3605-.8359,20.0175-1.5056,2.7228-.2738,5.1945-.4244,7.5356,1.2613a8.0268,8.0268,0,0,1,3.2748,6.31c.0835,2.9139.0869,5.8323.13,8.747l.1491,10.01a1.8816,1.8816,0,0,0,3.7609,0,24.5436,24.5436,0,0,1,6.2186-14.58c1.3162-1.46,3.0511-3.1092,5.0961-3.3926a11.7631,11.7631,0,0,1,5.3365.8451c4.1383,1.7428,4.5243,7.057,3.6447,10.9312a31.4743,31.4743,0,0,1-6.6541,13.4193c-.9,1.0131-2.0766,1.51-2.0846,2.9855-.0032.5829.0546,1.1726.0816,1.7548l.3592,7.72,1.0577,22.7345.702,15.0892a1.9143,1.9143,0,0,0,1.88,1.88,14.1947,14.1947,0,0,0,13.0056-8.7768c.5212-1.27.9023-2.6047,1.3293-3.9079L714.4151,182.2l6.16-18.8047c.3527-1.0763.7006-2.1544,1.058-3.2291a70.3562,70.3562,0,0,0,2.8183-10.232,54.3385,54.3385,0,0,0,.8014-11.0218,48.862,48.862,0,0,0-3.7418-17.7364,44.0676,44.0676,0,0,0-3.8981-6.3469,76.4118,76.4118,0,0,0-21.8919-22.0824,57.3741,57.3741,0,0,0-8.5023-4.6563,45.2858,45.2858,0,0,0-7.2912-2.3181c-10.7926-2.6984-22.2225-4.2366-33.272-2.249A39.939,39.939,0,0,0,625.9,93.86a48.0643,48.0643,0,0,0-11.07,17.3321c-.5093,1.3115-1.0108,2.6261-1.5162,3.9392a1.8969,1.8969,0,0,0,1.3134,2.3132,1.9208,1.9208,0,0,0,2.3131-1.3134Z"/></svg>