<svg id="Layer_1" data-name="Layer 1" xmlns="http://www.w3.org/2000/svg" width="1000" height="1000" viewBox="0 0 1000 1000"><defs><style>.cls-1{fill:#ea2f2f;}.cls-2{fill:#f9ca49;}.cls-3{fill:#fc7f3a;}.cls-4{fill:#fc7272;}.cls-5{fill:#fff;}.cls-6{fill:#389b48;}.cls-7{fill:#458dc9;}.cls-8{fill:#ffc41f;}</style></defs><path d="M304.1267,641.2882V551.3859c0-1.2048.1058-2.4643,0-3.6657-.0046-.0523,0-.1068,0-.1593a.8341.8341,0,0,0-.8222-.8222,16.8332,16.8332,0,0,1-14.1233-7.7694,17.53,17.53,0,0,1-2.5941-9.5517V460.7042c0-1.3061.0938-2.6524,0-3.9561-.0041-.0574,0-.1164,0-.174a.8342.8342,0,0,0-.8222-.8222H229.3093a.8341.8341,0,0,0-.8222.8222v74.5434l.8222-.8222H180.2532a.8341.8341,0,0,0-.8222.8222V685.54a12.4106,12.4106,0,0,0,0,2.0728,1.5808,1.5808,0,0,1,0,.2647l.8222-.8222H148.1886a.8227.8227,0,0,0,0,1.6444h32.0646a.8341.8341,0,0,0,.8221-.8222V533.455a12.4106,12.4106,0,0,0,0-2.0728,1.5808,1.5808,0,0,1,0-.2647l-.8221.8222h49.0561a.8341.8341,0,0,0,.8221-.8222V456.5741l-.8221.8222h56.4556l-.8222-.8222v72.6832a19.8937,19.8937,0,0,0,1.8649,8.8289,18.4675,18.4675,0,0,0,12.5376,9.8677,18.7062,18.7062,0,0,0,3.9593.4291l-.8221-.8221v89.9023c0,1.2047-.1058,2.4642,0,3.6657.0046.0523,0,.1067,0,.1593a.8226.8226,0,0,0,1.6443,0Z"/><path d="M286.039,508.9189h53.9891l-.8222-.8222V622.1042a.8341.8341,0,0,0,.8222.8222h10.5733c3.6017,0,7.4167.3633,11.0014-.1084a12.2066,12.2066,0,0,0,10.49-12.0229c.0685-3.6374,0-7.2828,0-10.9208V588.1212l-.8222.8222h56.4557l-.8222-.8222v56.4557a.8342.8342,0,0,0,.8222.8222h17.54a.8341.8341,0,0,0,.8222-.8222V534.9543l-.8222.8221h37.82l-.8222-.8221v87.15a.8341.8341,0,0,0,.8222.8222h32.3387l-.8222-.8222V654.991a.8341.8341,0,0,0,.8222.8222h39.4641a.8341.8341,0,0,0,.8222-.8222V610.5939l-.8222.8221A27.42,27.42,0,0,0,582.02,584.238c.0666-8.7468,0-17.4967,0-26.2437V547.5609l-.8222.8221h46.3156a.8341.8341,0,0,0,.8222-.8221c0-7.8082-.065-15.6191,0-23.4269a21.3714,21.3714,0,0,1,10.1035-18.1467c4.8121-2.9425,9.9159-3.0976,15.33-3.0976H667.8a.8227.8227,0,0,0,0-1.6444H654.7771c-5.2565,0-10.3028-.091-15.1944,2.2486A22.9031,22.9031,0,0,0,626.93,520.7491c-.5864,4.1055-.2389,8.452-.2389,12.5816v14.23l.8222-.8222H581.1978a.8341.8341,0,0,0-.8221.8222V570.992c0,9.1341,1.1527,18.9328-4.0031,27.0118a25.6708,25.6708,0,0,1-21.4842,11.7679.8342.8342,0,0,0-.8222.8222V654.991l.8222-.8221H515.4243l.8221.8221V622.1042a.834.834,0,0,0-.8221-.8221H483.0856l.8222.8221v-87.15a.8341.8341,0,0,0-.8222-.8222h-37.82a.8342.8342,0,0,0-.8222.8222V644.5769l.8222-.8222h-17.54l.8222.8222V588.1212a.8341.8341,0,0,0-.8222-.8221H371.2705a.8341.8341,0,0,0-.8221.8221v21.4613a13.8418,13.8418,0,0,1-.6282,4.8561,10.5149,10.5149,0,0,1-7.9276,6.6815c-3.2467.5934-6.8845.162-10.1587.162H340.0281l.8222.8221V508.0967a.8341.8341,0,0,0-.8222-.8221H286.039a.8226.8226,0,0,0,0,1.6443Z"/><path class="cls-1" d="M708.6341,238.6992s31.934-.5852,36.7236,35.6273c3.9,29.4867-30.9152,49.0295-58.7469,38.5382a133.8042,133.8042,0,0,1-19.0852-8.9544V289.2732l49.6037-45.5378"/><path d="M708.6341,240.3435a25.8937,25.8937,0,0,1,3.6889.27c-.49-.0625.35.0517.5017.0751q.5112.0794,1.02.1719,1.0593.1924,2.1074.4409a40.2788,40.2788,0,0,1,4.8859,1.4876,34.6281,34.6281,0,0,1,19.3711,18.564,43.3586,43.3586,0,0,1,3.7644,19.11,31.2481,31.2481,0,0,1-5.712,16.2961c-6.9242,9.9151-18.9438,15.874-30.8061,17.079a45.0672,45.0672,0,0,1-18.8775-2.0152,113.0335,113.0335,0,0,1-19.215-8.7558c-.3375-.19-.6748-.38-1.0077-.5772l.8144,1.42V289.2732l-.4816,1.1627,16.758-15.3844,26.7121-24.5227,6.1335-5.6307c1.5625-1.4344-.768-3.7553-2.3254-2.3255l-9.3561,8.5892-19.4716,17.8756L670.0884,284.69c-1.1926,1.0949-2.4658,2.1438-3.5974,3.3026a2.6947,2.6947,0,0,0-.61,2.1442v12.0208c0,1.2-.2328,2.4913.93,3.24,1.4221.9159,2.9869,1.6648,4.4877,2.4377q4.8411,2.4935,9.8647,4.6066c6.1644,2.6038,12.3244,4.534,19.048,4.8728a49.9133,49.9133,0,0,0,17.4362-2.2612c10.7009-3.3758,20.641-10.4749,25.8477-20.6011,5.5709-10.8345,4.4116-23.5534-.3276-34.4879a37.2869,37.2869,0,0,0-18.464-19.0953,40.5941,40.5941,0,0,0-15.2585-3.7985c-.27-.0108-.541-.0207-.8113-.0161-2.1139.0359-2.12,3.3247,0,3.2886Z"/><path class="cls-2" d="M638.4756,323.1086,597.9153,465.07c-7.3913,19.4464-38.3679,28.5018-64.218,10.3522h0A94.0676,94.0676,0,0,1,511.4129,458.68L448.72,395.37c4.6961-4.1429,29.0462-19.1636,34.0955-25.0661,7.8969-9.2313,14.0569-18.3284,17.4689-25.3317l52.6836,45.5392L586.0967,314.43a45.7631,45.7631,0,0,1,47.4873-27.1573l20.8352,2.5362"/><path d="M636.89,322.6715l-3.7378,13.0826-9.08,31.7785-11.1863,39.152L602.7447,442.18l-5.933,20.7654c-3.2243,11.285-14.5072,18.023-25.4992,20.0012a47.7565,47.7565,0,0,1-29.2676-4.4762,70.7142,70.7142,0,0,1-7.1649-4.2226c-2.4393-1.5823-5.0454-2.9072-7.4786-4.5152a91.9387,91.9387,0,0,1-14.053-11.44c-4.9375-4.8981-9.7917-9.8829-14.6853-14.8247l-28.0539-28.33-19.7279-19.9222-.999-1.0088v2.3254a85.6029,85.6029,0,0,1,7.5654-5.47c3.9354-2.6946,7.895-5.3539,11.8125-8.0746,3.6965-2.5673,7.3867-5.166,10.8853-8,3.8717-3.1367,6.8628-7.0586,9.8847-11a109.6182,109.6182,0,0,0,11.6737-18.1856l-2.5826.3328,17.7856,15.3738,28.3651,24.5185,6.5329,5.6469a1.662,1.662,0,0,0,2.5825-.3328l7.5023-17.2288,14.698-33.7539,10.38-23.8367a48.5609,48.5609,0,0,1,7.7669-12.75,44.5048,44.5048,0,0,1,22.5479-13.8575c6.45-1.6313,12.8433-1.4178,19.3739-.6229l16.4848,2.0066,1.2784.1557a1.655,1.655,0,0,0,1.6444-1.6444,1.6828,1.6828,0,0,0-1.6444-1.6443l-14.0679-1.7124c-5.7489-.7-11.4229-1.525-17.2328-.8957a47.8435,47.8435,0,0,0-38.53,28.2465q-4.4181,10.1141-8.8128,20.2384l-14.9211,34.2663-6.057,13.91c-1.0247,2.3531-2.2717,4.711-3.1089,7.1394-.0379.11-.0943.2167-.141.3238l2.5826-.3328-17.7856-15.3738L507.98,349.456l-6.5329-5.6469a1.6639,1.6639,0,0,0-2.5825.3327,104.6844,104.6844,0,0,1-10.0074,15.9735c-3.0732,4.1559-6.1912,8.492-10.1722,11.8346-6.8783,5.7753-14.5884,10.601-21.9951,15.6566a94.8984,94.8984,0,0,0-9.1327,6.6,1.6632,1.6632,0,0,0,0,2.3254L462.22,411.34l28.2962,28.5747L509.564,459.15a100.9684,100.9684,0,0,0,18.0143,14.6059c2.4549,1.5408,4.9732,2.9521,7.4149,4.5106a55.8573,55.8573,0,0,0,7.57,4.06,54.0143,54.0143,0,0,0,15.1873,4.2057,45.3406,45.3406,0,0,0,27.1655-4.8775c6.3262-3.4731,12.2837-9.1859,14.5971-16.1909,1.5758-4.7721,2.7729-9.7054,4.1532-14.5363l9.3968-32.889,11.3505-39.7266,9.9906-34.9673,5.4042-18.9146.2525-.8839c.5825-2.0386-2.59-2.9089-3.1712-.8742Z"/><path d="M448.7126,395.5041c2.6709,2.278,10.2-1.8164,19.2472-9.8212l-11.8041-11.95C449.13,384.4989,445.9364,393.1365,448.7126,395.5041Z"/><path d="M447.55,396.6669c2.5988,2.0974,6.1037.75,8.7527-.5578,4.7137-2.3276,8.9-5.8083,12.82-9.2634a1.6638,1.6638,0,0,0,0-2.3255l-11.8042-11.95a1.6654,1.6654,0,0,0-2.5826.3328,66.2968,66.2968,0,0,0-7.6932,14.8084c-.8876,2.658-1.93,6.7625.5072,8.9553,1.57,1.4123,3.9027-.9062,2.3255-2.3255a1.8651,1.8651,0,0,1-.26-.2606c.1273.1736.1.1335.0046-.0246-.0411-.0679-.1729-.349-.034-.0189a2.0923,2.0923,0,0,1-.1091-.328,3.759,3.759,0,0,1-.1049-1.4072,16.4919,16.4919,0,0,1,1.1113-4.485,66.8431,66.8431,0,0,1,7.0928-13.2541l-2.5826.3328,11.8042,11.95V384.52a62.2894,62.2894,0,0,1-11.1983,8.2523,15.2183,15.2183,0,0,1-3.9221,1.5954,3.4392,3.4392,0,0,1-1.3874.1008c.3382.0331-.1805-.051-.31-.0913.2842.0886-.365-.2465-.1041-.036a1.6965,1.6965,0,0,0-2.3255,0A1.655,1.655,0,0,0,447.55,396.6669Z"/><path class="cls-3" d="M482.7875,370.4236c7.8831-9.243,14.0295-18.3494,17.4311-25.3577l-9.7922-8.4079-16.1072-13.83-31.2914,37.6155,13.1279,13.29,11.8041,11.95A154.4828,154.4828,0,0,0,482.7875,370.4236Z"/><path d="M483.95,371.5863c6.7063-7.8853,13.1257-16.3549,17.6882-25.69a1.6843,1.6843,0,0,0-.2571-1.9926l-21.3268-18.3118-4.5726-3.9262a1.6654,1.6654,0,0,0-2.3254,0l-10.5417,12.6722-16.8921,20.306-3.8576,4.6372a1.6842,1.6842,0,0,0,0,2.3255l19.6425,19.8848,5.2895,5.3548a1.68,1.68,0,0,0,2.3255,0A155.3313,155.3313,0,0,0,483.95,371.5863c1.3687-1.6-.9471-3.937-2.3254-2.3254A155.32,155.32,0,0,1,466.7971,384.52h2.3255l-20.008-20.2548-4.9241-4.9848v2.3255l10.5417-12.6722,16.8922-20.306,3.8575-4.6372h-2.3254l19.8823,17.0715,6.0171,5.1664-.2571-1.9927c-4.4418,9.0886-10.6442,17.3471-17.174,25.025C480.2611,370.8644,482.5765,373.2016,483.95,371.5863Z"/><path class="cls-3" d="M484.061,331.1925l-9.7047-8.3041-4.7217-25.6612a22.0891,22.0891,0,0,0-14.9427-17.54L420.52,276.2113s-14.1271,2.3068-3.5405,16.0356c0,0-7.66,5.4319.9717,14.9934-3.6826,4.7392-1.1556,14.5441,2.77,15.91-2.7485,5.3961.175,10.5079,7.8019,11.9017l6.6021,2.308,2.8972,13.0372A23.4536,23.4536,0,0,0,444.371,361.93l7.5669,7.5331"/><path d="M485.2237,330.03l-8.8011-7.5308a6.4158,6.4158,0,0,0-.6776-.58c-.5934-.3743.3267.2121.1946.52.0762-.1775-.136-.7393-.17-.9222l-.9207-5.0039-2.6876-14.6067c-.6809-3.7-1.17-7.4736-2.7005-10.9415a23.2722,23.2722,0,0,0-6.6551-8.6747,23.7594,23.7594,0,0,0-4.6329-2.9606,11.942,11.942,0,0,0-3.5657-1.2952c-2.8832-.333-5.7778-.5877-8.6652-.8814l-14.9855-1.5242c-3.3328-.339-6.6761-.7927-10.0189-1.019a9.9568,9.9568,0,0,0-5.4656,1.8231,8.6879,8.6879,0,0,0-3.6485,4.3725c-.8768,2.4773-.26,5.1466.7725,7.4689a24.3266,24.3266,0,0,0,2.9637,4.8029l.59-2.25a9.7953,9.7953,0,0,0-3.5377,4.9932c-1.4563,4.661,1.1763,9.1962,4.1765,12.5827l-.2571-1.9927c-2.2237,2.9873-2.3609,7.1236-1.6013,10.6371.6637,3.07,2.242,6.4951,5.3544,7.688l-.9827-2.4156a9.4933,9.4933,0,0,0-.6932,7.6758,10.1387,10.1387,0,0,0,5.51,5.4174c1.8913.8381,3.94,1.2146,5.8923,1.897l4.6773,1.6351-1.1485-1.1484,2.7635,12.4356a25.9319,25.9319,0,0,0,4.2727,9.7643,48.3016,48.3016,0,0,0,5.129,5.5822l5.07,5.0473a1.6453,1.6453,0,0,0,2.3254-2.3255l-6.8884-6.8577a23.8984,23.8984,0,0,1-6.7374-12.0849l-2.416-10.8721c-.2892-1.3011-.3735-2.2985-1.808-2.8211-1.7731-.6459-3.5642-1.246-5.3455-1.8687-2.363-.8261-4.8807-1.0824-6.7888-2.8877a5.6535,5.6535,0,0,1-.9749-6.9287,1.677,1.677,0,0,0-.9828-2.4155c-1.87-.7167-2.7648-3.8828-3.1195-5.6924a9.8717,9.8717,0,0,1,1.3319-7.8016,1.661,1.661,0,0,0-.2571-1.9927c-2.271-2.5633-4.4884-6.0406-3.2666-9.5793a6.75,6.75,0,0,1,1.2776-2.14c.2084-.2315.4356-.4393.6588-.6554.2591-.2509.3373-.2593.0258-.0356a1.6635,1.6635,0,0,0,.59-2.25c-1.7019-2.2352-3.6784-5.0051-3.71-7.9448a4.5436,4.5436,0,0,1,1.9568-3.8707c-.0206.0164.4294-.2977.679-.4488.3343-.2023.6807-.3776,1.0315-.5488.1066-.052.4791-.2071.17-.08q.2361-.0966.4761-.1836.3957-.1441.8-.2631c.3358-.0989.7063-.1407,1.034-.2576.2818-.1005-.59-.073-.1065.0578a20.249,20.249,0,0,0,3.125.3179l5.7454.5844,14.4241,1.4671,10.05,1.0222c1.6052.1632,3.3807,1.2946,4.8978,2.2747a20.4868,20.4868,0,0,1,6.883,7.51c1.7952,3.34,2.2807,7.0844,2.9569,10.76l2.564,13.9346,1.0361,5.6313a5.3619,5.3619,0,0,0,.8,2.6891,39.81,39.81,0,0,0,3.6158,3.094l5.1082,4.3709.9613.8226c1.6,1.369,3.9368-.9467,2.3255-2.3255Z"/><path d="M469.6568,261.1718l-15.8952,46.0415-2.66,35.4881a10.43,10.43,0,0,1-12.2659,9.4827h0a10.43,10.43,0,0,1-8.5405-10.9883l5.9272-84.957"/><path d="M468.0712,260.7347,463.1844,274.89l-8.2921,24.0186-2.4379,7.0614a11.9581,11.9581,0,0,0-.4794,3.14l-1.75,23.3427-.69,9.2006c-.2823,3.7656-2.0837,7.2157-5.8576,8.5416a8.8826,8.8826,0,0,1-11.7574-8.6465c.0325-.9687.1293-1.9384.1967-2.9049l1.2088-17.3267,1.8028-25.8388,1.7218-24.68.97-13.897.0462-.662c.1473-2.1122-3.142-2.103-3.2887,0l-.7057,10.1155-1.6442,23.5668-1.8811,26.9627-1.3889,19.9067c-.0971,1.3917-.2,2.7831-.2913,4.1753a12.0741,12.0741,0,0,0,22.395,7.1609c1.5832-2.6232,1.6909-5.516,1.9115-8.4582l1.8458-24.622c.19-2.5294.4767-5.0727.57-7.6079.0176-.4777.0267.1317-.0306.1792.0861-.0713.1354-.3922.171-.4952l.87-2.52,7.6673-22.2087,6.7956-19.6838.38-1.1008c.6922-2.0048-2.4835-2.8661-3.1712-.8743Z"/><path class="cls-3" d="M430.8617,288.4035l16.167,8.0892c1.9344.7019,5.4528,8.7078,5.736,10.7974a4.9257,4.9257,0,0,1-3.0907,5.4327c3.8909,3.5448,6.1483,9.49,1.3762,10.3264,2.9108,4.9848,4.089,9.428-.754,9.8545,5.9152,5.7854.7657,9.1653-2.2309,8.4226L425.35,334.2145"/><path d="M430.0318,289.8233l12.0413,6.0249c1.3879.6945,2.825,1.3335,4.1812,2.0881a1.7891,1.7891,0,0,1,.7206.6491,14.0409,14.0409,0,0,1,1.3106,2.0655,34.4142,34.4142,0,0,1,2.1724,4.6659,19.31,19.31,0,0,1,.6429,2.0011c.0381.149.0548.3007.0853.451-.1334-.6567-.0049-.0811-.01.1215a3.4342,3.4342,0,0,1-2.3316,3.4126,1.6538,1.6538,0,0,0-.3328,2.5825c1.3737,1.2816,5.9923,6.781,2.1018,7.5781a1.659,1.659,0,0,0-.9827,2.4155,15.1965,15.1965,0,0,1,2.2844,5.4443c.1507,1.2471-.3572,1.796-1.6186,1.936a1.6675,1.6675,0,0,0-1.1627,2.807c.9867.9939,2.8475,2.897,2.0847,4.4935a2.6569,2.6569,0,0,1-2.2025,1.2229,13.15,13.15,0,0,1-3.3348-.9255l-15.4592-4.84-4.4344-1.3883c-2.0244-.6338-2.8905,2.54-.8743,3.1712l13.1381,4.1134,7.8723,2.4647c1.7386.5443,3.2914.9875,5.1207.3071a5.36,5.36,0,0,0,3.5131-3.8854c.5409-2.7431-1.2784-5.2258-3.0983-7.0589l-1.1627,2.807c2.5629-.2843,4.7358-1.5732,4.9174-4.3674s-1.3984-5.63-2.7435-7.9613l-.9827,2.4155a4.69,4.69,0,0,0,3.8024-5.6481c-.4472-2.8711-2.3767-5.49-4.4531-7.4266l-.3328,2.5826a6.6183,6.6183,0,0,0,3.8008-7.5509,22.7436,22.7436,0,0,0-1.6223-4.4469,28.3573,28.3573,0,0,0-2.5956-4.8424c-1.2184-1.7431-2.5715-2.4014-4.3895-3.311l-8.0143-4.01-5.9913-2.9977c-1.8875-.9444-3.5549,1.8915-1.66,2.84Z"/><path class="cls-2" d="M591.3362,390.1057l-27.952,67.8387c-12.0585,24.117-12.6889,22.5612-26.7343,37.687l-14.3742,15.48,67.966,15.3471L631.35,404.7774"/><path d="M589.7506,389.6686l-6.9529,16.8744-13.1539,31.9242-5.2476,12.7356c-.8456,2.0524-1.6088,4.1671-2.5463,6.18-1.4527,3.1186-3.1373,6.1918-4.7551,9.2411-1.5715,2.9622-3.1922,5.9052-4.9975,8.7326a77.21,77.21,0,0,1-9.525,11.6273c-6.9626,7.3073-13.807,14.7239-20.6749,22.12l-.7844.8447a1.66,1.66,0,0,0,.7256,2.7484l23.0862,5.213,36.4885,8.2393,8.3913,1.8948a1.6872,1.6872,0,0,0,2.0227-1.1484l4.1128-12.1738,9.7916-28.9832,11.8768-35.1553,10.2678-30.3927,3.3753-9.991c.5353-1.5844,1.1641-3.1668,1.6143-4.7782.0195-.07.0467-.1382.07-.2069.6789-2.01-2.4963-2.8719-3.1712-.8743l-4.1128,12.1738L615.86,445.4972l-11.8768,35.1554-10.2678,30.3926-3.3753,9.9911a48.298,48.298,0,0,0-1.6143,4.7781,2.09,2.09,0,0,1-.07.207l2.0227-1.1485-23.0862-5.213-36.4886-8.2393-8.3912-1.8948.7256,2.7483c6.0746-6.5419,12.1-13.1334,18.2517-19.6032a130.1837,130.1837,0,0,0,10.9792-12.3348c4.1574-5.6623,7.3229-12.04,10.4871-18.2866,3.0859-6.0917,5.4678-12.5372,8.0679-18.8475L584.3771,411.28l5.5273-13.4145c.9567-2.3218,2.0341-4.6285,2.8815-6.9932.04-.1115.0907-.22.1359-.33a1.6563,1.6563,0,0,0-1.1485-2.0228,1.6837,1.6837,0,0,0-2.0227,1.1485Z"/><path class="cls-3" d="M462.4129,306.0548,445.8819,294.98a5.0267,5.0267,0,0,0-7.0818,1.5463h0a5.0269,5.0269,0,0,0,.6916,6.1461l13.706,14.0027a25.713,25.713,0,0,0,1.874,29.5889"/><path d="M463.2428,304.635c-5.4731-3.6667-10.8837-7.4507-16.4291-11.0067a6.6728,6.6728,0,0,0-9.4058,9.0331,17.24,17.24,0,0,0,2.4487,2.7345l4.37,4.4645,7.8083,7.9774-.2571-1.9927a25.3938,25.3938,0,0,0-3.6508,9.7834,27.6691,27.6691,0,0,0,5.5248,21.4654c1.2605,1.6671,4.1175.03,2.84-1.66-4.2595-5.6334-6.4341-12.4706-5.09-19.5051a22.6629,22.6629,0,0,1,3.2162-8.4239,1.6626,1.6626,0,0,0-.2571-1.9927l-13.31-13.5976c-1.221-1.2474-1.8521-2.93-.8309-4.5585a3.46,3.46,0,0,1,4.9942-.8477c2.7188,1.7818,5.4027,3.6195,8.1033,5.4287l8.2655,5.5375c1.7631,1.1812,3.4113-1.6663,1.66-2.84Z"/><path d="M723.29,465.8087l.0251,9.41a27.2518,27.2518,0,0,1-19.9867,26.3383l-33.71,9.324L674.765,447.98"/><path d="M721.6457,465.8087c.0125,4.7142.4841,9.7473-.4446,14.3946a25.9141,25.9141,0,0,1-14.2477,18.2728c-3.2874,1.5644-7.054,2.323-10.55,3.29L680.13,506.2671l-10.949,3.0285,2.0815,1.5856,1.7414-21.2844,2.7727-33.8881.6323-7.7289c.1726-2.1094-3.117-2.0981-3.2887,0l-1.7414,21.2844-2.7727,33.8881-.6323,7.7289a1.6571,1.6571,0,0,0,2.0814,1.5856l26.327-7.2819a92.4142,92.4142,0,0,0,10.5607-3.1354,29.1835,29.1835,0,0,0,16.647-17.9657c1.8915-5.87,1.36-12.1948,1.344-18.2751a1.6453,1.6453,0,0,0-3.2886,0Z"/><path class="cls-4" d="M551.2885,786.5605l-25.6531,80.5282-110.64-34.8527s7.9927-31.9416,50.2283-22.3418a15.5371,15.5371,0,0,0,18.3462-10.59c2.989-9.829,5.8367-19.3527,5.8367-19.3527"/><path d="M549.7029,786.1233l-8.7255,27.3906-13.7885,43.2836-3.1391,9.854,2.0228-1.1484L515.05,862.0309l-26.4636-8.3363L456.7032,843.651,429.04,834.9369l-9.06-2.854a41.0694,41.0694,0,0,0-4.3527-1.3711,1.8533,1.8533,0,0,1-.1948-.0614l1.1485,2.0227a16.7616,16.7616,0,0,1,.5286-1.64q.1477-.4049.3079-.8049c.0632-.1582.1282-.3156.1934-.4729-.2087.5032.0613-.1369.1143-.256q.5269-1.1856,1.1437-2.3285a31.749,31.749,0,0,1,9.0729-10.6513,35.9733,35.9733,0,0,1,19.495-6.6975,59.972,59.972,0,0,1,14.9955,1.1582c2.68.5272,5.2509,1.1525,8.0045.855a17.148,17.148,0,0,0,12.9821-8.1785c1.8257-3.0129,2.5639-6.6352,3.5732-9.9732q2.0092-6.6449,4-13.2952c.6077-2.032-2.5653-2.9-3.1712-.8742q-1.66,5.55-3.3353,11.0947c-1.6343,5.414-2.578,11.6813-7.419,15.2624a14.1818,14.1818,0,0,1-6.51,2.6594c-2.6386.353-5.0678-.3046-7.6354-.7965a63.592,63.592,0,0,0-15.1823-1.2172,39.5781,39.5781,0,0,0-20.63,6.5693,35.8719,35.8719,0,0,0-10.5573,11.4894,28.92,28.92,0,0,0-3.1418,7.2232,1.6793,1.6793,0,0,0,1.1485,2.0227l11.0224,3.4722,26.4636,8.3363,31.8833,10.0435,27.6631,8.7142c4.4507,1.402,8.896,3.046,13.4127,4.2251.0656.0171.13.041.1948.0614a1.6723,1.6723,0,0,0,2.0227-1.1485l8.7256-27.3906,13.7884-43.2836,3.1391-9.854c.6439-2.0213-2.53-2.8865-3.1712-.8743Z"/><path class="cls-5" d="M476.1153,807.1721a16.0092,16.0092,0,0,1-13.0323,2.69c-43.3492-9.8529-51.5525,22.9308-51.5525,22.9308l85.2788,18.68-.2737-5.18a53.13,53.13,0,0,0-20.42-39.1216Z"/><path d="M475.2854,805.7522a15.0755,15.0755,0,0,1-6.7127,2.7542,21.2863,21.2863,0,0,1-7.21-.6908,70.2678,70.2678,0,0,0-12.6593-1.4375,45.0955,45.0955,0,0,0-19.0821,3.63,36.2745,36.2745,0,0,0-17.6944,17.2779,27,27,0,0,0-1.982,5.07,1.6649,1.6649,0,0,0,1.1484,2.0228l8.436,1.8479,20.392,4.4668,24.57,5.3821,21.3612,4.6791c3.45.7558,6.8946,1.61,10.3646,2.27.0519.01.1033.0226.1549.0339a1.6624,1.6624,0,0,0,2.0814-1.5856c-.2842-5.38-.5689-10.7077-1.91-15.9585a55.2116,55.2116,0,0,0-10.2129-20.5182,53.1968,53.1968,0,0,0-9.0529-8.9872,1.7011,1.7011,0,0,0-2.3254,0,1.6536,1.6536,0,0,0,0,2.3254,51.9434,51.9434,0,0,1,19.9166,37.568c.1126,1.8559.1977,3.7138.2958,5.5705l2.0814-1.5856-8.4359-1.8479-20.3921-4.4668-24.57-5.3821-21.3611-4.6791-7.0138-1.5364a24.9882,24.9882,0,0,0-3.3508-.734,1.1525,1.1525,0,0,1-.1549-.0339l1.1485,2.0227c.0879-.3492.2007-.6931.315-1.0342.1338-.4.2786-.7959.4309-1.189.0922-.2378.1885-.4738.2854-.71.1024-.2495-.1536.3466.027-.0607.0707-.1594.14-.3193.2119-.4782a35.2721,35.2721,0,0,1,5.0983-8.1076c7.0244-8.2438,17.3813-11.9412,28.1011-11.99a65.1588,65.1588,0,0,1,13.6805,1.4856,22.3244,22.3244,0,0,0,8.155.535,17.5717,17.5717,0,0,0,7.524-3.0894C478.654,807.3736,477.0134,804.52,475.2854,805.7522Z"/><path class="cls-6" d="M591.1065,442.494,481.9937,776.0471l88.298,27.5358s76.2733-244.1268,85.1221-281.5851,16.2668-88.7432,16.2668-88.7432"/><path d="M589.5209,442.0569l-2.9239,8.9382-7.9564,24.3224L566.9223,511.14l-14.3454,43.8535-15.6561,47.86-15.86,48.4847-14.7871,45.2033-12.4514,38.0634-8.9863,27.4709c-1.4123,4.3173-2.9556,8.615-4.2433,12.9716-.0559.1891-.1229.3755-.1842.563a1.67,1.67,0,0,0,1.1485,2.0227l29.899,9.324,47.4582,14.8,10.9407,3.4119a1.6718,1.6718,0,0,0,2.0228-1.1485q1.4714-4.7094,2.9385-9.42,3.9242-12.5912,7.8364-25.1857,5.6826-18.2909,11.3436-36.5882,6.7762-21.9027,13.5179-43.816,7.1482-23.24,14.2438-46.4967,6.7939-22.2813,13.5094-44.5865,5.7817-19.2327,11.4422-38.5015c2.7375-9.36,5.459-18.7277,8.008-28.1413,3.78-13.9616,6.6105-28.169,9.2925-42.3761q4.9185-26.0548,8.8239-52.2932.219-1.461.4327-2.923c.3-2.07-2.8687-2.9641-3.1712-.8743-1.8791,12.9817-4.0191,25.93-6.2825,38.85C660.6462,489.74,657.4,507.91,652.8007,525.6823c-2.15,8.3084-4.5323,16.5583-6.9161,24.8019q-5.2849,18.2763-10.7677,36.4947-6.5409,21.8655-13.1925,43.6979-7.0417,23.1573-14.1508,46.294-6.8633,22.3537-13.7685,44.6945-6.007,19.44-12.0393,38.8732-4.4013,14.1795-8.8158,28.355c-1.4061,4.5147-3.1451,9.05-4.2555,13.6491-.0491.2033-.126.4033-.1884.6032l2.0227-1.1485-29.899-9.3241-47.4582-14.8-10.9408-3.4119,1.1485,2.0227,2.9239-8.9382,7.9564-24.3223,11.7183-35.8223,14.3455-43.8535,15.656-47.86L552.04,567.2034,566.8269,522l12.4514-38.0633,8.9864-27.471c1.4123-4.3173,2.9555-8.6149,4.2433-12.9716.0559-.1891.1228-.3755.1841-.5629.66-2.0162-2.515-2.88-3.1712-.8743Z"/><path class="cls-4" d="M802.7851,713.3256l71.0166,45.82L811.2269,856.82s-28.74-16.068-8.4283-54.3231A15.537,15.537,0,0,0,797.375,782.02c-8.7052-5.4555-17.1527-10.6948-17.1527-10.6948"/><path d="M801.9552,714.7454l24.1554,15.5852,38.1711,24.6284,8.69,5.6069-.59-2.25-6.234,9.7308-14.9671,23.3624-18.0323,28.147-15.6454,24.4213-5.1241,7.9983a41.2513,41.2513,0,0,0-2.4618,3.8427,1.8472,1.8472,0,0,1-.11.1719l2.25-.59a17.0986,17.0986,0,0,1-1.5229-.9946c-.2527-.18-.501-.3648-.7488-.551-.22-.1653.06.0475.0861.0677-.0855-.0665-.1715-.1326-.2558-.2006-.164-.1322-.3288-.2633-.4914-.3972q-1.0524-.8676-2.0334-1.8173a31.8955,31.8955,0,0,1-8.026-12.3106c-2.5519-7.199-2.2985-14.9533-.3372-22.2647a59.6931,59.6931,0,0,1,2.4043-7.0836c1.07-2.6215,2.492-5.0629,3.6279-7.6475a17.3455,17.3455,0,0,0,.1728-13.6758,16.886,16.886,0,0,0-4.6724-6.4179,74.3817,74.3817,0,0,0-8.6023-5.6014q-5.2988-3.3069-10.6054-6.6007c-1.8037-1.1188-3.4569,1.725-1.66,2.84q4.3607,2.7048,8.714,5.421c2.7444,1.711,5.494,3.4145,8.2282,5.142a14.1663,14.1663,0,0,1,4.84,4.9789,13.9986,13.9986,0,0,1,.447,12.9008,83.0206,83.0206,0,0,0-6.0658,14.87c-2.0232,7.5421-2.381,15.65.0431,23.1453a35.7249,35.7249,0,0,0,8.3109,13.7741,29.2892,29.2892,0,0,0,6.4867,5.2628,1.68,1.68,0,0,0,2.25-.59l6.234-9.7308,14.9671-23.3624L851.88,796.41l15.6454-24.4213c2.5173-3.9293,5.2663-7.79,7.5859-11.841.0337-.0588.0736-.1148.11-.1719a1.6725,1.6725,0,0,0-.59-2.25L850.4763,742.141l-38.1711-24.6283-8.69-5.607c-1.7837-1.1508-3.4343,1.6949-1.66,2.84Z"/><path class="cls-5" d="M803.02,791.273a16.0092,16.0092,0,0,1-.8118,13.2823c-20.8469,39.2636,8.65,55.7553,8.65,55.7553l40.3327-77.4255-5.071-1.0905a53.13,53.13,0,0,0-43.1,9.4784Z"/><path d="M801.4341,791.71c1.682,4.54,1.0055,8.7892-1.1648,13.0084a72.3542,72.3542,0,0,0-4.9179,11.9039,45.7314,45.7314,0,0,0-1.8384,19.6837,36.3263,36.3263,0,0,0,12.0721,22.1287,27.1035,27.1035,0,0,0,4.4433,3.2956,1.6649,1.6649,0,0,0,2.25-.59l3.99-7.6591,9.6444-18.5141,11.62-22.3075,10.1028-19.394c1.6318-3.1325,3.3561-6.234,4.902-9.41.0231-.0474.0488-.0938.0732-.1406a1.6629,1.6629,0,0,0-.9827-2.4155,82.3838,82.3838,0,0,0-15.4191-2.322,54.961,54.961,0,0,0-22.6909,4.3669,53.7864,53.7864,0,0,0-11.3285,6.5088c-1.6711,1.2566-.0338,4.1132,1.66,2.84a52.004,52.004,0,0,1,41.8479-9.3094c1.6866.3573,3.371.7249,5.0564,1.0873l-.9827-2.4155-3.99,7.659-9.6444,18.5142-11.62,22.3075L814.4137,849.93l-3.3171,6.3679a25.04,25.04,0,0,0-1.5848,3.0422,1.1534,1.1534,0,0,1-.0733.1406l2.25-.59c-.3222-.1808-.6324-.3851-.9394-.59-.3463-.2313-.6864-.4719-1.0217-.7189-.1255-.0923-.7229-.5528-.3488-.26q-.38-.298-.7533-.6051a34.5678,34.5678,0,0,1-6.5922-7.2221c-6.2121-9.2174-6.8078-20.4642-3.8162-30.9624a72.9022,72.9022,0,0,1,5.4111-13.1472,18.0178,18.0178,0,0,0,.9775-14.5493C803.8764,788.8683,800.6966,789.7194,801.4341,791.71Z"/><path class="cls-6" d="M696.7457,429.6812l12.861,58.6307a194.4142,194.4142,0,0,1,4.0843,54.5868l-5.3433,80.1488c33.84,18.3371,115.8372,76.3881,115.8372,76.3881l-49.67,78.0236-90.8811-56.1781A134.8076,134.8076,0,0,1,621.1305,626.14l-13.406-92.581,14.4371-80.1216"/><path d="M695.16,430.1184l6.7655,30.8427c2.46,11.2158,5.187,22.4122,7.2968,33.7018a192.7386,192.7386,0,0,1,3.0184,44.8879c-.1669,3.3721-.42,6.7411-.645,10.11l-2.7489,41.2345-1.3642,20.4628c-.2475,3.7124-.6289,7.4435-.7442,11.1629-.0054.1755-.0234.3515-.0351.5268a1.6163,1.6163,0,0,0,.8144,1.42c18.6293,10.1118,36.319,22.0768,53.9321,33.8337q25.9445,17.3181,51.4837,35.2353,5.219,3.6474,10.4214,7.319l-.59-2.25L805.9242,725.06l-26.71,41.9577-6.1185,9.6113,2.25-.59-20.1793-12.4738L715.21,738.867l-28.8123-17.81a137.7527,137.7527,0,0,1-40.2018-36.9784,134.9174,134.9174,0,0,1-23.5663-58.97q-2.2738-15.65-4.5326-31.3021l-6.5794-45.4371-1.9389-13.39c-.0676-.4667-.1145-.9425-.2036-1.4057-.1826-.95.1823.2284-.0639.4155.3192-.2425.3767-2.0906.4436-2.462l6.8658-38.1032,6.7482-37.4506.3781-2.0981c.3729-2.0694-2.7959-2.9572-3.1712-.8743l-5.1233,28.4326-7.867,43.66-1.0687,5.9309a15.6773,15.6773,0,0,0-.4368,2.5353,16.3558,16.3558,0,0,0,.3354,2.3476l.7912,5.4646,6.0828,42.007,5.6572,39.0688c.68,4.693,1.386,9.3713,2.4212,14.0047a136.4537,136.4537,0,0,0,61.4478,86.256q10.5152,6.5229,21.051,13.0127L744.2,760.6527l28.0342,17.3293,1.4511.897a1.6733,1.6733,0,0,0,2.25-.59l16.8409-26.4545,26.71-41.9577,6.1186-9.6114a1.6807,1.6807,0,0,0-.59-2.25q-14.8056-10.4811-29.768-20.74c-19.2414-13.249-38.5894-26.3639-58.29-38.9233-9.1087-5.807-18.2817-11.57-27.78-16.7249l.8145,1.42,1.786-26.79,2.8686-43.03q.3365-5.0462.6728-10.0921a196.24,196.24,0,0,0-1.1455-37.9941c-1.7066-13.2556-4.9645-26.3054-7.8255-39.3482l-7.8671-35.8647-.15-.6841c-.4532-2.0663-3.6244-1.1919-3.1712.8743Z"/><path class="cls-5" d="M861.0943,782.9861a4.4074,4.4074,0,0,0,1.5406,6.0394l3.5884,2.13-48.22,75.0389s-8.8681-4.943-13.295-10.9686l63.35-99.8532,15.401,9.081-12.4517,19.291-3.8731-2.2989A4.4075,4.4075,0,0,0,861.0943,782.9861Z"/><path d="M859.6745,782.1562a6.1561,6.1561,0,0,0,1.9857,8.1955c1.2008.8011,2.4919,1.4868,3.7332,2.2236l-.59-2.25L860.02,797.77l-11.493,17.8851-13.98,21.7546-12.0278,18.7172-3.9515,6.1493a28.1267,28.1267,0,0,0-1.9007,2.9577,1.24,1.24,0,0,1-.0837.13l2.25-.59c-4.6771-2.6166-9.4779-6.0638-12.7051-10.3787v1.66l6.3334-9.9829,15.07-23.7538,18.355-28.9317,15.76-24.8415,5.2391-8.258a39.844,39.844,0,0,0,2.4846-3.9163,1.7162,1.7162,0,0,1,.1072-.169l-2.25.59,15.4009,9.081-.59-2.25-10.8955,16.88-1.5562,2.4109,2.25-.59c-1.2866-.7637-2.5549-1.5739-3.8659-2.2947a6.1681,6.1681,0,0,0-8.2965,2.1262c-1.1529,1.7823,1.6929,3.4327,2.84,1.66,1.9674-3.0417,5.5743.1086,7.6629,1.3483a1.6766,1.6766,0,0,0,2.25-.59l10.8956-16.88,1.5561-2.4108a1.6656,1.6656,0,0,0-.59-2.25l-15.401-9.081a1.6758,1.6758,0,0,0-2.25.59l-6.3334,9.983-15.07,23.7537-18.355,28.9317-15.76,24.8416c-2.5629,4.04-5.3648,8.01-7.7237,12.1743-.0328.0578-.0716.1128-.1072.1689a1.6031,1.6031,0,0,0,0,1.66,44.3214,44.3214,0,0,0,13.8849,11.5585,1.68,1.68,0,0,0,2.25-.59l4.784-7.4447L835.7,841.6944,849.68,819.94l12.0278-18.7172c1.9389-3.0173,4.09-5.9813,5.8522-9.107.0252-.0447.0559-.087.0837-.13a1.6661,1.6661,0,0,0-.59-2.25c-2.0767-1.2326-6.2381-2.7886-4.5391-5.92C863.5237,781.9554,860.6853,780.2933,859.6745,782.1562Z"/><path d="M824.4549,827.1747c.1049-.1772.2227-.3472.3408-.5158.0632-.09.1294-.1781.1932-.2678.26-.3648-.1508.182.0463-.0644.2049-.2561.4133-.509.63-.7552a17.9126,17.9126,0,0,1,4.0236-3.4347c5.3928-3.3631,11.7681-3.2037,17.6585-1.2884,2.0174.6559,2.8816-2.5186.8743-3.1712-5.3878-1.7518-11.3485-2.22-16.709-.1057a21.164,21.164,0,0,0-8.51,6.0686,14.7837,14.7837,0,0,0-1.3872,1.8747,1.6456,1.6456,0,0,0,2.84,1.66Z"/><path class="cls-5" d="M846.5569,784.2361l9.2877-48.2808a6.6853,6.6853,0,0,0-7.4313-7.5923h0a5.6473,5.6473,0,0,0-6.6123,4.4787l-9.2877,48.2808Z"/><path d="M848.1425,784.6732l3.9145-20.3492,5.078-26.3973c.1251-.65.2672-1.2993.3587-1.9552a8.2828,8.2828,0,0,0-8.3621-9.28c-.5912.0137-1.6012-.1209-2.4578-.0362a7.2738,7.2738,0,0,0-6.528,6.1107c-1.5573,7.877-3.0338,15.7709-4.5506,23.6559-1.5293,7.95-3.1213,15.8907-4.5885,23.8524-.0252.1371-.0526.2738-.079.4107a1.6729,1.6729,0,0,0,1.1485,2.0227l14.0435,3.1136c2.0622.4572,2.9429-2.7126.8743-3.1712l-14.0435-3.1136,1.1484,2.0228,3.682-19.14,5.1174-26.6021c.1542-.8016.2935-1.6079.4629-2.4065a4.5286,4.5286,0,0,1,.9726-2.143c1.241-1.4235,2.7511-1.2888,4.4433-1.2814,3.8434.0169,5.9691,2.9989,5.293,6.5131l-4.6674,24.2633c-1.4507,7.541-2.9605,15.0733-4.3524,22.6254-.0253.1371-.0527.2738-.079.4107C844.5734,785.8669,847.7424,786.7526,848.1425,784.6732Z"/><circle cx="840.1164" cy="781.2293" r="10.963"/><path d="M836.2257,793.22a12.6108,12.6108,0,1,0-8.62-13.4547,12.721,12.721,0,0,0,8.62,13.4547c2.0038.6948,2.8648-2.481.8743-3.1712a9.3253,9.3253,0,1,1,11.111-4.2005,9.4,9.4,0,0,1-11.111,4.2005C835.0779,789.4071,834.2125,792.5811,836.2257,793.22Z"/><path class="cls-5" d="M499.3018,861.0583a4.4073,4.4073,0,0,0-5.4263,3.0664l-1.1173,4.0206L407.72,841.2278s2.4516-9.8522,7.11-15.7008l112.9456,35.0306-4.7373,17.24-21.876-6.9732,1.206-4.34A4.4075,4.4075,0,0,0,499.3018,861.0583Z"/><path d="M499.7389,859.4727a6.1566,6.1566,0,0,0-7.3965,4.0507c-.4592,1.3685-.7834,2.794-1.17,4.1848l2.0227-1.1485-8.4368-2.6705L464.49,857.4736,439.8367,849.67l-21.2113-6.7141-6.9687-2.2059a28.0186,28.0186,0,0,0-3.3519-1.0609,1.25,1.25,0,0,1-.1476-.0468l1.1485,2.0228c1.3012-5.1947,3.3664-10.7332,6.6869-14.9753l-1.6.4229,11.2918,3.5022,26.8683,8.3333,32.7251,10.15,28.0987,8.715,9.3407,2.897a39.7069,39.7069,0,0,0,4.43,1.374,1.7056,1.7056,0,0,1,.1911.0592l-1.1484-2.0227-4.7373,17.24,2.0228-1.1485L504.3332,870.11l-2.7339-.8715,1.1485,2.0227c.4006-1.4415.8509-2.8776,1.2038-4.3314a6.1687,6.1687,0,0,0-4.2127-7.4573c-2.0205-.6462-2.8856,2.5279-.8742,3.1712,3.4578,1.1059,1.3642,5.3962.7119,7.7433a1.6765,1.6765,0,0,0,1.1485,2.0227l19.1421,6.1018,2.7339.8714a1.6656,1.6656,0,0,0,2.0228-1.1485l4.7372-17.24a1.6757,1.6757,0,0,0-1.1485-2.0228L516.9207,855.47l-26.8682-8.3333-32.7251-10.15-28.0987-8.715c-4.5693-1.4172-9.1343-3.0836-13.7705-4.271-.0644-.0164-.1276-.0395-.1912-.0592a1.6018,1.6018,0,0,0-1.6.4228,44.3061,44.3061,0,0,0-7.5327,16.4265,1.68,1.68,0,0,0,1.1484,2.0227l8.4368,2.6706L435.988,851.9l24.6535,7.8037,21.2114,6.7141c3.4193,1.0823,6.8426,2.383,10.3205,3.2668.05.0126.0986.0312.1476.0467a1.6662,1.6662,0,0,0,2.0228-1.1485c.6447-2.32,1.0619-6.7577,4.5209-5.9385C500.9226,863.1313,501.8008,859.961,499.7389,859.4727Z"/><path d="M447.0616,837.2487c.1219.0337.242.0743.3618.1147.1313.0442.2615.092.3911.1409.0809.03.1607.0641.2418.0938.4155.1523-.1526-.0716.0424.0148a20.2552,20.2552,0,0,1,3.2047,1.7706,18.075,18.075,0,0,1,6.6562,8.69,25.0166,25.0166,0,0,1,1.2029,9.6251c-.1076,2.1153,3.1814,2.11,3.2887,0,.2873-5.6516-.8266-11.5239-4.2624-16.139a21.1456,21.1456,0,0,0-8.0742-6.6284,14.7732,14.7732,0,0,0-2.1788-.8541,1.6457,1.6457,0,0,0-.8742,3.1712Z"/><path class="cls-5" d="M494.2934,847.3537l49.0294-3.6622a6.6852,6.6852,0,0,0,5.3845-9.1582v0a5.6472,5.6472,0,0,0-6.0521-5.2108l-49.0294,3.6623Z"/><path d="M494.2934,848.998l20.4184-1.5251,26.9077-2.01c.5673-.0423,1.137-.0727,1.7033-.1272a8.4144,8.4144,0,0,0,7.1236-5.72,10.0742,10.0742,0,0,0-.1306-5.4251,7.8966,7.8966,0,0,0-2.5157-4.7824,7.6654,7.6654,0,0,0-5.6145-1.6954c-8.0585.5727-16.1133,1.2035-24.17,1.8053-7.99.5968-15.988,1.129-23.973,1.7907-.1389.0115-.2781.0207-.4171.0311a1.67,1.67,0,0,0-1.6443,1.6444l.6675,14.369c.0979,2.1073,3.3872,2.1193,3.2887,0l-.6675-14.369-1.6444,1.6443,19.3148-1.4427,26.9547-2.0134c.8534-.0637,1.7066-.1353,2.56-.1912a4.1534,4.1534,0,0,1,4.6072,3.5515c.3253,1.6182.7812,3.0706.03,4.6591a5.2464,5.2464,0,0,1-2.7961,2.6011,7.1544,7.1544,0,0,1-2.1312.34l-24.7282,1.847c-7.5828.5664-15.175,1.06-22.752,1.7-.1306.011-.2615.0195-.3922.0293C492.1958,845.866,492.1787,849.156,494.2934,848.998Z"/><circle cx="495.5111" cy="840.351" r="10.963"/><path d="M482.9209,839.7388a12.6107,12.6107,0,1,0,10.8756-11.8652,12.715,12.715,0,0,0-10.8756,11.8652c-.1472,2.1122,3.1421,2.103,3.2887,0a9.3237,9.3237,0,1,1,7.0406,9.6545,9.3981,9.3981,0,0,1-7.0406-9.6545C486.2988,837.6226,483.01,837.6268,482.9209,839.7388Z"/><path d="M577.6974,779.5375l-8.7741-2.7616-21.073-6.6326-25.4995-8.0258-22.0528-6.9409c-3.5562-1.1193-7.1165-2.4642-10.7329-3.3781-.0518-.0131-.1027-.0324-.1538-.0484-2.0235-.6369-2.8893,2.5369-.8743,3.1712l8.7741,2.7615,21.0731,6.6326,25.4994,8.0258,22.0528,6.941c3.5562,1.1193,7.1165,2.4642,10.7329,3.3781.0518.0131.1028.0323.1538.0484,2.0235.6369,2.8893-2.537.8743-3.1712Z"/><path d="M804.9271,686.801l-4.949,7.7791-11.8162,18.5736-14.36,22.5723-12.3661,19.438c-2.0063,3.1535-4.2275,6.2523-6.0536,9.5154-.0262.0468-.058.0912-.0868.1364-1.1394,1.791,1.7056,3.4425,2.84,1.66l4.9489-7.7792L774.9,740.123l14.36-22.5723,12.3661-19.438c2.0062-3.1535,4.2274-6.2523,6.0536-9.5154.0262-.0468.058-.0912.0868-.1365,1.1393-1.7909-1.7056-3.4424-2.84-1.66Z"/><path d="M612.7781,451.9938l-5.92,28.9533-4.0454,19.7857c-.665,3.2525-1.4636,6.5091-1.9651,9.793a28.1228,28.1228,0,0,0,.5449,11.2992,46.0554,46.0554,0,0,0,1.5705,4.6013l3.2484,8.6623c.7364,1.9636,3.9165,1.1132,3.1712-.8742l-2.7976-7.46c-1.43-3.8137-2.76-7.5377-2.7956-11.6877-.0352-4.0424,1.105-8.13,1.9108-12.0716l7.9836-39.0473,2.2653-11.0793c.4224-2.0659-2.7468-2.95-3.1712-.8742Z"/><path class="cls-5" d="M516.0747,269.2659a37.1147,37.1147,0,0,0-.1565-15.5563,23.9269,23.9269,0,0,0-8.0757-13.1016c-3.6033-2.8434-7.5645-3.8778-11.6607-4.823-1.9172-.4424-3.864-.8653-5.8175-1.445-7.4705-2.2169-14.8472-4.8822-22.1684-7.545-12.3421-4.4891-24.529-9.4254-36.4344-14.9744-17.2538-8.0419-34.0839-17.3389-49.29-28.8459-14.7037-11.1269-24.0761-23.0832-33.4659-38.2862-3.605-5.8369-5.03-13.244-10.3064-17.6292a15.3,15.3,0,0,0-7.1282-3.226,21.7662,21.7662,0,0,0-12.4721,1.6554c-14.8312,6.603-22.122,23.9259-29.23,37.4683a297.3851,297.3851,0,0,0-19.6571,46.2724,244.7739,244.7739,0,0,0-9.0767,37.5412c-1.8656,11.8639-4.3814,24.8334-1.9461,36.6631.9754,4.738,2.53,9.4607,5.4422,13.323s7.3509,6.7808,12.184,6.9839c6.2809.264,11.7777-3.86,16.8629-7.5565a31.596,31.596,0,0,1,6.34-3.8353c16.6652-6.9091,34.7805-10.916,52.5331-13.7024,41.9164-6.579,85.6405-4.2376,126.7764,5.5967l6.6391,1.5871c6.6948,1.6006,14.1724,3.1,20.1182-.3689C511.8919,282.0733,514.9082,275.6007,516.0747,269.2659Z"/><path d="M517.66,269.7031c2.0238-11.2943.0832-24.4-10.0794-31.3154-4.9365-3.3593-10.9383-3.9449-16.5353-5.5624-6.3042-1.8218-12.4992-4.0309-18.669-6.2582-24.0342-8.6764-47.7222-18.6834-69.6435-31.9122-10.1975-6.1539-20.2055-12.9308-28.9106-21.0988a133.964,133.964,0,0,1-20.4383-25.02c-1.4519-2.2364-2.9529-4.4733-4.176-6.8456-1.18-2.29-2.1417-4.6826-3.2284-7.0165-2.18-4.6815-5.1135-9.0485-9.9988-11.1953-10.2173-4.49-21.3728,1.0125-28.6345,8.3365-6.8713,6.93-11.45,15.7576-15.8421,24.3648-5.4117,10.6054-10.7913,21.17-15.3415,32.1848a269.3172,269.3172,0,0,0-12.3413,37.0948q-2.3879,9.4937-3.9962,19.1612c-1.0195,6.1737-2.0694,12.3615-2.7331,18.5856a70.46,70.46,0,0,0,.1743,18.836c.9257,5.67,2.7364,11.4443,6.3124,16.0219,3.1911,4.0849,7.9674,7.0951,13.2358,7.3208,5.826.25,11.0339-3,15.5886-6.2572a50.5658,50.5658,0,0,1,7.5977-4.9817,92.5656,92.5656,0,0,1,8.8992-3.4321c5.8683-2.0553,11.8452-3.7934,17.8786-5.2927a300.2,300.2,0,0,1,37.8168-6.7713,325.4521,325.4521,0,0,1,77.1779.4543,345.8343,345.8343,0,0,1,38.0653,6.9512c5.7231,1.3682,11.5868,3.1517,17.52,3.1585a18.434,18.434,0,0,0,14.059-6.0107,27.7865,27.7865,0,0,0,6.2419-13.5c.3926-2.0683-2.7764-2.9545-3.1712-.8743-.9213,4.8536-2.803,9.6959-6.4658,13.1453-3.99,3.7571-9.2355,4.3684-14.4765,3.6934-5.9261-.7632-11.74-2.5694-17.5574-3.89q-9.1216-2.07-18.3472-3.64a334.3264,334.3264,0,0,0-74.8447-4.34,321.8727,321.8727,0,0,0-37.0026,4.3075A241.2252,241.2252,0,0,0,309.83,286.922c-5.6345,1.9048-11.3519,3.8195-16.2285,7.2984-4.42,3.1533-9.0833,7.1207-14.6753,7.8029-5.0771.6194-9.8417-2.172-12.8755-6.0965-3.5078-4.5375-5.1109-10.5613-5.8169-16.1666a74.6486,74.6486,0,0,1,.3076-17.9847c.7257-6.1806,1.7555-12.3508,2.8293-18.48a248.7032,248.7032,0,0,1,9.4931-36.8452A290.6512,290.6512,0,0,1,287.13,171.9879c2.3534-4.8092,4.8623-9.54,7.2964-14.3087,2.1462-4.2043,4.3228-8.4,6.7919-12.4261,4.753-7.7507,11.0873-15.6747,19.95-18.83,5.1286-1.826,11.3033-1.8791,15.8675,1.4165,4.0013,2.8891,5.8249,7.8606,7.7632,12.1966a89.6519,89.6519,0,0,0,8.0446,13.6225,149.4262,149.4262,0,0,0,9.2238,12.255,129.3912,129.3912,0,0,0,24.1077,21.8133c19.9186,14.2278,42.1688,25.0466,64.8,34.2143,11.771,4.7683,23.7366,9.243,35.8585,13.04,3.0807.965,6.1788,1.7494,9.3208,2.4843a33.5227,33.5227,0,0,1,7.5252,2.4453,20.5929,20.5929,0,0,1,9.905,11.729,33.8269,33.8269,0,0,1,.9051,17.189C514.1182,270.8983,517.287,271.7862,517.66,269.7031Z"/><path class="cls-7" d="M322.8084,181.2842a17.6305,17.6305,0,0,1-2.021.9848,97.83,97.83,0,0,1-12.701,3.8956,106.6024,106.6024,0,0,1-28.1231,2.75,31.388,31.388,0,0,1-5.9836-1.0083l-9.715-2.2906c-1.9319-.4554-4.0208-.9-5.8482-.1245-3.4965,1.4838-4.4346,7.16-5.615,10.3623-1.7433,4.729-4.0833,8.2447-4.0946,13.62a5.2054,5.2054,0,0,0,1.011,3.6171,5.7559,5.7559,0,0,0,2.0081,1.2242c11.1546,4.8449,22.8716,13.2727,32.0222,21.4684a134.8927,134.8927,0,0,1,15.3591,16.3486c.6989.8835,1.396,1.7721,2.0782,2.6712a142.8861,142.8861,0,0,0,15.7994-38.2661A215.1588,215.1588,0,0,0,322.8084,181.2842Z"/><path d="M321.9785,179.8644a42.7881,42.7881,0,0,1-7.9124,2.9826q-4.1884,1.2823-8.4782,2.1939a104.44,104.44,0,0,1-17.6166,2.2164,73.4635,73.4635,0,0,1-8.7072-.03,59.1371,59.1371,0,0,1-8.7332-1.8228,71.5192,71.5192,0,0,0-8.8036-1.9175,7.2453,7.2453,0,0,0-6.1517,2.0372c-2.7407,2.8663-3.2651,7.11-4.6552,10.67-1.7847,4.5694-4.1744,8.9816-3.8375,14.0581a5.6383,5.6383,0,0,0,4.198,5.6511c2.4437,1.0816,4.83,2.2875,7.1652,3.5866a125.8888,125.8888,0,0,1,14.2188,9.3086,138.3684,138.3684,0,0,1,27.1008,26.8347,1.67,1.67,0,0,0,2.84,0c10.4414-17.2719,16.5209-36.791,19.6862-56.64.9368-5.8742,1.6368-11.7846,2.1612-17.7094.1865-2.1077-3.1033-2.0951-3.2887,0-1.766,19.9539-5.6894,39.9344-13.8889,58.3082a130.907,130.907,0,0,1-7.51,14.3808h2.84A140.9892,140.9892,0,0,0,279.7932,230.24a121.6407,121.6407,0,0,0-27.2373-17.3445c-1.0638-.4743-1.8939-.8568-2.1191-2.0871a11.67,11.67,0,0,1,.1049-3.8445,28.42,28.42,0,0,1,2.1515-6.554,58.7809,58.7809,0,0,0,2.2913-5.9419,27.1274,27.1274,0,0,1,1.9044-5.1606,4.2565,4.2565,0,0,1,4.4125-2.5706c2.79.207,5.6379,1.1988,8.3552,1.8395a81.5054,81.5054,0,0,0,8.6794,1.8431,56.39,56.39,0,0,0,8.4538.1677,109.63,109.63,0,0,0,18.9818-2.2293q4.635-.9578,9.1687-2.3392a47.0547,47.0547,0,0,0,8.6981-3.3142C325.5,181.696,323.8417,178.8555,321.9785,179.8644Z"/><path d="M322.1627,154.6212a153.0564,153.0564,0,0,1-3.1864,47.3059,223.4577,223.4577,0,0,1-15.5751,46.003,260.8046,260.8046,0,0,1-12.4859,23.8076,1.6456,1.6456,0,0,0,2.84,1.66,255.5468,255.5468,0,0,0,20.7689-44.0821,196.2443,196.2443,0,0,0,10.9372-47.9121,141.16,141.16,0,0,0-.01-26.7821c-.2064-2.0866-3.4972-2.108-3.2887,0Z"/><path class="cls-5" d="M642.8605,289.6737l-14.799,47.1377c-.72-.0581-8.5827.5481-9.3179.5481a26.8565,26.8565,0,0,0-12.4244,50.6669l-17.9549,62.1677s122.782,12.0146,134.7448,28.1607c.7887-44.377-1.2568-155.646-1.2568-155.646-2.4049-13.6609-6.7025-17.9109-15.719-18.9094l-58.1651-12.0228"/><path d="M641.2749,289.2366l-5.0091,15.9551-7.948,25.3156-1.8419,5.867,1.5856-1.2072a44.5,44.5,0,0,0-5.1893.2884c-1.7873.1208-3.57.2073-5.3579.2879a28.4981,28.4981,0,0,0-12.025,53.7028l-.7557-1.8569-6.0818,21.0578L589,442.0672l-2.2209,7.69a1.6683,1.6683,0,0,0,1.5856,2.0815c4.0646.3979,8.1248.8458,12.1832,1.3019q14.7739,1.66,29.5092,3.6487c12.3566,1.676,24.6927,3.5282,36.97,5.7136,11.3739,2.0246,22.7525,4.2679,33.8825,7.3909a109.6727,109.6727,0,0,1,12.5382,4.2011c.1737.0723.0188.0058.3222.1371q.3471.15.6925.3043.5977.2678,1.1883.5511c.7258.3492,1.4427.7178,2.1435,1.1151.62.3519,1.23.7251,1.816,1.1317.1347.0935.267.19.4.2855.3817.2729-.0263-.0308.127.093.2312.1868.46.3756.68.5762.2031.1857.4.378.5876.58.2182.2356.4885.5876.2847.316a1.66,1.66,0,0,0,3.0642-.83c.1562-8.8551.1826-17.7125.1809-26.5688q-.0033-16.4173-.1508-32.8341-.1354-17.0058-.35-34.0108-.1881-15.3384-.42-30.6764-.1672-11.1366-.3551-22.2729c-.0518-3.0655.06-6.1869-.1613-9.2466a33.5575,33.5575,0,0,0-1.772-7.6514,22.9309,22.9309,0,0,0-3.4434-6.9463c-2.96-3.8567-7.1143-5.2238-11.7423-5.9445-.4255-.0663.1723.0352-.0179.0007-.0592-.0107-.118-.0247-.177-.0366-.2409-.0484-.4813-.0995-.722-.1492l-2.7053-.5592-9.4065-1.9443-25.9825-5.3706-18.1753-3.7569-.9478-.1959c-2.0655-.4269-2.9488,2.7424-.8742,3.1712l12.9556,2.678,25.7389,5.32,18.3445,3.7918c2.3628.4884,4.7964.6443,7.0134,1.6863,4.2836,2.0134,6.2438,6.3875,7.45,10.7246a25.1463,25.1463,0,0,1,1.196,6.3331q.0453,2.5257.0886,5.0514.1717,9.9669.325,19.9341.2236,14.4663.4121,28.9332.2172,16.7532.3744,33.5073.1511,16.5564.2057,33.1135c.024,9.4442.02,18.8892-.09,28.3329q-.0322,2.7931-.0808,5.5862l3.0642-.83a18.469,18.469,0,0,0-6.8394-5.0927,79.6582,79.6582,0,0,0-11.6643-4.4592,291.0729,291.0729,0,0,0-32.8914-7.687c-12.4552-2.3295-24.9822-4.2716-37.5306-6.0249q-15.8954-2.2211-31.8432-4.0444-5.154-.5921-10.3127-1.1421a41.4341,41.4341,0,0,0-4.8708-.5038,1.927,1.927,0,0,1-.2122-.021l1.5856,2.0815,6.0818-21.0579,9.6522-33.42,2.2209-7.69a1.6666,1.6666,0,0,0-.7556-1.8569,25.2157,25.2157,0,0,1,9.4955-47.5219c1.98-.1531,3.9775-.1882,5.9615-.3225a46.6883,46.6883,0,0,1,5.4553-.3064,1.67,1.67,0,0,0,1.5856-1.2072l5.0092-15.9552,7.9479-25.3156,1.842-5.867c.6354-2.0239-2.5384-2.89-3.1713-.8742Z"/><path class="cls-2" d="M734.3954,374.6312l3.7761,68.3463a172.85,172.85,0,0,0,14,59.2209l15.7305,36.2832-122.2338-8.1525L643.477,427.933a133.8186,133.8186,0,0,1,10.9353-55.9164l33.9293-78.5689.8718-8.3771,4.2933-.0024a27.4056,27.4056,0,0,1,19.8756,8.5207l3.821,4.0185L696.0275,339.552"/><path d="M732.7511,374.6312l1.1784,21.33,1.9812,35.86c.61,11.0364,1.21,22.0136,3.19,32.923a172.9981,172.9981,0,0,0,9.8573,34.0076c1.5059,3.7191,3.1424,7.3876,4.7384,11.0687l12.494,28.8181.2919.6732,1.42-2.4743-12.1994-.8136-29.1609-1.945-35.2624-2.3519-30.5905-2.04-10.0683-.6715a42.6229,42.6229,0,0,0-4.7425-.3164,1.8965,1.8965,0,0,1-.21-.0139l1.6443,1.6443-.2441-11.4046-.5727-26.7643-.669-31.2639-.5329-24.9035c-.1276-5.9609-.3324-11.92-.0222-17.88a133.3757,133.3757,0,0,1,10.819-45.8654l7.02-16.2553,12.0387-27.8775,10.9151-25.2758,3.0525-7.0684c.2019-.4676.4055-.9345.6058-1.4027a13.3263,13.3263,0,0,0,.558-3.75l.5773-5.548-1.6443,1.6444c1.7025-.001,3.4095-.04,5.1115.0093a25.5485,25.5485,0,0,1,10.6222,2.6572c4.4945,2.247,7.6965,5.8162,11.0935,9.3886l-.2571-1.9926-7.1709,14.2038-11.3717,22.5248-2.6332,5.216c-.9515,1.8847,1.8846,3.5515,2.84,1.66l7.1708-14.2039L715.99,303.6532l2.6333-5.2159a1.7028,1.7028,0,0,0-.2572-1.9926c-3.68-3.87-7.2114-7.7153-12.12-10.08a29.54,29.54,0,0,0-11.31-2.9038c-1.9024-.0982-3.8189-.0359-5.7231-.0348a1.6882,1.6882,0,0,0-1.6444,1.6443l-.602,5.7847a14.1444,14.1444,0,0,0-.2607,2.5056c.0221.2526.4334-1.1365.1393-.5667-.7782,1.5075-1.3618,3.1535-2.0339,4.71l-9.8042,22.7031-12.3136,28.5142-8.6667,20.069a145.2188,145.2188,0,0,0-10.53,34.9759,158.9538,158.9538,0,0,0-1.5764,28.3073l.4635,21.66.66,30.8288.6176,28.8565.3458,16.16.016.75a1.6833,1.6833,0,0,0,1.6444,1.6443l12.1994.8137,29.1609,1.9449,35.2624,2.3519,30.59,2.04,10.0683.6715c1.571.1048,3.1674.3036,4.7426.3163.07.0006.14.0093.21.014,1.3768.0918,1.8706-1.4346,1.42-2.4743L758.23,512.0686q-2.282-5.2633-4.5638-10.5266a171.5916,171.5916,0,0,1-13.86-58.74q-.22-3.9471-.4362-7.8945l-1.912-34.6081c-.465-8.4164-.8339-16.8444-1.3953-25.255-.0092-.1376-.0152-.2754-.0228-.4131-.1163-2.1046-3.4057-2.1182-3.2887,0Z"/><path class="cls-1" d="M515.9182,253.71a23.9265,23.9265,0,0,0-8.0757-13.1015c-3.6033-2.8436-7.5645-3.8779-11.6607-4.8231-1.9172-.4423-3.864-.8653-5.8175-1.445-7.4705-2.2169-14.8472-4.8822-22.1684-7.545q-1.9359-.7042-3.8656-1.4261c-.6011,7.9624-7.6379,34.9586-8.7455,37.5835a110.6719,110.6719,0,0,1-8.2916,15.2377c10.7984,1.5117,21.5015,3.5349,32.0344,6.053l6.6391,1.5872c6.6948,1.6,14.1724,3.1,20.1183-.3691,5.8069-3.3879,8.8232-9.8606,9.99-16.1953A37.1163,37.1163,0,0,0,515.9182,253.71Z"/><path d="M517.5038,253.2724c-1.8768-7.3811-6.5664-13.884-13.6992-16.9015-3.7383-1.5816-7.75-2.2027-11.6521-3.238-4.3751-1.1609-8.6785-2.6609-12.9528-4.1436-4.8314-1.6759-9.64-3.4222-14.4322-5.2061a1.6621,1.6621,0,0,0-2.0815,1.5857,69.2157,69.2157,0,0,1-1.3516,8.1625c-.777,3.7921-1.65,7.5647-2.5614,11.3265-1.3835,5.7082-2.6574,11.5614-4.5766,17.1213a44.7921,44.7921,0,0,1-3.0236,6.3643c-1.6462,3.0746-3.4666,6.051-5.3,9.0167a1.6548,1.6548,0,0,0,.9827,2.4155q10.6181,1.4942,21.13,3.6353c6.8357,1.3981,13.576,3.1939,20.3951,4.6578,5.8518,1.2563,12.2758,2.0271,17.8131-.795,4.9352-2.5152,8.2174-7.317,10.0735-12.4067a38.5125,38.5125,0,0,0,1.2361-21.5947c-.49-2.058-3.6616-1.1867-3.1712.8743a35.6029,35.6029,0,0,1-.7077,18.2609c-1.4484,4.7841-4.23,9.3879-8.7284,11.836-4.8865,2.6592-10.8765,1.7011-16.0527.5645-6.3585-1.3962-12.6547-3.0494-19.031-4.372q-10.9755-2.2767-22.0825-3.8316l.9827,2.4156c3.116-5.0419,6.3524-10.1847,8.4994-15.7346a58.765,58.765,0,0,0,1.7072-5.7561c1.991-7.2989,3.81-14.658,5.3657-22.0623a80.2735,80.2735,0,0,0,1.6894-10.0982l-2.0815,1.5856c7.99,2.9742,16.0155,5.9054,24.1683,8.4078,7.242,2.2229,15.45,2.6627,20.9131,8.5269a23.3773,23.3773,0,0,1,5.358,10.2575C514.8538,256.1965,518.0264,255.3278,517.5038,253.2724Z"/><path class="cls-2" d="M220.4522,224.5886c-24.9243,3.9426-48.3067,9.818-74.2788,12.6607,2.4865,16.3321,3.5042,24.77,5.3793,41.1836L25,273.0192c21.4391-3.194,42.9441-6.1385,64.1364-10.7563q8.1483-1.7756,16.217-3.8926c4.1871-1.1043,12.2339-1.8367,15.6225-4.4967,2.865-2.249.9221-10.2083.5737-13.9177q-.7968-8.4825-2.3169-16.8763a64.9991,64.9991,0,0,1-1.4184-10.5691Z"/><path class="cls-2" d="M220.015,223.003c-19.1055,3.0325-37.9867,7.3156-57.0938,10.3379-5.5653.88-11.1471,1.6466-16.7478,2.2641a1.6825,1.6825,0,0,0-1.5856,2.0814c2.0605,13.5489,3.7647,27.1315,5.3206,40.7465l1.6443-1.6443-12.6546-.5413-30.1273-1.2888L72.099,273.39l-31.4905-1.3471-10.4536-.4472a43.8722,43.8722,0,0,0-4.9458-.2116A1.8553,1.8553,0,0,1,25,271.3749l.4371,3.23c20.9531-3.12,41.9648-6.0051,62.6911-10.4441q7.6782-1.6445,15.2885-3.5874c3.6475-.9351,7.34-1.5538,11.0054-2.4,2.8579-.66,7.05-1.5442,8.6837-4.2868,1.67-2.8034,1.0684-6.653.66-9.7108-.6266-4.69-1.0767-9.3993-1.7432-14.0844-.83-5.8328-2.4258-11.6768-2.5637-17.581l-1.6444,1.6443,10.1716,1.197,24.5585,2.89,29.6008,3.4834,25.695,3.0237,8.4294.9919c1.32.1553,2.6767.4222,4.0058.4714.0586.0022.1183.0139.1768.0208a1.6553,1.6553,0,0,0,1.6443-1.6443,1.682,1.682,0,0,0-1.6443-1.6444l-10.1716-1.1969-24.5585-2.89-29.6008-3.4833L130.4262,212.35l-8.4293-.992c-1.32-.1552-2.6768-.4222-4.0058-.4713-.0587-.0022-.1184-.014-.1768-.0208a1.6548,1.6548,0,0,0-1.6443,1.6443c.1189,5.088,1.3724,10.0792,2.1723,15.0856.7319,4.5806,1.1181,9.19,1.7348,13.7826.4069,3.03,1.2085,6.3326.6729,9.39a2.9432,2.9432,0,0,1-1.727,2.4142,19.6122,19.6122,0,0,1-4.7862,1.6562c-3.4026.835-6.8778,1.31-10.27,2.1947q-7.3577,1.9185-14.7886,3.5389c-10.0278,2.1973-20.134,4.0183-30.2657,5.6639-11.4309,1.8567-22.896,3.4918-34.35,5.1972-1.9038.2835-1.3285,3.1544.4371,3.23l12.6547.5413,30.1272,1.2888,36.6718,1.5688,31.49,1.3471c5.1082.2185,10.2848.7049,15.4.6587.0694-.0006.14.006.209.009a1.6494,1.6494,0,0,0,1.6444-1.6444c-1.5893-13.9069-3.3334-27.7815-5.4381-41.6207l-1.5856,2.0814c19.6206-2.1631,38.9231-6.2509,58.3083-9.8639,5.4576-1.0172,10.9244-1.9852,16.4076-2.8555C222.9737,225.8433,222.0888,222.6738,220.015,223.003Z"/><path class="cls-2" d="M220.8755,271.3882c-14.2694,13.115-26.731,26.8111-42.1382,39.6677,8.5318,9.3915,12.7689,14.3571,20.9442,24.0606L116.42,385.4374c12.3579-11.1549,24.8641-22.1781,36.4591-34.1389q4.4582-4.5988,8.72-9.3824c2.2093-2.4859,7.0459-6.3743,8.0832-9.5162.877-2.6564-3.7485-6.9225-5.5479-9.1475q-4.1148-5.088-8.6546-9.8118a49.923,49.923,0,0,1-5.3992-6.1586Z"/><path class="cls-2" d="M219.7128,270.2255c-14.1982,13.0674-27.3182,27.2756-42.1383,39.6677a1.6682,1.6682,0,0,0,0,2.3254c7.152,7.8759,14.09,15.9255,20.9443,24.0606l.3328-2.5826-8.2794,5.0039-19.8837,12.0171-24.056,14.5388-20.7963,12.5687-6.8533,4.142a31.6737,31.6737,0,0,0-3.2515,1.9651,1.3769,1.3769,0,0,1-.1413.0854l1.9927,2.5825c11.9438-10.7786,24.0214-21.4348,35.2854-32.9345q4.1573-4.2444,8.1513-8.6445c2.0953-2.3134,4.3324-4.4565,6.4775-6.72,1.6658-1.7574,4.0188-4.1732,3.9338-6.79s-2.2236-4.9607-3.8454-6.8186c-2.45-2.8069-4.8-5.6994-7.2866-8.4752-2.9052-3.2434-6.2918-6.1923-8.7979-9.7659l-.59,2.25,23.8982-12.1167,38.1153-19.325,8.7809-4.452c1.8881-.9573.2254-3.7956-1.66-2.84l-23.8983,12.1167L158.032,301.41l-8.7809,4.4521a1.6526,1.6526,0,0,0-.59,2.25c2.1947,3.13,4.9935,5.7382,7.581,8.531,2.4423,2.636,4.7088,5.4058,7.0363,8.14,1.57,1.845,3.5459,3.5854,4.5648,5.824.9193,2.02-1.3974,4.0242-2.6718,5.3692-1.981,2.0907-4.0705,4.05-6,6.1915q-3.8133,4.2318-7.7894,8.3129c-5.358,5.51-10.9117,10.8271-16.55,16.0488-6.4619,5.9841-13.036,11.8451-19.5741,17.7454-1.3928,1.257.4045,3.5424,1.9927,2.5825l8.2794-5.0038,19.8837-12.0172,24.0559-14.5387,20.7964-12.5688c3.36-2.03,6.8232-3.9513,10.1048-6.107.0459-.03.0942-.057.1412-.0854a1.671,1.671,0,0,0,.3328-2.5826c-6.8545-8.135-13.7923-16.1847-20.9442-24.0605v2.3254c14.82-12.3921,27.94-26.6,42.1382-39.6677C223.5989,271.1146,221.2686,268.7936,219.7128,270.2255Z"/><path class="cls-2" d="M218.1433,173.7564c-17.65-8.0064-35.1278-14.1216-52.9846-23.2763-5.3086,11.5245-8.2224,17.3657-13.9574,28.6839L72.334,122.2025c15.0985,7.0133,30.1337,14.2146,45.6757,20.2106q5.9757,2.3054,12.0448,4.3582c3.1519,1.0616,8.6216,3.993,11.919,3.7194,2.7879-.2313,4.9061-6.1565,6.25-8.6825q3.0744-5.7765,5.6473-11.8018a49.9337,49.9337,0,0,1,3.5576-7.3772Z"/><path class="cls-2" d="M218.9732,172.3365c-17.5782-7.9591-35.7848-14.481-52.9846-23.2762a1.6635,1.6635,0,0,0-2.25.59c-4.4529,9.6618-9.1495,19.1945-13.9573,28.6839l2.25-.59-7.8424-5.6642-18.8343-13.603L102.5681,142.02,82.8693,127.7923l-6.4917-4.6886a31.9283,31.9283,0,0,0-3.08-2.2244,1.4,1.4,0,0,1-.1338-.0967l-1.66,2.84c14.7877,6.871,29.5165,13.9087,44.7117,19.8494q5.7254,2.2385,11.5361,4.2494c2.919,1.0065,5.7235,2.2752,8.628,3.3137,2.2525.8054,5.3005,1.8383,7.535.479,2.1741-1.3227,3.3955-4.0023,4.4464-6.21,1.5626-3.2824,3.2923-6.48,4.8319-9.7741,1.8735-4.0091,3.3072-8.3046,5.6556-12.0709l-2.5826.3328,20.4955,17.2591L209.45,168.5776l7.5306,6.3415c1.6091,1.355,3.9471-.96,2.3254-2.3255l-20.4954-17.2591L166.1223,127.808l-7.5306-6.3415a1.6722,1.6722,0,0,0-2.5826.3328c-1.9849,3.1834-3.2428,6.7517-4.7784,10.1592-1.4577,3.2346-3.1088,6.3586-4.688,9.5323-1.0528,2.1158-1.8866,4.4957-3.4065,6.3372a2.1208,2.1208,0,0,1-1.7007,1.0357,12.8142,12.8142,0,0,1-4.01-.9388c-2.656-.9352-5.2-2.1466-7.867-3.0554q-5.5962-1.9072-11.1115-4.042c-7.2591-2.8006-14.41-5.87-21.5058-9.06-7.9634-3.5794-15.8594-7.306-23.7771-10.9849a1.6457,1.6457,0,0,0-1.66,2.84l7.8425,5.6642L98.1808,142.89l22.7865,16.4573,19.6988,14.2274,6.4916,4.6886c1.0164.734,2.0111,1.5672,3.08,2.2244.0464.0286.09.0646.1338.0966a1.6525,1.6525,0,0,0,2.25-.59c4.8077-9.4894,9.5044-19.0221,13.9573-28.6838l-2.25.59c17.2,8.7954,35.4063,15.3171,52.9847,23.2762C219.2265,176.0424,220.9,173.2091,218.9732,172.3365Z"/><path class="cls-2" d="M686.71,376.2756l114.34,52.6085,15.5091,6.5013c24.5527,8.3475,57.0165,11.1474,72.0928-15.6488l52.7633-86.9438c-5.4122-2.3737-34.4157-9.1575-40.5477-12.84-11.0967-6.6635-20.2724-13.8062-25.6206-19.5693L840.53,363.8193,733.7556,303.7067a55.6,55.6,0,0,0-22.1172-6.91l-15.4267-1.4376"/><path d="M685.88,377.6954l14.6077,6.7211L733.84,399.7621l37.2145,17.1226,25.4646,11.7165c6.1267,2.8189,12.38,5.3421,18.6,7.9493a69.378,69.378,0,0,0,8.957,2.8353,106.4512,106.4512,0,0,0,13.179,2.6618c8.8826,1.2006,18.0753,1.2109,26.7741-1.17a41.9625,41.9625,0,0,0,22.0257-14.33,84.5145,84.5145,0,0,0,5.62-8.6236l15.51-25.5582,21.22-34.9671L942.16,334.734l.6745-1.1113a1.6527,1.6527,0,0,0-.59-2.25,75.5321,75.5321,0,0,0-9.3963-3.0117c-4.6494-1.3212-9.3131-2.5916-13.9592-3.9243-4.3268-1.2412-8.6656-2.4937-12.8988-4.03-4.5288-1.6439-8.6942-4.5148-12.8012-7.3235a99.5559,99.5559,0,0,1-16.78-13.8623,1.6583,1.6583,0,0,0-2.5826.3328l-11.7059,21.39L843.3937,355.163l-4.2831,7.8264,2.25-.59-14.9712-8.4285-33.542-18.8837-35.7735-20.14L735.7268,302.93a60.7729,60.7729,0,0,0-18.0921-6.9154c-6.3458-1.2467-12.9492-1.51-19.3786-2.1092l-2.0444-.19c-2.1063-.1963-2.0929,3.0936,0,3.2887q7.5862.7068,15.1724,1.4138a55.3346,55.3346,0,0,1,21.9783,6.9556q9.4071,5.2907,18.81,10.5895l34.8065,19.5955,34.6023,19.4806c5.9445,3.3467,11.8267,6.8548,17.8539,10.0515.09.0476.1772.1.2657.15a1.6677,1.6677,0,0,0,2.25-.59l11.7059-21.39L872.383,309.04l4.283-7.8264-2.5825.3328a97.1877,97.1877,0,0,0,14.4709,12.2909q4.773,3.4325,9.7907,6.5069a32.1279,32.1279,0,0,0,4.9929,2.5589c8.5561,3.4251,17.6793,5.5493,26.5359,8.0365,2.2428.63,4.4855,1.2623,6.7145,1.94.8431.2563,1.685.5181,2.52.8006.331.1121.6616.2262.9892.3481.1408.0524.96.389.4871.1845l-.59-2.25L930.19,348.12l-20.4618,33.7171-18.1243,29.8654c-1.375,2.2656-2.7576,4.5267-4.1249,6.7969-3.4942,5.8017-7.6214,10.8631-13.4282,14.4934-15.0873,9.4325-34.65,7.3465-50.9736,2.706a146.8844,146.8844,0,0,1-16.5738-6.2971l-3.69-1.5468q-.5223-.219-1.0447-.438c-.2479-.1036-.5151-.2755.101.0431-.39-.2017-.802-.369-1.2007-.5525l-20.8936-9.6133-35.6435-16.4-35.4162-16.2952-20.2148-9.301-.961-.4422c-1.9095-.8786-3.5824,1.9551-1.66,2.84Z"/><path d="M941.1516,332.8864c-1.8815,3.1329-10.9514,1.3955-22.754-3.781l7.0677-15.8108C936.5955,321.7854,943.1332,329.5863,941.1516,332.8864Z"/><path d="M939.7317,332.0564c-.2236.35.1376-.1608-.0122.0291a1.3393,1.3393,0,0,1-.235.2293c.2744-.2073-.27.1422-.377.1914.2427-.1119-.3968.1149-.5131.1433a4.24,4.24,0,0,1-.6555.1137,16.062,16.062,0,0,1-4.577-.3416,67.6268,67.6268,0,0,1-14.1344-4.736l.59,2.25,7.0677-15.8109-2.25.59a74.8859,74.8859,0,0,1,12.0592,11.04,17.3851,17.3851,0,0,1,2.7873,4.2223c.0173.0408.1659.4486.22.6314q.0694.237.1211.4781c.1022.474,0-.2948.027.1631.0078.1345-.0222.775.0207.38a1.7786,1.7786,0,0,1-.0956.3695c.0888-.253.0468-.1013-.043.0577-1.0417,1.8455,1.7982,3.505,2.84,1.66,1.8-3.1886-.9246-6.9739-2.8346-9.4041-3.7724-4.8-8.62-8.7461-13.4416-12.4375a1.6457,1.6457,0,0,0-2.25.59l-7.0677,15.8109a1.6681,1.6681,0,0,0,.59,2.25c5.1227,2.2353,10.4848,4.4114,16.043,5.2622,2.9458.451,7.0975.8439,8.9607-2.0712C943.7146,331.9277,940.8694,330.2765,939.7317,332.0564Z"/><path class="cls-3" d="M900.8668,319.953c-11.0967-6.6635-20.2724-13.8062-25.6206-19.5693l5.7779-10.5209,8.5153-15.5049,42.4694,24.2982-6.5435,14.6385-7.0677,15.8108A157.4344,157.4344,0,0,1,900.8668,319.953Z"/><path d="M901.6967,318.5332c-9.0291-5.4386-18.057-11.5665-25.2878-19.3123l.2571,1.9927,11.6129-21.1454,2.68-4.88-2.25.59,14.3074,8.1858,22.9264,13.117,5.2356,2.9954-.59-2.25q-5.4432,12.1769-10.8865,24.3538l-2.7247,6.0955,2.25-.59a159.1046,159.1046,0,0,1-17.5308-9.1524c-1.82-1.09-3.476,1.7525-1.66,2.84a159.0971,159.0971,0,0,0,17.5309,9.1524,1.67,1.67,0,0,0,2.25-.59q5.3968-12.0729,10.7935-24.1459l2.8178-6.3035a1.6851,1.6851,0,0,0-.59-2.25l-14.3074-8.1858-22.9264-13.117-5.2356-2.9954a1.6668,1.6668,0,0,0-2.25.59q-5.4951,10.0054-10.99,20.011l-3.3033,6.0147a1.6934,1.6934,0,0,0,.2572,1.9927c7.41,7.9375,16.7008,14.2533,25.9533,19.8265C901.8544,322.4676,903.51,319.6251,901.6967,318.5332Z"/><line class="cls-5" x1="846.3769" y1="353.1362" x2="829.0526" y2="385.0136"/><path d="M844.957,352.3063,829.7826,380.228l-2.15,3.9557c-1.0109,1.86,1.8276,3.522,2.84,1.66l15.1745-27.9217,2.15-3.9557c1.0109-1.86-1.8276-3.5221-2.84-1.66Z"/><path class="cls-3" d="M927.1505,311.5052l13.1869-36.3589a36.4893,36.4893,0,0,0,4.7727-9.9355h0c2.4567-8.05,6.0746-14.8922,13.0708-19.5707l.24-7.2528s-37.0467-16.2789-40.4076-13.939L907.051,250.7577,905.4756,232.64a4.8406,4.8406,0,0,0-6.9872-3.91h0a4.84,4.84,0,0,0-2.654,3.8706l-3.0343,31.86-6.33,15.4864"/><path d="M928.7361,311.9423l8.8847-24.4968,4.09-11.2772a4.1768,4.1768,0,0,1,.2943-.56,66.107,66.107,0,0,0,3.6609-7.0377c1.7091-4.2641,2.7737-8.6361,5.1249-12.64a28.0932,28.0932,0,0,1,4.4231-5.757,25.1957,25.1957,0,0,1,2.8349-2.4417c.8683-.6364,1.6913-1.0027,1.7794-2.1885.1766-2.3738.1581-4.7768.2369-7.1562a1.6015,1.6015,0,0,0-.8144-1.42c-9.6064-4.22-19.3406-8.29-29.272-11.6825a69.1793,69.1793,0,0,0-7.751-2.2876c-1.4821-.3191-3.6475-.8734-5.0445.031a3.5541,3.5541,0,0,0-1.0908,1.7868l-1.0337,2.481-3.4446,8.2671-6.1489,14.7572,3.23.4372-1.4382-16.5389a22.8593,22.8593,0,0,0-.2676-2.515,6.47,6.47,0,0,0-11.5425-2.49,7.3063,7.3063,0,0,0-1.2965,3.8011c-.5682,5.6219-1.0715,11.2512-1.6073,16.8764-.4607,4.8381-.7067,9.754-1.3873,14.5671.13-.9167-.1207.0038-.2291.2691L890.243,266.4l-2.1466,5.2515-3.2121,7.8582a1.6565,1.6565,0,0,0,1.1485,2.0227,1.6831,1.6831,0,0,0,2.0227-1.1485l5.9528-14.5631a9.63,9.63,0,0,0,.5865-2.9392l.7358-7.7262,1.834-19.2573c.13-1.3655.01-3.2235.7306-4.454a3.2186,3.2186,0,0,1,5.0461-.6169,3.8754,3.8754,0,0,1,.96,2.6182l1.5054,17.3122a1.6532,1.6532,0,0,0,3.23.4371l9.5935-23.0243,1.3688-3.2851-.7557.9827c.2764-.1788-.4633.1649-.02.0091.3043-.1071-.414-.0372.0931-.01.4179.0222.8284.02,1.2463.0713-.4721-.0576.239.0437.3325.06.2874.0508.5735.1088.8588.17.6576.1416,1.31.3064,1.96.4817,3.271.8831,6.4771,2.0136,9.6574,3.1763,6.7443,2.4659,13.59,5.2649,20.0673,8.0194,1.5207.6467,3.04,1.2965,4.5531,1.9611l-.8144-1.42-.24,7.2528.8144-1.42c-6.8665,4.66-10.9554,11.66-13.4731,19.4294a46.4715,46.4715,0,0,1-2.1973,5.88q-.7181,1.4951-1.57,2.9212a19.1371,19.1371,0,0,0-1.3639,2.2714c-.2857.6778-.505,1.3925-.7557,2.0837l-9.4632,26.0919-2.9633,8.17c-.7228,1.9929,2.454,2.8516,3.1712.8742Z"/><path class="cls-3" d="M892.9342,314.8946c5.3,4.1065,25.4679,14.4669,25.4679,14.4669l35.44-60.336a1.9132,1.9132,0,0,1,1.0407-.8251c8.4875-2.3174,6.9478-2.4714,14.328-11.3184l4.8323-10.5618a9.854,9.854,0,0,0,.5743-6.918c-1.7743-5.8869-8.6592-8.811-15.6579-11.8774l-29.286-12.0707"/><path d="M892.1043,316.3144a88.6344,88.6344,0,0,0,10.9248,6.6827c3.9444,2.2015,7.928,4.3329,11.93,6.4268q1.3044.6825,2.6126,1.3575a1.6782,1.6782,0,0,0,2.25-.59l11.991-20.4142,19.0059-32.357,2.9482-5.0192a14.58,14.58,0,0,1,1.4236-2.4236c.5019-.5494,1.7811-.6467,2.5547-.8809a18.4465,18.4465,0,0,0,4.2478-1.721c2.7371-1.66,4.55-4.604,6.51-7.0444a17.4777,17.4777,0,0,0,2.5662-3.5768l1.7711-3.8712a64.9959,64.9959,0,0,0,3.2692-7.3739c3.3986-10.8735-8.9067-16.3249-16.845-19.6247-9.4073-3.91-18.8384-7.7646-28.2574-11.6468l-.896-.3693a1.6562,1.6562,0,0,0-2.0228,1.1485,1.6837,1.6837,0,0,0,1.1485,2.0227l27.3454,11.2709c1.9285.7948,3.7955,1.6009,5.6933,2.4816,3.9824,1.8482,9.1207,4.2352,10.6549,8.729,1.1552,3.384-.45,6.2824-1.8115,9.2579l-2.0129,4.4a25.7982,25.7982,0,0,1-1.2789,2.7952,53.36,53.36,0,0,1-3.768,4.7061,23.294,23.294,0,0,1-2.8894,3.2615,9.902,9.902,0,0,1-2.8548,1.5167c-1.85.6534-4.3516.799-5.6351,2.4045a49.4777,49.4777,0,0,0-3.547,5.9338l-18.2016,30.9876-8.8783,15.1149c-1.6053,2.733-3.3674,5.4258-4.8371,8.2351-.071.1356-.1559.2654-.2335.3974l2.25-.59c-6.7862-3.4873-13.5482-7.0716-20.1036-10.9776a54.6858,54.6858,0,0,1-5.3643-3.4894,1.6553,1.6553,0,0,0-2.25.59,1.684,1.684,0,0,0,.59,2.25Z"/><path class="cls-3" d="M925.67,242.2274c7.7592-19.4,11.907-30.002,17.1982-40.9845s-1.9165-16.4521-9.8115-6.8367c-10.9935,16.3468-25.6364,54.8792-25.6364,54.8792s10.409-1.1447,17.8724,5.3079"/><path d="M927.2558,242.6645c4.2609-10.6545,8.405-21.37,13.025-31.876q1.2906-2.9352,2.6447-5.8419a37.8036,37.8036,0,0,0,3.0117-7.3656c.8781-3.824.1928-9.2984-4.6533-9.7532-4.7507-.4458-8.6767,4.1319-10.9253,7.7215-2.3292,3.7184-4.3982,7.5991-6.3747,11.5141-4.3215,8.56-8.1825,17.3512-11.882,26.195-2.161,5.1659-4.2769,10.3553-6.267,15.59a1.6511,1.6511,0,0,0,1.5856,2.0815,22.9144,22.9144,0,0,1,16.71,4.8262c1.6062,1.36,3.9437-.9556,2.3254-2.3254a26.0947,26.0947,0,0,0-19.0351-5.79l1.5856,2.0815c4.5921-12.0786,9.6382-24.0288,15.2108-35.6868,1.9379-4.0543,3.9541-8.0753,6.1425-12.0009,2.0206-3.6247,4.0552-7.8035,7.7188-10.03,1.2141-.7378,2.8935-1.3858,3.9994-.4848.9747.7942,1.0512,2.7034.904,3.9948-.2854,2.5026-1.4722,4.7447-2.5282,6.9877q-1.33,2.8246-2.5942,5.6795c-4.91,11.066-9.28,22.37-13.7746,33.6081-.7859,1.9649,2.3936,2.8185,3.1712.8742Z"/><path class="cls-2" d="M618.7436,324.2048l6.7157-31.9421a15.9848,15.9848,0,0,1,15.1242-10.8107h29.1346l-3.9461,10.5161-22.9115-2.2944L631.6348,325.43"/><path d="M620.3292,324.642l6.2649-29.7978a13.9557,13.9557,0,0,1,13.9894-11.7479c4.3977-.0427,8.7978,0,13.1956,0h15.939l-1.5856-2.0814-3.9461,10.516,1.5856-1.2072-20.001-2.0029-2.91-.2914a1.6584,1.6584,0,0,0-1.5856,1.2072L631.44,320.562l-1.391,4.4307c-.6354,2.0239,2.5384,2.89,3.1712.8742l9.8347-31.3255,1.3911-4.4306-1.5857,1.2072,20.0011,2.003,2.91.2914a1.6691,1.6691,0,0,0,1.5856-1.2072l3.9461-10.5161a1.6563,1.6563,0,0,0-1.5856-2.0814c-9.6773,0-19.3572-.0708-29.0342,0a18.0045,18.0045,0,0,0-11.7691,4.4188,15.9147,15.9147,0,0,0-5.1759,8.2406L620.3617,308.53l-3.2037,15.2379c-.4341,2.0648,2.7353,2.9475,3.1712.8743Z"/><path class="cls-3" d="M971.7346,251.2951c-2.9641,6-8.0613,17.1021-10.9028,21.3273-6.988,8.5108-13.3677,3.6695-8.6844-6.0513,2.3042-4.7824,4.3633-9.4834,6.6787-15.07"/><path d="M970.3147,250.4651c-3.3205,6.7318-6.2776,13.7329-10.1664,20.1654a11.7538,11.7538,0,0,1-3.7317,3.8769,5.6308,5.6308,0,0,1-1.8643.8117,2.6291,2.6291,0,0,1-1.1154-.0159,2.2414,2.2414,0,0,1-.4167-.24,1.0529,1.0529,0,0,1-.3409-.3869,3.516,3.516,0,0,1-.4742-1.5688,11.0754,11.0754,0,0,1,1.2014-5.3649c2.3809-5.2539,4.7936-10.4736,7.0052-15.8041a1.6558,1.6558,0,0,0-1.1484-2.0227,1.6843,1.6843,0,0,0-2.0228,1.1484c-2.15,5.1814-4.5538,10.2308-6.8253,15.3555-1.4292,3.2244-2.7385,8.2658.341,11.0245,3.0753,2.7549,7.3363.3193,9.7713-2.0529,2.8215-2.7488,4.4828-6.645,6.2256-10.1188,2.1859-4.3569,4.2451-8.7756,6.4013-13.147.9331-1.8916-1.9024-3.56-2.84-1.66Z"/><path class="cls-3" d="M963.1751,247.1015c-2.9641,6-8.0613,17.1021-10.9028,21.3274-6.988,8.5108-13.3677,3.6694-8.6844-6.0514,2.3042-4.7824,4.3633-9.4833,6.6787-15.07"/><path d="M961.7553,246.2716c-3.3206,6.7317-6.2777,13.7328-10.1665,20.1654a11.7538,11.7538,0,0,1-3.7317,3.8769,5.6309,5.6309,0,0,1-1.8642.8116,2.63,2.63,0,0,1-1.1155-.0159,2.2414,2.2414,0,0,1-.4167-.24,1.0531,1.0531,0,0,1-.3409-.3869,3.5169,3.5169,0,0,1-.4742-1.5688,11.0755,11.0755,0,0,1,1.2015-5.3649c2.3808-5.2539,4.7935-10.4735,7.0051-15.8041a1.6557,1.6557,0,0,0-1.1484-2.0227,1.6843,1.6843,0,0,0-2.0228,1.1485c-2.15,5.1813-4.5538,10.2308-6.8253,15.3554-1.4292,3.2244-2.7384,8.2658.3411,11.0245,3.0752,2.755,7.3363.3193,9.7712-2.0528,2.8216-2.7489,4.4828-6.6451,6.2256-10.1188,2.1859-4.357,4.2451-8.7756,6.4013-13.1471.9331-1.8915-1.9024-3.56-2.84-1.66Z"/><path class="cls-3" d="M953.5146,241.956c-2.9641,6-8.0613,17.1022-10.9028,21.3274-6.988,8.5108-13.3677,3.6694-8.6844-6.0513,1.951-4.0495,4.9176-10.5615,7.1868-15.8541a3.4217,3.4217,0,0,0-1.3658-4.2692h0"/><path d="M952.0948,241.1261c-1.9644,3.9832-3.8477,8.0059-5.8215,11.9845-.9595,1.9342-1.934,3.8622-2.9662,5.7588a19.7071,19.7071,0,0,1-3.0153,4.5476c-1.1289,1.1539-2.8609,2.7436-4.6268,2.6141-.96-.07-1.4979-.88-1.6592-2.01-.3043-2.1313.5834-4.3676,1.4792-6.246q1.5654-3.2822,3.0714-6.5917c1.3007-2.8556,2.5806-5.7213,3.8182-8.6048,1.0781-2.5122.71-5.3614-1.7963-6.89-1.8117-1.1051-3.466,1.738-1.66,2.84a1.8662,1.8662,0,0,1,.6165,2.3905c-.5375,1.4474-1.24,2.8538-1.866,4.2648q-1.7136,3.8592-3.4933,7.6886c-1.8363,3.9464-4.7709,8.748-2.9866,13.2272,1.5876,3.9857,6.0839,3.75,9.13,1.5995,3.7429-2.6422,5.6515-6.7165,7.6694-10.6869,2.3914-4.705,4.6121-9.4933,6.9462-14.2264.9329-1.8917-1.9026-3.56-2.84-1.66Z"/><path class="cls-1" d="M663.678,175.39,643.88,172.0326a18.861,18.861,0,0,0-20.6357,11.5159l-2.1288,5.2567a8.658,8.658,0,0,1-8.104,5.4078h0a22.3845,22.3845,0,0,0-21.9474,17.0637h0a22.3843,22.3843,0,0,0,17.0224,27.2007l33.1489,7.1515"/><path d="M664.1151,173.8048l-11.0015-1.8659c-3.9986-.6781-8.2329-1.7979-12.3108-1.8166a20.6386,20.6386,0,0,0-18.613,11.7545c-.9184,1.9866-1.6535,4.0607-2.4939,6.0807a7.4107,7.4107,0,0,1-7.0425,4.6108,24.3554,24.3554,0,0,0-19.3672,10.026,24.0171,24.0171,0,0,0,11.7962,36.7545,79.2,79.2,0,0,0,8.983,2.0984l26.1528,5.6423.58.125c2.0636.4452,2.9453-2.7244.8742-3.1712l-22.3163-4.8145-10.287-2.2193a21.2174,21.2174,0,0,1-13.4553-8.81,20.7423,20.7423,0,0,1,14.3118-32.1564c1.75-.2463,3.5274-.0677,5.2651-.4053a10.3074,10.3074,0,0,0,4.81-2.4468c2.0114-1.785,2.8338-4.278,3.8106-6.69a24.426,24.426,0,0,1,3.6484-6.8587,17.4845,17.4845,0,0,1,9.0428-5.7066c4.2315-1.0809,8.3663-.0761,12.5526.6339l13.2941,2.2547.8922.1513c2.07.3511,2.96-2.8175.8742-3.1712Z"/><path class="cls-3" d="M701.6731,295.9635a29.59,29.59,0,0,1-58.82-6.5133Z"/><path d="M700.0288,295.9635a27.9559,27.9559,0,0,1-55.5312-6.5133l-1.6444,1.6443,19.899,2.2035,31.6872,3.5088,7.2337.801c2.1005.2326,2.0839-3.0579,0-3.2887l-19.899-2.2034-31.6872-3.5088-7.2337-.801c-.9469-.1049-1.56.8431-1.6443,1.6443a31.2245,31.2245,0,1,0,62.1085,6.5133,1.6555,1.6555,0,0,0-1.6443-1.6444A1.6818,1.6818,0,0,0,700.0288,295.9635Z"/><polyline class="cls-3" points="687.733 299.89 691.617 262.771 658.699 270.935 654.678 295.119"/><path d="M689.3778,299.89l3.4077-32.5667.4763-4.5514a1.6582,1.6582,0,0,0-2.0815-1.5856l-28.82,7.1468-4.0988,1.0164a1.6073,1.6073,0,0,0-1.1484,1.1484l-3.51,21.1138-.5106,3.071c-.3442,2.07,2.8244,2.9605,3.1712.8743l3.51-21.1138.5106-3.071-1.1485,1.1485,28.82-7.1468,4.0987-1.0164-2.0815-1.5856-3.4077,32.5667-.4763,4.5514c-.22,2.1026,3.07,2.0872,3.2887,0Z"/><path class="cls-3" d="M690.2887,275.5885c19.8363-11.7153,16.0583-26.5166,18.33-36.6253,1.3189-5.87-4.8979-19.7512-4.8979-19.7512l-46.8591-19.7706-13.6974,14.387s-32.914,64.2922,26.4812,61.7291"/><path d="M691.1186,277.0083c5.6975-3.3979,10.9048-7.8545,14.06-13.7826a38.3462,38.3462,0,0,0,3.8776-14.1568c.2265-2.1184.3679-4.2452.6087-6.3622a44.9074,44.9074,0,0,0,.7786-5.9134c-.0986-4.9715-1.9357-9.9822-3.7149-14.5663a24.5855,24.5855,0,0,0-1.5688-3.8014,3.0771,3.0771,0,0,0-1.6339-1.0658l-6.5186-2.75-23.3024-9.8317-10.4926-4.427c-1.87-.7888-3.7321-1.71-5.6477-2.3828-.09-.0317-.1777-.075-.2659-.1122a1.6006,1.6006,0,0,0-1.6.4228l-7.5326,7.9119-4.74,4.9789a12.8,12.8,0,0,0-1.6988,1.8629,25.2462,25.2462,0,0,0-1.4739,3.1578q-1.6412,3.7193-3.0126,7.55a78.3046,78.3046,0,0,0-4.7284,21.4643c-.4579,7.6426.84,15.6483,5.7471,21.7586,6.2363,7.766,16.739,10.0468,26.2186,10.2905,1.7227.0442,3.4458.0188,5.1674-.052,2.1088-.0868,2.12-3.3759,0-3.2887-9.4587.3891-20.5948-.5783-27.5409-7.5712-5.0107-5.0446-6.532-12.2055-6.3809-19.2517a70.0242,70.0242,0,0,1,4.0967-20.77q.7141-2.119,1.5183-4.2064.3545-.9207.7255-1.8348.1659-.4083.3351-.8153.086-.2075.1733-.4144c-.14.3329-.0264.0615.045-.1044.5761-1.3393,1.2639-2.6414,1.8171-3.9881a1.5656,1.5656,0,0,0,.1406-.2817c-.0563.3448-.3252.3963.1056-.0562l3.5837-3.7642,9.1328-9.5926.6271-.6586-1.6.4229,15.8576,6.6905,25.1668,10.6183,5.8346,2.4618-.9827-.7557c.0828.1852.1626.3717.2432.5579.1982.4584.0265.0548.202.48q.2094.5066.4141,1.0152c.7273,1.8128,1.4032,3.6471,2.0089,5.5042,1.1913,3.6531,2.4867,7.7554,1.7339,11.5436-.7063,3.5543-.8083,7.2-1.2321,10.7913a33.0943,33.0943,0,0,1-3.1276,11.2418c-2.8851,5.6383-7.7129,9.79-13.0843,12.9932-1.816,1.0831-.164,3.9275,1.66,2.84Z"/><path d="M659.4892,230.285c-.6374.4983-.2326.18-.0707.07.2079-.1413.4228-.2724.6411-.3968.321-.1829.6511-.3462.9861-.5013.1887-.0874.2565-.1028.0245-.0134.1125-.0433.2237-.0893.3366-.1315q.3614-.135.7309-.247a12.1673,12.1673,0,0,1,1.6-.3654q.1783-.0268-.0579.006.1162-.0144.2329-.0255c.1319-.012.2637-.0244.3959-.0329q.4944-.0319.99-.02a10.0309,10.0309,0,0,1,1.042.0752c-.2412-.0313.295.0538.2837.0517q.2781.0519.5533.1177a10.6259,10.6259,0,0,1,2.1131.7388,1.69,1.69,0,0,0,2.25-.59,1.6587,1.6587,0,0,0-.59-2.25,13.3709,13.3709,0,0,0-9.5583-.9155,12.5357,12.5357,0,0,0-4.2287,2.1042,1.6532,1.6532,0,0,0,0,2.3254,1.6858,1.6858,0,0,0,2.3254,0Z"/><path d="M639.1347,225.4857c2.923.4561,5.5158,2.211,7.7217,4.0872,1.1321.9629,2.4686,2.1489,2.7639,3.6835a6.1771,6.1771,0,0,1-.932,3.8292,16.8052,16.8052,0,0,1-2.96,4.054c-.8042.8243-1.9155,1.4789-2.6491,2.3411a3.5917,3.5917,0,0,0-.7137,2.0722c-.227,3.4392,3.4581,4.1931,6.1377,4.3116,2.116.0936,2.1114-3.1953,0-3.2887a7.4778,7.4778,0,0,1-2.4854-.39c-.3287-.1337-.36-.156-.3879-.2958.0268.1362.0176-.2664.0488-.3379q.0594-.3975.0827-.1351.0175.3564.3773-.1961a14.0832,14.0832,0,0,0,2.4631-2.3385c2.0672-2.2867,4.1179-5.3492,4.3485-8.52.256-3.5212-2.3965-6.0807-4.9513-8.0665a18.0775,18.0775,0,0,0-7.99-3.9815,1.6989,1.6989,0,0,0-2.0227,1.1485,1.6553,1.6553,0,0,0,1.1484,2.0227Z"/><circle cx="640.5188" cy="236.5054" r="2.1274"/><path d="M639.2107,236.39a2.3813,2.3813,0,0,1,.066-.2867.5146.5146,0,0,1,.057-.1634c-.0061.006-.0891.1763-.0135.04.0457-.0825.0884-.1652.141-.2438l.0319-.0461q.0788-.1074-.0263.0339c-.0025-.0256.0969-.1084.1119-.1237.0323-.033.0677-.0629.1-.0957l.0207-.0185q.1021-.0849-.0372.0242c.032-.0586.1784-.12.2321-.1507.0322-.018.0662-.0333.0982-.0517.1635-.0939-.1723.0526.0078-.0051a3.023,3.023,0,0,1,.2959-.0855l.0276-.0058q.1362-.0236-.0506.003c.02-.0181.1138-.01.1425-.0114.0976-.0046.1931.0037.29.0061.1217.0031-.2017-.0463-.0128-.0011.0477.0114.0961.02.1437.0323s.0935.0257.1395.0411c.0274.009.0545.0188.0813.0292q.0864.0333-.0644-.0277c.0575-.0079.1955.1015.2482.1348a.5633.5633,0,0,1,.1382.0955c-.0076-.01-.1429-.1276-.0368-.0231.0661.0651.1306.1305.1957.1966.1255.1275-.0619-.1127-.008-.0148.0308.0558.0739.1067.1067.1618q.0283.0476.0542.0967l.0253.0494q.0565.1218-.0149-.0441c.0472.0364.0734.214.0865.2656.0093.0364.0162.0732.0248.11.0444.1894-.0052-.1895.0027.0062a3.0565,3.0565,0,0,1,.004.3175c-.0068.1094-.0587.0972.0068-.013a.5993.5993,0,0,0-.0218.1167c-.0207.0956-.0522.1865-.0808.28-.057.1857.0841-.1562-.0068.0138-.0178.0333-.0343.0672-.0527.1q-.0414.0737-.0884.1437l-.0318.0461q-.0789.1074.0263-.0339c.002.0393-.1635.175-.1916.2009-.0133.0123-.1339.1407-.0437.0428.0851-.0923-.0284.0189-.0508.0338-.0776.0518-.1587.0932-.24.1386-.1382.0773.0427-.013.0441-.0149-.0276.0369-.1674.0595-.2114.072-.036.01-.0724.0194-.1089.0277l-.0551.0117q-.1363.0234.0506-.0031c-.0353.0351-.2105.014-.258.0137s-.097-.0049-.1456-.0058c-.1922-.0037.1323.0309.0129.0036-.1052-.0242-.21-.0442-.3125-.0785l-.0545-.019q-.1265-.049.0375.0175a.8274.8274,0,0,0-.1514-.0771c-.041-.0229-.0809-.0474-.12-.073-.0236-.0151-.0468-.0309-.07-.0472q-.1074-.0789.0338.0263c-.0544.0058-.2049-.1993-.2378-.2328-.0605-.0616-.0609-.0136.0242.0372-.0372-.0222-.07-.0986-.094-.1369q-.0444-.07-.0832-.144-.02-.0368-.0372-.0744-.0393-.084.0269.0691c-.055-.0463-.0838-.25-.1-.32-.0071-.0314-.0676-.1747-.0153-.0576q.0129.108.0009-.0037-.0051-.0571-.007-.1144t-.0007-.1157c.0009-.0507.0317-.3144-.0031-.0744a.845.845,0,0,0-.5742-1.0114.8314.8314,0,0,0-1.0114.5742,3.1422,3.1422,0,0,0,.2638,1.8841,2.9147,2.9147,0,0,0,1.1494,1.2206,2.9907,2.9907,0,0,0,3.4414-.351,2.9451,2.9451,0,0,0,.808-3.2081,2.9451,2.9451,0,0,0-5.6626.4544.8418.8418,0,0,0,.5742,1.0114A.8323.8323,0,0,0,639.2107,236.39Z"/><circle cx="660.4502" cy="238.8601" r="2.1274"/><path d="M659.1421,238.7442a2.3841,2.3841,0,0,1,.066-.2866.5176.5176,0,0,1,.057-.1635c-.0061.006-.0891.1764-.0135.04.0457-.0826.0884-.1653.141-.2439l.0319-.046q.0788-.1074-.0263.0338c-.0025-.0255.0969-.1083.1119-.1236.0323-.0331.0677-.063.1-.0957l.0207-.0185q.1022-.0849-.0372.0242c.032-.0587.1784-.1206.2321-.1507.0322-.0181.0662-.0334.0982-.0517.1635-.094-.1723.0526.0078-.0052a2.995,2.995,0,0,1,.2959-.0854l.0276-.0059q.1362-.0234-.0506.0031c.02-.0182.1138-.01.1425-.0114.0976-.0047.1931.0036.29.0061.1217.0031-.2017-.0463-.0128-.0011.0477.0114.0961.02.1437.0322s.0935.0257.1395.0412q.0411.0135.0813.0292.0864.0333-.0644-.0278c.0575-.0078.1955.1016.2482.1349a.5584.5584,0,0,1,.1382.0954c-.0075-.01-.1429-.1275-.0368-.023.0661.0651.1306.13.1957.1965.1255.1275-.0619-.1126-.008-.0147.0308.0558.0739.1066.1067.1617.0189.0317.037.0641.0542.0967l.0253.0494q.0566.1218-.0149-.0441c.0472.0364.0734.2141.0865.2656.0093.0365.0162.0733.0248.11.0444.1893-.0052-.19.0027.0061a3.0587,3.0587,0,0,1,.004.3176c-.0068.1094-.0587.0972.0068-.013a.5979.5979,0,0,0-.0218.1167c-.0207.0956-.0521.1865-.0808.28-.057.1857.0841-.1563-.0068.0137-.0178.0333-.0342.0672-.0527.1q-.0414.0735-.0884.1437l-.0318.046q-.0789.1074.0263-.0338c.002.0393-.1635.175-.1916.2008-.0133.0124-.1339.1407-.0437.0429.0851-.0923-.0284.0189-.0508.0338-.0776.0518-.1587.0931-.24.1385-.1382.0774.0427-.0129.0441-.0148-.0276.0369-.1674.06-.2114.0719-.036.01-.0724.0194-.1089.0277l-.0551.0117q-.1363.0234.0506-.0031c-.0352.0351-.2105.0141-.258.0138s-.097-.0049-.1456-.0059c-.1922-.0036.1323.031.0129.0036-.1052-.0241-.21-.0441-.3125-.0785l-.0545-.019q-.1264-.0489.0376.0176a.8382.8382,0,0,0-.1515-.0772c-.041-.0229-.0809-.0474-.12-.073q-.0354-.0226-.07-.0471-.1074-.0789.0338.0263c-.0544.0057-.2049-.1994-.2378-.2328-.06-.0616-.0609-.0137.0242.0371-.0372-.0222-.07-.0985-.094-.1369q-.0444-.07-.0832-.1439-.0195-.0367-.0372-.0745-.0393-.0839.0269.0692c-.055-.0463-.0837-.25-.1-.32-.0071-.0314-.0676-.1747-.0153-.0576q.0129.108.0009-.0037-.0051-.0571-.007-.1145t-.0007-.1157c.001-.0506.0317-.3143-.0031-.0744a.8449.8449,0,0,0-.5742-1.0113.8313.8313,0,0,0-1.0114.5742,3.1418,3.1418,0,0,0,.2638,1.884,2.9149,2.9149,0,0,0,1.1494,1.2207,2.9907,2.9907,0,0,0,3.4414-.3511,2.9449,2.9449,0,0,0,.808-3.208,2.9451,2.9451,0,0,0-5.6626.4544.8418.8418,0,0,0,.5742,1.0114A.8323.8323,0,0,0,659.1421,238.7442Z"/><circle cx="655.7934" cy="256.5042" r="2.7701"/><path d="M653.8506,256.2873a3.0767,3.0767,0,0,1,.0859-.3733c.0218-.0718.0462-.1432.0742-.2128-.0141.0352-.0668.1259.0074-.0073.06-.1074.1152-.2152.1837-.3175.0131-.0195.1615-.1987.046-.0662.0477-.0547.095-.1092.1458-.161.0421-.0431.0876-.0825.13-.1247.0282-.0277.1542-.1267.0288-.0314a2.6032,2.6032,0,0,1,.3022-.1962c.042-.0235.086-.0437.1278-.0673.1958-.1107-.1444.04.07-.0318a3.5705,3.5705,0,0,1,.3853-.1113c.0421-.0089.2043-.033.036-.0125.0616-.0075.1236-.0119.1856-.0148a3.037,3.037,0,0,1,.378.008c.1426.0109-.1865-.0464.0493.0074.0624.0142.1251.0259.1871.042s.1218.0335.1817.0535c.0172.0058.2346.0987.0814.027a2.9143,2.9143,0,0,1,.3231.1756c.0615.0388.1226.08.18.1243-.0306-.0238-.102-.0955.0024.0088.0853.0853.17.17.2547.256.1572.1606-.05-.0779.0285.031.0493.0682.0959.1383.139.2106.0284.0477.1725.3474.1091.1921a2.63,2.63,0,0,1,.1126.3459c.0121.0474.021.0955.0324.143.0539.226,0-.16.0124.0741a3.5651,3.5651,0,0,1,.0051.4135c-.0025.0406-.0252.2061,0,.0491-.0082.0508-.0176.1016-.0285.152-.0269.1243-.0661.2434-.1051.3641-.0715.221.0749-.1256-.034.0773-.0233.0433-.0446.0875-.0687.13q-.0537.0958-.115.1871c-.0211.0314-.1551.1915-.046.0662a3.2761,3.2761,0,0,1-.2494.2615c.0047-.0044-.1742.1488-.0822.0752s-.0959.0666-.0912.0635c-.1011.0674-.2069.1208-.3123.18-.1315.0744-.0367.02-.0019.0056a2.5863,2.5863,0,0,1-.2753.0938c-.0612.0173-.386.0772-.2137.0561a2.6173,2.6173,0,0,1-.3358.0179c-.0634,0-.1264-.0059-.19-.0076-.2381-.0064.0916.0212-.0492-.0042a2.9232,2.9232,0,0,1-.407-.1022c-.02-.0067-.2413-.1032-.0813-.0269-.0668-.0319-.1327-.0644-.1973-.1005-.0533-.03-.1053-.0617-.1565-.0951-.0313-.02-.2242-.1769-.0968-.066-.11-.0957-.2079-.1991-.31-.3031-.02-.0208-.098-.1212-.0073-.0019-.0436-.0573-.084-.1174-.1224-.1783s-.0747-.1235-.1083-.1874c-.0089-.0168-.1059-.2311-.0386-.0662a2.6539,2.6539,0,0,1-.13-.4171c.0009.0041-.0452-.2318-.0244-.108.0159.0943-.0114-.1587-.0123-.1869-.0017-.05-.002-.1005-.001-.1506.0006-.033.0305-.3395.0049-.1629a.845.845,0,0,0-.5743-1.0114.8312.8312,0,0,0-1.0113.5742,3.5875,3.5875,0,0,0,5.9061,3.3439,3.5933,3.5933,0,0,0,.9882-3.9356,3.5875,3.5875,0,0,0-6.8943.5917.8418.8418,0,0,0,.5742,1.0114A.8324.8324,0,0,0,653.8506,256.2873Z"/><path d="M696.0566,236.09a5.0366,5.0366,0,0,0-2.76-.5623,7.7569,7.7569,0,0,0-5.41,3.21,21.45,21.45,0,0,0-3.0182,5.6465,1.6513,1.6513,0,0,0,1.1485,2.0227,1.69,1.69,0,0,0,2.0227-1.1484c.0877-.2292.1769-.4577.27-.6849.0272-.0666.164-.3828.046-.112.04-.0927.0807-.1852.1219-.2775q.2607-.5846.5541-1.154a15.9932,15.9932,0,0,1,1.1561-1.9181c.0413-.0581.0838-.1154.1253-.1734.1033-.1444.2185-.1433-.038.044a1.8424,1.8424,0,0,0,.25-.3072c.1868-.2211.3827-.4345.5891-.6374.1667-.1639.3419-.3159.5192-.4681.3105-.2665-.2849.1967-.0025.0022.0984-.0678.1951-.1373.2957-.2017.159-.1016.3225-.1961.4908-.2814.083-.042.1708-.0764.2529-.12.17-.09-.442.1654-.2.0853.0548-.0181.1081-.0412.1626-.06a4.5746,4.5746,0,0,1,.4455-.1313c.0751-.018.1507-.0319.2261-.0481.383-.082-.3224.0269-.1474.0155a5.4465,5.4465,0,0,1,.7791-.015c.0509.004.1018.0118.1527.0148.2178.0125-.5437-.0933-.2406-.0309.1006.0207.2013.0377.3011.0628.1565.0394.3035.0986.4561.1485-.4128-.1349-.4234-.2-.209-.0805a1.6446,1.6446,0,0,0,1.66-2.84Z"/><line class="cls-8" x1="621.4563" y1="249.8128" x2="615.0303" y2="248.4215"/><path d="M621.8934,248.2272l-5.6246-1.2178-.8013-.1735a1.6448,1.6448,0,1,0-.8743,3.1712l5.6246,1.2178.8013.1735a1.6448,1.6448,0,1,0,.8743-3.1712Z"/><line class="cls-8" x1="621.8183" y1="258.9704" x2="615.3348" y2="260.0619"/><path d="M621.3812,257.3848l-5.6653.9538-.8183.1377a1.6512,1.6512,0,0,0-1.1484,2.0228,1.6912,1.6912,0,0,0,2.0227,1.1484l5.6653-.9538.8183-.1377a1.651,1.651,0,0,0,1.1484-2.0228,1.6912,1.6912,0,0,0-2.0227-1.1484Z"/><line class="cls-8" x1="624.4336" y1="265.9963" x2="619.7305" y2="270.5907"/><path d="M623.2709,264.8335l-4.125,4.03-.5781.5648a1.6444,1.6444,0,0,0,2.3255,2.3255l4.1249-4.03.5782-.5648a1.6444,1.6444,0,0,0-2.3255-2.3255Z"/><path class="cls-1" d="M631.35,211.2935l46.0415,10.4142,3.073,27.6778s.8642-11.7291,5.45-16.2419c1.9512-1.7827,4.048-2.8455,5.9215-2.6242,5.1449.6079,8.8944,2.8082,8.0241,10.1741-.576,4.8758-5.6665,12.8913-8.7755,14.78l-.7965,20.1155.0114-.0072c10.3789-6.5958,28.3673-17.8108,36.3086-48.16a36.7118,36.7118,0,0,0-.4555-20.1282v0A36.77,36.77,0,0,0,697.77,182.0061l-48.3322-9.08"/><path d="M630.913,212.8791l15.6021,3.5291,24.7311,5.5939,5.7083,1.2912-1.2072-1.5856,2.6916,24.2416.3815,3.4362a1.6454,1.6454,0,0,0,3.2887,0,32.926,32.926,0,0,1,3.1848-12.5576,9.3531,9.3531,0,0,1,3.0245-3.5161,5.5222,5.5222,0,0,1,4.6058-.9672c2.3738.48,4.4867,1.5409,5.1524,4.0364.8325,3.1208-.1822,6.4153-1.5524,9.218a25.06,25.06,0,0,1-5.5616,7.9221c-.7471.6513-1.4488,1.0245-1.5284,2.1207-.0365.5019-.04,1.0086-.06,1.5114l-.2483,6.2719-.4817,12.1634a1.6564,1.6564,0,0,0,2.4743,1.42c9.1457-5.76,17.5158-12.3028,24.0222-21.0386a77.57,77.57,0,0,0,10.8242-20.7854,56.6249,56.6249,0,0,0,3.3657-14.1623,38.14,38.14,0,0,0-1.7006-14.5112,38.8592,38.8592,0,0,0-29.8313-26.167q-11.8777-2.2372-23.7577-4.4635c-7.9185-1.4877-15.8286-3.0331-23.7577-4.4635-.1363-.0246-.2722-.0512-.4084-.0768-2.0685-.3886-2.955,2.78-.8742,3.1712l19.4177,3.6482,26.6184,5.0009a44.1362,44.1362,0,0,1,10.7185,3.0958,35.1511,35.1511,0,0,1,19.0975,41.3695,80.79,80.79,0,0,1-9.6465,22.4652c-5.9639,9.38-14.1492,16.62-23.4251,22.5961q-1.158.7459-2.3226,1.4817l2.4743,1.42.7965-20.1155-.8144,1.42a16.8155,16.8155,0,0,0,4.3138-4.44,33.6261,33.6261,0,0,0,3.6431-6.286c1.7514-3.967,2.8822-9.3059.2554-13.18-2.18-3.215-7.4517-5.0495-11.13-3.7126-4.6895,1.7044-7.0428,6.0491-8.4074,10.5545a44.8341,44.8341,0,0,0-1.7695,9.5568h3.2887l-2.6916-24.2416-.3815-3.4362a1.7017,1.7017,0,0,0-1.2072-1.5856l-15.602-3.529-24.7312-5.594-5.7083-1.2912c-2.061-.4661-2.941,2.7038-.8743,3.1712Z"/><path class="cls-2" d="M662.5926,353.2548l25.749-59.8071.8718-8.3771,4.2933-.0024a27.4056,27.4056,0,0,1,19.8756,8.5207l3.821,4.0185-21.7239,31.53"/><path d="M664.0125,354.0847l10.71-24.8772,14.1138-32.7819A13.3923,13.3923,0,0,0,689.99,293.41c.4329-2.7489.58-5.571.8679-8.3395l-1.6443,1.6444c1.6976-.001,3.4-.04,5.0969.0089a25.5694,25.5694,0,0,1,10.7873,2.7334c4.4235,2.2455,7.5875,5.784,10.943,9.3128l-.2571-1.9926L696.79,324.3445l-2.7307,3.9634c-1.2037,1.7471,1.6453,3.3934,2.84,1.66l18.9933-27.5671,2.7307-3.9634a1.6627,1.6627,0,0,0-.2572-1.9926c-3.6374-3.8254-7.128-7.6362-11.9616-10.0031A29.5486,29.5486,0,0,0,695.111,283.47c-1.9593-.1137-3.936-.0447-5.8976-.0436a1.6882,1.6882,0,0,0-1.6444,1.6443l-.8141,7.8234c-.14,1.3473.4572-.835.0561-.0189-.1865.38-.3367.7821-.5039,1.17l-5.3415,12.4067-15.825,36.7567-3.9678,9.2161c-.8281,1.9233,2.0042,3.6,2.84,1.66Z"/><path class="cls-2" d="M674.5555,463.169s6.4592,40.2444,38.6307,40.5306"/><path d="M672.97,463.6062a62.3071,62.3071,0,0,0,4.2532,13.9972c3.7367,8.8965,9.3869,17.3225,17.6824,22.5406a35.055,35.055,0,0,0,18.2807,5.2c2.1169.0274,2.1181-3.2613,0-3.2887a31.7506,31.7506,0,0,1-15.4315-4.0378,35.9414,35.9414,0,0,1-10.5021-9.3505,60.0409,60.0409,0,0,1-10.012-21.1051,47.7138,47.7138,0,0,1-1.0995-4.83c-.3363-2.0839-3.5059-1.2-3.1712.8743Z"/><path class="cls-1" d="M703.6537,343.9812s-15.3562,1.2183-22.64,20.2917c17.3209,3.6174,23.8053-4.5636,23.8053-4.5636s3.4429,19.1946,11.95,19.9283c2.3518-7.4628,5.7971-21.943-5.57-35.3357"/><path d="M703.6537,342.3369c-7.12.5843-13.9254,5.3908-18.2388,10.8082a40.3808,40.3808,0,0,0-5.9871,10.6906,1.652,1.652,0,0,0,1.1484,2.0228c6.3328,1.2923,13.1877,1.5921,19.2718-.9254a15.3828,15.3828,0,0,0,6.1334-4.0611l-2.7483-.7256a52.7406,52.7406,0,0,0,1.8,6.937c1.2957,3.9756,2.9943,8.1761,5.94,11.2354a9.2989,9.2989,0,0,0,5.7964,2.9631,1.6575,1.6575,0,0,0,1.5856-1.2072,46.3117,46.3117,0,0,0,2.4019-16.2187,34.9007,34.9007,0,0,0-8.395-20.7168c-1.3612-1.6239-3.6771.713-2.3255,2.3254a31.2193,31.2193,0,0,1,7.4605,19.0645,44.1223,44.1223,0,0,1-2.3131,14.6714l1.5856-1.2072c-4.0383-.4195-6.5181-6.2086-7.8036-9.6136a52.233,52.233,0,0,1-2.561-9.1076,1.6524,1.6524,0,0,0-2.7483-.7256,8.6236,8.6236,0,0,1-1.2161,1.1666c-.1261.1061-.2608.2065-.0512.0462q-.2166.1656-.44.3223-.4432.3129-.9074.5947a17.329,17.329,0,0,1-2.1673,1.1265c-5.4494,2.34-11.7349,2.0454-17.4237.8845l1.1485,2.0227c3.4024-8.7867,10.2174-16.5659,19.4928-18.7846.4706-.1126.945-.1909,1.4191-.284.3468-.0681-.3992.0286.1428-.0159,2.0945-.1719,2.1128-3.462,0-3.2886Z"/><path class="cls-1" d="M717.201,291.529a18.6624,18.6624,0,0,0-8.1935,19.4106,18.6227,18.6227,0,1,0,22.274,14.472,18.6381,18.6381,0,0,0,5.0778-34.4711"/><path d="M716.371,290.1092a20.6123,20.6123,0,0,0-8.9491,21.2675l1.1484-2.0227a20.275,20.275,0,1,0,24.2968,15.62l-1.1485,2.0228a20.2855,20.2855,0,0,0,13.149-29.8692,20.6727,20.6727,0,0,0-7.6784-7.6073,1.6455,1.6455,0,0,0-1.66,2.84,16.9906,16.9906,0,0,1-4.6849,31.4657,1.68,1.68,0,0,0-1.1485,2.0227,17.0105,17.0105,0,0,1-18.4112,20.201c-10.7372-.9985-17.7242-12.225-14.3751-22.3361a17.19,17.19,0,0,1,12.535-11.1884,1.68,1.68,0,0,0,1.1485-2.0228,17.1871,17.1871,0,0,1,7.4378-17.5535c1.7616-1.1574.1158-4.0064-1.66-2.84Z"/><path d="M963.2326,643.2066H918.2873l.8222.8222V560.7156a.8341.8341,0,0,0-.8222-.8222H855.8025l.8221.8222V511.67c0-2.9276-.5335-5.6807-3.1483-7.5-2.6533-1.8456-6.4761-1.28-9.5384-1.28H831.843a29.4243,29.4243,0,0,0-12.6192,2.45,26.4161,26.4161,0,0,0-12.4106,12.0249,26.9607,26.9607,0,0,0-2.8074,12.1143q-.0033,2.0628,0,4.1255v84.6631l.8221-.8222h-47.96l.8221.8222V596.7193a34.2792,34.2792,0,0,0-.21-5.2619A16.8133,16.8133,0,0,0,741.002,577.433c-4.3789-.0361-8.76,0-13.1386,0H713.1862a.8227.8227,0,0,0,0,1.6444h26.9226a16.7378,16.7378,0,0,1,7.3555,1.4344,15.13,15.13,0,0,1,7.9059,9.097,20.7713,20.7713,0,0,1,.6757,6.2816v22.3771a.8341.8341,0,0,0,.8222.8221h47.96a.8341.8341,0,0,0,.8222-.8221V538.6226c0-3.14-.0174-6.281,0-9.4212a24.9183,24.9183,0,0,1,21.5466-24.4785,76.6232,76.6232,0,0,1,9.4672-.1889h11.5716a7.1667,7.1667,0,0,1,4.2776.9672,5.75,5.75,0,0,1,2.4672,4.8459c.0156,1.8894,0,3.78,0,5.669v44.6995a.8342.8342,0,0,0,.8222.8222h62.4848l-.8221-.8222v83.3132a.8341.8341,0,0,0,.8221.8221h44.9453a.8226.8226,0,0,0,0-1.6443Z"/></svg>