<svg id="Layer_1" data-name="Layer 1" xmlns="http://www.w3.org/2000/svg" width="1000" height="1000" viewBox="0 0 1000 1000"><defs><style>.cls-1{fill:#fc7272;}.cls-2{fill:#458dc9;}.cls-3{fill:#fff;}.cls-4{fill:#fc7f3a;}.cls-5{fill:#389b48;}.cls-6{fill:#ffc41f;}</style></defs><path d="M912.6846,549.9757a.926.926,0,0,0,0-1.8509.926.926,0,0,0,0,1.8509Z"/><path d="M625.17,461.747h45.6569l-.9255-.9255V562.0069a.9389.9389,0,0,0,.9255.9255H682.61c4.0062,0,8.1868.35,12.18-.0812a13.7368,13.7368,0,0,0,12.1311-13.59c.0578-4.1165,0-8.238,0-12.3549V523.7539l-.9255.9255h63.5494l-.9255-.9255v63.5494a.9388.9388,0,0,0,.9255.9254h19.7434a.9389.9389,0,0,0,.9255-.9254V465.8126a6.4465,6.4465,0,0,0,0-1.6871.824.824,0,0,1,0-.2191l-.9255.9255H831.86l-.9255-.9255v98.1a.9389.9389,0,0,0,.9255.9255h36.402l-.9254-.9255V599.026a.9388.9388,0,0,0,.9254.9254h44.4229a.9389.9389,0,0,0,.9255-.9254V408.7983a12.7581,12.7581,0,0,0,0-2.5566,1.65,1.65,0,0,1,0-.3318l-.4584.7991a62.2818,62.2818,0,0,0,23.1046-17.0247c4.5069-5.325,7.665-11.3529,10.8542-17.4949l3.3923-6.5333-.7992.4583H975a.926.926,0,0,0,0-1.8509H949.7036a.92.92,0,0,0-.7991.4583q-3.1154,6-6.2308,12a61.9885,61.9885,0,0,1-16.3516,20.0266,60.9271,60.9271,0,0,1-14.1046,8.3623.9053.9053,0,0,0-.4584.7991V596.1376a12.1914,12.1914,0,0,0,0,2.5566,1.5725,1.5725,0,0,1,0,.3318l.9255-.9255H868.2617l.9255.9255V562.0069a.9389.9389,0,0,0-.9255-.9255H831.86l.9254.9255v-98.1a.9389.9389,0,0,0-.9254-.9255h-42.572a.939.939,0,0,0-.9254.9255V585.3971a6.4465,6.4465,0,0,0,0,1.6871.824.824,0,0,1,0,.2191l.9254-.9255H769.5443l.9254.9255V523.7539a.9389.9389,0,0,0-.9254-.9255H705.9949a.9389.9389,0,0,0-.9255.9255v24.3078a14.8272,14.8272,0,0,1-.831,5.6563,11.8391,11.8391,0,0,1-8.76,7.1737,25.3865,25.3865,0,0,1-4.6075.19H670.8268l.9255.9255V460.8215a.939.939,0,0,0-.9255-.9255H625.17a.9261.9261,0,0,0,0,1.851Z"/><path d="M825.69,462.9809H800.3935l.9254.9255V448.4818l-.9254.9255H825.69l-.9255-.9255v15.4246a.9261.9261,0,0,0,1.851,0V448.4818a.9389.9389,0,0,0-.9255-.9255H800.3935a.939.939,0,0,0-.9255.9255v15.4246a.9389.9389,0,0,0,.9255.9255H825.69A.9261.9261,0,0,0,825.69,462.9809Z"/><path d="M819.52,447.4961H806.5633l.9255.9255v-7.9l-.9255.9255H819.52l-.9255-.9255v7.9a.9261.9261,0,0,0,1.851,0v-7.9a.939.939,0,0,0-.9255-.9255H806.5633a.939.939,0,0,0-.9255.9255v7.9a.939.939,0,0,0,.9255.9255H819.52A.9261.9261,0,0,0,819.52,447.4961Z"/><path d="M813.9671,440.5212V388.0174a.926.926,0,0,0-1.8509,0v52.5038a.926.926,0,0,0,1.8509,0Z"/><path d="M305.5721,586.3778h30.8492a.9389.9389,0,0,0,.9255-.9255v-51.21l-.9255.9255h69.7192a.9389.9389,0,0,0,.9255-.9255V508.3293l-.9255.9255H436.99l-.9255-.9255v19.1265a.9389.9389,0,0,0,.9255.9255h42.5719a.9388.9388,0,0,0,.9254-.9255V382.23a7.7289,7.7289,0,0,0,0-1.9825.9813.9813,0,0,1,0-.2511l-.6794.8924,14.4477-4.6012,34.6975-11.05,41.9789-13.3691,36.292-11.558,11.9607-3.8091,3.7247-1.1862a7.9448,7.9448,0,0,0,1.9512-.6214,1,1,0,0,1,.2471-.0787l-1.1715-.8924V591.8279c0,3.99-.0281,7.9818,0,11.9721a10.9505,10.9505,0,0,0,20.9394,4.7932c1.2244-2.7248.9635-5.7151.9635-8.6237v-7.73l-.9255.9255h27.1473l-.9254-.9255V638.513a.926.926,0,0,0,1.8509,0V592.2391a.9388.9388,0,0,0-.9255-.9254H644.9134a.9388.9388,0,0,0-.9254.9254v7.73c0,3.1349.3333,6.3813-1.4889,9.1387a9.1945,9.1945,0,0,1-13.535,1.92,9.3056,9.3056,0,0,1-3.1772-7.0411c-.0568-3.52,0-7.0453,0-10.5654V346.76c0-4.1605.0825-8.3307,0-12.4907-.0036-.1821,0-.3647,0-.5469a.9337.9337,0,0,0-1.1715-.8925l-14.4477,4.6012-34.6975,11.05-41.9789,13.3691-36.292,11.5579-11.9607,3.8092c-1.8741.5968-3.8482,1.077-5.6759,1.8076-.08.0318-.1653.0526-.2471.0787a.95.95,0,0,0-.6794.8924V525.2222a7.8009,7.8009,0,0,0,0,1.9824.9912.9912,0,0,1,0,.2512l.9255-.9255H436.99l.9254.9255V508.3293a.9389.9389,0,0,0-.9254-.9255H406.1405a.9389.9389,0,0,0-.9254.9255v25.9133l.9254-.9255H336.4213a.9389.9389,0,0,0-.9254.9255v51.21l.9254-.9255H305.5721a.9261.9261,0,0,0,0,1.851Z"/><path d="M655.3514,460.8215V388.6343l-.9255.9255h60.2068l-.9255-.9255V498.6922c0,1.49-.0989,3.0188,0,4.5068.0042.0642,0,.13,0,.1944a.926.926,0,0,0,1.8509,0V393.3356c0-1.49.0989-3.0188,0-4.5068-.0042-.0642,0-.13,0-.1945a.9389.9389,0,0,0-.9254-.9254H654.4259a.9389.9389,0,0,0-.9255.9254v72.1872a.9261.9261,0,0,0,1.851,0Z"/><path class="cls-1" d="M516.1916,176.2153s-3.2017-5.6706-22.2087-4.5187c-10.9435,3.4559,4.0318,30.5265,4.0318,30.5265l13.2473-5.1838"/><path d="M517.79,175.2811c-.9954-1.7334-3.17-2.764-4.926-3.4782a28.3528,28.3528,0,0,0-7.0975-1.6994,49.3,49.3,0,0,0-11.7834-.2578c-4.7517.5565-6.09,6.0648-5.8031,10.0108.3587,4.9368,2.0625,9.736,3.9552,14.27a91.7461,91.7461,0,0,0,4.2814,9.0307,1.8631,1.8631,0,0,0,2.09.8506l13.2474-5.1837a1.909,1.909,0,0,0,1.2927-2.2769,1.8629,1.8629,0,0,0-2.2768-1.2928l-13.2474,5.1838,2.09.8506a66.4975,66.4975,0,0,1-7.3447-18.7367,19.4352,19.4352,0,0,1-.4008-2.9059c-.0292-.475-.0418-.9514-.03-1.4272.0055-.2274.0195-.4539.0333-.6808.0058-.0951.0149-.19.0242-.2848.033-.3361-.0136.04.0166-.1533a8.5909,8.5909,0,0,1,.2511-1.1252,2.1566,2.1566,0,0,1,.3506-.8648,3.1466,3.1466,0,0,1,1.1328-1.2424c.4674-.2681.4813-.3082.8092-.3476a32.179,32.179,0,0,1,3.3329-.1188c1.7681-.026,3.538.0094,5.302.1357a31.3163,31.3163,0,0,1,7.327,1.304c.4674.15.93.3142,1.3845.5.2022.0826-.0333-.0142-.0617-.0265.1191.0519.2385.104.3555.1607.1745.0846.3494.1673.5215.2569.2986.1555.5919.3216.8757.5028.22.1406.788.5884.3674.2354.2707.2273.5072.5126.7795.7309.2918.2339-.2726-.4463-.0458-.0514,1.1862,2.0655,4.3861.2031,3.1965-1.8684Z"/><path class="cls-1" d="M49.9094,219.29l-5.1838-30.5264C44.15,166.3007,71.5193,151.1794,91.928,144.3l18.4583-6.2219,5.1838,59.901-8.64,16.7031"/><path d="M51.6942,218.798,48.81,201.8147,47.0179,191.26c-.1481-.8721-.3309-1.7459-.4455-2.6232-.0168-.129-.01-.5765-.0021-.1886a23.9414,23.9414,0,0,1,.2221-3.8282c1.4861-10.4934,9.4228-18.7616,17.7053-24.6778a107.0793,107.0793,0,0,1,28.0206-13.89q9.1771-3.1027,18.36-6.1887l-2.343-1.7849,1.7546,20.2761,2.793,32.2745.6361,7.35.2527-.9342-8.64,16.7031c-1.0929,2.113,2.1,3.9875,3.1965,1.8685l7.9235-15.3187a5.37,5.37,0,0,0,.8977-3.1407l-.4516-5.2178L113.28,150.1281l-1.0428-12.05a1.8735,1.8735,0,0,0-2.343-1.7848l-17.626,5.9413A117.3378,117.3378,0,0,0,65.31,154.912c-9.1033,5.966-17.9007,14.0287-21.1828,24.7393a23.5162,23.5162,0,0,0-1.0114,10.6355L44.65,199.32c1.1337,6.6763,2.0543,13.43,3.4075,20.066.0266.1309.0448.264.0671.3957.398,2.3437,3.9661,1.35,3.57-.9841Z"/><path d="M437.9152,891.4765c.03-4.1571,1.357-8.38,5.8189-9.4349,2.9871-.7064,6.2368-.0464,9.105.8757.5069.163,1.01.3391,1.5061.5322.1564.0608.3117.1241.4671.1877-.1584-.0648-.156-.0677-.0293-.0112a.9387.9387,0,0,0,1.3595-1.0452c-.6649-2.5606.99-5.8,3.0921-7.67a14.7572,14.7572,0,0,1,17.5748-1.7329,14.4155,14.4155,0,0,1,3.2547,2.6153c.5905.6636,1.8905-.0353,1.5468-.9-2.1569-5.43-.6526-11.9248,4.2193-15.3194a24.9322,24.9322,0,0,1,10.5115-3.7246c.947-.1487.8123-1.55,0-1.7849-4.8591-1.4033-9.9437-3.1815-13.9539-6.37-2.1254-1.69-4.1771-4.0474-4.1919-6.9133-.0138-2.6657,1.7334-4.91,3.67-6.5635a27.5306,27.5306,0,0,1,10.1136-5.04,57.4819,57.4819,0,0,1,17.09-2.128c.7464.01,1.2947-1.0589.6544-1.58-6.89-5.6074-13.8438-11.6185-19.1629-18.7948-2.1341-2.8793-5.36-7.3415-4.52-11.1521.5944-2.6983,3.59-3.4051,6.2073-3.3949,4.695.0183,9.4025,1.763,13.5909,3.7435a75.119,75.119,0,0,1,18.9145,13.1273.9327.9327,0,0,0,1.5469-.9c-3.6418-11.38-6.8629-23.2158-7.5832-35.1968a44.1292,44.1292,0,0,1,.4181-10.6507,13.9167,13.9167,0,0,1,2.3382-6.0447,4.1635,4.1635,0,0,1,3.5745-1.77,8.178,8.178,0,0,1,4.5152,2.1719c4.8214,4.113,7.738,10.4685,9.909,16.2762a113.4132,113.4132,0,0,1,6.3346,30.7742q.1848,2.3409.3,4.6864a.93.93,0,0,0,1.8179.246c2.6432-7.0347,5.7106-13.9348,8.97-20.7022a192.3251,192.3251,0,0,1,9.2885-17.24,71.9836,71.9836,0,0,1,10.9754-14.4185c2.8305-2.7249,6.71-5.7492,10.9074-5.2255,3.4788.4339,4.9119,3.2793,5.07,6.5214.2371,4.8539-1.2951,9.7932-2.8516,14.3286a148.0016,148.0016,0,0,1-7.0975,16.7207c-3.7469,7.6878-7.95,15.107-12.2716,22.48-.0719.1227-.1479.2432-.2226.3642-.5169.8381.4791,1.65,1.2662,1.2662,2.6263-1.282,5.3358-2.4112,8.0611-3.4626a63.6816,63.6816,0,0,1,15.662-4.3369c3.3976-.3752,9.2523-.4511,9.89,4.0706.2985,2.1174-.822,4.2577-1.9268,5.9756a35.0271,35.0271,0,0,1-5.1586,6.05,68.9689,68.9689,0,0,1-8.9524,7.3812.93.93,0,0,0,.7132,1.6915,80.6386,80.6386,0,0,1,17.1117-1.7667c3.41.0359,7.4059.2015,10.3825,2.0749,3.61,2.2723,2.4432,7.7382.9386,10.9808a19.3016,19.3016,0,0,1-6.9345,7.9969c-.85.5353-.3176,2.0513.7131,1.6916a7.74,7.74,0,0,1,4.2359-.306c3.71.8849,3.674,5.3858,3.2634,8.4223-.0609.451.1023,1.0515.6464,1.1384,4.61.7365,10.1044,2.3778,12.2489,6.9785a8.4809,8.4809,0,0,1,.7806,3.4346,8.7673,8.7673,0,0,1-.0559,1.1569c.0171-.1456-.003.0605-.0463.2482-.2674,1.1593,1.5168,1.6542,1.7848.4921a9.8971,9.8971,0,0,0-.865-6.2661c-2.391-5.0166-8.2546-7.0142-13.355-7.829l.6464,1.1384c.5221-3.8618.3962-9.0216-3.9885-10.5338a9.2124,9.2124,0,0,0-5.7877.1406l.7131,1.6916a21.4933,21.4933,0,0,0,6.7252-7.02,16.9884,16.9884,0,0,0,2.464-7.99,7.9824,7.9824,0,0,0-1.4389-5.6645c-2.3149-2.78-6.5289-3.4043-9.9113-3.6861a64.3667,64.3667,0,0,0-13.0041.4733c-2.5961.3132-5.1978.687-7.76,1.2191l.7132,1.6915a73.27,73.27,0,0,0,8.3418-6.7349c3.5888-3.3362,8.1835-7.8381,8.6228-13.025.4277-5.0492-4.2842-7.2292-8.6-7.3238-5.7084-.1251-11.5028,1.7273-16.815,3.633a108.8725,108.8725,0,0,0-10.9938,4.5769l1.2662,1.2662c3.9794-6.4523,7.6252-13.1373,11.0364-19.904a176.6771,176.6771,0,0,0,7.741-17.3225c1.8752-4.9911,3.6242-10.2764,3.9082-15.6415.1861-3.5166-.4788-7.6862-3.92-9.4758-3.8073-1.98-8.24-.4286-11.5208,1.854-4.6895,3.2631-8.3259,7.9572-11.5444,12.6106a152.0011,152.0011,0,0,0-10.212,17.4691c-2.7516,5.3934-5.2964,10.8925-7.6837,16.4563a96.7231,96.7231,0,0,0-3.7826,9.2443c-.0477.1539-.1165.3036-.1732.4547l1.8178.246c-.5742-11.3782-2.2086-22.8591-5.8886-33.6767-2.2412-6.5883-5.26-13.65-10.3411-18.5877-2.69-2.6138-6.8889-4.9553-10.37-2.3262-4.3235,3.2648-4.6082,10.4374-4.6108,15.3078-.0062,11.4314,2.8,22.9065,6.0062,33.8026q.8457,2.874,1.7628,5.7262l1.5469-.9a78.1814,78.1814,0,0,0-17.9411-12.7581c-4.6392-2.3384-9.7663-4.352-15.01-4.6293-3.0625-.1619-6.923.4284-8.42,3.5-1.8022,3.698.612,8.2588,2.58,11.3546,5.3894,8.4793,13.4329,15.3451,21.1448,21.621l.6544-1.58c-9.4256-.1211-20.485,1.233-28.092,7.3615-2.2991,1.8522-4.2765,4.375-4.5886,7.3987-.3244,3.1425,1.3663,5.99,3.58,8.082,4.3,4.0653,10.3075,6.1984,15.88,7.8079v-1.7849c-5.8275.9151-12.27,3.13-15.3108,8.6A15.3147,15.3147,0,0,0,479.2,873.1285a13.0981,13.0981,0,0,0,.626,2.2558l1.5468-.9a16.8029,16.8029,0,0,0-11.6462-5.372c-6.0549-.17-13.68,3.69-15.2558,9.9651a8.3291,8.3291,0,0,0-.1132,3.9959l1.3595-1.0452c-5.1095-2.2752-13.1493-3.854-17.2169,1.0873-1.9169,2.3287-2.4145,5.43-2.436,8.3615a.926.926,0,0,0,1.8509,0Z"/><path d="M558.9772,854.71a42.129,42.129,0,0,0-2.3774-5.9218c-1.5016-3.1061-3.4576-6.4356-6.432-8.3412a6.48,6.48,0,0,0-8.7438,1.3384c-2.0855,2.8622-1.407,6.9886-.5709,10.1691a38.8032,38.8032,0,0,0,2.9776,7.7935l1.0451-1.36c-4.1464-1.69-9.6664-2.4072-13.7205-.17-1.7042.94-2.8027,2.5535-2.1077,4.5187a10.7741,10.7741,0,0,0,3.7392,4.4355,29.2255,29.2255,0,0,0,3.6873,2.518v-1.5982c-3.6853,2.3968-5.97,6.8945-3.2152,10.8769.6731.9732,2.2781.0488,1.5982-.9342a4.84,4.84,0,0,1,.1406-6.0514,9.6328,9.6328,0,0,1,2.4106-2.2931.9357.9357,0,0,0,0-1.5982,26.82,26.82,0,0,1-3.4-2.2971c-1.1544-.9148-3.6383-2.7743-3.3262-4.52.2131-1.1916,1.9523-1.7972,2.9151-2.0928a13.0538,13.0538,0,0,1,5.0464-.3924,20.4286,20.4286,0,0,1,5.74,1.3834c.8092.33,1.3745-.7178,1.0451-1.36a37.2806,37.2806,0,0,1-2.1717-5.2779c-.9538-2.8745-1.9689-6.4279-.9679-9.421a4.51,4.51,0,0,1,6.7676-2.18c2.6687,1.6088,4.3959,4.669,5.744,7.3782a38.9984,38.9984,0,0,1,2.3915,5.8888c.3486,1.1353,2.1359.6511,1.7848-.4921Z"/><polygon class="cls-2" points="499.743 153.266 499.743 490.208 90.803 490.208 90.803 101.428 447.329 101.428 499.743 153.266"/><path d="M497.8916,153.2656v323.26c0,4.2987-.4143,8.8319,0,13.1163.0179.1852,0,.38,0,.5668l1.851-1.851H107.4033c-5.2478,0-10.6672-.3912-15.9047,0-.229.0172-.4652,0-.6953,0l1.851,1.851V117.185c0-4.97.42-10.1481,0-15.1052-.0182-.2139,0-.4365,0-.6516l-1.851,1.8509H432.8052c4.5915,0,9.3514.3627,13.9328,0,.1944-.0153.3958,0,.5912,0l-1.3088-.5421,17.6457,17.4518,28.297,27.986,6.4707,6.4c1.6956,1.677,4.3147-.9392,2.6176-2.6177l-31.8248-31.475-17.6444-17.4506c-1.5-1.4832-2.7828-3.4246-5.0051-3.4539-6.5074-.0855-13.0218,0-19.53,0H90.8033a1.8778,1.8778,0,0,0-1.8509,1.851V474.4517c0,5.0309-.1063,10.075,0,15.1052.0045.217,0,.4345,0,.6516a1.8778,1.8778,0,0,0,1.8509,1.8509H483.1426c5.298,0,10.6073.1006,15.9046,0,.2316-.0043.4637,0,.6954,0a1.8778,1.8778,0,0,0,1.8509-1.8509v-323.26c0-4.3673.1065-8.75,0-13.1162-.0046-.1887,0-.378,0-.5668A1.8521,1.8521,0,0,0,497.8916,153.2656Z"/><path class="cls-3" d="M353.1382,231.2558V166.5129l-1.8509,1.8509h82.1419a28.1655,28.1655,0,0,0,3.3834,0,1.2588,1.2588,0,0,1,.1492,0l-1.851-1.8509V274.1034c0,4.9458-.1848,9.9319,0,14.8753.0027.0718,0,.1441,0,.216a1.8521,1.8521,0,0,0,3.7019,0V181.6042c0-4.9458.1848-9.9319,0-14.8753-.0027-.0718,0-.1442,0-.216a1.8778,1.8778,0,0,0-1.8509-1.851h-75.11c-3.4592,0-6.9583-.1541-10.4149,0-.05.0023-.1,0-.1492,0a1.8779,1.8779,0,0,0-1.851,1.851v64.7429a1.8521,1.8521,0,0,0,3.7019,0Z"/><path class="cls-3" d="M353.1382,183.1031V148.0818a1.8521,1.8521,0,0,0-3.7019,0v35.0213a1.8521,1.8521,0,0,0,3.7019,0Z"/><path class="cls-3" d="M438.9579,183.1031l-.5044-30.668-.0716-4.3533c-.0391-2.38-3.7412-2.387-3.7019,0l.5044,30.668.0716,4.3533c.0391,2.38,3.7411,2.387,3.7019,0Z"/><path class="cls-3" d="M443.8734,164.6619H344.8578c-4.5465,0-9.1331-.1767-13.6772,0-.0656.0026-.1318,0-.1975,0a1.8521,1.8521,0,0,0,0,3.7019h99.0156c4.5465,0,9.1331.1768,13.6772,0,.0656-.0025.1318,0,.1975,0a1.8521,1.8521,0,0,0,0-3.7019Z"/><path class="cls-3" d="M436.3858,184.8209H351.1421a1.8521,1.8521,0,0,0,0,3.7019h85.2437a1.8521,1.8521,0,0,0,0-3.7019Z"/><path class="cls-3" d="M375.9089,196.34H351.1421a1.8521,1.8521,0,0,0,0,3.7019h24.7668a1.8521,1.8521,0,0,0,0-3.7019Z"/><path class="cls-3" d="M375.9089,207.86H351.1421a1.8521,1.8521,0,0,0,0,3.7019h24.7668a1.8521,1.8521,0,0,0,0-3.7019Z"/><polygon class="cls-3" points="408.163 213.702 408.163 361.767 253.803 361.767 253.803 262.234 408.163 213.702"/><path class="cls-3" d="M406.3123,213.7019v142.04c0,1.8974-.1741,3.8889,0,5.7807.0073.08,0,.1636,0,.244l1.8509-1.8509H260.1249c-1.9941,0-4.0764-.1731-6.0652,0-.0842.0073-.1719,0-.2566,0l1.8509,1.8509V266.3212a34.52,34.52,0,0,0,0-3.9147,1.5343,1.5343,0,0,1,0-.1729l-1.3589,1.7848,15.4177-4.8474,36.7742-11.562L351.19,233.5542l38.4409-12.086c6.25-1.9651,12.5656-3.791,18.7688-5.901.0845-.0288.1705-.0536.2557-.08,2.2648-.7121,1.2977-4.2871-.9841-3.57l-15.4177,4.8474-36.7742,11.562-44.7029,14.0548-38.4409,12.086c-6.25,1.9651-12.5654,3.7915-18.7688,5.901-.0845.0288-.1705.0537-.2557.08a1.899,1.899,0,0,0-1.3589,1.7849V349.53c0,4.0087-.1663,8.0576,0,12.0639.0024.0574,0,.1154,0,.1729a1.8779,1.8779,0,0,0,1.851,1.851H389.1983c6.2247,0,12.4857.1971,18.7082,0,.0854-.0027.1713,0,.2567,0a1.8779,1.8779,0,0,0,1.851-1.851V231.9484c0-5.9887.1992-12.0161,0-18.0025-.0027-.0811,0-.1628,0-.244A1.8521,1.8521,0,0,0,406.3123,213.7019Z"/><polygon class="cls-3" points="408.163 276.523 408.163 451.618 253.803 451.618 253.803 288.524 408.163 276.523"/><path class="cls-2" d="M406.3123,276.5233v167.99c0,2.2454-.1766,4.5725,0,6.8129.0076.0962,0,.1959,0,.2926l1.8509-1.851H260.1249c-1.9941,0-4.0764-.1731-6.0652,0-.0842.0073-.1719,0-.2566,0l1.8509,1.851V295.1671c0-2.0929.1941-4.2912,0-6.3776-.0081-.0871,0-.1782,0-.2658l-1.8509,1.8509,15.4519-1.2012,36.8333-2.8636,44.5156-3.4607,38.5837-3c6.2377-.4849,12.49-.8811,18.72-1.4554.0851-.0078.1705-.0132.2556-.02,2.36-.1835,2.38-3.8869,0-3.7019l-15.452,1.2012-36.8332,2.8636-44.5157,3.4607-38.5836,3c-6.2377.4849-12.49.8811-18.72,1.4554-.085.0078-.17.0132-.2555.02a1.89,1.89,0,0,0-1.851,1.851V431.6465c0,6.556-.2134,13.1525,0,19.7061.0029.0884,0,.1774,0,.2659a1.8778,1.8778,0,0,0,1.851,1.8509H389.1983c6.2247,0,12.4857.1971,18.7082,0,.0854-.0027.1713,0,.2567,0a1.8778,1.8778,0,0,0,1.851-1.8509v-167.99c0-2.2675.0646-4.5459,0-6.8129-.0028-.0973,0-.1951,0-.2925A1.8521,1.8521,0,0,0,406.3123,276.5233Z"/><path class="cls-1" d="M427.2517,258.4543l5.04-9.1085a94.44,94.44,0,0,0,8.08-19.4976c1.5138-5.2356,2.677-7.7029,4.0775-16.1057,4.0318-24.1908,29.3745-31.6784,33.9823-30.5265s9.634,10.3867,8.6395,13.8233c-4.3093,14.8921-7.79,31.0892-7.79,31.0892l-.9914,37.102-11.4338,26.16"/><path d="M428.85,259.3885c2.4556-4.438,5.0438-8.8326,7.2675-13.3932a99.5483,99.5483,0,0,0,6.0393-15.655c.97-3.3131,2.0893-6.5786,2.8728-9.9442,1.0041-4.3133,1.436-8.7262,3-12.896a32.2959,32.2959,0,0,1,5.3706-9.219,39.94,39.94,0,0,1,14.68-10.8844,34.7628,34.7628,0,0,1,6.3509-2.0814c.4157-.09.8333-.1622,1.2518-.2371.56-.1-.23.01.3071-.0434.2026-.02.4047-.0421.6078-.0556.3009-.02.6-.0247.9017-.0221.1358.0012.2708.0212.4061.0241.1235.0026-.437-.14-.0334.0039,3.0269,1.0767,5.0806,4.301,6.3934,7.1344a9.5786,9.5786,0,0,1,1.08,4.0148,22.4771,22.4771,0,0,1-.6934,2.6322q-.563,1.9978-1.1036,4.0021-3.2259,11.9445-5.8725,24.0405a40.9916,40.9916,0,0,0-.4154,7.64l-.8042,30.0953-.0184.6862.2527-.9342L466.6853,287.19l-1.4277,3.2665a1.9137,1.9137,0,0,0,.6641,2.5324,1.8629,1.8629,0,0,0,2.5324-.664l6.3638-14.56,3.9689-9.0807a11.71,11.71,0,0,0,1.3608-3.7155c.2771-5.38.2883-10.7871.4322-16.1719l.5093-19.06c.01-.36.2084-1.2269.0415-1.5528-.0532-.1039-.1605.7354-.0154.2093.1243-.45.2014-.92.3026-1.3754q1.5431-6.9492,3.2662-13.8571,1.228-4.9382,2.5549-9.851.6648-2.4505,1.3622-4.8919a8.0606,8.0606,0,0,0,.4013-3.1334,19.285,19.285,0,0,0-6.6683-11.9679,8.6,8.6,0,0,0-7.4965-1.8292,34.1488,34.1488,0,0,0-8.2246,2.5393,41.94,41.94,0,0,0-18.522,15.2586,36.6983,36.6983,0,0,0-5.3677,13.6227,121.1387,121.1387,0,0,1-3.5425,14.4635,111.8174,111.8174,0,0,1-7.1869,18.6056c-1.5285,2.9681-3.2,5.8671-4.8157,8.7878l-1.5247,2.7556c-1.1544,2.0861,2.0416,3.9556,3.1965,1.8684Z"/><path class="cls-1" d="M465.1843,199.6819l48.0747-25.06s7.16,2.0457,5.6258,9.7172c5.1143,4.0914,4.6029,8.1829,2.0457,11.7629,4.6029,3.58,5.6258,9.2058,1.5343,12.2744,4.0915,3.58,4.6029,9.2058-.5114,13.8087-4.2067,3.786-9.1118,7.7153-14.8015,9.828a39.2521,39.2521,0,0,0-23.3777,23.5961l-3.7583,10.5591L469.7716,289.087"/><path d="M511.3459,175.2094c.379.1449-.4706-.2408-.0563-.0233.2844.1493.581.2753.8647.4275a12.4547,12.4547,0,0,1,2.3058,1.5508,7.0322,7.0322,0,0,1,2.64,6.6824,1.8645,1.8645,0,0,0,.476,1.8009c1.5272,1.2561,3.1551,2.8313,3.3683,4.9128a6.9972,6.9972,0,0,1-1.612,4.6071,1.85,1.85,0,0,0,.2894,2.2431c3.054,2.449,5.2348,6.747,1.5343,9.6567a1.8593,1.8593,0,0,0,0,2.6176,7.1063,7.1063,0,0,1,2.6511,5.0539,8.0468,8.0468,0,0,1-2.8369,5.8356,45.9792,45.9792,0,0,1-13.1482,9.1888c-2.3043.998-4.6369,1.8342-6.8485,3.044a42.2367,42.2367,0,0,0-6.0379,4.0526,40.6911,40.6911,0,0,0-9.2383,10.4675c-3.2465,5.2726-4.99,11.3911-7.0539,17.19-.12.3386-.2683.6781-.3646,1.0244-.1244.4475.2793-.5889.0832-.1836-.2667.5513-.501,1.1209-.7509,1.68l-3.1543,7.057-6.2834,14.0574a1.9112,1.9112,0,0,0,.664,2.5324,1.8636,1.8636,0,0,0,2.5325-.664l5.478-12.2557c1.6784-3.7548,3.5968-7.4818,5.0354-11.3374,1.9881-5.3281,3.4547-10.9862,6.2617-15.9629A37.17,37.17,0,0,1,503.3305,235.74c2.313-1.2235,4.7872-2.0244,7.1462-3.14a43.5686,43.5686,0,0,0,8.0072-5.0845,34.7372,34.7372,0,0,0,6.7864-6.2431,10.36,10.36,0,0,0-1.4967-14.2052v2.6176c5.2452-4.1242,3.0035-11.253-1.5343-14.892l.29,2.243a10.2348,10.2348,0,0,0,2.0886-6.7727c-.2988-2.986-2.1711-5.38-4.4238-7.2332l.476,1.8008a10.688,10.688,0,0,0-3.2571-9.9808,15.6426,15.6426,0,0,0-5.0825-3.21c-2.227-.8519-3.1905,2.7257-.9841,3.57Z"/><path d="M466.1186,201.28l13.6773-7.13,21.7-11.3115,5.0418-2.6282c2.1133-1.1016.2437-4.2975-1.8684-3.1965l-13.6774,7.13-21.7,11.3116-5.0418,2.6281c-2.1133,1.1017-.2437,4.2975,1.8685,3.1965Z"/><polyline class="cls-1" points="193.106 787.634 190.446 832.911 211.757 851.342 202.542 890.508 137.854 846.013 136.291 774.082"/><path d="M191.2547,787.6339l-1.8639,31.733c-.2592,4.4129-.7254,8.8682-.7805,13.2895-.018,1.4414,1.1921,2.1387,2.176,2.99l6.5812,5.6918,13.0809,11.3132-.4761-1.8009-8.083,34.3532-1.1325,4.8129,2.7191-1.1062-21.8268-15.0137-34.823-23.9532-8.0376-5.5287.9168,1.5982-.5307-24.412-.8394-38.6133-.1937-8.9056c-.0517-2.3787-3.7537-2.3871-3.7019,0l.5751,26.4516.8573,39.4383.1054,4.846c.0241,1.1094-.0583,2.0653.985,2.8223,2.2561,1.6371,4.6007,3.1647,6.897,4.7442l32.9483,22.6637c8.1248,5.5887,16.1579,11.3494,24.3912,16.7777.1379.0909.2724.1873.4085.281A1.8634,1.8634,0,0,0,204.3265,891l8.0831-34.3531,1.1324-4.8129a1.85,1.85,0,0,0-.476-1.8009l-18.6572-16.136-2.6537-2.2951.5421,1.3088.8984-15.2956,1.4321-24.3818.3289-5.6c.14-2.38-3.5626-2.3717-3.7019,0Z"/><path class="cls-3" d="M137.4569,825.4235v66.1771a6.9713,6.9713,0,0,0,6.9713,6.9712h0a6.9714,6.9714,0,0,0,5.9992-3.4205l9.2812-15.6814,49.7447,19.1019,32.522-.4s11.0826-31.2676-29.7915-46.6832l-7.52,6.1428a27.1218,27.1218,0,0,1-25.3028,4.8658l-.6269-.1973a27.1217,27.1217,0,0,1-18.75-22.3622h0a13.7171,13.7171,0,0,0-10.36-11.5543Z"/><path d="M135.606,825.4235v55.5913c0,3.4566-.0242,6.9141,0,10.3706.042,5.9963,5.9523,10.6868,11.7977,8.514,3.8342-1.4253,5.4679-5.2432,7.4112-8.5266l6.0792-10.2713.4128-.6974-2.09.8506,11.7384,4.5075,22.7024,8.7178c4.952,1.9015,9.8739,3.9378,14.8735,5.7114a9.2453,9.2453,0,0,0,3.24.2028l10.1178-.1244c6.5643-.0808,13.1446-.0318,19.7061-.2425.1267-.004.2537-.0031.3805-.0047a1.9107,1.9107,0,0,0,1.7848-1.3589,31.73,31.73,0,0,0,1.3691-12.2143,36.7855,36.7855,0,0,0-11.7341-24.4866c-5.9083-5.5671-13.1805-9.3947-20.7193-12.2592a1.87,1.87,0,0,0-1.8009.4761c-3.1911,2.6068-6.29,5.5445-9.7783,7.7539a26.0067,26.0067,0,0,1-23.89,1.8567,25.4217,25.4217,0,0,1-14.6032-16.339c-.5835-2.0254-.6578-3.5662-1.0862-5.3886a15.087,15.087,0,0,0-2.37-5.2518,15.8868,15.8868,0,0,0-9.0451-6.2162c-4.0394-1.0285-8.1024-1.9708-12.1526-2.956-2.3142-.5629-3.3016,3.0059-.9841,3.57,3.9306.9562,7.8634,1.9041,11.792,2.8684a12.2774,12.2774,0,0,1,7.1933,4.6026c2.4845,3.4164,2.1182,6.9048,3.3956,10.7655a29.0959,29.0959,0,0,0,15.4549,17.31,29.98,29.98,0,0,0,25.3556-.0689c4.943-2.3638,9.1215-6.4459,13.3363-9.889l-1.8009.476c10.9072,4.1443,21.6085,10.8667,26.7952,21.7219a30.9235,30.9235,0,0,1,2.018,5.6333,29.5789,29.5789,0,0,1,.8591,4.9691,35.1818,35.1818,0,0,1,.0866,4.7881q-.05,1-.156,1.996c-.0159.1488-.0334.2974-.05.4461-.007.0611-.0719.56-.03.2449.0426-.317-.022.1528-.0335.2262-.0265.1685-.0515.3373-.0791.5057a22.7639,22.7639,0,0,1-.9115,3.875l1.7848-1.3589-16.8831.2078-11.1944.1377-3.4977.043a5.1725,5.1725,0,0,0-.807.01c-.3689.0661.3458.1214.3.048-.1307-.2117-1.0361-.3979-1.2582-.4832l-2.727-1.0472-8.8253-3.3889-22.6541-8.6992-9.2031-3.5339c-1.59-.6107-3.1779-1.3306-4.803-1.8444-.0752-.0237-.1484-.057-.2221-.0853a1.8621,1.8621,0,0,0-2.09.8506c-3.089,5.2192-6.0838,10.5073-9.2722,15.6661A5.18,5.18,0,0,1,142.13,896.18a5.2557,5.2557,0,0,1-2.8218-4.8229c-.0221-3.3232,0-6.6472,0-9.9705V844.33c0-6.1875.1636-12.4,0-18.5855-.0028-.1068,0-.214,0-.3209A1.8521,1.8521,0,0,0,135.606,825.4235Z"/><path class="cls-4" d="M216.5762,500.576c2.8295,38.5892-9.787,307.8478-9.787,307.8478l-85.2482.2966L103.9673,551.3173a126.9742,126.9742,0,0,1,9.1616-56.7323l21.4942-52.5325,73.4947-9.9035"/><path d="M214.7253,500.576c.4211,5.8045.4074,11.6488.4132,17.4651.0091,9.2465-.1327,18.4932-.3123,27.7378q-.3447,17.744-.8841,35.4837-.5871,20.16-1.2985,40.3167-.7329,21.074-1.5481,42.1449-.7993,20.7933-1.6555,41.5843-.7806,19.0119-1.5988,38.022-.6779,15.7632-1.3789,31.5253-.5015,11.2695-1.0155,22.5385c-.1581,3.46-.6841,7.1179-.4876,10.5807a4.4121,4.4121,0,0,1-.0209.4488l1.8509-1.8509-28.9283.1006-45.7056.159-10.6143.0369,1.851,1.851-.7777-11.3913-2.0455-29.9606-2.8819-42.2113L114.4,677.0144l-3.26-47.7555L108.337,588.21l-1.9132-28.0237c-.4562-6.682-1.0108-13.3547-.875-20.06a126.0894,126.0894,0,0,1,9.233-44.7235c1.4578-3.5982,2.94-7.1868,4.41-10.78l16.0554-39.24,1.161-2.8375-1.2928,1.2927L159.953,440.49l39.5813-5.3336,9.0756-1.223c2.35-.3167,1.3492-3.8841-.9841-3.57l-24.8378,3.347-39.5813,5.3336-9.0756,1.223c-.668.09-1.0671.7413-1.2928,1.2927l-13.213,32.2929c-5.7976,14.17-12.2073,28.19-15.2432,43.28-2.5808,12.8284-2.8425,25.7347-1.9556,38.7259l1.6238,23.7837,2.6184,38.3524,3.1982,46.8432,3.3206,48.6373,3.0335,44.4326,2.29,33.5493c.3762,5.5093.7145,11.0228,1.1286,16.5294.0183.2441.0333.4885.05.7328a1.8874,1.8874,0,0,0,1.8509,1.8509l28.9283-.1006,45.7057-.159,10.6142-.0369a1.8877,1.8877,0,0,0,1.851-1.851q.17-3.6267.3355-7.2536.4541-9.8858.8964-19.7721.6651-14.8434,1.309-29.6877.797-18.3661,1.5613-36.7337.8477-20.3871,1.6484-40.7761.8308-21.2072,1.5945-42.4169.7352-20.5321,1.3755-41.0675.5651-18.3748.9956-36.7536c.2242-9.9985.41-19.9987.4684-30,.0394-6.7491.0683-13.51-.2218-20.2548-.045-1.0448-.1-2.0892-.1758-3.1322-.1714-2.3622-3.8747-2.3809-3.7019,0Z"/><line class="cls-1" x1="208.6117" y1="779.0249" x2="120.1011" y2="780.7858"/><path d="M208.6117,778.0994l-8.825.1756-21.0664.4191-25.6081.5094-22.0511.4387c-3.571.0711-7.2438-.1-10.804.215-.0514.0045-.1043.0021-.156.0031a.9261.9261,0,0,0,0,1.851l8.825-.1756,21.0665-.4191,25.608-.51,22.0512-.4387c3.5709-.0711,7.2437.1,10.804-.215.0514-.0045.1043-.002.1559-.0031a.926.926,0,0,0,0-1.8509Z"/><polyline class="cls-1" points="239.759 787.634 237.1 832.911 258.411 851.342 249.195 890.508 184.508 846.013 182.944 774.082"/><path d="M237.9083,787.6339l-1.8638,31.733c-.2592,4.4129-.7254,8.8682-.7806,13.2895-.018,1.4414,1.1922,2.1387,2.1761,2.99l6.5811,5.6918L257.102,852.651l-.476-1.8009-8.0831,34.3532-1.1325,4.8129L250.13,888.91l-21.8268-15.0137L193.48,849.9431l-8.0376-5.5287.9167,1.5982-.5307-24.412-.8394-38.6133-.1936-8.9056c-.0517-2.3787-3.7538-2.3871-3.7019,0l.575,26.4516.8574,39.4383.1053,4.846c.0241,1.1094-.0583,2.0653.985,2.8223,2.2561,1.6371,4.6007,3.1647,6.8971,4.7442l32.9482,22.6637c8.1249,5.5887,16.1579,11.3494,24.3913,16.7777.1379.0909.2724.1873.4085.281A1.8633,1.8633,0,0,0,250.98,891l8.0831-34.3531,1.1325-4.8129a1.85,1.85,0,0,0-.4761-1.8009l-18.6571-16.136-2.6538-2.2951.5421,1.3088.8984-15.2956,1.4321-24.3818.3289-5.6c.14-2.38-3.5626-2.3717-3.7019,0Z"/><polyline class="cls-1" points="171.24 295.357 172.248 245.469 214.565 261.762 215.886 294.515"/><path d="M173.0913,295.3575l.34-16.8454.5423-26.8616.1248-6.1814-2.343,1.7849,14.2959,5.5041,22.7882,8.7738,5.2338,2.0151-1.3589-1.7848,1.1562,28.6667.1648,4.086c.0957,2.374,3.7981,2.3862,3.7019,0l-1.1562-28.6668-.1648-4.0859a1.9327,1.9327,0,0,0-1.3589-1.7849l-14.2958-5.5041-22.7883-8.7738-5.2337-2.0151a1.8655,1.8655,0,0,0-2.3431,1.7848l-.34,16.8454-.5423,26.8616-.1248,6.1814c-.0481,2.3831,3.6538,2.3829,3.7019,0Z"/><path class="cls-1" d="M207.5323,268.403a81.8156,81.8156,0,0,0,11.3278,1.6061,10.7517,10.7517,0,0,0,3.4837-.3134c16.1788-4.1936,22.6566-19.3612,24.7506-35.4647H248.64c5.0922.7175,7.0254-.5282,6.4375-3.7269-4.6126-5.0392-6.5548-7.8491-7.06-11.4883l-.1251-2.3576a163.5291,163.5291,0,0,0-3.24-28.0795L163.42,185.6712s-10.5516,17.3843-9.7759,25.3907c1.3356,13.7879,14.77,23.6615,18.4806,41.4378"/><path d="M207.04,270.1878c2.5834.5525,5.19.972,7.8127,1.2858a22.3017,22.3017,0,0,0,7.7691.0576,29.1255,29.1255,0,0,0,10.7329-5.0376c6.2328-4.6856,10.2185-11.4906,12.6565-18.8008a72.3485,72.3485,0,0,0,2.9338-13.4618l-1.8509,1.851c3.1142,0,7.6028,1.1013,9.42-2.3089a4.8788,4.8788,0,0,0,.5108-2.4148,5.0694,5.0694,0,0,0-.1633-1.3463,7.479,7.479,0,0,0-1.7509-2.2308,29.15,29.15,0,0,1-4.1744-5.6362,10.3061,10.3061,0,0,1-.8167-2.0672,9.909,9.909,0,0,1-.2785-1.2892c.0673.4982-.0053-.3723-.0117-.4934-.114-2.1486-.1666-4.2994-.2926-6.4476-.317-5.4018-.9114-10.7876-1.7293-16.1361-.39-2.55-.81-5.1057-1.371-7.6248a1.8809,1.8809,0,0,0-1.7849-1.3589l-27.5906-.9876-43.6382-1.5619L163.42,183.82a1.8542,1.8542,0,0,0-1.5983.9167c-1.3679,2.2571-2.6238,4.5888-3.8218,6.94a65.9643,65.9643,0,0,0-5.5628,13.7219,17.2829,17.2829,0,0,0-.5941,6.125,29.0072,29.0072,0,0,0,2.0008,7.7007c2.1016,5.136,5.1925,9.7508,8.0789,14.4637,3.708,6.0545,6.9239,12.31,8.4172,19.3041.4971,2.3286,4.0665,1.3432,3.57-.9841a59.3417,59.3417,0,0,0-7.0908-17.3507c-2.7327-4.6953-5.8733-9.1675-8.3033-14.0351-1.9444-3.8949-3.6439-8.5347-2.8167-12.8544a51.6775,51.6775,0,0,1,4.8228-12.8773c1.3885-2.8147,2.8693-5.6,4.4967-8.2848l-1.5982.9167,27.5907.9876,43.6381,1.5619,10.0033.3581-1.7848-1.3589a140.6571,140.6571,0,0,1,2.6919,18.8872c.2406,2.8982.3558,5.7959.482,8.7a23.0642,23.0642,0,0,0,.3257,3.6364c.8365,4.0873,3.7328,7.4255,6.4314,10.4468.1288.1441.506.6674.6374.7067-.3253-.0973-.0545-.7306-.1079.0249-.0212.3-.0681.5534-.01.4317-.0025.0053-.29.4014-.15.2652.01-.01-.0825.05-.1148.0669a2.6356,2.6356,0,0,1-.9256.2883c-1.6384.255-3.3765-.145-5.0328-.145a1.9074,1.9074,0,0,0-1.851,1.8509c-1.795,13.59-7.4233,28.5948-21.6588,33.1773a13.6,13.6,0,0,1-3.4077.7661,26.5134,26.5134,0,0,1-4.1624-.2714,77.01,77.01,0,0,1-7.99-1.2848c-2.3234-.4969-3.3163,3.0709-.9841,3.57Z"/><path d="M210.5754,224.4366a42.7166,42.7166,0,0,0-1.8742-5.008c-1.1044-2.5346-2.5039-5.2981-4.7057-7.0557a5.5662,5.5662,0,0,0-4.8607-1.29,1.8514,1.8514,0,1,0,.9841,3.57c.0557-.0132.12-.0218.1753-.0391.2593-.0808-.2.0432-.2309.0277.0635.0319.269-.0161.3444-.0149.0548.0009.1154.01.1706.0076.2629-.0116-.2124-.0186-.2383-.0365a1.8652,1.8652,0,0,0,.4172.0959c.0537.016.11.0409.1648.0539.2565.0611-.1767-.0623-.1972-.09.048.064.2492.1182.3221.1577.1081.0586.2137.122.317.1887.0528.0341.1037.0711.1564.1053.2416.1568.0524.1672-.0657-.0579.0982.1871.445.3847.6006.54.2146.2139.4177.4393.6119.6718.059.0707.1157.1433.1746.2141.1053.1262.1715.092-.0832-.1087a1.8243,1.8243,0,0,1,.2692.3683q.2868.4052.5493.8268a27.9218,27.9218,0,0,1,1.8361,3.5253c.0612.1381.12.2772.181.4155.1258.2862-.0434-.1077-.0565-.1354.0309.065.0566.1349.0839.2017.1186.29.2362.581.35.8734q.2769.7132.53,1.4357c.1785.51.3527,1.0228.5049,1.5414a1.8514,1.8514,0,1,0,3.57-.9841Z"/><path d="M241.9431,206.6282a15.4526,15.4526,0,0,0-5.3566-2.1558,17.5187,17.5187,0,0,0-12.3282,1.9089c-2.0826,1.1577-.2178,4.3562,1.8684,3.1965a13.793,13.793,0,0,1,9.8451-1.4511,16.2866,16.2866,0,0,1,1.8133.5514c.1425.0525.2827.1117.4254.1635.3359.1222-.1841-.0852.0131.0042.2089.0947.4182.1879.6241.2891a9.8785,9.8785,0,0,1,1.227.69,1.8513,1.8513,0,1,0,1.8684-3.1965Z"/><path class="cls-5" d="M170.8315,296.1063l-41.26,1.2476a30.9762,30.9762,0,0,0-28.0021,19.9117L90.8033,345.4582V222.7458L47.03,222.7007,32.8019,251.1826a74.0165,74.0165,0,0,0-7.2529,42.0743L43.2256,406.1227a57.2788,57.2788,0,0,0,56.0537,45.4958H153.233"/><path d="M170.8315,294.2554l-15.9257.4815-22.7254.6871a50.5242,50.5242,0,0,0-7.9287.6712,32.8765,32.8765,0,0,0-16.3715,8.4377,33.783,33.783,0,0,0-8.22,12.5647q-1.4707,3.84-2.9338,7.6827L92.1981,336.64c-1.0029,2.6263-2.1545,5.241-3.0227,7.9155-.0451.1389-.1048.2745-.1569.411l3.6358.492V237.8409c0-4.948.1782-9.9333,0-14.879-.0026-.0719,0-.1442,0-.2161a1.878,1.878,0,0,0-1.851-1.8509L76.0391,220.88l-23.5618-.0244L47.03,220.85a1.8331,1.8331,0,0,0-1.5982.9168L32.9482,246.7559A96.1841,96.1841,0,0,0,25.8954,264.03a73.2172,73.2172,0,0,0-2.1241,29.7651c.7422,5.0594,1.5828,10.1063,2.374,15.1581l5.09,32.4994L36.8636,377.39l3.9278,25.0794c.2156,1.3762.3948,2.7641.6475,4.1342a56.247,56.247,0,0,0,9.951,22.4129,59.69,59.69,0,0,0,43.6444,24.2971c3.18.2345,6.385.1561,9.5714.1561H153.233a1.8521,1.8521,0,0,0,0-3.7019H100.3409a56.4307,56.4307,0,0,1-38.3994-14.46,54.4028,54.4028,0,0,1-17.1589-31.1316l-3.2294-20.62-5.3811-34.3586-5.3654-34.2583-3.24-20.689a71.6432,71.6432,0,0,1,6.9056-42.2778q6.4086-12.861,12.8427-25.7093l1.313-2.6284-1.5983.9167,14.7642.0153,23.5619.0243,5.4477.0056-1.8509-1.851V330.3631c0,4.948-.1783,9.9334,0,14.8791.0025.0718,0,.1442,0,.216,0,2.1987,2.92,2.3671,3.6357.4921L99.03,329.0819l3.661-9.5873a34.5229,34.5229,0,0,1,4.7411-8.9752,29.2677,29.2677,0,0,1,14.3656-9.9975,34.4941,34.4941,0,0,1,9.3345-1.3643l21.0632-.6368c6.0985-.1844,12.2143-.2484,18.3082-.5536.1093-.0055.2189-.0066.3283-.01,2.3767-.0719,2.3868-3.7741,0-3.7019Z"/><circle cx="235.4806" cy="217.7348" r="2.8443"/><path d="M231.7111,217.69a3.8269,3.8269,0,0,0,2.4623,3.5764,3.7679,3.7679,0,0,0,4.1427-1.0521,3.7676,3.7676,0,1,0-6.605-2.5243.9334.9334,0,0,0,.9255.9255.944.944,0,0,0,.9255-.9255c.0023-.0791.0112-.1581.0134-.237-.005.1811-.012.0656-.0007.0147.0279-.1251.0542-.2488.0938-.3709.0115-.0354.109-.2634.0156-.06.0209-.0455.0421-.0906.065-.1351a3.1047,3.1047,0,0,1,.2349-.38c-.1134.1592-.018.0228.0181-.0146.0429-.0444.083-.0912.1268-.1348.0349-.0348.0709-.0688.1076-.1017.029-.026.223-.1657.0432-.0413a3.4139,3.4139,0,0,1,.3143-.198c.0439-.0238.089-.0446.1331-.0677.1547-.0811-.1308.029.0924-.0332.1228-.0343.2424-.0726.368-.0968.056-.0107.2234-.0173.0221-.0054.0655-.0039.1305-.01.1961-.0115s.1325-.0014.1988.0015c.0013,0,.26.0182.1118.0043-.1446-.0136.1017.02.1066.0209q.1123.0239.2226.0563c.0729.0216.1438.0476.2151.0735-.0329-.012-.1658-.0822-.0141-.0036a3.609,3.609,0,0,1,.3246.1835c.0025.0017.1982.1443.087.0577s.0752.0677.0774.07a3.33,3.33,0,0,1,.3047.3226c-.12-.1417-.034-.0453-.0119-.0089.0387.0635.0816.124.1189.1886q.0372.0645.071.1311c.0185.0364.101.2608.0283.0529a3.56,3.56,0,0,1,.111.3621c.0117.05.0208.1.0309.15.0366.1821-.0064-.1438.0066.1016.0064.12-.002.2374-.0028.3566-.0017.2509.0446-.1791-.0059.0637-.0105.05-.02.1007-.0317.1507a3.3252,3.3252,0,0,1-.1129.3628c.0755-.2078-.0118.0179-.03.0528q-.0513.1-.11.1948c-.0318.0513-.0761.1011-.1031.1547-.06.1184.139-.1453-.0152.017-.0856.09-.1662.1811-.2589.2642-.0029.0026-.1909.1519-.078.0687s-.0856.0554-.0876.0567a2.8843,2.8843,0,0,1-.3931.213c.0339-.0152.173-.06.0115-.01-.0726.0222-.1438.0472-.2173.0666-.0493.013-.099.0245-.1488.0349-.0065.0013-.25.03-.1057.02.1486-.0109-.109.0033-.1107.0034-.0662.0026-.1323.0026-.1985.0007s-.1314-.0077-.1972-.0123c.2171.0151-.0092-.0032-.061-.0142a3.22,3.22,0,0,1-.4378-.13c.1849.0671.0277.0127-.0193-.0131-.0765-.042-.154-.0809-.2283-.1269-.0423-.0261-.0823-.0553-.1244-.0815q-.1259-.0915.01.0108-.0573-.047-.1123-.0966c-.0918-.0833-.1733-.175-.2574-.2657-.1609-.1733.0875.1544-.0354-.048-.0387-.0637-.0816-.124-.1189-.1886s-.0694-.1319-.1041-.1982c-.0886-.1695.0359.1446-.0211-.0566-.042-.1479-.0839-.2906-.116-.4415-.0115-.054,0-.1621.0017.0156-.0009-.105-.0125-.21-.0123-.3153a.9255.9255,0,0,0-1.851,0Z"/><path d="M193.97,232.2354a15.4688,15.4688,0,0,0,15.6182,7.0689,1.8621,1.8621,0,0,0,1.2927-2.2769,1.901,1.901,0,0,0-2.2769-1.2928c.211-.0287-.4427.0376-.5193.0431q-.39.0284-.7814.0351a13.3758,13.3758,0,0,1-1.4885-.0573q-.1785-.017-.3566-.0388.2989.0406-.0312-.0089c-.2256-.0428-.4515-.0805-.6759-.13q-.5679-.125-1.1229-.3009-.3062-.097-.6072-.2092c-.0753-.028-.6886-.293-.2816-.1076-.365-.1663-.7251-.34-1.0765-.5334q-.5-.2754-.9756-.59-.2279-.1506-.45-.31c-.0411-.0294-.47-.35-.2365-.1707s-.1735-.1412-.2126-.1734q-.1895-.1562-.3738-.3183-.3445-.303-.671-.6255-.53-.5233-1.0087-1.0952c-.16-.1913-.3991-.701-.1-.1127a3.2518,3.2518,0,0,0-.26-.3537c-.0715-.1018-.143-.2042-.2083-.31a1.8513,1.8513,0,0,0-3.1965,1.8684Z"/><line class="cls-3" x1="286.8573" y1="285.954" x2="291.8171" y2="448.7386"/><path class="cls-2" d="M285.0064,285.954l.4936,16.201,1.1853,38.903,1.4337,47.0542,1.2387,40.6551c.2,6.5609.2356,13.151.6,19.7054.0049.0885.0054.1774.0081.2659.0724,2.3767,3.7746,2.3869,3.7019,0l-.4936-16.2011-1.1854-38.9029L290.5555,346.58l-1.2387-40.6551c-.2-6.5609-.2356-13.151-.6-19.7054-.005-.0884-.0054-.1773-.0081-.2658-.0724-2.3767-3.7747-2.3869-3.7019,0Z"/><line class="cls-3" x1="328.9339" y1="281.429" x2="332.9568" y2="451.0425"/><path class="cls-2" d="M327.0829,281.429l.4011,16.91.9628,40.5949,1.1583,48.833,1.0062,42.4239c.1624,6.8495.1508,13.7292.4879,20.573.0046.0926.0044.1857.0066.2784.0564,2.3782,3.7586,2.387,3.7019,0l-.401-16.91-.9629-40.5949-1.1582-48.833L331.2794,302.28c-.1625-6.8494-.1508-13.7292-.488-20.573-.0045-.0926-.0044-.1856-.0066-.2784-.0564-2.3782-3.7585-2.387-3.7019,0Z"/><line class="cls-3" x1="369.8278" y1="281.429" x2="373.8507" y2="451.0425"/><path class="cls-2" d="M367.9769,281.429l.401,16.91.9629,40.5949,1.1582,48.833,1.0062,42.4239c.1625,6.8495.1508,13.7292.488,20.573.0045.0926.0044.1857.0066.2784.0564,2.3782,3.7585,2.387,3.7019,0l-.4011-16.91-.9628-40.5949-1.1583-48.833L372.1733,302.28c-.1624-6.8494-.1508-13.7292-.4879-20.573-.0046-.0926-.0044-.1856-.0066-.2784-.0564-2.3782-3.7586-2.387-3.7019,0Z"/><path class="cls-2" d="M254.2849,314.66H387.7306c6.1367,0,12.3094.1949,18.4439,0,.0868-.0027.174,0,.2608,0a1.8521,1.8521,0,0,0,0-3.7019H272.99c-6.1367,0-12.3094-.1948-18.4439,0-.0867.0028-.174,0-.2608,0a1.8521,1.8521,0,0,0,0,3.7019Z"/><path class="cls-2" d="M254.2849,352.6745H387.7306c6.1367,0,12.3094.1949,18.4439,0,.0868-.0027.174,0,.2608,0a1.8521,1.8521,0,0,0,0-3.7019H272.99c-6.1367,0-12.3094-.1949-18.4439,0-.0867.0028-.174,0-.2608,0a1.8521,1.8521,0,0,0,0,3.7019Z"/><path class="cls-2" d="M254.2849,390.6886H387.7306c6.1367,0,12.3094.1949,18.4439,0,.0868-.0028.174,0,.2608,0a1.8521,1.8521,0,0,0,0-3.7019H272.99c-6.1367,0-12.3094-.1949-18.4439,0-.0867.0027-.174,0-.2608,0a1.8521,1.8521,0,0,0,0,3.7019Z"/><path class="cls-2" d="M254.2849,428.7027H387.7306c6.1367,0,12.3094.1948,18.4439,0,.0868-.0028.174,0,.2608,0a1.8521,1.8521,0,0,0,0-3.7019H272.99c-6.1367,0-12.3094-.1949-18.4439,0-.0867.0027-.174,0-.2608,0a1.8521,1.8521,0,0,0,0,3.7019Z"/><path class="cls-3" d="M430.0181,415.5826c-.1089-3.42.0043-6.86.219-10.2735.3791-6.0293,1.038-12.3619,3.3324-18.0045a18.1562,18.1562,0,0,1,1.7174-3.2091,7.951,7.951,0,0,1,1.9452-1.9365,6.35,6.35,0,0,1,.6639-.3627c-.3323.1553.1531-.0567.28-.0917.1419-.0392.8427-.1209.3424-.0951a4.9263,4.9263,0,0,1,.6677.0041c-.518-.0431.065.03.2121.0782.389.1277-.2257-.17.23.0962.159.0929.3157.186.4678.29-.3534-.2421.2455.225.3469.3266a6.8361,6.8361,0,0,1,.471.5252c-.2152-.2655.1405.2026.2057.3a12.4351,12.4351,0,0,1,.8984,1.6177,21.4974,21.4974,0,0,1,1.1945,3.613,42.0592,42.0592,0,0,1,1.08,9.8837c.0351,8.4486-1.58,17.4113-6.0495,24.6929-1.1279,1.8376,1.3921,3.64,2.907,2.2431a78.6027,78.6027,0,0,1,10.2489-8.3052,23.5132,23.5132,0,0,1,3.59-1.9938c-.2694.1141.3433-.128.3953-.1464.2017-.0713.4053-.1384.6115-.1959.1854-.0517.3741-.0875.56-.1356.5216-.1346-.23,0,.2536-.0285.1459-.0087.29.0046.4351.0062-.5391-.0059-.2087-.0172-.0168.016.4388.0761-.2844-.1726-.0063-.005.31.1867-.3587-.2978-.027-.0187.1933.1626-.3085-.4113-.03-.0188.2069.2912-.1214-.4115-.0242-.05.0448.1667.0739.6208.0329.0092a3.6347,3.6347,0,0,1,.0194.4618q-.0133.2232-.0276.4464c-.0176.2663.0885-.4865.0078-.0756-.0162.0827-.0275.1668-.0477.2486-.1007.4067-.2029.8074-.34,1.2041-.0671.1938-.14.3854-.2157.576-.0255.0644-.1384.3214-.0005.0044-.0443.1018-.0894.2039-.1367.3042-.2282.4834-.4693.9593-.7311,1.4254a30.0244,30.0244,0,0,1-5.0736,6.5338,1.868,1.868,0,0,0,.8168,3.0936c2.0081.517,4.3988,1.1448,5.86,2.7294a2.417,2.417,0,0,1,.5953,1.0933,2.4591,2.4591,0,0,1-.0369.9566c-.039.1283-.3036.8715-.125.4564a6.6883,6.6883,0,0,1-.3222.64c-.1238.2193-.2613.4291-.4012.6382-.06.09-.1259.1765-.1891.2645-.2546.3545.258-.3052-.0107.01a9.8946,9.8946,0,0,1-1.0037,1.0616c-1.3076,1.1416-.1615,3.0463,1.3088,3.16.3394.0262-.6213-.1587-.1083-.01.2651.0771.5379.1225.8023.2073.1187.0381.6395.2378.4145.1436-.2063-.0863.3619.1773.4931.2481.2185.118.4295.2475.638.3821a2.1641,2.1641,0,0,1,.4834.359c2.7623,2.42,3.4638,6.377,3.49,10.066.0167,2.3811,3.7186,2.3865,3.7019,0-.0316-4.5036-.9811-9.5931-4.5739-12.6837a9.5258,9.5258,0,0,0-5.3407-2.4146l1.3089,3.16a9.2873,9.2873,0,0,0,3.1365-5.4581c.7025-5.1916-5.0683-7.5317-9.137-8.579l.8167,3.0936a35.025,35.025,0,0,0,5.4648-6.9552,13.75,13.75,0,0,0,2.1818-6.2212,3.8572,3.8572,0,0,0-2.8151-4.0889c-2.3382-.5726-4.918.7515-6.88,1.8652-4.6464,2.6373-8.7563,6.3-12.6643,9.9026l2.9071,2.2431c4.4151-7.1929,6.2255-15.9174,6.5192-24.2694a51.5368,51.5368,0,0,0-.8068-11.4574,20.6768,20.6768,0,0,0-3.0305-8.0986c-1.4651-2.0595-3.6143-3.5156-6.2318-3.0929-2.6053.4207-4.6352,2.4421-6.0195,4.5671-3.5454,5.4421-4.4171,12.6541-5.0335,18.968a109.33,109.33,0,0,0-.5208,14.06c.0757,2.3764,3.7779,2.3868,3.7019,0Z"/><path class="cls-3" d="M184.1106,825.4235v66.1771a6.9712,6.9712,0,0,0,6.9712,6.9712h0a6.9712,6.9712,0,0,0,5.9992-3.4205l9.2813-15.6814,49.7446,19.1019,32.522-.4s11.0827-31.2676-29.7915-46.6832l-7.52,6.1428a27.1216,27.1216,0,0,1-25.3027,4.8658l-.6269-.1973a27.1218,27.1218,0,0,1-18.75-22.3622h0a13.7171,13.7171,0,0,0-10.36-11.5543Z"/><path d="M182.26,825.4235v55.5913c0,3.4566-.0242,6.9141,0,10.3706.0421,5.9963,5.9523,10.6868,11.7977,8.514,3.8343-1.4253,5.4679-5.2432,7.4112-8.5266l6.0793-10.2713.4127-.6974-2.09.8506,11.7384,4.5075,22.7025,8.7178c4.9519,1.9015,9.8738,3.9378,14.8734,5.7114a9.2453,9.2453,0,0,0,3.24.2028l10.1179-.1244c6.5642-.0808,13.1445-.0318,19.706-.2425.1267-.004.2538-.0031.38-.0047a1.9108,1.9108,0,0,0,1.7849-1.3589,31.73,31.73,0,0,0,1.3691-12.2143,36.7861,36.7861,0,0,0-11.7342-24.4866c-5.9083-5.5671-13.18-9.3947-20.7193-12.2592a1.87,1.87,0,0,0-1.8008.4761c-3.1911,2.6068-6.29,5.5445-9.7784,7.7539a26.0067,26.0067,0,0,1-23.89,1.8567,25.4217,25.4217,0,0,1-14.6032-16.339c-.5835-2.0254-.6578-3.5662-1.0861-5.3886a15.0891,15.0891,0,0,0-2.37-5.2518,15.8865,15.8865,0,0,0-9.0451-6.2162c-4.0393-1.0285-8.1024-1.9708-12.1526-2.956-2.3141-.5629-3.3015,3.0059-.9841,3.57,3.9307.9562,7.8634,1.9041,11.7921,2.8684a12.2772,12.2772,0,0,1,7.1932,4.6026c2.4846,3.4164,2.1182,6.9048,3.3956,10.7655a29.0961,29.0961,0,0,0,15.455,17.31,29.98,29.98,0,0,0,25.3556-.0689c4.9429-2.3638,9.1214-6.4459,13.3362-9.889l-1.8009.476c10.9073,4.1443,21.6086,10.8667,26.7952,21.7219a30.9237,30.9237,0,0,1,2.0181,5.6333,29.5781,29.5781,0,0,1,.859,4.9691,35.1657,35.1657,0,0,1,.0867,4.7881q-.05,1-.1561,1.996c-.0159.1488-.0334.2974-.05.4461-.007.0611-.0719.56-.0295.2449.0426-.317-.022.1528-.0335.2262-.0264.1685-.0514.3373-.0791.5057a22.7449,22.7449,0,0,1-.9115,3.875l1.7848-1.3589-16.883.2078-11.1945.1377-3.4977.043a5.1727,5.1727,0,0,0-.807.01c-.3689.0661.3458.1214.3.048-.1307-.2117-1.0361-.3979-1.2583-.4832l-2.727-1.0472-8.8253-3.3889-22.6541-8.6992-9.2031-3.5339c-1.59-.6107-3.1779-1.3306-4.803-1.8444-.0751-.0237-.1484-.057-.2221-.0853a1.8621,1.8621,0,0,0-2.09.8506c-3.089,5.2192-6.0838,10.5073-9.2721,15.6661a5.18,5.18,0,0,1-6.7086,1.9786,5.2557,5.2557,0,0,1-2.8218-4.8229c-.022-3.3232,0-6.6472,0-9.9705V844.33c0-6.1875.1636-12.4,0-18.5855-.0028-.1068,0-.214,0-.3209A1.8521,1.8521,0,0,0,182.26,825.4235Z"/><path class="cls-4" d="M173.5619,432.149l73.4947,9.9035,21.4942,52.5325a126.9728,126.9728,0,0,1,9.1616,56.7323L260.1387,808.72l-85.2482-.2966S161.6981,607.13,164.5276,568.5405c0,0-22.4629-40.8939-4.0318-78.332"/><path d="M173.07,433.9338l24.8377,3.3469,39.5813,5.3337,9.0757,1.2229-1.2928-1.2927,13.1435,32.1232c5.774,14.1117,12.1833,28.0909,15.2439,43.1084,2.5824,12.6708,2.7568,25.4187,1.8809,38.2486l-1.6294,23.865-2.6244,38.44-3.188,46.6958-3.32,48.6327-3.0212,44.2506L259.46,791.5581c-.3725,5.4563-.9946,10.9605-1.1217,16.43-.0057.244-.0334.4892-.05.7328l1.8509-1.851-28.9283-.1006-45.7056-.159-10.6143-.0369,1.851,1.8509q-.975-14.8791-1.8765-29.763-2.1245-34.5673-4.013-69.1487c-1.4158-26.0989-2.7308-52.2055-3.7249-78.3243-.7254-19.0566-1.6125-38.2164-1.0121-57.2893.0709-2.2537.7055-4.9256-.3439-6.9683a89.3937,89.3937,0,0,1-4.7279-11.233c-5.5675-15.8407-7.9072-33.2989-4.132-49.821a68.61,68.61,0,0,1,5.1828-14.7335c1.0375-2.1338-2.1538-4.0128-3.1965-1.8684-8.3633,17.2009-9.1634,36.6594-4.9747,55.1107a112.0211,112.0211,0,0,0,6.0011,18.6388c.7223,1.7162,1.4784,3.4188,2.305,5.0876a7.6156,7.6156,0,0,0,.5808,1.14c.0134.0181.0752.1882.1024.1917-.5189-.0661-.1157-1.238-.2864-.1637a65.1549,65.1549,0,0,0-.3112,9.1283c-.0549,3.9773-.0419,7.9554-.0008,11.9328.1076,10.4152.4075,20.8284.7636,31.2377.8858,25.9,2.154,51.7863,3.5226,77.6644q1.9094,36.1053,4.1217,72.1939c.7383,12.1495,1.3378,24.3232,2.2835,36.459.0137.176.0229.3523.0345.5284a1.8884,1.8884,0,0,0,1.8509,1.851l28.9283.1006,45.7057.159,10.6142.0369a1.8912,1.8912,0,0,0,1.851-1.8509l.7834-11.4745,2.05-30.02,2.8843-42.246,3.3-48.3412,3.2585-47.7282,2.8067-41.1092,1.9005-27.8375c.4833-7.0781,1.0432-14.1277.8242-21.2352a128.6959,128.6959,0,0,0-9.1977-43.986c-1.4746-3.6626-2.9887-7.31-4.4839-10.9638l-16.1132-39.3811-1.1609-2.8375c-.2257-.5514-.6248-1.2027-1.2928-1.2927l-24.8378-3.347L183.13,431.5871l-9.0756-1.223c-2.3295-.3139-3.3378,3.2525-.9841,3.57Z"/><path class="cls-5" d="M170.8315,296.1063h73.6312l33.5311,57.0211S254.2992,419.3528,250.9232,455.65L136.881,453.9223c-10.7567-47.394-21.9418-94.1667-16.1272-127.8655"/><path d="M170.8315,297.9573h73.6312l-1.5983-.9168,11.3427,19.2888,18.0634,30.7174,4.1251,7.015-.1866-1.4263c-2.9334,8.2014-5.6482,16.4861-8.2873,24.7859-5.3246,16.746-10.27,33.6512-14.15,50.7956a216.6372,216.6372,0,0,0-4.7,27.4333l1.851-1.8509-11.3849-.1725-27.2061-.4122-32.8971-.4985-28.5436-.4324-9.34-.1416a40.47,40.47,0,0,0-4.4752-.0678,1.7489,1.7489,0,0,1-.1955-.0029l1.7848,1.3589c-4.0819-17.9816-8.2708-35.9491-11.68-54.0738-3.0447-16.1862-5.5635-32.584-5.9309-49.0778a124.6423,124.6423,0,0,1,1.484-23.73c.3976-2.33-3.1692-3.3314-3.57-.9841-2.5364,14.8672-1.8554,30.11-.1593,45.0305,2.0082,17.6672,5.4878,35.14,9.2546,52.5047,2.2679,10.455,4.6636,20.8818,7.0318,31.3144a1.8774,1.8774,0,0,0,1.7849,1.3589l11.3848.1725,27.2061.4122,32.8972.4984,28.5436.4325c4.5884.07,9.2268.3445,13.815.2093.0649-.0019.1305.002.1955.003a1.8953,1.8953,0,0,0,1.8509-1.851c1.1782-12.5134,4.0353-24.8829,7.114-37.0456,3.2276-12.7509,6.9312-25.3807,10.8834-37.9246q3.86-12.252,8.0688-24.3922c.4358-1.251,1.3812-2.8684.7115-4.1631-.8177-1.5806-1.8179-3.0913-2.72-4.6246L263.3965,324.652l-13.8807-23.6047c-1.0876-1.85-2.141-3.7247-3.265-5.5523-.864-1.4049-2.1055-1.24-3.53-1.24h-71.89a1.8521,1.8521,0,0,0,0,3.7019Z"/><polyline class="cls-3" points="424.447 260.432 435.304 243.682 479.808 269.329 471.9 285.147"/><path d="M426.0456,261.3663l10.8565-16.75-2.5325.664,15.0255,8.6589,23.9617,13.8087,5.5172,3.1794-.664-2.5324-7.9087,15.8174c-1.0624,2.1248,2.13,4.0018,3.1965,1.8684l7.9086-15.8174a1.889,1.889,0,0,0-.664-2.5324l-15.0254-8.6589-23.9617-13.8087-5.5172-3.1795a1.89,1.89,0,0,0-2.5325.664l-10.8565,16.75c-1.3,2.0051,1.9039,3.8627,3.1965,1.8684Z"/><path class="cls-5" d="M207.6381,295.1749l41.263-.11a49.2392,49.2392,0,0,1,22.56,5.4046l69.758,35.6926,33.3043,18.1861,17.4024-47.4065a124.9489,124.9489,0,0,1,36.122-51.932l2.3308-1.9917L475.36,280.2039l6.2428,27.6a35.7759,35.7759,0,0,1-4.1493,26.1863L432.081,410.2457a61.0621,61.0621,0,0,1-77.71,21.5461l-36.52-17.6765-86.6724-43.95"/><path d="M207.6381,297.0259l36.47-.0976c1.585-.0042,3.17-.0139,4.755-.0127a47.5322,47.5322,0,0,1,19.4588,4.0915c3.0832,1.39,6.0666,3.0358,9.0756,4.5754l39.032,19.9712c8.0089,4.0979,16.1057,8.06,24.0378,12.3055,10.742,5.7493,21.39,11.68,32.0837,17.52l1.0389.5673a1.8812,1.8812,0,0,0,2.7191-1.1062l11.5736-31.5283,5.4887-14.9519a126.8953,126.8953,0,0,1,12.8642-25.7947,133.2079,133.2079,0,0,1,25.4526-28.2385l-2.243.29,15.2285,9.204,24.1561,14.6,5.596,3.3822-.8506-1.1062,3.393,15,2.1615,9.5559a55.6413,55.6413,0,0,1,1.3568,7.2034,35.7463,35.7463,0,0,1-5.3411,21.7934l-6.0154,10.11-21.2387,35.6953L431.397,407.7749a59.1181,59.1181,0,0,1-68.874,25.3245,113.9316,113.9316,0,0,1-14.0191-6.1977c-9.9059-4.7948-19.8622-9.4979-29.7222-14.3865-6.69-3.3167-13.3215-6.7551-19.9808-10.1319l-38.4324-19.4884L233.504,369.2724l-1.3911-.7054c-2.12-1.075-3.996,2.1176-1.8685,3.1965l26.0884,13.2289,44.8307,22.7329c6.7429,3.4192,13.4633,6.88,20.2682,10.1736l21.9493,10.624c5.7094,2.7635,11.4051,5.846,17.419,7.8991a63.41,63.41,0,0,0,67.36-17.9788,78.7254,78.7254,0,0,0,8.3546-12.0287l10.0631-16.9126,25.3317-42.5743,6.7941-11.4188a38.7061,38.7061,0,0,0,4.5938-28.5945q-2.3754-10.5674-4.779-21.1284l-1.0023-4.4313a5.057,5.057,0,0,0-.8476-2.46,18.3876,18.3876,0,0,0-3.5775-2.2252l-38.575-23.3145-3.2028-1.9358a1.9033,1.9033,0,0,0-2.2431.2894,138.4214,138.4214,0,0,0-23.2467,24.9064,127.8557,127.8557,0,0,0-15.7485,30.015q-6.2668,17.0414-12.5141,34.09l-4.8218,13.1353,2.719-1.1062-31.5426-17.2241c-6.9336-3.7861-14.0526-7.2508-21.0846-10.8488l-40.345-20.6431q-4.9513-2.5333-9.9026-5.0668a54.3334,54.3334,0,0,0-25.1948-5.7491l-38.6532.1033-1.097.003c-2.3817.0063-2.3862,3.7083,0,3.7019Z"/><path class="cls-3" d="M230.083,296.1056H158.5608a19.5708,19.5708,0,0,1,19.3561-16.68H192.361a19.5706,19.5706,0,0,1,8.8144,2.0973Z"/><path d="M230.083,294.2547H158.5608l1.7848,2.343A17.9207,17.9207,0,0,1,176.51,281.327c4.7678-.3371,9.6353-.05,14.4124-.05a20.4506,20.4506,0,0,1,9.3214,1.8458c.9585.4729,1.909.9629,2.8632,1.4443l14.7889,7.46,11.2533,5.6767c2.1218,1.07,3.9982-2.1222,1.8684-3.1965l-25.5367-12.8819c-1.1167-.5633-2.2294-1.1358-3.3506-1.69a23.3051,23.3051,0,0,0-10.5175-2.36c-4.7927,0-9.6122-.1585-14.402.0126a21.5885,21.5885,0,0,0-20.4344,18.026,1.8823,1.8823,0,0,0,1.7848,2.343H230.083A1.8521,1.8521,0,0,0,230.083,294.2547Z"/><path d="M234.6619,242.1179a11.0492,11.0492,0,0,0,6.4689,4.9445,9.4674,9.4674,0,0,0,4.1309.0652,1.8612,1.8612,0,0,0,1.2928-2.2769,1.8992,1.8992,0,0,0-2.2769-1.2928q-.1206.024-.2419.0442-.3069.0472.1349-.0153a1.7524,1.7524,0,0,0-.465.04,7.08,7.08,0,0,1-.892-.0082c-.18-.0131-.5853-.15-.039.0068-.1309-.0375-.2765-.0461-.41-.0745a7.1349,7.1349,0,0,1-.78-.2131c-.1246-.0417-.2467-.0892-.37-.1348-.3054-.113.4451.2045-.0009-.0047q-.34-.1593-.6639-.35-.3115-.1827-.6073-.3907c-.0953-.0669-.1867-.1394-.2821-.206.51.3558.1563.12.0423.0258a12.3469,12.3469,0,0,1-1.5712-1.6124c-.1743-.2082.3392.4532.1334.1726-.0355-.0484-.0718-.0962-.1069-.1448-.0564-.0778-.1118-.1564-.1655-.2362-.0458-.0681-.0915-.1366-.1337-.2071a1.8513,1.8513,0,1,0-3.1965,1.8684Z"/><line class="cls-1" x1="173.068" y1="779.0249" x2="261.5787" y2="780.7858"/><path d="M173.068,779.95l8.8251.1756,21.0664.4191,25.608.51,22.0512.4387,7.319.1456c1.1475.0228,2.3383.1405,3.485.0693.0513-.0031.1044.0021.156.0032a.9261.9261,0,0,0,0-1.851l-8.8251-.1756-21.0664-.4191-25.6081-.51-22.0511-.4387-7.319-.1456c-1.1475-.0228-2.3383-.14-3.485-.0693-.0514.0032-.1045-.0021-.156-.0031a.926.926,0,0,0,0,1.8509Z"/><path d="M348.15,342.0545l14.8366,8.439,23.6725,13.4648,5.4666,3.1094c2.0739,1.18,3.9413-2.0174,1.8684-3.1965l-14.8366-8.439-23.6725-13.4647-5.4666-3.1094c-2.0739-1.18-3.9413,2.0174-1.8684,3.1964Z"/><polyline class="cls-4" points="128.817 448.739 125.938 430.308 258.411 430.308 253.266 448.739"/><path d="M130.6022,448.2465l-2.88-18.431-1.7849,2.343H252.9757a51.4174,51.4174,0,0,0,5.2117,0,2.19,2.19,0,0,1,.2234,0l-1.7848-2.343-5.1446,18.431c-.6415,2.2983,2.9291,3.2792,3.57.9842L260.1957,430.8a1.87,1.87,0,0,0-1.7849-2.343H142.1974c-5.3324,0-10.7066-.1958-16.0365,0-.0742.0027-.149,0-.2234,0a1.8815,1.8815,0,0,0-1.7848,2.343l2.88,18.4311a1.8661,1.8661,0,0,0,2.2769,1.2927,1.8945,1.8945,0,0,0,1.2928-2.2769Z"/><path d="M167.4074,291.9515H112.69l1.851,1.8509V199.8789a33.6139,33.6139,0,0,0,0-3.8276,1.4225,1.4225,0,0,1,0-.1639l-1.851,1.851h54.7172l-1.8509-1.851V281.732c0,3.9559-.1678,7.9532,0,11.9066.0023.0544,0,.1093,0,.1638a1.8521,1.8521,0,0,0,3.7019,0V207.9578c0-3.9559.1678-7.9531,0-11.9065-.0023-.0544,0-.1094,0-.1639a1.8778,1.8778,0,0,0-1.851-1.8509H112.69a1.8778,1.8778,0,0,0-1.851,1.8509V281.732c0,3.9559-.1678,7.9532,0,11.9066.0024.0544,0,.1093,0,.1638a1.8779,1.8779,0,0,0,1.851,1.851h54.7172A1.8521,1.8521,0,0,0,167.4074,291.9515Z"/><rect class="cls-3" x="120.7538" y="442.9789" width="140.5369" height="16.1272" rx="8.0636"/><path d="M253.2271,457.2551H129.5243a8.6661,8.6661,0,0,1-2.5728-.2841,6.2781,6.2781,0,0,1-3.0821-9.7037c1.8789-2.451,4.5164-2.4375,7.2269-2.4375H251.4371c.5592,0,1.1191-.0078,1.6783,0a6.2131,6.2131,0,1,1,.1117,12.4253c-2.3787.0507-2.3871,3.7528,0,3.7019a9.9176,9.9176,0,0,0,2.5276-19.5038,24.3463,24.3463,0,0,0-5.9933-.3253H147.5585c-6.1591,0-12.3193-.0335-18.4784,0a10.2816,10.2816,0,0,0-7.0384,2.6782,9.9828,9.9828,0,0,0-1.3688,12.88,10.1565,10.1565,0,0,0,8.2739,4.2709c.5867.0081,1.1741,0,1.7608,0h122.52A1.8521,1.8521,0,0,0,253.2271,457.2551Z"/><rect class="cls-4" x="138.6089" y="439.5231" width="9.7915" height="24.1908"/><path d="M146.5494,439.5231v24.1907a1.8521,1.8521,0,0,0,3.7019,0V439.5231a1.8521,1.8521,0,0,0-3.7019,0Z"/><path d="M140.46,463.7138V439.5231a1.8521,1.8521,0,0,0-3.7019,0v24.1907a1.8521,1.8521,0,0,0,3.7019,0Z"/><rect class="cls-4" x="178.3509" y="439.5231" width="9.7915" height="24.1908"/><path d="M186.2914,439.5231v24.1907a1.8521,1.8521,0,0,0,3.7019,0V439.5231a1.8521,1.8521,0,0,0-3.7019,0Z"/><path d="M180.2018,463.7138V439.5231a1.8521,1.8521,0,0,0-3.7019,0v24.1907a1.8521,1.8521,0,0,0,3.7019,0Z"/><rect class="cls-4" x="218.0929" y="439.5231" width="9.7915" height="24.1908"/><path d="M226.0334,439.5231v24.1907a1.8521,1.8521,0,0,0,3.7019,0V439.5231a1.8521,1.8521,0,0,0-3.7019,0Z"/><path d="M219.9438,463.7138V439.5231a1.8521,1.8521,0,0,0-3.7019,0v24.1907a1.8521,1.8521,0,0,0,3.7019,0Z"/><path class="cls-6" d="M145.9967,188.8455c4.8142-20.46,26.8865-34.7106,38.7156-34.293l40.7786,1.4395c10.7351.3789,20.4008,11.7631,25.1832,21.3815l1.245,2.504a8.6093,8.6093,0,0,1-7.857,12.4411l-15.1134-.26A11.0337,11.0337,0,0,0,216.6,202.7543l-.5018,21.0781c-.2866-9.7207-8.3755-22.6541-15.342-22.4487s-12.2514,2.71-11.9574,12.6838c.1947,6.6019,6.0671,17.946,10.01,20.8443,0,0,8.5683,42.9952-13.6971,77.8977L91.2359,295.3582S126.947,269.8069,145.9967,188.8455Z"/><path d="M147.7816,189.3375c2.2174-9.2259,7.938-17.1761,15.1246-23.2344,5.4971-4.6341,12.8973-9.1336,20.0744-9.662a101.0413,101.0413,0,0,1,10.8563.2844l20.1078.71c3.8421.1357,7.6872.2375,11.528.407,4.5443.2005,8.7152,2.53,12.1183,5.4185a46.4,46.4,0,0,1,9.98,12.2468c.9,1.5582,1.6894,3.1717,2.49,4.7817a7.1026,7.1026,0,0,1,.7483,4.9157,6.92,6.92,0,0,1-7.1615,5.2556c-5-.0711-10.0563.0375-15.0449-.2889a13.0431,13.0431,0,0,0-12.0547,6.2638c-1.5127,2.5362-1.7745,5.2816-1.8426,8.1424l-.4234,17.7835-.035,1.471h3.7019a31.6272,31.6272,0,0,0-5.9037-16.59c-2.7946-3.9664-6.7846-7.9627-11.9986-7.68-4.5232.2454-9.2179,1.6982-11.4657,5.9719-2.5633,4.8737-1.8351,10.86-.0757,15.859a47.5742,47.5742,0,0,0,4.2588,8.9963,21.5543,21.5543,0,0,0,5.11,6.12l-.8506-1.1062c.0757.3813.14.7651.2029,1.1487q.114.6912.2141,1.3846.0641.44.1237.88c-.0452-.3315-.0173-.1342.0078.0646s.0509.3966.0755.5949c.4946,3.99.7747,8.0075.8823,12.0262a120.24,120.24,0,0,1-4.5137,36.97,91.65,91.65,0,0,1-10.5032,23.4026l2.09-.8507-9.3576-1.74-22.3477-4.1544-27.1567-5.0484-23.3922-4.3485-7.7607-1.4427a32.6828,32.6828,0,0,0-3.6953-.687,1.4524,1.4524,0,0,1-.1654-.0307l.4421,3.3831a41.776,41.776,0,0,0,4.0234-3.3915,100.7757,100.7757,0,0,0,9.5857-10.3851,160.0625,160.0625,0,0,0,13.2154-19.0677,220.8714,220.8714,0,0,0,14.3283-29.0087,296.2774,296.2774,0,0,0,13.03-39.9189q.7394-2.9173,1.4284-5.8471c.5467-2.3168-3.0219-3.3055-3.57-.9841A309.7237,309.7237,0,0,1,131.628,229.43a223.6056,223.6056,0,0,1-14.0014,29.6723,165.3587,165.3587,0,0,1-13.0342,19.6657,108.0556,108.0556,0,0,1-10.0243,11.2406c-1.0075.97-2.04,1.9168-3.1091,2.8184-.3165.2668-.6395.5249-.96.786-.4257.3462.3973-.3025-.1333.1007-.0209.0159-.0422.0311-.0635.0464-1.1591.8307-1.2709,3.0646.4422,3.3831l9.3576,1.74,22.3477,4.1544,27.1567,5.0484,23.3922,4.3485c3.8169.71,7.6281,1.4815,11.4561,2.13.0552.0093.11.02.1653.0307a1.9306,1.9306,0,0,0,2.09-.8506,100.1584,100.1584,0,0,0,13.8746-37.5725,131.6388,131.6388,0,0,0,1.3525-30.6557c-.2153-2.9778-.5339-5.9492-.9765-8.9019-.0954-.6369-.1686-1.293-.3154-1.921-.2815-1.2045-1.313-1.6816-2.1446-2.6173a30.8882,30.8882,0,0,1-4.1906-6.5082,38.44,38.44,0,0,1-3.1025-8c-1.029-4.0495-1.1547-10.1223,2.8163-12.6841a11.9551,11.9551,0,0,1,5.743-1.6025,7.282,7.282,0,0,1,5.43,1.8266c4.3566,3.54,7.1978,9.2376,8.4757,14.6137a21.1524,21.1524,0,0,1,.5753,4.1112,1.8521,1.8521,0,0,0,3.7019,0l.3787-15.9061c.0462-1.9409-.0277-3.9284.1609-5.8635a9.2605,9.2605,0,0,1,8.7488-8.2272c2.4474-.0831,4.9656.13,7.4163.1723l8.9008.153a10.7307,10.7307,0,0,0,9.5318-4.92,10.3661,10.3661,0,0,0,1.53-6.5822,15.7042,15.7042,0,0,0-1.8846-5.2957c-4.4321-8.9137-11.1965-17.9977-20.7263-21.8175-4.4-1.7635-9.3347-1.5043-13.9956-1.6689-11.0655-.3906-22.1315-.8657-33.2-1.1719-6.97-.1929-13.9389,3.2173-19.573,7.0288-7.9291,5.3641-14.7879,12.808-18.6479,21.634a41.7877,41.7877,0,0,0-2.3775,6.9856C143.6554,190.6686,147.2242,191.6566,147.7816,189.3375Z"/><path class="cls-6" d="M184.85,154.4888l68.4574,1.0455c11.244.1938,19.0255,16.7991,14.7526,27.2015,0,0-1.71,9.1185-13.1431,16.34.6017.6018,4.2123-9.0265,3.0088-13.2389a37.43,37.43,0,0,1-19.8583,12.0354s2.8748-5.0067,2.9418-9.4237"/><path d="M184.85,156.34l13.8935.2122,28.3874.4335,22.9417.35a31.7707,31.7707,0,0,1,4.5233.1539c5.5032.8923,9.4508,6.0462,11.3011,10.9722a22.0166,22.0166,0,0,1,1.4816,8.7094,24.0222,24.0222,0,0,1-1.1992,5.4783,24.8774,24.8774,0,0,1-7.251,11.0563,35.0346,35.0346,0,0,1-4.9457,3.7714,1.8759,1.8759,0,0,0,0,3.1964c2.7059,1.825,4.2192-3.7133,4.6962-5.2421.9747-3.1237,1.8832-6.8378,1.0317-10.087a1.8652,1.8652,0,0,0-3.0937-.8168c-4.8342,5.417-11.7062,10.3148-19.0416,11.5593l2.09,2.7191a23.0429,23.0429,0,0,0,3.1946-10.3579c.0783-2.3828-3.6237-2.38-3.7019,0a19.02,19.02,0,0,1-2.6891,8.49,1.875,1.875,0,0,0,2.09,2.719,29.3206,29.3206,0,0,0,6.9863-2.368,41.1666,41.1666,0,0,0,13.6887-10.1434l-3.0936-.8167c.5575,2.1271-.0912,4.7448-.67,6.88a29.4633,29.4633,0,0,1-1.0794,3.2883,9.1873,9.1873,0,0,1-.4416.9571,2.6716,2.6716,0,0,0-.2025.35q-.176.2562.1132-.1364-.3626.3545.632-.3506h.9841l.3748.16v3.1964c5.6349-3.604,10.5332-8.5368,13.115-14.7862a24.53,24.53,0,0,0,2-11.9881c-.686-6.1994-3.5155-12.5787-8.4241-16.5843A15.8307,15.8307,0,0,0,252.46,153.67l-19.852-.3032-29.7872-.4549c-5.8878-.09-11.8156-.39-17.7038-.27-.0888.0018-.1781-.0028-.2669-.0041-2.383-.0364-2.3838,3.6655,0,3.7019Z"/><path class="cls-1" d="M69.78,211.8024H90.8033V195.0872l13.5686-9.4886a7.5117,7.5117,0,0,0,3.1489-7.0876h0a7.5117,7.5117,0,0,0-10.0087-6.1321l-12.3915,4.482a5.7767,5.7767,0,0,1-7.524-3.8619l0-.0006"/><path d="M69.78,213.6533H90.8033a1.8778,1.8778,0,0,0,1.851-1.8509V195.0872l-.9168,1.5982,7.6976-5.383,4.649-3.251a13.8179,13.8179,0,0,0,3.7239-3.3505c3.9583-5.733.13-13.7185-6.6632-14.5472a11.3466,11.3466,0,0,0-5.3409.88l-5.56,2.0109c-1.7824.6448-3.561,1.3017-5.3477,1.9343-2.2474.7958-4.8091.0274-5.5153-2.4728-.6466-2.289-4.2195-1.3163-3.57.9841a7.7123,7.7123,0,0,0,9.8068,5.1533c1.8449-.6182,3.6647-1.3256,5.4943-1.9873,2.2192-.8027,4.4339-1.6195,6.6581-2.4083,2.957-1.0487,6.35-.01,7.5639,3.0909a4.7087,4.7087,0,0,1,.3721,2.6693,5.7356,5.7356,0,0,1-1.0953,2.8241,7.605,7.605,0,0,1-1.85,1.6406l-6.1085,4.2716-6.1085,4.2717c-.7805.5458-1.49,1.0057-1.5925,2.0733-.0485.5065,0,1.0416,0,1.55v15.1632l1.8509-1.851H69.78a1.8521,1.8521,0,0,0,0,3.7019Z"/><line class="cls-1" x1="95.4013" y1="333.4172" x2="76.98" y2="388.8376"/><path d="M93.6165,332.9252l-6.2284,18.7381-9.9223,29.8512-2.2706,6.8311c-.7532,2.2659,2.8206,3.2375,3.57.9841l6.2285-18.7382L94.9156,340.74l2.2706-6.8311c.7531-2.2659-2.8207-3.2375-3.57-.9841Z"/><path d="M447.3292,101.4282l-.121,39.4092a12.6562,12.6562,0,0,0,12.3763,12.692l40.1581.8881Z"/><path d="M445.4783,101.4282l-.051,16.5983-.0665,21.6341a15.8166,15.8166,0,0,0,3.2741,10.3823,14.8671,14.8671,0,0,0,11.4846,5.3493l19.9174.44c6.4468.1425,12.9218.4777,19.37.4283.1116-.0008.2236.005.3352.0075a1.8709,1.8709,0,0,0,1.3088-3.16l-17.7448-17.94-28.2416-28.552-6.4269-6.4975c-1.6779-1.6963-4.2955.9214-2.6177,2.6176l17.7448,17.94,28.2417,28.552,6.4269,6.4975,1.3088-3.16-15.8754-.3511-22.0665-.488c-2.6481-.0586-5.1387-.1686-7.5122-1.5948a11.0859,11.0859,0,0,1-5.2277-9.8422l.06-19.5318c.0194-6.3215.2057-12.6676.0583-18.9878-.0026-.1141.0007-.2286.0011-.3427C449.1875,99.0459,445.4856,99.0426,445.4783,101.4282Z"/><rect class="cls-3" x="47.0295" y="211.8024" width="43.7738" height="10.9434"/><path d="M90.8033,220.8949H47.03l1.851,1.8509V211.8024l-1.851,1.8509H90.8033l-1.8509-1.8509v10.9434a1.8521,1.8521,0,0,0,3.7019,0V211.8024a1.8779,1.8779,0,0,0-1.851-1.851H47.03a1.8778,1.8778,0,0,0-1.8509,1.851v10.9434a1.8778,1.8778,0,0,0,1.8509,1.851H90.8033A1.8521,1.8521,0,0,0,90.8033,220.8949Z"/><path class="cls-3" d="M410.0142,227.9978V186.6719a1.8521,1.8521,0,0,0-3.7019,0v41.3259a1.8521,1.8521,0,0,0,3.7019,0Z"/><line class="cls-3" x1="245.7395" y1="264.4279" x2="427.1703" y2="207.4068"/><path class="cls-3" d="M246.2315,266.2128l4.851-1.5246,13.2016-4.1491,19.5262-6.1368,23.8241-7.4876,26.096-8.2016,26.3413-8.2787,24.56-7.7189,20.7529-6.5223L420.253,211.52c2.3684-.7443,4.7562-1.4447,7.11-2.2345.0991-.0333.2-.0628.2994-.0941,2.265-.7119,1.2978-4.2869-.9841-3.57l-4.8509,1.5246-13.2016,4.149L389.1,217.4325,365.2753,224.92l-26.096,8.2015L312.8381,241.4l-24.56,7.7189-20.7529,6.5224-14.8682,4.6729c-2.3683.7443-4.7561,1.4447-7.11,2.2345-.0992.0333-.2.0627-.2995.0941-2.2649.7118-1.2977,4.2868.9841,3.57Z"/><path class="cls-3" d="M255.56,274.0635V248.3008a1.8521,1.8521,0,0,0-3.7019,0v25.7627a1.8521,1.8521,0,0,0,3.7019,0Z"/><path d="M249.1953,142.4452h37.4381l-1.5983-.9168,4.9265,10.7122,11.8309,25.7253,14.3127,31.1218,12.3718,26.9015,4.0759,8.8628c.6389,1.3892,1.2016,2.8575,1.9324,4.2017.0315.058.0557.1212.0833.1813.9943,2.1619,4.1861.2832,3.1965-1.8685l-4.9264-10.7121L321.0078,210.929l-14.3127-31.1218-12.3718-26.9015-4.076-8.8628c-.6388-1.3891-1.2016-2.8574-1.9323-4.2016-.0315-.058-.0557-.1212-.0834-.1813a1.8209,1.8209,0,0,0-1.5982-.9167H249.1953a1.8521,1.8521,0,0,0,0,3.7019Z"/><rect x="194.4781" y="127.3469" width="54.7172" height="23.0388"/><path d="M249.1953,148.5348H194.4781l1.8509,1.8509V127.3469l-1.8509,1.8509h54.7172l-1.851-1.8509v23.0388a1.8521,1.8521,0,0,0,3.7019,0V127.3469a1.8778,1.8778,0,0,0-1.8509-1.851H194.4781a1.8779,1.8779,0,0,0-1.851,1.851v23.0388a1.8779,1.8779,0,0,0,1.851,1.851h54.7172A1.8521,1.8521,0,0,0,249.1953,148.5348Z"/><rect x="377.0608" y="122.7391" width="20.519" height="8.6396"/><path d="M397.58,129.5277h-20.519l1.851,1.851v-8.64l-1.851,1.851H397.58l-1.851-1.851v8.64a1.8521,1.8521,0,0,0,3.7019,0v-8.64a1.8778,1.8778,0,0,0-1.8509-1.8509h-20.519a1.8778,1.8778,0,0,0-1.8509,1.8509v8.64a1.8778,1.8778,0,0,0,1.8509,1.8509H397.58A1.8521,1.8521,0,0,0,397.58,129.5277Z"/><path d="M106.5546,134.6827a64.88,64.88,0,0,0,11.6062-4.4485c2.9822-1.5023,6.1014-4.563,4.57-8.2158-1.3019-3.106-5.3567-3.4585-7.8867-1.681-2.78,1.953-3.1988,5.8305-1.8617,8.7576a8.4255,8.4255,0,0,0,8.4156,4.539,11.5558,11.5558,0,0,0,8.5113-5.3492c.89-1.3172,2.0986-3.2494,1.5214-4.8858-.6114-1.7333-2.6133-2.0625-4.1741-1.53-2.8555.975-4.1653,4.2727-3.6188,7.0835.7,3.6012,4.52,5.5087,7.9359,5.36,4.193-.1832,7.47-2.9683,10.2552-5.8438l-2.6176-2.6176a4.3658,4.3658,0,0,0,.1008,5.6828c1.6987,2.1207,4.3939,2.2412,6.8793,1.7363a48.7687,48.7687,0,0,1,7.9264-1.3362,30.4524,30.4524,0,0,1,8.1773.797c2.317.5455,3.3058-3.0231.9841-3.57a34.2549,34.2549,0,0,0-12.6131-.6079c-2.0612.2866-4.0591,1.036-6.1165,1.2646a2.6818,2.6818,0,0,1-2.2636-.4788,2.8253,2.8253,0,0,1-.4571-.8706c1.4394-1.818-.9159-4.3745-2.6176-2.6176-2.472,2.5521-5.9336,5.84-9.8257,4.4725a2.8943,2.8943,0,0,1-2.1809-2.8452,2.8256,2.8256,0,0,1,.6021-1.6713c.155-.1757.3541-.2369.5116-.3912.7236-.7084.167,1.329-.3569-.6527v-.9841a8.339,8.339,0,0,1-2.9009,4.4823,6.7559,6.7559,0,0,1-4.4043,1.7031,4.8307,4.8307,0,0,1-3.9935-1.84,3.9159,3.9159,0,0,1-.3217-4.0585c.437-.7462,2.0034-1.7022,2.8269-.88,1.0357,1.0344-.76,2.6165-1.5129,3.0987-3.5874,2.2961-8.0153,3.6829-12.0848,4.8278-2.29.6442-1.3169,4.217.9841,3.57Z"/><path d="M113.5542,149.0688H139.97a1.8521,1.8521,0,0,0,0-3.7019H113.5542a1.8521,1.8521,0,0,0,0,3.7019Z"/><path d="M113.7376,158.7163h26.4158a1.8521,1.8521,0,0,0,0-3.7019H113.7376a1.8521,1.8521,0,0,0,0,3.7019Z"/><path d="M113.921,168.3638h26.4158a1.8521,1.8521,0,0,0,0-3.7019H113.921a1.8521,1.8521,0,0,0,0,3.7019Z"/><path d="M400.1,129.1978h8.0636l-1.8509-1.8509v32.2543a1.8521,1.8521,0,0,0,3.7019,0V127.3469a1.8779,1.8779,0,0,0-1.851-1.851H400.1a1.8521,1.8521,0,0,0,0,3.7019Z"/><path d="M544.345,427.8128h80.5165a.926.926,0,0,0,0-1.8509H544.345a.926.926,0,0,0,0,1.8509Z"/><path d="M544.345,462.364h80.5165a.9261.9261,0,0,0,0-1.851H544.345a.9261.9261,0,0,0,0,1.851Z"/><path d="M544.345,496.9151h80.5165a.9261.9261,0,0,0,0-1.851H544.345a.9261.9261,0,0,0,0,1.851Z"/><path d="M544.345,531.4662h80.5165a.9261.9261,0,0,0,0-1.851H544.345a.9261.9261,0,0,0,0,1.851Z"/><path class="cls-3" d="M421.004,441.0867a12.9208,12.9208,0,0,1,.8835-1.5855c.1483-.2314.3064-.4554.4645-.68.0311-.0442.0664-.0857.0966-.13.1312-.1949-.2456.2912-.0882.1139.1111-.125.2115-.26.3221-.3859a8.2686,8.2686,0,0,1,.5877-.6067c.109-.101.23-.1908.3375-.293.1687-.161-.3155.1967-.1114.0887.0776-.041.1517-.1059.2256-.1529.12-.076.2557-.1332.3725-.2124.2516-.1708-.3823.11-.0073.0016a4.0134,4.0134,0,0,0,.3992-.11c.2085-.0866-.412.0054-.1853.0214a2.4489,2.4489,0,0,0,.26-.0109,1.1729,1.1729,0,0,1,.2108.01c.0169.0344-.5032-.1307-.1716-.0174a2.7117,2.7117,0,0,0,.38.1107c.2224.0375-.3009-.1823-.1119-.0433.0662.0487.1508.08.2223.1219.057.0337.1116.07.1678.1052.4008.248-.1761-.2145.1231.0943.12.1242.385.5114.1618.1259a1.2486,1.2486,0,0,0,.1.1537c.0924.1128.0444.2583.0406.0378-.004-.2346-.0175-.0652.0067.04a1.3076,1.3076,0,0,0,.0522.21c.0823.1916-.0732-.243-.0305-.2286a1.6234,1.6234,0,0,1,.0008.316c.026.296.1152-.3958-.0077-.022-.0433.1314-.096.2764-.13.41-.0558.2219.1888-.3289.0563-.1418-.0308.0436-.0465.1014-.0739.1475-.0946.1583-.1806.32-.2827.474-.03.0459-.0633.09-.0934.1362-.16.2443-.0042.0584.0618-.0686a2.2838,2.2838,0,0,1-.3387.4027c-.1776.1987-.3642.3892-.5575.5726-.1517.144-.3076.2838-.4682.4178-.0494.0412-.1032.0795-.1506.1231-.1862.1712.3758-.2884.2952-.2276a1.8849,1.8849,0,0,0-.7574,2.3114,1.8584,1.8584,0,0,0,2.1836,1.0717c.2155-.0533.4345-.094.6532-.1315a2.3863,2.3863,0,0,0,.3287-.0519c-.1609.0529-.4607.0522-.1156.0172.286-.029.5714-.0562.8588-.0678a9.1183,9.1183,0,0,1,.9382.0078,1.8433,1.8433,0,0,0,.3572.031q-.4417-.0638-.1381-.0163.1167.02.2324.0447c.1526.033.3.08.45.12q.1092.0353.216.0768-.4-.175-.1332-.0487c.0949.0676.3186.1243.3779.23-.2067-.3672-.202-.0815-.0069.0382q.1385.1554-.1151-.1593a2.2259,2.2259,0,0,1,.1212.1913q.13.2577-.0325-.1123a2.0252,2.0252,0,0,1,.069.2205c.05.3273.0375-.4653-.0162.0276q.0805-.4914.021-.2019a1.7169,1.7169,0,0,1-.0575.1843q.1948-.4365.0635-.1791-.0482.0855-.1038.1663c-.0032-.001.3548-.3708.0374-.0637-.0978.0946-.2038.1852-.299.282-.21.2136.3748-.231-.0432.0223-.2325.1409-.46.2831-.7038.4049-.0843.0422-.17.0807-.2552.122-.4264.2083.325-.1143.0515-.0193-.2192.076-.4323.1668-.6556.2313a1.8514,1.8514,0,0,0,.9841,3.57c1.8586-.5374,4.1321-1.7794,4.572-3.8315a4.02,4.02,0,0,0-2.042-4.2671,7.4291,7.4291,0,0,0-3.9464-.7706,13.76,13.76,0,0,0-2.6526.3636l1.4263,3.3831c2.2451-1.694,4.7439-4.8568,2.9161-7.7158a5.1159,5.1159,0,0,0-5.4579-2.2873,7.8384,7.8384,0,0,0-4.0663,3.18,13.43,13.43,0,0,0-1.4772,2.44,1.8965,1.8965,0,0,0,.664,2.5325,1.8731,1.8731,0,0,0,2.5325-.6641Z"/></svg>