<svg id="Layer_1" data-name="Layer 1" xmlns="http://www.w3.org/2000/svg" width="1000" height="1000" viewBox="0 0 1000 1000"><defs><style>.cls-1{fill:#fff;}.cls-2{fill:#d34aa2;}.cls-3{fill:#fc7272;}.cls-4{fill:#389b48;}.cls-5{fill:#ffc41f;}.cls-6{fill:#458dc9;}.cls-7{fill:#fc7f3a;}</style></defs><path class="cls-1" d="M797.6977,919.654,89.7331,740.2383,175.7873,370.616,581.31,144.2427a31.6294,31.6294,0,0,1,41.4167,9.6056L887.2062,535.6128Z"/><path d="M798.25,917.65l-18.8874-4.7865-51.6518-13.09-76.1266-19.2924-92.8578-23.5325L456.6318,831.0755,353.964,805.0569l-95.7283-24.26-80.9085-20.5042-58.2084-14.7514L100.99,740.9471c-3.07-.7781-6.3473-2.0314-9.4988-2.4073a9.9008,9.9008,0,0,1-1.2056-.3055l1.4515,2.5564,10.8393-46.5573,24.8974-106.94L155.32,467.6874l19.4-83.3273c.1827-.7847,3.5728-12.9107,3.0692-13.183,2.1513,1.163-2.293,1.37-.4152.9331a8.0486,8.0486,0,0,0,1.6953-.9463l6.88-3.8406,63.6219-35.5154,100.1959-55.932,108.02-60.3,87.0948-48.6186c12.4717-6.962,24.8607-14.1052,37.4284-20.8935,14.66-7.9182,30.8688-2.3578,39.9672,10.7753l11.29,16.2972,49.0473,70.7977,68.287,98.5693,68.88,99.4258,50.7233,73.2169L883.2,533.4685c.19.2741,1.8347,3.1509,2.1616,3.12-.8443.0795.4353-2.0324-.24-1.1788a6.0767,6.0767,0,0,0-.4339,1.8618l-14.224,61.0289-26.0386,111.72L816.8633,828.2725,798.352,907.6963l-2.6582,11.4052c-.6065,2.6023,3.4,3.713,4.0079,1.1049L810.27,874.8605,835.02,768.6728l28.1778-120.8984L884.34,557.06c1.5158-6.5036,3.0817-12.998,4.5479-19.513.6664-2.9611-.822-4.3319-2.4841-6.731l-35.8726-51.7806-63.1536-91.1595L716.0519,284.92l-60.3894-87.1695Q640.49,175.85,625.3181,153.95c-10.2669-14.741-28.9007-20.1971-45.0713-11.4936-3.3685,1.8131-6.6845,3.7315-10.0246,5.5961L504.486,184.7479,402.8439,241.4872,294.4759,301.981l-85.9985,48.0066-25.0732,13.9965-6.6584,3.7169c-1.1872.6627-2.3537,1.0847-2.9629,2.3647a17.8157,17.8157,0,0,0-.7988,3.4311l-2.2,9.4477-8.0283,34.4834L137.6,525.4784l-27.8814,119.757L90.5157,727.7167l-2.7866,11.9691a2.1132,2.1132,0,0,0,1.4515,2.5564l18.8874,4.7865,51.6518,13.09,76.1267,19.2923,92.8577,23.5325L430.799,828.8167l102.6678,26.0186,95.7283,24.26,80.9085,20.5042,58.2084,14.7514c9.2045,2.3327,18.3851,4.8231,27.6277,7.0016.4033.095.8039.2037,1.2056.3055C799.739,922.3152,800.8455,918.3077,798.25,917.65Z"/><path class="cls-2" d="M480.6513,426.8478s5.9484-25.8755,38.7753-30.6431c3.4522-17.1953,22.5478-36.6918,47.2136-27.4979S539.6779,468.81,539.6779,468.81"/><path d="M482.6553,427.4a20.7957,20.7957,0,0,1,.8174-2.56c.1548-.4147.32-.825.4882-1.2344-.2588.63.089-.2.1545-.3471q.2031-.4556.4178-.9057.8538-1.7911,1.8787-3.4939a41.7084,41.7084,0,0,1,16.1357-15.18,53.5953,53.5953,0,0,1,17.4315-5.4708,2.01,2.01,0,0,0,1.4515-1.4515c3.3015-16.0711,18.21-29.4334,35.009-28.2462a33.19,33.19,0,0,1,7.3162,1.41q.88.2679,1.7459.5769c.2149.0765,1.1561.4605.5517.189a10.2969,10.2969,0,0,1,1.0752.5492c.1691.1012.3295.2139.4955.3193.0822.0523.1577.1149.2373.1708.2278.16-.4063-.3481-.1-.0742.2895.2584.579.5088.8442.7932.1324.1419.2533.2933.3824.4379.1864.2088-.2539-.3957.0657.0924.2189.3343.44.6623.6318,1.0135.1051.192.5964,1.3045.3477.6764.1586.4007.3063.8039.4324,1.2162a18.959,18.959,0,0,1,.59,2.706c-.0786-.5178.0039.0426.0265.2522q.0365.3379.0635.6767c.0439.5462.07,1.0937.0828,1.6415.0249,1.089-.0065,2.1789-.0772,3.2657q-.055.8442-.141,1.686-.0414.41-.0892.8187c-.0179.1535-.037.3069-.0558.46-.0655.5362.0216-.1289-.0367.2855q-.2589,1.84-.6161,3.6648c-.5343,2.7511-1.2092,5.4742-1.9672,8.1718-1.6752,5.9613-3.75,11.8077-6.0057,17.5721-4.3823,11.2-9.5337,22.2206-15.0076,33.0572-2.9581,5.8562-6.14,11.5818-9.211,17.3761-.0438.0828-.092.1635-.1382.2449-1.3225,2.3295,2.2669,4.4263,3.5889,2.0978,2.8325-4.9892,5.4976-10.0789,8.1107-15.1852,5.6809-11.1009,11.0074-22.4,15.6663-33.9705,4.48-11.1249,8.7955-22.8416,9.9446-34.8637.411-4.3.3405-8.8727-1.41-12.8919-2.13-4.8883-6.6552-6.6244-11.5982-7.7447a35.1165,35.1165,0,0,0-27.224,4.9236,42.2691,42.2691,0,0,0-15.9291,20.0264,35.043,35.043,0,0,0-1.61,5.4994l1.4515-1.4515c-10.4611,1.5511-20.5438,5.685-28.3212,12.9757a44.3042,44.3042,0,0,0-10.7849,15.7767,23.043,23.043,0,0,0-1.1207,3.3423c-.6026,2.6028,3.4039,3.7139,4.0079,1.1049Z"/><path class="cls-3" d="M464.4114,511.0572,319.54,365.0486c-32.3776-32.4914-35.7774-50.6886-30.33-81.4894l25.25-142.7655,58.2255,9.6263-26.65,146.91L480.671,423.2514,534.9547,436.67"/><path d="M465.8809,509.5878,452.412,496.0132l-32.5528-32.8083L379.71,422.74,343.45,386.1964,322.5681,365.15c-13.49-13.5959-27.7909-28.7523-32.0555-48.06-2.9563-13.3847-.3687-26.929,1.9763-40.1878l7.7246-43.6745,9.7616-55.192,6.1864-34.9782.3028-1.7117-2.5564,1.4514,50.9611,8.4253,7.2644,1.201-1.4515-2.5564-4.3514,23.9875-9.4689,52.1987-9.1851,50.6344L344.839,292.33c-.3185,1.7561-1.5129,5.0366-.2,6.5364,1.4891,1.7018,3.3886,3.1693,5.0375,4.7114l11.6952,10.9384,36.0157,33.6849,41.0118,38.3575,31.7855,29.7285,7.845,7.3373c.3835.3587.753.7724,1.1694,1.0937,1.1693.9022,2.9972,1.0507,4.3934,1.3958l46.7559,11.5579,4.0543,1.0022c2.5966.6419,3.7044-3.3653,1.105-4.0078L485.08,422.2008c-1.1022-.2725-2.222-.639-3.3428-.8263-1.1868-.1984.4084.4809.3.311a13.9335,13.9335,0,0,0-2.2838-2.1361l-12.42-11.6162-44.5515-41.6683L374.1026,320.736l-17.58-16.4419c-2.8362-2.6526-5.5694-5.7009-8.6422-8.0829-.1335-.1035-.2515-.2352-.3751-.3508l.5345,2.022,2.6459-14.5859,6.3558-35.0374,7.693-42.4088,6.6574-36.7c1.0836-5.9737,2.258-11.939,3.2522-17.9284.0139-.0833.03-.1663.0453-.2494a2.1068,2.1068,0,0,0-1.4515-2.5564l-50.9611-8.4252-7.2644-1.201a2.1113,2.1113,0,0,0-2.5564,1.4514l-4.49,25.3848-9.4859,53.6331-8.7144,49.271c-1.9755,11.17-4.489,22.4873-4.7318,33.8482a64.642,64.642,0,0,0,7.6134,32.0876c6.4456,12.0859,15.8849,22.4481,25.4724,32.1028q7.4448,7.497,14.8833,15l33.672,33.9362,40.3753,40.6922,35.6477,35.9274,19.3683,19.52.8749.8817c1.8867,1.9015,4.8258-1.0373,2.939-2.9389Z"/><path class="cls-4" d="M534.9547,436.67,480.671,423.2515,429.66,375.542c-4.8159,10.0878-13.491,22.9933-24.6734,36.0068-6.5655,7.6406-43.4623,29.78-49.7144,35.3488l95.2907,78.49Z"/><path d="M535.5072,434.6663l-18.32-4.5287-29.2241-7.2241-6.7392-1.6659.917.5344L464.8814,405.64,437.4,379.9372l-6.2705-5.8647a2.0984,2.0984,0,0,0-3.264.4206,145.2617,145.2617,0,0,1-14.88,23.8057c-4.3,5.7579-8.6191,11.6345-14.29,16.1122-4.491,3.5462-9.8771,7.1873-14.8659,10.544-5.7354,3.8589-11.5267,7.6336-17.2858,11.4567-4.292,2.8491-8.87,5.5928-12.7418,9.0164a2.0858,2.0858,0,0,0,0,2.939l9.5184,7.84,22.7513,18.74,27.5046,22.6553,23.7782,19.5858c3.8568,3.1769,7.6872,6.39,11.5722,9.532.0557.0451.1107.0911.166.1367a2.1221,2.1221,0,0,0,2.939,0l8.3944-8.8248,20.1587-21.192,24.3867-25.6367L526.05,449.0453c3.4035-3.578,6.9194-7.0787,10.2244-10.7486.0483-.0536.1-.1047.1494-.157,1.8433-1.9379-1.0909-4.8818-2.939-2.939l-8.3945,8.8248L504.932,465.2176l-24.3866,25.6366-21.0779,22.1584-6.9245,7.2795c-1.0833,1.1388-2.3235,2.2349-3.3,3.4691-.0442.0559-.1.1053-.1493.157h2.939l-9.5184-7.84-22.7514-18.74-27.5046-22.6553L368.48,455.0968l-7.8625-6.4763a45.2482,45.2482,0,0,0-3.71-3.0557,2.0291,2.0291,0,0,1-.1659-.1367v2.939c.2481-.2194.5023-.4314.76-.6393.1341-.1081.27-.214.4051-.3206-.4748.3741.1395-.1049.2607-.1961.8062-.6064,1.627-1.1935,2.4521-1.774,2.2122-1.5566,4.4592-3.0637,6.71-4.5637,5.692-3.7935,11.4251-7.525,17.1093-11.33,5.2975-3.5464,10.5988-7.1164,15.6582-10.999a58.4688,58.4688,0,0,0,5.3627-4.4762,97.3672,97.3672,0,0,0,8.3873-10.0945c6.6442-8.56,12.908-17.5889,17.607-27.3824l-3.2639.4206,14.5383,13.5975,25.7588,24.0917,8.7169,8.1528c1.1167,1.0445,2.0616,2.1913,3.5814,2.567l26.9588,6.6641c8.733,2.1588,17.4464,4.4318,26.2066,6.4781.1506.0352.3.0743.4506.1114C536.9988,439.316,538.1066,435.3088,535.5072,434.6663Z"/><path d="M355.2968,446.7148c4.2754,3.6739,15.3361,2.2327,30.2138-15.1776l-18.5941-18.74C355.8865,429.3049,350.8622,442.904,355.2968,446.7148Z"/><path d="M353.8273,448.1843c7.1356,6.0006,17.7113-.8123,23.4559-5.5068a77.8905,77.8905,0,0,0,9.6969-9.6708,2.1246,2.1246,0,0,0,0-2.939L370.6923,413.652l-2.3063-2.3244a2.1064,2.1064,0,0,0-3.264.4206c-4.7093,7.07-9.2348,14.57-11.9705,22.6588-1.3628,4.0292-3.0667,10.4332.6758,13.7773,1.9892,1.7775,4.9385-1.1522,2.939-2.939a5.6994,5.6994,0,0,1-.4121-.4134c.3576.3918.0048.0086-.0637-.1212-.0838-.1586-.1735-.3116-.2493-.4748.2316.4987-.0375-.15-.0655-.2629-.0414-.1665-.0812-.3327-.12-.5-.1274-.5488-.0282-.0045-.052-.3523a12.8459,12.8459,0,0,1-.024-1.4123,25.2963,25.2963,0,0,1,1.6917-7.0875c2.6721-7.3928,6.9012-14.2621,11.2395-20.775l-3.2639.4206,16.2878,16.4157,2.3063,2.3244v-2.939c-4.2853,4.9909-9.0368,9.8362-14.7384,13.209a22.7508,22.7508,0,0,1-5.5859,2.4932c-.4.1126-.8046.2121-1.2121.2956-.2249.0461-.4508.0861-.6774.1232-.2473.0405.0472-.0026.0818-.0071-.1223.0159-.2454.0309-.3683.041a14.9013,14.9013,0,0,1-2.1329.0165c-.5231-.0314.2715.069-.2176-.0274-.1706-.0337-.3412-.0646-.51-.1052-.3232-.0776-.6335-.1836-.9474-.291-.3259-.1117.3457.1928-.06-.031-.1523-.084-.31-.1577-.46-.2462-.1281-.0756-.2488-.1622-.3755-.2393-.4244-.258.1254.1113-.0707-.0537C354.7316,443.5343,351.7767,446.46,353.8273,448.1843Z"/><path class="cls-3" d="M415.1879,362.0062,346.0363,297.33l26.6495-146.91-56.4317-28.7849L314.46,140.7936,272.266,276.4591c-11.7763,38.1,6.5835,64.4107,38.961,96.9022L358.6038,421.11l18.5941,18.74c6.2521-5.5691,21.2235-20.6605,27.789-28.3011,11.1824-13.0135,19.8575-25.919,24.6734-36.0068Z"/><path d="M416.6574,360.5367,393.16,338.56l-37.14-34.7359-8.514-7.9631.5344,2.022,2.6527-14.6235,6.37-35.1136,7.6764-42.3172,6.6636-36.7345c1.08-5.9542,2.2407-11.9,3.2414-17.8684.0141-.0845.0305-.1686.0458-.2529a2.14,2.14,0,0,0-.955-2.3469l-19.0253-9.7045-30.3715-15.492-7.0349-3.5883a2.1085,2.1085,0,0,0-3.1271,1.7944l-1.5615,16.6788c-.0743.7935-.2261,1.6206-.2264,2.4186,0-.2677.197-.6959-.0026-.263a16.7024,16.7024,0,0,0-.6252,2.01l-7.7129,24.799-12.4991,40.1877-12.5269,40.277-7.9385,25.5245c-1.0042,3.2286-1.9817,6.4569-2.7051,9.7652a69.5088,69.5088,0,0,0-.0593,30.5842c5.0651,21.8441,20.6725,39.7627,35.8283,55.4926,7.3138,7.5908,14.82,15.0029,22.2445,22.4851l27.5976,27.8142q9.1806,9.2525,18.361,18.505l3.3786,3.4052a2.1222,2.1222,0,0,0,2.939,0c7.0969-6.3411,13.7609-13.2249,20.3112-20.122a221.6633,221.6633,0,0,0,22.5265-27.7,130.5709,130.5709,0,0,0,9.95-16.9064,2.1426,2.1426,0,0,0-.3249-2.5184l-14.4724-13.5358c-1.9521-1.8259-4.8975,1.1071-2.9389,2.939l14.4723,13.5358-.325-2.5184c-9.895,20.5948-25.6407,37.8513-41.67,53.8442-3.4212,3.4134-6.8625,6.8222-10.4673,10.0431h2.939q-9.46-9.5349-18.9212-19.07l-22.691-22.869-23.71-23.8959c-13.8981-14.007-28.213-28.8141-36.5431-46.9731a64.4424,64.4424,0,0,1-6.013-28.6985,76.3772,76.3772,0,0,1,3.6735-20.4828l6.3647-20.4638,11.9008-38.2642,12.8247-41.2348,9.15-29.418c.57-1.831,1.2718-3.67,1.7216-5.5355a25.0633,25.0633,0,0,0,.3782-3.4994l.9658-10.3157.564-6.0249-3.127,1.7944,19.0253,9.7045,30.3715,15.492,7.0349,3.5884-.955-2.3469-1.8394,10.14-4.6118,25.423-6.0791,33.5122-6.2677,34.5517-5.109,28.1645-2.6237,14.4636a8.52,8.52,0,0,0-.156.9314,2.6345,2.6345,0,0,0,1.1963,2.33l5.3644,5.0172,21.7809,20.3713,25.1807,23.5509,15.4477,14.448.7533.7045C415.6706,365.3015,418.616,362.3685,416.6574,360.5367Z"/><path class="cls-3" d="M368.4678,173.6724l2.2408-12.5016a115.31,115.31,0,0,1,7.388-24.7758c2.6316-6.19,6.2791-14.15,11.0927-23.38,0,0,8.3059-15.9256,1.0009-17.1314s-18.9574,10.5546-18.9574,10.5546,8.154-23.7264-8.3917-27.7818C346.616,74.68,316.352,70.635,314.9659,107.3648a14.2351,14.2351,0,0,1-.7653,4.15c-1.8715,5.374-6.2972,20.7015.6149,29.2077"/><path d="M370.4718,174.2248c.8576-4.7847,1.6518-9.5853,2.5887-14.3552,2.2305-11.3562,6.41-21.976,11.2973-32.4184,2.1474-4.588,4.4609-9.0853,6.7385-13.6085a51.66,51.66,0,0,0,2.8448-6.7979c.95-2.8363,1.8888-6.2644,1.0271-9.2366-1.0388-3.5827-4.5494-4.4624-7.8777-3.8888-4.2562.7335-8.1441,3.411-11.496,5.9955a58.65,58.65,0,0,0-5.8312,5.0537l3.4735,2.0219c2.0286-5.928,2.9019-13.02,1.3459-19.13a14.9649,14.9649,0,0,0-8.9379-10.4772c-3.5969-1.4542-7.7869-2.0335-11.6111-2.5751-8.4024-1.19-17.3124-1.2287-25.1395,2.4672-9.5767,4.5221-14.18,14.2973-15.5192,24.365-.236,1.774-.388,3.5535-.4717,5.341a17.7249,17.7249,0,0,1-1.0017,4.8508,61.2066,61.2066,0,0,0-1.9031,7.1514c-1.2646,6.29-1.7184,13.1808.8874,19.2006a17.7587,17.7587,0,0,0,2.46,4.0084,2.0906,2.0906,0,0,0,2.939,0,2.1291,2.1291,0,0,0,0-2.939c-3.5142-4.43-3.5077-10.8806-2.7877-16.204a54.5333,54.5333,0,0,1,1.6808-7.7451c.8037-2.793,1.7419-5.3716,1.8815-8.3231.2581-5.4549,1.1389-11.073,3.6309-15.9927a21.7013,21.7013,0,0,1,7.8444-8.7889,27.0663,27.0663,0,0,1,10.56-3.62,50.7471,50.7471,0,0,1,11.546-.0357c1.8818.1905,3.2182.3844,5.2388.746,1.7107.3062,3.4121.6631,5.1045,1.0581a14.7165,14.7165,0,0,1,5.6811,2.2847,10.593,10.593,0,0,1,3.2,4.1642c1.4832,3.4078,1.51,7.3482,1.0763,11.2573-.0827.745-.154,1.2481-.3383,2.273q-.2032,1.13-.463,2.2491c-.2267.9774-.5052,1.9362-.779,2.9006-.039.1374-.0858.2735-.132.4087-.6879,2.01,2.066,3.4389,3.4734,2.0219,3.6435-3.6683,8.1263-7.47,13.0112-9.2933a13.7689,13.7689,0,0,1,2.2392-.6435,5.0445,5.0445,0,0,1,.8791-.0914c.211-.0066.98.0347.8059.0081.1694.0259.9576.3077.5806.1225.144.0707.67.3343.2739.1372.0319.0159.3471.3931.1687.1426-.1879-.264.1109.1765.1173.1867a2.9713,2.9713,0,0,1,.1537.2923c-.2072-.4313.0028.03.0284.1444.0268.12.1625.9538.1226.5324.0249.2632.0346.5277.0351.792a9.8688,9.8688,0,0,1-.1595,1.8246,30.579,30.579,0,0,1-1.216,4.4326,39.2534,39.2534,0,0,1-2.2967,5.3719c-2.2737,4.474-4.5487,8.9406-6.6769,13.4868-4.6984,10.0367-8.8751,20.2386-11.239,31.1038-1.2,5.5141-2.0706,11.1091-3.066,16.6627a2.1368,2.1368,0,0,0,1.4515,2.5564,2.0961,2.0961,0,0,0,2.5564-1.4515Z"/><path class="cls-3" d="M358.7628,94.5451c10.791-22.542,15.0779-32.4247,20.4588-45.9768s16.0328-11.6381,13.964,3.0986c-5.484,22.9156-21.9528,54.7712-21.9528,54.7712s-40.364-2.2928-45.5116,16.3238"/><path d="M360.5573,95.594c4.8635-10.1626,9.6881-20.35,14.1547-30.6948q2.5355-5.8723,4.9245-11.8066c1.5006-3.7189,2.974-8.6463,6.4142-10.8222a3.8664,3.8664,0,0,1,1.7418-.7462c.5677-.1232-.3985-.01.1674-.0151.1765-.0014.3495-.0028.5259.0075-.0792-.0046-.426-.092-.041-.0033a4.4428,4.4428,0,0,1,.6557.1927c-.4362-.1741.2972.1994.42.2882-.294-.2121.4041.4156.5268.5694-.1656-.2076.2908.4858.3624.6117a4.5952,4.5952,0,0,1,.4591,1.1356c1.4595,4.7789-.3729,9.8166-1.78,14.3786a258.8894,258.8894,0,0,1-11.5246,29.6848c-2.5748,5.73-5.2422,11.4327-8.1263,17.0149l1.7944-1.0293a98.0967,98.0967,0,0,0-14.3563.3677c-8.4414.77-17.5684,2.29-24.8278,6.95a18.8592,18.8592,0,0,0-8.3315,10.5319c-.7338,2.5771,3.2754,3.6772,4.0079,1.1049q.1766-.62.3995-1.2236a1.4045,1.4045,0,0,1,.1136-.2849c.1137-.2554.2371-.5068.3667-.7544q.29-.5542.6285-1.0819c.1124-.1756.2308-.3469.3482-.5191.1654-.2426.2145-.301.2381-.3311a17.1,17.1,0,0,1,3.77-3.4846,33.9121,33.9121,0,0,1,10.7372-4.6066,86.3045,86.3045,0,0,1,22.0446-2.5991c1.6193-.01,3.2441-.0037,4.8614.0872a2.0385,2.0385,0,0,0,1.7945-1.0292c2.5957-5.024,5.0078-10.15,7.349-15.2959A279.2616,279.2616,0,0,0,392.78,60.8119c1.66-5.2565,3.4136-10.6044,2.4361-16.1724-.65-3.7019-3.2409-7.5614-7.4339-7.275-4.5569.3112-7.7778,4.63-9.59,8.4025-2.04,4.2478-3.5789,8.7812-5.4037,13.128-4.9093,11.6945-10.3459,23.1632-15.82,34.6012-1.1491,2.4011,2.4334,4.5121,3.5889,2.0978Z"/><path class="cls-3" d="M359.0561,94.099s10.5981-31.3125,11.8114-54.8439c-.6531-14.8668-11.4755-14.8062-14.2949-.5s-6.46,27.4272-12.9592,51.559"/><path d="M361.06,94.6515c1.8052-5.3392,3.36-10.773,4.8209-16.2146a217.3249,217.3249,0,0,0,6.6005-33.3753c.5383-5.0933.8988-10.7217-1.9633-15.2673-2.0093-3.1912-5.643-4.8208-9.1713-3.0067-4.0824,2.099-5.9245,7.2182-6.7782,11.4148-.8967,4.4083-1.84,8.803-2.8842,13.179-3.07,12.8648-6.6354,25.6109-10.0749,38.38-.6965,2.5858,3.3118,3.689,4.0079,1.1049,3.01-11.1758,6.0955-22.3354,8.8984-33.5656,1.0437-4.1817,2.0378-8.376,2.9457-12.5894.9069-4.209,1.2666-9.0772,3.9705-12.607a11.91,11.91,0,0,1,1.2534-1.27,5.415,5.415,0,0,1,.9295-.54c-.3409.151.5229-.1369.7021-.1668-.4925.082.3292.0194.4693.0282-.5024-.0316.2717.0794.446.1356.52.1675-.3346-.2082.1478.0729.1589.0926.3163.1824.4682.2867-.0694-.0477-.2828-.2447.0326.026a6.5811,6.5811,0,0,1,.5768.5682A11.13,11.13,0,0,1,368.42,35.99a25.8448,25.8448,0,0,1,.0517,7.5987,199.6517,199.6517,0,0,1-6.0955,31.8455c-1.5924,6.0823-3.31,12.1544-5.3242,18.1126-.8586,2.54,3.1544,3.6294,4.0079,1.105Z"/><path class="cls-3" d="M343.6316,90.5872s3.01-32.92-1.2934-56.0864c-4.0994-14.3054-14.61-11.7247-14.0179,2.8445s.9341,31.5388.2368,56.5208"/><path d="M345.71,90.5872c.5069-5.5639.7523-11.1609.9059-16.744a214.231,214.231,0,0,0-1.3017-33.6171c-.6833-5.2278-1.5527-10.8093-5.4233-14.7466-2.6852-2.7314-6.68-3.4864-9.7233-.8738-3.5827,3.0756-4.0822,8.6507-3.9135,13.0313.1833,4.76.3442,9.52.4467,14.283.301,13.9814.1655,27.9678-.2217,41.9461-.0741,2.6756,4.0823,2.6736,4.1564,0,.3366-12.1558.4863-24.3177.3182-36.4775q-.0993-7.1916-.3438-14.38c-.143-4.2321-.8766-8.9952.7635-12.9838a6.9121,6.9121,0,0,1,1.1523-1.9227c.12-.1276.7223-.6581.4643-.4683.1605-.1181.9878-.5147.6275-.3884.1571-.055.9527-.191.4688-.1516.154-.0125.97.0447.5032-.03a3.0687,3.0687,0,0,1,1.8232.8358,12.36,12.36,0,0,1,3.0158,4.5034,29.7631,29.7631,0,0,1,1.7057,7.6442,205.6928,205.6928,0,0,1,1.373,31.8485c-.1333,6.2317-.3878,12.4821-.9535,18.6918-.2426,2.6628,3.9152,2.6463,4.1563,0Z"/><path class="cls-3" d="M328.9007,95.4777c-1.7242-11.433-5.0448-28.5729-9.6709-40.7417-6.5893-13.3428-16.47-8.9258-13.2842,5.3032s5.195,24.8462,8.9723,49.5509"/><path d="M330.9046,94.9252a264.1538,264.1538,0,0,0-5.6657-27.9783c-.6213-2.35-1.2873-4.6885-2.0185-7.0067a46.0962,46.0962,0,0,0-2.3872-6.6331c-1.6958-3.4176-4.4145-7.0874-8.1983-8.3148a6.57,6.57,0,0,0-7.54,2.7184c-2.1318,3.1122-2.0634,7.3307-1.5237,10.8976.5468,3.6138,1.53,7.19,2.2773,10.7687q1.0405,4.9834,1.9747,9.9883c1.9086,10.2223,3.5183,20.4989,5.0909,30.7773a2.0928,2.0928,0,0,0,2.5564,1.4515,2.13,2.13,0,0,0,1.4515-2.5564c-2.3381-15.2816-4.8121-30.5387-8.1088-45.6468-.7421-3.4013-1.8178-6.9234-1.2858-10.4367a7.2266,7.2266,0,0,1,1.21-3.2122c.1138-.1315.5691-.5583.4952-.5015-.0991.0762.3826-.2288.4913-.2832.2853-.1429-.2963.1006.0046-.0008a2.7077,2.7077,0,0,1,.347-.1016c.0628-.0121.44-.0776.1719-.0431-.2834.0364.2214-.002.2774-.0015a3.0253,3.0253,0,0,1,1.1607.2383,7.9163,7.9163,0,0,1,1.397.8243,14.0222,14.0222,0,0,1,3.3813,4.11,29.3926,29.3926,0,0,1,2.39,5.9421c.7038,2.162,1.3476,4.3434,1.949,6.5361a257.5527,257.5527,0,0,1,6.094,29.5692,2.0926,2.0926,0,0,0,2.5564,1.4515,2.1306,2.1306,0,0,0,1.4515-2.5564Z"/><path class="cls-1" d="M574.3775,629.7214C563.0668,609.385,416.42,590.5047,416.42,590.5047l64.2381-148.636c3.4859-9.8117,13.2381-15.5,22.6285-13.1981l62.6589,15.3579c10.203,2.5008,14.4993,8.0264,15.2086,24.0735C581.1544,468.102,581.9491,578.8849,574.3775,629.7214Z"/><path d="M887.2062,535.6129l-32.705-46.8337h0a43.481,43.481,0,0,1-29.435,36.7248L524.3307,626.2532A61.98,61.98,0,0,1,460.926,611.42L175.9019,370.5523l-.1145.0639-15.79,68.0822L81.0229,784.0977,791.3666,948.8455Z"/><path d="M889.0006,534.564,856.2956,487.73a2.0982,2.0982,0,0,0-3.8726,1.0489c-1.7771,17.0626-13.9628,30.0486-29.8028,35.3551l-18.92,6.3385-79.6522,26.6843-101.25,33.92L543.7753,617.55,525.41,623.7026c-17.7348,5.9413-36.7975,4.4845-52.7992-5.5972-5.62-3.5405-10.5487-8.4366-15.6526-12.75L438.4138,589.684,373.148,534.5293l-81.0944-68.5311L218.833,404.1211,179.2381,370.66l-1.8667-1.5775a2.1608,2.1608,0,0,0-2.5184-.325c-1.3231.7387-1.4126,2.785-1.7187,4.1047l-2.13,9.184L164.36,410.6939c-2.1979,9.4769-4.4166,18.9492-6.5908,28.4316q-6.7974,29.6456-13.5587,59.3l-25.884,113.2055L92.5919,724.1833l-8.9568,39.173c-1.4693,6.4261-3.238,12.86-4.4235,19.3467-.0516.2825-.1286.5622-.1926.8423a2.11,2.11,0,0,0,1.4515,2.5564l18.9948,4.4054,51.6933,11.9891,76.4576,17.7325,93.2858,21.6355,102.18,23.6981,103.1376,23.92,96.16,22.3022,81.2486,18.8437,58.2336,13.506c9.2586,2.1473,18.4979,4.4269,27.786,6.4443.39.0847.7777.18,1.1664.27a2.1094,2.1094,0,0,0,2.5564-1.4515l9.5631-41.2336,22.8676-98.5982,27.741-119.6115L877.435,586.9364l7.8733-33.9477c1.2371-5.3339,2.8377-10.7137,3.7382-16.1178.0394-.2366.1094-.4716.1636-.7056.6037-2.6027-3.4028-3.7137-4.0079-1.1049l-9.5631,41.2336-22.8675,98.5982L825.0305,794.5037,801.1378,897.522,793.2645,931.47l-2.4524,10.5742c-.3854,1.6617-1.314,3.8268-1.2858,5.5436a3.296,3.296,0,0,1-.1636.7056l2.5564-1.4515-18.9948-4.4054L721.2309,930.447l-76.4575-17.7325L551.4875,891.079,449.3081,867.3809l-103.1376-23.92L250.01,821.1583l-81.2485-18.8437-58.2336-13.506L92.26,784.5719c-3.0752-.7132-6.3706-1.9008-9.5185-2.2076a9.4547,9.4547,0,0,1-1.1664-.27l1.4515,2.5564,10.957-47.921,24.766-108.316,26.3434-115.2145,15.9892-69.93c5.2028-22.7549,10.535-45.4807,15.8087-68.2193a25.3512,25.3512,0,0,0,.6381-2.7514c.1811-1.5877.8089-.7263-.5785.0484l-2.5184-.325,28.6652,24.2244,68.72,58.0734,82.5646,69.7735,70.9752,59.98c11.2455,9.5034,22.7919,18.7456,33.7806,28.5473,6.2237,5.5514,12.5049,10.3984,20.2446,13.7137a64.4789,64.4789,0,0,0,38.8912,3.7362c5.48-1.1842,10.8232-3.2242,16.1333-5.0031l69.8053-23.3854,101.0092-33.8391L793.704,538.2l25.5826-8.57c7.9273-2.6558,15.4493-5.4188,21.9537-11.06a45.8466,45.8466,0,0,0,15.339-29.79l-3.8726,1.0489,32.705,46.8337C886.9322,538.8391,890.537,536.764,889.0006,534.564Z"/><path d="M421.5388,578.2l-5.9924,11.1333a21.6292,21.6292,0,0,0,2.48,24.1575l10.45,12.4481,19.3963-36.7144"/><path d="M419.7444,577.1509l-4.1516,7.7133c-1.8761,3.4856-3.7588,6.896-4.3829,10.8761a23.8324,23.8324,0,0,0,4.2849,17.8715c1.7076,2.2952,3.6517,4.4337,5.49,6.623l6.0217,7.1734a2.0909,2.0909,0,0,0,3.2639-.4206l16.993-32.1654,2.4033-4.549c1.2486-2.3635-2.3376-4.4663-3.5889-2.0978l-16.993,32.1653L426.681,624.89l3.2639-.4206c-3.4455-4.1045-6.9046-8.1981-10.3367-12.3138a19.8115,19.8115,0,0,1-4.5226-13.9673c.2488-3.86,1.8836-7.1156,3.6706-10.4357l4.5771-8.5037c1.2677-2.3552-2.3193-4.4565-3.5889-2.0978Z"/><path d="M576.0606,616.2405l-1.51,13.4256a20.7378,20.7378,0,0,1-11.7777,16.4454L537.926,657.804l-17.3182-63.0379"/><path d="M573.9825,616.2405,572.7618,627.09a36.0963,36.0963,0,0,1-.6971,4.7023,18.75,18.75,0,0,1-4.9079,8.73c-2.5717,2.5793-5.7952,3.9653-9.0236,5.4846l-12.4015,5.836-8.8546,4.1669,3.0528,1.242-5.8622-21.3383-9.331-33.9649-2.1249-7.7348c-.7077-2.576-4.7187-1.4823-4.0079,1.1049l5.8622,21.3383,9.331,33.9648,2.1249,7.7349a2.1109,2.1109,0,0,0,3.0529,1.242l20.4882-9.6416c3.3256-1.565,6.6308-2.9786,9.4579-5.4063,4.7871-4.1108,7.1328-9.7781,7.8244-15.9249l1.3934-12.3852a2.0908,2.0908,0,0,0-2.0782-2.0781,2.1268,2.1268,0,0,0-2.0781,2.0781Z"/><path class="cls-2" d="M612.3939,379.675s22.86-1.3854,24.2453,35.329c35.329,11.0836,40.1781,52.6471,17.3181,74.8143C564.5959,462.802,542.4287,449.64,542.4287,449.64S559.7468,386.6023,612.3939,379.675Z"/><path d="M612.3939,381.7532a13.6052,13.6052,0,0,1,2.2209.1271c-.8728-.0925.36.0655.6224.1164q.6835.1328,1.3566.3133.6387.171,1.2653.383.3663.1238.7277.2612c.1247.0474.248.098.3725.1457.552.2119-.204-.0992.1356.057a23.1729,23.1729,0,0,1,3.31,1.83,18.4936,18.4936,0,0,1,3.1,2.6261,26.9058,26.9058,0,0,1,5.59,8.8737,56.2791,56.2791,0,0,1,3.4662,18.5169,2.1464,2.1464,0,0,0,1.5257,2.0039c11.6388,3.6917,21.438,11.6835,26.358,22.9821a43.8782,43.8782,0,0,1-9.9569,48.3588l2.0219-.5345c-15.0541-4.5531-30.0619-9.2637-44.9814-14.2413-10.5608-3.5233-21.08-7.1764-31.5137-11.0616q-5.7282-2.1332-11.4152-4.3751-2.3906-.9456-4.7709-1.9168-1.0578-.432-2.113-.87-.5193-.2155-1.0379-.4326-.2166-.0906-.4329-.1815c-.1644-.069-.6409-.27-.21-.088-3.664-1.55-7.311-3.15-10.8864-4.8964-1.1916-.5821-2.3922-1.4179-3.6321-1.8825a.2709.2709,0,0,1-.0392-.0229l.955,2.3469c.5862-2.1294,1.3359-4.222,2.103-6.2911a122.986,122.986,0,0,1,6.6315-14.8579c7.3164-13.9955,17.184-27.0432,30.3419-36.0386a67.132,67.132,0,0,1,28.8849-11.2519,2.1475,2.1475,0,0,0,2.0781-2.0782c0-1.007-.9577-2.2282-2.0781-2.0781a71.3554,71.3554,0,0,0-27.9184,9.8336,85.2921,85.2921,0,0,0-20.05,17.362,125.405,125.405,0,0,0-21.2662,36.3385,83.7294,83.7294,0,0,0-2.7344,7.9568,2.1214,2.1214,0,0,0,.9551,2.3469c.928.55,1.9036,1.0288,2.8685,1.51,3.2838,1.6358,6.6387,3.13,10.0093,4.5768,6.3866,2.7417,12.8505,5.3,19.3507,7.7593,9.9517,3.7645,19.99,7.2986,30.0688,10.7065,14.3894,4.8655,28.8676,9.4666,43.3928,13.9091q3.1659.9684,6.335,1.9263a2.0871,2.0871,0,0,0,2.0219-.5344,48.6421,48.6421,0,0,0,14.5474-33.3188,45.43,45.43,0,0,0-12.9768-33.257A48.6544,48.6544,0,0,0,637.1917,413l1.5257,2.0039c-.41-10.2249-2.3858-21.2652-9.28-29.2465a23.4207,23.4207,0,0,0-13.6158-7.8625,15.7,15.7,0,0,0-3.4272-.2981C609.7353,377.7525,609.7174,381.91,612.3939,381.7532Z"/><polyline class="cls-1" points="435.403 574.331 385.527 685.859 534.462 761.366 559.4 742.663 576.372 595.112"/><path d="M433.6083,573.2818l-4.9738,11.1218-11.9393,26.6978L402.3119,643.264l-12.4335,27.8026c-2.0192,4.5151-4.064,9.02-6.0578,13.5459-.0291.0662-.059.132-.0885.198a2.1185,2.1185,0,0,0,.7455,2.8433l14.8667,7.5371L434.92,713.2271l43.0112,21.8057,37.248,18.8838c5.991,3.0374,11.9424,6.1752,17.9816,9.1163.0847.0413.1682.0853.2522.1279a2.0684,2.0684,0,0,0,2.0978,0L550.355,752.028l8.4972-6.3729c.5261-.3946,1.0548-.7857,1.5783-1.1837a2.6867,2.6867,0,0,0,1.0721-2.0172c.31-2.5756.5929-5.1548.8894-7.732l1.9117-16.62,2.6119-22.7072,2.9633-25.7625,2.9594-25.7292,2.6433-22.98,1.971-17.1356c.3174-2.76.751-5.5345.9553-8.306.0091-.123.0284-.2461.0425-.3688a2.09,2.09,0,0,0-2.0782-2.0781,2.1275,2.1275,0,0,0-2.0782,2.0781l-1.6854,14.6531-4.0622,35.3155-4.9,42.6018-4.2453,36.9086-1.3925,12.1061c-.2177,1.893-.5648,3.8194-.6584,5.7238-.0039.08-.0185.1615-.0277.2415l1.0292-1.7945L536.5228,757.24l-3.1094,2.332h2.0978l-14.8666-7.537-35.5762-18.0363-43.0111-21.8057-37.248-18.8838L392.6615,687.15c-1.9193-.973-3.8375-2.1483-5.8338-2.9576-.0864-.035-.169-.0857-.2523-.1279l.7456,2.8434,4.9737-11.1218,11.9394-26.6978,14.3833-32.1627,12.4334-27.8026c2.0192-4.515,4.0641-9.02,6.0578-13.5459.0292-.0661.059-.1319.0885-.1979a2.1428,2.1428,0,0,0-.7455-2.8434,2.0941,2.0941,0,0,0-2.8433.7456Z"/><path class="cls-4" d="M476.08,452.8345l-4.8791,11.2148a31.8014,31.8014,0,0,0-25.0881,57.6664l-30.0112,68.9824s146.9654,18.6868,158.2761,39.0231c7.5716-50.8362,6.7769-161.6192,6.7769-161.6192-.7093-16.047-5.0056-21.5728-15.2085-24.0734l-79.5154-19.4895"/><path d="M474.2853,451.7856,469.4062,463l2.3469-.955a33.8786,33.8786,0,0,0-40.3084,45.0065,34.6087,34.6087,0,0,0,13.619,16.4583l-.7456-2.8434-10.2019,23.45-16.1208,37.0546-3.6885,8.4781a2.1179,2.1179,0,0,0,1.7945,3.1271c1.3142.1672,2.6273.3434,3.94.5186.52.0694-.5465-.0739-.0109-.0014l.4757.0641q.5885.08,1.1768.16,1.2492.17,2.498.3426,3.0788.4253,6.1557.8646,17.7862,2.5374,35.51,5.4942c14.7,2.459,29.3687,5.1395,43.9472,8.2452a387.89,387.89,0,0,1,39.6887,10.1984c2.615.8541,5.2136,1.761,7.7793,2.754q.8235.3188,1.6422.65.438.1775.8743.359c.1046.0433.4653.1955.0492.0195q.2688.1137.5369.2293,1.5668.6753,3.1038,1.4171a43.6731,43.6731,0,0,1,5.178,2.9057c.3428.2287.6781.4668,1.012.7081.12.0869.6637.524.1137.0807.1677.1351.3368.2679.5018.4063a14.26,14.26,0,0,1,1.5523,1.4956c.0982.1116.1885.231.2881.341.1453.1605-.313-.4816-.0117-.0109.161.2517.3332.4913.48.7524.8061,1.43,3.5271,1.3308,3.7984-.4964,1.6741-11.2791,2.68-22.6533,3.4884-34.0235.9381-13.1992,1.5651-26.42,2.0443-39.6432q.7035-19.4163,1.0019-38.8447.26-15.6507.3214-31.304.0342-8.51.0026-17.0207c-.0384-8.0648-1.0849-18.0645-7.9082-23.4108-4.3667-3.4214-10.1449-4.3236-15.4133-5.6148l-24.8692-6.0956-29.2584-7.1713-17.929-4.3945-.8791-.2155c-2.5974-.6366-3.7057,3.37-1.1049,4.0079l12.6066,3.09,27.5147,6.744,27.4211,6.721c4.2507,1.0419,8.5332,1.9983,12.76,3.1367,4.7183,1.2708,8.2824,3.5344,10.3546,8.0017,1.9372,4.1763,2.46,9.4534,2.5431,14.0788.0778,4.34.0268,8.6859.0186,13.026q-.0266,14.1891-.2163,28.3774-.2473,18.6222-.8,37.2388c-.4056,13.2579-.946,26.5135-1.7422,39.7541-.7138,11.87-1.6,23.7434-3.0357,35.55-.3,2.4632-.5674,4.4762-.9282,6.907l3.7984-.4965c-1.6481-2.9235-4.7146-4.9526-7.558-6.5727a84.4857,84.4857,0,0,0-13.3668-5.8526c-12.54-4.4979-25.5737-7.6463-38.563-10.5327-14.664-3.2586-29.4348-6.0325-44.2388-8.5729q-18.7772-3.222-37.6363-5.9406-6.0867-.8824-12.1808-1.7133c-2.0619-.28-4.191-.7349-6.2741-.8351-.0839-.0041-.1693-.0218-.2528-.0324l1.7944,3.127,10.2019-23.45,16.1208-37.0545,3.6885-8.4782a2.1449,2.1449,0,0,0-.7456-2.8433,29.7178,29.7178,0,0,1,23.4868-53.868,2.102,2.102,0,0,0,2.3469-.9551l4.8791-11.2148a2.1461,2.1461,0,0,0-.7456-2.8433,2.0934,2.0934,0,0,0-2.8433.7455Z"/><path class="cls-3" d="M565.36,516.2155,698.0637,596.703c45.997,18.5613,61.6264-7.1786,80.9311-31.7895L868.4742,450.839l.4814-38.8328L822.45,413.8973,730.818,531.78,624.7019,459.7007,546.2036,438.982"/><path d="M564.3111,518.01l20.4257,12.3885,45.0991,27.3535,45.2952,27.4725L690.6,594.6069c2.1135,1.2818,4.1939,2.7065,6.3773,3.868a49.6993,49.6993,0,0,0,8.1277,2.9885,80.09,80.09,0,0,0,11.054,2.7392,54.5458,54.5458,0,0,0,18.621.1642c10.6141-1.8731,19.67-7.9223,27.14-15.474,8.8448-8.9411,16.1129-19.41,23.8688-29.2981l27.979-35.67,34.3226-43.7568,21.0319-26.8129a5.1174,5.1174,0,0,0,1.4306-2.5725c.2274-2.1872.0557-4.4923.0829-6.6885l.3292-26.5545.0686-5.5337a2.099,2.099,0,0,0-2.0782-2.0782l-42.7263,1.7375c-1.3957.0568-4.14-.2919-5.2535.7689a14.261,14.261,0,0,0-1.2492,1.6072l-8.0484,10.3539-30.1937,38.8433-33.6919,43.3436L735.631,522.2279c-1.9777,2.5442-4.2564,5.0283-6.0121,7.7343-.0789.1217-.1812.2331-.27.3479l2.5184-.325-25.6352-17.4125-48.8592-33.1875-31.079-21.11a5.3367,5.3367,0,0,0-1.7391-.7628l-6.192-1.6343-24.6151-6.4969-46.1547-12.182-.8365-.2208c-2.5887-.6832-3.693,3.3248-1.1049,4.0079l39.7163,10.4827,26.98,7.1211,8.729,2.3039,2.3727.6263a2.8309,2.8309,0,0,0,.538.142c.3619.0145-.0031.2388-.32-.1571a10.3065,10.3065,0,0,0,2.1767,1.4785l5.5956,3.8008,18.5477,12.5984,48.8967,33.2129c10.128,6.8794,20.1112,14.0662,30.4248,20.6659.1561.1.3071.2086.46.3127a2.0788,2.0788,0,0,0,2.5184-.3249l9.1153-11.7266,21.89-28.16,26.48-34.0657,22.8863-29.4424,7.5167-9.67a39.783,39.783,0,0,0,3.5824-4.6086,1.8011,1.8011,0,0,1,.1622-.2088l-1.47.6087,40.6855-1.6545,5.82-.2366-2.0782-2.0782-.4212,33.9814-.06,4.8514.6086-1.4695-12.7333,16.2333-28.6239,36.4917L795.661,540.3234l-17.4369,22.23c-9.3331,11.8985-18.2721,25.68-31.777,33.2533-8.9215,5.003-19.1869,6.0767-29.1829,4.3884a78.4243,78.4243,0,0,1-9.7579-2.3351,56.46,56.46,0,0,1-8.4093-2.9606c-.4955-.2437-.9633-.5843-1.4348-.87l-24.3455-14.766-41.383-25.1-40.9482-24.8359L567.5287,515.1l-1.12-.6792c-2.293-1.3908-4.3842,2.2021-2.0978,3.5889Z"/><path class="cls-4" d="M559.9252,543.2191l83.5141,43.7356c-2.1023-13.7613,9.93-45.6062,17.5906-58.6019a195.1716,195.1716,0,0,1,21.09-29.6516L634.902,466.629A72.1367,72.1367,0,0,0,612.78,456.5539l-66.576-17.5719"/><path d="M558.8763,545.0135l8.3065,4.35L587.1306,559.81l24.132,12.6377,20.859,10.9237c3.3685,1.764,6.7043,3.6231,10.1181,5.2987.0508.025.1005.0527.1507.079a2.1078,2.1078,0,0,0,3.0529-2.3469c-.0086-.0583-.0471-.4027-.0091-.0632-.0118-.1055-.0247-.211-.0347-.3167-.0239-.2529-.0473-.5056-.0647-.7592-.0365-.5342-.0544-1.07-.059-1.6052-.01-1.1762.0472-2.3527.1457-3.5245a63.916,63.916,0,0,1,1.18-7.6592,143.1725,143.1725,0,0,1,5.1493-18.0217,178.3339,178.3339,0,0,1,6.8591-16.93,139.3961,139.3961,0,0,1,9.36-16.4518,175.2016,175.2016,0,0,1,15.619-20.9,2.1149,2.1149,0,0,0-.4206-3.2639l-21.0322-14.2859L636.6952,465.34a76.3588,76.3588,0,0,0-22.504-10.5578c-2.2965-.6358-4.6076-1.2218-6.9115-1.83L573.0945,443.93c-8.6325-2.2785-17.2413-4.6967-25.909-6.8384-.1436-.0355-.2863-.0756-.4294-.1134-2.5887-.6832-3.693,3.3248-1.1049,4.0079l21.8031,5.7547,35.5211,9.3754q4.4425,1.1726,8.8851,2.3451a71.9955,71.9955,0,0,1,22.0508,10.0019q11.1144,7.5277,22.2089,15.0853l24.51,16.6479.4408.2994-.4206-3.2639A177.7074,177.7074,0,0,0,666.2851,516.08a149.108,149.108,0,0,0-10.5733,17.8956A167.34,167.34,0,0,0,642.93,569.82c-1.2889,5.74-2.3576,11.8081-1.4943,17.6876l3.0528-2.3469-8.3066-4.35-19.9477-10.4465-24.132-12.6377-20.859-10.9237c-3.3685-1.764-6.7043-3.623-10.1181-5.2987-.0509-.025-.1005-.0527-.1507-.079-2.3673-1.24-4.4708,2.3462-2.0978,3.5889Z"/><path d="M643.7626,586.7272c3.748,2.2094,10.938-2.2862,19.3451-11.2257l-18.8036-11.4048C640.4746,575.92,639.986,584.501,643.7626,586.7272Z"/><path d="M642.7137,588.5217c3.1207,1.7521,6.7963.4074,9.6617-1.2226,4.6232-2.63,8.5762-6.4895,12.2018-10.3281a2.1053,2.1053,0,0,0-.4206-3.264l-16.4228-9.9607-2.3808-1.444a2.1029,2.1029,0,0,0-3.0528,1.242c-1.64,5.1-3.1249,10.49-3.2075,15.8847-.0509,3.3187.5595,7.2,3.621,9.0927,2.2816,1.41,4.3712-2.1836,2.0977-3.5889-.4709-.2911.0656.1122-.3318-.2563-.0412-.0382-.3473-.3762-.1625-.1555.181.2163-.1253-.1835-.1335-.1974a3.3588,3.3588,0,0,1-.5661-1.299,13.2645,13.2645,0,0,1-.3406-4.4416,55.0031,55.0031,0,0,1,3.0312-13.9338l-3.0529,1.242,16.4228,9.9607,2.3808,1.444-.4206-3.2639a54.133,54.133,0,0,1-10.6325,9.2469,13.0537,13.0537,0,0,1-3.9785,1.7947c-.1633.0385-.9143.1376-.51.1052-.3008.0241-.5941.02-.8954.0165-.4053-.0043.2052.0558-.0328.0007-.1324-.0306-.2649-.0645-.3972-.0945-.5309-.12.0977.1-.3808-.1687C642.4763,583.6218,640.3786,587.2107,642.7137,588.5217Z"/><path class="cls-3" d="M868.9556,412.0062,822.45,413.8974,730.818,531.78l-29.1353-19.79-19.5633-13.2885a195.1716,195.1716,0,0,0-21.09,29.6516,210.4361,210.4361,0,0,0-17.4634,38.3579l21.4744,13.1618,42.7209,27.914c45.9971,18.5614,61.6265-7.1785,80.9312-31.7893L868.4742,450.839Z"/><path d="M868.9556,409.928l-17.09.695L826.37,411.66c-1.3768.056-4.3159-.3129-5.3972.7791a17.69,17.69,0,0,0-1.2669,1.63l-8.0881,10.405-13.5566,17.44-16.7,21.4843-17.519,22.5376-16.0759,20.681-12.16,15.6437c-1.99,2.56-4.1255,5.06-5.9942,7.7113-.082.1163-.1755.2258-.2629.3382l2.5184-.325L710.903,515.7456,694.3919,504.53l-11.2236-7.6237a2.0869,2.0869,0,0,0-2.5184.325c-14.1121,15.9765-25.2322,34.7745-33.5456,54.3516-2.032,4.7851-3.9325,9.63-5.5418,14.575a2.1092,2.1092,0,0,0,.9551,2.3469c7.675,4.704,15.4776,9.2433,23.0136,14.1674l33.0027,21.5641,6.2859,4.1072a23.63,23.63,0,0,0,4.969,2.4532c10.5317,3.9673,21.9254,6.4923,33.1951,4.89,8.7318-1.2415,16.6038-5.263,23.35-10.8465,6.7053-5.5494,12.2016-12.4019,17.5227-19.2418,2.5648-3.297,5.3209-6.4979,7.5684-10.0238l5.0843-7.9761,19.4576-30.5244,24.7151-38.7722,20.96-32.8813,6.3975-10.0361,1.7139-2.6888a3.6865,3.6865,0,0,0,.799-1.8654c.1013-1.4511.0363-2.933.0544-4.3868l.1221-9.85.2582-20.8318.0466-3.756c.0331-2.6754-4.1232-2.677-4.1564,0l-.4217,34.0176-.06,4.8152.2838-1.0489-6.9932,10.9707-17.0454,26.74-21.41,33.5871-19.8736,31.1771-12.6451,19.8373-1.3575,2.13c-.1164.1827-.2317.3661-.3493.548-.28.4331.2789-.3243-.1473.2136-4.8507,6.1232-9.4468,12.4487-14.6538,18.2824-4.8077,5.3862-10.1427,10.3894-16.5186,13.8681a41.7115,41.7115,0,0,1-21.8536,4.8565,64.2053,64.2053,0,0,1-14.4049-2.4113c-2.7415-.7572-5.445-1.65-8.11-2.6415a16.7264,16.7264,0,0,1-2.765-1.1246c-3.2238-1.9508-6.3284-4.135-9.4823-6.1958l-30.0062-19.6061c-6.841-4.47-13.8844-8.63-20.8512-12.9l-3.5972-2.2047.955,2.3469a201.66,201.66,0,0,1,27.8659-54.24,158.2845,158.2845,0,0,1,10.1526-12.8521l-2.5184.325q9.7588,6.6288,19.5177,13.2575,10.1254,6.8778,20.2511,13.7554l8.93,6.0654a2.0788,2.0788,0,0,0,2.5184-.3249l9.121-11.734L763.31,493.34l26.4894-34.0777,22.8846-29.44,7.4976-9.6454a55.2315,55.2315,0,0,0,3.5825-4.6088,2.4025,2.4025,0,0,1,.1558-.2l-1.47.6087,15.6556-.6367L863.21,414.318l5.7453-.2336C871.6209,413.976,871.6347,409.8191,868.9556,409.928Z"/><path class="cls-3" d="M807.9472,432.5553l7.8157-10.0113a115.3107,115.3107,0,0,0,13.5225-22.0355c2.8539-6.0905,6.3482-14.1186,10.0108-23.8633,0,0,6.3185-16.8134,12.0913-12.1774S856.177,385.63,856.177,385.63s12.23-21.9057,26.2912-12.2889c13.789,9.43,36.9966,29.2716,10.5659,54.814a14.2334,14.2334,0,0,0-2.58,3.3394c-2.7536,4.98-11.216,18.5043-22.1637,19.0325"/><path d="M809.4167,434.0248c2.8074-3.5961,5.6339-7.1783,8.42-10.7911,6.821-8.8451,11.9848-18.5526,16.4472-28.7563q3.4411-7.8684,6.4943-15.8994c.316-.83.6242-1.6606.965-2.4809-.2044.4919.0254-.0565.1085-.2469q.1559-.3565.3165-.7108.4184-.9216.8714-1.8269c1.27-2.5328,2.8114-5.3691,4.8177-6.9282-.05.0391.4137-.2672.5677-.3681.4871-.319-.0591-.0011.455-.208a2.134,2.134,0,0,1,.32-.08c-.502.1128-.0481.0023.091.01.115.0062.3846.0458-.0682-.0322a3.3627,3.3627,0,0,1,.4846.1249c-.3894-.1286.3322.2033.4706.3088-.2018-.1537.3431.3492.4387.4516a7.7814,7.7814,0,0,1,1.1551,1.74c1.6339,3.1562,2.071,7.1969,2.2816,10.7889a55.8872,55.8872,0,0,1,.0453,6.51c-.1215,2.0832,2.8942,2.7955,3.8726,1.0489a36.7665,36.7665,0,0,1,3.0091-4.456c-.2446.3166.1772-.2217.1811-.2265.1111-.1382.2219-.2766.334-.4139q.3837-.47.78-.9282c.6124-.7071,1.2488-1.3938,1.9122-2.0533a23.9466,23.9466,0,0,1,4.1674-3.4012c3.208-2.0258,6.738-2.9226,10.3726-1.5313a23.02,23.02,0,0,1,5.0111,3.0945c1.5549,1.1205,3.0211,2.2426,4.4924,3.4645,6.409,5.3224,12.6246,12.0212,14.3813,20.429a21.814,21.814,0,0,1-1.55,13.1688,34.7278,34.7278,0,0,1-4.5159,7.4041c-2.1562,2.7457-4.9343,4.9709-6.9767,7.7889-1.2514,1.7266-2.1909,3.7-3.3641,5.4847a50.1017,50.1017,0,0,1-4.4792,5.8872c-3.4675,3.8821-8.0018,7.7346-13.437,8.0587-2.6581.1585-2.6762,4.3159,0,4.1563,10.4994-.626,18.1828-10.226,23.1263-18.6065.4981-.8444.9415-1.73,1.4989-2.537a40.9116,40.9116,0,0,1,3.9523-4.2469,47.1579,47.1579,0,0,0,6.1282-8.0857,27.9988,27.9988,0,0,0,4.1484-15.6813c-.58-9.7037-6.7207-17.8956-13.6991-24.1922a77.3474,77.3474,0,0,0-10.4645-8.0613,14.6589,14.6589,0,0,0-13.1512-1.365c-6.6111,2.5412-12.0384,8.6672-15.4469,14.7519l3.8727,1.0488c.3218-5.5166.0217-11.5825-1.8052-16.8231-1.0775-3.0911-3.1569-6.9289-6.8362-7.2067-3.2494-.2454-5.7332,2.6-7.4386,4.989-3.9681,5.5586-5.925,12.4247-8.4719,18.6678-4.3,10.5394-8.9964,20.9408-15.4421,30.3659-3.655,5.3444-7.8012,10.3619-11.7835,15.463a2.146,2.146,0,0,0,0,2.9389,2.0919,2.0919,0,0,0,2.939,0Z"/><path class="cls-3" d="M892.5887,409.8443c9.6656-6.3452,24.6469-15.31,36.7971-19.9845,14.3346-3.9962,17.638,6.31,4.9149,13.4327s-21.9717,12.7109-42.8919,26.3833"/><path d="M893.6375,411.6388a269.7116,269.7116,0,0,1,23.2545-13.7469,130.6212,130.6212,0,0,1,12.349-5.7564,16.5029,16.5029,0,0,1,5.8648-1.09,8.0593,8.0593,0,0,1,3.6426.6984,2.45,2.45,0,0,1,1.0184.8209c.2055.2475-.1967-.2337-.0006.0143a1.4291,1.4291,0,0,1,.1807.3074c.1264.2908-.1046-.3078.0082-.011.053.1395.0891.2827.1326.425a2.55,2.55,0,0,1,.0728.3529c-.0626-.4145-.02-.092-.02-.0037,0,.1586.0006.3154-.0067.4738-.0154.3336.06-.3067.0056.0333a5.8274,5.8274,0,0,1-.4575,1.4579c-1.577,3.1221-4.7574,4.9414-7.6912,6.5906q-8.38,4.7107-16.5915,9.71c-8.4448,5.1648-16.7528,10.5514-25.0391,15.9657-2.2306,1.4575-.15,5.0577,2.0978,3.5889,13.7381-8.9766,27.5691-17.7782,41.8812-25.8166,3.3905-1.9043,6.9275-4.1969,8.8209-7.7285,1.4153-2.64,1.6475-5.8424-.3947-8.2293-2.215-2.589-6.0931-3.0372-9.2786-2.7158-4.8044.4847-9.1495,2.641-13.4559,4.7022A245.968,245.968,0,0,0,891.54,408.05c-2.228,1.4607-.1479,5.0611,2.0977,3.5889Z"/><path class="cls-3" d="M873.356,386.9812c9.588-23.0794,14.0878-32.867,20.59-45.918s-2.031-19.7071-11.6261-8.3324C868.9127,352.1069,856.177,385.63,856.177,385.63S884.82,414.1624,874.39,430.4193"/><path d="M875.36,387.5337c4.3643-10.5023,8.779-20.99,13.5665-31.3076q2.7539-5.9353,5.664-11.7965c2.1789-4.4074,4.8712-9.6534,3.282-14.7074-1.3561-4.3125-5.67-5.82-9.7049-4.175-5.331,2.1738-8.4484,7.1122-11.3222,11.8154A255.38,255.38,0,0,0,861.83,366.7288c-2.6952,6.05-5.3031,12.1563-7.6574,18.3488a2.0459,2.0459,0,0,0,.5345,2.0219,95.93,95.93,0,0,1,8.6135,10.0259c4.77,6.3331,9.4132,13.5,10.9271,21.3943a14.7986,14.7986,0,0,1-1.653,10.8507c-1.4295,2.27,2.1654,4.3581,3.5889,2.0978,4.6672-7.4109,2.1486-16.5687-1.3978-23.87a89.4249,89.4249,0,0,0-13.5229-19.5262c-1.17-1.3336-2.36-2.6585-3.6168-3.9118l.5344,2.0219a311.176,311.176,0,0,1,18.84-40.8616c1.27-2.2788,2.5844-4.5335,3.961-6.75a32.1245,32.1245,0,0,1,4.5552-6.26c1.4892-1.4557,3.3286-2.94,5.4482-3.2873a2.8808,2.8808,0,0,1,1.6192.1693c-.4594-.1807.6276.4238.2477.1323a3.6348,3.6348,0,0,1,.4242.4006c.3864.41-.1452-.2742.1649.2158a4.5634,4.5634,0,0,1,.6442,1.7724,9.4886,9.4886,0,0,1-.1,2.9663,27.2255,27.2255,0,0,1-2.7951,7.269q-2.746,5.547-5.3748,11.151c-5.1241,10.9743-9.8169,22.1458-14.4639,33.3283a2.0907,2.0907,0,0,0,1.4515,2.5564,2.1314,2.1314,0,0,0,2.5564-1.4515Z"/><path class="cls-3" d="M873.4925,386.4651s16.2488-28.7883,32.9649-45.3946c11.5084-9.4343,18.6852-1.3336,9.9117,10.3127s-16.1167,23.1135-29.7525,44.0575"/><path d="M875.287,387.514c2.4154-4.2762,5.021-8.4528,7.6759-12.583a233.33,233.33,0,0,1,18.014-24.8125c3.2538-3.84,6.6661-8.3608,11.4218-10.3829a9.9489,9.9489,0,0,1,2.3968-.6886,5.5907,5.5907,0,0,1,1.2961-.0058c-.3593-.0448.9493.2946.5612.1311a2.4142,2.4142,0,0,1,1.5252,2.2646c.3548,4.3812-3.1547,8.2581-5.6,11.5773q-3.7357,5.0721-7.2834,10.279c-7.0125,10.2394-13.7026,20.699-20.473,31.0986-1.4636,2.2483,2.1334,4.3336,3.5889,2.0978,6.43-9.8764,12.7932-19.8013,19.4166-29.55,2.5211-3.7106,5.09-7.3887,7.7391-11.0094,2.9558-4.04,6.3489-8.0534,6.76-13.2615.3217-4.0759-2.2641-7.5829-6.46-7.8012-5.3092-.2763-9.9988,3.7066-13.381,7.3106a201.0952,201.0952,0,0,0-20.3888,26.4893c-3.6353,5.4669-7.169,11.03-10.3991,16.7487-1.3173,2.3321,2.2719,4.4293,3.5889,2.0978Z"/><path class="cls-3" d="M886.4009,395.61s22.51-24.21,42.6353-36.4636c13.39-6.4929,18.4815,3.0572,7.2357,12.3385s-24.1129,20.35-42.2537,37.54"/><path d="M887.87,397.079c3.34-3.59,6.8419-7.04,10.38-10.4324a233.8528,233.8528,0,0,1,23.2668-19.9243c4.1454-3.0425,8.6415-6.7614,13.879-7.5322a5.6614,5.6614,0,0,1,4.2266.6611c-.3627-.2693.5091.5731.2179.1983.0958.1233.4525.8354.3277.512a3.1829,3.1829,0,0,1,.1969,1.6037c-.5744,4.4392-5.1437,7.4908-8.2952,10.1138q-5.1458,4.2828-10.2143,8.657c-9.9891,8.6276-19.7252,17.5432-29.3075,26.6193-1.946,1.8432.9966,4.7788,2.939,2.939,9.0826-8.6028,18.3025-17.0622,27.7468-25.2673q5.4922-4.7716,11.0809-9.4307c3.8367-3.2006,8.1526-6.368,9.7637-11.33,1.26-3.8825-.34-7.91-4.3787-9.143-4.956-1.5137-10.4182,1.1219-14.456,3.7607A199.1013,199.1013,0,0,0,899.072,380.16c-4.8531,4.5052-9.6282,9.1306-14.1406,13.9805-1.82,1.9565,1.1123,4.9024,2.939,2.939Z"/><path class="cls-5" d="M887.2062,535.6128,515.3253,660.1967a61.98,61.98,0,0,1-63.4048-14.8332L175.7873,370.616,81.1047,778.86a40.2213,40.2213,0,0,0,30.0942,48.2685L744.255,973.9511a40.2214,40.2214,0,0,0,48.2686-30.0942Z"/><path d="M886.6537,533.6089,847.4878,546.73,753.915,578.0777l-110.8023,37.12-91.839,30.767-27.4215,9.1865c-5.36,1.7956-10.7512,3.8451-16.2943,4.9851-20.3666,4.1886-40.7246-2.8978-55.2883-17.357q-6.7391-6.6906-13.4635-13.3959L378.563,569.4424l-81.7574-81.347-75.6507-75.2711-41.9232-41.7128-1.9749-1.965a2.0962,2.0962,0,0,0-3.4734.917l-8.2175,35.4313-20.13,86.7944L120.267,600.8108l-23.6958,102.17L81.4335,768.2494c-.7767,3.3492-1.5945,6.6918-2.3308,10.05a42.8135,42.8135,0,0,0,31.5832,50.8421c8.5489,2.0839,17.149,3.9773,25.7206,5.9653l64.759,15.0193,92.1433,21.37L400.52,896.3619l109.75,25.454,101.2808,23.49,79.293,18.39,46.1342,10.7c2.2368.5188,4.4694,1.065,6.7124,1.5568a42.8146,42.8146,0,0,0,50.8482-31.593c3.0372-12.4664,5.8-25.0063,8.6985-37.5053l20.3976-87.9485,25.3111-109.1344,23.37-100.7648,14.8313-63.9479,2.0625-8.8931c.6036-2.6027-3.4028-3.7137-4.0079-1.1049l-8.11,34.9662-19.8177,85.4481L832.2283,763.4688,808.72,864.8288l-15.4835,66.7606c-.893,3.85-1.7453,7.7127-2.68,11.5532a38.6109,38.6109,0,0,1-45.8921,28.7715c-8.9534-1.98-17.87-4.1445-26.8025-6.2162l-65.2882-15.1421-91.5081-21.2231L454.9339,904.7178l-109.37-25.3659-100.028-23.1991-79.5425-18.448-46.6891-10.8284c-2.4894-.5774-4.9874-1.1267-7.47-1.7326a38.6132,38.6132,0,0,1-28.6694-45.9726c2.9631-13.3535,6.1822-26.6555,9.2725-39.98l20.4592-88.2144,25.1716-108.5325,23.1153-99.6669,14.5747-62.8417,2.0334-8.7673-3.4735.917,29.8233,29.6736,70.6774,70.3227,83.3432,82.925,67.82,67.48,19.28,19.1836c5.8339,5.8046,11.5869,11.4229,18.8712,15.5319,16.4534,9.2811,35.6542,10.3886,53.4008,4.4433l18.28-6.124,81.38-27.2632,109.7716-36.7746L828.79,557.3718l56.3444-18.876,2.624-.879C890.282,536.7714,889.2,532.7559,886.6537,533.6089Z"/><path d="M644.68,616.793l3.5259,9.44,9.5148,25.4733,14.0529,37.6233,17.2572,46.2016,18.7829,50.2867,19.0192,50.919L744.5649,884.21l14.9387,39.9945,10.78,28.8608c1.7012,4.5543,3.3781,9.1185,5.1037,13.6637.0735.1937.145.3882.2175.5823.9275,2.4833,4.9466,1.4082,4.0078-1.1049l-3.5259-9.44-9.5147-25.4733L752.519,893.67l-17.2571-46.2016-18.783-50.2867L697.46,746.2631l-17.7323-47.4737-14.9387-39.9946-10.78-28.8607c-1.7011-4.5544-3.3781-9.1186-5.1036-13.6637-.0736-.1937-.145-.3882-.2175-.5823-.9276-2.4833-4.9466-1.4083-4.0079,1.1049Z"/><path d="M348.0354,544.1131l-1.8336,1.81-5.2538,5.185-8.2564,8.1483-10.9707,10.8271L308.44,583.1907l-15.2216,15.0224-16.7914,16.5716-17.9013,17.6669-18.8167,18.57-19.277,19.0248L201.0645,689.16l-19.0864,18.8366L163.5426,726.191,146.21,743.2968l-16.03,15.82L115.9105,773.2l-12.1386,11.98-9.6374,9.5112-6.74,6.6522-3.54,3.4937-.44.4338c-1.9067,1.8818,1.0325,4.82,2.939,2.939L88.1871,806.4l5.2537-5.185,8.2564-8.1484,10.9707-10.8271,13.2814-13.1075,15.2216-15.0224,16.7915-16.5717,17.9012-17.6669L194.68,701.3l19.2771-19.0247,19.3669-19.1135,19.0864-18.8366,18.4355-18.1942,17.3327-17.1057,16.03-15.82,14.2695-14.0827,12.1387-11.98,9.6373-9.5112,6.74-6.6521,3.54-3.4938.44-.4338c1.9068-1.8818-1.0325-4.8205-2.9389-2.939Z"/><circle class="cls-6" cx="584.3385" cy="223.4656" r="24.9381"/><path d="M607.1984,223.4656A22.8591,22.8591,0,1,1,588.77,201.03a23.0675,23.0675,0,0,1,18.4283,22.4354c.0185,2.6735,4.1749,2.68,4.1564,0a27.019,27.019,0,1,0-21.6464,26.4771c12.5082-2.4481,21.5589-13.8415,21.6464-26.4771C611.3733,220.7905,607.217,220.7877,607.1984,223.4656Z"/><circle class="cls-6" cx="458.9553" cy="729.8474" r="24.9381"/><path d="M481.8153,729.8474a22.8591,22.8591,0,1,1-18.4284-22.4354,23.0675,23.0675,0,0,1,18.4284,22.4354c.0185,2.6735,4.1749,2.6795,4.1563,0a27.019,27.019,0,1,0-21.6463,26.4771c12.5082-2.4482,21.5588-13.8416,21.6463-26.4771C485.99,727.1723,481.8338,727.17,481.8153,729.8474Z"/><ellipse class="cls-7" cx="224.1217" cy="216.861" rx="38.4462" ry="41.8861"/><path d="M226.2,258.7472c.0615-15.61,8.7748-31.3349,23.6549-37.3216a34.3928,34.3928,0,0,1,12.7132-2.4864c2.6743-.0125,2.6788-4.1438,0-4.1563-15.7677-.0737-29.147-11.2534-34.0919-25.9079a43.8653,43.8653,0,0,1-2.2762-13.9c-.0105-2.6743-4.1458-2.6788-4.1563,0-.0614,15.61-8.7747,31.3349-23.6548,37.3215a34.3909,34.3909,0,0,1-12.7132,2.4865c-2.6744.0125-2.6788,4.1438,0,4.1563,15.7676.0737,29.1469,11.2534,34.0919,25.9079a43.8647,43.8647,0,0,1,2.2761,13.9c.0105,2.6739,4.1669,2.6792,4.1563,0-.0691-17.5581-9.9954-34.551-26.5567-41.27a37.6959,37.6959,0,0,0-13.9676-2.6947v4.1563c17.6153-.0823,32.4626-12.4644,38.0448-28.7965a47.5834,47.5834,0,0,0,2.48-15.1678h-4.1563c.0691,17.5581,9.9954,34.551,26.5568,41.27a37.6975,37.6975,0,0,0,13.9676,2.6947v-4.1563c-17.6153.0823-32.4627,12.4644-38.0449,28.7964a47.5845,47.5845,0,0,0-2.48,15.1679C222.033,261.422,226.1893,261.4255,226.2,258.7472Z"/><ellipse class="cls-7" cx="830.2558" cy="270.8936" rx="38.4462" ry="41.8861"/><path d="M832.334,312.78c.0614-15.61,8.7747-31.3349,23.6548-37.3215a34.3909,34.3909,0,0,1,12.7132-2.4865c2.6743-.0124,2.6788-4.1438,0-4.1563-15.7677-.0737-29.1469-11.2534-34.0919-25.9079a43.8619,43.8619,0,0,1-2.2761-13.9c-.0106-2.6743-4.1458-2.6788-4.1564,0-.0614,15.61-8.7747,31.3349-23.6548,37.3216a34.3928,34.3928,0,0,1-12.7132,2.4864c-2.6744.0125-2.6788,4.1438,0,4.1563,15.7676.0737,29.1469,11.2534,34.0919,25.9079a43.8624,43.8624,0,0,1,2.2761,13.9c.01,2.6739,4.1669,2.6793,4.1564,0-.0691-17.5581-9.9955-34.551-26.5568-41.27a37.6979,37.6979,0,0,0-13.9676-2.6947v4.1563c17.6153-.0822,32.4626-12.4643,38.0448-28.7964a47.5869,47.5869,0,0,0,2.48-15.1679h-4.1564c.0691,17.5581,9.9954,34.551,26.5568,41.27a37.6959,37.6959,0,0,0,13.9676,2.6947v-4.1563c-17.6153.0823-32.4626,12.4644-38.0449,28.7965a47.5834,47.5834,0,0,0-2.48,15.1678C828.1671,315.4545,832.3234,315.4581,832.334,312.78Z"/><ellipse class="cls-7" cx="756.827" cy="158.0524" rx="45.3735" ry="49.4332"/><path d="M758.9051,207.4856c.0621-18.6,10.4752-37.2724,28.1814-44.4035A40.8077,40.8077,0,0,1,802.2,160.1305c2.6744-.0106,2.6788-4.1457,0-4.1563-18.7777-.0744-34.6975-13.4024-40.5922-30.8395a51.9833,51.9833,0,0,1-2.7031-16.5155c-.0089-2.6744-4.1474-2.6788-4.1563,0-.0621,18.6-10.4752,37.2724-28.1814,44.4035a40.81,40.81,0,0,1-15.1139,2.9515c-2.6743.0106-2.6788,4.1457,0,4.1563,18.7778.0744,34.6976,13.4024,40.5923,30.8395a51.9834,51.9834,0,0,1,2.703,16.5156c.0089,2.674,4.1653,2.6792,4.1563,0-.0687-20.5941-11.76-40.6066-31.2328-48.4114a44.15,44.15,0,0,0-16.2188-3.1v4.1563a45.2991,45.2991,0,0,0,27.4974-9.5448A51.6037,51.6037,0,0,0,756.0537,126.24a55.7766,55.7766,0,0,0,2.8514-17.62h-4.1563c.0687,20.594,11.7605,40.6065,31.2328,48.4113a44.15,44.15,0,0,0,16.2188,3.1v-4.1563a45.2991,45.2991,0,0,0-27.4974,9.5448A51.604,51.604,0,0,0,757.6,189.8651a55.774,55.774,0,0,0-2.8515,17.62C754.74,210.16,758.8962,210.164,758.9051,207.4856Z"/><line class="cls-1" x1="481.1225" y1="603.0788" x2="472.8098" y2="657.804"/><path d="M479.1186,602.5263l-2.8115,18.5091-4.4779,29.4794-1.0233,6.7368a2.1453,2.1453,0,0,0,1.4515,2.5564,2.0939,2.0939,0,0,0,2.5564-1.4515l2.8115-18.5092,4.4779-29.4793,1.0233-6.7368a2.1452,2.1452,0,0,0-1.4515-2.5564,2.0938,2.0938,0,0,0-2.5564,1.4515Z"/><path d="M464.9885,597.8386l-2.4758,17.3308c-.3407,2.3846-.6889,4.7683-1.022,7.154a20.0882,20.0882,0,0,0,4.3452,15.7935c2.1845,2.6461,5.0827,4.8063,7.6372,7.08,1.9922,1.7733,4.942-1.1561,2.939-2.939-1.9161-1.7056-3.85-3.3932-5.749-5.1174a15.8174,15.8174,0,0,1-4.59-7.0778,15.37,15.37,0,0,1-.6827-3.9682,20.6558,20.6558,0,0,1,.0726-2.3258c.0032-.0414.0775-.6843.02-.2289.0033-.0257.0077-.0512.011-.0769.7707-5.9085,1.686-11.8017,2.5286-17.7l.9742-6.8193a2.1482,2.1482,0,0,0-1.4515-2.5564,2.0933,2.0933,0,0,0-2.5564,1.4515Z"/><path d="M179.525,319.324A128.1335,128.1335,0,0,0,157.32,302.2754c-10.5352-6.4143-26.4223-13.7627-37.8338-5.1986-3.5673,2.6772-7.8011,7.388-7.337,12.2378.3485,3.6428,3.3775,6.0716,6.8388,6.6759a14.1259,14.1259,0,0,0,10.8056-2.5481,14.6105,14.6105,0,0,0,5.559-12.4234c-.2022-6.1943-2.93-12.6505-6.3552-17.7319-3.8052-5.6446-9.4806-10.1509-15.3446-13.476a61.8669,61.8669,0,0,0-7.7812-3.6687,2.0931,2.0931,0,0,0-2.5564,1.4515,2.1276,2.1276,0,0,0,1.4515,2.5564A47.9662,47.9662,0,0,1,124.24,283.8282c.15.1818.2958.3662.443.55.3029.3782-.2054-.2731-.0266-.0351.0632.0841.128.1671.19.2522.19.2616.3819.5216.5627.79.4733.7022.887,1.4445,1.3,2.1826a37.5238,37.5238,0,0,1,3.9579,9.6668,15.8456,15.8456,0,0,1,.5221,3.5933,17.2965,17.2965,0,0,1-.0163,1.8471c-.0167.2616-.0419.5222-.07.7828-.0368.345.0852-.5038-.005.0362-.0273.1636-.0538.3272-.0851.49a13.2326,13.2326,0,0,1-.3454,1.3927c-.0752.2441-.1655.4819-.247.7236-.1838.5455.1237-.19-.1662.3913-.2026.4062-.41.8066-.651,1.1916-.111.177-.2323.3465-.3474.5207-.3554.5378.1554-.13-.2166.2831-.2842.3155-.56.6322-.8686.9254-.1432.1363-.2927.2645-.44.3966-.0809.0728-.1682.1384-.2514.2085-.1484.1253.3933-.2755.0088-.0081a15.5591,15.5591,0,0,1-2.146,1.2486c-.3932.19.3635-.1429.0927-.0367-.0968.038-.1924.08-.2906.1143-.176.0617-.35.1276-.5274.1857a12.4565,12.4565,0,0,1-1.2434.337c-.1776.0383-.3571.0668-.5349.1032-.5788.1185.1332-.0006-.1.0194-.3916.0336-.78.0716-1.1734.0782-.3826.0065-.7617-.0148-1.1432-.038-.149-.0091-.2969-.0314-.4452-.0473.7562.0812-.03-.0154-.2055-.0518a9.0662,9.0662,0,0,1-.9272-.2421c-.1646-.0528-.3243-.1185-.4881-.1729-.1256-.0417.4034.228-.06-.0336-.285-.1608-.566-.3245-.8481-.49-.3513-.2063-.1295-.1113.0018.0106-.1261-.1171-.26-.2234-.382-.3452-.109-.1088-.2032-.2335-.3127-.3408-.2041-.2.253.46.0474.0548-.0665-.1312-.1608-.2656-.2406-.3907-.1893-.2968-.163-.427-.0443-.0483-.0906-.2892-.1611-.5784-.2432-.8691-.0516-.183-.0057.5458.0082.01.005-.1879-.0065-.3817-.0085-.57-.0018-.1742.1123-.818-.0139-.1016.03-.1713.0572-.3422.095-.5121a9.5313,9.5313,0,0,1,.3949-1.2646c.1048-.2809-.174.3239.0686-.14.1144-.2186.2195-.4414.3389-.6575a15.0746,15.0746,0,0,1,.8685-1.3784c.0606-.0861.567-.7539.3237-.446.1793-.2269.3641-.45.5522-.6692.49-.5723,1.0043-1.1267,1.5472-1.6493,3.92-3.773,9.4169-4.7873,14.6215-4.02,6.36.938,12.1917,3.6276,17.7166,6.7733a122.07,122.07,0,0,1,23.4287,17.4829c.1238.1164.2476.2328.37.3507,1.9253,1.8583,4.868-1.0771,2.939-2.9389Z"/><path class="cls-3" d="M495.67,427.1267l91.5143,22.6716s-13.5828,38.6345-71.7717,23.3946C490.4743,462.802,495.67,427.1267,495.67,427.1267Z"/><path d="M495.1173,429.1306l9.1023,2.255,21.8586,5.4152,26.4438,6.5512,22.8571,5.6626,7.504,1.859a34.1155,34.1155,0,0,0,3.5834.8877,1.5742,1.5742,0,0,1,.1652.0409l-1.4515-2.5564c-.0958.2714-.4784,1.0547-.074.2141-.2922.6074-.5536,1.2272-.8613,1.828a40.5509,40.5509,0,0,1-3.8432,6.0381c.2795-.3677.0288-.0365-.0994.1243-.1176.1474-.235.2948-.354.4411q-.3676.4521-.7473.8941-.8283.9647-1.7118,1.88a44.2156,44.2156,0,0,1-4.0811,3.73q-.2835.2283-.5706.4519c.3064-.238-.2131.16-.3145.2354q-.6446.4809-1.3063.9385-1.34.9267-2.7437,1.7558a47.5363,47.5363,0,0,1-5.9615,2.9644c-12.0106,4.8248-25.3982,4.7073-37.9572,2.3766q-3.2844-.6094-6.53-1.4075a18.1077,18.1077,0,0,1-4.8032-1.8931,26.8471,26.8471,0,0,1-6.8789-5.5754,34.48,34.48,0,0,1-7.2112-14.2656,61.78,61.78,0,0,1-1.4388-22.4158c.071-.6611-.0413.2775-.0183.1186a2.1477,2.1477,0,0,0-1.4515-2.5565,2.0934,2.0934,0,0,0-2.5564,1.4515,64.0584,64.0584,0,0,0,.6272,20.8279,43.3138,43.3138,0,0,0,6.215,16.0231c3.59,5.373,9.1907,10.48,15.592,12.09,14.0982,3.5456,29.43,4.99,43.5293.6447a48.4119,48.4119,0,0,0,22.4136-14.3226c2.7872-3.2231,5.7551-7.1643,7.0764-11.3028.02-.0621.0471-.1222.0688-.1837a2.0968,2.0968,0,0,0-1.4515-2.5564l-9.1023-2.255-21.8587-5.4152-26.4437-6.5512L507.4748,427.91c-3.688-.9136-7.37-1.9589-11.0874-2.7467-.0554-.0118-.11-.0273-.1652-.041C493.6259,424.48,492.5182,428.4867,495.1173,429.1306Z"/><path d="M461.4639,190.6452a57.5446,57.5446,0,0,0,5.87-9.1539,60.1022,60.1022,0,0,0,6.9548-22,42.5087,42.5087,0,0,0-1.2066-15.2028,2.1424,2.1424,0,0,0-2.004-1.5257c-4.65-.4-9.5083-.97-14.18-.497-1.5663.1585-3.81.53-3.8309,2.5734-.0172,1.695.23,3.4041.205,5.1107a52.53,52.53,0,0,1-1.8307,13.065A43.3563,43.3563,0,0,1,441.9,180.779a2.0965,2.0965,0,0,0,0,2.939A37.7219,37.7219,0,0,0,459.442,191.18a2.1475,2.1475,0,0,0,2.5564-1.4515,2.0933,2.0933,0,0,0-1.4515-2.5564,33.9028,33.9028,0,0,1-15.7084-6.3928v2.939c7.585-8.3895,11.5884-19.2043,12.4369-30.3966a38.4567,38.4567,0,0,0-.0058-8.0483,2.7706,2.7706,0,0,0-.0447-.4212c.3035.0564-.5273,1.35-.5606,1.3835.0834-.0829-.595.4112-.3033.245.222-.1264-.6518.1344-.2679.1145a5.1814,5.1814,0,0,0,.7573-.1705c.3647-.0816-.574.0557-.171.0222.1526-.0127.3049-.033.4575-.0466.3342-.03.6694-.0485,1.0046-.0631.888-.0386,1.7777-.039,2.6663-.0256,3.4291.0519,6.8548.3144,10.27.6082l-2.0039-1.5257c3.6735,13.7643-1.1269,28.314-8.8006,39.8377-.4654.6989-.9442,1.3893-1.4423,2.0654-.142.1928-.2913.3807-.4317.5747.4715-.6516.2483-.3181.1254-.1653a2.1414,2.1414,0,0,0,0,2.9389A2.0931,2.0931,0,0,0,461.4639,190.6452Z"/><path d="M42.9043,438.7424a57.92,57.92,0,0,0,10.9427.9007,58.9352,58.9352,0,0,0,22.3456-4.05,43.4412,43.4412,0,0,0,13.1145-8.2814,2.1468,2.1468,0,0,0,.325-2.5184c-1.79-4.2342-3.5383-8.6921-6.049-12.5712-.8006-1.237-1.9872-2.9518-3.7256-2.4767a5.0155,5.0155,0,0,0-1.2867.7245c-1.002.6332-2.0361,1.2164-3.0857,1.7668a52.7778,52.7778,0,0,1-12.413,4.6181,43.4816,43.4816,0,0,1-20.6984-.0571,2.098,2.098,0,0,0-2.5564,1.4515,37.9711,37.9711,0,0,0,1.6355,19.0413c.8888,2.5031,4.9062,1.4248,4.0079-1.1049a33.78,33.78,0,0,1-1.6356-16.8315l-2.5564,1.4515c11.1506,2.8355,22.7732,1.1771,33.1879-3.4667a32.13,32.13,0,0,0,6.7934-3.657c.2687-.2124.4208-.1243-.2944.073a1.9748,1.9748,0,0,1-1.451-.1707c.2887.164-.6-.3714-.1009-.0627.098.0607.1595.1941.2416.2728.2348.2252-.3245-.4656-.13-.17.0517.0783.1134.15.1653.2285,2.6589,4.0193,4.4953,8.6207,6.3626,13.0386l.3249-2.5184c-10.4413,9.6692-25.5947,12.1681-39.34,10.7735-.4817-.0489-.9621-.1076-1.443-.164-.5862-.0688.3817.0614-.149-.0195-.1612-.0246-.3228-.0462-.4841-.0708-.3147-.0481-.63-.0971-.9425-.1578C41.396,434.2273,40.277,438.2325,42.9043,438.7424Z"/><path d="M912.7461,468.4779a55.0828,55.0828,0,0,0,7.3684,7.5151A59.9314,59.9314,0,0,0,939.7987,487.71a42.5253,42.5253,0,0,0,15.0377,2.3131,2.1456,2.1456,0,0,0,2.0039-1.5257c1.524-4.6492,3.2517-9.4621,3.8176-14.3537.2015-1.7423-.1377-3.5258-2.1772-3.7869-.4722-.06-.08-.0157.0616.0119-.3828-.0746-.7742-.1167-1.1587-.1841-1.3446-.236-2.678-.537-3.998-.8848a52.5717,52.5717,0,0,1-12.0825-4.8126,43.2274,43.2274,0,0,1-14.7446-13.1262,2.123,2.123,0,0,0-3.2639-.4206,37.7914,37.7914,0,0,0-11.083,15.5157,2.0933,2.0933,0,0,0,1.4515,2.5564,2.1271,2.1271,0,0,0,2.5564-1.4515c.1839-.467-.1805.3895-.0064.01.1627-.3549.3167-.7135.4835-1.0665.5964-1.262,1.2569-2.4942,1.9707-3.6935a32.5358,32.5358,0,0,1,7.5663-8.9314l-3.264-.4206c6.3181,9.1475,15.7025,15.5015,26.2017,18.9316a49.57,49.57,0,0,0,8.0164,1.95c.3983.06.7983.1327,1.2.1621.14.01.2286.0853-.1817-.0264a2.3,2.3,0,0,1-1.1631-.5511c.0634.0634-.4092-.5806-.2774-.3472-.0627-.111-.2447-.6812-.1536-.3033-.1627-.6749-.03-.28-.0482.174-.0084.215-.0373.4276-.0557.6416-.0387.4491.0705-.39.0024-.0237-.0344.1846-.06.3711-.0924.556-.16.8978-.3643,1.7877-.5831,2.6727-.8427,3.4087-1.909,6.7622-3.0023,10.0973l2.004-1.5257c-14.2829.4354-27.3939-7.5577-36.8728-17.7166-.7865-.8429-1.5689-1.7013-2.2785-2.6112a2.09,2.09,0,0,0-2.939,0A2.1311,2.1311,0,0,0,912.7461,468.4779Z"/><path d="M911.6509,218.27a9.0031,9.0031,0,1,1-7.4344-8.8765,9.0881,9.0881,0,0,1,7.4344,8.8765c.0367,2.6723,4.1932,2.68,4.1564,0a13.3562,13.3562,0,0,0-8.6355-12.3528,13.1539,13.1539,0,1,0,8.6355,12.3528C915.844,215.5947,911.6877,215.5934,911.6509,218.27Z"/><polyline class="cls-3" points="562.518 454.489 572.216 405.306 527.189 412.233 518.876 444.098"/><path d="M564.5216,455.0418l3.28-16.6332,5.224-26.4932,1.1944-6.0571a2.1124,2.1124,0,0,0-2.5564-2.5564l-15.2368,2.3441-24.1738,3.7191-5.6165.8641a2.032,2.032,0,0,0-1.4515,1.4514l-7.2636,27.844-1.0491,4.0214c-.6757,2.59,3.3322,3.6951,4.0079,1.1049l7.2636-27.8439,1.0491-4.0214-1.4515,1.4514,15.2368-2.3441,24.1737-3.719,5.6166-.8641-2.5564-2.5564-3.28,16.6331-5.224,26.4933-1.1944,6.0571c-.5151,2.6126,3.49,3.7309,4.0079,1.1049Z"/><path d="M421.8946,295.1626a9.0032,9.0032,0,1,1-7.4344-8.8764,9.0881,9.0881,0,0,1,7.4344,8.8764c.0367,2.6724,4.1931,2.68,4.1563,0a13.3562,13.3562,0,0,0-8.6354-12.3528,13.154,13.154,0,1,0,8.6354,12.3528C426.0876,292.4871,421.9313,292.4859,421.8946,295.1626Z"/><path d="M576.0885,103.6341a29.0369,29.0369,0,0,0,3.5-11.385,19.6713,19.6713,0,0,0-9.3021-18.8635c-3.223-2.0667-8.0551-3.5444-10.6764.2371-1.9882,2.8683-1.2308,6.8974.2106,9.8165a12.677,12.677,0,0,0,9.5911,6.9163c6.4245.8773,12.4933-2.734,17.3074-6.5927,3.2423-2.5988,6.2853-5.8393,7.16-10.0454a13.1257,13.1257,0,0,0-1.9126-9.8149,16.24,16.24,0,0,0-6.5792-5.8632c-2.2147-1.0347-5.0229-1.688-7.2384-.2838-2.3605,1.4962-2.5832,4.49-2.1581,6.9873a18.4377,18.4377,0,0,0,3.545,7.7325c4.1158,5.4831,10.89,9.1574,17.7353,6.5379a19.4,19.4,0,0,0,5.5093-3.36,2.0941,2.0941,0,0,0,0-2.9389,2.1233,2.1233,0,0,0-2.939,0,11.3887,11.3887,0,0,1-8.2464,2.9916,11.5867,11.5867,0,0,1-6.3733-3.0835,17.9474,17.9474,0,0,1-4.3654-6.0686,13.59,13.59,0,0,1-.8871-3.1013c.0579.41-.0051-.1184-.0108-.2579-.0094-.2278-.0064-.4535-.01-.6812-.0018-.1084.0118-.2168.0188-.3248.02-.3048-.0717.3785-.0154.0868.0424-.22.1027-.4293.1576-.6455.0733-.289-.1.3512.0675-.1366.15-.4356.0721.0831.082-.13.0013-.0288.1945-.1822.1959-.1831-.2592.1759-.0824.1448-.0959.0923a2.4927,2.4927,0,0,1,.2358-.1275c-.2052.0774-.315.1692-.049.0388a1.1243,1.1243,0,0,1,.2736-.069c.2837-.0558-.4153.0325-.12.01.1791-.014.3557-.0182.5351-.0191.1621-.0009.7217.0786.2608.0025a7.85,7.85,0,0,1,.8581.193c.24.068.4753.1493.71.2345.059.0215.3642.1476.0448.0112.0917.0392.1827.0815.2725.1248a13.5265,13.5265,0,0,1,1.5478.872,12.5148,12.5148,0,0,1,2.5613,2.2783,9.82,9.82,0,0,1,2.5223,6.292c-.0077,3.1391-1.9639,5.9779-4.3057,8.0853a34.3089,34.3089,0,0,1-8.2815,5.6432,17.6536,17.6536,0,0,1-3.2332,1.1368q-.4058.1-.8165.18c-.0852.0164-.8435.1361-.4353.0828a12.6542,12.6542,0,0,1-1.5947.1034,12.4225,12.4225,0,0,1-1.4038-.0768c-.2458-.0271.1138.0151.1331.0182-.1086-.0175-.221-.032-.3287-.0557-.2659-.0584-.5323-.1088-.7957-.1786a11.1866,11.1866,0,0,1-1.1953-.3957c.3809.1484.05.0257-.1335-.0681-.2012-.1027-.4031-.2019-.6-.3134-.3432-.1944-.6671-.4138-.99-.6389-.2179-.1517.22.2132-.149-.1219-.1592-.1444-.324-.2816-.48-.43-.2741-.2609-.5223-.5414-.7768-.8207-.0628-.0689-.1187-.144-.1789-.2151-.1807-.2139.2338.316.0683.0913-.123-.1668-.2441-.3345-.3593-.5069q-.3024-.4528-.5608-.9331c-.1032-.1918-.5322-1.1662-.3023-.5864a12.8558,12.8558,0,0,1-.6081-2.0093c-.0162-.0738-.1119-.6588-.0536-.2636.0579.3927-.0177-.1784-.0226-.2556a9.7131,9.7131,0,0,1-.0239-.9727c.0054-.1454.0289-.2942.0289-.4393,0-.33-.1318.525-.002.0237.0718-.2775.1477-.5595.2154-.8377.0848-.348.082-.1476-.0484.0889.061-.1106.1071-.2288.171-.3383.0617-.1056.1408-.2064.1971-.3141.043-.0823-.3353.3136.02-.0011.5172-.4586-.2184.1637.1688-.16a2.7168,2.7168,0,0,1,.3184-.1783c-.22.1381-.3994.0866-.0156.0207a2.9015,2.9015,0,0,0,.3813-.0935c.2009-.0655-.5013-.0217-.0384.0121a4.2209,4.2209,0,0,0,.4413-.0037c.416-.0153.3019.03.0981-.0086a8.9091,8.9091,0,0,1,1.0366.2493c.1642.0516.3249.1124.4872.1694.3492.1225-.0015-.0072-.0622-.0332.1512.0648.3019.1331.4495.2056A15.6527,15.6527,0,0,1,575.54,89.57a21.5339,21.5339,0,0,1-1.0482,7.1176c-.2845.9447-.62,1.8713-.99,2.7856-.1114.2753.1488-.3445.0359-.0827-.0371.0862-.0734.1727-.112.2582-.0627.1388-.1236.2783-.1872.4167-.131.2853-.2663.5687-.4082.8487-.1061.2094-.2133.4189-.33.6226-1.3342,2.3236,2.2558,4.4194,3.5889,2.0978Z"/><path d="M684.363,365.68l10.3032-28.4852,1.4731-4.0729-2.5564,1.4515,18.1591,7.2636,2.6227,1.0491-.4965-3.7984-28.48,21.2085-4.0781,3.0369a2.1426,2.1426,0,0,0-.7456,2.8433,2.0932,2.0932,0,0,0,2.8434.7456l28.48-21.2085,4.0781-3.0369a2.1131,2.1131,0,0,0-.4964-3.7984l-18.1591-7.2636-2.6227-1.0491a2.1125,2.1125,0,0,0-2.5564,1.4515l-10.3031,28.4852-1.4732,4.0729C679.4438,367.0949,683.4587,368.18,684.363,365.68Z"/><path class="cls-3" d="M546.7476,418.7716a71.81,71.81,0,0,1-27.1788.3888c-38.1-16.6254-6.2346-85.2052-6.2346-85.2052L593.69,348.5024s6.6327,19.3239,4.1563,27.0163c-4.2646,13.2473-19.566,20.061-27.0162,36.7144l10.3909-1.3854"/><path d="M546.1951,416.7676a67.933,67.933,0,0,1-21.7965.9583,15.0858,15.0858,0,0,1-4.9708-.9069,31.3512,31.3512,0,0,1-2.7722-1.5154,24.5975,24.5975,0,0,1-4.5463-3.534c-5.4412-5.3077-8.0717-12.8828-8.8517-20.289a81.4159,81.4159,0,0,1,1.6739-24.73,154.8823,154.8823,0,0,1,6.1294-21.5646q1.2833-3.5682,2.7243-7.0772.1258-.3054.2531-.61c.046-.1107.0929-.2211.1391-.3318.0282-.0675-.2043.4772-.04.096.1363-.3167.2708-.6341.4084-.95a11.8426,11.8426,0,0,0,.5125-1.1548,1.3114,1.3114,0,0,1,.0707-.1542l-2.3469.9551,27.2269,4.929,43.2232,7.8249,9.9059,1.7933-1.4514-1.4515c.8447,2.4662,1.5668,4.98,2.2306,7.5a61.2069,61.2069,0,0,1,2.3961,13.8968,13.1928,13.1928,0,0,1-.8748,5.6669,27.3822,27.3822,0,0,1-3.6167,6.3531c-3.16,4.31-7.1641,7.9629-10.819,11.8387-4.7615,5.0493-9.088,10.5158-11.9667,16.8736-.5589,1.2344.0577,3.3587,1.7945,3.1271l10.3909-1.3855a2.1472,2.1472,0,0,0,2.0781-2.0781c0-1.0076-.9576-2.2276-2.0781-2.0782L570.83,410.1549l1.7944,3.1271a57.394,57.394,0,0,1,10.6085-15.2759c3.7844-4.0736,7.8848-7.8749,11.2988-12.2785,3.0309-3.9094,5.672-8.4376,5.9208-13.486.2437-4.9414-.8525-10.0115-2.0184-14.7849-.7817-3.2-1.6724-6.3891-2.74-9.5067a2.0811,2.0811,0,0,0-1.4514-1.4515l-27.227-4.929-43.2231-7.8249-9.906-1.7933a2.1313,2.1313,0,0,0-2.3469.955c-1.4214,3.0622-2.6556,6.2234-3.8322,9.3858a159.1386,159.1386,0,0,0-6.3813,21.445c-1.8782,8.5859-3.0565,17.51-2.3576,26.3054.6668,8.3925,3.1188,16.7566,8.7815,23.1731a30.66,30.66,0,0,0,10.5279,7.6326c1.82.8065,4.147.8249,6.12,1.0341q3.1122.33,6.2434.4233a70.2252,70.2252,0,0,0,11.4967-.6124q2.6-.3546,5.1614-.9177c2.6107-.5764,1.5058-4.5843-1.105-4.0079Z"/><path d="M310.8247,427.56l-27.6209-12.4359-3.9492-1.7781L280,416.19l8.6212-17.5552,1.2451-2.5355h-3.5888l18.9851,30.0078,2.7186,4.2969c1.4263,2.2546,5.0246.1715,3.5888-2.0977l-18.9851-30.0079-2.7186-4.2969a2.0973,2.0973,0,0,0-3.5888,0l-8.6213,17.5553-1.2451,2.5354a2.1037,2.1037,0,0,0,.7455,2.8434l27.6209,12.4359,3.9492,1.7781a2.142,2.142,0,0,0,2.8433-.7456A2.0942,2.0942,0,0,0,310.8247,427.56Z"/><path d="M201.2519,95.3742l18.83,13.9708,2.6442,1.9619a2.0924,2.0924,0,0,0,2.8434-.7456,2.1272,2.1272,0,0,0-.7456-2.8433l-18.83-13.9708L203.35,91.7853a2.0923,2.0923,0,0,0-2.8433.7456,2.1272,2.1272,0,0,0,.7455,2.8433Z"/><path d="M742.2964,447.7944l-22.8316,5.1819-3.2447.7365c-2.6074.5918-1.5039,4.6,1.1049,4.0078l22.8316-5.1819,3.2447-.7365c2.6074-.5917,1.5039-4.6-1.1049-4.0078Z"/><path class="cls-2" d="M612.3939,379.675c17.3181-99.7523-87.2833-97.6741-101.8306-96.2887s-18.0108,13.1618-5.5418,18.0109c-21.4744,6.2345-16.6254,23.5526-16.6254,23.5526,4.7348,21.3064,76.2,22.1672,76.2,22.1672l-6.3617,32.8885c2.3637-9.48,13.0738-20.4419,19.8677-18.748s11.4448,5.2845,9.02,15.0113c-1.6053,6.4384-9.7994,16.3151-14.29,18.3154,0,0-12.3919,25.9616,5.619,25.2689"/><path d="M614.3978,380.2275c3.1006-17.9844,3.1388-36.99-4.3192-53.9588-5.5563-12.6419-15.285-22.8821-27.052-29.9685-10.7628-6.4816-22.9508-10.4522-35.2552-12.748a152.8682,152.8682,0,0,0-29.4733-2.5894,74.5072,74.5072,0,0,0-8.87.4773c-4.8011.6247-9.9894,2.5005-12.71,6.7727a9.0325,9.0325,0,0,0,1.3269,11.1617,17.3609,17.3609,0,0,0,6.4239,4.0266v-4.0079c-6.0625,1.792-11.8994,4.931-15.44,10.3378a20.2915,20.2915,0,0,0-3.1765,11.4224,17.414,17.414,0,0,0,1.0074,5.8816,18.3043,18.3043,0,0,0,6.9193,8.17c7.3845,5.1929,16.8426,7.53,25.5547,9.3183a233.9428,233.9428,0,0,0,29.165,3.87q5.295.4056,10.6019.6316a48.8957,48.8957,0,0,0,5.26.1663c.0773-.0052.1575.0027.2352.0037l-2.004-2.6307-5.5805,28.8505-.7811,4.0381c-.5019,2.595,3.3307,3.7252,4.0079,1.1049a27.6083,27.6083,0,0,1,7.2427-12.155c2.4249-2.4608,6.1507-5.6239,9.7137-5.2176a15.1712,15.1712,0,0,1,4.6986,1.6817,7.009,7.009,0,0,1,3.1368,3.1814c1.5805,3.3693.346,8.0117-1.315,11.2419a39.8873,39.8873,0,0,1-8.5069,11.0748,17.2812,17.2812,0,0,1-1.9175,1.5587c-.7338.4985-1.7856.8321-2.2547,1.6135a7.8951,7.8951,0,0,0-.4132.9193,44.9863,44.9863,0,0,0-3.97,14.5335c-.2169,3.0181.1306,6.3747,1.95,8.8964,2.2887,3.1723,6.093,4.1609,9.8474,4.0447,2.6682-.0827,2.68-4.2394,0-4.1564a11.0835,11.0835,0,0,1-3.9815-.465,5.0586,5.0586,0,0,1-1.1663-.5615c-.1049-.06-.2031-.1317-.3032-.1994-.2865-.194.3527.3124-.0731-.0526-.1986-.17-.383-.3508-.5658-.5375-.1-.102-.192-.212-.2832-.3217.0494.0594.2326.3316.0146.0134-.1288-.1881-.253-.3786-.3663-.5765-.1283-.2242-.2439-.4554-.35-.6911-.1277-.2849.1192.3082.0111.0129-.05-.1378-.1-.2758-.1451-.4156a11.58,11.58,0,0,1-.3763-1.583c-.0141-.0813-.0539-.4061-.004-.0011-.0153-.1241-.03-.25-.04-.3752-.0241-.3188-.0488-.6369-.0593-.9566-.1394-4.239,1.149-8.5968,2.7716-12.83.1609-.42.3281-.8368.4973-1.2532.0633-.1555.3382-.7893.0482-.12.0616-.1422.1211-.2853.1841-.4269.1191-.2679.2359-.5369.362-.8016l-.7456.7455a19.7689,19.7689,0,0,0,5.3875-4.1483,48.46,48.46,0,0,0,5.5806-6.7794c3.1357-4.5576,5.5951-10.0116,4.8838-15.6785-.6383-5.085-4.2432-8.2628-8.8992-9.8781a11.3814,11.3814,0,0,0-6.8657-.5212,19.082,19.082,0,0,0-6.8936,3.7972A31.9535,31.9535,0,0,0,556.23,379.4531l4.0079,1.1049,5.5805-28.8505.7811-4.0381a2.1091,2.1091,0,0,0-2.0039-2.6306c-4.1184-.05-8.24-.2716-12.3486-.537a250.9006,250.9006,0,0,1-26.5159-2.99,139.0548,139.0548,0,0,1-14.0874-3.1106,62.3746,62.3746,0,0,1-11.86-4.4452c-.86-.4438-1.7052-.9171-2.5271-1.4281q-.5489-.3413-1.083-.7054-.2606-.1782-.5169-.3623c-.1128-.081-.5677-.4187-.4292-.3128.0227.0174-.5869-.4749-.793-.653q-.4726-.4086-.9194-.846-.4027-.3959-.7793-.8174c-.14-.1572-.273-.32-.41-.4793-.0507-.0591-.098-.1214-.1467-.1821-.1606-.2.2223.31-.0035-.0092a13.6941,13.6941,0,0,1-1.1333-1.8555c-.0759-.1538-.1471-.31-.2171-.4661.2246.5024.0064.01-.0356-.1138-.1251-.37-.2435-.7364-.34-1.1147-.1313-.5141-.221-1.0331-.3143-1.5551-.06-.3326.0036-.014.0212.1671-.0139-.1424-.0357-.2841-.0489-.4266-.0278-.3009-.0547-.6013-.0717-.9031a19.8491,19.8491,0,0,1-.0083-2.0742c.0182-.3777.0537-.7531.0873-1.13.01-.1119.0251-.2239.0387-.3355-.0092.075-.0674.4394-.0033.04.0374-.2337.0755-.4671.12-.7a18.1027,18.1027,0,0,1,.7186-2.6548,16.2483,16.2483,0,0,1,3.05-5.0405,21.3265,21.3265,0,0,1,6.6793-4.7935,32.5571,32.5571,0,0,1,4.8552-1.8039,2.0985,2.0985,0,0,0,0-4.0079,12.1146,12.1146,0,0,1-5.0333-3.471,5.1946,5.1946,0,0,1-.9315-1.8617,5.8054,5.8054,0,0,1-.1331-.6044c.0678.4293-.01-.2185-.01-.2564-.0014-.203-.0023-.4033.0055-.6062.0186-.4877-.059.189.0239-.2517a6.2154,6.2154,0,0,1,2.5489-3.885,14.8424,14.8424,0,0,1,5.8093-2.5465,45.9614,45.9614,0,0,1,9.48-.7783c4.0041-.0683,8.0117.04,12.0079.2955q3.6675.2346,7.3213.6416.9882.11,1.9749.2336.417.0522.8338.1066c.0864.0111.6539.0874.1189.015q.3377.0456.6752.0929,1.9785.2769,3.9489.608a126.7142,126.7142,0,0,1,16.8886,3.9992,89.4652,89.4652,0,0,1,16.5617,6.9016c11.2487,6.082,20.6223,14.6409,26.6884,25.95,7.7072,14.3693,8.9725,31.44,7.1243,47.6555-.2859,2.5078-.6584,5.0034-1.0872,7.4906a2.1389,2.1389,0,0,0,1.4515,2.5564,2.0955,2.0955,0,0,0,2.5564-1.4515Z"/><path d="M524.3968,389.008a72.4249,72.4249,0,0,0,7.8743-2.3337s2.1912,3.0453-2.6578,5.1234C526.15,393.1832,524.3968,389.008,524.3968,389.008Z"/><path d="M524.9493,391.0119a66.4641,66.4641,0,0,0,7.8743-2.3337l-2.3469-.955a2.1323,2.1323,0,0,1,.1618.2779,1.353,1.353,0,0,0,.0693.1469c-.0216-.032-.2459-.6405-.1389-.3231a3.9731,3.9731,0,0,1,.1286.44c.0082.0389.0123.08.0228.1181.0566.2076-.0473-.436-.0529-.4046a1.51,1.51,0,0,0,.0186.26c.0022.0919-.0034.1828-.0074.2744-.0173.3986.1279-.601.0239-.2069-.0265.1-.0529.1992-.0826.2988-.12.4042.2744-.5124.0538-.1283-.0478.0831-.091.1683-.1423.25-.0286.0452-.0825.1616-.1289.1884.0748-.0432.375-.4564.1216-.1686a7.24,7.24,0,0,1-.6025.5647c.515-.4667.0567-.0573-.1045.0446-.1875.1185-.3807.2277-.5774.33-.1107.0575-.486.1579-.5448.2616l.2665-.1142q-.0972.0363-.1961.0678-.0952.03-.1922.0561c-.0623.0165-.1253.0316-.1884.0448-.2095.0441-.4291-.0156.187-.0168-.1451,0-.2895.02-.4354.0155-.07-.0023-.1393-.0124-.2087-.014-.2528-.0058.6013.1112.27.0331-.1289-.03-.2551-.0654-.3829-.1-.0479-.0129-.0987-.0445-.1466-.052.48.0754.4494.2083.2839.12-.1342-.0719-.27-.1359-.3994-.2167-.0952-.0592-.1841-.1265-.2767-.1894-.1972-.1341.45.3828.2185.1652-.0351-.033-.074-.0631-.11-.0953a5.42,5.42,0,0,1-.515-.5295c-.0363-.0425-.0707-.0867-.1071-.1291-.203-.2364.3388.4664.1662.2155-.0633-.092-.1307-.1809-.1929-.2737q-.1589-.2371-.2985-.4865a4.9908,4.9908,0,0,1-.2459-.4878,2.0731,2.0731,0,0,0-1.2419-.955,2.1236,2.1236,0,0,0-1.6014.2095,2.0972,2.0972,0,0,0-.955,1.2419,2.449,2.449,0,0,0,.2095,1.6014,7.9615,7.9615,0,0,0,1.2209,1.8737,5.9758,5.9758,0,0,0,3.9818,2.1969,7.2444,7.2444,0,0,0,5.3493-2.1283,5.0179,5.0179,0,0,0,1.68-3.9187,4.9389,4.9389,0,0,0-.7684-2.4551,2.1353,2.1353,0,0,0-2.3469-.9551,66.4849,66.4849,0,0,1-7.8744,2.3338,2.0933,2.0933,0,0,0-1.4514,2.5564A2.1267,2.1267,0,0,0,524.9493,391.0119Z"/><path d="M566.07,383.1714a35.3538,35.3538,0,0,1,4.273-6.1936,11.5344,11.5344,0,0,1,3.8694-3.2184c.1688-.0756-.2225.0807.0619-.0244.0879-.0324.1759-.0642.2653-.0923a4.7709,4.7709,0,0,1,.5279-.1311c.28-.0539-.1436.01.03-.004.0723-.0058.1445-.0114.2171-.0133.0867-.0023.1724.0022.259.0035q.0859.0047.1715.0141-.2008-.0281-.0208.0026a4.2492,4.2492,0,0,1,.42.1172c.2732.0938-.18-.096.0824.0369.1644.0832.3263.1711.4825.2689a2.5683,2.5683,0,0,1,.8914.906c.4791,1.1013-.47,2.5291-1.2943,3.3427-.9534.9408.5162,2.41,1.47,1.47a6.28,6.28,0,0,0,2.0261-4.2155,4.4223,4.4223,0,0,0-4.7047-4.0108,8.6569,8.6569,0,0,0-5.03,2.8084,30.8966,30.8966,0,0,0-3.92,4.8575c-.6628.9817-1.3032,1.9872-1.8717,3.0272-.6418,1.1741,1.1521,2.2241,1.7944,1.0489Z"/><path class="cls-6" d="M505.0215,301.3972s15.9327-1.3855,27.709,4.1563"/><path d="M505.0215,303.4753a63.4131,63.4131,0,0,1,9.1192-.02c5.9592.3531,12.089,1.3665,17.5409,3.8922a2.1386,2.1386,0,0,0,2.8434-.7455,2.0953,2.0953,0,0,0-.7456-2.8433,53.5779,53.5779,0,0,0-18.9969-4.4189,64.0848,64.0848,0,0,0-9.761-.0212c-2.6451.2264-2.6691,4.3848,0,4.1563Z"/><path d="M535.115,360.1765c.3526-.1648-.6335.2353-.0889.04.3066-.11.6115-.2207.9236-.3151.5006-.1514,1.0091-.2766,1.5222-.3777q.2262-.0447.4538-.0829c.0617-.01.5149-.08.2053-.0356s.25-.0276.3141-.034q.2658-.0268.5322-.045a15.8164,15.8164,0,0,1,2.2275.0047q.3122.0229.6232.0587c-.3584-.0409.2529.04.3009.0486q.61.1056,1.2093.262a13.296,13.296,0,0,1,4.978,2.4854,2.1435,2.1435,0,0,0,2.939,0,2.0927,2.0927,0,0,0,0-2.939,17.774,17.774,0,0,0-12.0956-4.0881,16.7908,16.7908,0,0,0-6.1423,1.429,2.0955,2.0955,0,0,0-.7456,2.8433,2.1252,2.1252,0,0,0,2.8433.7456Z"/><path d="M506.76,355.6014a16.8485,16.8485,0,0,1,7.9722-.0113,7.4834,7.4834,0,0,1,5.8689,6.2471c.4,3.0719-1.3551,6.1918-3.071,8.6041a26.6565,26.6565,0,0,1-4.2111,4.528c-.849.743-1.7248,1.2508-2.0814,2.3765a6.2951,6.2951,0,0,0-.3057,2.0882c.1523,4.1829,4.877,4.9384,8.1668,5.0407,2.6754.0833,2.6726-4.0732,0-4.1563a7.944,7.944,0,0,1-3.9459-.7958c.0853.0552.0364.0586-.0426-.0785-.1872-.3252-.0225.2274-.0469-.1833.0366.6146.0628-.5793.0069-.1121a4.7971,4.7971,0,0,1,.2586-.944l-.5344.917c4.7212-3.7632,9.5941-9.4017,9.9946-15.7378a11.6048,11.6048,0,0,0-2.9312-8.2628c-2.244-2.5685-5.3478-3.5716-8.6337-3.9552a19.668,19.668,0,0,0-7.569.4277c-2.5638.744-1.4732,4.756,1.1049,4.0078Z"/><circle cx="511.3743" cy="364.7563" r="2.8575"/><path d="M513.1989,364.9a3.2,3.2,0,0,1-.0846.386.7191.7191,0,0,1-.0743.22c.0123-.0138.1061-.2139.0138-.0371-.0586.1123-.1166.2233-.186.3295l-.0421.0623q-.1.138.027-.0308c-.0208.0578-.1081.1254-.1486.1676a1.3117,1.3117,0,0,1-.2743.2513c.1942-.1008.083-.0609.0311-.03-.0638.0383-.1244.0814-.1891.1186q-.0645.0371-.1311.0708l-.0669.0329q-.1566.0711.042-.0165c-.0648.0723-.3092.1-.3962.1189a.7.7,0,0,1-.1865.0354c.2351.0215.093-.0141.0093-.0092-.1309.0075-.26-.0055-.39-.0042-.1576.0015.25.0558,0,.0021-.0646-.0139-.1293-.0254-.1935-.0413s-.1259-.0332-.188-.0533c-.0549-.0178-.2887-.0627-.0394-.0056a1.2844,1.2844,0,0,1-.3353-.1776.7762.7762,0,0,1-.187-.1263c.0131.0169.175.1542.0347.0226-.0911-.0856-.1821-.1678-.2655-.2613-.0119-.0133-.1522-.2044-.06-.0675.09.1338-.0727-.1161-.0872-.14a1.257,1.257,0,0,1-.1728-.33c.0479.2176.0389.0992.0218.04-.0207-.0724-.0471-.1428-.0664-.2157q-.0195-.0731-.0349-.1471l-.0146-.0745q-.0284-.1748.0054.0493c-.0561-.0809-.0145-.332-.01-.4265.0114-.222-.0125-.0011-.01,0-.004-.0014.0237-.1371.0278-.157.0264-.1287.0688-.2509.1045-.3768.0693-.2453-.1028.19.0128-.0353.0232-.0452.045-.0907.0694-.1353q.0544-.0993.1167-.1942c.0443-.0675.1-.2476.0151-.0315a1.1185,1.1185,0,0,1,.2544-.2725c.0444-.0417.0985-.0784.14-.1228.0979-.1053-.2036.1267-.0025.006.1071-.0643.2084-.1328.32-.19a.6913.6913,0,0,1,.1348-.064c-.2746.0547.04-.0057.1035-.0243a1.0939,1.0939,0,0,1,.3694-.0823c-.0208-.0025-.2481.0156-.0479.0114.0646-.0013.1289-.0067.1935-.0069s.1306.006.1957.0057c.253-.001-.1551-.0364,0-.0053a3.7511,3.7511,0,0,1,.4209.101l.0734.0248q.1623.0619-.034-.0193c0,.001.1955.0966.2046.1015.0553.03.1093.0625.1625.0964q.0479.03.0941.0624.138.1-.0308-.027c.1133.04.247.2245.3227.3093a.6713.6713,0,0,1,.0962.1136c-.1092-.2244-.0265-.028.0115.0308a1.3406,1.3406,0,0,1,.2124.393c-.049-.2531-.0188-.0332.0021.0316q.0348.1077.0609.2178c.0146.0616.024.1241.0373.1859q.0193.1185-.0117-.0869.0075.0768.011.1537c.0023.0517.0031.1036.0026.1554,0,.0579-.0332.4081.0059.1176a1.07,1.07,0,0,0,.7257,1.2782,1.05,1.05,0,0,0,1.2782-.7257,4.1552,4.1552,0,0,0-.3652-2.4778,3.8469,3.8469,0,0,0-1.5335-1.6041,3.9541,3.9541,0,0,0-4.54.4956,3.8894,3.8894,0,0,0-1.0346,4.2539,3.89,3.89,0,0,0,7.4735-.6676,1.0653,1.0653,0,0,0-.7257-1.2782A1.0514,1.0514,0,0,0,513.1989,364.9Z"/><circle cx="537.9961" cy="368.7094" r="2.8575"/><path d="M539.8207,368.8528a3.196,3.196,0,0,1-.0846.386.7182.7182,0,0,1-.0743.22c.0123-.0138.1061-.2138.0138-.0371-.0586.1123-.1166.2234-.186.3295l-.0421.0623q-.1.1381.027-.0308c-.0208.0578-.1081.1254-.1486.1676a1.309,1.309,0,0,1-.2743.2513c.1942-.1007.083-.0608.0311-.03-.0638.0384-.1244.0814-.1891.1186q-.0645.037-.1311.0709l-.0669.0328q-.1566.0711.042-.0165c-.0648.0724-.3092.1-.3962.119a.7.7,0,0,1-.1865.0353c.2351.0215.093-.0141.0093-.0092-.1309.0076-.26-.0054-.39-.0042-.1576.0016.25.0559,0,.0021-.0646-.0139-.1293-.0254-.1935-.0413s-.1259-.0332-.188-.0533c-.0549-.0178-.2887-.0626-.0394-.0055a1.2878,1.2878,0,0,1-.3353-.1777.7759.7759,0,0,1-.187-.1262c.0131.0168.175.1541.0347.0225-.0911-.0855-.182-.1677-.2655-.2612-.0119-.0134-.1522-.2045-.06-.0676.09.1339-.0727-.116-.0872-.14a1.258,1.258,0,0,1-.1728-.33c.0479.2175.0389.0991.0218.0395-.0207-.0723-.0471-.1427-.0664-.2156-.013-.0487-.0246-.0979-.0349-.1472l-.0146-.0745q-.0284-.1747.0054.0494c-.0561-.081-.0145-.332-.01-.4265.0114-.2221-.0125-.0012-.01,0-.004-.0015.0237-.1372.0278-.1571.0264-.1287.0688-.2508.1045-.3768.0693-.2453-.1028.19.0128-.0353.0232-.0451.045-.0907.0694-.1352q.0544-.0994.1167-.1943c.0443-.0675.1-.2476.0151-.0315a1.1185,1.1185,0,0,1,.2544-.2725c.0444-.0416.0985-.0783.14-.1227.0979-.1054-.2036.1267-.0025.0059.1071-.0642.2084-.1327.32-.1894a.6916.6916,0,0,1,.1348-.0641c-.2746.0547.04-.0057.1035-.0243a1.0969,1.0969,0,0,1,.3694-.0823c-.0208-.0025-.2481.0156-.0479.0115.0646-.0014.1289-.0068.1935-.007s.1306.006.1957.0058c.253-.001-.1551-.0365,0-.0054a3.7511,3.7511,0,0,1,.4209.101l.0734.0248q.1623.0619-.034-.0193c0,.001.1955.0966.2046.1016.0553.03.1094.0625.1625.0964q.0479.03.0941.0623.138.1-.0308-.027c.1133.04.247.2245.3227.3094a.6747.6747,0,0,1,.0962.1135c-.1092-.2244-.0265-.028.0115.0309a1.3394,1.3394,0,0,1,.2124.393c-.049-.2531-.0188-.0332.0021.0316q.0348.1076.0609.2177c.0146.0617.024.1241.0373.186q.0193.1183-.0117-.0869.0075.0767.011.1536c.0023.0518.0031.1037.0026.1554,0,.058-.0332.4081.0059.1176a1.07,1.07,0,0,0,.7257,1.2782,1.05,1.05,0,0,0,1.2782-.7257,4.1554,4.1554,0,0,0-.3652-2.4778,3.8469,3.8469,0,0,0-1.5335-1.6041,3.9541,3.9541,0,0,0-4.54.4957,3.8892,3.8892,0,0,0-1.0346,4.2538,3.89,3.89,0,0,0,7.4735-.6676,1.0653,1.0653,0,0,0-.7257-1.2782A1.0514,1.0514,0,0,0,539.8207,368.8528Z"/></svg>