<svg id="Layer_1" data-name="Layer 1" xmlns="http://www.w3.org/2000/svg" width="1000" height="1000" viewBox="0 0 1000 1000"><defs><style>.cls-1{fill:#fc7f3a;}.cls-2{fill:#d34aa2;}.cls-3{fill:#fff;}.cls-4{fill:#389b48;}.cls-5{fill:#fc7272;}.cls-6{fill:#ffc41f;}.cls-7{fill:#458dc9;}</style></defs><path d="M463.5055,915.61a12.3821,12.3821,0,0,0-4.4231-15.2184,24.8879,24.8879,0,0,0-10.3491-3.5139v1.7778c4.7639-1.2823,9.7563-2.9226,13.7275-5.9526,2.2194-1.6934,4.2363-4.0264,4.3544-6.9479.2663-6.5848-8.2124-10.1234-13.3175-11.6337a57.6884,57.6884,0,0,0-17.0087-2.1025l.4653,1.7179c6.6345-5.028,13.3529-10.4152,18.4761-17.0421,2.1566-2.79,5.0356-6.863,4.0515-10.6376-.7873-3.02-4.0329-3.9939-6.8078-4.0973-4.5763-.1706-9.2122,1.3678-13.3671,3.1338a71.0316,71.0316,0,0,0-18.58,11.886l1.5408.897c3.4715-10.1039,6.5506-20.6993,7.1159-31.43.2525-4.7951.2911-11.31-3.2554-15.0854-2.6376-2.808-6.4715-2.0047-9.2849.0728-4.6921,3.4647-7.6429,9.1-9.8383,14.36-4.1912,10.0422-5.9587,21.026-6.5467,31.8381l1.8108-.2451c-1.3507-4.9149-3.7273-9.9141-8.1439-12.7669a11.17,11.17,0,0,0-6.3826-1.9844,5.1235,5.1235,0,0,0-2.68,1.406,11.3579,11.3579,0,0,0-3.56,6.7194c-1.1232,6.2542.8507,12.8292,3.0611,18.6166l1.134-1.134c-7.1646-1.138-15.2958-1.0649-21.4736,3.2687a15.5006,15.5006,0,0,0-6.8158,11.62,9.76,9.76,0,0,0,1.4359,5.92l.796-1.3872a21.5883,21.5883,0,0,0-15.0133,8.459,26.7163,26.7163,0,0,0-4.6431,11.4526,21.4254,21.4254,0,0,0-.3175,2.7538c-.04,1.1868,1.804,1.1853,1.8437,0,.2133-6.3572,3.4254-13.4529,8.7085-17.2468a20.638,20.638,0,0,1,9.4217-3.5748c.6311-.0825,1.2292-.7391.796-1.3872-1.8848-2.82-1.3669-6.7306.0648-9.6255,2.2394-4.5282,6.7213-7.251,11.5292-8.36a34.6816,34.6816,0,0,1,13.1774-.1146c.6152.0977,1.4124-.4052,1.134-1.134-1.9405-5.0805-3.6666-10.6387-3.2457-16.1486a10.9364,10.9364,0,0,1,2.6643-6.8267,5.7476,5.7476,0,0,1,1.5427-1.2028c.114-.063.5363-.3061.4293-.2175-.0363.03.2918-.0157-.1259-.0062a9.2561,9.2561,0,0,1,4.35,1.021c4.7577,2.3532,7.1943,7.49,8.5355,12.37a.9263.9263,0,0,0,1.8108-.2451,99.8075,99.8075,0,0,1,5.1264-27.8275c1.9624-5.5561,4.629-11.41,8.9393-15.5635a10.282,10.282,0,0,1,4.4586-2.7671,3.832,3.832,0,0,1,3.4485.6719c3.2489,2.4939,3.3909,8.581,3.3308,12.41-.1756,11.1826-3.5124,22.3432-7.1158,32.8307-.3216.9362.9,1.453,1.5408.897a71.4425,71.4425,0,0,1,15.55-10.3908,37.4954,37.4954,0,0,1,13.0823-4.04c2.2727-.18,5.6781-.1061,6.8015,2.0569,1.3377,2.5755-1.09,6.3272-2.6146,8.49-4.94,7.0093-12.0594,12.6159-18.8265,17.7445a.93.93,0,0,0,.4653,1.7179c8.0871-.0947,17.3589.8412,24.2465,5.5079,1.87,1.2672,3.8452,3.11,4.1943,5.4639.3536,2.3844-1.2246,4.4263-2.9317,5.8894-3.8069,3.2628-9.0079,4.8761-13.755,6.1539-.8169.22-.9375,1.64,0,1.7778,4.7994.704,10.54,2.2068,13.1612,6.7227a10.699,10.699,0,0,1,.9644,7.7185,12.8467,12.8467,0,0,1-.3585,1.29c-.0428.1262-.3083.7894-.0968.2932-.46,1.0793,1.1277,2.02,1.5921.9306Z"/><path class="cls-1" d="M929.8116,272.076c-1.2887-11.43-22.6078-2.1592-22.6078-2.1592s71.0987-81.8757,67.6765-95.8892c-3.4214-14.01-109.5163,33.5309-109.5715,33.5555l-.0006,0c.0024-.0018,47.71-40.0594,44.3711-48.7091s-126.4433,85.785-126.4433,85.785,54.7456-64.069,41.9148-73.03S690.3934,291.7257,690.3934,291.7257s25.3357-58.5434,8.2909-60.7664S596.68,348.7432,596.68,348.7432h0A93.0318,93.0318,0,0,0,686.098,502.7181c.01-.0023.1855-.043.5184-.1219.1748-.0423.35-.0814.5247-.1248,11.9019-2.8455,121.8774-29.9741,147.9083-66.8744,11.3764-13.1953-68.3517,5.3734-68.3517,5.3734S880.84,367.3713,881.6884,346.03c.3694-14.0079-27.2388-.4635-37.5358,5.0675q.93-1.14,1.8574-2.2825C865.8339,333.3453,930.9043,281.7669,929.8116,272.076Z"/><path d="M931.6553,272.076c-1.6109-12.0377-18.1323-6.8892-25.3821-3.7513l2.2343,2.8958c8.82-10.1591,17.4068-20.5311,25.848-31.0061,7.17-8.8969,14.22-17.8965,20.9929-27.1a238.5818,238.5818,0,0,0,16.4753-24.682,52.311,52.311,0,0,0,4.2122-9.0547c.6734-2.0488,1.33-4.6854.2838-6.7265-2.3006-4.4873-9.8887-3.0544-13.7741-2.4364-8.6281,1.3724-17.0729,4.08-25.3428,6.83-10.3347,3.4359-20.5342,7.2766-30.6645,11.2711-13.9386,5.4963-27.7979,11.2482-41.4748,17.37-.23.1029-1.24.5035-.2454.12l1.7938,3.0816c12.5276-10.5125,24.96-21.5782,35.7956-33.8451a59.86,59.86,0,0,0,7.49-9.8731c1.1138-1.97,2.697-5.1643,1.2905-7.3849-2.0058-3.1667-7.5253.0386-9.785,1.1664a177.7026,177.7026,0,0,0-17.2885,10.318c-7.9053,5.1406-15.6689,10.4989-23.382,15.9226-16.867,11.8608-33.4854,24.0756-50.0068,36.4119q-9.3772,7.0017-18.7052,14.0689-3.0111,2.2814-6.0162,4.57a35.8023,35.8023,0,0,0-3.2951,2.5157,4.4969,4.4969,0,0,1-.4041.3095l2.2343,2.8958c12.1579-14.2339,23.8352-29.2107,33.783-45.0766a107.8386,107.8386,0,0,0,7.9-14.5237c1.4686-3.4136,3.0162-7.309,2.68-11.1034-.2267-2.5558-1.626-5.2625-4.3376-5.8141-2.2-.4475-4.53.5225-6.4856,1.4193-6.7963,3.1166-12.8545,8.1227-18.6381,12.7713-8.6516,6.9538-16.9354,14.3653-25.1,21.88-18.54,17.0652-36.45,34.8182-54.1362,52.7628q-10.2954,10.4457-20.47,21.01c-3.3788,3.508-7.11,6.9-10.2045,10.668-.1344.1637-.2947.311-.44.4652l2.8958,2.2343c2.9758-6.8829,5.6039-13.937,7.9671-21.0513a159.7942,159.7942,0,0,0,4.9838-17.9463c1.0289-4.9743,1.9158-10.2414,1.301-15.3283-.4585-3.7937-2.0629-7.794-6.0756-8.9446-2.5155-.7212-4.9084.1278-7.1232,1.3305-6.9809,3.7907-12.8239,10.1481-18.24,15.8291-17.2968,18.1443-32.7122,38.1493-47.8813,58.072q-15.84,20.8035-31.0424,42.0883c-2.188,3.0707-4.9195,5.7243-7.1948,8.7623a94.8351,94.8351,0,0,0,15.27,129.569A95.7731,95.7731,0,0,0,653.13,506.309c13.2349,1.6678,26.1638.0559,39.0137-3.1678q13.7607-3.4521,27.3644-7.4989c28.0384-8.2906,56.203-17.91,82.0425-31.7465,11.1528-5.9719,22.4521-12.9123,31.0424-22.3438a47.52,47.52,0,0,0,4.5209-5.6272,4.1922,4.1922,0,0,0,.741-3.536c-.8553-2.7653-4.61-3.12-6.9968-3.29a72.8736,72.8736,0,0,0-13.2224.6428c-5.6461.6346-11.2663,1.5026-16.8653,2.4631-9.9283,1.7032-19.8069,3.7063-29.6425,5.8791-1.6415.3626-3.2827.7278-4.92,1.1089l1.4207,3.37c5.7717-3.7222,11.4827-7.541,17.1768-11.38q19.3337-13.0363,38.1937-26.7612c13.434-9.8315,26.7493-19.937,39.19-31.0136A145.8,145.8,0,0,0,876.06,359.6588c2.8162-3.2824,5.8713-7.0027,7.0794-11.246a8.8425,8.8425,0,0,0-.8-7.148c-1.8458-2.8278-5.4824-3.3917-8.6029-3.1867-8.9055.5853-17.72,4.9522-25.58,8.8715q-2.4867,1.24-4.9348,2.5555l2.2343,2.8957a25.34,25.34,0,0,1,4.2726-4.171q1.8788-1.472,3.7532-2.9493,4.5221-3.5639,9.02-7.1579,10.8686-8.6844,21.5775-17.5664c13.6381-11.34,27.5823-22.7841,39.6307-35.8471a58.18,58.18,0,0,0,5.9343-7.2885c.9932-1.5074,2.181-3.4554,2.01-5.3446-.2115-2.3445-3.901-2.3667-3.6875,0a2.0581,2.0581,0,0,1,.01.3828c-.0312.3149.0932-.4281.0043-.0132a6.5458,6.5458,0,0,1-.3179,1.0277c.1515-.3851-.2512.4955-.3471.6732-.2461.4558-.5193.8969-.8025,1.33a48.512,48.512,0,0,1-4.7969,5.9528c-5.1636,5.6926-10.828,10.9382-16.5269,16.0858-13.9807,12.6283-28.5669,24.5918-43.2634,36.3728q-5.0634,4.0588-10.1578,8.0788-2.103,1.66-4.2112,3.3126a27.754,27.754,0,0,0-4.71,4.5137,1.8525,1.8525,0,0,0,2.2343,2.8957c7.4158-3.9756,15.1691-7.8036,23.3375-9.9522,2.8239-.7428,6.8754-1.8564,9.6744-.441a3.2,3.2,0,0,1,1.7191,2.6138,7.1569,7.1569,0,0,1,.0047,1.4923c.0137-.1728-.04.2709-.143.6875a14.3626,14.3626,0,0,1-2.0638,4.4306,45.4365,45.4365,0,0,1-4.0764,5.4339,141.5188,141.5188,0,0,1-13.18,13.1535c-11.8654,10.65-24.5756,20.362-37.4115,29.8036q-18.4166,13.5465-37.3869,26.32c-6.4646,4.38-13.0678,8.5638-19.514,12.9683-.0905.0618-.1843.1193-.2764.1787a1.8525,1.8525,0,0,0,1.4208,3.37c16.408-3.8191,33.0693-7.305,49.8113-9.2467a82.482,82.482,0,0,1,13.0384-.7613,11.9665,11.9665,0,0,1,3.7559.5573c.5035.16.1506.0566.24.0911.1374.0533.7711.4729.2358.1026.3555.246-.0584-.1489.0478-.119.0332.0094.1094-.0815-.0228.0648-.257.2841.168-.233-.145.2874-.326.542-.8654,1.2143-1.5035,2.0533a52.2636,52.2636,0,0,1-4.9766,5.57,92.7779,92.7779,0,0,1-13.878,11.0044c-11.7385,7.7927-24.5469,13.9519-37.4937,19.4465-13.4364,5.7024-27.2021,10.6317-41.0856,15.1258q-16.6261,5.382-33.5124,9.9164c-7.4658,2.0109-15.0258,4.1743-22.6672,5.4039-35.8609,5.7706-72.7239-11.1934-91.8088-42.0434a91.2015,91.2015,0,0,1,6.5116-105.27c1.8234-2.2509,3.849-4.2959,5.5293-6.652q2.0526-2.878,4.1224-5.7437,7.6921-10.6616,15.5424-21.2082c14.6974-19.7549,29.6988-39.346,45.7522-58.0255a257.88,257.88,0,0,1,20.9476-22.2834,55.263,55.263,0,0,1,7.9844-6.3621c.5525-.3462,1.116-.6764,1.6966-.9736.26-.1333.5234-.2613.79-.3806.0838-.0374.329-.1341-.06.023.1623-.0655.3251-.1338.4914-.1884a9.7112,9.7112,0,0,1,1.3628-.3626c-.7261.1269.9911.059.5056-.0075a3.7139,3.7139,0,0,1,2.9652,1.9014,10.8343,10.8343,0,0,1,1.29,4.6813c.396,5.0556-.5539,10.1889-1.6572,15.1009a209.9046,209.9046,0,0,1-10.08,31.1749q-.8048,2.029-1.6417,4.0449-.1188.2853-.2383.57c-.1991.4753.1523-.3589-.0634.15q-.0858.2027-.173.4046c-.7684,1.7774,1.3341,3.8872,2.8958,2.2343q12.0582-12.7625,24.3758-25.2793c16.9423-17.3215,34.0942-34.4522,51.7159-51.0845,8.4876-8.0112,17.0834-15.9183,25.95-23.51a189.9846,189.9846,0,0,1,20.6155-15.9614c1.2637-.8107,2.55-1.59,3.876-2.2948a18.7619,18.7619,0,0,1,3.0584-1.3916c.41-.1409.8242-.2527,1.2432-.3622a6.2354,6.2354,0,0,1,.6155-.1175c-.6661.1041.0866.0106.26,0a3.94,3.94,0,0,1,.5082.0195c-.6866-.0459-.1412-.0343.0425.0334.5034.1854-.33-.2077.026-.0026.3388.1952.0465-.03.2013.117a3.1721,3.1721,0,0,1,1.0551,2.3991,12.86,12.86,0,0,1-.6281,4.4759,58.5009,58.5009,0,0,1-5.8206,12.8485c-5.9636,10.5416-13.142,20.41-20.4749,30.03q-7.5346,9.8848-15.538,19.4073-.422.501-.8464,1c-1.253,1.467.4592,4.2574,2.2343,2.8958q11.0838-8.5021,22.2747-16.8644c15.6136-11.7146,31.3157-23.3153,47.1985-34.6629,14.2734-10.1977,28.6184-20.5461,43.7859-29.3928,2.302-1.3428,4.6336-2.6535,7.0488-3.7835a15.973,15.973,0,0,1,2.2667-.9435c.3422-.1182.6871-.2227,1.0364-.3176.3907-.106.8773-.1993.4506-.11a1.6443,1.6443,0,0,1,.3563-.0182c.4228.0112.0036-.1309-.1232-.0353.0311-.0235.2218.053.2543.07-.44-.2277-.1755.051-.5378-.307.2268.2241-.3809-.3074-.1281-.1642-.4748-.269.04-.402-.0234.1012.07-.5554-.0166.1519-.0321.2912-.0086.077.0386-.0012-.0964.4767-.7688,2.7208-2.9313,5.5912-4.8474,7.9916-6.3251,7.924-13.7824,14.9861-21.1984,21.8709q-8.29,7.6965-16.91,15.0329-.4678.3977-.9373.7935c-1.3778,1.1562.0947,3.7376,1.7938,3.0817,3.3326-1.2866,6.57-2.8908,9.8492-4.3065q11.6644-5.0364,23.4392-9.8119c18.6277-7.5479,37.595-15.2153,57.1659-19.973a70.6367,70.6367,0,0,1,9.992-1.8463,24.6557,24.6557,0,0,1,3.8635-.1c.2575.0168.5148.0378.7709.0694-.1819-.0224.039-.0047.3544.0673.2562.0585,1.3871.4425.9226.2268a3.6593,3.6593,0,0,1,.4832.2464c.486.3213-.1125-.1026.1516.0948.0681.0509.4465.4544.2055.1948-.2181-.2352.1056.1608.1394.2885-.1109-.4189.017.4642.0108.2761.009.2742-.0871,1.4825-.0256,1.067a24.7512,24.7512,0,0,1-2.7531,7.4681c-4.0506,8.0785-9.3169,15.5813-14.5627,22.9145-6.4111,8.9621-13.1471,17.69-20.0069,26.312-9.5677,12.0251-19.4358,23.7954-29.402,35.49-.164.1923-.3305.3826-.4962.5734a1.8528,1.8528,0,0,0,2.2343,2.8958,4.4237,4.4237,0,1,0,.5159-.205q1.062-.4193,2.142-.7917a48.3392,48.3392,0,0,1,6.6742-1.8372c3.4242-.661,9.8545-1.433,10.5014,3.4011C928.278,274.3935,931.97,274.4243,931.6553,272.076Z"/><path class="cls-1" d="M656.8952,136.1686c-.7932-7.0344-13.9143-1.3289-13.9143-1.3289S686.74,84.4483,684.6333,75.8235c-2.1057-8.6227-53.0406,16.4488-63.4885,21.3655l13.5208-14.75c.0014-.0011,11.8941-10.6183,9.8389-15.9418s-77.8211,52.7975-77.8211,52.7975S600.3772,79.8625,592.48,74.3471s-82.9381,73.9152-82.9381,73.9152,15.5932-36.0313,5.1027-37.4-62.78,72.4917-62.78,72.4917h0A57.2576,57.2576,0,0,0,506.8985,278.12c.0058-.0014.1142-.0265.319-.0751.1077-.026.2155-.05.323-.0768,7.3252-1.7512,75.011-18.4479,91.032-41.1587,7.0019-8.1212-42.0679,3.3072-42.0679,3.3072s70.2506-45.2976,70.7725-58.4326c.2274-8.6213-16.7644-.2853-23.1018,3.1189q.5721-.7019,1.1431-1.4048C617.5193,173.8776,657.5677,142.133,656.8952,136.1686Z"/><path d="M658.6731,135.6784c-1.0457-7.7585-12.0483-4.41-16.6228-2.4307l2.2343,2.8957c4.4984-5.1811,8.889-10.4592,13.2263-15.7754a361.8824,361.8824,0,0,0,22.1864-29.3568c2.3745-3.605,4.8363-7.382,6.2569-11.4887.9928-2.87.7772-6.1292-2.64-7.0588a13.4118,13.4118,0,0,0-5.39-.0069,49.0855,49.0855,0,0,0-6.6962,1.5439,172.8539,172.8539,0,0,0-17.3406,6.3213c-10.7236,4.4218-21.224,9.3492-31.6935,14.3358q-.9891.4712-1.98.9392l2.2343,2.8957q4.8419-5.2864,9.6883-10.569c1.2628-1.3776,2.4833-2.8158,3.7986-4.1439,1.1944-1.2062,2.4508-2.3415,3.6073-3.5893a31.9956,31.9956,0,0,0,6.08-8.46c.84-1.9008,1.9242-5.6928-.3866-7.0624-2.0546-1.2177-5.1781.7282-6.9552,1.66-8.8813,4.6557-17.1225,10.7181-25.297,16.4855-10.1816,7.1835-20.2216,14.5678-30.2034,22.0256q-5.6058,4.1882-11.1832,8.4145c-1.8505,1.4023-3.8624,2.7192-5.6,4.2623-.0761.0675-.1637.1252-.2445.1873l2.2343,2.8957A238.5972,238.5972,0,0,0,588.8851,92.72a66.9627,66.9627,0,0,0,4.8279-8.8563c.97-2.2367,1.9874-4.7737,1.7867-7.2651-.1513-1.8774-1.1907-3.8536-3.1746-4.2763a7.4381,7.4381,0,0,0-4.5185.9256c-4.2031,1.9211-7.9486,5.0179-11.5254,7.8869-5.3512,4.2924-10.4718,8.8726-15.5185,13.5164-11.4217,10.51-22.4535,21.445-33.348,32.498q-6.3457,6.438-12.6169,12.9492c-2.09,2.17-4.3393,4.2742-6.2887,6.5744-.0844.1-.1809.1909-.2706.2858l2.8957,2.2343c1.8554-4.2915,3.5-8.6861,4.9738-13.122a98.33,98.33,0,0,0,3.0693-11.0526,30.47,30.47,0,0,0,.8259-9.6136c-.313-2.6452-1.4481-5.3792-4.2361-6.1867a6.445,6.445,0,0,0-4.9252.8671c-4.3415,2.3415-7.9857,6.2922-11.35,9.8175-10.6888,11.2022-20.2073,23.5641-29.5776,35.8685q-9.7707,12.83-19.1477,25.9584c-1.3037,1.83-2.8987,3.3586-4.3794,5.3287a59.0617,59.0617,0,0,0,9.5377,80.7536,59.8326,59.8326,0,0,0,30.8325,13.2464c13.9607,1.7233,27.7334-2.7155,40.9746-6.6336,17.3114-5.1224,34.7025-11.0712,50.652-19.624,6.902-3.7011,13.9017-8.0152,19.2106-13.8608a31.4564,31.4564,0,0,0,2.8709-3.5856,3.2586,3.2586,0,0,0,.5148-2.7129c-.63-2.0647-3.1555-2.4082-4.9778-2.5393a44.7253,44.7253,0,0,0-8.1435.3944c-3.5358.3973-7.0559.9386-10.5622,1.54-6.1152,1.0488-12.2,2.2825-18.2577,3.6209-1.0093.2229-2.0183.4475-3.025.6818l1.4207,3.37c3.56-2.2957,7.0817-4.6509,10.5934-7.0189q11.8642-8,23.4386-16.4219c8.3539-6.1125,16.6373-12.3943,24.37-19.2857a89.5424,89.5424,0,0,0,8.4694-8.4c1.8155-2.1151,3.7633-4.5027,4.5453-7.2361a6.1094,6.1094,0,0,0-.6148-5.0273c-1.3056-1.9211-3.7305-2.3878-5.9094-2.2336-5.6275.398-11.1514,3.107-16.121,5.59q-1.4922.7456-2.9618,1.5352l2.2343,2.8958a15.6453,15.6453,0,0,1,2.6281-2.5659q1.1682-.9153,2.3337-1.8339,2.7659-2.18,5.5171-4.3782,6.6975-5.3512,13.2964-10.8245c8.4018-6.9858,16.9954-14.0359,24.4135-22.0878a37.2023,37.2023,0,0,0,3.71-4.56,6.2342,6.2342,0,0,0,1.3612-3.6879c-.2094-2.3449-3.8988-2.367-3.6875,0a2.001,2.001,0,0,1,.0057.2461c-.0072.2274.1495-.5054.0236-.1824-.0718.1842-.1169.3929-.18.582.2054-.6115-.08.1385-.18.32-.1412.258-.2964.5083-.4569.7547-.1839.2824-.3784.5578-.5776.8295a7.587,7.587,0,0,1-.5036.6512q-.8369,1.0284-1.7291,2.0092A142.47,142.47,0,0,1,641.2,151.3613c-8.5795,7.7467-17.5283,15.0876-26.5452,22.3164q-3.155,2.5293-6.3294,5.034a32.8848,32.8848,0,0,0-5.4538,4.7877,1.8525,1.8525,0,0,0,2.2343,2.8958,66.1936,66.1936,0,0,1,14.2211-6.0611,15.7532,15.7532,0,0,1,3.3276-.58c.2435-.01.4864-.0106.73-.0054.082.0017.686.0514.3785.01a5.37,5.37,0,0,1,.6136.13c.0828.0213.1653.0467.2461.0744.5047.1729-.1859-.0758.0879.038.5373.2234.6268.433.7143,1.094.0109.0822-.0035.6-.0128.87-.0013.0357.1126-.4753.01-.1175-.0322.1122-.0486.23-.0775.3439-.0545.2138-.1313.4191-.1963.6294-.0385.1245-.2368.5709-.0005.03-.0569.13-.1127.2615-.1761.3887-.2555.5122-.529,1.0109-.8333,1.4961a21.5618,21.5618,0,0,1-2.3854,3.1785,87.0763,87.0763,0,0,1-8.11,8.0921c-7.2573,6.5134-15.028,12.4546-22.8785,18.2291q-11.33,8.3339-23,16.1924c-3.9812,2.6976-8.0474,5.2744-12.0175,7.9866-.0565.0386-.1151.0745-.1726.1116a1.8525,1.8525,0,0,0,1.4207,3.37,278.5693,278.5693,0,0,1,30.4562-5.6642,50.8968,50.8968,0,0,1,8.0254-.4705c.2178.0094.4355.0215.6528.0388.1538.0123.96.126.3331.0235.39.0638.7611.1665,1.1442.2544.3963.0909-.2936-.2569-.0049-.0077.3766.325-.0289-.0849.0112-.035.2718.3381-.1677-.2852-.0706-.1155a.6592.6592,0,0,1-.13-.4981c-.0054.3135.0851-.5976.0044-.1044-.0148.09.0859-.4879-.0179-.0043a.64.64,0,0,1-.1168.1812c-.2169.2817.2832-.3669.0545-.0667-.2747.3606-.5442.7247-.8173,1.0866a34.5824,34.5824,0,0,1-3.0163,3.3607,56.2575,56.2575,0,0,1-8.402,6.6563,141.1612,141.1612,0,0,1-23.0476,11.9493c-8.206,3.4794-16.615,6.4849-25.0926,9.23q-10.221,3.3093-20.6017,6.098a142.0454,142.0454,0,0,1-13.826,3.3106,55.43,55.43,0,0,1-51.8554-89.605c1.13-1.3847,2.3694-2.6541,3.4064-4.108q1.2707-1.7814,2.5518-3.5551,4.7368-6.5646,9.5708-13.0583c9.004-12.1011,18.1953-24.1,28.03-35.542a158.6262,158.6262,0,0,1,12.8716-13.691c.8706-.7981,1.76-1.577,2.6821-2.3153q.163-.1306.3274-.2594c.3678-.289-.3121.234.055-.0416.1729-.13.3459-.2594.5212-.386.3867-.2794.78-.55,1.1847-.8031.326-.2043.6582-.4,1-.5767.1677-.0869.3393-.1647.509-.2475.3042-.1485-.3755.1433-.1559.0641.0922-.0332.1814-.0772.2755-.1052.2676-.08.535-.1453.8038-.2175.0723-.0195-.5218.0189-.029.0188.18,0,.5838.0918.0047-.0286a5.6708,5.6708,0,0,1,.7338.1921c-.4333-.1519.0273.0256.1969.1326.3453.2177-.2991-.2862,0-.0093.0863.08.173.1572.2539.2428.0544.0575.1049.1179.1571.1774-.3468-.3956.0011.0073.0629.1226.0582.1087.3383.6783.2518.47-.0828-.2.1395.4346.1755.5637.0734.2634.1264.53.1793.7985.0252.1276.0442.257.062.3858-.0628-.4548.017.2436.0221.3232a30.9413,30.9413,0,0,1-1.0068,9.1156,129.3923,129.3923,0,0,1-6.1709,19.0853q-.4988,1.2587-1.0174,2.5092c-.0562.1351-.1132.27-.1693.405-.1623.3913.1984-.466.0387-.0919-.0354.083-.0706.1661-.1064.2489a1.8808,1.8808,0,0,0,.4748,2.3784,1.8389,1.8389,0,0,0,2.4209-.1441q7.42-7.8536,15-15.5559c10.3974-10.63,20.9231-21.1432,31.7354-31.3523,5.2518-4.9588,10.57-9.8532,16.0573-14.5518a111.2069,111.2069,0,0,1,12.549-9.7178c.7775-.4989,1.5689-.9784,2.3847-1.4125.3605-.1919.7292-.3639,1.0956-.5438.4412-.2167-.059.0148.0669-.0338.1852-.0715.3688-.1464.5567-.2109.2625-.09.5293-.1547.7958-.23.6806-.1921-.3848-.01.321-.04.6552-.028-.2854-.1141.1288.0015.42.1173-.2246-.1155-.1392-.0707.3853.2021-.2306-.1885-.0049-.0284.1383.0981.5184.6085.129.0908.059.0785.3165.5756.1692.2545-.1464-.3191.0551.2243.0879.32.1845.5363.055-.2667.0489.3294-.002.189.0093.3771.0024.5666-.0053.1447-.1.9356-.0161.3691a13.2544,13.2544,0,0,1-.3588,1.6392,34.3313,34.3313,0,0,1-3.527,7.7494c-6.15,10.8539-14.0283,20.7374-22.03,30.24q-.2589.3074-.5192.6134a1.8677,1.8677,0,0,0-.1441,2.4209,1.82,1.82,0,0,0,2.3784.4749q6.5714-5.0406,13.2044-10.0005Q594.94,100.2841,609.27,89.9618c8.806-6.3088,17.6567-12.666,26.9586-18.233,1.4889-.8911,2.9944-1.7609,4.5444-2.5422.3069-.1547.6156-.3061.9272-.4512.1354-.0631.2725-.1226.4077-.1861.442-.2077-.0809.0258.07-.0335.45-.1764.8983-.3266,1.3589-.4695.0939-.0291.197-.0333.29-.0643.3433-.115-.5117.0562-.2058.0247.3877-.04.4084.08-.049-.0564.2418.0722-.4283-.2635-.49-.326.173.1755-.3313-.4786-.194-.25-.4187-.6974-.0258-.0617.0244.3049-.036-.2625-.021.505-.0345.6359a5.6793,5.6793,0,0,0-.139.6178,8.919,8.919,0,0,1-.7128,1.8079,24.3636,24.3636,0,0,1-2.6359,4.0012c-2.3248,2.928-5.1155,5.3972-7.6331,8.1437L620.7365,94.9084q-.4478.4884-.8955.9769a1.8524,1.8524,0,0,0,2.2343,2.8957c9.27-4.3651,18.5033-8.7959,27.9173-12.8475,5.6913-2.4494,11.44-4.7938,17.3024-6.8061,2.5029-.8592,5.0307-1.6607,7.5991-2.3021,1.06-.2647,2.1282-.5025,3.2056-.6863.2154-.0367.4311-.0706.6471-.1035a1.4584,1.4584,0,0,1,.2826-.0368c.45-.0495.9-.0917,1.3517-.11.3573-.0141.7156-.0177,1.0728.001.1529.008.3049.0226.4574.0346.1395.0109-.3557-.1091.1368.0282.2339.0653,1.0092.4027.4393.0882a1.8171,1.8171,0,0,1,.2916.1521c.3607.2977-.1277-.1579-.0031-.0129.25.2908-.0076-.0192-.0227-.0694.0083.0273.1871.2689.1643.2854.01-.0075-.19-.505-.0621-.0827.1224.4037.0051-.19-.0018-.0753-.0133.2219-.0082.4575-.0114.68-.0055.3843.1193-.4555-.0028.0054-.0422.16-.0646.3261-.1031.487a15.1806,15.1806,0,0,1-.65,1.9624c-.1559.4007.1117-.2372-.1062.2538-.0782.1761-.1568.352-.2376.5269-.2056.4452-.422.8853-.6452,1.3219-1,1.9575-2.1346,3.8463-3.31,5.703-6.2452,9.866-13.5705,19.0742-20.9036,28.1436-4.8967,6.056-9.931,11.9907-14.9637,17.9328-.08.0943-.1617.1871-.2427.28a1.8528,1.8528,0,0,0,2.2343,2.8958c-.4311.1865-.256.1048.15-.0554q.6888-.2719,1.39-.5121a29.5222,29.5222,0,0,1,4.1177-1.1209,10.1343,10.1343,0,0,1,3.8667-.1051,2.5285,2.5285,0,0,1,.6176.1971,3.1977,3.1977,0,0,1,.388.2282c.1523.1065-.1141-.116.1114.1024a1.7889,1.7889,0,0,1,.338.4748,6.4718,6.4718,0,0,1,.2265,1.018,1.8565,1.8565,0,0,0,2.268,1.2878A1.8919,1.8919,0,0,0,658.6731,135.6784Z"/><path class="cls-2" d="M323.5538,676.9694,395.1433,654.3l31.4306,98.1575s-27.2771,10.5756-41.9639-24.9956a13.8049,13.8049,0,0,0-17.0908-7.8842c-8.6651,2.87-17.0362,5.6861-17.0362,5.6861"/><path d="M324.0439,678.7473l24.198-7.6624,38.5573-12.2092,8.8343-2.7974-2.2681-1.2877,3.1335,9.7857,7.486,23.3787,9.0931,28.3977,7.833,24.4626,2.5963,8.108a35.8748,35.8748,0,0,0,1.2342,3.8546,1.56,1.56,0,0,1,.0545.17l1.2878-2.268a15.128,15.128,0,0,1-1.5206.4732c-.5687.1529-1.1429.2853-1.72.4008q-.516.1033-1.0355.1881c-.1872.0307-.3748.0587-.5624.0868-.3306.05.0513-.0056.0992-.0119-.1343.0176-.2686.0351-.4032.05a28.1912,28.1912,0,0,1-12.812-1.291,32.1134,32.1134,0,0,1-14.9641-11.4415,58.2743,58.2743,0,0,1-6.777-12.1628,16.0484,16.0484,0,0,0-9.2093-8.9825,15.19,15.19,0,0,0-7.1051-.8392c-3.03.37-5.9313,1.6063-8.8115,2.5657q-5.6372,1.8777-11.2691,3.77c-2.2376.7526-1.2779,4.3153.98,3.5558q4.66-1.5675,9.3241-3.1218c2.7324-.9116,5.4541-1.92,8.2209-2.7209a11.773,11.773,0,0,1,5.93-.1868,12.0052,12.0052,0,0,1,5.3219,2.7312,14.6873,14.6873,0,0,1,3.5773,5.4348,57.7753,57.7753,0,0,0,6.7307,11.9486,36.6056,36.6056,0,0,0,15.9547,12.6,31.4108,31.4108,0,0,0,13.8484,1.9353,26.2811,26.2811,0,0,0,7.1826-1.4262,1.8789,1.8789,0,0,0,1.2878-2.2681l-3.1335-9.7857-7.486-23.3787-9.0931-28.3977-7.833-24.4626c-1.2751-3.9821-2.4468-8.0164-3.83-11.9626-.02-.0561-.0364-.1135-.0545-.17a1.87,1.87,0,0,0-2.268-1.2877l-24.198,7.6623-38.5573,12.2092-8.8343,2.7974c-2.2542.7138-1.2911,4.275.98,3.5558Z"/><path class="cls-3" d="M197.4307,714.0494c29.454-13.5539,137.5563-40.66,137.5563-40.66s17.608,52.518,20.514,64.0221c-43.9031,31.1625-92.2971,42.1153-132.1862,44.753-46.0735,3.0466-82.5124-38.3637-73.85-83.7181,10.2488-53.6622,29.7887-122.6593,66.0559-164.851"/><path d="M198.3613,715.6414c1.8176-.8344,2.8631-1.2695,4.6352-1.98,1.9075-.7652,3.8294-1.4941,5.7587-2.202,4.7092-1.7277,9.4629-3.3333,14.2321-4.8864,11.43-3.7221,22.9569-7.1439,34.5091-10.4631q17.7734-5.1067,35.6385-9.8872,14.3564-3.8637,28.7514-7.5823,4.582-1.1842,9.1681-2.3527a42.061,42.061,0,0,0,4.24-1.0739,1.76,1.76,0,0,1,.1829-.046l-2.268-1.2877q3.0894,9.2151,6.1282,18.4471c3.63,11.0055,7.2431,22.0187,10.6954,33.0816,1.2923,4.1412,2.6231,8.287,3.69,12.4935l.8473-2.0822a231.99,231.99,0,0,1-45.3322,25.0357,257.5673,257.5673,0,0,1-45.2537,13.9124,258.6312,258.6312,0,0,1-42.446,5.6489,68.4325,68.4325,0,0,1-37.0759-9.0591,69.5452,69.5452,0,0,1-25.8374-26.3349,68.6021,68.6021,0,0,1-8.51-36.6617c.3426-6.8531,1.8983-13.5779,3.2878-20.2775q2.2-10.6058,4.7451-21.1357c3.5792-14.7662,7.6983-29.4086,12.5349-43.814a360.8561,360.8561,0,0,1,17.23-42.7492,226.8736,226.8736,0,0,1,22.5385-37.5708q3.0568-4.06,6.3724-7.9145c1.5372-1.7925-1.0595-4.4125-2.6075-2.6074a202.7178,202.7178,0,0,0-24.5594,36.5543,331.56,331.56,0,0,0-18.8366,42.7582c-5.3406,14.6361-9.8623,29.5655-13.7855,44.6408-3.6863,14.1651-7.07,28.51-9.5718,42.9376a72.4107,72.4107,0,0,0,4.0792,39.505,73.4521,73.4521,0,0,0,23.075,30.4726,72.0941,72.0941,0,0,0,36.15,14.58c6.8842.76,13.7392.2645,20.6111-.372q10.8807-1.0077,21.6726-2.7983a266.4285,266.4285,0,0,0,45.7441-11.7638,239.5635,239.5635,0,0,0,46.51-22.3861q5.6709-3.5444,11.1262-7.4167a1.9178,1.9178,0,0,0,.8474-2.0822c-2.2829-8.9975-5.35-17.8336-8.2031-26.6606q-4.9812-15.4122-10.1128-30.7754-1.0962-3.294-2.1981-6.5862a1.8848,1.8848,0,0,0-2.2681-1.2877q-5.5218,1.3846-11.0328,2.8127-13.6992,3.5271-27.3645,7.1835-17.7949,4.7616-35.5193,9.7835c-11.7322,3.34-23.4391,6.7805-35.06,10.4924-9.02,2.8814-18.0631,5.847-26.7748,9.5783q-1.1291.4834-2.2457.9951c-2.1541.9888-.2826,4.1681,1.8612,3.1841Z"/><path class="cls-4" d="M284.5565,729.8329c3.7571-.8184,7.474-1.8606,11.1678-2.922,9.7831-2.8114,19.4312-6.0986,28.9315-9.75q10.8641-4.1762,21.4626-9.0045a1.86,1.86,0,0,0,.6614-2.5226,1.8853,1.8853,0,0,0-2.5226-.6615,341.2512,341.2512,0,0,1-56.9982,20.4171c-1.2235.3109-2.4492.62-3.6828.8882-2.3176.5049-1.3369,4.06.98,3.5558Z"/><path class="cls-4" d="M208.2006,720.9735c7.0782-.4356,14.1628-2.0693,21.09-3.4892,10.8967-2.2334,21.7419-4.7191,32.57-7.2614q17.6476-4.1436,35.2389-8.5221,14.5669-3.6061,29.109-7.3123,4.6847-1.1931,9.3665-2.3967a43.2352,43.2352,0,0,0,4.3814-1.13,2.0059,2.0059,0,0,1,.2-.0517l-2.268-1.2878c3.0394,9.4954,6.0429,19.0058,8.884,28.5626.76,2.5553,1.5223,5.1134,2.1785,7.6978l.8473-2.0822c-10.6136,7.51-22.5593,13.1457-34.5588,18.0512a373.4006,373.4006,0,0,1-41.6845,14.0866,309.05,309.05,0,0,1-37.3218,8.1983,79.7922,79.7922,0,0,1-15.9861,1.1224,46.8806,46.8806,0,0,1-19.3015-5.38,48.3267,48.3267,0,0,1-23.8646-29.8821,47.4557,47.4557,0,0,1-.9486-20.36c.8079-4.6664,1.9071-9.2944,3.0224-13.895,2.8388-11.71,6.1507-23.306,9.6688-34.8282q6.1392-20.1063,13.2209-39.9106c4.6272-12.9423,9.535-25.7969,14.9605-38.4274a274.1982,274.1982,0,0,1,15.0644-30.739c1.1108-1.8924,2.2657-3.7588,3.4809-5.586,1.3178-1.9816-1.8746-3.83-3.1841-1.8611-5.9339,8.9225-10.6418,18.6695-15.0561,28.4108-5.6586,12.4873-10.7305,25.241-15.4971,38.0926q-7.5018,20.2262-13.9876,40.8118c-3.867,12.23-7.5023,24.5408-10.7014,36.9633-1.2759,4.9545-2.4826,9.9288-3.5439,14.9341-1.3147,6.2-2.1905,12.3867-1.5925,18.7378a51.5863,51.5863,0,0,0,36.9567,44.7155,54.0213,54.0213,0,0,0,19.958,1.6567c11.7671-1.0825,23.43-3.5732,34.8858-6.4017a394.02,394.02,0,0,0,42.3022-12.964c13.1405-4.8635,26.1892-10.4041,38.2376-17.6051,2.5015-1.495,4.9525-3.0733,7.3316-4.7567a1.9175,1.9175,0,0,0,.8473-2.0821c-2.8-11.0274-6.49-21.87-9.9316-32.71q-.5639-1.7758-1.1309-3.5507a1.8807,1.8807,0,0,0-2.268-1.2877q-5.5876,1.4508-11.1823,2.8738-13.7666,3.5154-27.5545,6.9456-17.448,4.3393-34.9389,8.504c-11.0856,2.6273-22.1875,5.1966-33.3352,7.5492-4.3938.9272-8.7955,1.8225-13.2144,2.6232-1.778.3221-3.5591.6289-5.3453.9026q-.5508.0844-1.1021.1642-.2636.0379-.5274.0748c-.0859.0122-.1718.0237-.2577.0356-.3526.0485.2837-.0371.049-.0067-.6532.0847-1.3068.1653-1.9621.2321-.534.0545-1.0687.1008-1.6045.1338-2.3575.1451-2.374,3.8336,0,3.6875Z"/><path d="M198.3613,715.6414c1.8176-.8344,2.8631-1.2695,4.6352-1.98,1.9075-.7652,3.8294-1.4941,5.7587-2.202,4.7092-1.7277,9.4629-3.3333,14.2321-4.8864,11.43-3.7221,22.9569-7.1439,34.5091-10.4631q17.7734-5.1067,35.6385-9.8872,14.3564-3.8637,28.7514-7.5823,4.582-1.1842,9.1681-2.3527a42.061,42.061,0,0,0,4.24-1.0739,1.76,1.76,0,0,1,.1829-.046l-2.268-1.2877q3.0894,9.2151,6.1282,18.4471c3.63,11.0055,7.2431,22.0187,10.6954,33.0816,1.2923,4.1412,2.6231,8.287,3.69,12.4935l.8473-2.0822a231.99,231.99,0,0,1-45.3322,25.0357,257.5673,257.5673,0,0,1-45.2537,13.9124,258.6312,258.6312,0,0,1-42.446,5.6489,68.4325,68.4325,0,0,1-37.0759-9.0591,69.5452,69.5452,0,0,1-25.8374-26.3349,68.6021,68.6021,0,0,1-8.51-36.6617c.3426-6.8531,1.8983-13.5779,3.2878-20.2775q2.2-10.6058,4.7451-21.1357c3.5792-14.7662,7.6983-29.4086,12.5349-43.814a360.8561,360.8561,0,0,1,17.23-42.7492,226.8736,226.8736,0,0,1,22.5385-37.5708q3.0568-4.06,6.3724-7.9145c1.5372-1.7925-1.0595-4.4125-2.6075-2.6074a202.7178,202.7178,0,0,0-24.5594,36.5543,331.56,331.56,0,0,0-18.8366,42.7582c-5.3406,14.6361-9.8623,29.5655-13.7855,44.6408-3.6863,14.1651-7.07,28.51-9.5718,42.9376a72.4107,72.4107,0,0,0,4.0792,39.505,73.4521,73.4521,0,0,0,23.075,30.4726,72.0941,72.0941,0,0,0,36.15,14.58c6.8842.76,13.7392.2645,20.6111-.372q10.8807-1.0077,21.6726-2.7983a266.4285,266.4285,0,0,0,45.7441-11.7638,239.5635,239.5635,0,0,0,46.51-22.3861q5.6709-3.5444,11.1262-7.4167a1.9178,1.9178,0,0,0,.8474-2.0822c-2.2829-8.9975-5.35-17.8336-8.2031-26.6606q-4.9812-15.4122-10.1128-30.7754-1.0962-3.294-2.1981-6.5862a1.8848,1.8848,0,0,0-2.2681-1.2877q-5.5218,1.3846-11.0328,2.8127-13.6992,3.5271-27.3645,7.1835-17.7949,4.7616-35.5193,9.7835c-11.7322,3.34-23.4391,6.7805-35.06,10.4924-9.02,2.8814-18.0631,5.847-26.7748,9.5783q-1.1291.4834-2.2457.9951c-2.1541.9888-.2826,4.1681,1.8612,3.1841Z"/><path class="cls-5" d="M426.5986,752.4517a12.197,12.197,0,0,0,7.9369-6.3176c1.0677-2.1091,2.8141-3.88,1.8992-6.9761-1.4576-4.9327-6.7582-3.363-8.216-8.2957s3.8429-6.5029,2.3852-11.4361-6.7587-3.3636-8.2164-8.2969,3.8426-6.5036,2.3846-11.4376-6.7586-3.3642-8.2167-8.2982,3.8425-6.5036,2.3844-11.4376-6.7586-3.3643-8.2167-8.2985,3.8422-6.5046,2.3841-11.44c-1.1667-3.9479-5.6344-3.9557-8.1215-6.3275a4.8005,4.8005,0,0,0-4.8636-1.143l-4.9369,1.6841-10.4774,3.6063,19.7733,65.67a6.9246,6.9246,0,0,1-4.4817,8.5794l-11.1734,3.6478c15.1336,25.2857,37.7478,16.5234,37.7478,16.5234Z"/><path d="M427.0888,754.23a14.3748,14.3748,0,0,0,8.2019-5.7592c1.7723-2.5707,3.6747-5.7657,3.1079-8.99-.5358-3.0478-2.6392-4.804-5.2564-6.12-2.0412-1.0262-3.9318-2.6095-3.1829-5.1826a15.8474,15.8474,0,0,1,1.5579-2.9951,8.8707,8.8707,0,0,0,1.1757-3.77,7.8055,7.8055,0,0,0-4.126-7.1349c-2.0228-1.1482-4.3839-1.8477-4.5833-4.5633-.1688-2.2982,1.9859-4.2345,2.6039-6.3582a7.6283,7.6283,0,0,0-2.5927-7.9624c-1.72-1.35-4.568-1.8461-5.498-4.0088-1.0407-2.42.6635-4.1795,1.65-6.2434a7.7826,7.7826,0,0,0-.86-8.4034c-1.5815-1.9361-4.1647-2.2683-5.8547-3.9691-1.904-1.9163-.9411-4.16.2058-6.1232,1.5278-2.615,2.1458-5.4384.7039-8.2677-1.3411-2.6316-4.1023-3.4956-6.532-4.78-1.3941-.7371-2.4147-1.9442-3.91-2.5133a6.6054,6.6054,0,0,0-4.39-.0741c-1.594.5163-3.1742,1.0807-4.7594,1.6236q-4.716,1.6149-9.4271,3.2446l-1.1058.3806a1.8763,1.8763,0,0,0-1.2877,2.2681l9.3829,31.1617c3.4377,11.4169,6.9464,22.815,10.3137,34.2529a5.3462,5.3462,0,0,1-.23,4.0369c-.8834,1.7489-2.4449,2.385-4.1723,2.949l-9.888,3.2281a1.8662,1.8662,0,0,0-1.1019,2.7084c4.7277,7.8283,11.4557,14.5163,20.3013,17.3915a32.3846,32.3846,0,0,0,16.5505.7989c1.0233-.2144,1.9956-.5747,3.003-.8258,2.3013-.5735,1.3264-4.1306-.98-3.5558-.7335.1828-1.4454.4634-2.1843.6416-.8694.21-1.7485.3735-2.6329.5056-.0784.0117-.3585.049.0212-.001-.1074.0141-.215.0282-.3226.04-.28.0315-.5592.0631-.8395.0891q-.9043.0836-1.8125.1147a28.3532,28.3532,0,0,1-17.5478-5.3194,38.809,38.809,0,0,1-10.372-11.7408l-1.1019,2.7084,9.0131-2.9424a21.0752,21.0752,0,0,0,3.8646-1.4473,8.8744,8.8744,0,0,0,4.4219-7.4186,14.9587,14.9587,0,0,0-.9716-4.7287l-2.0289-6.7381-6.5236-21.6658-6.8733-22.8267-2.4683-8.1978a37.4426,37.4426,0,0,0-1.2109-4.0213,1.6509,1.6509,0,0,1-.0535-.1779l-1.2878,2.268,9.2167-3.1724q1.4106-.4855,2.8228-.9668c1.5465-.5276,3.82-1.778,5.4575-1.1152,1.2331.4992,2.18,1.665,3.3841,2.2882,1.1315.5855,2.3353,1.032,3.4258,1.6965a3.9292,3.9292,0,0,1,1.332,5.569c-1.2771,2.35-2.5731,4.4218-2.0749,7.2239.5076,2.8549,2.4188,4.6905,4.9087,5.9449,1.9664.9908,4.0079,2.2147,3.6626,4.7986-.2915,2.1816-2.21,3.86-2.6894,6.0286a7.6714,7.6714,0,0,0,2.8755,7.724c1.6168,1.2179,4.181,1.6919,5.1736,3.5931,1.204,2.3062-.2221,4.0675-1.28,6.057a7.9212,7.9212,0,0,0,.0167,8.0238c1.3693,2.2182,3.6413,2.8974,5.7169,4.2159a4.03,4.03,0,0,1,1.2469,5.4838c-1.2472,2.346-2.6057,4.3849-2.1612,7.18a8.1009,8.1009,0,0,0,4.7035,5.9835c2.0816,1.0645,4.3421,2.2637,3.8585,5.0652a12.8665,12.8665,0,0,1-1.7764,3.6238,11.4085,11.4085,0,0,1-2.9268,3.68,10.748,10.748,0,0,1-3.9829,1.9335C423.8168,751.2814,424.7888,754.8393,427.0888,754.23Z"/><path class="cls-2" d="M230.5393,853.863l-28.3729,69.5264-95.5518-38.6343s9.3209-27.731,46.0568-16.2642a13.8048,13.8048,0,0,0,16.993-8.0927c3.3372-8.4961,6.5279-16.7317,6.5279-16.7317"/><path d="M228.7614,853.3728l-9.59,23.5007L203.89,914.32l-3.5012,8.58,2.268-1.2877-9.526-3.8516-22.7581-9.2018-27.6438-11.1772-23.8133-9.6283-7.8927-3.1913c-1.2282-.4966-2.479-1.1446-3.7523-1.5172-.0562-.0164-.1112-.0449-.1656-.0669l1.2877,2.268c.029-.086.0788-.3459.145-.3891.0742-.0485.3764-.8517.0082-.0334.0951-.2112.185-.4245.2821-.6348a28.972,28.972,0,0,1,2-3.6044,24.66,24.66,0,0,1,3.4428-4.3234,26.2049,26.2049,0,0,1,5.4638-4.3982,31.9964,31.9964,0,0,1,18.0545-4.273,54.6309,54.6309,0,0,1,13.4046,2.3793c4.5115,1.34,9.0268,1.3542,13.2457-.97a15.7725,15.7725,0,0,0,5.3493-4.9025c1.7245-2.5093,2.6-5.6166,3.7-8.43q2.2488-5.7518,4.4818-11.51c.8578-2.2141-2.7062-3.1731-3.5558-.98q-1.8165,4.6883-3.6464,9.3715c-1.7683,4.53-3.0027,9.9436-7.3343,12.7544a11.9949,11.9949,0,0,1-5.6442,1.9469,18.7876,18.7876,0,0,1-6.5906-1.1192,57.729,57.729,0,0,0-13.5657-2.2341,35.7,35.7,0,0,0-19.1326,4.4089,32.2947,32.2947,0,0,0-10.3222,9.62,26.0393,26.0393,0,0,0-3.3417,6.34,1.8883,1.8883,0,0,0,1.2878,2.2681l9.526,3.8516,22.7581,9.2017,27.6438,11.1772,23.8132,9.6284,7.8928,3.1912c1.2376.5,2.4792,1.1117,3.7523,1.5172.0562.0179.1108.0448.1656.067.9989.4038,1.9286-.456,2.268-1.2878l9.59-23.5006,15.2812-37.4461,3.5013-8.58a1.8575,1.8575,0,0,0-1.2877-2.268,1.8872,1.8872,0,0,0-2.2681,1.2877Z"/><path class="cls-4" d="M236.3467,571.24c-2.6118,4.9709-4.7559,10.2238-6.8572,15.4225a411.5517,411.5517,0,0,0-14.7759,44.1747c-3.4322,12.3626-6.3924,24.8532-8.9606,37.423-.4733,2.3165,3.08,3.3074,3.5558.98A518.2231,518.2231,0,0,1,225.19,609.0853a312.3787,312.3787,0,0,1,12.0546-31.2305c.7316-1.5969,1.4686-3.1979,2.2859-4.7535,1.1028-2.099-2.0787-3.965-3.184-1.8612Z"/><path class="cls-3" d="M331.9854,521.375c17.8857,30.6171,2.3456,80.0472,2.3456,80.0472-8.4243,31.3093-108.3542,263.5185-108.3542,263.5185s-51.63-20.0626-62.3315-25.1883c8.0577-104.6458,70.344-232.5114,85.2-261.7357a31.47,31.47,0,0,0,3.3993-13.2686l1.2471-39.3775"/><path d="M330.3934,522.3056c9.8327,17.0146,9.5882,38.4914,6.7788,57.37a156.5546,156.5546,0,0,1-5.6147,24.591c-2.392,7.4866-5.2385,14.8359-8.0614,22.1676-4.3344,11.257-8.8213,22.4553-13.3486,33.6359q-8.2432,20.3571-16.6733,40.6379-9.0717,21.8859-18.2573,43.7243-8.8908,21.1608-17.8525,42.2918-7.8075,18.4176-15.6566,36.8174-5.7426,13.4629-11.5068,26.9167c-1.8431,4.3012-4.0047,8.5846-5.5765,12.9947-.0674.1892-.16.3725-.24.5572l2.0822-.8473c-16.7441-6.5069-33.476-13.0634-50.0825-19.9147-3.9585-1.6331-7.9425-3.2427-11.8086-5.0877l.9132,1.592c2.1977-28.2459,7.9777-56.1466,15.3647-83.46a818.836,818.836,0,0,1,26.3142-79.6442q12.48-32.4979,27.0795-64.1288,5.14-11.17,10.5352-22.2206c3.457-7.0691,7.9352-14.1691,9.0015-22.064.8392-6.2137.5953-12.6856.7933-18.9376l.7116-22.47.0462-1.4572c.0751-2.3736-3.6124-2.371-3.6875,0q-.6135,19.3719-1.2271,38.7439a32.2763,32.2763,0,0,1-3.5735,13.7714q-1.81,3.573-3.5835,7.1648-5.08,10.2807-9.9176,20.679-14.2341,30.5373-26.6078,61.9012c-10.1737,25.8342-19.3528,52.0869-26.97,78.7927-7.7622,27.2147-13.9824,54.985-17.0229,83.15q-.5487,5.0821-.9439,10.1789a1.79,1.79,0,0,0,.9132,1.592c8.4669,4.0406,17.31,7.377,26.0118,10.8686q15.1218,6.0678,30.3031,11.9863,3.2274,1.2624,6.457,2.5193a1.8378,1.8378,0,0,0,2.0821-.8473q1.9542-4.5409,3.9013-9.085,5.1972-12.1177,10.3745-24.244,7.4935-17.5476,14.9508-35.1107,8.8668-20.8839,17.6753-41.7925,9.2508-21.9649,18.4131-43.9671,8.7551-21.0431,17.3743-42.1422c4.837-11.8679,9.6333-23.7533,14.3-35.69,3.2533-8.3217,6.4964-16.66,9.3976-25.1124a153.011,153.011,0,0,0,5.1237-18.7832c3.7365-18.1219,5.3263-37.81.2146-55.8216a60.13,60.13,0,0,0-5.7162-13.6785c-1.187-2.0541-4.3747-.1994-3.184,1.8611Z"/><path class="cls-4" d="M306.4486,548.1112c4.8171,8.3759,5.5632,18.4635,4.9475,27.9193a95.5939,95.5939,0,0,1-3.3222,19.4662c-1.1717,4.191-2.6441,8.2921-4.1057,12.3889-2.947,8.26-6.0078,16.48-9.08,24.694q-6.3612,17.0058-12.8374,33.9682-7.5213,19.755-15.11,39.4843-7.9116,20.589-15.865,41.162-7.6269,19.7362-15.28,39.4621-6.5812,16.9652-13.1786,33.924-4.7907,12.3154-9.59,24.6278c-1.53,3.9242-3.2965,7.8317-4.6159,11.8333-.057.1726-.1332.3409-.1993.51l2.268-1.2877c-8.8788-3.58-17.751-7.1862-26.5574-10.9415-2.28-.9724-4.5663-1.9408-6.8042-3.008l.8473,2.0821c7.0466-27.4248,15.0886-54.589,23.7406-81.548q12.2964-38.3145,26.1543-76.105,11.2446-30.7912,23.4371-61.2275c4.9407-12.2848,9.9177-24.5869,15.4665-36.6132.7242-1.57,1.506-3.11,2.2445-4.6722a26.8154,26.8154,0,0,0,2.2064-10.9429l.6556-20.7018.0533-1.6806c.0751-2.3736-3.6124-2.3711-3.6875,0l-.5653,17.8468c-.0709,2.2415-.12,4.4851-.213,6.7258-.1481,3.5537-1.5051,6.5379-2.99,9.6639-5.2414,11.0352-9.83,22.4026-14.43,33.7147q-11.8965,29.2544-22.7933,58.9038-13.6518,36.9354-25.9356,74.3589c-8.803,26.9124-17.0258,54.0247-24.309,81.39q-1.317,4.948-2.5907,9.9074a1.87,1.87,0,0,0,.8474,2.0821c10.0184,4.7775,20.4768,8.739,30.7575,12.9106q1.7418.7068,3.4849,1.4107a1.8788,1.8788,0,0,0,2.268-1.2878q1.5988-4.0933,3.1949-8.1878,4.3043-11.0368,8.6008-22.0769,6.2723-16.1155,12.5307-32.2365,7.5034-19.3288,14.9847-38.6664,7.9983-20.6767,15.9629-41.3667,7.7577-20.159,15.4651-40.3373,6.7619-17.7168,13.4479-35.4624c3.3937-9.0269,6.772-18.06,10.0571-27.1273,1.7887-4.9367,3.6689-9.8774,5.137-14.9225,3.5976-12.3625,5.4211-25.8581,3.1643-38.623a40.8188,40.8188,0,0,0-4.68-13.275c-1.1828-2.0567-4.37-.2016-3.184,1.8611Z"/><path class="cls-4" d="M289.27,555.6673a1.2055,1.2055,0,0,1-1.0468-.4154c.35.3712-.1092-.1848-.0437-.0994.2882.3766.158.46.077.08.058.2723.1661.5431.2307.8165.0438.1859.06.3766.0958.5637-.1493-.78-.0161-.1.0088.2051a25.0672,25.0672,0,0,1-.0413,3.8683c-.0685.9355-.17,1.8677-.2842,2.7986-.0152.1241-.0319.248-.0477.3721-.0315.2468.0658-.4677.0015-.0118-.0422.3-.0843.6-.1289.899q-.1368.919-.2922,1.8352c-.5266,3.12-1.1839,6.2183-1.8995,9.3-2.3515,10.1275-5.306,20.1155-8.4085,30.0346-5.1633,16.5079-10.8545,32.85-16.7366,49.1137-8.3586,23.1116-17.2731,46.0149-25.8617,69.041q-10.6744,28.6185-20.8712,57.4126c-4.4743,12.7018-8.8553,25.4377-13.0486,38.2352-2.413,7.3645-4.7713,14.7486-6.9821,22.1766-.8414,2.8268-1.7643,5.6663-2.4278,8.5429-.024.1039-.0538.2067-.08.31-.576,2.3025,2.9793,3.2847,3.5558.98.4839-1.9344,1.0454-3.8513,1.6-5.7661,1.8436-6.3629,3.826-12.6857,5.8534-18.9921,3.77-11.7281,7.7261-23.3963,11.7695-35.0327q9.3266-26.841,19.213-53.4834c8.6957-23.5626,17.7926-46.9742,26.4848-70.5376,6.5486-17.7523,12.8985-35.586,18.7221-53.5907,3.5653-11.0228,6.9721-22.1165,9.7821-33.3591a139.955,139.955,0,0,0,3.5953-18.37,22.1351,22.1351,0,0,0-.0762-7.79,3.5378,3.5378,0,0,0-2.163-2.7466,2.5258,2.5258,0,0,0-.55-.079c-2.3728-.102-2.3679,3.5857,0,3.6875Z"/><path d="M330.3934,522.3056c9.8327,17.0146,9.5882,38.4914,6.7788,57.37a156.5546,156.5546,0,0,1-5.6147,24.591c-2.392,7.4866-5.2385,14.8359-8.0614,22.1676-4.3344,11.257-8.8213,22.4553-13.3486,33.6359q-8.2432,20.3571-16.6733,40.6379-9.0717,21.8859-18.2573,43.7243-8.8908,21.1608-17.8525,42.2918-7.8075,18.4176-15.6566,36.8174-5.7426,13.4629-11.5068,26.9167c-1.8431,4.3012-4.0047,8.5846-5.5765,12.9947-.0674.1892-.16.3725-.24.5572l2.0822-.8473c-16.7441-6.5069-33.476-13.0634-50.0825-19.9147-3.9585-1.6331-7.9425-3.2427-11.8086-5.0877l.9132,1.592c2.1977-28.2459,7.9777-56.1466,15.3647-83.46a818.836,818.836,0,0,1,26.3142-79.6442q12.48-32.4979,27.0795-64.1288,5.14-11.17,10.5352-22.2206c3.457-7.0691,7.9352-14.1691,9.0015-22.064.8392-6.2137.5953-12.6856.7933-18.9376l.7116-22.47.0462-1.4572c.0751-2.3736-3.6124-2.371-3.6875,0q-.6135,19.3719-1.2271,38.7439a32.2763,32.2763,0,0,1-3.5735,13.7714q-1.81,3.573-3.5835,7.1648-5.08,10.2807-9.9176,20.679-14.2341,30.5373-26.6078,61.9012c-10.1737,25.8342-19.3528,52.0869-26.97,78.7927-7.7622,27.2147-13.9824,54.985-17.0229,83.15q-.5487,5.0821-.9439,10.1789a1.79,1.79,0,0,0,.9132,1.592c8.4669,4.0406,17.31,7.377,26.0118,10.8686q15.1218,6.0678,30.3031,11.9863,3.2274,1.2624,6.457,2.5193a1.8378,1.8378,0,0,0,2.0821-.8473q1.9542-4.5409,3.9013-9.085,5.1972-12.1177,10.3745-24.244,7.4935-17.5476,14.9508-35.1107,8.8668-20.8839,17.6753-41.7925,9.2508-21.9649,18.4131-43.9671,8.7551-21.0431,17.3743-42.1422c4.837-11.8679,9.6333-23.7533,14.3-35.69,3.2533-8.3217,6.4964-16.66,9.3976-25.1124a153.011,153.011,0,0,0,5.1237-18.7832c3.7365-18.1219,5.3263-37.81.2146-55.8216a60.13,60.13,0,0,0-5.7162-13.6785c-1.187-2.0541-4.3747-.1994-3.184,1.8611Z"/><path class="cls-6" d="M769.6541,398.4633c-1.7785,6.172-104.4985,72.0576-117.7365,69.5244s-48.183-73.2988-47.4459-80.3474,110.966-71.4353,117.7365-69.5244S771.4326,392.2913,769.6541,398.4633Z"/><path d="M767.8762,397.9732c-.0886.2893.1234-.541.0918-.2172a.7377.7377,0,0,1-.1647.2649c-.2862.2833.3535-.3735.0544-.0675-.106.1085-.1992.2329-.3016.3453a21.3086,21.3086,0,0,1-1.7083,1.6312c-.833.7318-1.6928,1.433-2.561,2.1223q-.3547.2817-.7119.56-.1856.1449-.3715.2889c.1446-.1122.0039-.0023-.2309.1772q-.8823.6739-1.7715,1.3386c-6.3409,4.7316-12.9,9.1747-19.4917,13.5471q-12.6274,8.3763-25.5424,16.31c-8.8173,5.4313-17.7188,10.7313-26.7494,15.801-7.4513,4.1831-14.9873,8.2694-22.7655,11.8178q-1.1634.5307-2.3363,1.04c-.8267.3582-.931.404-1.8875.7905-1.2745.5149-2.5611,1.0029-3.8671,1.4324a28.2752,28.2752,0,0,1-3.1519.8688c-.2074.0424-.4162.076-.6241.1159-.6212.1192.3568-.0021-.2472.0328-.3451.02-.6834.0339-1.029.0364-.3092.0022-.5671-.1526-.0187.0147-.1937-.0592-.4-.084-.5955-.1434-.2586-.0786-.7548-.3208-.3208-.1058-.2366-.1173-.4734-.23-.7035-.36a13.6027,13.6027,0,0,1-1.4918-.9972c.3987.3009-.0706-.0583-.1476-.1227-.1238-.1035-.2485-.2057-.3712-.31q-.4144-.3537-.813-.7254a57.7674,57.7674,0,0,1-7.0571-8.2348,230.856,230.856,0,0,1-15.9863-25.8115c-4.86-8.8609-9.4327-17.9-13.5265-27.142-1.4158-3.1961-2.708-6.22-3.9084-9.6492-.3915-1.1183-.7661-2.2486-1.0446-3.4012-.0521-.2158-.1018-.4322-.1441-.65-.055-.2834-.062-.7541-.0377-.1425-.0157-.3936.0968-1.1077-.0845-.3541.0176-.0731.0448-.1433.063-.2157-.3059,1.2172-.1107.0529-.0263.1222a2.973,2.973,0,0,1,.1841-.2788c.1969-.37-.3495.3723.0237-.0244.5285-.5617,1.0523-1.1119,1.6269-1.6288.7975-.7174,1.6291-1.3969,2.4708-2.0614.1446-.1141.7847-.6107.4185-.3288q.4208-.3238.8447-.6438.8555-.6454,1.7219-1.2763c6.1767-4.5062,12.6107-8.6649,19.0641-12.76q12.4353-7.8913,25.127-15.37,13.1235-7.7811,26.4448-15.223c7.4852-4.1724,15.0168-8.273,22.674-12.1225,2.7989-1.4071,5.6155-2.7844,8.4787-4.0565q.41-.1821.8212-.3607c.24-.104.97-.4115.5587-.24.5039-.21,1.0089-.4165,1.5179-.6136.7938-.3073,1.5959-.602,2.4154-.8341.3044-.0862.6133-.1464.9194-.2236.4785-.1206-.1121.0212-.0666.0021a.8343.8343,0,0,1,.3137-.0176c.19.173-.0433-.0009-.2048-.0406.3827.094-.1221-.078-.1134-.0712.1044.081.25.1333.3635.2053.0625.04.12.09.1848.1261.3321.1862-.2643-.2257-.0923-.0748a23.2161,23.2161,0,0,1,2.0691,2.0545c.4315.4863.85.9844,1.26,1.4883q.32.393.6347.7911.1886.2385.3752.4785c.0164.021.1749.2256.0471.06-.1469-.19.119.1554.1461.1909,5.2313,6.8653,9.8676,14.1988,14.4054,21.5328q8.1792,13.2191,15.653,26.8631c2.1351,3.91,4.2216,7.8494,6.1972,11.8432.8179,1.6535,1.6168,3.3167,2.3782,4.9971q.4909,1.0835.9571,2.178c-.1447-.3417.1821.4424.2553.6233q.2.4939.39.9914a24.2684,24.2684,0,0,1,.9595,2.936c.0435.18.0758.3622.1177.5423.132.5677.0338-.2586.011.0447a1.5628,1.5628,0,0,0,.0145.4162c.0834.2915.1214-.5242.0133-.1211-.6155,2.2946,2.9406,3.2736,3.5558.98.4871-1.816-.44-3.9912-1.0709-5.66-1.2184-3.2205-2.7016-6.3452-4.2216-9.4322-4.3106-8.7545-9.0956-17.2817-14.0092-25.7093-5.1287-8.7965-10.437-17.5031-16.1069-25.9627-2.2049-3.29-4.4677-6.5445-6.8946-9.6754a27.0636,27.0636,0,0,0-5.0181-5.437,4.4843,4.4843,0,0,0-4.1381-.5489,40.9785,40.9785,0,0,0-5.9863,2.2846c-6.5478,2.8713-12.8923,6.2256-19.1947,9.5929-8.6193,4.6051-17.1427,9.39-25.6112,14.2665q-13.5364,7.7946-26.8656,15.9433c-7.737,4.738-15.4283,9.5608-22.9582,14.623-4.8506,3.261-9.9081,6.5383-14.1986,10.5351-1.0962,1.0211-2.4165,2.2663-2.5283,3.853-.1377,1.9535.73,4.1034,1.36,5.91a205.3127,205.3127,0,0,0,10.4018,23.52c4.84,9.7358,10.0354,19.3185,15.7583,28.5658,2.55,4.121,5.21,8.1842,8.1056,12.0722a58.6774,58.6774,0,0,0,7.4576,8.6239c1.8493,1.6722,4.08,3.4119,6.67,3.5724a16.5238,16.5238,0,0,0,5.8674-1.0837c6.7372-2.162,13.1581-5.4691,19.421-8.7169,8.7525-4.5388,17.3222-9.4307,25.8075-14.4485q13.7751-8.1457,27.2517-16.7844c7.8993-5.0531,15.7376-10.2089,23.4279-15.5758a149.1058,149.1058,0,0,0,14.643-11.0509,8.186,8.186,0,0,0,2.6307-3.2764C772.1288,396.6794,768.5705,395.7072,767.8762,397.9732Z"/><path d="M603.6614,389.84c2.8219.9676,5.653,1.9089,8.4852,2.8455q10.2916,3.4035,20.64,6.6308c8.6178,2.6846,17.2662,5.2759,25.9657,7.6836,7.9571,2.2023,15.9639,4.3007,24.07,5.8881,3.179.6225,6.3843,1.1694,9.6107,1.4784a22.8678,22.8678,0,0,0,6.5812-.0919c4.0447-.7981,5.3431-5.6171,6.5121-8.9981a209.5278,209.5278,0,0,0,5.7606-21.35c2.068-8.9493,3.9211-17.9481,5.69-26.9607q2.3927-12.1905,4.5751-24.4211,1.1942-6.659,2.331-13.328.0516-.3055.103-.611c.3889-2.3213-3.1639-3.3192-3.5557-.98-.5108,3.0485-1.0436,6.0934-1.58,9.1374q-1.9436,11.0241-4.0363,22.0211c-1.7161,9.0018-3.509,17.99-5.4633,26.9435-1.7191,7.8754-3.5148,15.7548-5.7787,23.4944-.7874,2.6922-1.636,5.37-2.6861,7.9725-.14.3457.0348-.077-.0059.0171-.0551.1275-.1094.2553-.1663.3821-.1069.2382-.2147.4759-.3282.7111-.1845.3823-.3784.7609-.5931,1.1273-.0924.1576-.192.31-.2882.4653-.1425.23-.435.503-.0581.1065-.0308.0324-.2149.3-.2536.29a.91.91,0,0,0-.1435.1393c-.096.1335.4167-.2338.1764-.1345a1.257,1.257,0,0,0-.3373.1977c-.105.1391.42-.1024-.06.0183-.3358.0845-.666.171-1.0056.2425-.5473.1154.3247-.0068-.1945.0254-.2353.0147-.47.0414-.7052.0543-.49.0268-.9817.0313-1.4726.0239-1.2069-.0183-2.4123-.114-3.612-.242q-.5013-.0536-1.0018-.1153-.2385-.0294-.4767-.06c-.4264-.0548.1079.0172-.3241-.0442q-1.1155-.1586-2.2273-.3408c-7.6321-1.2554-15.1632-3.1527-22.6332-5.1369-8.6956-2.31-17.332-4.841-25.9356-7.4715q-11.1392-3.4056-22.2083-7.0357-5.9308-1.94-11.8411-3.9425-.2744-.0933-.5485-.1872c-2.25-.7713-3.2157,2.7893-.98,3.5558Z"/><path d="M653.86,469.347l7.3976-20.2231,11.7837-32.214,2.6953-7.3684c.8165-2.2321-2.7458-3.1945-3.5557-.98l-7.3976,20.2231L653,460.9984l-2.6953,7.3684c-.8165,2.2321,2.7458,3.1944,3.5557.98Z"/><path d="M770.3357,396.7632l-20.0212-4.9807-31.7732-7.9043-7.3216-1.8214c-2.3031-.573-3.2856,2.9822-.98,3.5557l20.0212,4.9808,31.7733,7.9043,7.3216,1.8214c2.303.5729,3.2855-2.9823.98-3.5558Z"/><circle class="cls-3" cx="687.2556" cy="392.7396" r="5.4835"/><path class="cls-3" d="M690.8385,391.9522a6.15,6.15,0,0,1,.0574.756c.001.1494-.01.297-.0151.446-.0112.3431.0031.0175.0152-.0521a6.1678,6.1678,0,0,1-.16.7083c-.0412.1386-.0916.2728-.14.409.103-.2927.0368-.0832-.0482.083-.11.214-.2407.4086-.3656.6131-.228.3733.1806-.1507-.0134.0248-.0859.0777-.1565.1829-.2365.2674a6.2981,6.2981,0,0,1-.5244.4865c.3063-.2578.06-.0447-.0321.0107-.1449.0876-.2842.182-.4334.2628-.0858.0465-.1738.0871-.26.1324-.415.2176.3509-.088-.1044.038q-.3615.1-.7237.1981c-.0826.0223-.3593.05.0364.0063-.1509.0168-.302.0292-.4538.0344q-.15.0051-.2995.0021c-.0525-.001-.6212-.0418-.344-.0131.2992.031-.1679-.0347-.1874-.0389-.1183-.0251-.2354-.0546-.3517-.0875s-.2285-.0755-.3438-.1093c-.424-.1242.1976.1383-.0245-.0046-.1781-.1145-.385-.1918-.5671-.3036-.1219-.0749-.2356-.1611-.3559-.238.3564.228-.0008-.008-.0706-.0707-.1787-.1606-.3351-.3372-.5-.5112-.3172-.3355.18.3127-.0625-.0822-.05-.082-.1072-.16-.1577-.2421a5.91,5.91,0,0,1-.3388-.6444c.188.4125,0-.0384-.0239-.1123q-.0684-.2147-.119-.4344c-.0017-.0074-.1046-.4957-.0492-.205.0544.2852-.0154-.1954-.0162-.21-.0151-.25-.0035-.4967.0047-.7467.0112-.3431-.0031-.0176-.0151.052.0249-.1438.0507-.2867.085-.4286q.034-.1407.0752-.28c.0277-.093.2644-.667.064-.2336a6.0589,6.0589,0,0,1,.3338-.6321c.05-.0811.1062-.1583.1556-.2394.24-.3934-.2559.257.059-.08.1469-.157.2872-.3171.4452-.4637.0877-.0814.1786-.1583.27-.2354-.33.2775.0063.005.092-.0509.2042-.133.4183-.2421.6335-.3549.4209-.2207-.3538.1015.1044-.038.0952-.029.1885-.0629.2841-.0905.1455-.0421.2929-.0711.44-.1076.3331-.0829.0391-.0152-.0364-.0064a5.5691,5.5691,0,0,1,.9019-.0314c.0146.0007.4994.0395.1954.008-.2736-.0283.2741.0577.3291.071.0937.0227.1872.0477.28.0752s.6671.2644.2337.064a6.0147,6.0147,0,0,1,.6924.3719c.1008.0637.1974.1324.2956.2-.3557-.2447-.0074.0006.0706.0706a6.1341,6.1341,0,0,1,.5915.6213c-.2578-.3064-.0446-.06.0108.0321.0875.1449.182.2841.2628.4334.0464.0858.0871.1737.1323.26q.129.2837-.0127-.0348.0527.1388.0978.28a6.0143,6.0143,0,0,1,.2033.8841,1.85,1.85,0,0,0,2.268,1.2878,1.8985,1.8985,0,0,0,1.2877-2.268,7.3233,7.3233,0,0,0-5.6463-5.88,7.319,7.319,0,0,0-7.1649,11.861,7.3117,7.3117,0,0,0,12.8771-5.491,1.894,1.894,0,0,0-1.8438-1.8438C691.7909,390.1484,690.7042,390.9279,690.8385,391.9522Z"/><path class="cls-6" d="M553.1246,206.4851c-.6506,3.47-53.4084,44.885-60.7836,44.1908S462.1487,213.09,462.1837,209.195s56.9794-44.8824,60.7836-44.1907S553.7751,203.0153,553.1246,206.4851Z"/><path d="M551.3467,205.995c-.0829.3791.1346-.5328.0654-.1521-.0232.1275-.1855.2642-.2513.3719.3093-.506.0909-.1107-.09.09-.1771.1966-.3525.394-.5344.5863-.9426.9967-1.9539,1.93-2.97,2.8508-3.2071,2.9081-6.5487,5.67-9.9114,8.3954-8.5976,6.968-17.4277,13.6762-26.5173,19.99-3.8328,2.6626-7.716,5.2759-11.7546,7.6188-1.44.8352-2.9023,1.63-4.4152,2.3254-.15.069-.3021.1343-.4539.2.4862-.2091.0262-.0109-.0967.0348-.2765.1029-.551.2094-.8325.2987-.2272.072-.4579.1254-.6869.19-.6329.1784.2336.07-.1976.04a.8026.8026,0,0,0-.2462.004c-.1784.1089.2582.0647.1166.02-.2048-.0641-.8983-.3211-.4106-.0945a10.1022,10.1022,0,0,1-1.8072-1.1139c-.2156-.1622.2307.1829.0139.009-.0818-.0657-.1643-.1307-.2443-.1985-.1669-.1416-.3349-.2815-.5-.4258-.3784-.3314-.7463-.6748-1.1071-1.0253-.7715-.7495-1.5093-1.5333-2.2278-2.3336a121.882,121.882,0,0,1-9.9073-13.0219c-3.1-4.561-6.0541-9.2333-8.762-14.0386-.9674-1.7166-1.9129-3.4516-2.7473-5.2376-.0787-.1686-.1557-.338-.2327-.5075-.0264-.0583-.2527-.5821-.1372-.3078.0736.1747-.2023-.5118-.2665-.697-.07-.2006-.1188-.4084-.188-.6084-.2016-.5828-.0226.2916-.02-.0634a.81.81,0,0,1-.1543.5913,2.0014,2.0014,0,0,0,.2278-.3825c.2011-.43-.2508.2552.0664-.0913.1731-.1891.3345-.3889.5087-.5773.8986-.9725,1.8851-1.8661,2.8745-2.7444,3.1286-2.7771,6.4165-5.3775,9.7179-7.9445,8.5051-6.6131,17.3157-12.99,26.21-19.1273,3.8518-2.6576,7.7323-5.2785,11.692-7.7732,1.4552-.9168,2.9212-1.8185,4.4168-2.6681.5744-.3263,1.153-.6458,1.7414-.9463.234-.1194.47-.2343.7066-.348.1049-.05.2128-.0948.3175-.1455.338-.1635-.4475.1579-.044.0177.2745-.0953.6148-.1508.8747-.2682-.3578.1616-.5489.0529-.3059.0522.1428,0-.6292-.1083-.3147-.0367.3168.072-.3888-.2368-.1944-.0851.0771.06.1806.0875.2583.1494s.1732.1235.2574.1773c.3253.2074-.331-.2885-.0155-.0093.2314.2048.4678.4025.6939.6136.5457.51,1.0645,1.0482,1.5735,1.5942a137.6181,137.6181,0,0,1,8.793,10.7348q5.1228,6.748,9.888,13.7612a101.2613,101.2613,0,0,1,6.74,10.8823c.1472.2909.285.5857.4245.88.26.5482-.0406-.241.1555.3879a4.6826,4.6826,0,0,0,.1668.5489c.1338.2891-.029-.0079-.017-.2-.0124.1967-.0467.45.06-.2436a1.9058,1.9058,0,0,0,1.2877,2.268,1.856,1.856,0,0,0,2.2681-1.2877,6.4022,6.4022,0,0,0-.9353-3.7588,53.1292,53.1292,0,0,0-2.7038-4.7856c-2.82-4.5808-5.8928-9.01-9.03-13.3772-3.3291-4.6347-6.7572-9.2078-10.3656-13.63-1.3646-1.6722-2.7544-3.3293-4.2317-4.9038a15.96,15.96,0,0,0-3.1785-2.8567c-2.0293-1.2235-4.3049.2852-6.11,1.2817-3.4252,1.8911-6.7082,4.05-9.9676,6.21-9.2971,6.16-18.3744,12.6683-27.2884,19.3687-4.1132,3.0918-8.1979,6.2276-12.1772,9.49a58.826,58.826,0,0,0-7.1168,6.4124,4.6,4.6,0,0,0-1.4571,2.754,9.0166,9.0166,0,0,0,1.1416,3.6131,105.9172,105.9172,0,0,0,6.8434,12.23c3.169,5.0987,6.5266,10.094,10.157,14.8768,2.9415,3.8752,6.03,7.9421,9.95,10.89a7.1905,7.1905,0,0,0,4.0806,1.7373,8.7494,8.7494,0,0,0,3.3113-.8393,65.6587,65.6587,0,0,0,10.278-5.7463c9.6221-6.1932,18.8036-13.1,27.8122-20.1463,4.0976-3.205,8.1558-6.4639,12.1213-9.8314a78.7827,78.7827,0,0,0,7.3616-6.7381,5.4892,5.4892,0,0,0,1.5049-2.2514C555.4085,204.6622,551.8544,203.6741,551.3467,205.995Z"/><path d="M461.5405,211.2207c5.5285,1.324,11.084,2.5432,16.6479,3.7083a263.2287,263.2287,0,0,0,28.5267,4.8477c2.7671.2669,6.0658.7229,8.779-.1377,2.4932-.7909,3.1064-3.412,3.6636-5.6923a116.3393,116.3393,0,0,0,2.08-12.25c.6726-5.0435,1.2238-10.1029,1.7259-15.1659.6958-7.0156,1.5558-14.1056,1.8208-21.1553.0046-.1239.018-.2479.0267-.3716.168-2.3681-3.52-2.3575-3.6874,0-.4056,5.7166-.8939,11.4286-1.4255,17.1347-.8639,9.2713-1.7026,18.5849-3.4348,27.7223a45.1581,45.1581,0,0,1-1.0624,4.598c-.0749.2492-.153.4977-.2391.7433-.0474.1349-.0993.2679-.1479.4024-.1484.4109.0993-.1844,0,.0012-.0853.16-.1909.332-.2607.4989-.186.4447.2832-.316-.0329.0347.3086-.3423.2664-.0747-.0537-.02.4534-.0775.1194-.04-.2012.033-.2216.05-.4425.092-.6662.1314-.3278.0578.4035-.0412.0564-.01-.1775.0161-.3545.0343-.5323.047a31.7123,31.7123,0,0,1-4.4335-.0669c-8.9431-.6183-17.9054-2.4991-26.7791-4.3138-6.38-1.3047-12.7071-2.8332-19.0721-4.2-.1065-.0229-.2123-.05-.3183-.0758-2.3065-.5524-3.2907,3.0024-.98,3.5558Z"/><path d="M494.475,250.0955l7.5647-28.3577,1.0588-3.9691c.6123-2.2953-2.9438-3.2746-3.5558-.98l-7.5647,28.3578-1.0588,3.969c-.6123,2.2954,2.9437,3.2746,3.5558.98Z"/><path d="M553.7236,204.74l-29.0468-4.3486-4.0656-.6086a1.9067,1.9067,0,0,0-2.268,1.2877,1.8558,1.8558,0,0,0,1.2878,2.2681l29.0468,4.3485,4.0655.6086a1.9067,1.9067,0,0,0,2.268-1.2877,1.8557,1.8557,0,0,0-1.2877-2.268Z"/><circle class="cls-3" cx="505.8995" cy="204.5863" r="2.1622"/><path class="cls-3" d="M506.2221,204.5639c.018.0783.0326.1564.0441.2358l-.0659-.49a2.3672,2.3672,0,0,1-.0032.58l.0659-.49a2.3814,2.3814,0,0,1-.1522.5447l.1858-.4405a2.3906,2.3906,0,0,1-.2853.4836l.2883-.3732a2.3844,2.3844,0,0,1-.4026.3962l.3732-.2883a2.3956,2.3956,0,0,1-.4494.26l.44-.1859a2.4023,2.4023,0,0,1-.5753.157l.49-.0659a2.3721,2.3721,0,0,1-.58-.0031l.49.0658a2.38,2.38,0,0,1-.5447-.1522l.44.1859a2.3977,2.3977,0,0,1-.4835-.2854l.3732.2883a2.3764,2.3764,0,0,1-.3962-.4025l.2883.3731a2.3948,2.3948,0,0,1-.26-.4493l.1859.44a2.4015,2.4015,0,0,1-.157-.5752l.0659.49a2.3721,2.3721,0,0,1,.0031-.58l-.0658.49a2.3814,2.3814,0,0,1,.1522-.5447l-.1859.44a2.3957,2.3957,0,0,1,.2854-.4836l-.2883.3732a2.38,2.38,0,0,1,.4025-.3962l-.3731.2883a2.4,2.4,0,0,1,.4493-.26l-.44.1859a2.4,2.4,0,0,1,.5752-.157l-.49.0659a2.3722,2.3722,0,0,1,.58.0031l-.49-.0658a2.38,2.38,0,0,1,.5447.1522l-.44-.1859a2.3957,2.3957,0,0,1,.4836.2854l-.3732-.2883a2.38,2.38,0,0,1,.3962.4025l-.2883-.3731a2.4,2.4,0,0,1,.26.4493l-.1859-.44a2.5965,2.5965,0,0,1,.1129.3394,1.8442,1.8442,0,1,0,3.5558-.98,3.9252,3.9252,0,0,0-.446-1.0634,3.7326,3.7326,0,0,0-.7319-.888,3.9694,3.9694,0,0,0-.9222-.6271,4.6505,4.6505,0,0,0-1.5037-.4076,3.8576,3.8576,0,0,0-1.1888.0909,3.7777,3.7777,0,0,0-1.0774.4213,3.87,3.87,0,0,0-1.5548,1.6213,3.9535,3.9535,0,0,0-.3729,1.0622,4.6458,4.6458,0,0,0,.0011,1.5894,3.9681,3.9681,0,0,0,1.9624,2.6992,3.7813,3.7813,0,0,0,1.0781.41,3.9647,3.9647,0,0,0,1.1544.0829,4.6379,4.6379,0,0,0,1.5326-.4206,3.9172,3.9172,0,0,0,1.725-1.687,4.2265,4.2265,0,0,0,.3441-2.8834,1.8592,1.8592,0,0,0-2.268-1.2877A1.8844,1.8844,0,0,0,506.2221,204.5639Z"/><path class="cls-1" d="M319.4817,142.9054c-.4726-4.1917-8.2913-.7919-8.2913-.7919s26.0752-30.0276,24.82-35.167-40.1647,12.2973-40.1849,12.3064l0,0c.0009-.0007,17.4976-14.6917,16.273-17.8639s-46.3726,31.4614-46.3726,31.4614,20.0777-23.4971,15.3721-26.7837-49.4218,44.0451-49.4218,44.0451,9.2918-21.4706,3.0406-22.2859-37.41,43.1968-37.41,43.1968h0a34.1191,34.1191,0,0,0,32.7935,56.47c.0035-.0009.0681-.0158.19-.0447.0641-.0156.1283-.03.1924-.0458,4.365-1.0436,44.6981-10.9929,54.2448-24.526,4.1723-4.8393-25.0677,1.9707-25.0677,1.9707s41.8614-26.9922,42.1724-34.8192c.1355-5.1373-9.99-.17-13.7661,1.8585q.341-.4182.6812-.8371C296.0181,165.3757,319.8825,146.46,319.4817,142.9054Z"/><path d="M321.26,142.4153c-.7836-5.2321-7.808-3.27-11-1.8938l2.2343,2.8957c3.2857-3.7848,6.4841-7.6493,9.6265-11.5535,4.9217-6.1149,10.1091-12.3643,13.9014-19.2694.9869-1.797,2.6574-4.67,1.521-6.75-1.1508-2.1065-4.0677-1.7624-6.0477-1.4707a56.7113,56.7113,0,0,0-9.4557,2.5009c-3.7784,1.2509-7.5068,2.6522-11.21,4.11q-5.6055,2.2062-11.14,4.5877-1.75.7483-3.4926,1.5128c-.3211.141-.6426.2811-.9625.4248-.21.0943-.7939.3108.1005-.0345l1.7939,3.0816a120.6825,120.6825,0,0,0,13.21-12.5055c1.4826-1.6883,4.798-5.082,3.34-7.6195-1.08-1.8787-3.4172-.8775-4.8787-.1822-5.2869,2.5153-10.14,6.2021-14.912,9.5514-6.2047,4.355-12.3156,8.844-18.3907,13.3774q-5.3735,4.01-10.7019,8.08l2.2343,2.8958a143.3407,143.3407,0,0,0,12.5862-16.79,39.9952,39.9952,0,0,0,2.9184-5.3869,10.0509,10.0509,0,0,0,1.1056-4.5888,3.4552,3.4552,0,0,0-2.3424-3.2279,4.7951,4.7951,0,0,0-3.1256.5049,32.6963,32.6963,0,0,0-6.882,4.6227c-3.2009,2.5406-6.2559,5.2654-9.2665,8.027-6.8869,6.3174-13.5307,12.901-20.0916,19.5546q-3.7921,3.8457-7.54,7.7352c-1.2662,1.3142-2.6983,2.5853-3.8394,4.0127-.0539.0676-.1208.1276-.18.19l2.8957,2.2343c1.1412-2.6413,2.16-5.3416,3.0638-8.0726,1.2876-3.8881,2.8084-8.3936,2.3083-12.5444-.2188-1.8168-1.026-3.6072-2.8821-4.2367a4.3971,4.3971,0,0,0-3.4861.4275c-2.6272,1.31-4.8462,3.7149-6.8528,5.8a244.252,244.252,0,0,0-17.8311,21.5724c-3.9476,5.1785-7.74,10.4645-11.5941,15.7115-.816,1.1111-1.8362,2.1215-2.7983,3.429a36.0041,36.0041,0,0,0-5.6233,30.6538,36.281,36.281,0,0,0,30.188,26.1619c8.5673,1.1105,16.9722-1.57,25.0973-3.9787,10.4417-3.096,20.9464-6.6972,30.5449-11.9032,4.1449-2.2481,8.3765-4.89,11.5111-8.4691.37-.4227.7215-.863,1.0582-1.3127.0769-.1027.3483-.4757.1261-.18a7.1972,7.1972,0,0,0,.4505-.598,2.6616,2.6616,0,0,0,.333-2.115c-.4539-1.5321-2.0917-1.921-3.4833-2.0456-3.7022-.3316-7.6274.4981-11.2581,1.1139-3.7192.6308-7.4191,1.38-11.1026,2.1924-.623.1374-1.2458.276-1.8672.4205l1.4207,3.37q10.5924-6.8321,20.7588-14.32a185.81,185.81,0,0,0,14.6228-11.6426,47.9644,47.9644,0,0,0,4.9576-5.0244,11.4828,11.4828,0,0,0,2.6213-4.4832,4.1632,4.1632,0,0,0-1.0652-3.9845c-1.3279-1.23-3.2778-1.151-4.9377-.8687-3.65.6209-7.1765,2.4461-10.4125,4.1783L289.37,173.19c1.6568-2.034,4.1429-3.552,6.19-5.1872q4.0608-3.2439,8.0608-6.5629a146.5,146.5,0,0,0,14.51-13.142c1.2237-1.3332,3.3432-3.38,3.1946-5.3923-.1737-2.3524-3.8626-2.3713-3.6875,0,.0271.3677.0275-.0992.0368-.1285-.0475.1494-.2239.54.033-.0009a6.9962,6.9962,0,0,1-.5028.8772c-.1015.1525-.2095.3-.3175.4481-.28.3834.1565-.1946-.0345.0465-.0666.0842-.1334.1682-.2021.2507-.3662.4393-.7406.87-1.1274,1.2917-1.9322,2.1052-4.0413,4.0506-6.1641,5.96-5.0817,4.5716-10.3735,8.9114-15.7068,13.1848q-1.8459,1.479-3.703,2.9439a19.1725,19.1725,0,0,0-3.1867,2.8032,1.8525,1.8525,0,0,0,2.2343,2.8957,38.5923,38.5923,0,0,1,8.2961-3.5366,8.7526,8.7526,0,0,1,1.6556-.3122c.1958-.0127.773-.0041.76-.0044.1969.0045.1717.0531.2884.08.288.0661-.2591-.0565-.0414-.0807.0666-.0074-.05.0218.033.295.1193.3911-.0068.1039.0161.0269-.0386.13-.0637.2641-.1031.3943-.0429.1416-.2539.6-.011.0736-.0612.1325-.1193.2684-.1912.3956-.183.3234-.3645.6432-.5708.9527-.1014.1521-.2073.301-.3134.45-.0651.0915-.3939.5194-.1525.2105-.296.3786-.6066.7459-.924,1.1066a56.3148,56.3148,0,0,1-4.9522,4.8577c-8.3911,7.4487-17.7124,13.8957-26.9913,20.1767-2.3409,1.5846-4.69,3.159-7.0656,4.6913a1.8525,1.8525,0,0,0,1.4208,3.37,168.6789,168.6789,0,0,1,17.7423-3.3241,32.6663,32.6663,0,0,1,4.7844-.3118c.2812.0082.56.0281.84.0527.3485.0306-.3649-.0829-.05-.0038a2.0848,2.0848,0,0,0,.3766.0861c.29.0112.02.08-.1313-.0747.0567.0579.3092.2572.0487-.0057a1.2543,1.2543,0,0,1-.4425-1.1687c.0413-.5454-.07.2527.059-.2182.1324-.4816-.0558.0836-.0618.0579a1.8324,1.8324,0,0,0,.1412-.1816c-.1011.1409-.2167.2744-.3214.4128-.0771.1019-.3851.5159-.3058.4156a20.2551,20.2551,0,0,1-1.933,2.0869,34.0109,34.0109,0,0,1-4.9494,3.8238c-8.6356,5.62-18.6006,9.2227-28.3535,12.37q-6.0294,1.9455-12.1515,3.5881c-2.6185.7045-5.266,1.4578-7.9416,1.9132a32.2907,32.2907,0,0,1-30.2579-52.2578c3.2442-3.9327,6.1251-8.151,9.1707-12.2459,5.2581-7.07,10.6267-14.0761,16.3553-20.7734a100.5191,100.5191,0,0,1,7.6969-8.2587c.5209-.4859,1.0523-.9614,1.6021-1.4147q.1924-.1585.3876-.3136c.28-.2233-.2243.1636.0544-.0413.2329-.1711.4662-.3413.7077-.5.1985-.1308.4-.2575.608-.3734.1892-.1055.8911-.3557.2792-.1635.0872-.0274.367-.1848.4532-.1465.2414.1072-.1485.0174-.1815.013a.9428.9428,0,0,0,.2511-.0053c.1245-.0486-.3025-.0291-.2708-.0372s.1676.06.1867.0429c.0141-.0126.1584.0486.1776.0549-.04-.0129-.3934-.18-.1163-.0352.298.156-.2689-.209-.0013-.0093.33.2465-.0309-.0771.0846.0928a2.3864,2.3864,0,0,1,.1772.3378c-.1588-.3407-.0192-.0425.0179.1423.0292.1453.0679.2892.0971.4349.042.2092-.0041-.0795-.0071-.1017.0185.1365.03.2747.0382.412a17.505,17.505,0,0,1-.5967,5.2412,77.3359,77.3359,0,0,1-3.6407,11.2466q-.2982.7534-.6083,1.5021c-.2654.6441.1116-.2527-.0821.1956a1.8808,1.8808,0,0,0,.4748,2.3784,1.8389,1.8389,0,0,0,2.4209-.1441q4.3548-4.6088,8.8018-9.13c6.1175-6.257,12.31-12.4453,18.6655-18.4611,3.1076-2.9415,6.2539-5.8454,9.4944-8.6405a69.5311,69.5311,0,0,1,7.5148-5.8919c.4694-.3081.9463-.6059,1.4373-.8784.2033-.1129.4092-.22.6166-.3247.1021-.0517.2078-.0959.31-.1467.3545-.1757-.3882.1256-.024.011.1643-.0517.3287-.11.4923-.1643.431-.1434.2114-.0175.0362-.0344.31.03.4783.1257-.0557-.0489.4.1309-.4551-.2506-.102-.0469-.1227-.0708-.4456-.3125-.1678-.088.049.04-.2212-.39-.0407-.0435.1538.2957.0022-.0086.0023-.0322a5.8378,5.8378,0,0,0-.0125.6423c.0406-.2844-.0319.1468-.05.2166-.0489.1876-.09.377-.1428.5637a19.5147,19.5147,0,0,1-2.0344,4.4316c-3.6419,6.4171-8.2835,12.1794-12.977,17.8167-.1064.1277-.2142.2543-.3222.3807a1.8677,1.8677,0,0,0-.1441,2.4209,1.82,1.82,0,0,0,2.3784.4749q12.4155-9.5231,25.1339-18.6507c5.263-3.7657,10.5522-7.5767,16.1314-10.8669.849-.5006,1.7076-.99,2.5944-1.4213.17-.0825.3417-.16.5125-.24.44-.2072-.3991.1118.0971-.0384.2466-.0747.5217-.1405.7611-.2314.1448-.055-.5919.0308-.1534.0349a1.329,1.329,0,0,1-.6951-.1952,2.7563,2.7563,0,0,1-.6762-.8088c-.0874-.1691-.1187-.4781-.0508-.1583-.0988-.4657.0385-.0785-.0056-.106a1.9677,1.9677,0,0,1-.1071.32c.1641-.48.0322-.0783-.0242.0261-.117.2169-.2339.4312-.3629.6414a15.0375,15.0375,0,0,1-1.1068,1.5466c-4.1081,5.0636-9.2,9.47-14.1829,13.6549-1.3772,1.1566.0945,3.7377,1.7939,3.0817,4.1887-1.6171,7.8653-3.4147,11.9631-5.0785a158.2818,158.2818,0,0,1,20.8713-7.3406c.6377-.16,1.2784-.3084,1.923-.4374.317-.0635.6352-.119.9536-.1753.149-.0263.2992-.048.4491-.07-.5019.0724.119-.0135.2147-.022a11.0483,11.0483,0,0,1,1.3438-.0618c.2118.007.8272.1607.2036-.0041.1583.0418.3266.0839.4861.12.2993.0675-.4149-.237-.175-.07.22.1533.0022.0787-.1569-.1425.2742.3813-.1717-.3583-.1955-.4288.139.4111.0554-.2456.0107-.0951a.8339.8339,0,0,0,.001.2356c.0979.4026.0739-.3075.0136-.049a11.9327,11.9327,0,0,1-.3384,1.1709c-.1952.57.0266-.0062-.1784.4364-.151.3261-.3063.65-.47.97-3.27,6.3743-8.0193,12.1146-12.461,17.6933-3.54,4.4463-7.1608,8.8357-10.8868,13.1279a1.8528,1.8528,0,0,0,2.2343,2.8957c-.89.384.4635-.1673.7074-.2519a18.03,18.03,0,0,1,2.2645-.6348,5.8557,5.8557,0,0,1,.9587-.1434c.2178-.0152.4341-.0185.6524-.018.002,0,.59.0592.3272.0134a2.6658,2.6658,0,0,1,.5534.1517c-.283-.119.2012.2244-.051-.0122.135.1266.1073.1734.037.0014-.007-.017.1119.4414.1332.5838a1.8582,1.8582,0,0,0,2.2681,1.2878A1.8885,1.8885,0,0,0,321.26,142.4153Z"/><path class="cls-6" d="M259.0629,186.89c-.4341,2.3154-35.6383,29.9508-40.56,29.4876s-20.1466-25.08-20.1233-27.6793,38.0212-29.9491,40.56-29.4876S259.497,184.575,259.0629,186.89Z"/><path d="M257.285,186.4c-.0638.2732.2547-.5545.0941-.2287-.0744.1507-.3634.4452.0809-.0778-.1963.231-.3922.4594-.6011.6793-.6319.6652-1.31,1.288-1.99,1.9034-2.1375,1.9351-4.3633,3.774-6.6031,5.5887-5.6488,4.5765-11.45,8.9812-17.4185,13.1331-2.5476,1.7723-5.1284,3.5114-7.81,5.0767-.9851.5751-1.9865,1.1147-3.0175,1.6026-.0762.036-.1539.069-.2308.1035-.3934.1761.3889-.1474.003-.0019-.1664.0627-.3312.1294-.5.1856-.1477.049-.2969.09-.4459.1343-.3492.1037-.485.0073-.0381.0322-.3265-.0182-.3424.1836.011.0434-.1021.0405-.7309-.2738-.1274-.0013a6.4352,6.4352,0,0,1-1.2059-.743c.33.2481-.2892-.25-.3629-.3147-.2217-.1938-.4375-.3944-.65-.5984-.5561-.5341-1.0852-1.0962-1.6-1.67a80.6749,80.6749,0,0,1-6.5419-8.613c-2.0363-3-3.9778-6.072-5.76-9.23-.6461-1.1447-1.2783-2.3011-1.8373-3.4913-.1061-.2259-.21-.4528-.3083-.6822.1782.4159-.0038-.0055-.0637-.1852-.0443-.1325-.0771-.2924-.1349-.4191-.1956-.43-.0094.28-.0037.0725-.0031.1148-.2425,1.0315-.0293.4412.1414-.3913-.2911.3108-.0078.0121.1212-.1277.233-.2652.3534-.394.5917-.633,1.2381-1.2167,1.886-1.7912,2.0534-1.8209,4.21-3.5276,6.375-5.2126,5.6353-4.3855,11.4989-8.6254,17.402-12.6994,2.5543-1.7629,5.1275-3.5015,7.7523-5.1581.9709-.6128,1.9488-1.2161,2.9462-1.7853.3732-.2131.7489-.4225,1.1305-.62.23-.1192,1.2292-.5275.564-.2921a3.1261,3.1261,0,0,0,.6013-.1978c-.1471.1031-.6127.0184-.7053-.0026.0217.005-.5225-.2028-.0695-.0023.4117.1823-.0928-.0954.041.0229.136.12.2742.237.4076.36.3746.3461.7284.7149,1.0763,1.0875a89.7038,89.7038,0,0,1,5.7823,7.0519q3.4,4.479,6.5638,9.1328a68.9294,68.9294,0,0,1,4.4888,7.2305c.0948.1858.1828.3747.2753.5617.2343.4739-.079-.3156.0574.13a1.5555,1.5555,0,0,0,.1257.3831c.0917.126-.0821.5417-.0188-.2482-.0146.1814-.0241.3273.0632-.3088a1.91,1.91,0,0,0,1.2878,2.268,1.855,1.855,0,0,0,2.268-1.2877c.2944-2.1439-1.3832-4.3714-2.4478-6.1055-1.8695-3.0449-3.91-5.9875-5.9923-8.89-2.2792-3.1769-4.628-6.3111-7.1013-9.34-1.4457-1.77-3.0318-4.0652-5.0462-5.2521-1.5774-.9294-3.1675.0081-4.593.7869-2.291,1.2517-4.4822,2.6959-6.6577,4.1355-6.262,4.1438-12.3735,8.5266-18.3743,13.0391-2.77,2.0832-5.5221,4.1955-8.2023,6.3938a38.4955,38.4955,0,0,0-4.7665,4.3028,3.6349,3.6349,0,0,0-1.1216,2.2188,6.5061,6.5061,0,0,0,.8076,2.6581,69.952,69.952,0,0,0,4.6032,8.2426c2.1146,3.4022,4.355,6.7356,6.7775,9.927a36.1906,36.1906,0,0,0,6.8991,7.5167,4.991,4.991,0,0,0,5.254.6775,42.6332,42.6332,0,0,0,7.0413-3.8943c6.4791-4.1626,12.6552-8.8156,18.7183-13.5566,2.7346-2.1383,5.443-4.3125,8.09-6.5589a49.9634,49.9634,0,0,0,4.9913-4.5736,4.266,4.266,0,0,0,1.1209-1.7279C261.38,185.072,257.8257,184.0866,257.285,186.4Z"/><path d="M213.2664,515.36l-49.6482,10.63,176.3157,46.1812c1.56-16.0574.8647-35.7091-7.9484-50.7957Z"/><path d="M212.7763,513.5816,196,517.1734l-26.7374,5.7247-6.1349,1.3135c-1.8067.3869-1.706,3.1089,0,3.5558l4.73,1.2389,12.7944,3.3511,19.0069,4.9784,23.0821,6.0457,25.4024,6.6535,25.6428,6.7165,23.7992,6.2335,20.2072,5.2927,14.4667,3.7892c2.2938.6008,4.5811,1.2637,6.89,1.8047.0985.0231.1961.0514.294.077a1.8727,1.8727,0,0,0,2.3339-1.7779c1.0565-11.0144.99-22.2508-1.277-33.1182a64.1732,64.1732,0,0,0-5.5692-16.1326c-.6807-1.3305-1.3183-3.2462-3.0087-3.3919-.182-.0157-.3661-.0185-.5485-.0278l-21.3157-1.08-38.68-1.96-38.14-1.9326-13.2733-.6725c-2.1347-.1082-4.2868-.3071-6.4247-.3256-.0912-.0008-.183-.0093-.2742-.0139-2.3718-.12-2.3654,3.5677,0,3.6875l11.8247.5992,28.39,1.4385,34.21,1.7334,29.6829,1.5041,9.7523.4941a46.4492,46.4492,0,0,0,4.66.2361c.0651-.0033.1333.0068.1987.01l-1.592-.9132c8.6145,14.8862,9.3,33.151,7.6967,49.8652l2.3339-1.7779-4.73-1.2389L322.9,565.8028l-19.0068-4.9783-23.0822-6.0458-25.4024-6.6535-25.6428-6.7164-23.7992-6.2336-20.2072-5.2927-14.4667-3.7892c-2.27-.5946-4.5776-1.3923-6.89-1.8047-.0987-.0176-.1968-.0515-.294-.077v3.5558l16.7759-3.5918,26.7375-5.7247,6.1348-1.3135C216.0758,516.6408,215.0943,513.0853,212.7763,513.5816Z"/><path class="cls-5" d="M106.6035,884.778a12.1971,12.1971,0,0,0-.2214,10.1419c.938,2.17,1.1822,4.6452,4.147,5.9224,4.7237,2.0352,6.9081-3.0431,11.632-1.0081s2.54,7.1137,7.2641,9.1491,6.9089-3.0431,11.6333-1.0077,2.5406,7.114,7.2657,9.15,6.9093-3.0427,11.6344-1.007,2.5407,7.1137,7.2658,9.1494,6.9094-3.0426,11.6347-1.0069,2.5416,7.1143,7.2674,9.15c3.7808,1.6287,6.6448-1.8,10.0588-2.1946a4.8,4.8,0,0,0,3.99-3.0071l1.8637-4.8718,3.9307-10.36-63.1238-26.8113a6.9247,6.9247,0,0,1-3.7273-8.9331l4.344-10.9215c-29.1162-4.5437-36.8479,18.4433-36.8479,18.4433Z"/><path d="M105.0115,883.8474a14.27,14.27,0,0,0-.6423,10.9724c1.0137,2.7289,1.86,5.7128,4.5428,7.2711,2.7652,1.6065,5.4733,1.0989,8.24-.1063,2.0669-.9,4.4851-1.282,5.9554.8963,1.4109,2.09,1.4759,4.6941,3.4845,6.4627a7.8166,7.8166,0,0,0,8.1486,1.3361c2.2087-.8708,4.4334-2.2108,6.6087-.4061,1.7577,1.4582,1.8238,4.3151,3.161,6.1143a7.6727,7.6727,0,0,0,7.9811,2.8163c2.2032-.5569,4.288-2.3831,6.6437-1.4415,2.3867.9539,2.5851,3.7056,3.6245,5.7312a7.6353,7.6353,0,0,0,7.2023,4.0862,11.8715,11.8715,0,0,0,3.7634-1.1154,6.7758,6.7758,0,0,1,3.1043-.8448c2.763.2066,3.4,2.5609,4.26,4.7173,1.1545,2.8949,3.3888,5.0669,6.629,5.3291,3.2129.26,5.6161-2.0807,8.6277-2.6243a7.1263,7.1263,0,0,0,5.8066-4.8657q.8331-2.1777,1.6661-4.3553,1.7771-4.6649,3.5416-9.3345l.3865-1.0187a1.8392,1.8392,0,0,0-.8473-2.0822L176.9464,898.663c-10.9845-4.6656-22.0058-9.2533-32.9563-13.998a5.53,5.53,0,0,1-3.1691-3.0012c-.7283-1.8357-.1027-3.4927.5751-5.1969l3.8443-9.6651a1.846,1.846,0,0,0-1.2878-2.268c-9.049-1.3784-18.5514-.6116-26.4465,4.3771a32.3356,32.3356,0,0,0-11.2188,12.12c-.383.7238-.7289,1.4639-1.0469,2.2183-.0852.2023-.707,1.5884-.2289.5983-1.0274,2.1276,2.1513,4,3.184,1.8612.1505-.3116.273-.6557.3934-.9817.1806-.4889-.1938.4054.1027-.2383.1405-.3052.28-.61.429-.9117a31.3436,31.3436,0,0,1,3.0687-4.9265,28.528,28.528,0,0,1,15.25-10.0344,38.7111,38.7111,0,0,1,15.5333-.5264l-1.2877-2.2681-3.4665,8.7152a18.1732,18.1732,0,0,0-1.311,3.8682,8.8,8.8,0,0,0,3.0174,8.0992,15.4892,15.4892,0,0,0,3.9968,2.1063l6.5147,2.767,20.8594,8.86,21.9194,9.31,7.7877,3.3078a33.4979,33.4979,0,0,0,3.8654,1.6418,1.4773,1.4773,0,0,1,.1711.0726l-.8473-2.0821-3.3326,8.7837q-.4605,1.2138-.9233,2.4267l-1.0677,2.791a6.8782,6.8782,0,0,1-.7753,1.73c-.8738,1.1738-2.2644,1.0909-3.5348,1.46a36.0654,36.0654,0,0,0-4.0389,1.7334c-2.4147,1.0334-4.7639.5-5.8613-2.0274-1.02-2.3478-1.56-4.628-3.825-6.1458-2.5091-1.6812-5.3139-1.5173-7.98-.3873-2.0156.8544-4.0514,1.7287-5.9675.0716-1.6536-1.43-1.7256-4.0957-2.9487-5.846a7.6869,7.6869,0,0,0-7.6149-3.15c-2.0432.3665-4.0334,2.1063-6.1682,1.8271-2.632-.3443-3.2234-2.607-4.06-4.7045a7.9633,7.9633,0,0,0-5.8308-5.2518c-2.7025-.5265-4.679.7556-7.1347,1.5567a4.065,4.065,0,0,1-5.171-2.397c-1.0193-2.3488-1.5594-4.6253-3.8234-6.1452-2.508-1.6836-5.3149-1.5163-7.9779-.3866-2.0439.8671-4.2111,1.7784-6.09-.0459a7.9614,7.9614,0,0,1-1.58-3.1247,15.0577,15.0577,0,0,1-1.2422-4.5983,10.6,10.6,0,0,1,.9518-4.9479C109.1838,883.5684,106.0064,881.693,105.0115,883.8474Z"/><polyline class="cls-3" points="156.562 516.114 356.065 542.466 368.578 445.05 193.332 434.197"/><path d="M156.562,517.9577l5.339.7052L176.43,520.582l21.4882,2.8384,26.2157,3.4628,28.5881,3.7761,28.98,3.828,27.023,3.5694,22.8344,3.0162,16.3615,2.1612c2.5905.3421,5.2.8138,7.8044,1.0308.1133.01.2267.03.3395.0449,1.0734.1418,1.7311-.9674,1.8437-1.8438l1.2408-9.66,2.9964-23.3277,3.61-28.1048,3.1218-24.3035,1.03-8.0212c.1618-1.26.4322-2.5547.4912-3.8244.0027-.0577.015-.1164.0223-.1738.1325-1.0312-.9543-1.7886-1.8437-1.8437l-4.6936-.2907-12.7724-.791-18.7855-1.1634-23.027-1.4261-25.2277-1.5624-25.4659-1.5771-23.6337-1.4637-20.0772-1.2434-14.4374-.8941c-2.271-.1406-4.5593-.3773-6.8348-.4233-.0969-.0019-.1943-.012-.2911-.018-2.37-.1468-2.3612,3.5413,0,3.6875l4.6936.2907,12.7724.791,18.7855,1.1634,23.027,1.4261,25.2277,1.5623,25.4659,1.5772,23.6337,1.4636,20.0772,1.2434,14.4373.8941c2.2555.14,4.5735.451,6.8349.4233.0963-.0011.1948.0121.2911.0181l-1.8438-1.8438-1.2408,9.66-2.9964,23.3276-3.61,28.1049-3.1217,24.3035-1.03,8.0212a38.3639,38.3639,0,0,0-.4913,3.8243,1.7387,1.7387,0,0,1-.0223.1738l1.8438-1.8437-5.339-.7052-14.5293-1.9192L314.7087,535.16l-26.2158-3.4628-28.588-3.7762-28.98-3.828-27.0229-3.5694-22.8344-3.0161-16.3616-2.1612c-2.59-.3422-5.2-.8138-7.8044-1.0309-.1133-.0094-.2266-.03-.3394-.0448-.9956-.1315-1.8343.9417-1.8437,1.8437a1.889,1.889,0,0,0,1.8437,1.8438Z"/><path class="cls-7" d="M220.94,492.2424,404.583,514.13l17.7148-148.6324c5.6162-47.1211-30.9408-90.22-81.6522-96.264h0L172.9013,249.2408"/><path d="M220.94,494.0861l4.9266.5872,13.3223,1.5878,19.7952,2.3593,24.0351,2.8647,26.4572,3.1533,26.7085,3.1832,24.7846,2.954,21.05,2.5088,15.07,1.7962c2.382.2839,4.79.7018,7.1846.8563.1028.0066.2061.0245.3085.0368,1.07.1275,1.7378-.9548,1.8438-1.8438l.7818-6.56,2.0688-17.3576,2.9018-24.3466,3.3086-27.7606,3.2825-27.5408,2.8346-23.7831,1.9257-16.1573c.3881-3.2559.8306-6.514,1.0309-9.7879a82.7492,82.7492,0,0,0-6.34-36.9273,90.1851,90.1851,0,0,0-21.3147-30.6145A97.5232,97.5232,0,0,0,363.97,272.9532,105.4265,105.4265,0,0,0,339.637,267.27l-10.2723-1.2244-18.9281-2.2559-24.7538-2.95-27.8578-3.32-27.84-3.318L204.8927,251.21,185.4,248.8867l-11.0667-1.319-1.4319-.1706a1.856,1.856,0,0,0-1.8438,1.8437,1.8864,1.8864,0,0,0,1.8438,1.8438l5.822.6939,15.59,1.8581,22.5451,2.687,26.6864,3.1807,28.1439,3.3543,26.5151,3.16,22.2028,2.6463,15.0771,1.797c2.3915.285,4.7919.5351,7.1758.88a96.7237,96.7237,0,0,1,37.0818,13.3859,89.9363,89.9363,0,0,1,26.9438,25.6257,79.8382,79.8382,0,0,1,13.6115,56.4634l-1.3833,11.6061L416.4527,399.07l-3.1115,26.1059-3.3349,27.9812-3.1314,26.2734-2.5008,20.9824-1.4432,12.1085-.1916,1.6081,1.8437-1.8437-4.9266-.5872-13.3222-1.5878-19.7952-2.3593-24.0352-2.8647-26.4571-3.1533-26.7086-3.1833-24.7845-2.9539-21.05-2.5089-15.07-1.7961c-2.3821-.2839-4.79-.7018-7.1846-.8563-.1029-.0066-.2061-.0246-.3086-.0368a1.856,1.856,0,0,0-1.8437,1.8438,1.8861,1.8861,0,0,0,1.8437,1.8437Z"/><path class="cls-5" d="M236.0661,494.0451,65.4254,473.7072,83.14,325.0749a85.9242,85.9242,0,0,1,95.4892-75.1514l0,0a85.924,85.924,0,0,1,75.1513,95.4892Z"/><path d="M236.0661,492.2014l-4.54-.5411L219.09,490.1781l-18.31-2.1823-22.4554-2.6764-24.479-2.9175-24.8346-2.96-23.0454-2.7467-19.5738-2.3329-14.0094-1.67c-2.2035-.2627-4.4544-.69-6.6728-.7954-.0945-.0044-.19-.0226-.2841-.0338l1.8437,1.8437.9536-8.0006,2.4658-20.6885L74.06,416.7314l3.6989-31.0342,3.4534-28.9749,2.6013-21.8257q.578-4.8495,1.1559-9.699a84.1,84.1,0,0,1,167.3869,4.1816,103.92,103.92,0,0,1-.8149,19.3551l-1.9787,16.6023-3.1165,26.1477-3.6471,30.6-3.603,30.23-2.9833,25.0311-1.7567,14.7394-.2336,1.96a1.8559,1.8559,0,0,0,1.8437,1.8438,1.8863,1.8863,0,0,0,1.8438-1.8438l.9679-8.1209,2.4993-20.97,3.4245-28.7322,3.7431-31.4058L252,375.8243l2.5612-21.4893q.53-4.4495,1.0606-8.8989a87.49,87.49,0,0,0-4.9132-40.8581,87.7926,87.7926,0,0,0-165.122,1.7229,100.8336,100.8336,0,0,0-4.6173,21.5181L79.0563,343.87l-3.1,26.0081-3.68,30.8765-3.6539,30.657-3.0213,25.35-1.7823,14.954-.2373,1.9916c-.1276,1.07.9547,1.7378,1.8437,1.8438l4.54.5411,12.4361,1.4822,18.31,2.1823,22.4554,2.6764,24.4791,2.9175,24.8346,2.96,23.0453,2.7467L215.1,493.39l14.0094,1.67c2.2119.2636,4.4487.6533,6.6728.7953.0947.0061.19.0226.2841.0339a1.856,1.856,0,0,0,1.8438-1.8438A1.8863,1.8863,0,0,0,236.0661,492.2014Z"/><path d="M209.5621,259.7662a85.95,85.95,0,0,0-63.11,72.8546l-10.4807,97.8984a37.7639,37.7639,0,0,1-28.3636,32.61L65.4254,473.7072l170.6407,20.3379,17.7148-148.6322A85.95,85.95,0,0,0,209.5621,259.7662Z"/><path d="M209.0719,257.9883a87.9167,87.9167,0,0,0-60.6734,57.3322,104.3143,104.3143,0,0,0-4.2655,21.7407L141.7961,358.89l-3.2234,30.1088-2.94,27.4624q-.7405,6.9166-1.481,13.8334A36.3257,36.3257,0,0,1,113.36,459.1777a52.1475,52.1475,0,0,1-9.3669,2.9571l-12.0966,3.0335L66.5291,471.53l-1.5938.4c-2.169.5439-1.4443,3.391.49,3.6216l4.54.5411,12.4361,1.4822,18.31,2.1823,22.4554,2.6764,24.4791,2.9175,24.8346,2.96,23.0453,2.7467L215.1,493.39l14.0094,1.67c2.2119.2636,4.4487.6533,6.6728.7953.0947.0061.19.0226.2841.0339,1.07.1275,1.7378-.9548,1.8438-1.8438l.802-6.73,2.1057-17.6672,2.9725-24.94,3.3613-28.2021,3.3105-27.7763,2.809-23.5682,1.8567-15.5779a123.95,123.95,0,0,0,1.1072-13.88,87.9653,87.9653,0,0,0-45.7422-77.5293c-2.0823-1.1406-3.9453,2.0425-1.8611,3.184a84.254,84.254,0,0,1,43.5751,66.12,97.5125,97.5125,0,0,1-.554,20.3232l-1.6,13.4205-2.6386,22.1392-3.2288,27.09-3.3595,28.1872-3.0762,25.81L235.4244,483.96c-.3824,3.2086-.9148,6.4385-1.1515,9.6621-.01.1413-.0338.2827-.05.4235l1.8437-1.8437-4.54-.5411L219.09,490.1781l-18.31-2.1823-22.4554-2.6764-24.479-2.9175-24.8346-2.96-23.0454-2.7467-19.5738-2.3329-14.0094-1.67c-2.1991-.2621-4.4578-.7065-6.6728-.7954-.0944-.0037-.19-.0226-.2841-.0338l.49,3.6216L85.6742,470.53q11.0924-2.7817,22.1848-5.5634A40.0676,40.0676,0,0,0,136.02,438.9553c1.7208-5.1535,2.0336-10.6648,2.6086-16.0364l2.5995-24.2812,3.2605-30.4559,2.7459-25.6483c.4532-4.2334.7863-8.5036,1.4507-12.7115A84.0853,84.0853,0,0,1,200.01,264.9135a86.9782,86.9782,0,0,1,10.0422-3.3694C212.3407,260.9261,211.37,257.3679,209.0719,257.9883Z"/><path class="cls-7" d="M65.4254,473.7072l170.6407,20.3379L186.8852,600.2037a81.69,81.69,0,0,1-83.79,46.7771h0c-55.1439-6.5724-87.799-65.0665-64.4547-115.4559Z"/><path d="M65.4254,475.551l4.54.5411,12.4361,1.4822,18.31,2.1823,22.4554,2.6764,24.4791,2.9175,24.8346,2.96,23.0453,2.7467L215.1,493.39l14.0094,1.67c2.2009.2623,4.4564.7,6.6728.7953.0944.0041.19.0227.2841.0339l-1.592-2.7743-8.0422,17.3593-17.4938,37.761-16.9964,36.6872c-3.1283,6.7525-6.0079,13.7627-9.6757,20.2493A79.8548,79.8548,0,0,1,37.63,538.787c1.4049-3.8884,3.1918-7.606,4.9274-11.3523l7.69-16.5994,15.79-34.0836.9793-2.1139c.9911-2.1393-2.1864-4.0145-3.184-1.8611L51.3317,499.762q-7.056,15.2306-14.112,30.4612A83.5335,83.5335,0,0,0,174.128,622.5473a84.2531,84.2531,0,0,0,14.4667-21.6667q1.5932-3.4338,3.1825-6.8695l15.2509-32.92,18.5743-40.0931,11.5-24.8239.5554-1.1989a1.876,1.876,0,0,0-1.592-2.7743l-4.54-.5411L219.09,490.1781l-18.31-2.1823-22.4554-2.6764-24.479-2.9175-24.8346-2.96-23.0454-2.7467-19.5738-2.3329-14.0094-1.67c-2.2119-.2637-4.4487-.6534-6.6728-.7954-.0947-.006-.19-.0226-.2841-.0338a1.8558,1.8558,0,0,0-1.8437,1.8437A1.8862,1.8862,0,0,0,65.4254,475.551Z"/><path class="cls-7" d="M430.5337,268.4026l-23.4828-13.9733-31.0522,52.1835L320.911,399.1882a28.8442,28.8442,0,1,0,29.0464,15.3107l54.22-91.1177L487.15,372.7544l31.0523-52.1838Z"/><path d="M431.4643,266.8106l-20.585-12.249-2.8978-1.7244a1.8728,1.8728,0,0,0-2.5226.6615L387.96,282.9065l-13.8973,23.3543-15.357,25.8077-24.38,40.9711-9.79,16.4528c-1.658,2.7862-3.4674,5.5311-4.9941,8.3925-.0678.1271-.148.2489-.2217.3727l1.592-.9131a30.6783,30.6783,0,1,0,30.6384,16.2239V415.43l5.4041-9.0815,12.9734-21.8019,15.6233-26.255,13.5138-22.71,4.4933-7.5511a36.94,36.94,0,0,0,2.1177-3.5587,1.64,1.64,0,0,1,.0949-.1594l-2.5226.6614,8.2211,4.8921,19.8567,11.8159L455.252,355.919l20.775,12.3624c3.3373,1.9858,6.6244,4.1477,10.05,5.98.0486.026.0952.0567.1427.0849a1.8729,1.8729,0,0,0,2.5226-.6615l10.5034-17.6511,16.7276-28.111,3.8213-6.4217a1.8729,1.8729,0,0,0-.6615-2.5226l-8.7634-5.2147-20.9268-12.4527-25.2964-15.0528L442.2739,273.243c-3.5394-2.1062-7.0261-4.3893-10.6547-6.34-.0527-.0284-.1034-.0615-.1549-.0922-2.0441-1.2164-3.9009,1.97-1.8611,3.1841l8.7634,5.2147,20.9267,12.4527L484.59,302.7149,506.462,315.73l7.24,4.308a34.2449,34.2449,0,0,0,3.4152,2.0322,1.5525,1.5525,0,0,1,.1549.0922L516.61,319.64l-10.5034,17.6512-16.7276,28.1109-3.8213,6.4217,2.5226-.6615-8.2211-4.892-19.8567-11.8159-23.9269-14.2378-20.775-12.3624c-3.3373-1.9858-6.6244-4.1478-10.05-5.98-.0486-.026-.0953-.0567-.1427-.0849a1.8729,1.8729,0,0,0-2.5226.6614l-3.6231,6.0887-9.1656,15.4028L377.644,364.3654l-12.5852,21.15-10.4623,17.5819-5.7842,9.72c-.1374.2308-.2913.4583-.4148.697a2.0788,2.0788,0,0,0-.0321,1.9152,45.7247,45.7247,0,0,1,1.9384,4.846,27.0027,27.0027,0,1,1-33.46-18.3808,37.6364,37.6364,0,0,1,4.0671-.8627,2.1432,2.1432,0,0,0,1.62-.9609c.4482-.669.83-1.3944,1.2413-2.0861l7.0758-11.891L341.98,367.3879,354.6887,346.03l11.809-19.8452,8.4319-14.17,2.8044-4.7129q3.5808-6.0177,7.1618-12.0354l12.3863-20.8153,9.8616-16.5725,1.4993-2.5195-2.5226.6615,20.5849,12.249,2.8979,1.7244C431.6473,271.211,433.5041,268.0244,431.4643,266.8106Z"/><circle class="cls-3" cx="324.3759" cy="427.8226" r="11.8411"/><path d="M334.29,429.224a10.0153,10.0153,0,1,1-6.776-10.8974,10.1132,10.1132,0,0,1,6.776,10.8974,1.8557,1.8557,0,0,0,1.8437,1.8437,1.8855,1.8855,0,0,0,1.8437-1.8437,13.6739,13.6739,0,1,0-12.5653,12.2394,13.7621,13.7621,0,0,0,12.5653-12.2394,1.8527,1.8527,0,0,0-1.8437-1.8438A1.8913,1.8913,0,0,0,334.29,429.224Z"/><path d="M235.8017,526.782l-.91,21.232-.5142,11.9979a29.0915,29.0915,0,0,0,2.4544,14.1765c1.89,3.9516,4.7668,7.5421,7.2026,11.1674,1.3168,1.96,4.5125.116,3.1841-1.8611-1.8323-2.727-3.6848-5.4413-5.4972-8.1814a22.1221,22.1221,0,0,1-3.7549-11.5371c-.032-1.0622.0281-2.123.0736-3.1838l1.0915-25.4684.3575-8.342c.1017-2.3728-3.586-2.3679-3.6875,0Z"/><path d="M620.596,457.21a34.9471,34.9471,0,0,0,7.34,11.5854c7.0862,7.7927,16.9,12.218,27.2591,13.5291,9.1216,1.1546,18.4224-.0636,27.2836-2.3163,2.2985-.5844,1.3244-4.1417-.98-3.5558-12.9372,3.289-27.47,4.2891-39.722-1.797A36.7437,36.7437,0,0,1,631.3994,467.1a33.3586,33.3586,0,0,1-5.5-7.2944c-.537-.937-1.0212-1.8982-1.47-2.88-.1457-.3187-.201-.5081-.0261-.0521-.0445-.116-.094-.23-.14-.3459-.039-.0985-.0771-.1976-.1118-.2978-.773-2.2281-4.3365-1.27-3.5558.98Z"/><path d="M513.2856,733.8962V633.1155c0-1.3663.0978-2.7737,0-4.1375-.0042-.0579,0-.1173,0-.1754a.9354.9354,0,0,0-.9219-.9219,18.8757,18.8757,0,0,1-15.8462-8.726,19.6337,19.6337,0,0,1-2.8985-10.6765V531.3788c0-1.4553.0982-2.95,0-4.4029-.0044-.0641,0-.13,0-.1939a.9353.9353,0,0,0-.9219-.9219h-63.302a.9354.9354,0,0,0-.9219.9219v83.5831a.9225.9225,0,0,0,1.8438,0V526.782l-.9219.9218h63.302l-.9219-.9218v81.4543a22.4805,22.4805,0,0,0,1.9733,9.6962A20.7006,20.7006,0,0,0,507.8671,629.23a20.9519,20.9519,0,0,0,4.4966.4945l-.9219-.9219V729.5833c0,1.3663-.0977,2.7737,0,4.1375.0042.0578,0,.1173,0,.1754a.9225.9225,0,0,0,1.8438,0Z"/><path d="M459.8169,438.8967v59.9218a.9225.9225,0,0,0,1.8438,0V438.8967a.9225.9225,0,0,0-1.8438,0Z"/><path d="M508.0616,568.2663h45.4791l-.9219-.9219V668.1359a.9353.9353,0,0,0,.9219.9218h11.7838c4.0167,0,8.2292.3711,12.23-.0981a13.6854,13.6854,0,0,0,11.9391-13.538c.0641-4.0206,0-8.0474,0-12.0684V630.0318l-.9219.9218h63.302l-.9219-.9218v63.3019a.9353.9353,0,0,0,.9219.9219h19.6666a.9352.9352,0,0,0,.9219-.9219V570.4173l-.9219.9219h42.4062l-.9219-.9219v97.7186a.9353.9353,0,0,0,.9219.9218h36.26l-.9218-.9218v36.8749a.9352.9352,0,0,0,.9218.9219h44.25a.9353.9353,0,0,0,.9218-.9219V655.23l-.9218.9219c16.69,0,30.3108-13.8754,30.4218-30.4631.0655-9.7918,0-19.5863,0-29.3783V584.5527l-.9219.9219h63.302a.9225.9225,0,0,0,0-1.8438h-63.302a.9354.9354,0,0,0-.9219.9219V624.48a30.1463,30.1463,0,0,1-4.7748,17.0733,28.7728,28.7728,0,0,1-23.8032,12.755.9352.9352,0,0,0-.9219.9218v49.7812l.9219-.9219h-44.25l.9219.9219V668.1359a.9353.9353,0,0,0-.9219-.9219h-36.26l.9219.9219V570.4173a.9354.9354,0,0,0-.9219-.9219H671.5405a.9354.9354,0,0,0-.9219.9219V693.3337l.9219-.9218H651.8739l.9218.9218V630.0318a.9352.9352,0,0,0-.9218-.9219h-63.302a.9354.9354,0,0,0-.9219.9219v24.1723a14.9316,14.9316,0,0,1-.815,5.6423,11.7925,11.7925,0,0,1-8.7574,7.1794c-3.7133.684-7.8784.1882-11.6244.1882H553.5407l.9219.9219V567.3444a.9353.9353,0,0,0-.9219-.9219H508.0616a.9225.9225,0,0,0,0,1.8438Z"/><path d="M426.5739,552.9017h-51.262a.9353.9353,0,0,0-.9219.9219v49.4738l.9219-.9218H350.7286a.9224.9224,0,0,0,0,1.8437h24.5833a.9352.9352,0,0,0,.9218-.9219V553.8236l-.9218.9219h51.262a.9225.9225,0,0,0,0-1.8438Z"/><path d="M580.89,838.3752V771.3857l-.9218.9219h28.5586c10.3057,0,20.6134.0625,30.9189,0a18.333,18.333,0,0,0,18.2671-18.13l-.9219.9219h111.68a7.6259,7.6259,0,0,0,1.5137,0,.9869.9869,0,0,1,.1967,0l-.9219-.9219v31.9583a.9224.9224,0,0,0,1.8437,0V754.1774a.9352.9352,0,0,0-.9218-.9219H661.4331c-1.4692,0-2.9791-.1005-4.4459,0-.0649.0045-.1315,0-.1967,0a.9353.9353,0,0,0-.9218.9219,16.4582,16.4582,0,0,1-16.3976,16.2864c-3.321.0225-6.643,0-9.9641,0H579.9678a.9353.9353,0,0,0-.9219.9219v66.9895a.9224.9224,0,0,0,1.8437,0Z"/><line class="cls-1" x1="48.3541" y1="233.6262" x2="68.0208" y2="253.2929"/><path d="M47.05,234.93l17.2165,17.2165,2.45,2.45a1.8448,1.8448,0,0,0,2.6075-2.6075L52.1079,234.7726l-2.45-2.45A1.8448,1.8448,0,0,0,47.05,234.93Z"/><line class="cls-1" x1="97.5207" y1="207.1992" x2="103.0519" y2="228.7096"/><path d="M95.7428,207.6893l4.85,18.8595.6817,2.6509c.59,2.2967,4.148,1.3232,3.5557-.98L99.98,209.36l-.6817-2.6509c-.5906-2.2967-4.1481-1.3232-3.5558.98Z"/><line class="cls-1" x1="25" y1="287.7095" x2="56.9583" y2="288.9386"/><path d="M25,289.5532l28.04,1.0785,3.9187.1507c2.3731.0913,2.3692-3.5964,0-3.6875l-28.04-1.0785L25,285.8657c-2.3731-.0912-2.3692,3.5964,0,3.6875Z"/><path d="M474.5582,259.8015a28.3963,28.3963,0,0,0,6.9173,2.9605,39.1985,39.1985,0,0,0,17.3128,1.1715,43.4282,43.4282,0,0,0,12.6622-4.132c2.1282-1.05.2619-4.2312-1.8611-3.184a37.1363,37.1363,0,0,1-23.7545,3.4449,27.13,27.13,0,0,1-9.4156-3.4449c-2.008-1.2777-3.86,1.9123-1.8611,3.184Z"/><path d="M197.822,189.3105c9.0767,1.48,18.3414,2.9587,27.5457,3.1962a16.303,16.303,0,0,0,5.455-.4287c1.7256-.5777,2.3407-2.1719,2.9365-3.7475a117.203,117.203,0,0,0,4.1957-15.79q1.4323-6.3752,2.6976-12.7882c.4539-2.3181-3.1-3.3106-3.5558-.98A252.7844,252.7844,0,0,1,230.9635,185.1c-.2852.9195-.5885,1.8342-.9466,2.7282-.102.2548.128-.2489-.0712.1566-.0732.1489-.1459.2974-.2212.4452-.0558.1094-.1342.209-.1879.3185-.16.3256.2941-.3394.0447-.0615-.104.1159.422-.3623.08-.0875.1328-.1066.4075-.0929.0532-.0357-.1283.0206-.26.07-.3879.0987-.094.0208-.6829.11-.3958.0729.2991-.0391-.2946.0253-.3624.03-.2005.0145-.4007.0284-.6015.0384-.5136.0255-1.0279.0324-1.542.031a130.3566,130.3566,0,0,1-16.2782-1.4321c-3.7515-.4853-7.5715-1.0332-11.344-1.6484-2.3214-.3786-3.32,3.1741-.98,3.5558Z"/><line class="cls-3" x1="401.1664" y1="328.4419" x2="415.8743" y2="302.4594"/><path d="M402.7584,329.3725,415.61,306.669l1.8561-3.279c1.1707-2.068-2.0138-3.9285-3.184-1.8611l-12.8518,22.7034-1.8561,3.279c-1.1706,2.0681,2.0138,3.9285,3.184,1.8612Z"/><path d="M477.3325,525.86H445.3742l.9219.9219V502.1987l-.9219.9218h31.9583l-.9219-.9218V526.782a.9225.9225,0,0,0,1.8438,0V502.1987a.9353.9353,0,0,0-.9219-.9219H445.3742a.9353.9353,0,0,0-.9218.9219V526.782a.9352.9352,0,0,0,.9218.9218h31.9583A.9224.9224,0,0,0,477.3325,525.86Z"/><path d="M445.3742,718.2243h31.9583l-.9219-.9218v93.7221c0,1.265-.0925,2.57,0,3.8323.004.0541,0,.11,0,.1641a.9225.9225,0,0,0,1.8438,0V721.2989c0-1.265.0926-2.57,0-3.8323-.004-.0541,0-.11,0-.1641a.9353.9353,0,0,0-.9219-.9219H445.3742a.9224.9224,0,0,0,0,1.8437Z"/><path d="M411.5393,899.7712c1.1446-3.2717,1.9388-8.0808-.4594-10.9688a6.1719,6.1719,0,0,0-6.9334-1.4943,11.2942,11.2942,0,0,0-5.2305,5.2361,22.7366,22.7366,0,0,0-2.0608,4.8931l1.8108.245c-.0087-3.6-.8317-9.457-4.8557-10.7333a5.5887,5.5887,0,0,0-6.5195,2.8958c-1.2439,2.49-1.17,5.514-.8561,8.2091a34.75,34.75,0,0,0,1.2017,6.0193l1.5409-.8969c-2-2.2647-5.8259-5.1542-8.8179-2.9928-4.0481,2.9244-.989,8.9938,2.17,11.2011.9747.6811,1.8972-.9165.93-1.592a7.4066,7.4066,0,0,1-3.0014-4.452c-.3086-1.4355-.0824-3.39,1.5188-3.9586,2.099-.7456,4.6283,1.6617,5.8967,3.098a.9286.9286,0,0,0,1.5408-.8969c-1.0349-3.4209-1.8045-7.4634-1.0989-11.0067.4317-2.1673,1.788-4.1964,4.2739-3.9968,2.1944.1762,3.1428,2.6086,3.6215,4.44a18.7535,18.7535,0,0,1,.6114,4.6627.9262.9262,0,0,0,1.8109.2451c.8282-2.9524,2.4049-6.3454,4.9263-8.1972,1.6944-1.2444,4.3569-1.5756,5.94.0632,1.37,1.4182,1.3446,3.7266,1.1449,5.5543a17.9154,17.9154,0,0,1-.883,3.9333c-.3926,1.1222,1.388,1.6047,1.7779.49Z"/></svg>