<svg id="Layer_1" data-name="Layer 1" xmlns="http://www.w3.org/2000/svg" width="1000" height="1000" viewBox="0 0 1000 1000"><defs><style>.cls-1{fill:#fc7272;}.cls-2{fill:#fff;}.cls-3{fill:#ffc41f;}.cls-4{fill:#389b48;}.cls-5{fill:#458dc9;}.cls-6{fill:#ea2f2f;}.cls-7{stroke:#000;stroke-miterlimit:10;stroke-width:1.3778px;}</style></defs><path class="cls-1" d="M692.629,526.4926,792.0074,514.98a56.5639,56.5639,0,0,1,19.2281,1.0727L832.02,520.849a56.5671,56.5671,0,0,0,14.27,1.4273l45.907-1.26a19.1268,19.1268,0,0,0,18.6022-19.12V456.6515H692.629"/><path d="M692.629,528.5593l13.8432-1.6038,31.14-3.6074,33.2-3.8462,20.0538-2.3232a58.454,58.454,0,0,1,16.4953.2036c4.5678.771,9.085,1.9923,13.5955,3.0332,4.4283,1.022,8.8565,2.2045,13.3333,3.0019a74.6818,74.6818,0,0,0,15.2635.836l31.1831-.8556,10.7725-.2956a21.6958,21.6958,0,0,0,16.1093-7.2531,22.525,22.525,0,0,0,5.2478-15.2011V456.6515a2.0968,2.0968,0,0,0-2.0667-2.0667H701.4908c-2.831,0-5.6706-.064-8.5011,0-.12.0027-.2406,0-.3607,0-2.66,0-2.6641,4.1333,0,4.1333H901.9375c2.8161,0,5.6883.164,8.5011,0,.1193-.0069.241,0,.3607,0l-2.0667-2.0666v39.1764a65.0442,65.0442,0,0,1-.126,8.2935,17.2659,17.2659,0,0,1-14.6659,14.7019,78.9832,78.9832,0,0,1-8.0935.3009l-31.8147.873c-2.5783.0707-5.1566.1492-7.7352.2122a55.58,55.58,0,0,1-13.7878-1.367q-2.2263-.5094-4.4506-1.0271L813.0858,514.36a62.1911,62.1911,0,0,0-21.1446-1.4391q-7.57.8628-15.1375,1.7536l-31.3869,3.6361-32.7232,3.791-19.1465,2.218-.9181.1064a2.13,2.13,0,0,0-2.0667,2.0667,2.08,2.08,0,0,0,2.0667,2.0667Z"/><rect class="cls-2" x="681.4229" y="245.5957" width="271.6136" height="236.1826"/><path d="M953.0365,479.7116H692.4485c-3.5048,0-7.0621-.1768-10.5637,0-.1531.0078-.3084,0-.4619,0l2.0667,2.0667V255.2016c0-3.0453.2055-6.172,0-9.2124-.0088-.13,0-.2631,0-.3935l-2.0667,2.0667H942.011c3.5048,0,7.062.1769,10.5637,0,.1531-.0077.3084,0,.4618,0l-2.0666-2.0667V472.1724c0,3.0675-.074,6.1455,0,9.2124.0031.131,0,.2624,0,.3935,0,2.66,4.1333,2.664,4.1333,0V255.2016c0-3.0675.074-6.1455,0-9.2124-.0031-.131,0-.2624,0-.3935a2.0968,2.0968,0,0,0-2.0667-2.0667H692.4485c-3.519,0-7.0452-.0655-10.5637,0-.1539.0029-.308,0-.4619,0a2.0967,2.0967,0,0,0-2.0666,2.0667V472.1724c0,3.0675-.074,6.1455,0,9.2124.0031.131,0,.2624,0,.3935a2.0967,2.0967,0,0,0,2.0666,2.0667H942.011c3.519,0,7.0451.0655,10.5637,0,.1538-.0029.308,0,.4618,0C955.6962,483.845,955.7006,479.7116,953.0365,479.7116Z"/><rect class="cls-3" x="681.1446" y="440.2254" width="271.8919" height="41.5529"/><path d="M679.078,440.2254v41.5529a2.0967,2.0967,0,0,0,2.0666,2.0667H942c3.5226,0,7.0524.0656,10.5745,0,.154-.0029.3083,0,.4623,0a2.0968,2.0968,0,0,0,2.0667-2.0667V440.2254a2.0967,2.0967,0,0,0-2.0667-2.0666H692.1815c-3.5226,0-7.0524-.0656-10.5745,0-.154.0028-.3083,0-.4624,0-2.66,0-2.664,4.1333,0,4.1333H942c3.5084,0,7.0693.1772,10.5745,0,.1533-.0077.3088,0,.4623,0l-2.0666-2.0667v41.5529l2.0666-2.0667H692.1815c-3.5084,0-7.0693-.1772-10.5745,0-.1533.0078-.3088,0-.4624,0l2.0667,2.0667V440.2254C683.2113,437.5658,679.078,437.5614,679.078,440.2254Z"/><path class="cls-2" d="M598.8681,414.4935,556.6337,283.6159a54.8718,54.8718,0,0,0-52.22-38.02H428.9868L499.779,392.1918"/><path d="M600.861,413.9441l-3.4476-10.6834-8.48-26.278-10.799-33.4642-10.4368-32.342-7.2815-22.564c-2.1472-6.6539-4.354-13.1721-8.2155-19.1065a57.4991,57.4991,0,0,0-42.0734-25.68,85.1725,85.1725,0,0,0-8.8866-.2967H428.9868a2.092,2.092,0,0,0-1.7845,3.11l7.0589,14.6176,16.9453,35.09,20.379,42.2006,17.7076,36.6688L495.1,387.24c.9221,1.9095,1.7623,3.893,2.779,5.7548.0424.0776.0774.16.1159.24,1.1563,2.3946,4.7217.3009,3.569-2.0862l-7.0589-14.6176-16.9453-35.09L457.18,299.24l-17.7076-36.6688-5.8066-12.0242c-.9155-1.8958-1.7136-3.9366-2.779-5.7548-.0444-.0758-.0775-.1606-.1158-.24l-1.7846,3.11h74.91a52.8079,52.8079,0,0,1,50.7437,36.5034c.3088.9483.6126,1.8983.9188,2.8474l6.2349,19.3207,9.9207,30.7428,10.9091,33.8054,9.16,28.3859,4.8695,15.09.2211.6851c.8136,2.5212,4.8059,1.4429,3.9857-1.0988Z"/><path d="M444.43,818.5289c73.7756,0,135.4209-6.4627,150.4112-15.0885a4.6635,4.6635,0,0,0,2.2865-4.84l-.008-.0461a4.64,4.64,0,0,0-2.2347-3.2256c-14.9045-8.64-76.5988-15.1172-150.455-15.1172-78.57,0-143.3822,7.33-152.7332,16.7967l-.8487,3.5755C295.8782,810.599,362.71,818.5289,444.43,818.5289Z"/><path d="M444.43,820.5955c28.3456-.0068,56.7266-.85,84.9819-3.1835,10.9391-.9035,21.8654-2.04,32.7279-3.6264a188.9171,188.9171,0,0,0,23.3793-4.6053c5.452-1.5174,16.082-4.1874,13.3537-12.0479-1.1486-3.3093-4.6764-4.6073-7.6788-5.7451a75.1752,75.1752,0,0,0-8.4828-2.5643,228.2978,228.2978,0,0,0-24.6388-4.4386c-11.2232-1.517-22.5008-2.607-33.7926-3.462-28.5687-2.1633-57.2514-2.9011-85.8967-2.7633-27.8613.134-55.7615,1.0862-83.5194,3.5628-10.5809.9441-21.1522,2.1147-31.6484,3.7634a158.3415,158.3415,0,0,0-22.0517,4.7111,45.5245,45.5245,0,0,0-7.2277,2.8015c-1.6925.8591-3.81,1.9846-4.339,3.9118-.4021,1.4643-1.2131,3.5324-.411,4.9395a7.0361,7.0361,0,0,0,1.48,1.74,18.8682,18.8682,0,0,0,5.1514,3.0154c5.8758,2.5071,12.2285,3.8839,18.4764,5.0956,9.4358,1.83,18.9862,3.0805,28.5373,4.1267,26.2133,2.8712,52.6177,4.08,78.9739,4.5633q11.3117.2076,22.6255.2056c2.66.0007,2.664-4.1327,0-4.1333-28.4533-.0069-56.9435-.8544-85.3053-3.2107-10.83-.9-21.6548-2.0088-32.4051-3.6146a178.3994,178.3994,0,0,1-23.0525-4.6627c-1.5212-.4381-3.0324-.9154-4.5178-1.4636a22.1476,22.1476,0,0,1-3.2055-1.38c-.4712-.2416-.9355-.4979-1.3843-.7791-.1842-.1155-.3633-.2381-.5446-.358-.0861-.057-.1676-.1206-.252-.18-.4119-.29.29.2531-.0021-.0021-.2814-.2458-.5369-.51-.8081-.7657-.3717-.35.31.0609-.0552-.06-.0948-.0314-.2236-.3652-.2649-.4448l.2084,1.5925a28.18,28.18,0,0,0,.7416-3.1243c.03-.26.3149-.814-.1257-.0159-.4533.821-.2175.3209-.0319.221a1.916,1.916,0,0,0,.2932-.2546c.3726-.3319-.2166.1465.0473-.0387a21.4828,21.4828,0,0,1,3.5891-1.9819c.13-.0582.48-.2058.1518-.0683.1963-.0822.3937-.1619.5915-.2406q.67-.2665,1.3494-.5109c.895-.3237,1.7991-.622,2.7083-.9034,2.2153-.6857,4.4614-1.27,6.7184-1.8014,13.0192-3.0632,26.4017-4.6463,39.6927-5.9656,18.7223-1.8584,37.5244-2.9116,56.3258-3.5321q32.813-1.0829,65.6563-.3634c19.6784.4193,39.3579,1.2944,58.9757,2.9184a409.66,409.66,0,0,1,43.6647,5.5011,120.9239,120.9239,0,0,1,14.2986,3.4922c.9063.2925,1.8069.6034,2.6968.9427a18.3358,18.3358,0,0,1,1.9626.8259,8.1,8.1,0,0,1,2.1713,1.2426,2.64,2.64,0,0,1-.5827,4.2158,16.0827,16.0827,0,0,1-1.8724.95c-.1816.083-.3643.1633-.5473.2432.0187-.0082.0814-.03-.246.1024q-.613.2472-1.2321.4789c-1.9294.7178-3.9025,1.3168-5.8879,1.8583-5.285,1.4416-10.6764,2.49-16.0749,3.4028-15.2647,2.5806-30.7242,4.0294-46.1567,5.1475-20.3277,1.4727-40.7081,2.2174-61.0857,2.4829q-8.1009.1054-16.2028.1049C441.7705,816.4628,441.7661,820.5962,444.43,820.5955Z"/><path class="cls-3" d="M424.525,883.2966l4.2111,75.4638a14.6443,14.6443,0,0,1-14.61,15.6518H352.9987a14.6442,14.6442,0,0,1-14.4516-17.0113l10.734-74.1043Z"/><path d="M422.4583,883.2966l.9248,16.5733,1.8386,32.9481,1.3463,24.1244c.0327.5855.0669,1.171.098,1.7566a13.0825,13.0825,0,0,1-2.1978,8.2384c-2.6484,3.9023-6.9424,5.4081-11.4633,5.4081H357.7842a45.5852,45.5852,0,0,1-6.6415-.1215,12.7475,12.7475,0,0,1-10.5995-14.2961c.7779-5.827,1.686-11.64,2.5287-17.4575l4.73-32.6549,3.3023-22.7984.17-1.1711-1.9929,1.5173H424.525c2.66,0,2.664-4.1334,0-4.1334H349.2811a2.0828,2.0828,0,0,0-1.9928,1.5173l-2.47,17.0548-4.8254,33.3125-3.3015,22.7928c-.1384.9552-.304,1.9131-.3715,2.8751a16.6341,16.6341,0,0,0,3.5547,11.3029c3.4317,4.388,8.5389,6.3935,14.0014,6.3935H409.552a44.1262,44.1262,0,0,0,7.711-.302,16.8584,16.8584,0,0,0,13.54-17.4164c-.2927-5.7019-.6363-11.4017-.9544-17.1023l-1.8752-33.604-1.3143-23.5512-.0673-1.2063C426.444,880.6516,422.31,880.6344,422.4583,883.2966Z"/><path class="cls-2" d="M402.1869,958.54v-2.9392a20.5744,20.5744,0,0,0-20.5744-20.5745h0a20.5744,20.5744,0,0,0-20.5745,20.5745V958.54H338.41a14.6423,14.6423,0,0,0,14.5884,15.8718h61.1278A14.6442,14.6442,0,0,0,428.736,958.76l-.0121-.22h-26.537Z"/><path d="M404.2536,958.54c0-4.5457-.3159-8.7972-2.343-12.9667a22.604,22.604,0,0,0-11.3227-10.7467,22.8694,22.8694,0,0,0-28.414,9.1588,22.2734,22.2734,0,0,0-2.9448,8.3024,44.2517,44.2517,0,0,0-.2578,6.2522l2.0667-2.0667H338.41a2.1137,2.1137,0,0,0-2.0667,2.0667,16.8918,16.8918,0,0,0,7.5073,15.2118,17.504,17.504,0,0,0,9.8679,2.7266h58.8022a20.6037,20.6037,0,0,0,7.1766-.9562,16.8393,16.8393,0,0,0,10.8672-12.7757,18.8766,18.8766,0,0,0,.2257-4.2065,2.1057,2.1057,0,0,0-2.0667-2.0667h-26.537c-2.66,0-2.664,4.1334,0,4.1334h26.537l-2.0666-2.0667a12.8622,12.8622,0,0,1-6.74,12.4,14.424,14.424,0,0,1-6.9493,1.4055H355.32a20.0161,20.0161,0,0,1-6.1716-.596,12.7439,12.7439,0,0,1-8.671-13.2091l-2.0666,2.0667H361.038a2.0967,2.0967,0,0,0,2.0666-2.0667c0-3.713.07-7.2961,1.7067-10.7325a18.9037,18.9037,0,0,1,9.3067-9.1472,18.6927,18.6927,0,0,1,23.53,7.6937,18.177,18.177,0,0,1,2.3678,7.1646,48.8046,48.8046,0,0,1,.1041,5.0214C400.12,961.2,404.2536,961.2044,404.2536,958.54Z"/><path class="cls-1" d="M430.0407,405.881s7.6752,4.6155,15.0587,48.2907-20.6672,436.3489-20.6672,436.3489l-75.3557.2372-16.8428-273.166c-1.5-23.4958,42.0416-110.32,46.44-133.44"/><path d="M428.9976,407.6655c.14.086-.4651-.5136-.0639-.03.1161.14.2621.259.3819.3972.2979.3438.4349.5385.2918.3438a30.7466,30.7466,0,0,1,3.2864,6.03c5.112,11.7938,7.5176,24.9428,9.7309,37.5205.1963,1.1153.3916,2.2308.571,3.3488a4.2544,4.2544,0,0,1,.0858.6023q.141,1.145.2472,2.2937c.1746,1.8853.2909,3.7761.3837,5.6671.2507,5.1093.3254,10.2273.3507,15.3421.0732,14.7477-.2976,29.4984-.7525,44.2379-.5926,19.2024-1.3971,38.3983-2.2872,57.5891q-1.5141,32.6455-3.3371,65.2761-1.8524,33.6549-3.9021,67.2988-1.928,31.8325-3.9823,63.6573-1.75,27.1782-3.5776,54.3515-1.3236,19.692-2.6881,39.3814c-.43,6.1935-1.3137,12.5346-1.3137,18.7471,0,.265-.0381.5349-.057.8l2.0667-2.0667-66.0116.2078-9.3441.0294,2.0667,2.0667-.8056-13.0659-2.1053-34.1449-2.9377-47.6451-3.3028-53.5661-3.2005-51.9082L336.16,647.7563l-1.5941-25.8555c-.0874-1.4174-.1912-2.8349-.2623-4.2533-.2653-5.2888,1.0963-10.6068,2.4629-15.6715,5.2427-19.4291,13.2951-38.1544,20.9419-56.7259,7.1749-17.4255,15.06-34.7542,20.8358-52.7134a68.0451,68.0451,0,0,0,2.1217-7.8357c.5043-2.5987-3.4787-3.7116-3.9857-1.0988-1.2429,6.4044-3.6773,12.62-5.9772,18.7013-3.4341,9.0793-7.1476,18.0523-10.8538,27.023-8.1458,19.7165-16.6062,39.38-23.4059,59.6147-3.193,9.5018-6.822,19.8032-6.1949,29.9736l1.2558,20.3666,2.4241,39.3163,3.102,50.31,3.321,53.8622,3.0728,49.8358,2.3654,38.3636c.3893,6.3136.7218,12.6336,1.168,18.9435.02.2816.0348.5636.0522.8454a2.1061,2.1061,0,0,0,2.0666,2.0667l66.0116-.2078,9.3441-.0295a2.1136,2.1136,0,0,0,2.0667-2.0666q.4671-6.54.9207-13.0807,1.2289-17.6046,2.42-35.2118,1.7561-25.914,3.4436-51.8327,2.0283-31.155,3.9491-62.317,2.0761-33.7431,3.99-67.4959,1.8729-33.2037,3.5092-66.42c.9722-20.018,1.8615-40.0407,2.56-60.07.5525-15.8343,1.0152-31.6771,1.1-47.5217.0528-9.82.2084-19.7766-.8458-29.5559a191.85,191.85,0,0,0-7.0525-33.3862c-1.792-6.0626-3.7786-13.0818-7.8871-18.0767a6.4031,6.4031,0,0,0-1.5235-1.4548c-2.2733-1.3952-4.352,2.1784-2.0862,3.569Z"/><path class="cls-3" d="M470.398,879.1817,482.4641,975H613.9777s2.2376-37.263-46.7043-41.2692A17.615,17.615,0,0,1,551.042,916.03l-3.07-24.797"/><path d="M468.3314,879.1817l1.1955,9.494,2.8876,22.931,3.48,27.6314,3.0212,23.9915c.4872,3.8685.964,7.7384,1.4615,11.6056q.01.0823.0207.1648a2.12,2.12,0,0,0,2.0667,2.0667H597.82c5.3,0,10.6362.183,15.9336,0,.0747-.0026.15,0,.2246,0A2.11,2.11,0,0,0,616.0444,975a33.3578,33.3578,0,0,0-1.06-9.3641,40.4135,40.4135,0,0,0-9.9278-18.51c-7.4487-7.87-17.8447-12.2277-28.3413-14.2084-1.79-.3377-3.5912-.6051-5.3979-.8339-1.73-.2192-3.5029-.2656-5.2186-.5715a15.6023,15.6023,0,0,1-12.6616-12.1082c-.3182-1.4582-.2746-2.94-.4571-4.414l-2.8609-23.1069-.0806-.651a2.1324,2.1324,0,0,0-2.0667-2.0667,2.0789,2.0789,0,0,0-2.0666,2.0667l2.69,21.7246c.5009,4.0453.5658,8.05,2.3574,11.8162a19.9093,19.9093,0,0,0,15.9719,10.9922c11.38,1.1786,23.1779,3.8492,32.0052,11.2663a35.049,35.049,0,0,1,7.6073,8.763,39.5728,39.5728,0,0,1,2.426,4.66,1.1579,1.1579,0,0,1,.0867.2014c.073.1784.1457.3569.2166.5362q.2231.5639.4286,1.1345.3791,1.0525.6979,2.1254a39.9581,39.9581,0,0,1,.96,3.9558c.1076.5685.1971,1.1393.2852,1.711.0853.554-.0411-.3953.0407.3158.029.2518.0583.5034.0835.7556.1211,1.2116.0458,2.4382.156,3.6423a1.1488,1.1488,0,0,1-.0071.1676l2.0667-2.0667h-126.16c-1.6855,0-3.4487-.1492-5.13,0-.0736.0066-.15,0-.2245,0L484.5308,975l-1.1956-9.494-2.8876-22.931-3.48-27.6314-3.0212-23.9915c-.4871-3.8685-.964-7.7384-1.4614-11.6056-.0071-.0549-.0139-.11-.0208-.1648a2.133,2.133,0,0,0-2.0667-2.0667,2.0787,2.0787,0,0,0-2.0666,2.0667Z"/><path class="cls-1" d="M537.3907,566.45l10.5811,324.4889-75.8316.5879s-57.86-362.679-54.6694-406.1991,11.7569-61.7234,11.7569-61.7234"/><path d="M535.324,566.45l.2822,8.6531.768,23.5523,1.1425,35.0364,1.3876,42.5528,1.52,46.6064,1.5343,47.051L543.396,813.99l1.2088,37.07.87,26.6682.2719,8.3373a35.5519,35.5519,0,0,0,.1409,4.3207,4.5527,4.5527,0,0,1,.018.5524l2.0666-2.0666-66.3332.5142-9.4984.0736,1.9928,1.5173q-.9691-6.0751-1.9254-12.1523Q469.6264,862.47,467.081,846.11q-3.7333-23.9784-7.4018-47.967-4.4448-29.0658-8.7864-58.1473-4.6633-31.2635-9.1737-62.5494-4.4463-30.9093-8.667-61.8507-3.7887-27.921-7.2328-55.8879c-1.7919-14.7652-3.4981-29.546-4.8424-44.3595-.8317-9.1652-1.7675-18.4531-1.5466-27.6688.2889-12.06,2.1118-24.3321,4.3173-36.1787a150.7117,150.7117,0,0,1,6.3091-24.4423q.3926-1.0683.8241-2.1213c-.1374.3335-.051.0995.1314-.29,1.1215-2.3946-2.44-4.4957-3.569-2.0861a75.8553,75.8553,0,0,0-4.1059,12.07,239.9286,239.9286,0,0,0-6.7237,37.4291,152.0068,152.0068,0,0,0-1.2993,20.3059c.1118,4.6123.4134,9.22.7614,13.82,1.0322,13.64,2.5294,27.2455,4.1035,40.8318,2.0706,17.8706,4.3545,35.7164,6.7219,53.55q4.0569,30.5621,8.4172,61.0829,4.5015,31.6977,9.2,63.367,4.447,30.054,9.0195,60.0894,3.894,25.6068,7.8637,51.202,2.8834,18.5952,5.8069,37.1842c.9332,5.93,1.7042,11.9176,2.817,17.8179.0478.2535.0812.51.1218.7652a2.074,2.074,0,0,0,1.9929,1.5173l66.3332-.5143,9.4984-.0736a2.0913,2.0913,0,0,0,2.0667-2.0667l-.2821-8.6531-.7681-23.5523-1.1424-35.0365-1.3876-42.5527-1.52-46.6064-1.5343-47.051-1.4377-44.0885-1.2087-37.07-.87-26.6682c-.1374-4.2155-.1813-8.4463-.4127-12.658-.01-.1838-.012-.3684-.018-.5524-.0866-2.6531-4.22-2.665-4.1334,0Z"/><path class="cls-2" d="M579.1892,935.2589V960.684h-58.84a13.7357,13.7357,0,0,1-12.4868-8.0128,13.7357,13.7357,0,0,0-12.4867-8.0128l-16.7237-.2256,3.8124,30.2733H613.9778S615.8266,943.8039,579.1892,935.2589Z"/><path d="M577.1225,935.2589V960.684l2.0667-2.0667H522.0508a14.4873,14.4873,0,0,1-7.1679-1.358,12.2114,12.2114,0,0,1-3.4195-2.7377,23.3041,23.3041,0,0,1-2.4007-4.024,15.7082,15.7082,0,0,0-7.0837-6.4482c-3.6137-1.619-7.3836-1.4682-11.2365-1.52l-11.3308-.1529-.76-.01a2.0746,2.0746,0,0,0-2.0667,2.0667l3.34,26.5185.4728,3.7548a2.12,2.12,0,0,0,2.0667,2.0667H597.82c5.3,0,10.6362.183,15.9337,0,.0746-.0026.15,0,.2245,0a2.11,2.11,0,0,0,2.0667-2.0667,34.8474,34.8474,0,0,0-1.6814-11.6881,40.67,40.67,0,0,0-15.0775-21.2016,54.013,54.013,0,0,0-19.547-8.55c-2.5867-.611-3.6906,3.3735-1.0988,3.9857,10.3612,2.4473,20.4862,7.58,26.6174,16.31a37.5733,37.5733,0,0,1,3.0175,5.1172,31.6025,31.6025,0,0,1,1.8394,4.5914,39.9287,39.9287,0,0,1,1.1522,4.4095c.1313.6529.241,1.3088.3443,1.9666.02.13.0375.2613.0563.3919-.09-.6271-.0164-.1293,0,.0172.0315.2762.0651.552.0929.8286a24.2945,24.2945,0,0,1,.151,3.8219l2.0667-2.0667H487.8183c-1.6855,0-3.4487-.1492-5.13,0-.0736.0065-.15,0-.2245,0l2.0666,2.0667-3.3395-26.5186-.4728-3.7547-2.0667,2.0666,8.9822.1212,5.79.0781a28.4388,28.4388,0,0,1,3.5664.1237,11.8482,11.8482,0,0,1,7.5594,4.34,37.6157,37.6157,0,0,1,2.2961,3.9929,15.4911,15.4911,0,0,0,3.2074,3.7725,16.6811,16.6811,0,0,0,11.0087,3.823h42.65c5.0709,0,10.176.1734,15.2447,0,.0772-.0026.1549,0,.2322,0a2.0967,2.0967,0,0,0,2.0667-2.0666V935.2589C581.2559,932.5993,577.1225,932.5949,577.1225,935.2589Z"/><path class="cls-2" d="M363.833,273.7873l2.2259,28.98-13.8537,45.3017s39.0691-14.9124-4.0341,88.6024-56.5255,359.9825-56.5255,359.9825c8.7852-9.4666,69.6759-16.7967,143.4925-16.7967,72.9134,0,153.6927,7.1522,163.6246,16.45-1.2831-176.0119-44.6814-218.3328-63.2322-301.831-4.7115-21.2062-11.6742-73.1686-13.8543-92.2132,17.6964-2.3859,31.3742-18.2253,31.3742-37.4238,0-20.8463-16.1224-37.7457-36.01-37.7457-1.0081,0-2.0037.0547-2.991.14l-4.2465-24.6289"/><path d="M361.7664,273.7873l1.1526,15.0076.7547,9.8265c.08,1.0364.1275,2.0822.2394,3.1157.0519.48-.0578,1.5318.1385.5283-.7593,3.8809-2.3773,7.774-3.5321,11.55l-6.3481,20.7586-3.959,12.946a2.0806,2.0806,0,0,0,2.5422,2.5422,12.5343,12.5343,0,0,1,2.5461-.6051c-.8042.1233.4876-.0387.7846-.0523.4629-.0213.9218-.0069,1.3845.0075.2245.0071.4494.0352.6726.0591-.117-.0125-.1956-.0549.3115.06a14.8249,14.8249,0,0,1,1.52.4183c.6646.2265-.0229-.045.3832.1573.2548.1269.5043.2591.7511.4009a3.2232,3.2232,0,0,1,1.1425.8356,8.8679,8.8679,0,0,1,2.2759,3.167c1.7456,3.5644,1.9756,8.7929,1.7835,13.1231-.378,8.52-2.3616,16.9578-4.6324,25.1463a361.6541,361.6541,0,0,1-14.3156,40.48,398.5885,398.5885,0,0,0-17.0084,51.9513c-5.2734,20.44-9.5113,41.142-13.2353,61.9156-3.9437,21.9988-7.2784,44.1036-10.246,66.254q-4.3172,32.2231-7.6359,64.57Q296.3,706.178,293.97,734.464q-1.71,20.6644-3.1064,41.3536c-.4453,6.6415-1.0066,13.3021-1.237,19.956-.01.2936-.0322.5872-.0476.8807a2.0873,2.0873,0,0,0,3.5281,1.4613c2.6053-2.7289,7.5968-4.0862,11.3822-5.167a179.6929,179.6929,0,0,1,22.5687-4.5827c23.2095-3.5,46.7613-4.9363,70.1994-5.7773,27.676-.9931,55.3916-.8406,83.0641.1953,24.3837.9128,48.7924,2.4062,73.0351,5.2365,9.7386,1.1369,19.498,2.4563,29.0817,4.5585,4.5917,1.0072,11.5889,2.2186,14.8631,5.19a2.0919,2.0919,0,0,0,3.528-1.4613c-.2855-36.795-2.3656-73.6416-7.86-110.0506a518.7231,518.7231,0,0,0-17.5078-76.6017c-6.1748-19.8643-13.6022-39.2866-20.6818-58.8368-6.8756-18.9871-13.2312-38.2067-17.492-57.97-2.8816-13.3664-4.8611-26.9464-6.8565-40.467q-3.17-21.48-5.8423-43.0307-.4359-3.542-.8457-7.0869l-1.5173,1.9928c15.6587-2.2763,28.2809-14.6456,31.8068-29.9512,3.5614-15.46-2.0524-32.1778-14.79-41.7954a37.1414,37.1414,0,0,0-25.1935-7.3425l1.9929,1.5173-4.2465-24.6289c-.4511-2.6162-4.435-1.5071-3.9857,1.0988l4.2465,24.6289a2.0655,2.0655,0,0,0,1.9928,1.5173A34.1989,34.1989,0,0,1,547.6677,349.42a37.2231,37.2231,0,0,1-6.285,40.2781,34.1425,34.1425,0,0,1-20.2559,10.5725,2.0556,2.0556,0,0,0-1.5173,1.9929c3.1581,27.5046,6.8835,55.0629,11.8507,82.3017,3.7153,20.3734,9.7115,40.1936,16.5952,59.7,6.8024,19.2766,14.252,38.3189,20.626,57.7467a519.6278,519.6278,0,0,1,18.2773,72.8742c6.0672,34.8518,8.6994,70.2378,9.5019,105.5784q.18,7.92.2354,15.8429l3.528-1.4614c-3.44-3.1224-8.7059-4.3135-13.0759-5.4089A223.071,223.071,0,0,0,562.9,785.0913c-23.6819-3.2158-47.5862-4.864-71.45-5.9741-28.4779-1.3247-57.0119-1.71-85.5116-.9354-24.6688.6705-49.4063,2.0526-73.8791,5.3335a210.8658,210.8658,0,0,0-27.6292,5.1571c-4.7553,1.3-10.7084,2.8155-14.2457,6.52l3.5281,1.4614c.2457-4.69.5409-9.3779.8407-14.0647q1.2047-18.8329,2.7028-37.6457,2.15-27.2251,4.8358-54.4046,3.1906-32.2167,7.24-64.3412c2.8733-22.5754,6.1245-45.1068,9.9489-67.5416,3.6393-21.3493,7.7778-42.6305,12.89-63.68,4.3617-17.96,9.3674-35.8568,16.109-53.0845,8.6891-22.2044,18.7006-44.5909,21.6633-68.488,1.0144-8.1821,1.7665-20.2872-5.8444-25.8555a13.2913,13.2913,0,0,0-11.767-1.6867c-.219.0849-.4545.1306-.6751.2143l2.5423,2.5423,9.6129-31.4345c1.3647-4.4627,3.1037-8.9653,4.1344-13.5195a9.8433,9.8433,0,0,0,.0153-3.0438l-.6724-8.7545L365.9,273.7873c-.2024-2.6353-4.3374-2.6572-4.1333,0Z"/><path class="cls-4" d="M556.6337,283.6158a54.8437,54.8437,0,0,0-27.9608-32.3571,59.21,59.21,0,0,0,45.9361,88.0594Z"/><path d="M558.6265,283.0664a57.5207,57.5207,0,0,0-28.91-33.5922,2.1075,2.1075,0,0,0-2.8277.7414,61.2391,61.2391,0,0,0,47.7207,91.1692,2.0787,2.0787,0,0,0,1.9929-2.6161L570.5162,319.91l-9.6592-29.9323-2.2305-6.9117c-.8136-2.5212-4.8059-1.4429-3.9857,1.0988l6.0857,18.8583,9.6593,29.9323,2.23,6.9117,1.9928-2.616a57.1517,57.1517,0,0,1-44.1516-84.95l-2.8276.7414a53.385,53.385,0,0,1,27.011,31.122C555.463,286.6827,559.4557,285.6051,558.6265,283.0664Z"/><path d="M579.7386,947.3929l-22.0234-4.7536c-2.7105-.585-5.4257-1.1521-8.1323-1.7553a20.1166,20.1166,0,0,1-14.513-12.29,48.2974,48.2974,0,0,1-1.9345-8.9777l-2.3428-13.8514c-1.1251-6.6519-2.2947-13.2879-3.2149-19.9709l-.1974-1.4339c-.0177-.1289-.0891-.8949-.0544-.4307a7.36,7.36,0,0,1,.8967-4.3858,7.0979,7.0979,0,0,1,6.3092-3.4766c4.08.0142,8.16.0839,12.24.1258l1.2.0123-2.0666-2.0666,1.5859,27.7867.2241,3.9259c.1509,2.6445,4.2852,2.6619,4.1333,0l-1.5859-27.7867-.2241-3.9259a2.1084,2.1084,0,0,0-2.0667-2.0667l-11.85-.1218a14.9139,14.9139,0,0,0-6.4364.9774,11.1041,11.1041,0,0,0-6.3922,8.4107c-.3548,2.3926.2029,4.8619.53,7.2367.1714,1.2446.3221,2.4938.5215,3.7343.5195,3.2314,1.0918,6.4552,1.6377,9.6822,1.328,7.8518,2.6063,15.7139,3.9844,23.557a24.2173,24.2173,0,0,0,11.9186,16.811c3.385,1.8914,7.035,2.6043,10.7608,3.4085l25.3618,5.4741.6314.1363c2.5936.56,3.7018-3.4239,1.0988-3.9857Z"/><path class="cls-5" d="M748.4911,314.9841s37.5888-18.4459,58.8891,52.13c20.0473,48.9218,83.9482-28.07,100.2366,47.3178H678.2032"/><path d="M749.5342,316.7686c.1058-.0517.2171-.0927.3223-.1452-.2421.1209-.5283.2074-.0454.0241.1851-.07.37-.142.5558-.2092a26.4731,26.4731,0,0,1,3.5927-1.0026q.5931-.1234,1.1909-.2224c.195-.0323.391-.0587.586-.0912.45-.075-.18.021-.0953.0112.1206-.0139.2408-.0314.3615-.0449.9849-.11,1.9719-.1843,2.9631-.2047a30.8468,30.8468,0,0,1,3.2574.1052q.4317.0369.8624.0858c.1348.0153.2694.0325.4041.0486.3542.0423-.4206-.0681.0636.01.6071.0983,1.2126.197,1.8149.3224a32.0169,32.0169,0,0,1,3.88,1.0678q1.0011.3441,1.9787.7516c-.4168-.1734.5085.2276.667.3006q.5118.2356,1.0158.4877a38.0015,38.0015,0,0,1,8.1932,5.5574c7.3368,6.4641,12.5641,15.0055,16.6864,23.7819a161.2748,161.2748,0,0,1,7.4649,19.82,31.7872,31.7872,0,0,0,6.3932,10.9577c4.5658,5.1936,10.9026,7.84,17.6977,8.4428,6.954.617,13.9962-.686,20.8-1.9912,3.5467-.68,7.0842-1.411,10.643-2.0274q1.376-.2384,2.7564-.4506c1.0178-.1554,1.521-.2256,2.2932-.3214,1.7316-.2149,3.47-.38,5.213-.4676a48.8836,48.8836,0,0,1,5.1857-.0019c.83.0464,1.6572.1211,2.4827.2174a1.2765,1.2765,0,0,1,.2052.0259q.3285.0474.6563.1006.6066.099,1.2092.2206a29.125,29.125,0,0,1,4.783,1.4005,6.0767,6.0767,0,0,1,.7265.3078c.4044.1854.8054.3776,1.2005.5822q1.1175.5788,2.1741,1.2659a28.0552,28.0552,0,0,1,7.4749,7.5282A51.0044,51.0044,0,0,1,903.3,406.1873c.9252,2.8895,1.6779,5.83,2.3236,8.7939l1.9928-2.6161H685.2975c-2.2652,0-4.5413-.0649-6.8058,0-.096.0028-.1924,0-.2885,0-2.66,0-2.664,4.1334,0,4.1334H907.6168a2.0937,2.0937,0,0,0,1.9929-2.6161c-2.1565-9.8989-5.5807-20.3629-12.7907-27.8016a30.0245,30.0245,0,0,0-19.3357-8.7613c-7.2213-.63-14.5137.6452-21.5841,1.9938-3.6016.687-7.1922,1.4327-10.8047,2.0613a73.4454,73.4454,0,0,1-10.1676,1.2139,43.31,43.31,0,0,1-4.9455-.0475q-.59-.0417-1.1787-.1029c-.18-.0189-.3594-.04-.539-.061a1.2251,1.2251,0,0,1-.2529-.0343c-.7924-.1218-1.58-.2655-2.3607-.45q-1.1148-.2629-2.2033-.6248c-.3613-.1209-.7178-.2535-1.0739-.3885-.0984-.0373-.6442-.2655-.2387-.0916q-.2833-.1215-.563-.2517a21.3608,21.3608,0,0,1-4.0658-2.4547c.2712.2092-.0748-.0628-.1634-.1372-.1675-.1409-.3363-.28-.5016-.4235q-.5043-.4383-.9826-.9053a24.8768,24.8768,0,0,1-1.7487-1.8966,22.569,22.569,0,0,1-1.5048-2.045c-.5458-.8226-1.0517-1.6716-1.5228-2.5391a44.0215,44.0215,0,0,1-2.992-7.657c-1.139-3.4856-2.3835-6.9377-3.7612-10.3363-4.1354-10.2016-9.398-20.2273-17.0266-28.277a42.5592,42.5592,0,0,0-17.48-11.5021,32.7881,32.7881,0,0,0-14.13-1.37,25.0436,25.0436,0,0,0-7.922,2.061c-.1054.0522-.2164.0935-.3222.1453-2.3892,1.1688-.2965,4.7347,2.0861,3.569Z"/><path class="cls-3" d="M531.9665,925.0375l-5.6681-33.5111-.9979-7.2481a9.046,9.046,0,0,1,9.0544-10.2794l13.6169.14,2.3514,36.7863"/><path d="M533.9593,924.4881l-4.5027-26.6215c-.4682-2.7683-.9784-5.5318-1.3613-8.3134l-.5776-4.195c-.0629-.4564-.1322-.9125-.1886-1.37-.0053-.0429-.0407-.3888-.0187-.1535.0406.4351-.0291-.688-.0269-.596a7.2936,7.2936,0,0,1,.0335-1.0177,7.07,7.07,0,0,1,7.0439-6.1556c4.5356-.0221,9.0755.0933,13.6109.14l-2.0666-2.0666,2.0583,32.201.293,4.5853c.1689,2.6415,4.3035,2.66,4.1334,0l-2.0583-32.201-.2931-4.5853a2.11,2.11,0,0,0-2.0667-2.0667c-4.4452-.0457-8.8907-.1109-13.3362-.1371a11.3506,11.3506,0,0,0-9.5444,4.8454,11.0847,11.0847,0,0,0-1.9426,6.1165,24.6856,24.6856,0,0,0,.3978,3.6651c1.2282,8.92,2.834,17.7806,4.3356,26.6585l2.0916,12.3663a2.0833,2.0833,0,0,0,2.5423,1.4434,2.1147,2.1147,0,0,0,1.4434-2.5422Z"/><circle class="cls-3" cx="661.0973" cy="287.2566" r="104.9352"/><path d="M763.9659,287.2566a102.3084,102.3084,0,1,1-1.181-15.7276,103.4572,103.4572,0,0,1,1.181,15.7276c.0044,2.6594,4.1377,2.6642,4.1333,0a106.9711,106.9711,0,1,0-1.2764,16.4876,110.6168,110.6168,0,0,0,1.2764-16.4876C768.1036,284.5968,763.97,284.5927,763.9659,287.2566Z"/><path d="M740.313,356.0763a105.0714,105.0714,0,0,0,22.109-96.1792L660.7841,286.9433Z"/><path d="M741.7743,357.5376a107.1411,107.1411,0,0,0,22.6406-98.19,2.0993,2.0993,0,0,0-2.5423-1.4435l-10.1266,2.6947-24.3121,6.47-29.28,7.7915-25.4153,6.7631c-4.0981,1.09-8.286,2.018-12.3351,3.2824-.0555.0173-.1128.03-.169.045a2.0822,2.0822,0,0,0-.912,3.4542l7.9007,6.8679L686.2,311.7685l22.9652,19.9632,19.8662,17.2693c3.2248,2.8033,6.4078,5.6654,9.6794,8.4142.0477.04.094.0816.1409.1224,1.9992,1.7379,4.9348-1.1737,2.9227-2.9227l-7.9006-6.8679-18.9766-16.4959L691.932,311.2879l-19.8662-17.2693L665.49,288.302c-1.0161-.8833-2.0033-1.9179-3.1032-2.6976-.05-.0354-.0945-.0822-.1409-.1224l-.9119,3.4542,10.1266-2.6948,24.3121-6.4695,29.28-7.7915,25.4153-6.7631,8.3457-2.2208a40.62,40.62,0,0,0,3.9894-1.0616,1.7215,1.7215,0,0,1,.169-.045l-2.5422-1.4434a102.7669,102.7669,0,0,1-21.5776,94.1684C737.1175,356.6168,740.0289,359.5526,741.7743,357.5376Z"/><path class="cls-5" d="M785.14,287.2566a123.986,123.986,0,0,0-123.986-123.986l-.37,123.6159Z"/><path d="M787.2068,287.2566A125.9438,125.9438,0,0,0,666.0726,161.3q-2.4582-.0958-4.9184-.0958a2.0972,2.0972,0,0,0-2.0667,2.0667l-.0369,12.317-.0885,29.5709-.1067,35.6335-.0923,30.8191c-.0149,5.0067-.223,10.056-.0451,15.0607.0026.0713,0,.1432-.0006.2147a2.0969,2.0969,0,0,0,2.0667,2.0666l12.3943.0369,29.7553.0886,35.8535.1067,31.003.0923c5.032.0149,10.1068.2235,15.1368.045.0709-.0025.1423,0,.2132.0006,2.66.008,2.6636-4.1254,0-4.1333l-12.3944-.0369-29.7552-.0886-35.8535-.1067-31.003-.0922-10.2632-.0306c-1.5952-.0047-3.2837-.1692-4.8737-.0145-.07.0068-.143,0-.2131-.0006l2.0667,2.0667.0368-12.317.0886-29.5709.1067-35.6336.0922-30.8191.0307-10.26c.0047-1.5706.1679-3.2347.0144-4.8a2.1359,2.1359,0,0,1,.0007-.2147l-2.0667,2.0667A121.77,121.77,0,0,1,782.9777,282.3381q.096,2.4582.0958,4.9185C783.0772,289.916,787.2105,289.9207,787.2068,287.2566Z"/><circle class="cls-4" cx="470.4677" cy="563.7412" r="59.1987"/><path d="M527.6,563.7412a57.1336,57.1336,0,0,1-101.273,36.289,56.9138,56.9138,0,0,1-12.8192-31.7451A57.1422,57.1422,0,1,1,527.6,563.7412c.0077,2.6592,4.1411,2.6643,4.1333,0a61.3582,61.3582,0,1,0-.7527,9.5436,64.6028,64.6028,0,0,0,.7527-9.5436C531.7408,561.0813,527.6075,561.0775,527.6,563.7412Z"/><rect class="cls-2" x="466.5756" y="314.5084" width="236.8091" height="232.6039"/><path d="M703.3847,545.0457H476.1975c-3.058,0-6.1668-.1628-9.2217,0-.1326.007-.2673,0-.4,0l2.0667,2.0666V323.9632c0-3.0064.1681-6.068,0-9.071-.0072-.1271,0-.2564,0-.3838l-2.0667,2.0667H693.7627c3.058,0,6.1668.1627,9.2217,0,.1326-.0071.2674,0,.4,0l-2.0667-2.0667V537.6576c0,3.0211-.0649,6.05,0,9.0709.0027.1279,0,.256,0,.3838,0,2.66,4.1333,2.6641,4.1333,0V323.9632c0-3.0211.0649-6.05,0-9.071-.0027-.1278,0-.2559,0-.3838a2.0967,2.0967,0,0,0-2.0666-2.0667H476.1975c-3.0715,0-6.1506-.0627-9.2217,0-.1333.0028-.2669,0-.4,0a2.0968,2.0968,0,0,0-2.0667,2.0667V537.6576c0,3.0211-.0649,6.05,0,9.0709.0028.1279,0,.256,0,.3838a2.0968,2.0968,0,0,0,2.0667,2.0667H693.7627c3.0716,0,6.1506.0627,9.2217,0,.1333-.0027.2669,0,.4,0C706.0443,549.179,706.0487,545.0457,703.3847,545.0457Z"/><circle class="cls-4" cx="383.3326" cy="411.421" r="59.1987"/><path d="M440.4646,411.421A57.1336,57.1336,0,0,1,339.1916,447.71a56.9138,56.9138,0,0,1-12.8192-31.7451,57.1422,57.1422,0,1,1,114.0922-4.544c.0077,2.6593,4.1411,2.6644,4.1333,0a61.3579,61.3579,0,1,0-.7527,9.5437,64.6031,64.6031,0,0,0,.7527-9.5437C444.6057,408.7611,440.4724,408.7574,440.4646,411.421Z"/><rect class="cls-5" x="488.1891" y="349.9045" width="20.6738" height="130.9789"/><path d="M508.8629,478.8167H488.1891l2.0667,2.0666V355.2355c0-1.6739.1589-3.4366,0-5.1051-.007-.0739,0-.1515,0-.2259l-2.0667,2.0666h20.6738l-2.0667-2.0666V464.8121c0,5.2694-.1891,10.5783,0,15.8453.0027.0751,0,.1508,0,.2259,0,2.66,4.1334,2.664,4.1334,0V365.9757c0-5.2694.1892-10.5783,0-15.8453-.0027-.0751,0-.1508,0-.2259a2.0968,2.0968,0,0,0-2.0667-2.0667H488.1891a2.0968,2.0968,0,0,0-2.0667,2.0667V464.8121c0,5.2694-.1891,10.5783,0,15.8453.0027.0751,0,.1508,0,.2259a2.0968,2.0968,0,0,0,2.0667,2.0667h20.6738C511.5225,482.95,511.5269,478.8167,508.8629,478.8167Z"/><rect class="cls-3" x="531.6041" y="366.9463" width="21.3629" height="113.937"/><path d="M552.967,478.8167H531.6041l2.0667,2.0666V371.5722a43.8433,43.8433,0,0,0,0-4.43,1.94,1.94,0,0,1,0-.1959l-2.0667,2.0667H552.967L550.9,366.9463v99.902c0,4.6-.18,9.2414,0,13.8392.0025.065,0,.1307,0,.1958,0,2.66,4.1333,2.664,4.1333,0V380.9814c0-4.6.18-9.2414,0-13.8392-.0025-.0651,0-.1307,0-.1959a2.0967,2.0967,0,0,0-2.0667-2.0666H531.6041a2.0967,2.0967,0,0,0-2.0667,2.0666v99.902c0,4.6-.18,9.2414,0,13.8392.0026.065,0,.1307,0,.1958a2.0968,2.0968,0,0,0,2.0667,2.0667H552.967C555.6267,482.95,555.6311,478.8167,552.967,478.8167Z"/><rect class="cls-5" x="575.0191" y="393.0772" width="20.6738" height="87.8062"/><path d="M595.6929,478.8167H575.0191l2.0667,2.0666V396.6476a32.0293,32.0293,0,0,0,0-3.4128,1.48,1.48,0,0,1,0-.1576l-2.0667,2.0667h20.6738l-2.0667-2.0667V470.079c0,3.5373-.15,7.1116,0,10.6467.0023.0523,0,.1052,0,.1576,0,2.66,4.1334,2.664,4.1334,0V403.8815c0-3.5373.15-7.1116,0-10.6467-.0022-.0523,0-.1052,0-.1576a2.0968,2.0968,0,0,0-2.0667-2.0667H575.0191a2.0968,2.0968,0,0,0-2.0667,2.0667V470.079c0,3.5373-.15,7.1116,0,10.6467.0022.0523,0,.1052,0,.1576a2.0968,2.0968,0,0,0,2.0667,2.0667h20.6738C598.3525,482.95,598.3569,478.8167,595.6929,478.8167Z"/><rect class="cls-3" x="618.4341" y="415.2316" width="20.6738" height="65.6517"/><path d="M639.1079,478.8167H618.4341l2.0667,2.0666V415.2316l-2.0667,2.0667h20.6738l-2.0667-2.0667v65.6517c0,2.66,4.1334,2.664,4.1334,0V415.2316a2.0968,2.0968,0,0,0-2.0667-2.0667H618.4341a2.0968,2.0968,0,0,0-2.0667,2.0667v65.6517a2.0968,2.0968,0,0,0,2.0667,2.0667h20.6738C641.7675,482.95,641.7719,478.8167,639.1079,478.8167Z"/><rect class="cls-5" x="660.4708" y="440.2263" width="20.6738" height="40.657"/><path d="M681.1446,478.8167H660.4708l2.0667,2.0666v-40.657l-2.0667,2.0667h20.6738l-2.0666-2.0667v40.657c0,2.66,4.1333,2.664,4.1333,0v-40.657a2.0968,2.0968,0,0,0-2.0667-2.0667H660.4708a2.0967,2.0967,0,0,0-2.0666,2.0667v40.657a2.0967,2.0967,0,0,0,2.0666,2.0667h20.6738C683.8043,482.95,683.8087,478.8167,681.1446,478.8167Z"/><path class="cls-3" d="M368.386,937.672c0-22.9258-5.8784-45.8517-5.8784-45.8517v-.288a14.1141,14.1141,0,0,1,14.1141-14.1141h12.9236A14.114,14.114,0,0,1,403.6565,891.82h0s-8.23,22.9259-8.23,45.8517"/><path d="M370.4527,937.672a199.6862,199.6862,0,0,0-4.4646-39.7854q-.5094-2.4725-1.08-4.9319c-.0947-.4046-.1864-.8105-.29-1.213-.03-.1147-.0461-.24-.0871-.3514-.1252-.3405-.1218.4979.0437.142a8.938,8.938,0,0,0,.1275-1.84,12.7427,12.7427,0,0,1,.3789-1.6291,12.0821,12.0821,0,0,1,1.7832-3.6128,11.95,11.95,0,0,1,5.6583-4.2558c3.0228-1.0541,6.4175-.71,9.5707-.71,2.9884,0,6.1966-.3213,9.17.1034a12.2087,12.2087,0,0,1,10.0991,9.5647,10.4563,10.4563,0,0,1,.2118,1.63c.0078.15.1182.9321.0163,1.0377l.0727-.5462-.009.0253c-.1092.0538-.2245.6486-.2612.7567-.4315,1.2742-.8357,2.5578-1.2252,3.8454-4.0776,13.4811-6.7728,27.6573-6.8071,41.77-.0065,2.66,4.1269,2.6637,4.1333,0,.0325-13.37,2.55-26.7172,6.3145-39.5148.4563-1.551.9335-3.0963,1.4453-4.63a6.7859,6.7859,0,0,0,.4427-2.9155,16.2929,16.2929,0,0,0-9.2446-13.7069c-3.6585-1.6767-7.386-1.5533-11.289-1.5533-3.1726,0-6.4109-.1927-9.5784.0376a16.2993,16.2993,0,0,0-13.72,9.5308c-.9619,2.1957-1.8144,5.0649-1.342,7.48.1653.8449.4084,1.6814.6,2.521a203.4657,203.4657,0,0,1,5.07,36.7546q.1235,2.997.127,5.9966c.0048,2.6594,4.1381,2.6642,4.1334,0Z"/><path class="cls-2" d="M390.3006,302.1138,404.9511,415.207a263.2865,263.2865,0,0,0-26.6477,2.8484c-17.0486,2.68-58.7582,26.3037-70.8311,30.8643L301.77,327.73a78.4474,78.4474,0,0,1,13.0886-47.2019h0a78.4477,78.4477,0,0,1,65.2724-34.9328l17.1695-.463"/><path d="M388.2339,302.1138l1.4626,11.29,3.495,26.98,4.2262,32.6234,3.6669,28.3061,1.2,9.2621a40.3871,40.3871,0,0,0,.5749,4.4379,1.76,1.76,0,0,1,.0251.1939l2.0667-2.0667q-7.7929.4244-15.5485,1.33c-4.4648.5181-9.016.9762-13.4145,1.9242a93.5772,93.5772,0,0,0-16.1592,5.5439c-13.0754,5.4669-25.7036,11.9338-38.3984,18.2151-2.8569,1.4135-5.7168,2.8222-8.6011,4.1793-1.1249.5292-2.2536,1.0508-3.391,1.5528q-.3652.1612-.7319.32-.1946.0839-.3895.1667c-.242.1028.3332-.1374-.0316.0124-.4523.1856-.9054.3686-1.3625.5423l2.6161,1.9928-.3634-7.7225-.9239-19.6375-1.2354-26.2567-1.2977-27.5807-1.1108-23.609-.6748-14.3419a82.5448,82.5448,0,0,1,2.5385-25.9324,76.3811,76.3811,0,0,1,60.41-55.0283c8.9733-1.603,18.3576-1.2861,27.4518-1.5313l2.9671-.08c2.6546-.0715,2.6652-4.2052,0-4.1333-6.867.1852-13.7511.2376-20.6133.5385a80.5258,80.5258,0,0,0-76.9693,84.4369q.2458,5.2854.4974,10.57l1.0223,21.7281,1.2815,27.236,1.2882,27.38,1.0392,22.0861.535,11.3715.0238.5058a2.0855,2.0855,0,0,0,2.6161,1.9929c4.3852-1.6664,8.6035-3.8006,12.81-5.8658,6.0169-2.9541,12.0028-5.9711,18.0238-8.9173,6.4909-3.1761,13.0145-6.2951,19.6458-9.1692a117.9155,117.9155,0,0,1,16.5663-6.0919,92.9866,92.9866,0,0,1,12.4338-2.0368q8.6961-1.0727,17.45-1.5579c1.005-.0548,2.2167-.9088,2.0667-2.0667l-1.4626-11.29-3.495-26.98-4.2262-32.6234-3.6669-28.3061q-.8872-6.85-1.7747-13.7l-.0251-.1938a2.1343,2.1343,0,0,0-2.0667-2.0667,2.0785,2.0785,0,0,0-2.0667,2.0667Z"/><path class="cls-4" d="M308.9981,290.9854a78.444,78.444,0,0,0-7.228,36.7452l3.6418,77.3962a59.2146,59.2146,0,0,0,3.5862-114.1414Z"/><path d="M307.2136,289.9423a82.0856,82.0856,0,0,0-7.4854,38.3146l.6653,14.1387,1.1837,25.1564,1.1611,24.6761c.1991,4.2308.2942,8.4815.5979,12.7065.0046.0639.006.1282.009.1922a2.0956,2.0956,0,0,0,2.6161,1.9928,61.2875,61.2875,0,0,0,3.5862-118.1271c-2.5455-.7927-3.6343,3.1961-1.0988,3.9857a57.1515,57.1515,0,0,1-3.5862,110.1557l2.6161,1.9929-.4856-10.32-1.1068-23.521-1.2029-25.564-.774-16.4492a80.22,80.22,0,0,1,4.5554-31.6441q1.0434-2.849,2.318-5.6a2.1273,2.1273,0,0,0-.7415-2.8276A2.0835,2.0835,0,0,0,307.2136,289.9423Z"/><path d="M307.75,449.3116c-.9923-6.3134,9.251-13.68,25.9817-20l8.1527,31.1906C322.23,459.948,308.802,456.0025,307.75,449.3116Z"/><path d="M309.7429,448.7622c.0716.5084.0045-.1222.0088-.2306.0081-.2051.0072-.4084.0249-.6134-.0385.4458.1157-.4962.1751-.6934a2.9243,2.9243,0,0,1,.3906-.9493,12.1747,12.1747,0,0,1,.6631-1.0953,20.0518,20.0518,0,0,1,4.6351-4.455c5.6261-4.1064,12.162-6.9616,18.6406-9.4212l-2.5423-1.4434,7.1287,27.2729,1.024,3.9177,1.9929-2.616c-7.7207-.2288-15.6368-.81-23.0618-3.085a22.4116,22.4116,0,0,1-6.7219-3.11c-.3728-.2718.0784.0793-.2356-.1847-.2011-.169-.398-.3427-.5867-.5255-.18-.1747-.3484-.3587-.5181-.5433q-.12-.1365-.233-.2782.2121.2751.0066-.0072a7.04,7.04,0,0,1-.582-1.0307c.2111.4794-.0469-.1735-.07-.2747-.0488-.2118-.1018-.4193-.1388-.6339a2.0837,2.0837,0,0,0-2.5423-1.4434,2.114,2.114,0,0,0-1.4434,2.5422c.6331,3.669,4.0211,6.1509,7.1732,7.6378,5.1172,2.414,10.7843,3.4349,16.3566,4.1447,4.1792.5323,8.3875.8,12.5974.925a2.0871,2.0871,0,0,0,1.9928-2.6161L336.7485,432.68l-1.024-3.9177a2.08,2.08,0,0,0-2.5423-1.4435c-7.2572,2.7552-14.624,5.9241-20.7936,10.7208-3.69,2.8688-7.3379,6.8051-6.6314,11.8219a2.08,2.08,0,0,0,2.5422,1.4435A2.1216,2.1216,0,0,0,309.7429,448.7622Z"/><path class="cls-1" d="M378.3034,418.0554a263.2865,263.2865,0,0,1,26.6477-2.8484l4.7933,37.0024,1.3638,10.528L544.1219,446.574a56.1726,56.1726,0,0,0,7.1455-1.3422l43.97-11.2479a18.7841,18.7841,0,0,1,14.3194,2.0909L636.9323,455.7a12.8131,12.8131,0,0,1,1.4566,19.61l-33.56,32.5584-44.46,2.2736L416.39,539.0754c-34.2743,4.0123-62.6891-15.1557-80.054-61.5242l-8.124-26.6539-5.5112-16.5334C337.1677,425.4083,361.2548,420.7352,378.3034,418.0554Z"/><path d="M378.8528,420.0482a262.16,262.16,0,0,1,26.0983-2.7745l-2.0667-2.0667,4.7949,37.0144q.681,5.2579,1.3622,10.516c.13,1,.8471,2.2148,2.0667,2.0666l14.1557-1.72,33.78-4.1049,39.8447-4.8418,32.85-3.9918c5.874-.7138,11.9163-1.1537,17.7157-2.3706,3.62-.76,7.1967-1.7869,10.7784-2.7032l18.7164-4.7878,15.0133-3.84c5.14-1.315,10.5041-1.4166,15.0571,1.7792,8.6648,6.0818,17.2115,12.3385,25.8153,18.5064a12.5952,12.5952,0,0,1,4.4046,4.8868,10.816,10.816,0,0,1-1.7125,11.6113c-2.1835,2.4192-4.6946,4.5939-7.031,6.8606l-25.3091,24.5536-1.82,1.7657,1.4613-.6053-31.56,1.6139c-5.4991.2813-11.008.2429-16.41,1.3285l-24.7219,4.968-39.051,7.8476-40.6486,8.1686-29.466,5.9214q-3.273.6578-6.5459,1.3155a23.426,23.426,0,0,1-3.3933.3638,69.8122,69.8122,0,0,1-12.3252-.1594c-16.7666-1.7451-31.2763-10.8534-42.0091-23.577a113.5757,113.5757,0,0,1-16.0783-26.21,142.0827,142.0827,0,0,1-6.5752-17.8773c-3.0524-10.0146-6.1191-19.9972-9.4295-29.9285l-1.9208-5.7624-.95,2.3339c8.1354-4.99,17.4024-7.9588,26.5823-10.3632,9.3883-2.4588,18.9447-4.2268,28.5264-5.737,2.62-.4129,1.5077-4.3965-1.0988-3.9857a289.0139,289.0139,0,0,0-29.0123,5.865c-9.341,2.473-18.8022,5.5724-27.0838,10.6519a2.1026,2.1026,0,0,0-.95,2.3339c2.8193,8.4579,5.6231,16.9008,8.2222,25.4279l5.1441,16.8772a93.2709,93.2709,0,0,0,4.0411,10.1632,138.2557,138.2557,0,0,0,7.3644,14.5021c8.9849,15.2806,21.6127,28.727,38.3407,35.3645a64.7354,64.7354,0,0,0,23.3382,4.41,54.8708,54.8708,0,0,0,11.2127-.8779l21.1808-4.2564,37.2069-7.477,40.694-8.1777,32.1614-6.4631,8.9389-1.7963c.6765-.1359,1.3615-.2509,2.0333-.4086.1052-.0247.22-.0313.3231-.0649-.8835.2884-.37.0634.0948.04l34.3786-1.7581,7.1771-.367c1.2319-.063,2.7291.0832,3.7316-.7233,2.66-2.14,5.0091-4.86,7.4565-7.234l25.3026-24.5472a17.2111,17.2111,0,0,0,3.9629-5.2923,15.0862,15.0862,0,0,0-.5751-13.44c-2.3685-4.2417-7.3336-6.9565-11.1862-9.7182L615.2167,437.6c-1.4632-1.0489-2.9039-2.1426-4.3955-3.151a20.0761,20.0761,0,0,0-12.9583-3.0079c-3.9437.4105-7.89,1.7561-11.7148,2.7344l-19.4823,4.9838c-7.7977,1.9947-15.6947,4.5157-23.7044,5.489L520.88,447.3316l-38.7264,4.7059-40.2118,4.8864L414.9805,460.2l-3.8723.4706,2.0667,2.0667-5.235-40.4117-.9221-7.1187a2.1081,2.1081,0,0,0-2.0667-2.0667,273.2152,273.2152,0,0,0-27.1971,2.9222C375.1336,416.4714,376.2463,420.455,378.8528,420.0482Z"/><path class="cls-1" d="M397.5716,244.9692l6.7611,42.37c.9,5.6389,6.0858,9.8129,12.192,9.8129h53.6939c7.9605,0,13.8336-6.94,11.9924-14.1707L472.7586,245.86Z"/><path d="M395.5787,245.5186l5.3793,33.71,1.1448,7.174a15.218,15.218,0,0,0,2.5156,6.8538,14.8823,14.8823,0,0,0,12.0035,5.9619c1.2779.0118,2.5565,0,3.8344,0h40.2722c3.7048,0,7.5966.3345,11.2875-.12a13.5716,13.5716,0,0,0,11.8888-17.8409l-8.9-34.95-.2537-.9967a2.1039,2.1039,0,0,0-1.9929-1.5173L447.2,243.49l-40.3874-.4782-9.2407-.1094c-2.6606-.0315-2.6623,4.1018,0,4.1333l25.5588.3026,40.3875.4783,9.2407.1094-1.9928-1.5173,8.2642,32.4552c.3873,1.5214.7916,3.04,1.1624,4.5651a9.1737,9.1737,0,0,1-3.87,9.8106c-3.6324,2.4225-8.25,1.8451-12.4083,1.8451h-46.001a13.8531,13.8531,0,0,1-5.8148-.9113,9.9032,9.9032,0,0,1-5.823-7.6962c-.28-1.7153-.5478-3.4328-.8217-5.1491l-5.7506-36.0368-.1391-.8717a2.0819,2.0819,0,0,0-2.5422-1.4434A2.1169,2.1169,0,0,0,395.5787,245.5186Z"/><circle cx="883.9672" cy="366.976" r="3.289"/><path d="M885.19,366.976a4.1205,4.1205,0,0,1-.0311.4537l.0739-.5494a3.6014,3.6014,0,0,1-.236.8465l.2083-.4937a3.6206,3.6206,0,0,1-.44.7378l.3232-.4183a3.6931,3.6931,0,0,1-.5438.5438l.4183-.3232a3.6179,3.6179,0,0,1-.7378.44l.4937-.2083a3.5964,3.5964,0,0,1-.8465.2359l.5494-.0738a3.6542,3.6542,0,0,1-.9074,0l.5494.0738a3.5964,3.5964,0,0,1-.8465-.2359l.4937.2083a3.62,3.62,0,0,1-.7377-.44l.4182.3232a3.7021,3.7021,0,0,1-.5437-.5438l.3231.4183a3.6224,3.6224,0,0,1-.44-.7378l.2084.4937a3.5967,3.5967,0,0,1-.236-.8465l.0738.5494a3.6542,3.6542,0,0,1,0-.9074l-.0738.5494a3.5967,3.5967,0,0,1,.236-.8465l-.2084.4937a3.6217,3.6217,0,0,1,.44-.7377l-.3231.4182a3.6966,3.6966,0,0,1,.5437-.5437l-.4182.3231a3.6217,3.6217,0,0,1,.7377-.44l-.4937.2084a3.5967,3.5967,0,0,1,.8465-.236l-.5494.0738a3.6542,3.6542,0,0,1,.9074,0l-.5494-.0738a3.5967,3.5967,0,0,1,.8465.236l-.4937-.2084a3.6224,3.6224,0,0,1,.7378.44l-.4183-.3231a3.6924,3.6924,0,0,1,.5438.5437l-.3232-.4182a3.6172,3.6172,0,0,1,.44.7377l-.2083-.4937a3.6014,3.6014,0,0,1,.236.8465l-.0739-.5494a4.1222,4.1222,0,0,1,.0311.4537,2.0667,2.0667,0,1,0,4.1333,0,5.3,5.3,0,0,0-.9119-2.9784,5.6871,5.6871,0,0,0-2.7151-2.0854,5.3258,5.3258,0,0,0-5.7447,1.5312,5.7065,5.7065,0,0,0-1.324,3.2133,5.3136,5.3136,0,0,0,2.9571,5.1082,5.713,5.713,0,0,0,3.5186.4406,5.1042,5.1042,0,0,0,2.8534-1.6636,5.5612,5.5612,0,0,0,1.3666-3.5659,2.0667,2.0667,0,1,0-4.1333,0Z"/><circle cx="825.0782" cy="371.3614" r="3.289"/><path d="M826.3005,371.3614a4.12,4.12,0,0,1-.031.4537l.0738-.5494a3.6012,3.6012,0,0,1-.2359.8465l.2083-.4937a3.62,3.62,0,0,1-.44.7377l.3232-.4182a3.7021,3.7021,0,0,1-.5438.5437l.4183-.3231a3.6251,3.6251,0,0,1-.7378.44l.4937-.2084a3.5967,3.5967,0,0,1-.8465.236l.5494-.0738a3.6542,3.6542,0,0,1-.9074,0l.5494.0738a3.5967,3.5967,0,0,1-.8465-.236l.4937.2084a3.6251,3.6251,0,0,1-.7378-.44l.4183.3231a3.6973,3.6973,0,0,1-.5438-.5437l.3232.4182a3.6217,3.6217,0,0,1-.44-.7377l.2083.4937a3.6012,3.6012,0,0,1-.2359-.8465l.0738.5494a3.6542,3.6542,0,0,1,0-.9074l-.0738.5494a3.6012,3.6012,0,0,1,.2359-.8465l-.2083.4937a3.6224,3.6224,0,0,1,.44-.7378l-.3232.4183a3.6979,3.6979,0,0,1,.5438-.5438l-.4183.3232a3.6206,3.6206,0,0,1,.7378-.44l-.4937.2083a3.5964,3.5964,0,0,1,.8465-.2359l-.5494.0738a3.6542,3.6542,0,0,1,.9074,0l-.5494-.0738a3.5964,3.5964,0,0,1,.8465.2359l-.4937-.2083a3.6206,3.6206,0,0,1,.7378.44l-.4183-.3232a3.6979,3.6979,0,0,1,.5438.5438l-.3232-.4183a3.6224,3.6224,0,0,1,.44.7378l-.2083-.4937a3.6012,3.6012,0,0,1,.2359.8465l-.0738-.5494a4.096,4.096,0,0,1,.031.4537,2.0667,2.0667,0,0,0,4.1334,0,5.3012,5.3012,0,0,0-.9119-2.9785,5.6869,5.6869,0,0,0-2.7152-2.0854,5.3257,5.3257,0,0,0-5.7447,1.5313,5.7065,5.7065,0,0,0-1.324,3.2133,5.3132,5.3132,0,0,0,2.9572,5.1081,5.7114,5.7114,0,0,0,3.5185.4406,5.1035,5.1035,0,0,0,2.8535-1.6636,5.561,5.561,0,0,0,1.3666-3.5658,2.0667,2.0667,0,1,0-4.1334,0Z"/><circle cx="802.525" cy="311.2194" r="3.289"/><path d="M803.7473,311.2194a4.145,4.145,0,0,1-.031.4537l.0738-.5494a3.5967,3.5967,0,0,1-.236.8465l.2084-.4937a3.6251,3.6251,0,0,1-.44.7378l.3231-.4183a3.6966,3.6966,0,0,1-.5437.5437l.4182-.3231a3.6244,3.6244,0,0,1-.7377.44l.4937-.2083a3.6012,3.6012,0,0,1-.8465.2359l.5494-.0738a3.655,3.655,0,0,1-.9075,0l.5494.0738a3.6018,3.6018,0,0,1-.8464-.2359l.4936.2083a3.6244,3.6244,0,0,1-.7377-.44l.4183.3231a3.6924,3.6924,0,0,1-.5438-.5437l.3232.4183a3.6255,3.6255,0,0,1-.44-.7378l.2084.4937a3.6014,3.6014,0,0,1-.236-.8465l.0739.5494a3.6542,3.6542,0,0,1,0-.9074l-.0739.5494a3.6014,3.6014,0,0,1,.236-.8465l-.2084.4937a3.6255,3.6255,0,0,1,.44-.7378l-.3232.4183a3.6979,3.6979,0,0,1,.5438-.5438l-.4183.3232a3.6244,3.6244,0,0,1,.7377-.44l-.4936.2083a3.5991,3.5991,0,0,1,.8464-.2359l-.5494.0738a3.655,3.655,0,0,1,.9075,0l-.5494-.0738a3.6026,3.6026,0,0,1,.8465.2359l-.4937-.2083a3.62,3.62,0,0,1,.7377.44l-.4182-.3232a3.7021,3.7021,0,0,1,.5437.5438l-.3231-.4183a3.6269,3.6269,0,0,1,.44.7378l-.2084-.4937a3.5967,3.5967,0,0,1,.236.8465l-.0738-.5494a4.1467,4.1467,0,0,1,.031.4537,2.0667,2.0667,0,1,0,4.1333,0,5.3,5.3,0,0,0-.9119-2.9785,5.6869,5.6869,0,0,0-2.7151-2.0853,5.3255,5.3255,0,0,0-5.7447,1.5312,5.7065,5.7065,0,0,0-1.324,3.2133,5.3132,5.3132,0,0,0,2.9572,5.1081,5.7119,5.7119,0,0,0,3.5185.4407,5.104,5.104,0,0,0,2.8534-1.6637,5.56,5.56,0,0,0,1.3666-3.5658,2.0667,2.0667,0,1,0-4.1333,0Z"/><path d="M884.75,364.7527l-20.0937,1.4806-32.0442,2.3612-7.3776.5436,1.9929,1.5173-5.3348-14.226-10.3483-27.5955c-2.2343-5.9582-4.442-11.9272-6.7032-17.8753a2.8173,2.8173,0,0,0-1.7068-1.9212c-.8-.2949-1.6188-.5462-2.4265-.8187L789.066,304.29c-7.5444-2.5455-15.0535-5.2616-22.6515-7.6429-.145-.0454-.2883-.0973-.4323-.1459-2.526-.8523-3.61,3.1384-1.0988,3.9857l32.62,11.0067,4.6283,1.5616-1.4435-1.4434,7.6538,20.41,12.1,32.2673,2.7993,7.4647a2.1207,2.1207,0,0,0,1.9928,1.5172l20.0938-1.4806,32.0441-2.3611,7.3776-.5436c2.6369-.1943,2.6581-4.3292,0-4.1334Z"/><path d="M907.93,265.11h26.3121a1.034,1.034,0,0,0,0-2.0667H907.93a1.034,1.034,0,0,0,0,2.0667Z"/><path d="M907.93,277.0133h26.3121a1.034,1.034,0,0,0,0-2.0667H907.93a1.034,1.034,0,0,0,0,2.0667Z"/><path d="M907.93,288.9164h26.3121a1.034,1.034,0,0,0,0-2.0667H907.93a1.034,1.034,0,0,0,0,2.0667Z"/><path d="M530.268,336.0171a65.0161,65.0161,0,0,0,4.869,4.9419,171.2729,171.2729,0,0,0,15.6057,12.8895,247.4106,247.4106,0,0,0,26.8247,17.1777,326.9915,326.9915,0,0,0,39.6462,18.5778,407.3919,407.3919,0,0,0,52.9315,16.58q3.8079.924,7.631,1.7834c2.5906.5838,3.6968-3.4,1.0988-3.9857A421.2525,421.2525,0,0,1,624.16,387.8576a328.2563,328.2563,0,0,1-40.5535-18.2382,256.5933,256.5933,0,0,1-28.0893-17.3824q-2.6272-1.8825-5.1963-3.8445-.2826-.216-.5644-.4331c-.0628-.0483-.3107-.2406.0014.0012q-.1375-.1065-.2749-.2133-.6045-.4715-1.2067-.9459-1.0794-.8532-2.1459-1.7223-3.4982-2.8519-6.8351-5.8949c-2.0989-1.9252-4.0038-4.0175-6.031-6.0059-.0262-.0257-.0491-.056-.073-.0839-1.7327-2.0239-4.6448.9113-2.9228,2.9227Z"/><polygon points="531.729 347.712 544.885 334.556 526.718 331.423 531.729 347.712"/><path d="M533.1908,349.1732l11.5154-11.5155,1.6406-1.6406c1.0174-1.0174.6648-3.1824-.9119-3.4542L529.56,329.8258l-2.2928-.3953a2.092,2.092,0,0,0-2.5423,2.5422l4.3916,14.2727.62,2.0158c.78,2.5348,4.771,1.4536,3.9857-1.0988L529.3307,332.89l-.62-2.0159-2.5422,2.5423,15.8751,2.7371,2.2928.3953-.912-3.4542L531.9087,344.61,530.268,346.25C528.3847,348.1338,531.3066,351.0573,533.1908,349.1732Z"/><path class="cls-1" d="M618.95,459.0487l32.4371,25.862-48.5537,12.98v23.9455c-19.2894-11.3076-38.1494-12.2519-46.9327-11.2166l-53.3988,11.2332"/><path d="M617.4885,460.51l28.3884,22.634,4.0486,3.228.912-3.4543-16.4452,4.3965L608.31,494.2871l-6.0262,1.611a2.1046,2.1046,0,0,0-1.5172,1.9929v23.9455l3.11-1.7845a86.7078,86.7078,0,0,0-35.8691-11.5359,51.5713,51.5713,0,0,0-15.2811.6632l-38.4937,8.0976-12.28,2.5833c-2.6014.5473-1.5,4.5325,1.0989,3.9857l30.5942-6.4359,18.2429-3.8376c1.4237-.2995,2.8638-.5582,4.2782-.9.0894-.0216.18-.0373.27-.0568-.6917.15-.1614.0238.0643.005.5046-.042,1.008-.0936,1.5134-.1281,1.8972-.1295,3.8016-.1514,5.7021-.0968A80.9388,80.9388,0,0,1,601.79,523.621a2.0859,2.0859,0,0,0,3.11-1.7845V497.891l-1.5172,1.9928,16.4452-4.3964,26.0822-6.9728,6.0262-1.6111c1.38-.3688,2.1615-2.4579.912-3.4542L624.46,460.8153l-4.0486-3.228a2.131,2.131,0,0,0-2.9227,0,2.0813,2.0813,0,0,0,0,2.9228Z"/><path class="cls-1" d="M608.16,478.0194s29.0711,13.3571,47.893,32.2414c15.8126,17.0366,29.318-9.1661-41.0017-53.5417,0,0-9.7166-5.7285-16.2884-6.5564"/><path d="M607.1168,479.8039A192.8908,192.8908,0,0,1,638.966,498.592a135.8758,135.8758,0,0,1,11.5529,9.2642c2.1616,1.9478,4.1014,4.1575,6.329,6.0269,2.17,1.821,4.7382,3.458,7.6369,3.6686A5.625,5.625,0,0,0,670,514.594c1.2549-2.4719.8293-5.49.0378-8.034a39.2816,39.2816,0,0,0-6.1868-11.3862,104.7235,104.7235,0,0,0-13.7917-14.98,215.6085,215.6085,0,0,0-23.2741-18.2192c-6.8494-4.7161-13.6781-9.27-21.5087-12.1945a27.8613,27.8613,0,0,0-5.9647-1.61,2.1386,2.1386,0,0,0-2.5423,1.4434,2.0812,2.0812,0,0,0,1.4435,2.5423c6.7886.9225,13.2305,4.6673,18.9087,8.3365A245.096,245.096,0,0,1,642.0968,478.7a127.1362,127.1362,0,0,1,15.5119,15.1883,50.5177,50.5177,0,0,1,7.6025,11.5306c.0563.1251.3307.775.1027.223.0782.1893.1555.3789.23.57.1483.3811.2877.7658.4151,1.1545a17.0586,17.0586,0,0,1,.5551,2.1065c.026.1358.0444.2733.0722.4086.11.5373-.0235-.4923.0063.04.0155.2778.0512.5532.0588.8319.007.2568-.0028.5115-.0124.768-.0049.1335-.03.2656-.0365.3987.0176-.369.0893-.4545.0028-.0976-.05.2085-.1085.415-.16.6229-.1636.6586.2441-.2875-.0567.1484a3.53,3.53,0,0,0-.2906.477c.3016-.6628.2042-.0949-.0861.0516-.5726.2891.3842-.1295-.0378.0361-.3424.1344-.712.1763-.0779.086a3.559,3.559,0,0,0-.4887.154c-.6234.1935.2791.0473-.1067.0272-.1971-.01-.4074.0056-.6056.0068-.1177.0007-.2352-.0286-.3524-.0283-.2033,0,.5956.1333.1122.0092-.4876-.1252-.9576-.2573-1.4372-.4118-.4973-.16.2472.123.043.0234-.1238-.06-.2516-.1134-.3758-.1732-.2762-.1331-.5469-.2773-.8128-.43a18.9927,18.9927,0,0,1-1.6927-1.1258c-.2709-.1966.373.314-.0394-.0329-.1372-.1155-.2784-.2264-.4155-.3421q-.4536-.3829-.8865-.7894c-.926-.8671-1.7852-1.8036-2.6982-2.6846a129.3872,129.3872,0,0,0-11.0675-9.4339A196.5365,196.5365,0,0,0,609.8306,476.53c-.2088-.0992-.4177-.1984-.6277-.295a2.1277,2.1277,0,0,0-2.8276.7414,2.0834,2.0834,0,0,0,.7415,2.8276Z"/><path class="cls-1" d="M602.5215,489.9225s23.4328,10.2247,42.2547,29.1091c15.8126,17.0365,29.318-9.1662-41.0017-53.5418"/><path d="M601.4784,491.707A142.5849,142.5849,0,0,1,628.95,508.1217a132.3126,132.3126,0,0,1,10.8888,9.0245c1.9127,1.7681,3.6541,3.7432,5.64,5.4293a15.2,15.2,0,0,0,6.4515,3.5655,6.2185,6.2185,0,0,0,5.8111-1.4072,7.3159,7.3159,0,0,0,1.7272-5.8511,23.548,23.548,0,0,0-3.0227-8.9147,63.1376,63.1376,0,0,0-8.1414-11.3415c-10.4154-11.9693-23.448-21.6963-36.5885-30.45q-3.4209-2.2788-6.8983-4.4711c-2.2551-1.4253-4.3314,2.15-2.0862,3.5691,13.9677,8.8282,27.7051,18.5621,39.2028,30.5143a73.4112,73.4112,0,0,1,9.2118,11.34,39.9145,39.9145,0,0,1,2.6364,4.7282c.0818.1761.1593.3541.24.53.2393.5208-.06-.1639.0674.1532.1407.3508.28.7018.4071,1.0578a19.1653,19.1653,0,0,1,.577,1.9008c.0644.2637.1227.5291.1727.796.0253.1348.0413.2731.07.407.09.4165-.033-.52-.0015-.01a13.2731,13.2731,0,0,1,.0532,1.4763c-.017.3454-.1366.7338.01.1268-.0521.2153-.0742.437-.1318.6521-.0431.1614-.1317.33-.1582.4928-.0468.2865.2643-.4029.0793-.191a1.4547,1.4547,0,0,0-.1316.2547c-.1426.27-.5066.5187.0167.04-.1042.0953-.1871.2874-.3185.3493-.5136.2423.2474-.0708.0106.0041a1.6818,1.6818,0,0,0-.43.2441c-.1635.1574.4511-.1041.2208-.0943a1.6243,1.6243,0,0,0-.2283.0752,4.4577,4.4577,0,0,0-.5137.1124c.5187-.1841.3724-.0185-.0345-.026-.183-.0034-.3687-.02-.5512-.02-.4946.0021.5166.127-.1044-.0189-.2168-.0509-.4335-.0956-.6478-.1571-.2008-.0577-.3958-.13-.594-.1951-.6678-.2193.32.1881-.328-.1355-.4691-.2342-.93-.4743-1.3762-.7514q-.3624-.2252-.7122-.47c-.2332-.1626-.8816-.6694-.4447-.3178-1.3334-1.0732-2.4833-2.3088-3.7029-3.5051a129.2724,129.2724,0,0,0-10.4557-9.1683,152.3382,152.3382,0,0,0-30.7477-19.0934c-.1762-.08-.3525-.161-.53-.2386a2.1338,2.1338,0,0,0-2.8276.7414,2.0819,2.0819,0,0,0,.7414,2.8276Z"/><path class="cls-1" d="M889.4692,489.87s4.1577-24.5806-1.4532-49.8971c-5.6963-21.8806,23.6191-19.2875,22.6261,61.6268"/><path d="M891.462,490.4192a113.2664,113.2664,0,0,0,1.2116-11.3144,150.9487,150.9487,0,0,0-.4332-25.7091,115.8807,115.8807,0,0,0-2.3423-14.4134c-.1549-.6583-.2866-1.3182-.3969-1.9854-.0162-.0982-.0771-.5566-.0285-.1822.0523.4036-.0164-.152-.0237-.2284-.0292-.305-.0582-.61-.0753-.9156a15.2051,15.2051,0,0,1-.0094-1.5977c.0122-.2455.0436-.49.057-.7347.023-.42-.0365.2179-.0243.1555.0245-.1257.0362-.254.0615-.38.0869-.4315.2013-.8453.3256-1.267.1334-.4526.1605-.3248.0175-.08.0971-.1663.1665-.35.2634-.5177.0794-.1374.1924-.2683.2618-.41.1693-.3444-.3238.3373-.1338.17.0676-.0592.1131-.1445.18-.2053a2.4385,2.4385,0,0,0,.3425-.3236c.1749-.25-.4421.2634-.2138.1649.0843-.0363.1535-.1143.237-.1553.1151-.0564.58-.2825.1529-.0984-.4184.18.09-.0169.2309-.0565.4494-.1257.2075.0353-.0722-.01a2.6366,2.6366,0,0,0,.5-.0164c.5945-.0373-.23-.0968.0038-.016.1609.0556.3452.07.51.1175.1785.0508.3488.13.5264.1809.2718.0771-.5219-.2873-.1572-.0625.0964.0594.2085.097.3074.1532.39.2212.7538.4632,1.124.7149.356.2421-.391-.3334-.0583-.044.083.0723.1713.1386.254.2113.2115.1862.4211.3733.6235.57a17.1344,17.1344,0,0,1,1.2307,1.335c.1019.1223.2.2477.3013.37.2249.2723-.2812-.3841.0167.0206.2177.2958.4354.5909.6437.8934a34.5843,34.5843,0,0,1,2.4167,4.1452,42.7555,42.7555,0,0,1,2.2332,5.2325c.8383,2.2941,1.5544,4.6321,2.183,6.9919,3.7345,14.019,4.7162,28.7353,4.8721,43.1866q.0393,3.6444-.0071,7.2889c-.0308,2.6606,4.1026,2.6623,4.1334,0,.1862-16.0967-.5412-32.4965-4.183-48.2343-1.8477-7.9845-4.44-16.7515-9.9127-23.0836-2.6239-3.0359-7.3608-5.9353-10.9517-2.6079-4.0087,3.7146-2.1418,10.2691-1.2257,14.794a134.8033,134.8033,0,0,1,2.4091,29.744q-.1189,5.3127-.5958,10.61-.1726,1.8987-.3982,3.7922-.0792.66-.1663,1.318c.0765-.5833-.0521.3677-.085.5912-.0392.2661-.0785.5322-.1232.7974a2.1283,2.1283,0,0,0,1.4435,2.5423,2.0835,2.0835,0,0,0,2.5422-1.4435Z"/><path class="cls-1" d="M875.51,489.9281s4.1577-24.5806-1.4532-49.8971c-5.6962-21.8806,23.6192-19.2875,22.6261,61.6268"/><path d="M877.5028,490.4775a113.2369,113.2369,0,0,0,1.2116-11.3144,150.94,150.94,0,0,0-.4332-25.7092,115.8822,115.8822,0,0,0-2.3423-14.4133c-.1549-.6583-.2865-1.3182-.3969-1.9854-.0162-.0982-.0771-.5566-.0285-.1822.0523.4036-.0164-.152-.0237-.2284-.0292-.305-.0581-.61-.0753-.9156a15.2051,15.2051,0,0,1-.0094-1.5977c.0122-.2455.0436-.49.0571-.7347.0229-.42-.0365.2179-.0244.1555.0245-.1257.0362-.254.0615-.38.0869-.4315.2013-.8453.3256-1.267.1335-.4526.1605-.3248.0176-.08.097-.1663.1664-.35.2633-.5177.0794-.1374.1924-.2683.2618-.41.1693-.3444-.3238.3373-.1337.1705.0675-.0593.1131-.1445.18-.2053a2.4385,2.4385,0,0,0,.3425-.3236c.1749-.25-.442.2633-.2138.1649.0843-.0363.1536-.1143.237-.1553.1151-.0564.58-.2825.153-.0984-.4185.18.0895-.0169.2308-.0565.4494-.1257.2076.0353-.0722-.01a2.6366,2.6366,0,0,0,.5-.0164c.5945-.0373-.23-.0968.0039-.016.1608.0556.3451.07.51.1175.1785.0508.3488.13.5264.1809.2718.0771-.5219-.2873-.1572-.0625.0964.0594.2085.097.3074.1532.39.2212.7538.4632,1.124.7149.3561.2421-.3909-.3334-.0583-.044.0831.0723.1714.1386.2541.2113.2115.1862.4211.3733.6234.57a17.0953,17.0953,0,0,1,1.2307,1.335c.1019.1223.2.2477.3013.37.225.2723-.2812-.3841.0167.0206.2177.2958.4354.5909.6437.8934a34.5843,34.5843,0,0,1,2.4167,4.1452,42.7452,42.7452,0,0,1,2.2332,5.2324c.8383,2.2942,1.5544,4.6322,2.183,6.992,3.7345,14.019,4.7162,28.7353,4.8721,43.1866q.0393,3.6444-.0071,7.2889c-.0307,2.6606,4.1026,2.6623,4.1334,0,.1862-16.0967-.5412-32.4965-4.183-48.2343-1.8477-7.9846-4.44-16.7516-9.9126-23.0836-2.624-3.0359-7.3609-5.9353-10.9518-2.6079-4.0087,3.7146-2.1418,10.2691-1.2256,14.7939a134.8046,134.8046,0,0,1,2.409,29.7441q-.1189,5.3127-.5958,10.61-.1726,1.8988-.3982,3.7923-.0792.66-.1663,1.318c.0765-.5833-.0521.3677-.085.5912-.0392.2661-.0785.5322-.1232.7974a2.1284,2.1284,0,0,0,1.4435,2.5423,2.0834,2.0834,0,0,0,2.5422-1.4435Z"/><path class="cls-1" d="M861.548,490.6337s4.1578-24.5807-1.4531-49.8972c-5.6963-21.8806,23.6191-19.2875,22.6261,61.6269"/><path d="M863.5409,491.1831a113.2979,113.2979,0,0,0,1.2116-11.3145,150.9386,150.9386,0,0,0-.4333-25.7091,115.845,115.845,0,0,0-2.3423-14.4133c-.1548-.6583-.2865-1.3182-.3968-1.9854-.0163-.0982-.0771-.5567-.0286-.1823.0524.4036-.0163-.152-.0236-.2283-.0292-.3051-.0582-.61-.0753-.9157a15.1492,15.1492,0,0,1-.0094-1.5976c.0121-.2455.0436-.49.057-.7348.023-.42-.0365.2179-.0243.1556.0245-.1258.0361-.2541.0615-.38.0869-.4316.2013-.8454.3256-1.267.1334-.4527.16-.3249.0175-.08.097-.1662.1665-.35.2633-.5177.0794-.1374.1924-.2682.2619-.4095.1692-.3445-.3238.3373-.1338.1705.0675-.0593.1131-.1446.18-.2054a2.4313,2.4313,0,0,0,.3424-.3235c.175-.25-.442.2633-.2137.1649.0842-.0364.1535-.1144.237-.1553.115-.0565.58-.2826.1529-.0984-.4184.18.0895-.017.2309-.0565.4494-.1258.2075.0352-.0723-.01a2.6364,2.6364,0,0,0,.5-.0163c.5946-.0373-.23-.0969.0039-.016.1609.0555.3452.07.51.1174.1785.0508.3488.1306.5264.1809.2719.0771-.5219-.2873-.1572-.0625.0965.06.2086.0971.3075.1532.39.2212.7538.4632,1.124.715.356.2421-.391-.3334-.0583-.044.083.0722.1713.1385.254.2113.2115.1861.4211.3733.6235.5694a17.133,17.133,0,0,1,1.2306,1.3351c.102.1222.2.2476.3013.37.225.2724-.2811-.384.0168.0207.2176.2957.4354.5909.6437.8934a34.5836,34.5836,0,0,1,2.4166,4.1452,42.7481,42.7481,0,0,1,2.2333,5.2324c.8383,2.2941,1.5544,4.6322,2.183,6.992,3.7344,14.019,4.7162,28.7353,4.872,43.1865q.0393,3.6445-.007,7.289c-.0308,2.6605,4.1025,2.6623,4.1333,0,.1863-16.0968-.5412-32.4965-4.183-48.2344-1.8476-7.9845-4.44-16.7515-9.9126-23.0835-2.624-3.0359-7.3609-5.9354-10.9517-2.6079-4.0087,3.7146-2.1418,10.269-1.2257,14.7939a134.7985,134.7985,0,0,1,2.409,29.7441q-.1188,5.3125-.5957,10.61-.1728,1.8987-.3982,3.7923-.0792.66-.1663,1.318c.0764-.5834-.0522.3677-.0851.5912-.0391.266-.0785.5322-.1231.7974a2.1282,2.1282,0,0,0,1.4434,2.5422,2.0835,2.0835,0,0,0,2.5423-1.4434Z"/><path class="cls-1" d="M866.9235,502.7041c.9931-80.9143-26.54-70.8447-20.8433-48.964a166.9092,166.9092,0,0,1,2.8958,49.039"/><path d="M868.99,502.7041c.1788-15.3954-.2532-31.2537-3.9211-46.2867a54.0085,54.0085,0,0,0-4.3743-12.2714,18.0578,18.0578,0,0,0-5.3017-6.5517c-3.6646-2.5826-8.062-1.3489-10.2759,2.4244-3.144,5.3585-1.5409,11.5264-.4188,17.1836a156.4038,156.4038,0,0,1,2.2891,44.8061c-.0244.2571-.049.5141-.0782.7707a2.0792,2.0792,0,0,0,2.0667,2.0666,2.1153,2.1153,0,0,0,2.0667-2.0666c.3937-3.4632.5268-6.9686.6085-10.45a172.3061,172.3061,0,0,0-1.2529-25.47,135.8538,135.8538,0,0,0-2.4371-14.1141c-.1551-.661-.285-1.3239-.397-1.9934-.0236-.1413-.0421-.2834-.0625-.4251.095.6581.0147.1117-.0006-.05-.0316-.3327-.0661-.6645-.0876-.9981a23.9539,23.9539,0,0,1,.082-3.4823c.0375-.47-.099.5056-.0061.05.0231-.113.0345-.2287.0557-.3421.05-.2686.101-.5366.163-.8028a12.7367,12.7367,0,0,1,.408-1.3978c.0988-.2762.3407-.7663.0589-.1846.1016-.21.1922-.4239.3-.6308.1927-.3687.4283-.7005.6485-1.0512.2046-.3257-.3605.4033-.0995.1281.0574-.0606.1047-.1311.1621-.192.1359-.1442.2718-.2861.4121-.4262.2464-.246.5107-.3439.0184-.0452.1573-.0954.3-.2144.46-.308.1432-.0841.3164-.1408.4522-.2332-.3208.2182-.3842.1144.0359.0142a4.0758,4.0758,0,0,0,.4878-.11c-.3614.1387-.4391.01.0165.0229a3.9948,3.9948,0,0,0,.5169.0215c.3346-.0377-.5067-.14-.2536-.0336.1.042.2278.0364.3327.0692.1667.052.3379.1078.5062.153.5651.1518-.4087-.2612.1581.0717.3828.2249.75.45,1.1184.6985.2538.1717-.4173-.3669-.1-.0737.0907.084.1908.16.2835.2416.2088.1844.41.3775.6043.5767.1841.1885.3617.3832.5343.5822.0844.0974.1652.1979.2493.2954.0493.0571.0939.118.1424.1758.2721.3241-.2922-.4006-.0386-.0515.3967.546.78,1.0975,1.1316,1.6739a36.8132,36.8132,0,0,1,4.0761,9.9737c3.742,13.1351,4.4078,27.1589,4.538,40.7356q.0351,3.6539-.0115,7.3078c-.0309,2.6606,4.1024,2.6623,4.1333,0Z"/><path class="cls-1" d="M595.5166,500.5516a159.483,159.483,0,0,1,41.1154,29.13c15.8126,17.0366,29.318-9.1662-41.0017-53.5417"/><path d="M594.4735,502.3361a143.53,143.53,0,0,1,27.3037,17.0361,141.6446,141.6446,0,0,1,11.1327,9.5587c1.57,1.4985,3.0209,3.1474,4.7021,4.5266a14.586,14.586,0,0,0,6.397,3.3757,6.0808,6.0808,0,0,0,5.6691-1.5349,7.512,7.512,0,0,0,1.6268-5.9558,24.0783,24.0783,0,0,0-3.12-8.94,64.3829,64.3829,0,0,0-8.27-11.4068c-10.4368-11.8928-23.4248-21.5762-36.5378-30.2986q-3.3251-2.2118-6.7033-4.3414c-2.2552-1.4254-4.3314,2.15-2.0862,3.569,13.8925,8.7807,27.5476,18.4564,39.0108,30.3153a74.7579,74.7579,0,0,1,9.2516,11.3034,40.8419,40.8419,0,0,1,2.6937,4.7619c.1555.3285.3038.66.4488.9934-.2281-.5243.0046.0118.0566.1459.08.2068.1617.4131.2382.6214.2245.6117.4245,1.233.5878,1.864.0692.2675.1323.5366.1873.8074.054.2659.1523,1.1348.0865.4118a12.7859,12.7859,0,0,1,.0836,1.46c-.005.217-.044.4382-.0417.654.0032.3008.1417-.59.0208-.1668-.03.1062-.0356.22-.0651.3269-.0466.1687-.1019.3389-.1437.5084-.145.5882.27-.3586-.0349.0833a2.5277,2.5277,0,0,0-.2556.4275c-.1161.2943.3571-.3674.16-.2015-.074.0623-.1239.1557-.1974.2205-.1027.0905-.5.4068-.1409.1461.3983-.2892-.1643.045-.2315.1191-.0491.0542-.1539.0582-.2114.1018.1181-.09.56-.1552.2448-.1108a2.91,2.91,0,0,0-.5.1352c-.4543.1613.5816.0159-.0211-.0015-.1782-.0052-.3614.0022-.54.0024-.0935,0-.1881-.0233-.2811-.0209-.4259.0114.4668.1108.1883.027-.2046-.0616-.4294-.08-.6378-.1332-.1974-.05-.3925-.1091-.5857-.1738-.2751-.0921-.875-.3709-.2768-.0888a18.5112,18.5112,0,0,1-2.8316-1.6785c-.4093-.29.179.1507-.0386-.0279-.1222-.1-.2467-.1979-.3685-.2989q-.3794-.3147-.7441-.6465c-.5248-.4759-1.0171-.9814-1.51-1.49a121.8763,121.8763,0,0,0-10.3869-9.4019,155.3767,155.3767,0,0,0-30.7084-19.9c-.1773-.0853-.3546-.1705-.5333-.2528a2.1276,2.1276,0,0,0-2.8277.7414,2.0836,2.0836,0,0,0,.7415,2.8276Z"/><path class="cls-1" d="M587.486,488.0431c70.32,44.3755,56.8144,70.5783,41.0017,53.5417a120.8706,120.8706,0,0,0-27.2021-20.2816s-32.65-2.2057-49.1838-15.9835"/><path d="M586.4429,489.8276c15.5228,9.8111,31.1062,20.7869,43.1319,34.8326a51.6924,51.6924,0,0,1,7.9809,11.8837c.1.2181.1965.4376.2922.6577-.18-.4147-.0229-.057.0566.1459.1587.405.312.8117.45,1.2243a17.4616,17.4616,0,0,1,.574,2.1209c.0339.17.0576.3428.0925.5126.1072.5224-.0227-.455.0008-.0079.0154.2938.0563.5851.0643.88.0073.2708-.0076.5384-.0152.8087-.02.7241.1428-.3757-.0382.2967-.0551.205-.1124.4134-.1637.6192-.1621.6506.273-.34-.0752.1722-.1779.2619-.5548.6042-.0287.1229a4.394,4.394,0,0,0-.383.4087c-.3168.3821.4108-.368-.072.0382-.0589.05-.1434.0664-.2043.1123-.3689.2781.4415-.0723.1137-.0457a2.5415,2.5415,0,0,0-.5284.1451c-.3677.1314.0778-.0346.2055-.021-.1144-.0122-.2422.0295-.3588.0256-.2032-.0069-.4152-.0206-.6181-.018-.4006.0052.0416-.007.1539.026-.1309-.0385-.2753-.0414-.4082-.0757-.2322-.06-.4644-.1134-.6936-.1853-.2319-.0728-1.1005-.449-.3937-.1225a15.6518,15.6518,0,0,1-1.6207-.8461q-.4081-.25-.8-.5243c-.1525-.1062-.3-.219-.4521-.326-.4308-.3033.2876.2506-.13-.1011-2.1313-1.7932-4.001-3.8681-6.0507-5.7538a122.0311,122.0311,0,0,0-13.0691-10.4269q-3.0717-2.1309-6.2671-4.0756-1.3454-.8192-2.7109-1.6046a8.869,8.869,0,0,0-3.1924-1.49c-.969-.1022-1.9423-.1668-2.9115-.2715-2.6645-.2878-4.5188-.5459-7.2785-1.0019q-5.2539-.8682-10.4338-2.1282c-7.8-1.9152-15.5864-4.5094-22.4726-8.717a39.8441,39.8441,0,0,1-4.6249-3.26,2.1254,2.1254,0,0,0-2.9227,0,2.0827,2.0827,0,0,0,0,2.9227c7.0324,5.8108,15.6975,9.3286,24.39,11.8332a138.506,138.506,0,0,0,21.9241,4.3227c1.44.1719,2.8838.3344,4.3307.433l-1.0431-.2821A121.59,121.59,0,0,1,618.77,535.5566a107.0758,107.0758,0,0,1,8.7312,7.9887,25.717,25.717,0,0,0,3.0271,2.6439c2.8875,2.1591,7.3824,4.0668,10.5751,1.4059,3.207-2.6726,2.1838-7.7328.8855-11.0957-2.8725-7.4406-8.3166-13.8277-13.8056-19.4788-10.0315-10.3279-21.7539-19.0227-33.7344-26.94q-2.9393-1.9425-5.92-3.8217c-2.2551-1.4254-4.3313,2.15-2.0862,3.569Z"/><path class="cls-4" d="M324.134,583.6958a59.5112,59.5112,0,0,0-11.12,1.0474c-5.8493,38.71-10.3033,77.9441-13.5914,111.9575A59.2034,59.2034,0,1,0,324.134,583.6958Z"/><path d="M324.134,581.6291a65.1653,65.1653,0,0,0-11.67,1.1212,1.9941,1.9941,0,0,0-1.4434,1.4435c-4.4723,29.6284-8.1486,59.375-11.3033,89.1712q-1.2348,11.6624-2.362,23.3357a1.995,1.995,0,0,0,1.0236,1.7845,61.2649,61.2649,0,1,0,30.99-116.6278c-1.7413-.1526-3.4873-.2232-5.235-.2283-2.66-.0078-2.6637,4.1256,0,4.1334a57.1407,57.1407,0,1,1-17.8464,111.4206,55.9708,55.9708,0,0,1-5.8222-2.2669l1.0235,1.7845c2.783-28.7637,6.0047-57.49,9.8955-86.1261q1.7193-12.654,3.6222-25.282l-1.4435,1.4434a58.9349,58.9349,0,0,1,10.5709-.9735C326.7931,585.7519,326.7984,581.6185,324.134,581.6291Z"/><path class="cls-4" d="M583.76,648.4164c-1.6073-.1309-3.2319-.2007-4.8727-.2007a59.1987,59.1987,0,1,0,19.1005,115.2469C596.0378,715.6891,590.6935,678.9115,583.76,648.4164Z"/><path d="M583.76,646.35A61.267,61.267,0,1,0,591.96,767.2779a60.7645,60.7645,0,0,0,6.578-1.8225,2.1163,2.1163,0,0,0,1.5172-1.9928c-.7045-17.1412-1.89-34.2654-3.7414-51.3222-1.5674-14.4377-3.601-28.83-6.2215-43.115q-1.9486-10.6231-4.3386-21.1584c-.5886-2.593-4.5747-1.4956-3.9857,1.0988q4.37,19.2485,7.2741,38.7882c2.2842,15.2146,3.9395,30.5208,5.1294,45.8586q1.1563,14.907,1.75,29.85l1.5172-1.9929a57.1431,57.1431,0,1,1-20.1336-111.1664,62.3281,62.3281,0,0,1,6.4553.18C586.413,650.6887,586.4,646.5543,583.76,646.35Z"/><path class="cls-4" d="M468.4255,780.3305a59.1966,59.1966,0,0,0-118.3506,2.2462c0,.3163.0072.631.0121.9464,23.8672-2.3047,53.2574-3.6655,85.0509-3.6655C446.1451,779.8576,457.3309,780.0216,468.4255,780.3305Z"/><path d="M470.4922,780.3305a61.262,61.262,0,0,0-122.3491-1.778q-.1667,2.4823-.1228,4.9706a2.0819,2.0819,0,0,0,2.0667,2.0666c13.9755-1.3449,27.9944-2.2231,42.0215-2.8021q24.0554-.9928,48.14-.8517,14.0906.0641,28.1768.4612c2.6607.0736,2.6588-4.06,0-4.1333q-24.84-.6867-49.6934-.3508c-15.2766.2288-30.5512.7731-45.8,1.738q-11.436.7236-22.8455,1.8054l2.0666,2.0667a57.1382,57.1382,0,0,1,113.8639-7.7185c.1713,1.5041.28,3.0135.3413,4.5259C466.4655,782.9812,470.5994,782.9948,470.4922,780.3305Z"/><path d="M549.1905,912.8778a14.121,14.121,0,0,0-5.0426.2078,13.8872,13.8872,0,0,0-8.2422,5.4261,2.0726,2.0726,0,0,0,.7414,2.8276,2.1283,2.1283,0,0,0,2.8276-.7414q.2128-.2835-.004.005.107-.1324.2174-.262.2157-.2523.445-.4925.3843-.4018.8061-.7655a2.81,2.81,0,0,1,.3539-.2923c-.4742.2849.0856-.0542.18-.1191q.4117-.2837.8477-.53.4157-.2351.85-.4345c.5346-.2457-.2269.075.1093-.0485.1591-.0584.3165-.12.4768-.1758a12.4786,12.4786,0,0,1,1.5995-.434,4.2616,4.2616,0,0,0,.74-.1272q-.5709.0745-.248.0344.0974-.0116.1949-.0217.1414-.0147.283-.0264.6064-.05,1.2158-.043c.2561.0033.5124.014.7677.0361.3617.0313.44.0624-.2182-.0374a2.1221,2.1221,0,0,0,2.5422-1.4435,2.09,2.09,0,0,0-1.4434-2.5422Z"/><path d="M553.6673,922.3831a14.1233,14.1233,0,0,0-5.0426.2078,13.8875,13.8875,0,0,0-8.2422,5.4261,2.0726,2.0726,0,0,0,.7415,2.8276,2.1283,2.1283,0,0,0,2.8276-.7414q.2127-.2835-.0041.005.107-.1324.2175-.262.2156-.2523.445-.4925.3841-.4019.806-.7655a2.8173,2.8173,0,0,1,.3539-.2923c-.4742.2849.0856-.0542.18-.119q.4116-.2838.8476-.53.4158-.2351.85-.4345c.5346-.2457-.2269.075.1094-.0485.159-.0584.3165-.12.4768-.1758a12.4741,12.4741,0,0,1,1.5995-.434,4.2621,4.2621,0,0,0,.74-.1272q-.5707.0746-.248.0344.0974-.0115.195-.0217.1413-.0147.283-.0264.6063-.05,1.2157-.043c.2562.0033.5124.014.7677.0361.3618.0313.4395.0624-.2182-.0374a2.1221,2.1221,0,0,0,2.5423-1.4435,2.09,2.09,0,0,0-1.4435-2.5422Z"/><path d="M560.9808,930.4458a14.1227,14.1227,0,0,0-5.0425.2079,13.8865,13.8865,0,0,0-8.2423,5.4261,2.0726,2.0726,0,0,0,.7415,2.8276,2.1282,2.1282,0,0,0,2.8276-.7415q.2127-.2833-.004.0051.1068-.1326.2174-.262.2156-.2525.445-.4926.3843-.4018.806-.7655a2.8173,2.8173,0,0,1,.3539-.2923c-.4742.285.0856-.0542.18-.119q.4116-.2838.8476-.53.4158-.2349.85-.4345c.5346-.2456-.227.075.1093-.0484.1591-.0584.3165-.1206.4768-.1759a12.4574,12.4574,0,0,1,1.6-.4339,4.2528,4.2528,0,0,0,.74-.1273q-.5707.0747-.248.0344.0974-.0116.195-.0217.1413-.0147.283-.0264.6063-.05,1.2157-.043c.2562.0033.5125.014.7677.0361.3618.0313.44.0624-.2182-.0374a2.1221,2.1221,0,0,0,2.5423-1.4435,2.09,2.09,0,0,0-1.4435-2.5422Z"/><path d="M387.1792,900.945a13.9944,13.9944,0,0,0-13.9523,1.03,2.067,2.067,0,0,0,2.0862,3.569,12.0313,12.0313,0,0,1,2.06-1.1748c-.3433.1491.2346-.084.2486-.089q.2731-.0984.5513-.1824.447-.1354.9048-.2327c.1769-.0376.3543-.0687.5323-.1.5746-.102-.4242.0286.1455-.0182.28-.023.5593-.0466.8405-.055.6008-.018,1.1863.06,1.7835.0769.27.0077-.4405-.0738-.0559-.0079.134.023.2681.0434.4017.0682q.3423.0634.6809.1452.5672.1365,1.1205.3234c.2713.0921,1.0877.4855.2992.0944.0874.0434.1792.0782.2665.1222a2.067,2.067,0,1,0,2.0862-3.569Z"/><path d="M387.1792,910.9223a13.9944,13.9944,0,0,0-13.9523,1.03,2.067,2.067,0,0,0,2.0862,3.569,12.0313,12.0313,0,0,1,2.06-1.1748c-.3433.1491.2346-.084.2486-.089q.2731-.0984.5513-.1824.447-.1355.9048-.2327c.1769-.0376.3543-.0687.5323-.1.5746-.102-.4242.0286.1455-.0182.28-.023.5593-.0466.8405-.055.6008-.018,1.1863.06,1.7835.0769.27.0077-.4405-.0738-.0559-.0079.134.023.2681.0434.4017.0682q.3423.0634.6809.1452.5672.1365,1.1205.3234c.2713.0921,1.0877.4855.2992.0944.0874.0434.1792.0782.2665.1222a2.067,2.067,0,1,0,2.0862-3.569Z"/><path d="M387.1792,920.9a13.9944,13.9944,0,0,0-13.9523,1.03,2.067,2.067,0,0,0,2.0862,3.569,12.0313,12.0313,0,0,1,2.06-1.1748c-.3433.1491.2346-.084.2486-.089q.2731-.0984.5513-.1824.447-.1355.9048-.2327c.1769-.0376.3543-.0687.5323-.1.5746-.102-.4242.0286.1455-.0182.28-.023.5593-.0466.8405-.055.6008-.018,1.1863.06,1.7835.0769.27.0077-.4405-.0738-.0559-.0079.134.023.2681.0434.4017.0682q.3423.0634.6809.1452.5672.1365,1.1205.3234c.2713.0921,1.0877.4855.2992.0944.0874.0434.1792.0782.2665.1222a2.067,2.067,0,1,0,2.0862-3.569Z"/><path class="cls-2" d="M112.9336,974.11,91.9513,873.13c-6.17-27.32,10.8216-54.2581,34.2242-54.2581h0l-8.8532-42.1863h88.444l-8.8531,42.1863h0c23.4026,0,40.3945,26.9386,34.2242,54.2581L205.934,974.11Z"/><path d="M113.93,973.8355l-3.5592-17.1292L102.7022,919.8l-7.2475-34.88c-1.5418-7.42-3.6715-15.1105-3.7433-22.7092-.167-17.6637,9.8694-37.6706,28.4163-41.6711a28.6673,28.6673,0,0,1,6.0479-.6348,1.0473,1.0473,0,0,0,.9964-1.3081l-2.9889-14.2424-4.7666-22.7135-1.0976-5.23-.9965,1.308h84.8459a18.0364,18.0364,0,0,0,3.4416,0,.8182.8182,0,0,1,.1565,0l-.9965-1.308-2.9888,14.2424-4.7666,22.7135-1.0977,5.23a1.0473,1.0473,0,0,0,.9965,1.3081c19.0177,0,31.8042,17.9805,34.0568,35.36a50.0869,50.0869,0,0,1-1.0573,18.505l-2.0541,8.23-8.3008,33.2582-9.4035,37.6759-3.4386,13.7772-1.1049,4.4268a19.8629,19.8629,0,0,0-.5976,2.3944,2.5038,2.5038,0,0,1-.0758.3036l.9965-.7586H116.7274c-1.199,0-2.4367-.0888-3.6334,0-.0529.0039-.1073,0-.16,0a1.0339,1.0339,0,0,0,0,2.0666H202.14c1.1959,0,2.44.0993,3.6334,0,.0527-.0044.1074,0,.16,0a1.0507,1.0507,0,0,0,.9964-.7586l4.3894-17.5865,9.39-37.6234,8.6855-34.799c2.08-8.3325,4.4121-16.3927,3.9914-25.1184-.8589-17.8118-11.779-37.21-30.4916-40.8364a31.491,31.491,0,0,0-5.9821-.5828l.9964,1.308,2.9889-14.2424,4.7666-22.7135,1.0976-5.23a1.0473,1.0473,0,0,0-.9964-1.3081H120.9205c-1.133,0-2.3115-.094-3.4416,0-.0514.0043-.1048,0-.1565,0a1.0473,1.0473,0,0,0-.9964,1.3081l2.9889,14.2424,4.7666,22.7135,1.0976,5.23.9965-1.308c-18.8,0-32.2433,16.702-35.5745,33.9564a55.2789,55.2789,0,0,0,.4386,22.0176q.7677,3.66,1.5216,7.3232l6.8873,33.1459,7.9863,38.4354,2.9668,14.2782c.489,2.3535.89,4.7474,1.4712,7.08.0254.102.0429.2066.0643.31C112.2076,975.6862,114.2,975.1355,113.93,973.8355Z"/><path d="M180.71,745.1122c-.2739-2.9685-.2939-5.9742-.2727-8.952a145.4548,145.4548,0,0,1,1.8367-22.1028,121.4727,121.4727,0,0,1,7.9947-28.3914A87.1006,87.1006,0,0,1,208.51,658.1416a80.2729,80.2729,0,0,1,32.6331-19.4938c1.7486-.5536,3.5135-1.0527,5.29-1.5091l-1.2712-.7217c3.5031,15.1769,4.8982,31.1574,1.6924,46.5167A72.06,72.06,0,0,1,232.28,713.8724a81.3516,81.3516,0,0,1-21.967,18.5075,101.2445,101.2445,0,0,1-20.3907,9.0491c-2.3092.737-4.6446,1.3965-7.0037,1.9546-1.1059.2616-2.28.3917-3.3691.7074a1.2454,1.2454,0,0,1-.1472.0247c-1.31.209-.7538,2.2008.5494,1.9929a68.3412,68.3412,0,0,0,8.7864-2.15,104.6933,104.6933,0,0,0,20.2907-8.4739,85.1919,85.1919,0,0,0,22.7083-17.802A73.6385,73.6385,0,0,0,247.85,687.69c3.914-14.6814,3.4526-30.1782.7225-45.022-.4189-2.2776-.8961-4.5438-1.4169-6.8a1.0483,1.0483,0,0,0-1.2711-.7217A81.7609,81.7609,0,0,0,190.3285,680.56a117.8819,117.8819,0,0,0-9.3886,29.1875,148.3571,148.3571,0,0,0-2.53,23.9485,75.4891,75.4891,0,0,0,.22,11.26c.0066.0516.0086.1041.0134.1559C178.7643,746.4255,180.8322,746.4382,180.71,745.1122Z"/><path d="M157.8049,709.0029a88.7871,88.7871,0,0,1-6.0741-6.9168,137.0163,137.0163,0,0,1-12.7191-18.6641,108.807,108.807,0,0,1-11.1255-27.2166,76.5118,76.5118,0,0,1-1.2294-32.8568c2.5129-13.0843,8.8328-25.08,17.3443-35.2543q1.8607-2.2241,3.844-4.34l-1.2522.1615c10.588,7.5555,19.3977,17.4549,24.6357,29.4348a74.0584,74.0584,0,0,1,5.66,32.4568,114.4612,114.4612,0,0,1-5.5916,30.236,155.2481,155.2481,0,0,1-9.3238,22.7809q-1.79,3.5556-3.7653,7.0142c-.6213,1.0819-1.3616,2.1261-1.9356,3.2322-.0254.0491-.06.0952-.0906.1417-.7254,1.1194,1.063,2.1565,1.7845,1.0431,1.7994-2.7767,3.3785-5.7131,4.9014-8.6468a160.2919,160.2919,0,0,0,9.534-22.3115,121.56,121.56,0,0,0,6.3779-30.2792,78.6673,78.6673,0,0,0-4.3153-33.1391,71.4282,71.4282,0,0,0-22.5283-30.5q-2.103-1.6857-4.3-3.248a1.0371,1.0371,0,0,0-1.2523.1616c-9.4465,10.1357-16.99,22.1168-20.59,35.5828a76.4082,76.4082,0,0,0-.9647,34.0449,104.8954,104.8954,0,0,0,10.4,28.8819,138.3639,138.3639,0,0,0,13.3905,20.6667q2.4343,3.1277,5.0536,6.1061a31.868,31.868,0,0,0,2.551,2.7677c.0422.0375.08.0816.12.1216A1.034,1.034,0,0,0,157.8049,709.0029Z"/><path d="M149.401,627.8422l1.2059,14.8526,2.8736,35.3924,3.4724,42.7686,3.0025,36.9811c.4884,6.0156.8953,12.0444,1.4658,18.053.0076.0806.0131.1614.02.2421a1.0423,1.0423,0,0,0,1.9256.5216l5.9186-9.879,14.1459-23.6115,17.1717-28.662,14.7906-24.6875,4.9076-8.1915c.76-1.2685,1.6254-2.5194,2.2987-3.837.0309-.06.07-.1175.1054-.1758a1.0341,1.0341,0,0,0-1.7845-1.0431l-5.9186,9.8789-14.1459,23.6115-17.1717,28.6621-14.7905,24.6874-4.9077,8.1916a27.7353,27.7353,0,0,0-2.2987,3.8369,1.2652,1.2652,0,0,1-.1054.1759l1.9256.5215-1.2059-14.8526-2.8735-35.3923-3.4725-42.7687-3.0025-36.9811c-.4884-6.0156-.8953-12.0444-1.4658-18.0529-.0076-.0806-.0131-.1615-.02-.2422-.1069-1.3165-2.1745-1.3279-2.0667,0Z"/><path d="M121.7846,798.9813h79.52a1.034,1.034,0,0,0,0-2.0667h-79.52a1.034,1.034,0,0,0,0,2.0667Z"/><path d="M129.3349,734.633a73.2409,73.2409,0,0,0-1.2662-8.3386,97.1135,97.1135,0,0,0-5.5738-18.4786,66.8042,66.8042,0,0,0-12.7339-20.2864A46.2575,46.2575,0,0,0,87.1048,674.223c-11.6247-2.8178-23.872-1.151-35.1648,2.3193-1.7653.5424-3.5144,1.1348-5.2512,1.7623a1.0684,1.0684,0,0,0-.7587.9964c.033,16.9738,4.67,34.5531,17.751,46.1835,10.934,9.7215,25.6837,13.7281,40.0847,13.7515a88.6192,88.6192,0,0,0,24.81-3.6066,1.0342,1.0342,0,0,0-.5494-1.9928c-13.6744,3.9755-28.61,4.9749-42.443,1.1766a51.6551,51.6551,0,0,1-18.4028-9.0787,47.2026,47.2026,0,0,1-13.3132-16.897c-4.3451-9.182-5.8514-19.4548-5.871-29.5365l-.7586.9964c11.4034-4.12,23.8821-6.7978,36.0083-4.7589a44.1026,44.1026,0,0,1,23.1766,11.5672,61.3967,61.3967,0,0,1,13.2536,19.3685,93.375,93.375,0,0,1,6.0356,18.6231c.466,2.1451.8659,4.3053,1.1847,6.4773.1252.8529.1383.935.2456,1.8526.0414.3543.0632.7135.1133,1.0666.0066.0459.0086.093.0123.1392C127.3748,735.95,129.4424,735.961,129.3349,734.633Z"/><path d="M69.128,692.92a237.75,237.75,0,0,1,24.3075,15.0611c16.197,11.1932,31.6224,23.999,44.2039,39.2154,7.3654,8.9079,13.78,18.8194,17.7269,29.7329.4489,1.2411,2.4468.7055,1.9929-.5494-7.116-19.675-21.5359-36.079-36.9116-49.85a273.6921,273.6921,0,0,0-41.4257-30.3239c-2.91-1.7529-5.8427-3.4893-8.8508-5.0706-1.1762-.6183-2.222,1.1648-1.0431,1.7845Z"/><polyline class="cls-1" points="415.474 251.565 416.562 197.702 462.251 215.293 463.678 250.655"/><path d="M417.5411,251.5647l.3679-18.2208.5859-29.0162.1337-6.626-2.616,1.9928,15.3921,5.9262,24.6647,9.4963,5.6326,2.1686-1.5173-1.9928,1.2485,30.9567.1777,4.4055c.1069,2.6507,4.2408,2.6643,4.1334,0l-1.2486-30.9567-.1776-4.4055a2.1581,2.1581,0,0,0-1.5173-1.9929l-15.3922-5.9262-24.6647-9.4963-5.6325-2.1686a2.0829,2.0829,0,0,0-2.6161,1.9929l-.3679,18.2208-.5858,29.0162-.1338,6.626c-.0537,2.6609,4.08,2.6607,4.1333,0Z"/><path class="cls-1" d="M440.217,217.6761c7.9729,3.7112,17.4035,6.0146,28.4477,6.6361,43.8131-8.7256,26.0705-88.0336,26.0705-88.0336l-87.7044-3.1392s-11.3921,18.7695-10.5546,27.4137c1.4421,14.8864,15.9467,25.5468,19.9531,44.7394"/><path d="M439.174,219.4606a77.9685,77.9685,0,0,0,24.4031,6.5018c2.0646.2244,4.3131.642,6.3563.1919a34.2052,34.2052,0,0,0,3.43-.9418,33.4318,33.4318,0,0,0,6.4654-2.9162c7.8535-4.644,12.9567-12.4443,15.9945-20.88,3.1932-8.8676,4.285-18.4629,4.4966-27.84a164.5368,164.5368,0,0,0-1.4417-24.8523,96.2872,96.2872,0,0,0-2.1119-12.8165c-.0159-.0583-.0256-.1188-.0388-.1778a2.1,2.1,0,0,0-1.9928-1.5172l-8.7411-.3129-20.8663-.7469-25.369-.908-21.9362-.7852c-3.5262-.1262-7.1048-.4438-10.6343-.3806-.0523.0009-.1051-.0038-.1575-.0057a2.07,2.07,0,0,0-1.7845,1.0236c-1.4912,2.46-2.8591,5.0024-4.1635,7.5654a70.93,70.93,0,0,0-5.9854,14.7965,18.8349,18.8349,0,0,0-.6013,6.861,31.6938,31.6938,0,0,0,2.2315,8.31c2.3026,5.54,5.6567,10.5223,8.7719,15.6223,3.9445,6.4579,7.3483,13.1373,8.9369,20.59.5542,2.6,4.54,1.5,3.9857-1.0988a63.8046,63.8046,0,0,0-7.5706-18.5907c-2.9714-5.1227-6.4-9.9943-9.0507-15.2995a33.9586,33.9586,0,0,1-2.7535-7.3808,15.748,15.748,0,0,1-.3211-6.2745c.8967-4.88,3.0065-9.5436,5.1841-13.9682,1.5129-3.0743,3.1283-6.1156,4.9051-9.0469l-1.7846,1.0236,8.7412.3128,20.8662.7469,25.369.9081,21.9362.7851,7.2255.2587a32.9686,32.9686,0,0,0,3.4088.122,1.51,1.51,0,0,1,.1575.0056l-1.9929-1.5173c.7124,3.19,1.2264,6.4323,1.6951,9.6648q.0781.5391.1532,1.0788.0442.3183.0874.6366c-.0634-.4659.0115.0871.0349.2663q.1622,1.2414.3089,2.4846.3252,2.7663.5675,5.5416c.363,4.1708.5829,8.3552.6248,12.5419.091,9.0964-.54,17.8691-2.9,26.5712-2.1942,8.09-5.8584,15.5751-12.411,20.9492a27.3765,27.3765,0,0,1-2.3351,1.6587,28.5792,28.5792,0,0,1-8.9082,3.7548,15.2251,15.2251,0,0,1-5.1749-.0535q-3.2642-.3218-6.4931-.9006a74.03,74.03,0,0,1-11.7123-3.0841q-2.5565-.9111-5.019-2.0467a2.1271,2.1271,0,0,0-2.8276.7414,2.0836,2.0836,0,0,0,.7415,2.8276Z"/><path class="cls-6" d="M501.7582,143.8813c-15.9648,0-37.3275-2.2186-50.8444-3.8452a11.9126,11.9126,0,0,0-13.3324,11.5476l-.5418,22.7574c-.3094-10.4952-9.0428-24.459-16.5643-24.2373s-13.2276,2.9259-12.91,13.6944c.21,7.1279,6.5505,19.3758,10.8073,22.505,0,0,7.062,30.0983-11.69,25.2439,0,0-15.8481-20.0207-12.1258-40.1209-11.9113-19.3559-7.2778-39.4562.1667-43.9229-8.9334-9.6779-8.189-34.2449,0-37.9672-10.4224-8.9334-2.9778-26.8,1.4889-29.7782,1.0838-.7225-7.41-23.9013,1.5779-28.3954,14.8891-7.4446,95.2262-10.2049,116.4226,2.0667,13.0889,7.5778,2.4345,26.3287,2.4345,26.3287S520.37,74.647,513.67,82.0916c7.4446,10.4223,5.2112,32.0115-4.4667,39.4561C518.8807,129.7367,512.1806,143.8813,501.7582,143.8813Z"/><path d="M501.7582,141.8147c-17.1047-.0184-34.0326-2.1716-51.0186-3.8638a14.105,14.105,0,0,0-15.2115,13.2827c-.1933,3.5273-.1736,7.0781-.2576,10.6091l-.2976,12.4984h4.1333a34.1831,34.1831,0,0,0-6.3456-17.8936c-3.0614-4.3641-7.4129-8.7-13.1341-8.3741-4.88.2781-9.9259,1.8655-12.352,6.471-2.7929,5.3021-1.9916,11.8136-.0682,17.2485a51.6518,51.6518,0,0,0,4.507,9.5411,23.49,23.49,0,0,0,5.6161,6.7537l-.95-1.2351c.2126.91.3767,1.8324.5294,2.7536.0761.4594.1443.92.2127,1.3806a2.4162,2.4162,0,0,1,.0408.2963c.0376.2991.0747.5983.1086.8979.1356,1.1973.2355,2.3989.29,3.6027.0591,1.2944.0675,2.592.0027,3.8864-.031.6189-.0828,1.2356-.147,1.8519q-.0251.2411-.0575.4816c.0509-.3818.0047-.0491-.0068.0235-.06.3767-.1238.7523-.2006,1.1259-.1183.5759-.26,1.1473-.434,1.7092a9.6362,9.6362,0,0,1-.53,1.4118,14.41,14.41,0,0,1-.8067,1.3972c-.237.3577.1132-.0735-.2322.3035-.2228.2432-.4539.47-.6853.704-.0755.0763-.1652.1445-.2476.2139.377-.3173-.0824.06-.1751.1175-.2611.1633-.5226.3155-.7948.4591-.0991.0524-.2055.1-.3089.1438.4453-.1906-.1463.0409-.2414.0671-.3245.09-.6446.1766-.9746.2441-.5907.1208.2539-.02-.1169.0243-.233.0276-.4676.0434-.702.053-.3559.0147-.7126.01-1.0683-.0081a12.0979,12.0979,0,0,1-2.6031-.4392l.912.5315c-.194-.2456.3222.44.2.259-.0911-.1349-.1979-.2613-.295-.3921-.3528-.4751-.6951-.9582-1.0311-1.4453-1.166-1.69-2.2525-3.4359-3.268-5.22a60.6687,60.6687,0,0,1-6.799-17.2957,38.9141,38.9141,0,0,1-.8263-10.4611c.0485-.7953.1182-1.5909.23-2.38.1922-1.36.3554-2.1415-.3868-3.3849a50.5934,50.5934,0,0,1-2.9721-5.77,42.5684,42.5684,0,0,1-3.4569-21.1244,26.3063,26.3063,0,0,1,2.2671-8.5951,17.8423,17.8423,0,0,1,1.8333-3.0417,11.4609,11.4609,0,0,1,1.0839-1.1574,4.0241,4.0241,0,0,1,1.0439-.7882,2.0965,2.0965,0,0,0,.4183-3.2458c-3.5013-3.8566-5.0258-9.517-5.5719-14.6179-.56-5.23-.4038-11.0044,1.6714-15.9209.078-.1849.4577-.96.6706-1.3359.139-.2453.2851-.487.44-.7225.071-.1078.4573-.6362.27-.3989a7.9522,7.9522,0,0,1,1.1156-1.1511c.181-.1523-.0385.0254-.0649.0449.1182-.0873.24-.1719.3652-.2479a7.6385,7.6385,0,0,1,.6855-.3712,2.078,2.078,0,0,0,.4183-3.2458c-6.8994-6.0434-5.3228-17.0183-.9426-24.0806q.3336-.5377.702-1.0517c.3739-.5249-.2434.2822.1459-.1958.1136-.14.2293-.2775.3494-.4116.1833-.2048.3783-.3931.5727-.5867.1045-.1042.2231-.1936.335-.2893-.5846.5.4212-.3322.3469-.2573.9469-.955.676-2.3263.4773-3.5043-.55-3.2622-1.4-6.4655-1.9167-9.7368-.5657-3.5838-.9963-7.829-.0432-11.2315a5.7191,5.7191,0,0,1,1.94-3.1836,9.9843,9.9843,0,0,1,1.363-.716c.3848-.1779-.4743.185-.0692.03.1121-.043.2225-.09.3349-.1328.2777-.1044.5553-.2081.8357-.3053,5.6131-1.9452,11.8486-2.7363,17.4532-3.3961a321.4524,321.4524,0,0,1,55.0969-1.4762,180.4545,180.4545,0,0,1,25.1631,2.8653A72.4362,72.4362,0,0,1,508.236,33.01q1.0346.3624,2.0493.7762c.5424.2206-.3816-.17.147.0621.13.057.26.1138.3892.172q.49.2205.9717.458a13.4616,13.4616,0,0,1,4.429,3.241c2.51,2.95,2.7865,7.1323,2.2085,10.6744a32.2048,32.2048,0,0,1-1.4276,5.4722q-.363,1.0337-.7841,2.0459c.162-.39-.201.4574-.2639.5968q-.2038.4516-.4193.898a6.2151,6.2151,0,0,0-.9551,2.3515,17.3964,17.3964,0,0,0,.506,2.721,38.8283,38.8283,0,0,1,.5109,5.3705,26.9077,26.9077,0,0,1-.5933,6.9128,13.4184,13.4184,0,0,1-2.7961,5.868,2.1117,2.1117,0,0,0-.3232,2.5045c3.0065,4.28,4.0713,9.63,4.1447,14.7838a34.4567,34.4567,0,0,1-3.2945,15.82,18.3,18.3,0,0,1-4.9938,6.3482,2.0728,2.0728,0,0,0,0,2.9227c3.5568,3.0791,5.0863,7.6078,3.3326,12.0974a10.326,10.326,0,0,1-9.3158,6.7083c-2.6577.0339-2.665,4.1674,0,4.1333a14.649,14.649,0,0,0,8.9059-25.8617v2.9227c4.4481-3.4861,6.982-9.0891,8.2967-14.4575a40.78,40.78,0,0,0,.2512-18.7009,25.1643,25.1643,0,0,0-3.758-8.8021l-.3231,2.5044c5.5824-6.3659,5.4477-16.5293,3.5093-24.3444l-.2084,1.5925a31.9449,31.9449,0,0,0,4.36-16.1581,15.1308,15.1308,0,0,0-5.0741-11.25,26.2146,26.2146,0,0,0-8.294-4.3371c-6.589-2.3234-13.6067-3.4149-20.515-4.2728a257.844,257.844,0,0,0-25.892-1.758,304.1237,304.1237,0,0,0-50.1184,2.5423c-5.124.737-10.4737,1.54-15.2615,3.604-7.1017,3.0608-6.4447,12.25-5.5576,18.6107.4643,3.3288,1.2212,6.5956,1.89,9.8859.0925.4549.1713.9117.2557,1.368.0969.5242.0765-.4512.01.1389-.0338.3017-.137.5758.0612-.1115.1251-.4337,1.3018-1.4686.2375-.6121a8.3286,8.3286,0,0,0-.6722.5942,14.5745,14.5745,0,0,0-1.487,1.8113c-4.8293,6.7054-6.7211,16.9231-3.2752,24.577a16.4164,16.4164,0,0,0,4.1621,5.5642l.4182-3.2459c-4.6282,2.1912-6.3249,8.293-6.9924,12.918a42.4788,42.4788,0,0,0,1.5777,19.3637,24.8825,24.8825,0,0,0,4.9965,8.9314l.4182-3.2459c-4.2147,2.5985-6.4125,7.6919-7.4947,12.3262a42.9927,42.9927,0,0,0,.72,21.0293,52.876,52.876,0,0,0,5.8668,13.395l-.2083-1.5925c-2.448,13.684,2.8484,27.733,10.3978,39a21.8684,21.8684,0,0,0,2.2193,3.08c.8151.8407,2.3949.9195,3.5069,1.0593a12.8672,12.8672,0,0,0,3.2076.0293c4.41-.5431,7.3322-3.6535,8.6977-7.7389a30.9861,30.9861,0,0,0,1.011-12.0162,48.4191,48.4191,0,0,0-1.1724-8.2384,2.6366,2.6366,0,0,0-.8071-1.3718c-.6217-.5794.1344.1242-.1811-.1466-.1075-.0922-.2146-.1845-.3193-.28-.1971-.1794-.3868-.3666-.572-.5582a17.3792,17.3792,0,0,1-1.2026-1.3835,41.5216,41.5216,0,0,1-5.0084-8.7152c-2.319-5.2252-4.4908-12.62-.9778-17.84,2.3066-3.428,8.82-4.6766,12.3493-2.6208a19.5844,19.5844,0,0,1,6.25,6.5487,33.4834,33.4834,0,0,1,4.3149,9.92,23.0708,23.0708,0,0,1,.6956,4.7365,2.0679,2.0679,0,0,0,4.1333,0q.265-11.1321.53-22.2642c.1387-5.4568,4.2416-10.0887,9.8933-10.0609a49.41,49.41,0,0,1,5.3494.5538q2.8092.3237,5.6209.6267,6.1986.6677,12.4086,1.2223c9.59.8489,19.2184,1.5189,28.85,1.5292C504.418,145.9508,504.4221,141.8175,501.7582,141.8147Z"/><path d="M431.1424,174.9753a46.2546,46.2546,0,0,0-2.03-5.4234c-1.1947-2.7418-2.71-5.73-5.0912-7.6315a6.082,6.082,0,0,0-5.3144-1.4107,2.0854,2.0854,0,0,0-1.4434,2.5423,2.11,2.11,0,0,0,2.5422,1.4434c.0591-.0141.1307-.0229.1893-.0422.28-.0917-.2322.0462-.2675.0323a1.5122,1.5122,0,0,0,.3719-.016c.0591.0009.1246.0109.1842.0082.2884-.0133-.25-.0264-.2754-.0419a2.3185,2.3185,0,0,0,.45.1035c.0578.0173.1188.0443.178.0583.2809.0661-.2063-.08-.2293-.1038a1.65,1.65,0,0,0,.3478.17c.1167.0632.2307.1316.3422.2037.057.0368.112.0767.1689.1137.23.1491.1318.2367-.0848-.0732a5.5732,5.5732,0,0,0,.6485.5828c.2317.231.4509.4743.6606.7253.0638.0763.1249.1548.1886.2311.1585.19.0658-.0451-.1005-.1311.1044.054.2208.2991.2906.3976q.31.4375.593.8928a30.135,30.135,0,0,1,1.9824,3.8061c.0661.1491.13.2992.1955.4486.1154.2636-.1709-.4186.0227.0553.128.3135.255.6273.3775.943q.2988.77.5718,1.55c.1927.5507.3809,1.1043.5451,1.6643a2.0672,2.0672,0,0,0,3.9857-1.0988Z"/><path d="M467.7335,155.7073a16.7336,16.7336,0,0,0-5.8-2.3345,18.9879,18.9879,0,0,0-13.363,2.0679c-2.3253,1.2926-.2432,4.8639,2.0862,3.569a14.7923,14.7923,0,0,1,10.5769-1.56,17.5932,17.5932,0,0,1,1.9578.5953c.1537.0567.3052.1209.4592.1766.3736.1351-.224-.1033-.0022-.0024.2255.1025.4515.2028.6739.3121a10.6737,10.6737,0,0,1,1.3248.7448,2.067,2.067,0,1,0,2.0861-3.569Z"/><path d="M498.11,155.4929a19.989,19.989,0,0,0-5.9005-1.6378c-3.592-.4962-7.3629-.4443-10.5511,1.49a12.3406,12.3406,0,0,0-5.5791,7.5967,16.1313,16.1313,0,0,0,.8918,9.0407,33.2918,33.2918,0,0,0,6.8913,11.0232l-.5315-.9119a4.3891,4.3891,0,0,1-.06,1.1417c.001-.1361.0915-.109-.049.0326q-.2607.2374-.031.0366a3.2083,3.2083,0,0,1-.36.1982c.2193-.0683-.5274.125-.62.141a7.2191,7.2191,0,0,1-.8784.0669,18.8707,18.8707,0,0,1-2.9586-.2092,2.0767,2.0767,0,0,0-2.0667,2.0667,2.12,2.12,0,0,0,2.0667,2.0667c3.1342.4172,7.5122.4567,8.8151-3.1224a5.5581,5.5581,0,0,0,.31-1.9721,4.429,4.429,0,0,0-1.36-3.18,30.0991,30.0991,0,0,1-3.8191-5.4695c-1.4993-2.7748-2.9839-6.48-2.29-9.69a8.2008,8.2008,0,0,1,6.6614-6.3816,18.0177,18.0177,0,0,1,6.7509.4438,19.5251,19.5251,0,0,1,2.1027.6158c.1648.059.97.3785.272.09.07.0289.1386.06.2067.0928,2.3879,1.1423,4.4873-2.42,2.0862-3.569Z"/><circle cx="489.6417" cy="168.2093" r="3.0709"/><path d="M485.5378,168.1613a4.1662,4.1662,0,0,0,2.6835,3.8942,4.1012,4.1012,0,0,0,4.5059-1.1446,4.1018,4.1018,0,1,0-7.1894-2.75,1.0421,1.0421,0,0,0,1.0333,1.0334,1.0541,1.0541,0,0,0,1.0333-1.0334c.0025-.0852.0129-.1708.0146-.2558-.0041.2068-.0156.0857-.002.0249.03-.135.0584-.2686.1012-.4.0143-.0441.1216-.29.0134-.0571.0228-.0489.0455-.0977.07-.1458a3.4668,3.4668,0,0,1,.2536-.41c-.13.1842-.0279.0348.0143-.0088.0463-.0478.0895-.0985.1368-.1456.0526-.0522.3635-.291.1559-.149a3.862,3.862,0,0,1,.3394-.2138c.0474-.0257.0961-.048.1437-.0731.1746-.0919-.16.0371.0916-.0324.1327-.0367.2617-.0784.3973-.1044.0656-.0126.2463-.017.0148-.0047.0707-.0038.1409-.0106.2117-.0124s.1431-.0015.2146.0016c.0052,0,.285.0189.1163.0041-.1646-.0145.1009.02.1105.0219.0808.0171.1611.0374.24.0608s.1551.0518.2323.0793c-.0353-.0126-.19-.0943-.0234-.0073a3.9836,3.9836,0,0,1,.35.1982c.0058.0038.2171.1583.0906.06s.0749.068.08.0726a3.8,3.8,0,0,1,.329.3483c-.1391-.162-.0445-.06-.0181-.0166.0417.0687.0881.134.1283.2037.0267.0464.0524.0937.0767.1415.0229.0451.1092.2873.027.0489a4.0085,4.0085,0,0,1,.12.391c.0126.0538.0225.108.0334.1622.0415.2059-.0088-.1758.0059.1006.0069.1291-.0024.2564-.0031.3851-.0014.2739.05-.2054-.0051.06-.0114.0543-.0214.1087-.0342.1627a3.767,3.767,0,0,1-.1219.3916c.0854-.2385-.0065.0056-.0288.0489q-.0552.1075-.119.21c-.0341.0551-.0827.1091-.1113.1669-.0645.13.1571-.1652-.0111.0115-.0924.0971-.1794.1955-.2795.2853-.006.0053-.2095.1657-.0807.0715s-.086.0551-.0912.0585a3.2052,3.2052,0,0,1-.4243.23c.0361-.0163.1989-.0684.0205-.0143-.0785.0238-.1552.051-.2346.0719-.0532.014-.1069.0265-.1607.0377-.0116.0024-.2735.0313-.1095.0208.1693-.0109-.1093.0028-.115.003-.0715.0028-.1429.0029-.2143.0008s-.1419-.0087-.213-.0133c.25.0161.0043-.0012-.0568-.0141a3.6143,3.6143,0,0,1-.4726-.14c.2134.0762.0421.0195-.0127-.0107-.0825-.0456-.1662-.0873-.2465-.137-.0456-.0282-.0889-.06-.1343-.0881q-.1393-.1012.0172.017-.0619-.0506-.1213-.1043c-.0992-.09-.1869-.189-.2779-.2868-.176-.1889.1011.1761-.0329-.0449-.0417-.0688-.0881-.1339-.1283-.2037s-.0749-.1425-.1124-.2139c-.0986-.188.0437.17-.0194-.053-.0452-.16-.09-.3139-.1253-.4767-.0138-.0644.003-.1765.0032.026,0-.1132-.0136-.2268-.0134-.34a1.0333,1.0333,0,0,0-2.0666,0Z"/><circle cx="460.7217" cy="167.7577" r="3.0709"/><path d="M456.6178,167.71a4.1664,4.1664,0,0,0,2.6835,3.8942,4.1014,4.1014,0,0,0,4.5059-1.1447,4.1018,4.1018,0,1,0-7.1894-2.75,1.0421,1.0421,0,0,0,1.0333,1.0333,1.0539,1.0539,0,0,0,1.0333-1.0333c.0025-.0853.0129-.1709.0146-.2559-.0041.2068-.0156.0857-.002.0249.03-.135.0584-.2686.1012-.4.0144-.0441.1216-.2894.0134-.0571.0228-.0489.0455-.0977.07-.1458a3.4655,3.4655,0,0,1,.2536-.41c-.13.1842-.0279.0347.0143-.0088.0463-.0479.0895-.0986.1368-.1456.0526-.0523.3635-.2911.1559-.1491a3.862,3.862,0,0,1,.3394-.2138c.0474-.0257.0961-.048.1437-.0731.1746-.0919-.16.0372.0916-.0324.1327-.0367.2617-.0784.3973-.1044.0656-.0126.2463-.017.0148-.0047.0707-.0038.1409-.0106.2118-.0124s.143-.0015.2146.0016c.0051,0,.2849.0189.1162.0041-.1646-.0145.101.02.1105.0219q.1214.0258.24.0609c.0788.0232.1551.0517.2323.0792-.0353-.0126-.19-.0943-.0234-.0073a4.0093,4.0093,0,0,1,.35.1982c.0058.0038.2171.1583.0906.06s.0749.068.08.0726a3.8,3.8,0,0,1,.329.3483c-.1391-.162-.0445-.06-.0181-.0166.0417.0687.0881.134.1283.2037.0268.0464.0524.0937.0767.1415.0229.0451.1092.2874.0271.049a4.0252,4.0252,0,0,1,.12.3909c.0126.0538.0225.108.0334.1622.0415.2059-.0087-.1758.0059.1007.0069.129-.0024.2563-.0031.385-.0014.2739.05-.2054-.0051.06-.0114.0543-.0213.1087-.0342.1627a3.76,3.76,0,0,1-.1219.3916c.0854-.2384-.0065.0056-.0288.049q-.0552.1074-.1189.21c-.0342.0551-.0828.1091-.1114.1669-.0645.13.1572-.1652-.0111.0115-.0924.0971-.1793.1955-.28.2853-.006.0054-.2095.1657-.0807.0715s-.0859.0551-.0911.0585a3.2064,3.2064,0,0,1-.4244.23c.0361-.0163.1989-.0684.0205-.0143-.0784.0238-.1552.0511-.2346.072q-.08.0208-.1606.0376c-.0116.0024-.2736.0313-.11.0208.1693-.0108-.1093.0028-.115.003-.0715.0028-.1429.0029-.2143.0008s-.1419-.0087-.213-.0133c.25.0161.0044-.0012-.0568-.014a3.63,3.63,0,0,1-.4726-.14c.2134.0762.0421.02-.0127-.0107-.0825-.0456-.1662-.0873-.2465-.137-.0456-.0282-.0888-.06-.1343-.0881q-.1393-.1012.0172.0171-.0619-.0507-.1212-.1044c-.0992-.09-.187-.189-.278-.2867-.176-.189.1011.176-.0329-.045-.0417-.0688-.0881-.1339-.1283-.2037s-.0749-.1424-.1124-.2139c-.0986-.188.0437.17-.0194-.053-.0452-.16-.09-.3139-.1253-.4767-.0138-.0644.003-.1764.0032.026,0-.1132-.0136-.2268-.0134-.34a1.0333,1.0333,0,1,0-2.0666,0Z"/><circle class="cls-7" cx="465.6522" cy="191.1542" r="4.0945"/><path class="cls-6" d="M412.9458,58.2293a19.9152,19.9152,0,0,0-16.5334,1.3777"/><path d="M413.4952,56.2364a19.41,19.41,0,0,0-5.8234-1.2019,21.4744,21.4744,0,0,0-12.3025,2.788c-2.3087,1.32-.2289,4.8931,2.0862,3.569a17.4978,17.4978,0,0,1,10.43-2.2059c.1733.0153.3464.0339.5194.0526.1474.016.4516.0623.1417.0158.3029.0454.605.0953.9059.1529q.7833.15,1.5534.3608a12.0272,12.0272,0,0,1,1.39.4544,2.0793,2.0793,0,0,0,2.5422-1.4434,2.119,2.119,0,0,0-1.4434-2.5423Z"/><path class="cls-6" d="M509.3906,121.6072a35.3153,35.3153,0,0,0-18.6,0c-13.0889-2.7555-15.1556,0-15.1556,0"/><path d="M509.94,119.6144c-6.1923-2.04-13.4968-1.6084-19.6989,0H491.34c-4.3985-.9127-9.0924-1.7645-13.5842-1.0332-1.1486.187-2.817.5747-3.5822,1.5647a2.136,2.136,0,0,0,0,2.9227,2.08,2.08,0,0,0,2.9228,0c.2567-.3321-.2693.1252-.1488.0922a1.1773,1.1773,0,0,0,.3353-.1969c.0445-.0775.722-.2424-.1635.0579.1077-.0366.2108-.0876.3206-.1188.2749-.0783.5437-.1632.8235-.225.1443-.0319.29-.0561.4346-.085.47-.0935-.2235.0082.294-.0432a22.9021,22.9021,0,0,1,3.2515-.0733,39.0985,39.0985,0,0,1,4.4333.46c1.0332.1638,2.0573.3676,3.0845.5636a8.1933,8.1933,0,0,0,3.4614-.3484,35.1073,35.1073,0,0,1,10.7419-.5113,23.2559,23.2559,0,0,1,4.8766.9593c2.5322.8343,3.6176-3.1558,1.0988-3.9857Z"/><path class="cls-6" d="M481.146,79.5849s11.7112-9.6445,19.9779,1.3778c4.1333-1.3778,9.6444-1.3778,12.4,1.3777"/><path d="M482.6074,81.0462c.1373-.1123.3635-.2334-.241.1839.1276-.0881.2471-.1882.3745-.2768.4247-.2954.8525-.5834,1.2955-.8513a16.0613,16.0613,0,0,1,4.1834-1.869,10.0173,10.0173,0,0,1,11.12,3.7728,2.1453,2.1453,0,0,0,2.3339.95c3.1311-1.0064,7.7567-1.6489,10.3893.8463,1.93,1.8295,4.8581-1.0883,2.9227-2.9227-3.7587-3.5626-9.778-3.3984-14.4108-1.9093l2.3339.95a15.5958,15.5958,0,0,0-7.4945-5.7086,14.1851,14.1851,0,0,0-7.5579-.1552,20.5742,20.5742,0,0,0-8.1713,4.0677,2.081,2.081,0,0,0,0,2.9227,2.1137,2.1137,0,0,0,2.9227,0Z"/><path class="cls-6" d="M404.6791,95.4294s6.2-6.8889,17.2223,0c4.8222-.6889,6.2,0,6.2,0"/><path d="M406.1405,96.8907c.1575-.1731.339-.32.51-.4784.45-.416-.2943.162.3226-.2447.299-.1972.5958-.392.9091-.5666a9.9153,9.9153,0,0,1,5.3531-1.147,13.7237,13.7237,0,0,1,4.0375.9243,17.9988,17.9988,0,0,1,2.4228,1.1493,4.2482,4.2482,0,0,0,3.07.8549,22.3441,22.3441,0,0,1,4.044-.1448c.5594.0351-.3936-.091.0521.0029.13.0274.268.0672.4.0848.2283.03.6678.3038-.2031-.1115a2.1233,2.1233,0,0,0,2.8276-.7414,2.0848,2.0848,0,0,0-.7414-2.8276c-2.32-1.1062-5.3815-.5389-7.7925-.2084l1.5925.2084c-4.2224-2.59-9.309-4.2188-14.2313-2.8217a12.0383,12.0383,0,0,0-5.4955,3.1448c-1.787,1.9637,1.1277,4.8952,2.9228,2.9227Z"/></svg>